<?xml version="1.0" encoding="UTF-8" standalone="no"?>
<!DOCTYPE svg PUBLIC "-//W3C//DTD SVG 1.1//EN" "http://www.w3.org/Graphics/SVG/1.1/DTD/svg11.dtd">
<svg width="100%" height="100%" viewBox="0 0 2953 1063" version="1.1" xmlns="http://www.w3.org/2000/svg" xmlns:xlink="http://www.w3.org/1999/xlink" xml:space="preserve" xmlns:serif="http://www.serif.com/" style="fill-rule:evenodd;clip-rule:evenodd;stroke-linejoin:round;stroke-miterlimit:2;">
    <g id="Contenido" transform="matrix(1,0,0,1,0,78.1772)">
        <g id="Logo-Python-Canarias" serif:id="Logo Python Canarias" transform="matrix(1.64427,0,0,1.64427,847.315,446.385)">
            <g transform="matrix(1,0,0,1,-372.047,-127.559)">
                <g id="Capa-1" serif:id="Capa 1" transform="matrix(1,0,0,1,0,-797.244)">
                    <rect id="rect20075" x="0" y="797.362" width="744" height="255" style="fill:none;"/>
                    <g id="g4556">
                        <path id="path4513" d="M284.44,912.19L284.44,951.367L257.904,951.367L257.904,837.056L301.555,837.056C315.111,837.056 325.867,840.511 333.823,847.419C341.779,854.328 345.756,863.409 345.756,874.662C345.756,885.916 341.779,894.997 333.823,901.905C325.867,908.762 315.111,912.19 301.555,912.19L284.44,912.19ZM284.44,891.778L301.555,891.778C307.313,891.778 311.709,890.207 314.745,887.067C317.781,883.874 319.299,879.792 319.299,874.819C319.299,869.742 317.781,865.581 314.745,862.336C311.762,859.091 307.365,857.469 301.555,857.469L284.44,857.469L284.44,891.778Z" style="fill:rgb(245,204,0);fill-rule:nonzero;stroke:black;stroke-width:2px;"/>
                        <path id="path4515" d="M387.894,913.917L387.972,914.546L388.443,914.546L402.496,866.419L430.76,866.419L396.922,964.007C394.305,970.288 390.929,975.469 386.794,979.552C382.66,983.634 376.091,985.676 367.088,985.676C364.785,985.676 362.901,985.519 361.436,985.205C359.97,984.943 357.667,984.419 354.527,983.634L357.746,964.713C358.478,964.87 359.028,964.975 359.394,965.027C359.761,965.132 360.232,965.184 360.808,965.184C364.995,965.184 368.057,964.556 369.993,963.3C371.93,962.096 373.369,960.264 374.311,957.805L376.431,952.309L347.068,866.419L375.253,866.419L387.894,913.917L387.894,913.917Z" style="fill:rgb(245,204,0);fill-rule:nonzero;stroke:black;stroke-width:2px;"/>
                        <path id="path4517" d="M462.769,845.3L462.769,866.419L476.195,866.419L476.195,884.79L462.769,884.79L462.769,923.731C462.769,926.767 463.371,928.965 464.575,930.326C465.831,931.635 467.506,932.289 469.6,932.289C470.961,932.289 472.033,932.236 472.819,932.132C473.656,932.027 474.703,931.818 475.959,931.504L477.765,951.131C475.095,951.812 472.688,952.283 470.542,952.544C468.396,952.858 465.857,953.015 462.926,953.015C454.186,953.015 447.538,950.686 442.985,946.028C438.484,941.37 436.233,933.99 436.233,923.888L436.233,884.79L424.378,884.79L424.378,866.419L436.233,866.419L436.233,845.3L462.769,845.3Z" style="fill:rgb(245,204,0);fill-rule:nonzero;stroke:black;stroke-width:2px;"/>
                        <path id="path4519" d="M509.617,876.939C512.182,873.118 515.296,870.161 518.96,868.068C522.676,865.922 526.758,864.849 531.207,864.849C540,864.849 546.909,867.911 551.934,874.034C556.959,880.158 559.471,889.658 559.471,902.533L559.471,951.367L532.934,951.367L532.934,902.376C532.934,895.886 532.097,891.411 530.422,888.951C528.747,886.491 526.209,885.261 522.807,885.261C519.823,885.261 517.232,885.706 515.034,886.596C512.836,887.433 511.03,888.637 509.617,890.207L509.617,951.367L483.081,951.367L483.081,828.891L509.617,828.891L509.617,876.939Z" style="fill:rgb(245,204,0);fill-rule:nonzero;stroke:black;stroke-width:2px;"/>
                        <path id="path4521" d="M565.493,908.108C565.493,895.337 569.105,884.947 576.328,876.939C583.551,868.879 593.626,864.849 606.554,864.849C619.534,864.849 629.636,868.879 636.859,876.939C644.082,884.947 647.693,895.337 647.693,908.108L647.693,909.756C647.693,922.58 644.082,932.995 636.859,941.003C629.636,949.011 619.587,953.015 606.711,953.015C593.678,953.015 583.551,949.011 576.328,941.003C569.105,932.995 565.493,922.58 565.493,909.756L565.493,908.108ZM592.03,909.756C592.03,916.875 593.129,922.475 595.327,926.558C597.578,930.588 601.372,932.603 606.711,932.603C611.893,932.603 615.609,930.562 617.859,926.479C620.11,922.397 621.235,916.822 621.235,909.756L621.235,908.108C621.235,901.199 620.11,895.677 617.859,891.542C615.609,887.355 611.84,885.261 606.554,885.261C601.32,885.261 597.578,887.355 595.327,891.542C593.129,895.729 592.03,901.251 592.03,908.108L592.03,909.756Z" style="fill:rgb(245,204,0);fill-rule:nonzero;stroke:black;stroke-width:2px;"/>
                        <path id="path4523" d="M678.603,866.419L679.624,878.352C682.398,874.113 685.826,870.815 689.909,868.46C693.991,866.053 698.545,864.849 703.57,864.849C711.892,864.849 718.382,867.675 723.04,873.328C727.751,878.98 730.106,887.957 730.106,900.257L730.106,951.367L703.57,951.367L703.57,900.178C703.57,894.787 702.706,890.966 700.979,888.716C699.252,886.413 696.739,885.261 693.442,885.261C690.616,885.261 688.077,885.759 685.826,886.753C683.576,887.747 681.692,889.161 680.174,890.993L680.174,951.367L653.716,951.367L653.716,866.419L678.603,866.419Z" style="fill:rgb(245,204,0);fill-rule:nonzero;stroke:black;stroke-width:2px;"/>
                    </g>
                    <g id="g4564">
                        <path id="path4532" d="M420.805,986.079C420.866,1001.83 434.084,1014.54 450.322,1014.48C457.269,1014.45 463.642,1012.09 468.555,1008.27C469.441,1007.62 469.597,1006.17 468.786,1005.44C468.217,1004.47 466.923,1004.32 465.957,1004.97C461.77,1008.54 456.284,1010.5 450.306,1010.52C436.169,1010.58 424.816,999.554 424.763,986.063C424.709,972.249 435.975,961.138 450.113,961.082C456.091,961.059 461.592,963.138 465.968,966.513C466.778,967.157 468.07,967.071 468.713,966.099C469.437,965.369 469.27,963.996 468.379,963.273C463.436,959.495 457.044,957.097 450.097,957.124C433.86,957.268 420.742,970.003 420.805,986.079Z" style="fill:rgb(72,132,206);fill-rule:nonzero;"/>
                        <path id="path4534" d="M507.585,974.671C506.535,974.675 505.65,975.487 505.654,976.618L505.677,982.434C502.266,977.762 496.841,974.713 490.782,974.737C480.361,974.778 472.076,983.778 472.118,994.603C472.16,1005.43 480.516,1014.36 490.937,1014.32C496.996,1014.3 502.396,1011.13 505.771,1006.43L505.794,1012.32C505.798,1013.37 506.69,1014.26 507.74,1014.25C508.79,1014.25 509.676,1013.36 509.671,1012.31L509.532,976.603C509.528,975.472 508.635,974.667 507.585,974.671L507.585,974.671ZM490.922,1010.44C482.844,1010.48 476.03,1003.47 475.996,994.587C475.961,985.701 482.719,978.566 490.797,978.534C498.956,978.502 505.689,985.585 505.724,994.471C505.759,1003.36 499.081,1010.41 490.922,1010.44Z" style="fill:rgb(72,132,206);fill-rule:nonzero;"/>
                        <path id="path4536" d="M545.593,1012.17C545.597,1013.3 546.489,1014.1 547.539,1014.1C548.589,1014.1 549.475,1013.28 549.47,1012.15L549.386,990.665C549.352,981.859 542.133,974.617 533.247,974.652C528.319,974.671 523.885,976.95 520.991,980.435L520.976,976.639C520.972,975.588 520.16,974.703 519.11,974.707C517.979,974.711 517.175,975.603 517.179,976.653L517.232,990.144L517.235,990.791L517.319,1012.28L517.321,1012.76C517.321,1012.76 517.402,1012.85 517.402,1012.93C517.403,1013.01 517.403,1013.09 517.484,1013.17C517.728,1013.65 518.214,1014.05 518.781,1014.21L519.265,1014.21C519.831,1014.21 520.395,1013.97 520.717,1013.48C520.958,1013.24 521.037,1012.91 521.117,1012.59L521.116,1012.27L521.032,990.778C521.167,984.072 526.558,978.558 533.263,978.531C540.049,978.505 545.483,983.977 545.509,990.682L545.593,1012.17L545.593,1012.17Z" style="fill:rgb(72,132,206);fill-rule:nonzero;"/>
                        <path id="path4538" d="M589.599,974.35C588.549,974.354 587.663,975.166 587.668,976.297L587.69,982.113C584.279,977.441 578.855,974.392 572.796,974.416C562.375,974.457 554.089,983.456 554.132,994.281C554.174,1005.11 562.53,1014.04 572.951,1014C579.01,1013.98 584.41,1010.81 587.784,1006.11L587.807,1012C587.811,1013.05 588.704,1013.94 589.754,1013.93C590.804,1013.93 591.689,1013.04 591.685,1011.99L591.545,976.282C591.541,975.151 590.649,974.346 589.599,974.35L589.599,974.35ZM572.936,1010.12C564.857,1010.15 558.044,1003.15 558.009,994.266C557.974,985.38 564.732,978.245 572.811,978.213C580.97,978.181 587.703,985.264 587.738,994.15C587.772,1003.04 581.095,1010.09 572.936,1010.12Z" style="fill:rgb(72,132,206);fill-rule:nonzero;"/>
                        <path id="path4540" d="M600.121,1011.96C600.125,1013.09 601.017,1013.89 602.148,1013.89C603.118,1013.89 604.003,1013.07 603.999,1011.94L603.931,994.571C603.93,994.41 603.93,994.248 604.09,993.924C604.649,992.306 606.168,988.261 608.82,984.696C611.553,981.131 615.096,978.209 620.266,978.189C621.316,978.185 622.201,977.293 622.197,976.242C622.193,975.111 621.301,974.307 620.251,974.311C612.657,974.341 607.426,979.37 604.455,984.067C604.214,984.391 604.054,984.715 603.893,985.039L603.859,976.314C603.855,975.183 602.963,974.379 601.994,974.383C600.863,974.387 599.977,975.198 599.982,976.329L600.121,1011.96L600.121,1011.96Z" style="fill:rgb(72,132,206);fill-rule:nonzero;"/>
                        <path id="path4542" d="M627.324,1011.85C627.328,1012.9 628.22,1013.78 629.27,1013.78C630.401,1013.78 631.286,1012.88 631.282,1011.83L631.143,976.127C631.139,974.996 630.246,974.191 629.115,974.196C628.065,974.2 627.18,975.011 627.184,976.142L627.324,1011.85ZM627.141,965.075C627.145,966.206 628.038,967.172 629.088,967.168C630.219,967.164 631.104,966.19 631.099,965.059L631.092,963.201C631.088,962.151 630.196,961.266 629.065,961.27C628.015,961.274 627.13,962.167 627.134,963.217L627.141,965.075Z" style="fill:rgb(72,132,206);fill-rule:nonzero;"/>
                        <path id="path4544" d="M672.701,974.025C671.651,974.029 670.765,974.841 670.77,975.971L670.793,981.788C667.381,977.116 661.957,974.067 655.898,974.091C645.477,974.132 637.191,983.131 637.234,993.956C637.276,1004.78 645.632,1013.72 656.053,1013.68C662.112,1013.65 667.512,1010.48 670.886,1005.78L670.91,1011.68C670.914,1012.73 671.806,1013.61 672.856,1013.61C673.906,1013.61 674.791,1012.71 674.787,1011.66L674.647,975.956C674.643,974.825 673.751,974.021 672.701,974.025L672.701,974.025ZM656.038,1009.8C647.959,1009.83 641.146,1002.83 641.111,993.941C641.077,985.055 647.835,977.919 655.913,977.888C664.072,977.856 670.805,984.938 670.84,993.825C670.874,1002.71 664.197,1009.76 656.038,1009.8Z" style="fill:rgb(72,132,206);fill-rule:nonzero;"/>
                        <path id="path4546" d="M680.704,1007.92C683.946,1010.5 688.966,1013.47 695.348,1013.52C699.226,1013.51 702.453,1012.36 705.191,1010.33C707.849,1008.3 709.697,1005.63 709.684,1002.32C709.671,999.004 707.801,995.942 705.209,994.256C702.457,992.731 699.382,991.613 695.583,991.062L695.422,991.063C691.784,990.511 689.115,989.552 687.333,988.348C685.793,987.142 685.062,986.014 685.055,984.398C685.049,982.782 685.931,981.163 687.542,979.864C689.233,978.484 691.815,977.586 695.046,977.573C698.924,977.558 701.84,979.566 704.755,981.493C705.646,982.055 706.857,981.808 707.419,980.917C707.981,980.027 707.734,978.816 706.843,978.173C703.765,976.246 700.121,973.918 695.032,973.938C690.993,973.953 687.685,975.017 685.348,976.641C682.851,978.509 681.085,981.263 681.097,984.413C681.109,987.483 682.896,990.061 685.406,991.506C687.675,993.112 690.828,993.908 694.385,994.54L694.547,994.621C698.427,995.252 701.259,996.21 702.96,997.496C704.986,999.184 705.718,1000.47 705.806,1002.33C705.813,1004.11 704.77,1005.89 702.836,1007.19C701.065,1008.65 698.403,1009.63 695.333,1009.64C690.324,1009.66 685.952,1007.1 683.197,1005.09C682.306,1004.36 681.095,1004.53 680.452,1005.34C679.809,1006.15 679.894,1007.2 680.704,1007.92Z" style="fill:rgb(72,132,206);fill-rule:nonzero;"/>
                    </g>
                    <circle id="circle17737" cx="123.498" cy="924.235" r="112.076"/>
                    <g id="g5405" transform="matrix(1.66702,0,0,1.66702,-1363.62,-1622.9)">
                        <path id="path5407" d="M891.579,1582.91C919.611,1582.91 917.861,1570.75 917.861,1570.75L917.829,1558.16L891.079,1558.16L891.079,1554.37L928.454,1554.37C928.454,1554.37 946.392,1556.41 946.392,1528.12C946.392,1499.84 930.736,1500.84 930.736,1500.84L921.392,1500.84L921.392,1513.97C921.392,1513.97 921.896,1529.62 905.986,1529.62L879.454,1529.62C879.454,1529.62 864.548,1529.38 864.548,1544.03L864.548,1568.25C864.548,1568.25 862.285,1582.91 891.579,1582.91L891.579,1582.91ZM906.329,1574.44C903.668,1574.44 901.517,1572.29 901.517,1569.62C901.517,1566.96 903.668,1564.81 906.329,1564.81C908.991,1564.81 911.142,1566.96 911.142,1569.62C911.142,1572.29 908.991,1574.44 906.329,1574.44Z" style="fill:rgb(72,132,206);fill-rule:nonzero;"/>
                        <path id="path5409" d="M890.783,1473.06C862.752,1473.06 864.502,1485.22 864.502,1485.22L864.508,1487.46L864.534,1497.81L891.284,1497.81L891.284,1501.59L853.909,1501.59C853.909,1501.59 835.971,1499.56 835.971,1527.84C835.971,1556.12 851.627,1555.12 851.627,1555.12L860.971,1555.12L860.971,1542C860.971,1542 860.467,1526.34 876.377,1526.34L902.909,1526.34C902.909,1526.34 917.815,1526.58 917.815,1511.93L917.815,1487.72C917.815,1487.72 920.078,1473.06 890.784,1473.06L890.783,1473.06ZM876.033,1481.53C878.695,1481.53 880.846,1483.68 880.846,1486.34C880.846,1489 878.695,1491.15 876.033,1491.15C873.372,1491.15 871.221,1489 871.221,1486.34C871.221,1483.68 873.372,1481.53 876.033,1481.53Z" style="fill:rgb(245,204,0);fill-rule:nonzero;"/>
                        <path id="path5411" d="M850.796,1497.79L860.487,1497.79L860.487,1488.9C856.241,1488.66 850.789,1493.95 850.796,1497.79Z" style="fill:rgb(72,132,206);"/>
                        <path id="path5413" d="M931.035,1558.14L921.344,1558.14L921.344,1567.03C925.59,1567.27 931.042,1561.97 931.035,1558.14Z" style="fill:rgb(245,204,0);"/>
                    </g>
                </g>
            </g>
        </g>
        <g id="Logo-AdaLoveDev" serif:id="Logo AdaLoveDev" transform="matrix(1.11693,0,0,1.11693,2336.27,444.691)">
            <g transform="matrix(1,0,0,1,-420.95,-297.65)">
                <g>
                    <g>
                        <path d="M122.9,481.2L107.1,481.2L103.6,501.5L93,501.5L109.8,417.1L121.7,417.1L138.7,501.5L126.3,501.5L122.9,481.2ZM108,472.2L121.9,472.2L115.1,435.3L108,472.2Z" style="fill-rule:nonzero;"/>
                        <path d="M173.2,417C179.3,417 184.1,417.9 187.7,419.7C191.2,421.5 193.9,424.1 195.6,427.6C197.4,431.1 198.5,435.5 198.9,440.8C199.4,446.1 199.6,452.2 199.6,459.3C199.6,467 199.4,473.5 199,478.9C198.6,484.3 197.5,488.6 195.8,491.9C194.1,495.2 191.5,497.6 188.1,499.2C184.7,500.7 180,501.5 174,501.5L154.3,501.5L154.3,417L173.2,417ZM165.4,425.6L165.4,492.1L174.2,492.1C177.4,492.1 179.9,491.5 181.7,490.3C183.6,489.1 184.9,487.2 185.9,484.5C186.8,481.9 187.4,478.5 187.7,474.3C188,470.1 188.1,465.1 188.1,459.2C188.1,453 188,447.8 187.8,443.5C187.6,439.2 187,435.8 186,433.1C185.1,430.5 183.6,428.5 181.6,427.3C179.6,426.1 176.9,425.5 173.4,425.5L165.4,425.5L165.4,425.6Z" style="fill-rule:nonzero;"/>
                        <path d="M240.7,481.2L224.9,481.2L221.4,501.5L210.7,501.5L227.5,417.1L239.4,417.1L256.4,501.5L244,501.5L240.7,481.2ZM225.7,472.2L239.6,472.2L232.8,435.3L225.7,472.2Z" style="fill-rule:nonzero;"/>
                    </g>
                    <g>
                        <path d="M327.5,102.8L391.7,115.5L339.5,199.4L327.5,102.8Z" style="fill:rgb(170,46,94);fill-rule:nonzero;"/>
                        <path d="M269.3,162.9L322.4,107.1L339.5,199.4L269.3,162.9Z" style="fill:rgb(237,226,57);fill-rule:nonzero;"/>
                        <path d="M391.7,115.5L421.1,147.2L339.5,199.4L391.7,115.5Z" style="fill:rgb(83,167,178);fill-rule:nonzero;"/>
                        <path d="M339.5,203.2L421.1,147.2L421.1,239.3L339.5,203.2Z" style="fill:rgb(92,29,83);fill-rule:nonzero;"/>
                        <path d="M285.4,232.5L269.8,165.4L339.5,199.4L285.4,232.5Z" style="fill:rgb(83,167,178);fill-rule:nonzero;"/>
                        <path d="M380.9,275.4L290.2,231L339.5,199.4L380.9,275.4Z" style="fill:rgb(170,46,94);fill-rule:nonzero;"/>
                        <path d="M418.8,245.6L381.6,278.7L340.6,199.5L418.8,245.6Z" style="fill:rgb(237,226,57);fill-rule:nonzero;"/>
                        <path d="M294.9,233.3L380.9,275.4L418.8,344.3C418.8,344.3 318.6,262.1 290.3,234.5C289,233.4 293.3,232.5 294.9,233.3Z" style="fill:rgb(92,29,83);fill-rule:nonzero;"/>
                        <path d="M380.9,275.4L418.8,245.6L421.1,342.5L380.9,275.4Z" style="fill:rgb(83,167,178);fill-rule:nonzero;"/>
                        <path d="M514.8,102.8L448.7,112.5L502.8,199.4L514.8,102.8Z" style="fill:rgb(170,46,94);fill-rule:nonzero;"/>
                        <path d="M573,162.9L518.2,105.3L502.8,199.4L573,162.9Z" style="fill:rgb(237,226,57);fill-rule:nonzero;"/>
                        <path d="M450.5,115.5L421.1,147.2L502.8,199.4L450.5,115.5Z" style="fill:rgb(83,167,178);fill-rule:nonzero;"/>
                        <path d="M502.8,203.2L421.1,147.2L421.1,239.3L502.8,203.2Z" style="fill:rgb(170,46,94);fill-rule:nonzero;"/>
                        <path d="M556.9,232.5L572.4,165.4L502.8,199.4L556.9,232.5Z" style="fill:rgb(83,167,178);fill-rule:nonzero;"/>
                        <path d="M461.4,275.4L552,231L502.8,199.4L461.4,275.4Z" style="fill:rgb(170,46,94);fill-rule:nonzero;"/>
                        <path d="M423.5,245.6L460.7,278.7L501.7,199.5L423.5,245.6Z" style="fill:rgb(237,226,57);fill-rule:nonzero;"/>
                        <path d="M547.4,233.3L461.4,275.4L423.5,344.3C423.5,344.3 523.7,262.1 552,234.5C553.3,233.4 549,232.5 547.4,233.3Z" style="fill:rgb(92,29,83);fill-rule:nonzero;"/>
                        <path d="M461.4,275.4L423.5,245.6L421.1,342.5L461.4,275.4Z" style="fill:rgb(83,167,178);fill-rule:nonzero;"/>
                        <g>
                            <g>
                                <path d="M421.1,351.3C420.7,351.3 420.3,351.2 420,351.1C419,350.7 418.4,349.7 418.4,348.6L418.4,147.2C418.4,146.6 418.6,146 419,145.5L446.5,110.8C446.9,110.3 447.5,109.9 448.2,109.8L516.2,98.6C517,98.5 518,98.8 518.6,99.4L575,161.1C575.6,161.8 575.8,162.7 575.6,163.5L559.5,233C559.4,233.6 559.1,234.1 558.6,234.4L422.9,350.7C422.4,351.1 421.8,351.3 421.1,351.3ZM423.8,148.1L423.8,342.7L554.5,231L570.1,163.7L515.7,104.1L450.1,115L423.8,148.1Z" style="fill:white;fill-rule:nonzero;"/>
                                <path d="M421.1,351.3C420.5,351.3 419.8,351.1 419.3,350.7L283.6,234.5C283.2,234.1 282.9,233.6 282.7,233.1L266.6,163.6C266.4,162.7 266.6,161.8 267.2,161.2L323.6,99.5C324.2,98.8 325.2,98.5 326,98.7L394,109.9C394.7,110 395.3,110.4 395.7,110.9L423.2,145.6C423.6,146.1 423.8,146.7 423.8,147.3L423.8,348.7C423.8,349.8 423.2,350.7 422.2,351.2C421.9,351.2 421.5,351.3 421.1,351.3ZM287.8,231L418.4,342.8L418.4,148.1L392.2,115L326.7,104.2L272.3,163.8L287.8,231Z" style="fill:white;fill-rule:nonzero;"/>
                                <path d="M425.9,345.7L421.1,343.1L500.2,199.3L514,100.9L519.3,101.6L505.2,201.5L425.9,345.7Z" style="fill:white;fill-rule:nonzero;"/>
                                <path d="M555.5,234.8L500.5,201.6L446.4,113.9L451,111.1L504.7,198.2L558.3,230.1L555.5,234.8Z" style="fill:white;fill-rule:nonzero;"/>
                                <g transform="matrix(0.5539,-0.8326,0.8326,0.5539,60.9677,461.767)">
                                    <rect x="458.7" y="125.6" width="5.4" height="96.7" style="fill:white;"/>
                                </g>
                                <g transform="matrix(0.8832,-0.469,0.469,0.8832,-37.2522,256.846)">
                                    <rect x="411.1" y="200.5" width="171.9" height="5.4" style="fill:white;"/>
                                </g>
                                <path d="M416.4,345.7L336.8,200.6L323,101.6L328.3,100.9L342.1,199.3L421.2,343.1L416.4,345.7Z" style="fill:white;fill-rule:nonzero;"/>
                                <path d="M286.8,234.8L284,230.1L337.5,198.2L391.3,111.1L395.9,113.9L340.9,202.5L286.8,234.8Z" style="fill:white;fill-rule:nonzero;"/>
                                <g transform="matrix(0.8321,-0.5547,0.5547,0.8321,-32.544,240.491)">
                                    <rect x="332.5" y="171.3" width="96.7" height="5.4" style="fill:white;"/>
                                </g>
                                <g transform="matrix(0.4687,-0.8834,0.8834,0.4687,3.8854,412.9)">
                                    <rect x="342.5" y="117.3" width="5.4" height="171.9" style="fill:white;"/>
                                </g>
                            </g>
                            <path d="M381.2,278.6L289,232L291.5,227.1L380.5,272.2L419.4,239.5L422.9,243.6L381.2,278.6Z" style="fill:white;fill-rule:nonzero;"/>
                            <path d="M461,278.6L419.4,243.6L422.9,239.5L461.8,272.2L550.8,227.1L553.3,232L461,278.6Z" style="fill:white;fill-rule:nonzero;"/>
                            <circle cx="339.5" cy="199.4" r="12" style="fill:white;"/>
                            <circle cx="421.1" cy="241.6" r="12" style="fill:white;"/>
                            <circle cx="502.8" cy="199.4" r="12" style="fill:white;"/>
                            <circle cx="421.1" cy="145.4" r="12" style="fill:white;"/>
                            <circle cx="421.1" cy="337.8" r="12" style="fill:white;"/>
                            <circle cx="516.7" cy="107.1" r="12" style="fill:white;"/>
                            <circle cx="573" cy="162.9" r="12" style="fill:white;"/>
                            <circle cx="556.9" cy="232.5" r="12" style="fill:white;"/>
                            <circle cx="449.4" cy="112.5" r="12" style="fill:white;"/>
                            <circle cx="393.6" cy="112.5" r="12" style="fill:white;"/>
                            <circle cx="325.6" cy="103.5" r="12" style="fill:white;"/>
                            <circle cx="269.3" cy="162.9" r="12" style="fill:white;"/>
                            <circle cx="285.4" cy="232.5" r="12" style="fill:white;"/>
                            <circle cx="380.9" cy="275.4" r="12" style="fill:white;"/>
                            <g transform="matrix(0.1136,-0.9935,0.9935,0.1136,136.92,704.31)">
                                <circle cx="463.2" cy="275.4" r="12" style="fill:white;"/>
                            </g>
                        </g>
                    </g>
                    <g>
                        <path d="M534.7,423.1L534.7,417.8L539.9,417.8C541.3,417.8 542.8,418 544.3,418.4C545.7,418.8 547.1,419.4 548.2,420.4C549.4,421.3 550.3,422.6 551,424.1C551.7,425.7 552.1,427.6 552.1,429.9L552.1,445.2C552.1,448.9 552.4,451.6 553.1,453.4C553.8,455.2 555.2,456.1 557.4,456.1L560.7,456.1L560.7,462.4L557.4,462.4C555.5,462.4 554.1,463.3 553.3,465C552.5,466.7 552.1,469.7 552.1,473.9L552.1,489C552.1,491.7 551.7,494 551,495.7C550.2,497.4 549.3,498.8 548.1,499.9C546.9,500.9 545.6,501.7 544.1,502.1C542.7,502.5 541.2,502.7 539.7,502.7L534.7,502.7L534.7,497.2L539,497.2C540.1,497.2 541.1,497.1 541.9,496.9C542.7,496.7 543.4,496.1 544,495.3C544.6,494.5 545,493.3 545.3,491.6C545.6,489.9 545.7,487.7 545.7,484.9L545.7,471.8C545.7,468.5 546.3,465.9 547.6,463.9C548.8,461.9 550.8,460.4 553.3,459.4C550.9,458.5 549,457.1 547.7,455.1C546.4,453.1 545.7,450.4 545.7,447.1L545.7,435C545.7,432.3 545.6,430.2 545.3,428.6C545,427 544.6,425.8 544,425C543.4,424.2 542.8,423.6 541.9,423.4C541.1,423.1 540.1,423 539,423L534.7,423L534.7,423.1Z" style="fill:rgb(83,167,178);fill-rule:nonzero;"/>
                        <path d="M539.7,503.8L533.6,503.8L533.6,496.2L538.9,496.2C539.9,496.2 540.8,496.1 541.5,495.9C542.1,495.7 542.6,495.4 543,494.7C543.5,494 543.9,492.9 544.1,491.4C544.4,489.8 544.5,487.6 544.5,484.9L544.5,471.8C544.5,468.3 545.2,465.4 546.5,463.3C547.5,461.7 548.9,460.4 550.6,459.4C549,458.5 547.6,457.2 546.6,455.6C545.2,453.4 544.5,450.6 544.5,447L544.5,434.9C544.5,432.3 544.4,430.3 544.1,428.7C543.8,427.3 543.5,426.2 543,425.5C542.6,424.9 542.1,424.5 541.5,424.3C540.8,424.1 539.9,423.9 538.9,423.9L533.5,423.9L533.5,416.4L539.8,416.4C541.3,416.4 542.9,416.6 544.4,417C546,417.4 547.4,418.1 548.7,419.2C550,420.2 551,421.6 551.8,423.3C552.6,425 553,427.1 553,429.6L553,444.9C553,448.4 553.3,451 554,452.8C554.5,454.2 555.6,454.8 557.3,454.8L561.7,454.8L561.7,463.2L557.3,463.2C555.8,463.2 554.8,463.8 554.2,465.2C553.5,466.8 553.1,469.6 553.1,473.6L553.1,488.7C553.1,491.6 552.7,494 551.9,495.8C551.1,497.7 550,499.2 548.7,500.4C547.4,501.5 545.9,502.4 544.3,502.8C542.8,503.6 541.3,503.8 539.7,503.8ZM535.8,501.7L539.8,501.7C541.1,501.7 542.5,501.5 543.9,501.1C545.2,500.7 546.4,500.1 547.4,499.1C548.5,498.2 549.4,496.9 550,495.3C550.7,493.7 551,491.6 551,489L551,474C551,469.6 551.4,466.6 552.3,464.7C553.3,462.6 555,461.5 557.4,461.5L559.6,461.5L559.6,457.4L557.4,457.4C554.8,457.4 553,456.2 552.1,454C551.3,452 551,449.2 551,445.4L551,430.1C551,427.9 550.7,426.1 550,424.7C549.3,423.3 548.5,422.2 547.5,421.3C546.5,420.5 545.3,419.9 544,419.5C542.6,419.1 541.3,419 539.9,419L535.8,419L535.8,422.2L539.1,422.2C540.3,422.2 541.4,422.3 542.3,422.7C543.3,423 544.2,423.7 544.9,424.7C545.5,425.6 546,426.9 546.3,428.7C546.6,430.3 546.8,432.5 546.8,435.3L546.8,447.4C546.8,450.5 547.4,453 548.6,454.8C549.8,456.6 551.4,457.9 553.7,458.7L556.4,459.6L553.8,460.7C551.5,461.6 549.7,463 548.6,464.8C547.5,466.6 546.9,469 546.9,472.1L546.9,485C546.9,487.8 546.7,490.1 546.4,491.9C546.1,493.7 545.6,495.1 544.9,496C544.2,497 543.3,497.7 542.2,498C541.3,498.3 540.2,498.4 539,498.4L535.8,498.4L535.8,501.7Z" style="fill:rgb(83,167,178);fill-rule:nonzero;"/>
                    </g>
                    <g>
                        <path d="M299.7,423.1C298.7,423.1 297.7,423.2 296.9,423.5C296.1,423.8 295.4,424.4 294.8,425.2C294.2,426 293.8,427.3 293.5,428.8C293.2,430.4 293.1,432.4 293.1,435L293.1,447.7C293.1,451 292.5,453.5 291.2,455.2C290,457 288.1,458.3 285.5,459.2C288.3,460.4 290.2,462 291.4,463.9C292.6,465.8 293.1,468.5 293.1,471.8L293.1,485C293.1,487.8 293.2,490 293.5,491.7C293.8,493.4 294.2,494.6 294.8,495.4C295.4,496.2 296.1,496.7 296.9,497C297.7,497.2 298.7,497.3 299.7,497.3L304.1,497.3L304.1,502.8L299.2,502.8C297.7,502.8 296.2,502.6 294.7,502.2C293.2,501.8 291.9,501.1 290.7,500C289.5,498.9 288.5,497.6 287.8,495.8C287.1,494 286.7,491.8 286.7,489.1L286.7,474.5C286.7,470.1 286.3,467.1 285.5,465.3C284.7,463.5 283.3,462.6 281.3,462.6L278.1,462.6L278.1,456.3L281.3,456.3C283.5,456.3 285,455.4 285.7,453.5C286.4,451.7 286.7,448.9 286.7,445.1L286.7,429.9C286.7,427.6 287.1,425.6 287.8,424.1C288.5,422.5 289.5,421.3 290.6,420.4C291.8,419.5 293.1,418.8 294.5,418.4C296,418 297.4,417.8 298.9,417.8L304.1,417.8L304.1,423.1L299.7,423.1Z" style="fill:rgb(83,167,178);fill-rule:nonzero;"/>
                        <path d="M305.3,503.8L299.3,503.8C297.7,503.8 296.1,503.6 294.5,503.2C292.9,502.7 291.4,501.9 290.1,500.8C288.8,499.6 287.7,498.1 286.9,496.2C286.1,494.3 285.7,491.9 285.7,489.1L285.7,474.5C285.7,470.3 285.3,467.4 284.6,465.7C284,464.3 283,463.6 281.4,463.6L277.1,463.6L277.1,455.2L281.4,455.2C283.1,455.2 284.2,454.5 284.7,453.1C285.3,451.4 285.7,448.7 285.7,445.1L285.7,429.9C285.7,427.4 286.1,425.3 286.9,423.6C287.7,421.9 288.7,420.5 290,419.5C291.3,418.5 292.7,417.8 294.3,417.3C295.8,416.9 297.4,416.7 298.9,416.7L305.2,416.7L305.2,424.2L299.7,424.2C298.8,424.2 298,424.3 297.2,424.6C296.6,424.8 296.1,425.2 295.7,425.9C295.2,426.6 294.9,427.7 294.6,429.1C294.3,430.6 294.2,432.6 294.2,435.1L294.2,447.8C294.2,451.3 293.5,454 292.1,456C291.1,457.4 289.8,458.5 288.1,459.4C290,460.5 291.4,461.9 292.4,463.5C293.6,465.6 294.3,468.4 294.3,472L294.3,485C294.3,487.7 294.4,489.9 294.7,491.5C295,493 295.3,494.1 295.8,494.8C296.2,495.4 296.7,495.8 297.3,495.9C298,496.1 298.9,496.2 299.8,496.2L305.2,496.2L305.2,503.8L305.3,503.8ZM279.2,461.4L281.3,461.4C283.8,461.4 285.6,462.5 286.5,464.7C287.3,466.7 287.8,469.8 287.8,474.4L287.8,489C287.8,491.6 288.1,493.7 288.8,495.3C289.5,496.9 290.4,498.2 291.4,499.1C292.4,500 293.6,500.7 295,501C296.4,501.4 297.8,501.6 299.2,501.6L303,501.6L303,498.3L299.7,498.3C298.6,498.3 297.5,498.2 296.6,497.9C295.5,497.6 294.6,496.9 293.9,495.9C293.2,494.9 292.7,493.6 292.4,491.7C292.1,490 292,487.7 292,484.8L292,471.7C292,468.5 291.5,466.1 290.5,464.3C289.5,462.6 287.7,461.2 285.1,460L282.6,458.9L285.2,458C287.6,457.2 289.2,456 290.4,454.4C291.5,452.8 292.1,450.5 292.1,447.5L292.1,434.8C292.1,432.2 292.3,430 292.6,428.4C292.9,426.7 293.4,425.4 294,424.4C294.7,423.4 295.6,422.7 296.6,422.3C297.6,422 298.6,421.8 299.8,421.8L303.2,421.8L303.2,418.6L299,418.6C297.6,418.6 296.3,418.8 294.9,419.1C293.6,419.4 292.4,420 291.4,420.9C290.4,421.7 289.5,422.9 288.9,424.3C288.2,425.7 287.9,427.5 287.9,429.7L287.9,444.9C287.9,448.8 287.5,451.7 286.8,453.7C286.2,455.3 284.8,457.1 281.4,457.1L279.3,457.1L279.3,461.4L279.2,461.4Z" style="fill:rgb(83,167,178);fill-rule:nonzero;"/>
                    </g>
                    <g>
                        <path d="M332.7,416.8L332.7,492.6L350,492.6L350,501.2L321.3,501.2L321.3,416.8L332.7,416.8Z" style="fill:rgb(83,167,178);fill-rule:nonzero;"/>
                        <path d="M386.5,415.3C392.1,415.3 396.4,416.2 399.5,418C402.6,419.8 404.8,422.5 406.3,426.2C407.8,429.8 408.7,434.4 409,439.9C409.3,445.4 409.5,451.8 409.5,459.1C409.5,466.5 409.3,472.9 409,478.4C408.7,483.8 407.8,488.4 406.3,492C404.8,495.6 402.6,498.3 399.5,500.1C396.4,501.9 392.1,502.8 386.5,502.8C380.9,502.8 376.5,501.9 373.4,500C370.3,498.2 367.9,495.4 366.4,491.8C364.9,488.2 363.9,483.6 363.5,478.2C363.1,472.8 362.9,466.4 362.9,459.2C362.9,452 363.1,445.7 363.5,440.3C363.9,434.9 364.8,430.3 366.4,426.6C367.9,422.9 370.3,420.1 373.4,418.3C376.5,416.3 380.9,415.3 386.5,415.3ZM386.5,424.2C383.8,424.2 381.6,424.9 380.1,426.2C378.6,427.5 377.4,429.6 376.6,432.4C375.8,435.2 375.3,438.8 375.1,443.2C374.9,447.6 374.8,452.9 374.8,459.1C374.8,465.4 374.9,470.7 375.1,475.1C375.3,479.5 375.8,483.1 376.6,485.9C377.4,488.7 378.6,490.7 380.1,492C381.6,493.2 383.8,493.9 386.5,493.9C389.1,493.9 391.2,493.3 392.7,492C394.2,490.8 395.3,488.7 396,485.9C396.7,483.1 397.1,479.5 397.3,475.1C397.4,470.7 397.5,465.4 397.5,459.1C397.5,452.9 397.4,447.6 397.3,443.2C397.1,438.8 396.7,435.1 396,432.3C395.3,429.5 394.2,427.4 392.7,426.1C391.2,424.8 389.1,424.2 386.5,424.2Z" style="fill:rgb(83,167,178);fill-rule:nonzero;"/>
                        <path d="M444.6,481.9L456.2,416.8L466.9,416.8L449.9,501.2L438,501.2L421.1,416.8L433.2,416.8L444.6,481.9Z" style="fill:rgb(83,167,178);fill-rule:nonzero;"/>
                        <path d="M514.9,416.8L514.9,425.6L493.7,425.6L493.7,452.2L511.5,452.2L510.7,461.2L493.7,461.2L493.7,492.6L515.5,492.6L515.5,501.2L482.5,501.2L482.5,416.8L514.9,416.8Z" style="fill:rgb(83,167,178);fill-rule:nonzero;"/>
                    </g>
                    <g>
                        <path d="M603,416.8C609.1,416.8 613.9,417.7 617.5,419.5C621,421.3 623.7,423.9 625.4,427.4C627.2,430.9 628.3,435.3 628.7,440.6C629.2,445.9 629.4,452 629.4,459.1C629.4,466.8 629.2,473.3 628.8,478.7C628.4,484.1 627.3,488.4 625.6,491.7C623.9,495 621.3,497.4 617.9,499C614.5,500.5 609.8,501.3 603.8,501.3L584.1,501.3L584.1,416.9L603,416.9L603,416.8ZM595.2,425.4L595.2,491.9L604,491.9C607.2,491.9 609.7,491.3 611.5,490.1C613.4,488.9 614.7,487 615.7,484.3C616.6,481.7 617.2,478.3 617.5,474.1C617.8,469.9 617.9,464.9 617.9,459C617.9,452.8 617.8,447.6 617.6,443.3C617.4,439 616.8,435.6 615.8,432.9C614.9,430.3 613.4,428.3 611.4,427.1C609.4,425.9 606.7,425.3 603.2,425.3L595.2,425.3L595.2,425.4Z" style="fill-rule:nonzero;"/>
                        <path d="M679.8,416.8L679.8,425.6L658.6,425.6L658.6,452.2L676.4,452.2L675.6,461.2L658.6,461.2L658.6,492.6L680.4,492.6L680.4,501.2L647.4,501.2L647.4,416.8L679.8,416.8Z" style="fill-rule:nonzero;"/>
                        <path d="M717.5,481.9L729.1,416.8L739.8,416.8L722.8,501.2L711,501.2L694,416.8L706.1,416.8L717.5,481.9Z" style="fill-rule:nonzero;"/>
                    </g>
                </g>
            </g>
        </g>
        <g id="Link" transform="matrix(0.245035,0.245035,-0.245035,0.245035,1706.56,428.512)">
            <g transform="matrix(1,0,0,1,-256,-256)">
                <clipPath id="_clip1">
                    <rect x="0" y="0" width="512" height="512"/>
                </clipPath>
                <g clip-path="url(#_clip1)">
                    <path d="M326.612,185.391C386.359,245.2 385.539,341.089 326.972,399.981C326.862,400.101 326.732,400.231 326.612,400.351L259.412,467.551C200.142,526.821 103.713,526.813 44.452,467.551C-14.818,408.291 -14.818,311.851 44.452,252.591L81.558,215.485C91.398,205.645 108.344,212.185 108.852,226.091C109.5,243.813 112.678,261.618 118.542,278.812C120.528,284.634 119.109,291.074 114.759,295.424L101.672,308.511C73.646,336.537 72.767,382.171 100.517,410.471C128.541,439.05 174.603,439.22 202.842,410.981L270.042,343.791C298.233,315.6 298.115,270.034 270.042,241.961C266.341,238.267 262.613,235.397 259.701,233.392C255.527,230.526 252.948,225.846 252.754,220.786C252.358,210.219 256.102,199.33 264.452,190.98L285.506,169.925C291.027,164.404 299.688,163.726 306.09,168.194C313.422,173.313 320.289,179.068 326.612,185.391ZM467.547,44.449C408.286,-14.813 311.857,-14.821 252.587,44.449L185.387,111.649C185.267,111.769 185.137,111.899 185.027,112.019C126.461,170.911 125.64,266.8 185.387,326.609C191.71,332.932 198.577,338.686 205.908,343.805C212.31,348.273 220.972,347.594 226.492,342.074L247.546,321.019C255.896,312.669 259.64,301.78 259.244,291.213C259.05,286.153 256.471,281.473 252.297,278.607C249.385,276.602 245.657,273.732 241.956,270.038C213.883,241.965 213.765,196.399 241.956,168.208L309.156,101.018C337.395,72.779 383.456,72.949 411.481,101.528C439.231,129.828 438.353,175.462 410.326,203.488L397.239,216.575C392.889,220.925 391.47,227.365 393.456,233.187C399.32,250.381 402.498,268.186 403.146,285.908C403.655,299.814 420.6,306.354 430.44,296.514L467.546,259.408C526.817,200.149 526.817,103.709 467.547,44.449Z" style="fill-rule:nonzero;"/>
                </g>
            </g>
        </g>
    </g>
    <g id="Tableros" opacity="0.61">
        <g id="Tablero-inferior" serif:id="Tablero inferior" transform="matrix(1.81325,0.138462,-0.124814,1.63452,-1661.08,-2372.5)">
            <g transform="matrix(0.707107,0.707107,-0.707107,0.707107,1805.9,-823.741)">
                <path d="M2011.44,1625.59L1911.23,1659L1877.82,1759.22L1978.04,1725.81L2011.44,1625.59Z" style="fill:rgb(170,46,94);"/>
            </g>
            <g transform="matrix(0.707107,0.707107,-0.707107,0.707107,1711.41,-776.497)">
                <path d="M2011.44,1625.59L1911.23,1659L1877.82,1759.22L1978.04,1725.81L2011.44,1625.59Z" style="fill:rgb(245,204,0);"/>
            </g>
            <g transform="matrix(0.707107,0.707107,-0.707107,0.707107,1805.9,-729.252)">
                <path d="M2011.44,1625.59L1911.23,1659L1877.82,1759.22L1978.04,1725.81L2011.44,1625.59Z" style="fill:rgb(92,29,83);"/>
            </g>
            <g transform="matrix(0.707107,0.707107,-0.707107,0.707107,1711.41,-682.008)">
                <path d="M2011.44,1625.59L1911.23,1659L1877.82,1759.22L1978.04,1725.81L2011.44,1625.59Z" style="fill:rgb(83,167,178);"/>
            </g>
            <g transform="matrix(0.707107,0.707107,-0.707107,0.707107,1616.92,-634.764)">
                <path d="M2011.44,1625.59L1911.23,1659L1877.82,1759.22L1978.04,1725.81L2011.44,1625.59Z" style="fill:rgb(237,226,57);"/>
            </g>
            <g transform="matrix(0.707107,0.707107,-0.707107,0.707107,1522.43,-587.52)">
                <path d="M2011.44,1625.59L1911.23,1659L1877.82,1759.22L1978.04,1725.81L2011.44,1625.59Z" style="fill:rgb(72,132,206);"/>
            </g>
            <g transform="matrix(0.707107,0.707107,-0.707107,0.707107,1616.92,-729.252)">
                <path d="M2011.44,1625.59L1911.23,1659L1877.82,1759.22L1978.04,1725.81L2011.44,1625.59Z" style="fill:rgb(92,29,83);"/>
            </g>
            <g transform="matrix(0.707107,0.707107,-0.707107,0.707107,1522.43,-682.008)">
                <path d="M2011.44,1625.59L1911.23,1659L1877.82,1759.22L1978.04,1725.81L2011.44,1625.59Z" style="fill:rgb(83,167,178);"/>
            </g>
            <g transform="matrix(0.707107,0.707107,-0.707107,0.707107,1427.95,-634.764)">
                <path d="M2011.44,1625.59L1911.23,1659L1877.82,1759.22L1978.04,1725.81L2011.44,1625.59Z" style="fill:rgb(237,226,57);"/>
            </g>
            <g transform="matrix(0.707107,0.707107,-0.707107,0.707107,1333.46,-587.52)">
                <path d="M2011.44,1625.59L1911.23,1659L1877.82,1759.22L1978.04,1725.81L2011.44,1625.59Z" style="fill:rgb(72,132,206);"/>
            </g>
            <g transform="matrix(0.707107,0.707107,-0.707107,0.707107,1900.39,-776.497)">
                <path d="M2011.44,1625.59L1911.23,1659L1877.82,1759.22L1978.04,1725.81L2011.44,1625.59Z" style="fill:rgb(245,204,0);"/>
            </g>
            <g transform="matrix(0.707107,0.707107,-0.707107,0.707107,1994.88,-729.252)">
                <path d="M2011.44,1625.59L1911.23,1659L1877.82,1759.22L1978.04,1725.81L2011.44,1625.59Z" style="fill:rgb(92,29,83);"/>
            </g>
            <g transform="matrix(0.707107,0.707107,-0.707107,0.707107,2089.36,-682.008)">
                <path d="M2011.44,1625.59L1911.23,1659L1877.82,1759.22L1978.04,1725.81L2011.44,1625.59Z" style="fill:rgb(83,167,178);"/>
            </g>
            <g transform="matrix(0.707107,0.707107,-0.707107,0.707107,2183.85,-634.764)">
                <path d="M2011.44,1625.59L1911.23,1659L1877.82,1759.22L1978.04,1725.81L2011.44,1625.59Z" style="fill:rgb(237,226,57);"/>
            </g>
            <g transform="matrix(0.707107,0.707107,-0.707107,0.707107,2278.34,-587.52)">
                <path d="M2011.44,1625.59L1911.23,1659L1877.82,1759.22L1978.04,1725.81L2011.44,1625.59Z" style="fill:rgb(72,132,206);"/>
            </g>
            <g transform="matrix(0.707107,0.707107,-0.707107,0.707107,2089.36,-587.52)">
                <path d="M2011.44,1625.59L1911.23,1659L1877.82,1759.22L1978.04,1725.81L2011.44,1625.59Z" style="fill:rgb(72,132,206);"/>
            </g>
            <g transform="matrix(0.707107,0.707107,-0.707107,0.707107,1994.88,-634.764)">
                <path d="M2011.44,1625.59L1911.23,1659L1877.82,1759.22L1978.04,1725.81L2011.44,1625.59Z" style="fill:rgb(237,226,57);"/>
            </g>
            <g transform="matrix(0.707107,0.707107,-0.707107,0.707107,1900.39,-587.52)">
                <path d="M2011.44,1625.59L1911.23,1659L1877.82,1759.22L1978.04,1725.81L2011.44,1625.59Z" style="fill:rgb(72,132,206);"/>
            </g>
            <g transform="matrix(0.707107,0.707107,-0.707107,0.707107,1900.39,-682.008)">
                <path d="M2011.44,1625.59L1911.23,1659L1877.82,1759.22L1978.04,1725.81L2011.44,1625.59Z" style="fill:rgb(83,167,178);"/>
            </g>
            <g transform="matrix(0.707107,0.707107,-0.707107,0.707107,1805.9,-634.764)">
                <path d="M2011.44,1625.59L1911.23,1659L1877.82,1759.22L1978.04,1725.81L2011.44,1625.59Z" style="fill:rgb(237,226,57);"/>
            </g>
            <g transform="matrix(0.707107,0.707107,-0.707107,0.707107,1711.41,-587.52)">
                <path d="M2011.44,1625.59L1911.23,1659L1877.82,1759.22L1978.04,1725.81L2011.44,1625.59Z" style="fill:rgb(72,132,206);"/>
            </g>
        </g>
        <g id="Tablero-superior" serif:id="Tablero superior" transform="matrix(1.81325,-0.138462,-0.100636,-1.31789,-2378.78,2813.03)">
            <g transform="matrix(0.707107,0.707107,-0.707107,0.707107,1805.9,-823.741)">
                <path d="M2011.44,1625.59L1911.23,1659L1877.82,1759.22L1978.04,1725.81L2011.44,1625.59Z" style="fill:rgb(170,46,94);"/>
            </g>
            <g transform="matrix(0.707107,0.707107,-0.707107,0.707107,1711.41,-776.497)">
                <path d="M2011.44,1625.59L1911.23,1659L1877.82,1759.22L1978.04,1725.81L2011.44,1625.59Z" style="fill:rgb(245,204,0);"/>
            </g>
            <g transform="matrix(0.707107,0.707107,-0.707107,0.707107,1805.9,-729.252)">
                <path d="M2011.44,1625.59L1911.23,1659L1877.82,1759.22L1978.04,1725.81L2011.44,1625.59Z" style="fill:rgb(92,29,83);"/>
            </g>
            <g transform="matrix(0.707107,0.707107,-0.707107,0.707107,1711.41,-682.008)">
                <path d="M2011.44,1625.59L1911.23,1659L1877.82,1759.22L1978.04,1725.81L2011.44,1625.59Z" style="fill:rgb(83,167,178);"/>
            </g>
            <g transform="matrix(0.707107,0.707107,-0.707107,0.707107,1616.92,-634.764)">
                <path d="M2011.44,1625.59L1911.23,1659L1877.82,1759.22L1978.04,1725.81L2011.44,1625.59Z" style="fill:rgb(237,226,57);"/>
            </g>
            <g transform="matrix(0.707107,0.707107,-0.707107,0.707107,1522.43,-587.52)">
                <path d="M2011.44,1625.59L1911.23,1659L1877.82,1759.22L1978.04,1725.81L2011.44,1625.59Z" style="fill:rgb(72,132,206);"/>
            </g>
            <g transform="matrix(0.707107,0.707107,-0.707107,0.707107,1616.92,-729.252)">
                <path d="M2011.44,1625.59L1911.23,1659L1877.82,1759.22L1978.04,1725.81L2011.44,1625.59Z" style="fill:rgb(92,29,83);"/>
            </g>
            <g transform="matrix(0.707107,0.707107,-0.707107,0.707107,1522.43,-682.008)">
                <path d="M2011.44,1625.59L1911.23,1659L1877.82,1759.22L1978.04,1725.81L2011.44,1625.59Z" style="fill:rgb(83,167,178);"/>
            </g>
            <g transform="matrix(0.707107,0.707107,-0.707107,0.707107,1427.95,-634.764)">
                <path d="M2011.44,1625.59L1911.23,1659L1877.82,1759.22L1978.04,1725.81L2011.44,1625.59Z" style="fill:rgb(237,226,57);"/>
            </g>
            <g transform="matrix(0.707107,0.707107,-0.707107,0.707107,1333.46,-587.52)">
                <path d="M2011.44,1625.59L1911.23,1659L1877.82,1759.22L1978.04,1725.81L2011.44,1625.59Z" style="fill:rgb(72,132,206);"/>
            </g>
            <g transform="matrix(0.707107,0.707107,-0.707107,0.707107,1900.39,-776.497)">
                <path d="M2011.44,1625.59L1911.23,1659L1877.82,1759.22L1978.04,1725.81L2011.44,1625.59Z" style="fill:rgb(245,204,0);"/>
            </g>
            <g transform="matrix(0.707107,0.707107,-0.707107,0.707107,1994.88,-729.252)">
                <path d="M2011.44,1625.59L1911.23,1659L1877.82,1759.22L1978.04,1725.81L2011.44,1625.59Z" style="fill:rgb(92,29,83);"/>
            </g>
            <g transform="matrix(0.707107,0.707107,-0.707107,0.707107,2089.36,-682.008)">
                <path d="M2011.44,1625.59L1911.23,1659L1877.82,1759.22L1978.04,1725.81L2011.44,1625.59Z" style="fill:rgb(83,167,178);"/>
            </g>
            <g transform="matrix(0.707107,0.707107,-0.707107,0.707107,2183.85,-634.764)">
                <path d="M2011.44,1625.59L1911.23,1659L1877.82,1759.22L1978.04,1725.81L2011.44,1625.59Z" style="fill:rgb(237,226,57);"/>
            </g>
            <g transform="matrix(0.707107,0.707107,-0.707107,0.707107,2089.36,-587.52)">
                <path d="M2011.44,1625.59L1911.23,1659L1877.82,1759.22L1978.04,1725.81L2011.44,1625.59Z" style="fill:rgb(72,132,206);"/>
            </g>
            <g transform="matrix(0.707107,0.707107,-0.707107,0.707107,1994.88,-634.764)">
                <path d="M2011.44,1625.59L1911.23,1659L1877.82,1759.22L1978.04,1725.81L2011.44,1625.59Z" style="fill:rgb(237,226,57);"/>
            </g>
            <g transform="matrix(0.707107,0.707107,-0.707107,0.707107,1900.39,-587.52)">
                <path d="M2011.44,1625.59L1911.23,1659L1877.82,1759.22L1978.04,1725.81L2011.44,1625.59Z" style="fill:rgb(72,132,206);"/>
            </g>
            <g transform="matrix(0.707107,0.707107,-0.707107,0.707107,1900.39,-682.008)">
                <path d="M2011.44,1625.59L1911.23,1659L1877.82,1759.22L1978.04,1725.81L2011.44,1625.59Z" style="fill:rgb(83,167,178);"/>
            </g>
            <g transform="matrix(0.707107,0.707107,-0.707107,0.707107,1805.9,-634.764)">
                <path d="M2011.44,1625.59L1911.23,1659L1877.82,1759.22L1978.04,1725.81L2011.44,1625.59Z" style="fill:rgb(237,226,57);"/>
            </g>
            <g transform="matrix(0.707107,0.707107,-0.707107,0.707107,1711.41,-587.52)">
                <path d="M2011.44,1625.59L1911.23,1659L1877.82,1759.22L1978.04,1725.81L2011.44,1625.59Z" style="fill:rgb(72,132,206);"/>
            </g>
        </g>
    </g>
</svg>
