<?xml version="1.0" encoding="UTF-8" standalone="no"?>
<!DOCTYPE svg PUBLIC "-//W3C//DTD SVG 1.1//EN" "http://www.w3.org/Graphics/SVG/1.1/DTD/svg11.dtd">
<svg width="188px" height="187px" version="1.1" xmlns="http://www.w3.org/2000/svg" xmlns:xlink="http://www.w3.org/1999/xlink" xml:space="preserve" xmlns:serif="http://www.serif.com/" style="fill-rule:evenodd;clip-rule:evenodd;stroke-linejoin:round;stroke-miterlimit:2;">
    <g transform="matrix(1,0,0,1,-0.500376,-0.500381)">
        <g transform="matrix(1,0,0,1,-31.96,-35.3581)">
            <g transform="matrix(1.66702,0,0,1.66702,-1359.62,-2418.26)">
                <g id="g5405">
                    <path id="path5407" d="M891.579,1582.91C919.611,1582.91 917.861,1570.75 917.861,1570.75L917.829,1558.16L891.079,1558.16L891.079,1554.37L928.454,1554.37C928.454,1554.37 946.392,1556.41 946.392,1528.12C946.392,1499.84 930.736,1500.84 930.736,1500.84L921.392,1500.84L921.392,1513.97C921.392,1513.97 921.896,1529.62 905.986,1529.62L879.454,1529.62C879.454,1529.62 864.548,1529.38 864.548,1544.03L864.548,1568.25C864.548,1568.25 862.285,1582.91 891.579,1582.91ZM906.329,1574.44C903.668,1574.44 901.517,1572.29 901.517,1569.62C901.517,1566.96 903.668,1564.81 906.329,1564.81C908.991,1564.81 911.142,1566.96 911.142,1569.62C911.142,1572.29 908.991,1574.44 906.329,1574.44Z" style="fill:none;fill-rule:nonzero;stroke:black;stroke-width:1.8px;"/>
                    <path id="path5409" d="M890.783,1473.06C862.752,1473.06 864.502,1485.22 864.502,1485.22L864.508,1487.46L864.534,1497.81L891.284,1497.81L891.284,1501.59L853.909,1501.59C853.909,1501.59 835.971,1499.56 835.971,1527.84C835.971,1556.12 851.627,1555.12 851.627,1555.12L860.971,1555.12L860.971,1542C860.971,1542 860.467,1526.34 876.377,1526.34L902.909,1526.34C902.909,1526.34 917.815,1526.58 917.815,1511.93L917.815,1487.72C917.815,1487.72 920.078,1473.06 890.784,1473.06L890.783,1473.06ZM876.033,1481.53C878.695,1481.53 880.846,1483.68 880.846,1486.34C880.846,1489 878.695,1491.15 876.033,1491.15C873.372,1491.15 871.221,1489 871.221,1486.34C871.221,1483.68 873.372,1481.53 876.033,1481.53Z" style="fill:none;fill-rule:nonzero;stroke:black;stroke-width:1.8px;"/>
                    <path id="path5411" d="M850.796,1497.79L860.487,1497.79L860.487,1488.9C856.241,1488.66 850.789,1493.95 850.796,1497.79Z" style="fill:none;stroke:black;stroke-width:1.8px;"/>
                    <path id="path5413" d="M931.035,1558.14L921.344,1558.14L921.344,1567.03C925.59,1567.27 931.042,1561.97 931.035,1558.14Z" style="fill:none;stroke:black;stroke-width:1.8px;"/>
                </g>
            </g>
        </g>
    </g>
</svg>
