<?xml version="1.0" encoding="UTF-8" standalone="no"?>
<!-- Created with Inkscape (http://www.inkscape.org/) -->

<svg
   xmlns:dc="http://purl.org/dc/elements/1.1/"
   xmlns:cc="http://creativecommons.org/ns#"
   xmlns:rdf="http://www.w3.org/1999/02/22-rdf-syntax-ns#"
   xmlns:svg="http://www.w3.org/2000/svg"
   xmlns="http://www.w3.org/2000/svg"
   xmlns:sodipodi="http://sodipodi.sourceforge.net/DTD/sodipodi-0.dtd"
   xmlns:inkscape="http://www.inkscape.org/namespaces/inkscape"
   width="255"
   height="255"
   viewBox="0 0 255 254.99986"
   id="svg6368"
   version="1.1"
   inkscape:version="0.91 r13725"
   sodipodi:docname="logo-python-canarias-white-on-black-solo.svg"
   inkscape:export-filename="/home/jileon/Dropbox/Proyectos/pyBirrasGC/logo-python-canarias-color.png"
   inkscape:export-xdpi="62.794445"
   inkscape:export-ydpi="62.794445">
  <defs
     id="defs6370" />
  <sodipodi:namedview
     id="base"
     pagecolor="#ffffff"
     bordercolor="#666666"
     borderopacity="1.0"
     inkscape:pageopacity="0.0"
     inkscape:pageshadow="2"
     inkscape:zoom="1"
     inkscape:cx="208.37259"
     inkscape:cy="24.867794"
     inkscape:document-units="px"
     inkscape:current-layer="layer1"
     showgrid="false"
     units="px"
     inkscape:window-width="1920"
     inkscape:window-height="1146"
     inkscape:window-x="0"
     inkscape:window-y="0"
     inkscape:window-maximized="1"
     showguides="true"
     inkscape:guide-bbox="true">
    <sodipodi:guide
       position="28.991378,63.639575"
       orientation="1,0"
       id="guide5982" />
    <sodipodi:guide
       position="216.37468,-46.669021"
       orientation="1,0"
       id="guide5984" />
  </sodipodi:namedview>
  <metadata
     id="metadata6373">
    <rdf:RDF>
      <cc:Work
         rdf:about="">
        <dc:format>image/svg+xml</dc:format>
        <dc:type
           rdf:resource="http://purl.org/dc/dcmitype/StillImage" />
        <dc:title></dc:title>
      </cc:Work>
    </rdf:RDF>
  </metadata>
  <g
     inkscape:label="Capa 1"
     inkscape:groupmode="layer"
     id="layer1"
     transform="translate(0,-797.36248)">
    <rect
       style="color:#000000;clip-rule:nonzero;display:inline;overflow:visible;visibility:visible;opacity:1;isolation:auto;mix-blend-mode:normal;color-interpolation:sRGB;color-interpolation-filters:linearRGB;solid-color:#000000;solid-opacity:1;fill:#000000;fill-opacity:1;fill-rule:nonzero;stroke:none;stroke-width:1.74078655px;stroke-linecap:butt;stroke-linejoin:miter;stroke-miterlimit:4;stroke-dasharray:none;stroke-dashoffset:0;stroke-opacity:1;color-rendering:auto;image-rendering:auto;shape-rendering:auto;text-rendering:auto;enable-background:accumulate"
       id="rect4468"
       width="259"
       height="258"
       x="-1"
       y="794.36243" />
    <rect
       style="color:#000000;clip-rule:nonzero;display:inline;overflow:visible;visibility:visible;opacity:1;isolation:auto;mix-blend-mode:normal;color-interpolation:sRGB;color-interpolation-filters:linearRGB;solid-color:#000000;solid-opacity:1;fill:none;fill-opacity:1;fill-rule:evenodd;stroke:none;stroke-width:8;stroke-linecap:round;stroke-linejoin:round;stroke-miterlimit:4;stroke-dasharray:none;stroke-dashoffset:0;stroke-opacity:1;color-rendering:auto;image-rendering:auto;shape-rendering:auto;text-rendering:auto;enable-background:accumulate"
       id="rect20075"
       width="744"
       height="255"
       x="0"
       y="797.36243"
       inkscape:export-xdpi="21.661715"
       inkscape:export-ydpi="21.661715" />
    <circle
       style="color:#000000;clip-rule:nonzero;display:inline;overflow:visible;visibility:visible;opacity:1;isolation:auto;mix-blend-mode:normal;color-interpolation:sRGB;color-interpolation-filters:linearRGB;solid-color:#000000;solid-opacity:1;fill:#ffffff;fill-opacity:1;fill-rule:evenodd;stroke:none;stroke-width:8;stroke-linecap:round;stroke-linejoin:round;stroke-miterlimit:4;stroke-dasharray:none;stroke-dashoffset:0;stroke-opacity:1;color-rendering:auto;image-rendering:auto;shape-rendering:auto;text-rendering:auto;enable-background:accumulate"
       id="circle17737"
       cx="123.49812"
       cy="924.23523"
       r="112.07596"
       inkscape:export-xdpi="300.00775"
       inkscape:export-ydpi="300.00775" />
    <g
       id="g5405"
       transform="matrix(1.6670222,0,0,1.6670222,-1363.6225,-1622.9015)"
       style="fill:#000000">
      <path
         inkscape:connector-curvature="0"
         id="path5407"
         d="m 891.57935,1582.9057 c 28.03173,0 26.28125,-12.1563 26.28125,-12.1563 l -0.0312,-12.5937 -26.75,0 0,-3.7813 37.375,0 c 0,0 17.9375,2.0343 17.9375,-26.25 0,-28.2843 -15.65625,-27.2812 -15.65625,-27.2812 l -9.34375,0 0,13.125 c 0,0 0.50365,15.6562 -15.40625,15.6562 -15.9099,0 -26.53125,0 -26.53125,0 0,0 -14.90625,-0.241 -14.90625,14.4063 0,14.6472 0,24.2187 0,24.2187 0,0 -2.26318,14.6563 27.03125,14.6563 z m 14.75,-8.4688 c -2.66143,0 -4.8125,-2.1511 -4.8125,-4.8125 0,-2.6614 2.15107,-4.8125 4.8125,-4.8125 2.66143,0 4.8125,2.1511 4.8125,4.8125 0,2.6614 -2.15107,4.8125 -4.8125,4.8125 z"
         style="color:#000000;display:inline;overflow:visible;visibility:visible;opacity:1;fill:#000000;fill-opacity:1;fill-rule:nonzero;stroke:none;stroke-width:1;stroke-linecap:butt;stroke-linejoin:miter;stroke-miterlimit:4;stroke-dasharray:none;stroke-dashoffset:0;stroke-opacity:1;marker:none;marker-start:none;marker-mid:none;marker-end:none" />
      <path
         inkscape:connector-curvature="0"
         style="color:#000000;display:inline;overflow:visible;visibility:visible;opacity:1;fill:#000000;fill-opacity:1;fill-rule:nonzero;stroke:none;stroke-width:1;stroke-linecap:butt;stroke-linejoin:miter;stroke-miterlimit:4;stroke-dasharray:none;stroke-dashoffset:0;stroke-opacity:1;marker:none;marker-start:none;marker-mid:none;marker-end:none"
         d="m 890.78325,1473.0596 c -28.03174,0 -26.28125,12.1562 -26.28125,12.1562 l 0.006,2.2433 0.0256,10.3505 2.50898,0 24.24102,0 0,3.7812 -37.375,0 c 0,0 -17.9375,-2.0343 -17.9375,26.25 -10e-6,28.2843 15.65625,27.2813 15.65625,27.2813 l 9.34375,0 0,-13.125 c 0,0 -0.50366,-15.6563 15.40625,-15.6563 l 26.53125,0 c 0,0 14.90625,0.241 14.90625,-14.4062 l 0,-24.2188 c 0,0 2.26318,-14.6562 -27.03125,-14.6562 z m -14.75,8.4687 c 2.66143,0 4.8125,2.1511 4.8125,4.8125 0,2.6614 -2.15107,4.8125 -4.8125,4.8125 -2.66143,0 -4.8125,-2.1511 -4.8125,-4.8125 -10e-6,-2.6614 2.15107,-4.8125 4.8125,-4.8125 z"
         id="path5409"
         sodipodi:nodetypes="ccccccccscccscscccsssss" />
      <path
         style="fill:#000000;fill-opacity:1;fill-rule:evenodd;stroke:none;stroke-width:0.39975929px;stroke-linecap:butt;stroke-linejoin:miter;stroke-opacity:1"
         d="m 850.79561,1497.7858 9.69163,0 0,-8.884 c -4.24644,-0.2408 -9.69856,5.0513 -9.69163,8.884 z"
         id="path5411"
         inkscape:connector-curvature="0"
         sodipodi:nodetypes="cccc" />
      <path
         sodipodi:nodetypes="cccc"
         inkscape:connector-curvature="0"
         id="path5413"
         d="m 931.03525,1558.1413 -9.69163,0 0,8.884 c 4.24644,0.2409 9.69856,-5.0513 9.69163,-8.884 z"
         style="fill:#000000;fill-opacity:1;fill-rule:evenodd;stroke:none;stroke-width:0.39975929px;stroke-linecap:butt;stroke-linejoin:miter;stroke-opacity:1" />
    </g>
  </g>
</svg>
