<?xml version="1.0" encoding="UTF-8" standalone="no"?>
<!-- Generator: Adobe Illustrator 16.0.0, SVG Export Plug-In . SVG Version: 6.00 Build 0)  -->

<svg
   xmlns:dc="http://purl.org/dc/elements/1.1/"
   xmlns:cc="http://creativecommons.org/ns#"
   xmlns:rdf="http://www.w3.org/1999/02/22-rdf-syntax-ns#"
   xmlns:svg="http://www.w3.org/2000/svg"
   xmlns="http://www.w3.org/2000/svg"
   xmlns:sodipodi="http://sodipodi.sourceforge.net/DTD/sodipodi-0.dtd"
   xmlns:inkscape="http://www.inkscape.org/namespaces/inkscape"
   version="1.1"
   id="Layer_1"
   x="0px"
   y="0px"
   width="188.002"
   height="94.000435"
   viewBox="-31.5 -7.5 188.002 94.000435"
   enable-background="new -31.5 -7.5 188 30"
   xml:space="preserve"
   inkscape:version="0.48.5 r10040"
   sodipodi:docname="cabaana.svg"><metadata
     id="metadata41"><rdf:RDF><cc:Work
         rdf:about=""><dc:format>image/svg+xml</dc:format><dc:type
           rdf:resource="http://purl.org/dc/dcmitype/StillImage" /></cc:Work></rdf:RDF></metadata><defs
     id="defs39" /><sodipodi:namedview
     pagecolor="#ffffff"
     bordercolor="#666666"
     borderopacity="1"
     objecttolerance="10"
     gridtolerance="10"
     guidetolerance="10"
     inkscape:pageopacity="0"
     inkscape:pageshadow="2"
     inkscape:window-width="1436"
     inkscape:window-height="861"
     id="namedview37"
     showgrid="false"
     fit-margin-top="32"
     fit-margin-bottom="32"
     fit-margin-left="0"
     fit-margin-right="0"
     inkscape:zoom="2.6755319"
     inkscape:cx="-9.5298151"
     inkscape:cy="47"
     inkscape:window-x="1366"
     inkscape:window-y="18"
     inkscape:window-maximized="0"
     inkscape:current-layer="Layer_1" /><g
     id="g3"
     transform="translate(0.001,32.000432)"><g
       id="g5"><g
         id="g7"><path
           d="m 34.448,14.209 c 0,0.759 -0.189,1.585 -0.568,2.468 -0.381,0.888 -0.978,1.758 -1.793,2.604 -0.816,0.855 -1.861,1.55 -3.126,2.083 -1.271,0.533 -2.748,0.794 -4.436,0.794 -1.281,0 -2.443,-0.111 -3.492,-0.357 -1.047,-0.234 -2.001,-0.606 -2.854,-1.113 -0.853,-0.509 -1.641,-1.166 -2.358,-1.997 -0.636,-0.748 -1.183,-1.589 -1.635,-2.518 -0.451,-0.929 -0.791,-1.924 -1.017,-2.971 -0.229,-1.055 -0.34,-2.174 -0.34,-3.36 0,-1.922 0.283,-3.643 0.85,-5.164 0.567,-1.522 1.381,-2.826 2.442,-3.906 1.058,-1.082 2.3,-1.905 3.722,-2.469 1.424,-0.562 2.938,-0.844 4.549,-0.844 1.961,0 3.71,0.384 5.245,1.155 1.534,0.771 2.706,1.727 3.522,2.859 0.815,1.139 1.226,2.212 1.226,3.22 0,0.554 -0.197,1.041 -0.597,1.466 -0.397,0.426 -0.875,0.636 -1.438,0.636 -0.629,0 -1.1,-0.144 -1.416,-0.439 C 30.621,6.064 30.27,5.557 29.884,4.841 29.246,3.657 28.492,2.774 27.626,2.184 26.761,1.596 25.691,1.305 24.424,1.305 c -2.019,0 -3.625,0.756 -4.82,2.263 -1.196,1.51 -1.796,3.657 -1.796,6.44 0,1.855 0.264,3.405 0.794,4.639 0.531,1.226 1.28,2.154 2.249,2.76 0.972,0.606 2.105,0.912 3.406,0.912 1.415,0 2.609,-0.344 3.582,-1.038 0.979,-0.688 1.712,-1.696 2.209,-3.037 0.21,-0.627 0.471,-1.141 0.779,-1.536 0.309,-0.394 0.807,-0.593 1.49,-0.593 0.586,0 1.085,0.2 1.507,0.599 0.415,0.394 0.624,0.897 0.624,1.495 z"
           id="path9"
           inkscape:connector-curvature="0"
           style="fill:#4e4e50" /><path
           d="m 49.967,19.649 c -1.089,0.839 -2.146,1.471 -3.166,1.887 -1.018,0.416 -2.165,0.624 -3.431,0.624 -1.16,0 -2.177,-0.223 -3.056,-0.668 -0.875,-0.457 -1.554,-1.063 -2.026,-1.843 -0.474,-0.771 -0.713,-1.608 -0.713,-2.511 0,-1.21 0.396,-2.25 1.176,-3.108 0.785,-0.861 1.861,-1.436 3.226,-1.726 0.291,-0.068 0.999,-0.22 2.137,-0.442 1.134,-0.227 2.109,-0.437 2.916,-0.625 0.812,-0.189 1.692,-0.425 2.64,-0.693 C 49.616,9.366 49.375,8.508 48.949,7.96 48.526,7.412 47.645,7.137 46.314,7.137 c -1.149,0 -2.009,0.158 -2.592,0.471 -0.578,0.317 -1.073,0.789 -1.49,1.416 -0.41,0.633 -0.702,1.048 -0.874,1.248 -0.171,0.199 -0.538,0.302 -1.1,0.302 -0.509,0 -0.949,-0.161 -1.317,-0.48 -0.37,-0.316 -0.554,-0.73 -0.554,-1.229 0,-0.783 0.281,-1.543 0.845,-2.28 0.562,-0.738 1.438,-1.347 2.627,-1.826 1.191,-0.479 2.675,-0.717 4.452,-0.717 1.984,0 3.543,0.229 4.683,0.69 1.135,0.462 1.937,1.196 2.406,2.193 0.469,1 0.704,2.328 0.704,3.977 0,1.045 -10e-4,1.931 -0.012,2.658 -0.004,0.729 -0.012,1.534 -0.024,2.425 0,0.839 0.142,1.714 0.422,2.619 0.281,0.906 0.421,1.488 0.421,1.746 0,0.463 -0.218,0.873 -0.654,1.245 -0.438,0.375 -0.929,0.562 -1.48,0.562 -0.463,0 -0.922,-0.211 -1.373,-0.639 -0.451,-0.433 -0.929,-1.051 -1.437,-1.869 z m -0.299,-6.433 c -0.66,0.237 -1.622,0.484 -2.885,0.756 -1.263,0.267 -2.139,0.458 -2.622,0.587 -0.486,0.128 -0.949,0.369 -1.39,0.731 -0.44,0.363 -0.66,0.876 -0.66,1.529 0,0.669 0.261,1.248 0.776,1.717 0.519,0.475 1.196,0.709 2.035,0.709 0.896,0 1.719,-0.192 2.473,-0.577 0.759,-0.384 1.313,-0.882 1.667,-1.488 0.406,-0.676 0.609,-1.781 0.609,-3.328 v -0.636 h -0.003 z"
           id="path11"
           inkscape:connector-curvature="0"
           style="fill:#4e4e50" /></g><g
         id="g13"><path
           d="m 62.401,-0.003 v 6.795 c 0.846,-0.865 1.714,-1.533 2.6,-1.997 0.875,-0.46 1.968,-0.693 3.269,-0.693 1.507,0 2.821,0.351 3.949,1.052 1.13,0.702 2.009,1.717 2.628,3.049 0.629,1.327 0.936,2.909 0.936,4.731 0,1.351 -0.174,2.584 -0.518,3.715 -0.347,1.122 -0.852,2.093 -1.519,2.922 -0.658,0.828 -1.464,1.464 -2.406,1.919 -0.942,0.445 -1.985,0.667 -3.116,0.667 -0.699,0 -1.349,-0.076 -1.964,-0.24 C 65.65,21.754 65.126,21.539 64.698,21.27 64.271,21.006 63.899,20.731 63.599,20.451 63.293,20.166 62.894,19.745 62.4,19.18 v 0.437 c 0,0.843 -0.205,1.47 -0.614,1.903 -0.408,0.428 -0.926,0.639 -1.557,0.639 -0.639,0 -1.147,-0.211 -1.528,-0.639 -0.384,-0.434 -0.575,-1.061 -0.575,-1.903 V 0.192 c 0,-0.901 0.185,-1.584 0.554,-2.045 0.37,-0.462 0.887,-0.69 1.547,-0.69 0.697,0 1.232,0.219 1.607,0.657 0.379,0.442 0.567,1.069 0.567,1.883 z m 0.215,13.219 c 0,1.775 0.411,3.129 1.233,4.078 0.822,0.958 1.902,1.427 3.233,1.427 1.134,0 2.111,-0.479 2.938,-1.458 0.816,-0.968 1.231,-2.365 1.231,-4.179 0,-1.175 -0.17,-2.183 -0.514,-3.03 -0.344,-0.85 -0.832,-1.5 -1.457,-1.963 -0.626,-0.465 -1.357,-0.692 -2.2,-0.692 -0.861,0 -1.629,0.228 -2.304,0.692 -0.667,0.464 -1.198,1.132 -1.583,2.002 -0.386,0.873 -0.577,1.915 -0.577,3.123 z"
           id="path15"
           inkscape:connector-curvature="0"
           style="fill:#4e4e50" /><path
           d="m 90.821,19.649 c -1.092,0.839 -2.144,1.471 -3.166,1.887 -1.025,0.416 -2.165,0.624 -3.434,0.624 -1.157,0 -2.178,-0.223 -3.05,-0.668 -0.876,-0.457 -1.555,-1.063 -2.023,-1.843 -0.477,-0.771 -0.715,-1.608 -0.715,-2.511 0,-1.21 0.392,-2.25 1.172,-3.108 0.779,-0.861 1.857,-1.436 3.229,-1.726 0.282,-0.068 0.993,-0.22 2.13,-0.442 1.143,-0.227 2.112,-0.437 2.92,-0.625 0.813,-0.189 1.688,-0.425 2.641,-0.693 C 90.466,9.366 90.228,8.508 89.805,7.96 89.376,7.412 88.503,7.137 87.161,7.137 c -1.146,0 -2.01,0.158 -2.588,0.471 -0.58,0.317 -1.076,0.789 -1.489,1.416 -0.409,0.633 -0.706,1.048 -0.879,1.248 -0.17,0.199 -0.535,0.302 -1.099,0.302 -0.502,0 -0.943,-0.161 -1.313,-0.48 -0.37,-0.316 -0.555,-0.73 -0.555,-1.229 0,-0.783 0.285,-1.543 0.846,-2.28 0.562,-0.738 1.442,-1.347 2.63,-1.826 1.192,-0.479 2.676,-0.717 4.447,-0.717 1.987,0 3.552,0.229 4.686,0.69 1.134,0.462 1.935,1.196 2.405,2.193 0.474,1 0.707,2.328 0.707,3.977 0,1.045 -0.005,1.931 -0.008,2.658 -0.006,0.729 -0.015,1.534 -0.026,2.425 0,0.839 0.136,1.714 0.423,2.619 0.276,0.906 0.418,1.488 0.418,1.746 0,0.463 -0.218,0.873 -0.649,1.245 -0.44,0.375 -0.932,0.562 -1.48,0.562 -0.467,0 -0.921,-0.211 -1.376,-0.639 -0.449,-0.433 -0.931,-1.051 -1.44,-1.869 z m -0.294,-6.433 c -0.663,0.237 -1.623,0.484 -2.888,0.756 -1.265,0.267 -2.141,0.458 -2.622,0.587 -0.484,0.128 -0.953,0.369 -1.393,0.731 -0.438,0.363 -0.661,0.876 -0.661,1.529 0,0.669 0.262,1.248 0.782,1.717 0.52,0.475 1.194,0.709 2.035,0.709 0.896,0 1.716,-0.192 2.471,-0.577 0.755,-0.384 1.308,-0.882 1.66,-1.488 0.414,-0.676 0.616,-1.781 0.616,-3.328 l 0,-0.636 0,0 z"
           id="path17"
           inkscape:connector-curvature="0"
           style="fill:#4e4e50" /><path
           d="m 110.958,19.649 c -1.093,0.839 -2.15,1.471 -3.165,1.887 -1.022,0.416 -2.167,0.624 -3.435,0.624 -1.157,0 -2.179,-0.223 -3.055,-0.668 -0.872,-0.457 -1.548,-1.063 -2.027,-1.843 -0.47,-0.771 -0.714,-1.608 -0.714,-2.511 0,-1.21 0.397,-2.25 1.179,-3.108 0.784,-0.861 1.857,-1.436 3.222,-1.726 0.291,-0.068 1.005,-0.22 2.139,-0.442 1.135,-0.227 2.112,-0.437 2.92,-0.625 0.809,-0.189 1.689,-0.425 2.636,-0.693 -0.053,-1.178 -0.29,-2.036 -0.72,-2.584 -0.423,-0.548 -1.304,-0.823 -2.638,-0.823 -1.144,0 -2.01,0.158 -2.586,0.471 -0.578,0.317 -1.078,0.789 -1.489,1.416 -0.411,0.633 -0.708,1.048 -0.878,1.248 -0.173,0.199 -0.54,0.302 -1.102,0.302 -0.509,0 -0.943,-0.161 -1.313,-0.48 -0.37,-0.316 -0.552,-0.73 -0.552,-1.229 0,-0.783 0.275,-1.543 0.838,-2.28 0.569,-0.738 1.441,-1.347 2.637,-1.826 1.187,-0.479 2.671,-0.717 4.447,-0.717 1.986,0 3.543,0.229 4.686,0.69 1.135,0.462 1.934,1.196 2.407,2.193 0.466,1 0.696,2.328 0.696,3.977 0,1.045 -10e-4,1.931 -0.009,2.658 -0.003,0.729 -0.012,1.534 -0.021,2.425 0,0.839 0.142,1.714 0.426,2.619 0.279,0.906 0.418,1.488 0.418,1.746 0,0.463 -0.215,0.873 -0.656,1.245 -0.434,0.375 -0.928,0.562 -1.48,0.562 -0.461,0 -0.919,-0.211 -1.369,-0.639 -0.459,-0.433 -0.932,-1.051 -1.442,-1.869 z m -0.301,-6.433 c -0.657,0.237 -1.625,0.484 -2.882,0.756 -1.264,0.267 -2.139,0.458 -2.626,0.587 -0.481,0.128 -0.949,0.369 -1.387,0.731 -0.444,0.363 -0.664,0.876 -0.664,1.529 0,0.669 0.265,1.248 0.778,1.717 0.52,0.475 1.198,0.709 2.033,0.709 0.896,0 1.722,-0.192 2.477,-0.577 0.755,-0.384 1.31,-0.882 1.662,-1.488 0.405,-0.676 0.608,-1.781 0.608,-3.328 v -0.636 l 10e-4,0 z"
           id="path19"
           inkscape:connector-curvature="0"
           style="fill:#4e4e50" /><path
           d="m 123.78,6.531 v 0.537 c 0.792,-1.029 1.664,-1.789 2.604,-2.272 0.943,-0.481 2.028,-0.725 3.254,-0.725 1.186,0 2.253,0.255 3.188,0.766 0.936,0.51 1.639,1.232 2.101,2.168 0.299,0.543 0.49,1.128 0.584,1.758 0.085,0.636 0.129,1.436 0.129,2.41 v 8.28 c 0,0.894 -0.206,1.567 -0.619,2.027 -0.411,0.452 -0.95,0.677 -1.613,0.677 -0.667,0 -1.214,-0.23 -1.639,-0.7 -0.417,-0.463 -0.626,-1.134 -0.626,-2.004 v -7.415 c 0,-1.466 -0.206,-2.587 -0.626,-3.363 -0.409,-0.778 -1.232,-1.166 -2.469,-1.166 -0.805,0 -1.537,0.237 -2.2,0.71 -0.666,0.471 -1.146,1.118 -1.457,1.95 -0.22,0.656 -0.332,1.897 -0.332,3.71 v 5.577 c 0,0.902 -0.214,1.579 -0.634,2.034 -0.421,0.445 -0.974,0.667 -1.648,0.667 -0.652,0 -1.189,-0.23 -1.606,-0.7 -0.415,-0.463 -0.627,-1.134 -0.627,-2.004 V 6.599 c 0,-0.846 0.191,-1.479 0.564,-1.901 0.374,-0.417 0.89,-0.625 1.536,-0.625 0.396,0 0.755,0.093 1.078,0.278 0.32,0.183 0.574,0.46 0.767,0.83 0.193,0.37 0.291,0.818 0.291,1.35 z"
           id="path21"
           inkscape:connector-curvature="0"
           style="fill:#4e4e50" /><path
           d="m 151.556,19.649 c -1.093,0.839 -2.15,1.471 -3.166,1.887 -1.023,0.416 -2.165,0.624 -3.433,0.624 -1.159,0 -2.179,-0.223 -3.055,-0.668 -0.872,-0.457 -1.55,-1.063 -2.029,-1.843 -0.47,-0.771 -0.705,-1.608 -0.705,-2.511 0,-1.21 0.391,-2.25 1.172,-3.108 0.782,-0.861 1.854,-1.436 3.229,-1.726 0.282,-0.068 0.996,-0.22 2.13,-0.442 1.134,-0.227 2.112,-0.437 2.919,-0.625 0.808,-0.189 1.69,-0.425 2.637,-0.693 -0.054,-1.178 -0.291,-2.036 -0.712,-2.584 -0.43,-0.548 -1.311,-0.823 -2.644,-0.823 -1.148,0 -2.012,0.158 -2.591,0.471 -0.578,0.317 -1.076,0.789 -1.486,1.416 -0.412,0.633 -0.711,1.048 -0.881,1.248 -0.169,0.199 -0.536,0.302 -1.099,0.302 -0.51,0 -0.944,-0.161 -1.313,-0.48 -0.37,-0.316 -0.553,-0.73 -0.553,-1.229 0,-0.783 0.284,-1.543 0.844,-2.28 0.563,-0.738 1.434,-1.347 2.629,-1.826 1.187,-0.479 2.67,-0.717 4.45,-0.717 1.986,0 3.542,0.229 4.686,0.69 1.131,0.462 1.934,1.196 2.406,2.193 0.464,1 0.705,2.328 0.705,3.977 0,1.045 -0.004,1.931 -0.009,2.658 -0.004,0.729 -0.021,1.534 -0.032,2.425 0,0.839 0.141,1.714 0.429,2.619 0.276,0.906 0.417,1.488 0.417,1.746 0,0.463 -0.218,0.873 -0.658,1.245 -0.432,0.375 -0.928,0.562 -1.479,0.562 -0.46,0 -0.921,-0.211 -1.369,-0.639 -0.455,-0.433 -0.931,-1.051 -1.439,-1.869 z m -0.299,-6.433 c -0.658,0.237 -1.619,0.484 -2.885,0.756 -1.262,0.267 -2.137,0.458 -2.627,0.587 -0.479,0.128 -0.946,0.369 -1.384,0.731 -0.446,0.363 -0.663,0.876 -0.663,1.529 0,0.669 0.263,1.248 0.775,1.717 0.52,0.475 1.2,0.709 2.038,0.709 0.891,0 1.718,-0.192 2.473,-0.577 0.755,-0.384 1.311,-0.882 1.661,-1.488 0.408,-0.676 0.611,-1.781 0.611,-3.328 v -0.636 l 0.001,0 z"
           id="path23"
           inkscape:connector-curvature="0"
           style="fill:#4e4e50" /></g></g><path
       d="m -20.233,-3.699 c 1.109,-0.045 2.234,0.054 3.336,0.175 0.598,0.063 1.187,0.151 1.777,0.252 1.121,0.188 2.662,0.69 -2.194,-0.514 0.524,0.127 1.046,0.283 1.569,0.444 1.562,0.482 3.07,1.122 4.52,1.874 8.122,4.201 11.827,12.472 12.353,21.194 0.032,0.478 4.796,0.651 4.82,1.073 C 5.329,10.611 0.338,1.944 -9.558,-1.8 c -4.679,-1.771 -10.424,-3.156 -15.494,-2.974 0.789,-0.027 1.595,0.256 2.398,0.537 0.807,0.281 1.619,0.565 2.421,0.538"
       id="path25"
       inkscape:connector-curvature="0"
       style="fill:#42bc96" /><path
       d="m -24.778,22.5 c -0.152,-4.146 0.947,-8.489 2.657,-12.24 4.025,-8.808 12.75,-12.998 22.21,-13.553 -0.354,0.019 -0.778,-1.04 -1.216,-2.104 -0.437,-1.063 -0.882,-2.128 -1.268,-2.103 -9.427,0.555 -17.809,4.625 -22.046,13.21 -1.866,3.781 -2.978,8.346 -2.822,12.585 0.055,1.446 2.435,2.793 2.485,4.205"
       id="path27"
       inkscape:connector-curvature="0"
       style="fill:#e42a70" /><path
       d="m 4.598,10.552 c -0.718,0.756 -1.525,1.431 -2.341,2.079 -0.878,0.702 -1.803,1.344 -2.747,1.953 -1.062,0.683 -4.042,1.99 0.267,0.082 -0.919,0.407 -1.874,0.735 -2.833,1.029 -8.782,2.747 -17.346,-0.58 -24.001,-6.355 -0.251,-0.22 -1.26,0.424 -2.261,1.061 -0.987,0.63 -1.96,1.26 -2.183,1.066 7.895,6.854 17.655,9.408 27.453,5.06 4.647,-2.06 9.555,-4.368 13.09,-8.106 -1.039,1.095 -3.385,1.012 -4.444,2.131"
       id="path29"
       inkscape:connector-curvature="0"
       style="fill:#e5a440" /><path
       d="m 3.861,11.276 c -0.512,0.477 -1.058,0.92 -1.603,1.354 -0.627,0.503 -1.278,0.975 -1.945,1.423 0.032,0.158 0.053,0.284 0.079,0.407 0,0 0.001,0 0.003,-0.003 1.32,-0.665 2.62,-1.38 3.854,-2.165 C 4.133,11.965 3.995,11.599 3.861,11.276"
       id="path31"
       inkscape:connector-curvature="0"
       style="fill:#88b780" /><path
       d="m -15.732,-3.691 c -0.001,10e-4 -0.006,0.004 -0.01,0.006 -0.122,0.072 -0.241,0.146 -0.356,0.216 -0.012,0.007 -0.028,0.015 -0.041,0.027 l 0.358,0.054 c 0.054,0.013 0.101,0.032 0.153,0.046 1.562,0.481 3.07,1.121 4.518,1.871 0.29,0.151 0.524,0.343 0.804,0.504 0.47,-0.197 0.946,-0.383 1.428,-0.557 -0.217,-0.092 -0.475,-0.208 -0.689,-0.288 -1.861,-0.708 -4.07,-1.37 -6.165,-1.879"
       id="path33"
       inkscape:connector-curvature="0"
       style="fill:#8b9f8e" /><path
       d="m -26.148,10.096 c -0.429,1.468 -0.771,3.079 -0.954,4.585 l -0.003,0.029 c 0.961,0.59 1.943,1.125 2.942,1.594 0.001,0 0.003,0 0.003,0.001 0.284,-1.257 0.72,-2.714 1.161,-3.922 -1.086,-0.696 -2.141,-1.459 -3.149,-2.287"
       id="path35"
       inkscape:connector-curvature="0"
       style="fill:#e55f6c" /></g></svg>