<?xml version="1.0" encoding="UTF-8" standalone="no"?>
<!-- Created with Inkscape (http://www.inkscape.org/) -->

<svg
   xmlns:dc="http://purl.org/dc/elements/1.1/"
   xmlns:cc="http://creativecommons.org/ns#"
   xmlns:rdf="http://www.w3.org/1999/02/22-rdf-syntax-ns#"
   xmlns:svg="http://www.w3.org/2000/svg"
   xmlns="http://www.w3.org/2000/svg"
   xmlns:sodipodi="http://sodipodi.sourceforge.net/DTD/sodipodi-0.dtd"
   xmlns:inkscape="http://www.inkscape.org/namespaces/inkscape"
   id="svg4225"
   version="1.1"
   inkscape:version="0.48.5 r10040"
   width="1425.46"
   height="711.64655"
   viewBox="0 0 1425.46 711.64655"
   sodipodi:docname="evosocial-soft.svg">
  <sodipodi:namedview
     pagecolor="#ffffff"
     bordercolor="#666666"
     borderopacity="1"
     objecttolerance="10"
     gridtolerance="10"
     guidetolerance="10"
     inkscape:pageopacity="0"
     inkscape:pageshadow="2"
     inkscape:window-width="1362"
     inkscape:window-height="728"
     id="namedview4227"
     showgrid="false"
     showguides="true"
     inkscape:guide-bbox="true"
     inkscape:zoom="0.10852111"
     inkscape:cx="1722.3486"
     inkscape:cy="-747.78434"
     inkscape:window-x="0"
     inkscape:window-y="18"
     inkscape:window-maximized="0"
     inkscape:current-layer="svg4225"
     fit-margin-top="0"
     fit-margin-left="240"
     fit-margin-right="240"
     fit-margin-bottom="0">
    <sodipodi:guide
       position="1531.5913,-669.67944"
       orientation="1,0"
       id="guide4541" />
    <sodipodi:guide
       position="2266.2528,-866.78376"
       orientation="1,0"
       id="guide4543" />
  </sodipodi:namedview>
  <metadata
     id="metadata4231">
    <rdf:RDF>
      <cc:Work
         rdf:about="">
        <dc:format>image/svg+xml</dc:format>
        <dc:type
           rdf:resource="http://purl.org/dc/dcmitype/StillImage" />
        <dc:title />
      </cc:Work>
    </rdf:RDF>
  </metadata>
  <defs
     id="defs4229" />
  <g
     id="g4630"
     transform="matrix(1.2822576,0,0,1.2822576,-1467.782,-1935.2645)">
    <g
       id="g4585">
      <path
         inkscape:connector-curvature="0"
         id="path4546"
         style="font-size:medium;font-style:normal;font-variant:normal;font-weight:300;font-stretch:normal;line-height:125%;letter-spacing:0px;word-spacing:0px;fill:#00112b;fill-opacity:1;stroke:none;font-family:Roboto;-inkscape-font-specification:Roboto Light"
         d="m 1374.7033,1556.6564 -36.1961,0 0,33.4799 41.85,0 0,5.5985 -48.5016,0 0,-80.7066 48.2244,0 0,5.6539 -41.5728,0 0,30.3204 36.1961,0 0,5.6539 z" />
      <path
         inkscape:connector-curvature="0"
         id="path4548"
         style="font-size:medium;font-style:normal;font-variant:normal;font-weight:300;font-stretch:normal;line-height:125%;letter-spacing:0px;word-spacing:0px;fill:#00112b;fill-opacity:1;stroke:none;font-family:Roboto;-inkscape-font-specification:Roboto Light"
         d="m 1408.5712,1580.7132 1.9401,7.0396 0.3326,0 2.1063,-7.0396 16.2965,-44.9541 6.8734,0 -22.7819,59.9757 -5.3213,0 -22.8373,-59.9757 6.8734,0 16.5182,44.9541 z" />
      <path
         inkscape:connector-curvature="0"
         id="path4550"
         style="font-size:medium;font-style:normal;font-variant:normal;font-weight:300;font-stretch:normal;line-height:125%;letter-spacing:0px;word-spacing:0px;fill:#00112b;fill-opacity:1;stroke:none;font-family:Roboto;-inkscape-font-specification:Roboto Light"
         d="m 1442.55,1564.8601 q 0,-13.2479 7.2614,-21.7287 7.2614,-8.4809 19.2343,-8.4809 12.0284,0 19.2898,8.4809 7.2614,8.4808 7.2614,21.7287 l 0,1.8292 q 0,13.3033 -7.2614,21.7841 -7.2059,8.4254 -19.1789,8.4254 -12.0838,0 -19.3452,-8.4254 -7.2614,-8.4808 -7.2614,-21.7841 l 0,-1.8292 z m 6.6517,1.8292 q 0,10.4209 5.2659,17.516 5.2658,7.0951 14.689,7.0951 9.2569,0 14.5228,-7.0951 5.3213,-7.0951 5.3213,-17.516 l 0,-1.8292 q 0,-10.2546 -5.3213,-17.4051 -5.3214,-7.1506 -14.6337,-7.1506 -9.3123,0 -14.5781,7.1506 -5.2659,7.1505 -5.2659,17.4051 l 0,1.8292 z" />
      <path
         inkscape:connector-curvature="0"
         id="path4552"
         style="font-size:medium;font-style:normal;font-variant:normal;font-weight:300;font-stretch:normal;line-height:125%;letter-spacing:0px;word-spacing:0px;fill:#00112b;fill-opacity:1;stroke:none;font-family:Roboto;-inkscape-font-specification:Roboto Light"
         d="m 1556.5149,1576.1125 q 0,-6.2082 -4.9334,-10.2547 -4.9333,-4.0464 -16.7399,-7.5939 -12.9153,-3.5476 -19.6778,-8.8135 -6.7071,-5.3213 -6.7071,-14.4118 0,-9.2569 7.5386,-15.188 7.5385,-5.9865 19.2343,-5.9865 12.3055,0 19.7886,6.7626 7.4831,6.707 7.2614,17.0725 l -0.1109,0.3326 -6.2082,0 q 0,-7.982 -5.8201,-13.2479 -5.7648,-5.2658 -14.9108,-5.2658 -9.4232,0 -14.7999,4.4898 -5.3213,4.4344 -5.3213,10.9198 0,6.1528 4.8224,10.1438 4.8779,3.9355 17.128,7.3722 12.749,3.7138 19.4561,9.146 6.707,5.4322 6.707,14.4119 0,9.4232 -7.8711,15.1879 -7.8157,5.7093 -19.7332,5.7093 -11.9175,0 -20.7864,-6.0419 -8.8688,-6.0973 -8.5917,-17.7377 l 0.1109,-0.3326 6.1527,0 q 0,9.3678 7.0397,13.9685 7.0397,4.5453 16.0748,4.5453 9.2569,0 15.0771,-4.2127 5.8202,-4.2682 5.8202,-10.9752 z" />
      <path
         inkscape:connector-curvature="0"
         id="path4554"
         style="font-size:medium;font-style:normal;font-variant:normal;font-weight:300;font-stretch:normal;line-height:125%;letter-spacing:0px;word-spacing:0px;fill:#00112b;fill-opacity:1;stroke:none;font-family:Roboto;-inkscape-font-specification:Roboto Light"
         d="m 1574.2526,1564.8601 q 0,-13.2479 7.2613,-21.7287 7.2614,-8.4809 19.2344,-8.4809 12.0284,0 19.2898,8.4809 7.2613,8.4808 7.2613,21.7287 l 0,1.8292 q 0,13.3033 -7.2613,21.7841 -7.206,8.4254 -19.179,8.4254 -12.0838,0 -19.3452,-8.4254 -7.2613,-8.4808 -7.2613,-21.7841 l 0,-1.8292 z m 6.6516,1.8292 q 0,10.4209 5.2659,17.516 5.2659,7.0951 14.689,7.0951 9.2569,0 14.5228,-7.0951 5.3213,-7.0951 5.3213,-17.516 l 0,-1.8292 q 0,-10.2546 -5.3213,-17.4051 -5.3213,-7.1506 -14.6336,-7.1506 -9.3123,0 -14.5782,7.1506 -5.2659,7.1505 -5.2659,17.4051 l 0,1.8292 z" />
      <path
         inkscape:connector-curvature="0"
         id="path4556"
         style="font-size:medium;font-style:normal;font-variant:normal;font-weight:300;font-stretch:normal;line-height:125%;letter-spacing:0px;word-spacing:0px;fill:#00112b;fill-opacity:1;stroke:none;font-family:Roboto;-inkscape-font-specification:Roboto Light"
         d="m 1663.1075,1591.3004 q 6.3745,0 11.2523,-3.7693 4.9333,-3.7693 4.9333,-10.4763 l 5.9311,0 0.1108,0.3326 q 0.2218,8.3145 -6.5407,13.913 -6.7625,5.5984 -15.6868,5.5984 -11.973,0 -18.6801,-8.4254 -6.6516,-8.4254 -6.6516,-21.5624 l 0,-2.3281 q 0,-13.0815 6.6516,-21.5069 6.6517,-8.4255 18.6246,-8.4255 9.6449,0 16.0748,5.8202 6.43,5.8202 6.2082,15.2988 l -0.1108,0.3326 -5.9311,0 q 0,-7.206 -4.7115,-11.4741 -4.7116,-4.3236 -11.5296,-4.3236 -9.4231,0 -14.0238,6.9288 -4.6008,6.9288 -4.6008,17.3497 l 0,2.3281 q 0,10.5872 4.6008,17.516 4.6007,6.8734 14.0793,6.8734 z" />
      <path
         inkscape:connector-curvature="0"
         id="path4558"
         style="font-size:medium;font-style:normal;font-variant:normal;font-weight:300;font-stretch:normal;line-height:125%;letter-spacing:0px;word-spacing:0px;fill:#00112b;fill-opacity:1;stroke:none;font-family:Roboto;-inkscape-font-specification:Roboto Light"
         d="m 1707.1192,1595.7348 -6.5962,0 0,-59.9757 6.5962,0 0,59.9757 z m 0,-77.1591 -6.5962,0 0,-9.3123 6.5962,0 0,9.3123 z" />
      <path
         inkscape:connector-curvature="0"
         id="path4560"
         style="font-size:medium;font-style:normal;font-variant:normal;font-weight:300;font-stretch:normal;line-height:125%;letter-spacing:0px;word-spacing:0px;fill:#00112b;fill-opacity:1;stroke:none;font-family:Roboto;-inkscape-font-specification:Roboto Light"
         d="m 1763.381,1595.7348 q -0.6097,-3.1595 -0.9423,-5.4322 -0.2772,-2.2726 -0.2772,-4.6561 -3.1041,4.8779 -8.7025,8.0928 -5.5985,3.1595 -12.8599,3.1595 -8.8134,0 -13.6913,-4.6561 -4.8224,-4.7116 -4.8224,-12.749 0,-8.0374 7.0396,-13.0261 7.0397,-4.9888 18.2921,-4.9888 l 14.7444,0 0,-7.4276 q 0,-6.43 -4.1018,-10.0884 -4.0464,-3.6584 -11.4741,-3.6584 -6.8179,0 -11.0306,3.3259 -4.1573,3.3258 -4.1573,8.3699 l -6.1528,0 -0.1109,-0.3325 q -0.3325,-6.7625 5.7648,-11.8621 6.1528,-5.1551 16.0194,-5.1551 9.8666,0 15.8531,5.0442 5.9864,5.0442 5.9864,14.4673 l 0,29.489 q 0,3.1595 0.3326,6.1527 0.388,2.9933 1.2195,5.9311 l -6.9288,0 z m -22.0613,-4.7116 q 7.6494,0 13.2479,-3.603 5.5984,-3.6584 7.5939,-9.3677 l 0,-11.4741 -14.7999,0 q -8.0928,0 -13.3587,3.8801 -5.2659,3.8248 -5.2659,9.2569 0,5.0996 3.3258,8.2037 3.3813,3.1041 9.2569,3.1041 z" />
      <path
         inkscape:connector-curvature="0"
         id="path4562"
         style="font-size:medium;font-style:normal;font-variant:normal;font-weight:300;font-stretch:normal;line-height:125%;letter-spacing:0px;word-spacing:0px;fill:#00112b;fill-opacity:1;stroke:none;font-family:Roboto;-inkscape-font-specification:Roboto Light"
         d="m 1793.8123,1595.7348 -6.5963,0 0,-86.4714 6.5963,0 0,86.4714 z" />
      <path
         inkscape:connector-curvature="0"
         id="path4564"
         style="font-size:medium;font-style:normal;font-variant:normal;font-weight:bold;font-stretch:condensed;line-height:125%;letter-spacing:0px;word-spacing:0px;fill:#00112b;fill-opacity:1;stroke:none;font-family:Roboto;-inkscape-font-specification:Roboto Bold Condensed"
         d="m 1870.1953,1574.7821 q 0,-4.8224 -2.4944,-7.5939 -2.4389,-2.827 -8.8134,-5.4876 -12.4164,-4.379 -18.68,-9.9221 -6.2636,-5.543 -6.2636,-15.5205 0,-9.922 7.1505,-16.1302 7.1505,-6.2637 18.2366,-6.2637 11.7512,0 18.9017,6.6517 7.1505,6.6516 6.9288,17.8486 l -0.1108,0.3326 -15.188,0 q 0,-6.2637 -2.8269,-9.4786 -2.7715,-3.2704 -7.982,-3.2704 -4.4898,0 -6.9842,2.9932 -2.4944,2.9378 -2.4944,7.3722 0,4.1019 2.827,6.7626 2.8269,2.6606 9.7003,5.8201 11.6958,3.8802 17.6823,9.8112 6.0419,5.9311 6.0419,15.964 0,10.3654 -7.0397,16.2965 -7.0396,5.931 -18.68,5.931 -11.4741,0 -19.6224,-6.3744 -8.1482,-6.43 -7.8711,-19.5115 l 0.1109,-0.3326 15.2433,0 q 0,7.5939 3.0487,10.9198 3.1041,3.3258 9.0906,3.3258 5.0442,0 7.5385,-2.7715 2.5498,-2.7716 2.5498,-7.3723 z" />
      <path
         inkscape:connector-curvature="0"
         id="path4566"
         style="font-size:medium;font-style:normal;font-variant:normal;font-weight:bold;font-stretch:condensed;line-height:125%;letter-spacing:0px;word-spacing:0px;fill:#00112b;fill-opacity:1;stroke:none;font-family:Roboto;-inkscape-font-specification:Roboto Bold Condensed"
         d="m 1953.2855,1566.6893 q 0,14.2456 -8.0374,22.2276 -8.0374,7.9819 -21.3962,7.9819 -13.3587,0 -21.3407,-7.9819 -7.9819,-7.982 -7.9819,-22.2276 l 0,-22.5047 q 0,-14.1902 7.9265,-22.2276 7.982,-8.0929 21.3407,-8.0929 13.3587,0 21.3961,8.0929 8.0929,8.0374 8.0929,22.2276 l 0,22.5047 z m -15.576,-22.671 q 0,-8.8135 -3.6029,-13.3033 -3.5476,-4.4899 -10.3101,-4.4899 -6.8179,0 -10.2546,4.4899 -3.4367,4.4344 -3.4367,13.3033 l 0,22.671 q 0,8.9797 3.4367,13.4696 3.4921,4.4898 10.31,4.4898 6.818,0 10.3101,-4.4898 3.5475,-4.4899 3.5475,-13.4696 l 0,-22.671 z" />
      <path
         inkscape:connector-curvature="0"
         id="path4568"
         style="font-size:medium;font-style:normal;font-variant:normal;font-weight:bold;font-stretch:condensed;line-height:125%;letter-spacing:0px;word-spacing:0px;fill:#00112b;fill-opacity:1;stroke:none;font-family:Roboto;-inkscape-font-specification:Roboto Bold Condensed"
         d="m 2005.5562,1561.9777 -25.6088,0 0,33.7571 -15.6313,0 0,-80.7066 46.118,0 0,12.2501 -30.4867,0 0,22.5047 25.6088,0 0,12.1947 z" />
      <path
         inkscape:connector-curvature="0"
         id="path4570"
         style="font-size:medium;font-style:normal;font-variant:normal;font-weight:bold;font-stretch:condensed;line-height:125%;letter-spacing:0px;word-spacing:0px;fill:#00112b;fill-opacity:1;stroke:none;font-family:Roboto;-inkscape-font-specification:Roboto Bold Condensed"
         d="m 2068.0817,1527.2783 -18.9572,0 0,68.4565 -15.6867,0 0,-68.4565 -18.4584,0 0,-12.2501 53.1023,0 0,12.2501 z" />
    </g>
    <g
       id="g4623">
      <path
         style="color:#000000;fill:#2aa1bf;fill-opacity:1;fill-rule:evenodd;stroke:none;visibility:visible;display:inline;overflow:visible;enable-background:accumulate"
         d="m 1333.2348,1610.9572 0,244.0722 c 5.6972,-49.4918 25.9037,-102.5816 62.6445,-146.8144 41.179,-49.5761 103.193,-87.9134 188.4336,-97.2578 l -251.0781,0 z"
         id="path4429"
         inkscape:connector-curvature="0" />
      <path
         style="color:#000000;fill:#2aa1bf;fill-opacity:1;fill-rule:evenodd;stroke:none;visibility:visible;display:inline;overflow:visible;enable-background:accumulate"
         d="m 1663.1918,1610.9572 c 88.314,9.6152 181.5683,50.8314 256.625,117.7539 79.6604,71.0271 138.7898,171.1293 149.3789,293.1172 l 0,-410.8711 -406.0039,0 z"
         id="path4427"
         inkscape:connector-curvature="0" />
      <path
         style="color:#000000;fill:#51b9d3;fill-opacity:1;fill-rule:evenodd;stroke:none;visibility:visible;display:inline;overflow:visible;enable-background:accumulate"
         d="m 1624.7523,1613.7814 c -3.1478,-0.01 -6.2833,0.028 -9.4062,0.1074 -100.0446,2.5455 -170.4726,43.1666 -215.6211,97.5215 -45.1485,54.3549 -64.9168,122.5714 -63.0801,180.0039 1.8362,57.4147 25.579,99.0118 58.1172,126.8027 32.5383,27.791 73.9741,41.6797 110.9082,43.1211 36.7849,1.4357 62.762,-12.894 79.7676,-33.3671 17.0056,-20.4732 24.8927,-47.239 24.7207,-70.2774 -0.1714,-22.9691 -9.1274,-38.6092 -21.4902,-48.7109 -12.3628,-10.1017 -28.2887,-14.5645 -42.1407,-14.4336 -13.6628,0.129 -22.8064,6.1418 -28.7969,13.9785 -5.9905,7.8367 -8.6285,17.6286 -8.6035,24.5781 0.025,7.0184 2.3058,12.4057 6.1192,16.1016 3.8134,3.6958 9.266,5.7814 16.0449,5.7031 6.896,-0.08 10.0406,-1.7537 11.7422,-3.8926 1.7016,-2.1388 2.202,-5.3398 2.293,-9.1152 0.077,-3.2075 -1.0304,-4.5844 -2.5997,-5.6035 -1.5693,-1.0192 -3.8403,-1.4034 -5.3711,-1.3457 -1.6247,0.061 -2.0669,0.3606 -2.2714,0.5859 -0.2046,0.2253 -0.5094,0.9088 -0.6094,2.4863 -0.032,0.5071 0.01,0.6556 0.035,0.8438 0.041,-0.025 -0.053,-0.048 0.5664,-0.066 0.1442,0 0.082,0.021 0.2012,-0.1191 0.1192,-0.1399 0.2744,-0.4879 0.3144,-0.7149 l 4.9258,0.8574 c -0.1812,1.0404 -0.5976,2.1187 -1.4355,3.1016 -0.8378,0.9829 -2.2421,1.8257 -3.8594,1.873 -0.838,0.024 -2.2374,0.3087 -3.8184,-0.7753 -0.7905,-0.5421 -1.3934,-1.4504 -1.668,-2.3653 -0.2749,-0.9148 -0.3209,-1.8574 -0.2519,-2.9492 0.1291,-2.045 0.5011,-3.9943 1.8984,-5.5332 1.3974,-1.5389 3.4827,-2.1338 5.7852,-2.2207 2.3964,-0.09 5.5031,0.3442 8.2812,2.1484 2.7781,1.8042 4.9876,5.2548 4.875,9.916 -0.099,4.0934 -0.5338,8.5332 -3.3789,12.1094 -2.8451,3.5762 -7.858,5.6899 -15.5957,5.7793 -7.8545,0.091 -14.7215,-2.4026 -19.582,-7.1133 -4.8605,-4.7106 -7.6116,-11.5555 -7.6406,-19.6718 -0.03,-8.1852 2.8701,-18.7906 9.6308,-27.6348 6.7607,-8.8442 17.5815,-15.7964 32.7227,-15.9395 14.9518,-0.1412 31.9269,4.5894 45.3515,15.5586 13.4246,10.9693 23.1451,28.2775 23.3262,52.5469 0.1807,24.2001 -7.9918,51.9781 -25.875,73.5078 -13.1996,15.8911 -31.777,28.2854 -55.9531,33.0938 l 532.5606,0 c 0.902,-139.7974 -61.596,-253.5259 -149.4004,-331.8145 -85.1635,-75.9345 -194.1541,-118.3946 -291.7382,-118.6625 z"
         id="path4425"
         inkscape:connector-curvature="0" />
      <path
         style="color:#000000;fill:#0088aa;fill-opacity:1;fill-rule:evenodd;stroke:none;visibility:visible;display:inline;overflow:visible;enable-background:accumulate"
         d="m 1333.2348,1911.6271 0,152.6309 151.2207,0 c -32.0905,-5.0365 -65.5056,-18.8053 -92.9414,-42.2383 -29.5656,-25.252 -52.0977,-61.8005 -58.2793,-110.3926 z"
         id="rect4407"
         inkscape:connector-curvature="0" />
      <path
         style="font-size:medium;font-style:normal;font-variant:normal;font-weight:normal;font-stretch:normal;text-indent:0;text-align:start;text-decoration:none;line-height:normal;letter-spacing:normal;word-spacing:normal;text-transform:none;direction:ltr;block-progression:tb;writing-mode:lr-tb;text-anchor:start;baseline-shift:baseline;color:#000000;fill:#d7f4ee;fill-opacity:1;fill-rule:evenodd;stroke:none;visibility:visible;display:inline;overflow:visible;enable-background:accumulate;font-family:sans-serif"
         d="m 1615.5246,1609.3547 0,281.1641 -279.6484,0 0,1 172.1328,0 0,66.1289 c 0,0.4327 0.206,0.4847 0.5,0.498 l 40.8867,0 66.1289,0 0,105.5039 1,0 0,-454.2949 z m -106.5156,282.1641 39.8867,0 0,39.8867 -39.8867,0 z m 40.8867,0 65.6289,0 0,65.6269 -65.6289,0 z m -40.8867,40.8867 25.0762,0 -0.3555,24.7402 -24.7207,0 z m 26.0762,0 13.8105,0 0,24.7402 -14.166,0 z"
         id="path4495"
         inkscape:connector-curvature="0"
         sodipodi:nodetypes="ccccccccccccccccccccccccccccccccc" />
    </g>
  </g>
</svg>
