<?xml version="1.0" encoding="UTF-8" standalone="no"?>
<!-- Created with Inkscape (http://www.inkscape.org/) -->

<svg
   xmlns:dc="http://purl.org/dc/elements/1.1/"
   xmlns:cc="http://creativecommons.org/ns#"
   xmlns:rdf="http://www.w3.org/1999/02/22-rdf-syntax-ns#"
   xmlns:svg="http://www.w3.org/2000/svg"
   xmlns="http://www.w3.org/2000/svg"
   xmlns:sodipodi="http://sodipodi.sourceforge.net/DTD/sodipodi-0.dtd"
   xmlns:inkscape="http://www.inkscape.org/namespaces/inkscape"
   id="svg2403"
   sodipodi:version="0.32"
   inkscape:version="0.48.5 r10040"
   width="447.24744"
   height="223.91246"
   xml:space="preserve"
   sodipodi:docname="galotecnia.svg"
   inkscape:output_extension="org.inkscape.output.svg.inkscape"
   version="1.0"
   inkscape:export-filename="/home/alberto/galotecnia/logo_directorio/logo_500.png"
   inkscape:export-xdpi="97.119736"
   inkscape:export-ydpi="97.119736"><metadata
     id="metadata2408"><rdf:RDF><cc:Work
         rdf:about=""><dc:format>image/svg+xml</dc:format><dc:type
           rdf:resource="http://purl.org/dc/dcmitype/StillImage" /></cc:Work></rdf:RDF></metadata><defs
     id="defs2406"><inkscape:perspective
       sodipodi:type="inkscape:persp3d"
       inkscape:vp_x="0 : 526.18109 : 1"
       inkscape:vp_y="0 : 1000 : 0"
       inkscape:vp_z="744.09448 : 526.18109 : 1"
       inkscape:persp3d-origin="372.04724 : 350.78739 : 1"
       id="perspective2410" /></defs><sodipodi:namedview
     inkscape:window-height="861"
     inkscape:window-width="1436"
     inkscape:pageshadow="2"
     inkscape:pageopacity="0.0"
     guidetolerance="10.0"
     gridtolerance="10.0"
     objecttolerance="10.0"
     borderopacity="1.0"
     bordercolor="#666666"
     pagecolor="#ffffff"
     id="base"
     showgrid="false"
     inkscape:zoom="1.7671927"
     inkscape:cx="-88.752664"
     inkscape:cy="95.8169"
     inkscape:window-x="1366"
     inkscape:window-y="18"
     inkscape:current-layer="g2412"
     showborder="true"
     fit-margin-top="77"
     fit-margin-bottom="77"
     fit-margin-left="0"
     fit-margin-right="0"
     inkscape:window-maximized="0" /><g
     id="g2412"
     inkscape:groupmode="layer"
     inkscape:label="lagart2_rene"
     transform="matrix(1.25,0,0,-1.25,-216.00873,904.54895)"><g
       id="g3323"
       transform="matrix(1.1331028,0,0,1.1331028,-35.911087,-95.237885)"><path
         transform="scale(1,-1)"
         style="font-size:13.36477375px;font-style:normal;font-variant:normal;font-weight:normal;font-stretch:normal;text-align:start;line-height:125%;writing-mode:lr-tb;text-anchor:start;font-family:HandelGotDBol;-inkscape-font-specification:HandelGotDBol"
         d="m 327.11156,-624.66458 0,3.38687 -1.89247,0 0,-8.90767 4.34616,0 c 1.24859,10e-6 2.12087,0.1588 2.61683,0.47638 0.33498,0.21318 0.59384,0.49596 0.77657,0.84835 0.18706,0.34805 0.2806,0.73307 0.28061,1.15506 -10e-6,0.84835 -0.21536,1.50093 -0.64605,1.95773 -0.26539,0.27844 -0.61778,0.49161 -1.05718,0.63952 0.34804,0.11747 0.61124,0.24581 0.78962,0.38502 0.17836,0.13922 0.33933,0.3437 0.48291,0.61343 0.10875,0.20882 0.18489,0.4133 0.2284,0.61342 0.0478,0.19577 0.087,0.48726 0.11746,0.87445 0.0522,0.63953 0.12398,1.08763 0.21535,1.34431 l -2.1274,0 c -0.0653,-0.20882 -0.13052,-0.63082 -0.19577,-1.266 -0.0522,-0.52206 -0.14792,-0.92013 -0.28713,-1.19421 -0.13488,-0.27843 -0.34153,-0.49596 -0.61995,-0.65258 -0.3437,-0.18707 -0.84401,-0.27843 -1.50093,-0.27408 l -1.52703,0 m 0,-1.58577 2.66251,0 c 0.44375,10e-6 0.75916,-0.0652 0.94624,-0.19577 0.28278,-0.20012 0.42417,-0.54381 0.42418,-1.03107 -1e-5,-0.54381 -0.21319,-0.89185 -0.63953,-1.04412 -0.14792,-0.0522 -0.39155,-0.0783 -0.73089,-0.0783 l -2.66251,0 0,2.34927 m 12.83585,1.01802 0,1.38999 -3.77189,0 c 0.0348,0.42636 0.17184,0.72872 0.41112,0.90708 0.24362,0.17838 0.63517,0.26756 1.17464,0.26756 l 2.18613,0 0,1.38999 -2.38191,0 c -0.51771,0 -0.93971,-0.0457 -1.26599,-0.13704 -0.32194,-0.0914 -0.62866,-0.24798 -0.92014,-0.46986 -0.78744,-0.60907 -1.18116,-1.51832 -1.18116,-2.72777 0,-0.79179 0.20882,-1.47917 0.62647,-2.06214 0.28713,-0.40024 0.63082,-0.6852 1.03107,-0.85488 0.40025,-0.16966 0.92666,-0.25449 1.57924,-0.2545 l 2.51242,0 0,1.38999 -2.38191,0 c -0.48726,0 -0.83095,0.0827 -1.03107,0.24798 -0.19577,0.16532 -0.31541,0.46986 -0.35891,0.9136 l 3.77189,0 m 5.82999,-2.55157 0,-2.40148 1.78806,0 0,8.90767 -3.08016,0 c -0.62648,0 -1.09634,-0.0479 -1.40957,-0.14357 -0.76569,-0.23927 -1.33561,-0.7113 -1.70975,-1.41609 -0.25233,-0.47855 -0.3785,-1.05717 -0.3785,-1.73585 0,-1.11808 0.37415,-1.98601 1.12244,-2.60378 0.48725,-0.4046 1.14853,-0.60689 1.98383,-0.6069 l 1.68365,0 m 0,5.1162 0,-3.72621 -1.2921,0 c -0.56992,0 -1.0028,0.18925 -1.29863,0.56774 -0.25233,0.32629 -0.3785,0.74394 -0.3785,1.25295 0,0.73524 0.211,1.26165 0.633,1.57923 0.29148,0.21753 0.63952,0.32629 1.04413,0.32629 l 1.2921,0 m 8.87124,-2.56463 0,1.38999 -3.77189,0 c 0.0348,0.42636 0.17184,0.72872 0.41112,0.90708 0.24363,0.17838 0.63517,0.26756 1.17464,0.26756 l 2.18613,0 0,1.38999 -2.3819,0 c -0.51772,0 -0.93972,-0.0457 -1.266,-0.13704 -0.32194,-0.0914 -0.62865,-0.24798 -0.92014,-0.46986 -0.78744,-0.60907 -1.18116,-1.51832 -1.18116,-2.72777 0,-0.79179 0.20882,-1.47917 0.62647,-2.06214 0.28714,-0.40024 0.63083,-0.6852 1.03108,-0.85488 0.40024,-0.16966 0.92665,-0.25449 1.57923,-0.2545 l 2.51242,0 0,1.38999 -2.3819,0 c -0.48726,0 -0.83095,0.0827 -1.03107,0.24798 -0.19578,0.16532 -0.31542,0.46986 -0.35892,0.9136 l 3.77189,0 m 7.12212,-2.55157 0,1.38999 -3.17152,0 c -0.3611,0 -0.59167,0.0174 -0.69173,0.0522 -0.20448,0.0696 -0.30671,0.24364 -0.30671,0.52207 0,0.23058 0.0979,0.40677 0.29366,0.52858 0.10441,0.0696 0.39372,0.10442 0.86792,0.10441 l 1.05718,0 c 0.67432,10e-6 1.20726,0.14575 1.59881,0.43723 0.43505,0.32194 0.65257,0.79397 0.65258,1.41609 -10e-6,0.46986 -0.13052,0.90274 -0.39155,1.29863 -0.20013,0.30454 -0.44158,0.50684 -0.72436,0.6069 -0.28279,0.10006 -0.75047,0.15009 -1.40304,0.15009 l -3.70011,0 0,-1.38999 3.18458,0 c 0.39589,0 0.66562,-0.007 0.80919,-0.0196 0.31758,-0.0348 0.47638,-0.21317 0.47638,-0.53511 0,-0.26973 -0.10441,-0.45463 -0.31323,-0.55469 -0.11312,-0.0566 -0.37415,-0.0848 -0.7831,-0.0848 l -1.08327,0 c -0.42201,0 -0.74829,-0.0261 -0.97887,-0.0783 -0.22623,-0.0522 -0.43723,-0.14792 -0.633,-0.28714 -0.23928,-0.17401 -0.42852,-0.40894 -0.56774,-0.70478 -0.13922,-0.29583 -0.20883,-0.61559 -0.20882,-0.95929 -10e-6,-0.65257 0.2371,-1.17028 0.7113,-1.55313 0.28279,-0.22622 0.77657,-0.33933 1.48135,-0.33934 l 3.8241,0 m 3.2456,4.77034 0,1.5466 -1.03107,2.01647 -0.81573,0 0.81573,-1.82722 -0.58732,0 0,-1.73585 1.61839,0 m 4.92193,1.73585 0,-1.58576 4.06555,0 c 0.65257,0 1.08762,-0.0653 1.30515,-0.19577 0.31323,-0.18707 0.46985,-0.46768 0.46986,-0.84183 -10e-6,-0.4307 -0.18273,-0.74611 -0.54817,-0.94624 -0.20883,-0.1131 -0.54164,-0.16966 -0.99844,-0.16967 l -1.65102,0 c -1.00932,10e-6 -1.73585,-0.18271 -2.1796,-0.54816 -0.27844,-0.23057 -0.49596,-0.51988 -0.65258,-0.86793 -0.15662,-0.35238 -0.23493,-0.72653 -0.23493,-1.12243 0,-0.62647 0.18272,-1.19856 0.54817,-1.71628 0.35674,-0.5003 0.92883,-0.79178 1.71627,-0.87445 0.26538,-0.0261 0.66128,-0.0391 1.18769,-0.0392 l 4.41795,0 0,1.58576 -3.98725,0 c -0.59602,0.004 -0.99192,0.0305 -1.18769,0.0783 -0.40025,0.10007 -0.60037,0.40243 -0.60037,0.90708 0,0.42636 0.16749,0.71349 0.50249,0.8614 0.22622,0.10007 0.60036,0.1501 1.12243,0.15009 l 1.42914,0 c 0.73088,10e-6 1.27687,0.0631 1.63797,0.18925 0.63082,0.21318 1.06369,0.58732 1.29863,1.12243 0.19141,0.43071 0.28712,0.89186 0.28713,1.38347 -10e-6,0.53946 -0.124,1.02454 -0.37197,1.45524 -0.34805,0.60907 -0.87228,0.97234 -1.57271,1.08981 -0.33934,0.0566 -0.84835,0.0848 -1.52703,0.0848 l -4.47667,0 m 9.28201,-6.50619 1.78806,0 0,6.50619 -1.78806,0 0,-6.50619 m 0,-0.66563 0,-1.73585 1.78806,0 0,1.73585 -1.78806,0 m 9.19982,0.66563 0,1.38999 -3.17153,0 c -0.36109,0 -0.59167,0.0174 -0.69173,0.0522 -0.20447,0.0696 -0.30671,0.24364 -0.30671,0.52207 0,0.23058 0.0979,0.40677 0.29366,0.52858 0.10441,0.0696 0.39372,0.10442 0.86793,0.10441 l 1.05717,0 c 0.67433,10e-6 1.20726,0.14575 1.59882,0.43723 0.43504,0.32194 0.65257,0.79397 0.65257,1.41609 0,0.46986 -0.13052,0.90274 -0.39154,1.29863 -0.20013,0.30454 -0.44159,0.50684 -0.72436,0.6069 -0.28279,0.10006 -0.75047,0.15009 -1.40304,0.15009 l -3.70012,0 0,-1.38999 3.18458,0 c 0.39589,0 0.66562,-0.007 0.80919,-0.0196 0.31759,-0.0348 0.47638,-0.21317 0.47639,-0.53511 -1e-5,-0.26973 -0.10442,-0.45463 -0.31324,-0.55469 -0.11312,-0.0566 -0.37415,-0.0848 -0.78309,-0.0848 l -1.08328,0 c -0.422,0 -0.74829,-0.0261 -0.97887,-0.0783 -0.22622,-0.0522 -0.43722,-0.14792 -0.633,-0.28714 -0.23927,-0.17401 -0.42852,-0.40894 -0.56774,-0.70478 -0.13921,-0.29583 -0.20882,-0.61559 -0.20882,-0.95929 0,-0.65257 0.2371,-1.17028 0.71131,-1.55313 0.28278,-0.22622 0.77656,-0.33933 1.48135,-0.33934 l 3.8241,0 m 2.0822,0 0,-2.40148 1.78806,0 0,2.40148 1.65755,0 0,1.38999 -1.65755,0 0,2.36233 c 0,0.55251 0.05,0.90055 0.1501,1.04412 0.15226,0.21318 0.41982,0.31976 0.80267,0.31976 l 0.70478,0 0,1.38999 -1.29863,0 c -0.77439,0 -1.32691,-0.18707 -1.65754,-0.56122 -0.32629,-0.37414 -0.48944,-1.00061 -0.48944,-1.87942 l 0,-2.67556 -1.13548,0 0,-1.38999 1.13548,0 m 9.85396,2.55157 0,1.38999 -3.77189,0 c 0.0348,0.42636 0.17184,0.72872 0.41112,0.90708 0.24363,0.17838 0.63517,0.26756 1.17464,0.26756 l 2.18613,0 0,1.38999 -2.3819,0 c -0.51772,0 -0.93971,-0.0457 -1.266,-0.13704 -0.32194,-0.0914 -0.62865,-0.24798 -0.92013,-0.46986 -0.78745,-0.60907 -1.18117,-1.51832 -1.18117,-2.72777 0,-0.79179 0.20883,-1.47917 0.62648,-2.06214 0.28713,-0.40024 0.63082,-0.6852 1.03107,-0.85488 0.40024,-0.16966 0.92665,-0.25449 1.57923,-0.2545 l 2.51242,0 0,1.38999 -2.3819,0 c -0.48726,0 -0.83095,0.0827 -1.03107,0.24798 -0.19578,0.16532 -0.31542,0.46986 -0.35892,0.9136 l 3.77189,0 m 1.47734,-2.55157 6.57797,0 c 0.60036,10e-6 1.05499,0.0435 1.36389,0.13051 0.31322,0.087 0.57425,0.24364 0.78309,0.46986 0.39153,0.42636 0.58731,1.01367 0.58732,1.76196 l 0,4.14386 -1.78806,0 0,-3.86325 c -10e-6,-0.31324 -0.0152,-0.53076 -0.0457,-0.65258 -0.0261,-0.12181 -0.087,-0.23275 -0.18273,-0.33282 -0.18272,-0.17836 -0.46333,-0.26755 -0.84182,-0.26755 l -0.95276,0 0,5.1162 -1.78806,0 0,-5.1162 -1.9251,0 0,5.1162 -1.78806,0 0,-6.50619 m 15.48209,2.55157 c -1e-5,-0.4568 -0.0935,-0.76351 -0.28061,-0.92013 -0.18272,-0.16096 -0.54382,-0.24145 -1.08328,-0.24145 l -3.02795,0 0,-1.38999 3.02795,0 c 0.53946,10e-6 0.91143,0.0109 1.11591,0.0326 0.20882,0.0174 0.41764,0.0587 0.62647,0.12399 0.98756,0.37415 1.45742,1.26818 1.40957,2.68209 l 0,3.66748 -3.77189,0 c -0.67434,0 -1.14202,-0.0196 -1.40304,-0.0587 -0.25669,-0.0392 -0.48291,-0.12399 -0.67868,-0.25451 -0.53077,-0.35674 -0.79615,-0.89403 -0.79615,-1.61186 0,-0.4394 0.10441,-0.82877 0.31324,-1.16811 0.21317,-0.34369 0.49161,-0.57644 0.8353,-0.69826 0.30453,-0.10876 0.81137,-0.16314 1.5205,-0.16315 l 2.19266,0 m 0,1.38999 -2.06867,0 -0.30018,-0.007 c -0.20448,0 -0.36763,0.0544 -0.48944,0.16314 -0.11746,0.10877 -0.17619,0.25451 -0.17619,0.43723 0,0.21317 0.0718,0.36327 0.21535,0.45028 0.14791,0.087 0.39807,0.13051 0.75046,0.13051 l 2.06867,0 0,-1.17464 m 9.10059,-3.94156 0,1.38999 -3.17152,0 c -0.3611,0 -0.59167,0.0174 -0.69173,0.0522 -0.20448,0.0696 -0.30672,0.24364 -0.30671,0.52207 -1e-5,0.23058 0.0979,0.40677 0.29366,0.52858 0.1044,0.0696 0.39371,0.10442 0.86792,0.10441 l 1.05718,0 c 0.67432,1e-5 1.20726,0.14575 1.59881,0.43723 0.43505,0.32194 0.65257,0.79397 0.65258,1.41609 -1e-5,0.46986 -0.13052,0.90274 -0.39155,1.29863 -0.20013,0.30454 -0.44158,0.50684 -0.72436,0.6069 -0.28279,0.10006 -0.75047,0.15009 -1.40304,0.15009 l -3.70011,0 0,-1.38999 3.18457,0 c 0.3959,0 0.66563,-0.007 0.8092,-0.0196 0.31758,-0.0348 0.47638,-0.21317 0.47638,-0.53511 0,-0.26973 -0.10442,-0.45463 -0.31324,-0.55469 -0.11311,-0.0566 -0.37414,-0.0848 -0.78309,-0.0848 l -1.08328,0 c -0.422,0 -0.74829,-0.0261 -0.97886,-0.0783 -0.22623,-0.0522 -0.43723,-0.14792 -0.633,-0.28714 -0.23928,-0.17401 -0.42853,-0.40894 -0.56774,-0.70478 -0.13922,-0.29583 -0.20883,-0.61559 -0.20883,-0.95929 0,-0.65257 0.23711,-1.17028 0.71131,-1.55313 0.28278,-0.22622 0.77657,-0.33933 1.48135,-0.33934 l 3.8241,0 m 9.3015,5.1162 0,-5.1162 1.78806,0 0,6.37567 c -10e-6,0.84835 -0.22406,1.4683 -0.67215,1.85985 -0.44376,0.39154 -1.15072,0.58732 -2.12088,0.58732 l -3.19762,0 0,-1.38999 3.19762,0 c 0.38284,-0.004 0.633,-0.0479 0.75047,-0.13052 0.087,-0.0478 0.14356,-0.11529 0.16967,-0.2023 0.0304,-0.087 0.0587,-0.28495 0.0848,-0.59384 l -1.59881,0 c -1.83592,0.0435 -2.70385,-0.91361 -2.60378,-2.87134 l 0,-3.63485 1.78806,0 0,3.45866 c -1e-5,0.67433 0.0609,1.12026 0.18272,1.33778 0.12181,0.21318 0.37414,0.31976 0.75699,0.31976 l 1.47482,0 m 6.75125,1.38999 0,-1.58576 4.06555,0 c 0.65257,0 1.08762,-0.0653 1.30515,-0.19577 0.31324,-0.18707 0.46985,-0.46768 0.46986,-0.84183 -10e-6,-0.4307 -0.18273,-0.74611 -0.54816,-0.94624 -0.20883,-0.1131 -0.54165,-0.16966 -0.99845,-0.16967 l -1.65102,0 c -1.00932,10e-6 -1.73585,-0.18271 -2.1796,-0.54816 -0.27844,-0.23057 -0.49596,-0.51988 -0.65258,-0.86793 -0.15662,-0.35238 -0.23493,-0.72653 -0.23493,-1.12243 0,-0.62647 0.18272,-1.19856 0.54817,-1.71628 0.35674,-0.5003 0.92883,-0.79178 1.71627,-0.87445 0.26538,-0.0261 0.66128,-0.0391 1.18769,-0.0392 l 4.41795,0 0,1.58576 -3.98725,0 c -0.59602,0.004 -0.99192,0.0305 -1.18769,0.0783 -0.40024,0.10007 -0.60037,0.40243 -0.60037,0.90708 0,0.42636 0.1675,0.71349 0.50249,0.8614 0.22622,0.10007 0.60037,0.1501 1.12243,0.15009 l 1.42914,0 c 0.73088,10e-6 1.27687,0.0631 1.63797,0.18925 0.63082,0.21318 1.06369,0.58732 1.29863,1.12243 0.19141,0.43071 0.28712,0.89186 0.28713,1.38347 -10e-6,0.53946 -0.12399,1.02454 -0.37197,1.45524 -0.34804,0.60907 -0.87228,0.97234 -1.57271,1.08981 -0.33934,0.0566 -0.84835,0.0848 -1.52703,0.0848 l -4.47667,0 m 14.59396,-3.95462 0,1.38999 -3.77189,0 c 0.0348,0.42636 0.17184,0.72872 0.41112,0.90708 0.24363,0.17838 0.63517,0.26756 1.17464,0.26756 l 2.18613,0 0,1.38999 -2.38191,0 c -0.51771,0 -0.93971,-0.0457 -1.26599,-0.13704 -0.32194,-0.0914 -0.62866,-0.24798 -0.92014,-0.46986 -0.78744,-0.60907 -1.18116,-1.51832 -1.18116,-2.72777 0,-0.79179 0.20882,-1.47917 0.62647,-2.06214 0.28713,-0.40024 0.63082,-0.6852 1.03107,-0.85488 0.40025,-0.16966 0.92666,-0.25449 1.57924,-0.2545 l 2.51242,0 0,1.38999 -2.38191,0 c -0.48726,0 -0.83095,0.0827 -1.03107,0.24798 -0.19577,0.16532 -0.31541,0.46986 -0.35891,0.9136 l 3.77189,0 m 1.47733,-2.55157 2.64946,0 c 0.53946,10e-6 0.95711,0.037 1.25295,0.11094 0.30018,0.074 0.55034,0.2023 0.75046,0.38502 0.19577,0.17837 0.33281,0.40025 0.41113,0.66563 0.0783,0.26538 0.11746,0.64605 0.11746,1.14201 l 0,0.63299 -1.71628,0 0,-0.35239 c 0,-0.46115 -0.0827,-0.77438 -0.24797,-0.93971 -0.16098,-0.16966 -0.46551,-0.2545 -0.91361,-0.2545 l -0.51554,0 0,5.1162 -1.78806,0 0,-6.50619 m 9.10709,4.47668 1.81417,-4.47668 1.89247,0 -2.80608,6.50619 -1.91858,0 -2.59725,-6.50619 1.9512,0 1.66407,4.47668 m 4.67196,-4.47668 1.78806,0 0,6.50619 -1.78806,0 0,-6.50619 m 0,-0.66563 0,-1.73585 1.78806,0 0,1.73585 -1.78806,0 m 8.9845,0.66563 0,1.38999 -2.14698,0 c -0.71349,0 -1.21162,0.16097 -1.4944,0.4829 -0.26539,0.30454 -0.39808,0.7657 -0.39807,1.38347 -10e-6,0.70043 0.21752,1.20727 0.65257,1.5205 0.17837,0.13052 0.37197,0.2197 0.5808,0.26756 0.20882,0.0478 0.5003,0.0718 0.87445,0.0718 l 1.93163,0 0,1.38999 -2.44717,0 c -0.65693,0 -1.17681,-0.0653 -1.55965,-0.19577 -0.38285,-0.13487 -0.72437,-0.3698 -1.02455,-0.70479 -0.55687,-0.62212 -0.8353,-1.41173 -0.8353,-2.36885 0,-1.15723 0.33499,-2.02298 1.00497,-2.59726 0.26538,-0.23057 0.58514,-0.39371 0.95929,-0.48943 0.37414,-0.10005 0.85922,-0.15008 1.45524,-0.15009 l 2.44717,0 m 1.3866,0 1.78806,0 0,6.50619 -1.78806,0 0,-6.50619 m 0,-0.66563 0,-1.73585 1.78806,0 0,1.73585 -1.78806,0 m 6.55035,0.56774 c 1.20074,10e-6 2.08824,0.34805 2.66251,1.04413 0.52641,0.63518 0.78961,1.43132 0.78962,2.38843 -1e-5,1.01802 -0.33065,1.82939 -0.99192,2.43411 -0.60472,0.55686 -1.4335,0.8353 -2.48631,0.8353 -1.08763,0 -1.94033,-0.31106 -2.55811,-0.93319 -0.56556,-0.56991 -0.84835,-1.38998 -0.84835,-2.46021 0,-0.91361 0.27191,-1.67277 0.81573,-2.2775 0.60472,-0.67432 1.47699,-1.01801 2.61683,-1.03107 m 0.0131,1.37041 c -1.07458,10e-6 -1.61187,0.66781 -1.61186,2.00341 -10e-6,0.54382 0.087,0.95712 0.26103,1.2399 0.29148,0.47856 0.74611,0.71784 1.36388,0.71784 1.06152,0 1.59228,-0.66346 1.59229,-1.99036 -1e-5,-1.3008 -0.53512,-1.95773 -1.60534,-1.97079 m 10.4147,-1.27252 0,1.38999 -3.17152,0 c -0.3611,0 -0.59168,0.0174 -0.69173,0.0522 -0.20448,0.0696 -0.30672,0.24364 -0.30672,0.52207 0,0.23058 0.0979,0.40677 0.29366,0.52858 0.10441,0.0696 0.39372,0.10442 0.86793,0.10441 l 1.05718,0 c 0.67432,10e-6 1.20726,0.14575 1.59881,0.43723 0.43504,0.32194 0.65257,0.79397 0.65258,1.41609 -10e-6,0.46986 -0.13053,0.90274 -0.39155,1.29863 -0.20013,0.30454 -0.44158,0.50684 -0.72436,0.6069 -0.28279,0.10006 -0.75047,0.15009 -1.40304,0.15009 l -3.70011,0 0,-1.38999 3.18457,0 c 0.3959,0 0.66563,-0.007 0.8092,-0.0196 0.31758,-0.0348 0.47638,-0.21317 0.47638,-0.53511 0,-0.26973 -0.10442,-0.45463 -0.31324,-0.55469 -0.11311,-0.0566 -0.37415,-0.0848 -0.78309,-0.0848 l -1.08328,0 c -0.422,0 -0.74829,-0.0261 -0.97886,-0.0783 -0.22623,-0.0522 -0.43723,-0.14792 -0.633,-0.28714 -0.23928,-0.17401 -0.42853,-0.40894 -0.56774,-0.70478 -0.13922,-0.29583 -0.20883,-0.61559 -0.20883,-0.95929 0,-0.65257 0.2371,-1.17028 0.71131,-1.55313 0.28278,-0.22622 0.77657,-0.33933 1.48135,-0.33934 l 3.8241,0"
         id="text2416"
         inkscape:connector-curvature="0" /><g
         transform="matrix(-1,0,0,1,378.7053,-0.9570978)"
         id="g2725"><path
           id="path2460"
           style="fill:#004cff;fill-opacity:1;fill-rule:nonzero;stroke:#004cff;stroke-width:0.0779;stroke-linecap:butt;stroke-linejoin:miter;stroke-miterlimit:3.86360002;stroke-opacity:1;stroke-dasharray:none"
           d="m 163.4921,629.3338 c 10.1954,-0.0184 11.1292,7.0334 23.7052,2.787 4.2965,-1.4507 7.1662,-0.7321 7.2414,-1.3254 0,-1.1313 -5.6036,-2.3016 -8.5339,-3.7714 -4.052,-1.5339 -6.5875,-0.5977 -13.4138,-2.5872 0.3785,-0.2876 0.5866,-0.6647 0.6241,-1.1313 3.8283,0.7422 6.4679,0.7292 7.9185,-0.039 1.0344,0.1507 1.8406,-0.0313 2.4185,-0.5461 -0.8614,0.2748 -1.3945,0.3269 -1.5993,0.156 1.1197,-0.2547 1.7947,-0.7229 2.1312,-1.1703 -1.2802,0.3599 -2.0202,0.4639 -2.3263,0.0781 0.4297,-0.1343 0.8996,-0.5604 0.2731,-0.9753 -1.1868,2.8063 -10.0639,-4.018 -15.4859,2.6917 -2.2019,-0.5937 -4.8231,-1.1442 -10.7165,-1.1313 0,0 -20.40845,-0.0619 -22.35993,-0.0619 0,2.49606 0.0369,5.43961 0.0369,8.3134 l 15.30341,-0.0179 c 7.8485,-0.0331 12.6577,-1.2653 14.7833,-1.2691 z"
           sodipodi:nodetypes="cscccccccccccccccc"
           inkscape:connector-curvature="0" /><path
           id="path2462"
           style="fill:#ffffff;fill-opacity:1;fill-rule:evenodd;stroke:#ffffff;stroke-width:0.0449;stroke-linecap:butt;stroke-linejoin:miter;stroke-miterlimit:3.86360002;stroke-opacity:1;stroke-dasharray:none"
           d="m 186.5306,629.8569 c -1.3305,0.6724 -2.745,1.0366 -4.3009,0.4592 2.3516,-0.082 1.5471,-0.6231 4.3009,-0.4592 z"
           inkscape:connector-curvature="0" /><path
           id="path2464"
           style="fill:#ffffff;fill-opacity:1;fill-rule:evenodd;stroke:#ffffff;stroke-width:0.0449;stroke-linecap:butt;stroke-linejoin:miter;stroke-miterlimit:3.86360002;stroke-opacity:1;stroke-dasharray:none"
           d="m 182.4082,631.3504 c -12.3084,-0.3054 -24.5634,-11.9924 -47.3728,-2.9158 23.8329,-7.9447 36.6814,3.7559 47.3728,2.9158 z"
           inkscape:connector-curvature="0" /><path
           id="path2466"
           style="fill:#ffffff;fill-opacity:1;fill-rule:evenodd;stroke:#ffffff;stroke-width:0.0449;stroke-linecap:butt;stroke-linejoin:miter;stroke-miterlimit:3.86360002;stroke-opacity:1;stroke-dasharray:none"
           d="m 183.1797,631.4995 c 4.3851,-0.5432 4.3497,-2.0614 11.281,-0.7682 -7.2144,-0.8807 -7.5681,0.7495 -11.281,0.7682 z"
           inkscape:connector-curvature="0" /></g><path
         d="m 261.08737,629.7895 -8.85796,0 0,-8.85828 8.85796,0 0,8.85828 z"
         style="fill:#195eff;fill-opacity:1;fill-rule:nonzero;stroke:none"
         id="path2751"
         inkscape:connector-curvature="0" /><path
         d="m 275.07368,629.7895 -8.85796,0 0,-8.85828 8.85796,0 0,8.85828 z"
         style="fill:#4c82ff;fill-opacity:1;fill-rule:nonzero;stroke:none"
         id="path2753"
         inkscape:connector-curvature="0" /><path
         d="m 289.05997,629.7895 -8.85806,0 0,-8.85828 8.85806,0 0,8.85828 z"
         style="fill:#80a6ff;fill-opacity:1;fill-rule:nonzero;stroke:none"
         id="path2755"
         inkscape:connector-curvature="0" /><path
         d="m 303.04628,629.7895 -8.85795,0 0,-8.85828 8.85795,0 0,8.85828 z"
         style="fill:#b3caff;fill-opacity:1;fill-rule:nonzero;stroke:none"
         id="path2757"
         inkscape:connector-curvature="0" /><path
         d="m 317.0326,629.7895 -8.85795,0 0,-8.85828 8.85795,0 0,8.85828 z"
         style="fill:#e6eeff;fill-opacity:1;fill-rule:nonzero;stroke:none"
         id="path2759"
         inkscape:connector-curvature="0" /><path
         transform="scale(1,-1)"
         style="font-size:44.79999924px;font-style:normal;font-variant:normal;font-weight:normal;font-stretch:normal;text-align:start;line-height:100%;writing-mode:lr-tb;text-anchor:start;fill:#004cff;fill-opacity:1;stroke:none;font-family:HandelGotDBol;-inkscape-font-specification:HandelGotDBol"
         d="m 216.73752,-656.00594 14.67812,0 0,17.74062 -13.34375,0 c -2.31876,0 -4.15626,-0.16771 -5.5125,-0.50312 -1.34167,-0.35 -2.56667,-0.95521 -3.675,-1.81563 -3.13542,-2.42083 -4.70312,-6.58437 -4.70312,-12.49062 0,-3.87915 0.74375,-7.09477 2.23125,-9.64688 1.10833,-1.88122 2.61041,-3.25205 4.50625,-4.1125 1.9104,-0.86039 4.39686,-1.29059 7.45937,-1.29062 l 13.0375,0 0,5.31562 -12.31562,0 c -2.65418,3e-5 -4.58647,0.58336 -5.79688,1.75 -1.41459,1.37086 -2.12188,3.82814 -2.12187,7.37188 -1e-5,1.82293 0.18228,3.47084 0.54687,4.94375 0.37916,1.45834 0.88958,2.54479 1.53125,3.25937 0.58333,0.65626 1.37082,1.13751 2.3625,1.44375 0.99166,0.30626 2.22395,0.45938 3.69688,0.45938 l 5.75312,0 0,-7.10938 -8.33437,0 0,-5.31562 m 17.2375,17.74062 12.35937,-29.85937 7.32813,0 12.35937,29.85937 -7.45937,0 -2.8875,-6.9125 -11.35313,0 -2.8875,6.9125 -7.45937,0 m 16.03437,-22.68437 -4.26562,10.45625 8.50937,0 -4.24375,-10.45625 m 18.87813,-7.175 6.34375,0 0,16.75625 c 0.0875,2.12917 0.18228,3.54375 0.28437,4.24375 0.20416,1.35625 0.85312,2.28959 1.94688,2.8 1.10832,0.49583 3.0479,0.74375 5.81875,0.74375 l 6.10312,0 0,5.31562 -6.75937,0 c -3.19377,0.0146 -5.51251,-0.16771 -6.95625,-0.54687 -3.29584,-0.9625 -5.38126,-3.05521 -6.25625,-6.27813 -0.33542,-1.23957 -0.51042,-3.33228 -0.525,-6.27812 l 0,-16.75625 m 36.575,-0.19688 c 2.98956,3e-5 5.61456,0.51045 7.875,1.53125 2.66872,1.21044 4.53538,3.24482 5.6,6.10313 0.8458,2.24585 1.26872,4.88543 1.26875,7.91875 -3e-5,3.03334 -0.51774,5.66563 -1.55313,7.89687 -1.26878,2.68334 -3.23023,4.55 -5.88437,5.6 -1.98336,0.7875 -4.26565,1.18125 -6.84688,1.18125 -3.35418,0 -6.27813,-0.62708 -8.77187,-1.88125 -2.08543,-1.05 -3.6823,-2.69062 -4.79063,-4.92187 -1.09375,-2.24583 -1.64062,-4.96562 -1.64062,-8.15938 0,-5.68748 1.41458,-9.74164 4.24375,-12.1625 2.39166,-2.04164 5.89165,-3.07705 10.5,-3.10625 m 0.0437,5.03125 c -2.93127,3e-5 -5.03126,0.95523 -6.3,2.86563 -0.99168,1.48752 -1.48751,3.87918 -1.4875,7.175 -1e-5,3.50001 0.62707,6.07396 1.88125,7.72187 1.23957,1.61876 3.21561,2.42813 5.92812,2.42813 2.62498,0 4.55727,-0.81667 5.79688,-2.45 1.25414,-1.64791 1.88122,-4.1927 1.88125,-7.63438 -3e-5,-3.12081 -0.50315,-5.50519 -1.50938,-7.15312 -1.18127,-1.95415 -3.24481,-2.93852 -6.19062,-2.95313"
         id="text3177"
         inkscape:connector-curvature="0" /><path
         transform="scale(1.0181902,-0.9821348)"
         style="font-size:45.60830307px;font-style:normal;font-variant:normal;font-weight:normal;font-stretch:normal;text-align:start;line-height:100%;writing-mode:lr-tb;text-anchor:start;fill:#000000;fill-opacity:1;stroke:#004cff;stroke-width:0.2443302;stroke-miterlimit:4;stroke-opacity:1;font-family:HandelGotDBol;-inkscape-font-specification:HandelGotDBol"
         d="m 326.93674,-674.4148 -9.68731,0 0,-5.41153 26.21141,0 0,5.41153 -10.06589,0 0,24.98658 -6.45821,0 0,-24.98658 m 42.64644,-5.41153 0,5.41153 -8.44021,0 c -2.21214,2e-5 -3.82298,0.15591 -4.83252,0.46766 -0.99473,0.29695 -1.82613,0.88339 -2.49421,1.75931 -0.4454,0.59388 -0.74975,1.19516 -0.91305,1.80384 -0.16332,0.60872 -0.30436,1.64797 -0.42313,3.11775 l 17.10312,0 0,5.41154 -17.10312,0 c 0.22269,2.62783 0.98728,4.45394 2.29378,5.47834 1.30648,1.02441 3.52602,1.53661 6.65863,1.53661 l 8.15071,0 0,5.41153 -8.44021,0 c -2.28637,0 -4.29806,-0.14104 -6.03508,-0.42313 -2.73176,-0.44539 -4.90676,-1.64053 -6.52502,-3.58541 -2.3012,-2.79113 -3.4518,-6.57697 -3.4518,-11.35754 0,-5.30016 1.62568,-9.42005 4.87706,-12.35967 1.11348,-0.99469 2.30119,-1.68505 3.56315,-2.07108 1.26193,-0.40083 2.95443,-0.60125 5.07748,-0.60128 l 10.93442,0 m 28.26022,24.98658 0,5.41153 -10.60037,0 c -2.01913,0 -3.56316,-0.10393 -4.63209,-0.31178 -3.72647,-0.72747 -6.37656,-2.8134 -7.95028,-6.25778 -1.03925,-2.30119 -1.55887,-5.15171 -1.55887,-8.55155 0,-4.08276 0.79428,-7.40836 2.38285,-9.97682 1.14317,-1.84093 2.67236,-3.18454 4.58756,-4.03081 1.93003,-0.84622 4.42423,-1.26934 7.48261,-1.26937 l 10.28859,0 0,5.41153 -9.55369,0 c -2.89507,2e-5 -5.01811,0.77204 -6.36913,2.31604 -1.11349,1.27682 -1.67023,3.59286 -1.67023,6.94814 0,4.48364 0.86851,7.43066 2.60556,8.84107 1.21739,0.97987 3.11031,1.4698 5.67877,1.4698 l 9.30872,0 m 10.77852,-16.88042 0,22.29195 -6.1687,0 0,-30.39811 8.28432,0 12.09244,22.64826 0,-22.64826 6.1687,0 0,30.39811 -7.97255,0 -12.40421,-22.29195 m 26.61227,22.29195 0,-30.39811 6.45821,0 0,30.39811 -6.45821,0 m 9.70958,0 12.58237,-30.39811 7.46034,0 12.58237,30.39811 -7.59396,0 -2.9396,-7.03722 -11.55796,0 -2.9396,7.03722 -7.59396,0 m 16.32367,-23.09366 -4.34259,10.64491 8.66291,0 -4.32032,-10.64491"
         id="text3183"
         inkscape:connector-curvature="0" /></g></g></svg>