<?xml version="1.0" encoding="UTF-8" standalone="no"?>
<!-- Created with Inkscape (http://www.inkscape.org/) -->

<svg
   xmlns:dc="http://purl.org/dc/elements/1.1/"
   xmlns:cc="http://creativecommons.org/ns#"
   xmlns:rdf="http://www.w3.org/1999/02/22-rdf-syntax-ns#"
   xmlns:svg="http://www.w3.org/2000/svg"
   xmlns="http://www.w3.org/2000/svg"
   xmlns:sodipodi="http://sodipodi.sourceforge.net/DTD/sodipodi-0.dtd"
   xmlns:inkscape="http://www.inkscape.org/namespaces/inkscape"
   id="svg2"
   version="1.1"
   inkscape:version="0.48.5 r10040"
   xml:space="preserve"
   width="1057.064"
   height="529.06396"
   viewBox="0 0 1057.064 529.06397"
   sodipodi:docname="kreitek.svg"
   inkscape:export-filename="C:\Users\Tor\Desktop\Circuit-board-logo\kreitek-logo-new-sinfondo.png"
   inkscape:export-xdpi="90"
   inkscape:export-ydpi="90"><metadata
     id="metadata8"><rdf:RDF><cc:Work
         rdf:about=""><dc:format>image/svg+xml</dc:format><dc:type
           rdf:resource="http://purl.org/dc/dcmitype/StillImage" /><dc:title /></cc:Work></rdf:RDF></metadata><defs
     id="defs6"><clipPath
       clipPathUnits="userSpaceOnUse"
       id="clipPath18"><path
         d="m 0,3753.87 0,0 0,4246.13 3515.2,0 0,-1941.87 -951.91,0 c -219.15,0 -396.82,-177.66 -396.82,-396.82 l 0,-1415.19 -2166.47,0 0,-492.25"
         id="path20"
         inkscape:connector-curvature="0" /></clipPath><clipPath
       clipPathUnits="userSpaceOnUse"
       id="clipPath30"><path
         d="m 8000,4246.14 -1858.75,0 0,1415.17 0,0 c 0,219.16 -177.66,396.82 -396.82,396.82 l -1259.63,0 0,1941.87 -969.6,0 0,0 4484.8,0 0,-3753.86"
         id="path32"
         inkscape:connector-curvature="0" /></clipPath><clipPath
       clipPathUnits="userSpaceOnUse"
       id="clipPath42"><path
         d="m 4484.8,6058.13 -969.6,0 0,1941.87 969.6,0 0,-1941.87"
         id="path44"
         inkscape:connector-curvature="0" /></clipPath><clipPath
       clipPathUnits="userSpaceOnUse"
       id="clipPath54"><path
         d="M 3515.2,0 0,0 l 0,3753.87 2166.47,0 0,-1273.7 0,0 c 0,-219.14 177.67,-396.83 396.82,-396.83 l 951.91,0 0,-199.08 C 1895.36,1858.6 667.855,1736.27 667.855,1589.22 c 0,-147.04 1227.505,-269.37 2847.345,-295.03 L 3515.2,0"
         id="path56"
         inkscape:connector-curvature="0" /></clipPath><clipPath
       clipPathUnits="userSpaceOnUse"
       id="clipPath66"><path
         d="m 0,3753.87 2166.47,0 0,492.25 -2166.47,0 0,-492.25 z"
         id="path68"
         inkscape:connector-curvature="0" /></clipPath><clipPath
       clipPathUnits="userSpaceOnUse"
       id="clipPath78"><path
         d="m 8000,0 -4484.8,0 969.58,0 0,1290.62 c 1764.2,14.6 3143.77,142.71 3143.77,298.6 0,155.89 -1379.57,284.01 -3143.77,298.6 l 0,195.52 1259.65,0 c 219.16,0 396.82,177.69 396.82,396.83 l 0,1273.69 1858.75,0 0,492.28 L 8000,0"
         id="path80"
         inkscape:connector-curvature="0" /></clipPath><clipPath
       clipPathUnits="userSpaceOnUse"
       id="clipPath90"><path
         d="m 6141.25,3753.86 1858.75,0 0,492.281 -1858.75,0 0,-492.281 z"
         id="path92"
         inkscape:connector-curvature="0" /></clipPath><clipPath
       clipPathUnits="userSpaceOnUse"
       id="clipPath102"><path
         d="m 4484.78,0 -969.58,0 0,1294.19 c 205.31,-3.25 416.79,-4.95 633,-4.95 113.57,0 225.8,0.47 336.58,1.38 L 4484.78,0 m -969.58,1884.26 0,199.08 969.58,0 0,-195.52 c -110.78,0.92 -223.01,1.39 -336.58,1.39 -216.21,0 -427.69,-1.7 -633,-4.95"
         id="path104"
         inkscape:connector-curvature="0" /></clipPath><clipPath
       clipPathUnits="userSpaceOnUse"
       id="clipPath178"><path
         d="m 5744.43,2083.34 -1259.65,0 -969.58,0 -951.91,0 c -219.15,0 -396.82,177.69 -396.82,396.83 l 0,3181.14 c 0,219.16 177.67,396.82 396.82,396.82 l 3181.14,0 c 219.16,0 396.82,-177.66 396.82,-396.82 l 0,-1415.17 0,-492.28 0,-1273.69 c 0,-219.14 -177.66,-396.83 -396.82,-396.83"
         id="path180"
         inkscape:connector-curvature="0" /></clipPath><clipPath
       clipPathUnits="userSpaceOnUse"
       id="clipPath214"><path
         d="m 3515.2,1294.19 c -1619.84,25.66 -2847.345,147.99 -2847.345,295.03 0,147.05 1227.505,269.38 2847.345,295.04 l 0,-590.07"
         id="path216"
         inkscape:connector-curvature="0" /></clipPath><clipPath
       clipPathUnits="userSpaceOnUse"
       id="clipPath226"><path
         d="m 4484.78,1290.62 0,597.2 c 1764.2,-14.59 3143.77,-142.71 3143.77,-298.6 0,-155.89 -1379.57,-284 -3143.77,-298.6"
         id="path228"
         inkscape:connector-curvature="0" /></clipPath><clipPath
       clipPathUnits="userSpaceOnUse"
       id="clipPath238"><path
         d="m 4148.2,1289.24 c -216.21,0 -427.69,1.7 -633,4.95 l 0,590.07 c 205.31,3.25 416.79,4.95 633,4.95 113.57,0 225.8,-0.47 336.58,-1.39 l 0,-597.2 c -110.78,-0.91 -223.01,-1.38 -336.58,-1.38"
         id="path240"
         inkscape:connector-curvature="0" /></clipPath><clipPath
       id="clipPath18-1"
       clipPathUnits="userSpaceOnUse"><path
         inkscape:connector-curvature="0"
         id="path20-4"
         d="m 0,3753.87 0,0 0,4246.13 3515.2,0 0,-1941.87 -951.91,0 c -219.15,0 -396.82,-177.66 -396.82,-396.82 l 0,-1415.19 -2166.47,0 0,-492.25" /></clipPath><clipPath
       id="clipPath30-1"
       clipPathUnits="userSpaceOnUse"><path
         inkscape:connector-curvature="0"
         id="path32-4"
         d="m 8000,4246.14 -1858.75,0 0,1415.17 0,0 c 0,219.16 -177.66,396.82 -396.82,396.82 l -1259.63,0 0,1941.87 -969.6,0 0,0 4484.8,0 0,-3753.86" /></clipPath><clipPath
       id="clipPath42-6"
       clipPathUnits="userSpaceOnUse"><path
         inkscape:connector-curvature="0"
         id="path44-4"
         d="m 4484.8,6058.13 -969.6,0 0,1941.87 969.6,0 0,-1941.87" /></clipPath><clipPath
       id="clipPath54-8"
       clipPathUnits="userSpaceOnUse"><path
         inkscape:connector-curvature="0"
         id="path56-8"
         d="M 3515.2,0 0,0 l 0,3753.87 2166.47,0 0,-1273.7 0,0 c 0,-219.14 177.67,-396.83 396.82,-396.83 l 951.91,0 0,-199.08 C 1895.36,1858.6 667.855,1736.27 667.855,1589.22 c 0,-147.04 1227.505,-269.37 2847.345,-295.03 L 3515.2,0" /></clipPath><clipPath
       id="clipPath66-8"
       clipPathUnits="userSpaceOnUse"><path
         inkscape:connector-curvature="0"
         id="path68-3"
         d="m 0,3753.87 2166.47,0 0,492.25 -2166.47,0 0,-492.25 z" /></clipPath><clipPath
       id="clipPath78-9"
       clipPathUnits="userSpaceOnUse"><path
         inkscape:connector-curvature="0"
         id="path80-9"
         d="m 8000,0 -4484.8,0 969.58,0 0,1290.62 c 1764.2,14.6 3143.77,142.71 3143.77,298.6 0,155.89 -1379.57,284.01 -3143.77,298.6 l 0,195.52 1259.65,0 c 219.16,0 396.82,177.69 396.82,396.83 l 0,1273.69 1858.75,0 0,492.28 L 8000,0" /></clipPath><clipPath
       id="clipPath90-2"
       clipPathUnits="userSpaceOnUse"><path
         inkscape:connector-curvature="0"
         id="path92-1"
         d="m 6141.25,3753.86 1858.75,0 0,492.281 -1858.75,0 0,-492.281 z" /></clipPath><clipPath
       id="clipPath102-4"
       clipPathUnits="userSpaceOnUse"><path
         inkscape:connector-curvature="0"
         id="path104-2"
         d="m 4484.78,0 -969.58,0 0,1294.19 c 205.31,-3.25 416.79,-4.95 633,-4.95 113.57,0 225.8,0.47 336.58,1.38 L 4484.78,0 m -969.58,1884.26 0,199.08 969.58,0 0,-195.52 c -110.78,0.92 -223.01,1.39 -336.58,1.39 -216.21,0 -427.69,-1.7 -633,-4.95" /></clipPath><clipPath
       id="clipPath178-4"
       clipPathUnits="userSpaceOnUse"><path
         inkscape:connector-curvature="0"
         id="path180-7"
         d="m 5744.43,2083.34 -1259.65,0 -969.58,0 -951.91,0 c -219.15,0 -396.82,177.69 -396.82,396.83 l 0,3181.14 c 0,219.16 177.67,396.82 396.82,396.82 l 3181.14,0 c 219.16,0 396.82,-177.66 396.82,-396.82 l 0,-1415.17 0,-492.28 0,-1273.69 c 0,-219.14 -177.66,-396.83 -396.82,-396.83" /></clipPath><clipPath
       id="clipPath214-1"
       clipPathUnits="userSpaceOnUse"><path
         inkscape:connector-curvature="0"
         id="path216-4"
         d="m 3515.2,1294.19 c -1619.84,25.66 -2847.345,147.99 -2847.345,295.03 0,147.05 1227.505,269.38 2847.345,295.04 l 0,-590.07" /></clipPath><clipPath
       id="clipPath226-6"
       clipPathUnits="userSpaceOnUse"><path
         inkscape:connector-curvature="0"
         id="path228-1"
         d="m 4484.78,1290.62 0,597.2 c 1764.2,-14.59 3143.77,-142.71 3143.77,-298.6 0,-155.89 -1379.57,-284 -3143.77,-298.6" /></clipPath><clipPath
       id="clipPath238-0"
       clipPathUnits="userSpaceOnUse"><path
         inkscape:connector-curvature="0"
         id="path240-7"
         d="m 4148.2,1289.24 c -216.21,0 -427.69,1.7 -633,4.95 l 0,590.07 c 205.31,3.25 416.79,4.95 633,4.95 113.57,0 225.8,-0.47 336.58,-1.39 l 0,-597.2 c -110.78,-0.91 -223.01,-1.38 -336.58,-1.38" /></clipPath></defs><sodipodi:namedview
     pagecolor="#ffffff"
     bordercolor="#666666"
     borderopacity="1"
     objecttolerance="10"
     gridtolerance="10"
     guidetolerance="10"
     inkscape:pageopacity="0"
     inkscape:pageshadow="2"
     inkscape:window-width="1436"
     inkscape:window-height="861"
     id="namedview4"
     showgrid="false"
     inkscape:zoom="0.45254834"
     inkscape:cx="-354.29106"
     inkscape:cy="10.896006"
     inkscape:window-x="1366"
     inkscape:window-y="18"
     inkscape:window-maximized="0"
     inkscape:current-layer="g10"
     showguides="true"
     inkscape:guide-bbox="true"
     fit-margin-top="0"
     fit-margin-left="264"
     fit-margin-right="264"
     fit-margin-bottom="0"
     inkscape:showpageshadow="false"
     showborder="true"><sodipodi:guide
       position="-1073.5771,225.098"
       orientation="0,1"
       id="guide4343" /><sodipodi:guide
       position="-1055.6364,315.03548"
       orientation="0,1"
       id="guide4360" /><sodipodi:guide
       position="-1090.755,413.5609"
       orientation="0,1"
       id="guide4411" /><sodipodi:guide
       position="-977.75503,210.5609"
       orientation="0,1"
       id="guide4413" /><sodipodi:guide
       position="-1068.755,299.5609"
       orientation="0,1"
       id="guide4415" /></sodipodi:namedview><g
     id="g10"
     inkscape:groupmode="layer"
     inkscape:label="ink_ext_XXXXXX"
     transform="matrix(1.25,0,0,-1.25,-1236.2598,733.14685)"><flowRoot
       xml:space="preserve"
       id="flowRoot3572-9"
       style="font-size:40px;font-style:normal;font-weight:normal;line-height:125%;letter-spacing:0px;word-spacing:0px;fill:#000000;fill-opacity:1;stroke:none;font-family:sans-serif"
       transform="translate(1722.0844,-38.191555)"><flowRegion
         id="flowRegion3574-4"><rect
           id="rect3576-2"
           width="430.70593"
           height="78.65065"
           x="300.37057"
           y="399.25885" /></flowRegion><flowPara
         id="flowPara3578-4" /></flowRoot><path
       style="fill:#1f545d;fill-opacity:1;fill-rule:nonzero;stroke:none"
       d="m 1358.5146,570.85257 -0.1938,-37.25625 -29.9297,-0.0953 -0.02,5.4375 c -0.019,5.25216 -4.4618,9.51111 -9.9031,9.49376 l -20.4953,-0.0656 c -5.4413,-0.0174 -9.852,-4.3041 -9.8328,-9.55625 l 0.072,-19.78281 c 0.019,-5.25216 4.4618,-9.51109 9.9031,-9.49375 l 20.4953,0.0656 c 5.4413,0.0174 9.852,4.30409 9.8328,9.55625 l -0.019,5.02813 34.7578,0.11093 c 2.6655,0.008 4.7982,2.10088 4.8094,4.675 l 0.1813,41.88282 -9.6578,0 z m 16.9406,0 0.1781,-95.08126 -19.2297,-0.0609 c -0.1878,-5.6e-4 -0.3725,-0.0137 -0.5547,-0.0344 l -0.017,4.90626 c -0.019,5.25217 -4.4618,9.50953 -9.9031,9.49218 l -20.4953,-0.0641 c -5.4413,-0.0174 -9.8536,-4.30564 -9.8344,-9.55781 l 0.073,-19.78282 c 0.019,-5.25215 4.4618,-9.51109 9.9032,-9.49375 l 20.4953,0.0656 c 5.4413,0.0174 9.852,4.3041 9.8328,9.55625 l -0.02,5.62656 c 0.1822,-0.0196 0.3669,-0.0319 0.5547,-0.0312 l 24.0546,0.0766 c 2.6662,0.008 4.8144,2.09995 4.8094,4.67344 l -0.1953,99.70938 -9.6516,0 z m 17.5203,0 0.5016,-127.95782 -149.6551,-0.38446 c -2.6648,-0.008 -4.8198,-1.98276 -4.8109,-4.40938 0.01,-2.4266 2.1789,-4.385 4.8438,-4.37812 l 154.48,0.39852 c 2.6661,0.008 4.8204,1.98277 4.8109,4.40938 l -0.5172,132.32188 z m 25.1578,0 0.3219,-130.64219 c 0.01,-2.42661 2.2482,-4.38612 5.0047,-4.37812 l 153.5953,0.48905 c 2.7551,0.009 4.984,1.98278 4.975,4.40938 -0.01,2.4266 -2.2512,4.38613 -5.0063,4.37813 l -148.6062,-0.47344 -0.3063,126.21719 z m 18.1328,0 0.3938,-97.91563 c 0.01,-2.57348 2.2498,-4.65019 5.0062,-4.64219 l 24.8688,0.0797 c 0.195,6.2e-4 0.3858,0.0135 0.575,0.0344 l 0.02,-5.62656 c 0.019,-5.25216 4.6119,-9.51009 10.2375,-9.4922 l 21.189,0.0672 c 5.6257,0.0179 10.1864,4.30564 10.1672,9.5578 l -0.072,19.78438 c -0.019,5.25218 -4.6119,9.51009 -10.2375,9.49219 l -21.189,-0.0672 c -5.6256,-0.0179 -10.1864,-4.30563 -10.1672,-9.55781 l 0.017,-4.90625 c -0.1883,0.0196 -0.3794,0.0318 -0.5734,0.0312 l -19.8813,-0.0641 -0.375,93.22501 -9.9797,0 z m 17.6782,0 0.1828,-39.97813 c 0.012,-2.57412 2.2505,-4.65175 5.0062,-4.64374 l 35.9344,0.11406 0.019,-5.02812 c 0.019,-5.25216 4.6103,-9.51009 10.2359,-9.49219 l 21.1907,0.0672 c 5.6256,0.0179 10.1863,4.30565 10.1671,9.55781 l -0.072,19.78283 c -0.019,5.25214 -4.6119,9.51164 -10.2375,9.49374 l -21.189,-0.0687 c -5.6256,-0.0179 -10.188,-4.30566 -10.1688,-9.55782 l 0.02,-5.4375 -30.9437,-0.0984 -0.1656,35.28907 -9.9797,0 z m 72.2312,-29.86875 0.07,-19.35155 -20.7281,-0.0672 -0.07,19.35313 20.7281,0.0656 z m -207.8953,-2.29219 0.07,-19.35313 -20.0485,-0.0641 -0.07,19.35313 z m 179.9391,-56.24219 0.072,-19.35156 -20.7282,-0.0656 -0.072,19.35156 20.7282,0.0656 z m -152.4782,-2.11562 0.07,-19.35156 -20.0484,-0.0641 -0.072,19.35156 20.05,0.0641 z"
       id="path192-0-4-6-3"
       inkscape:connector-curvature="0"
       sodipodi:nodetypes="cccccscccscccccccccccccccccsccccscccccccscscccsccsccccccccccscccccccccccccccccccccccccccccccccccccccccccccccccccc" /><path
       style="fill:#1f545d;fill-opacity:1;fill-rule:nonzero;stroke:none"
       d="m 1576.8276,317.51004 -154.3352,-0.89508 c -2.6661,-0.0165 -4.8134,-1.99723 -4.7962,-4.42379 l 0.9837,-138.62751 9.6515,-0.009 -0.9532,134.30404 149.5086,0.86356 c 2.6648,0.0165 4.8129,1.9972 4.7962,4.42377 -0.017,2.42656 -2.1906,4.38076 -4.8554,4.36376 z m -179.454,-2.68482 -153.5931,-0.97946 c -2.755,-0.0176 -4.977,-1.99862 -4.9603,-4.42519 0.017,-2.42655 2.2645,-4.37917 5.0195,-4.36237 l 148.6041,0.94648 0.7424,-132.4179 9.9796,-0.009 -0.7727,136.88513 c -0.014,2.42657 -2.2631,4.37918 -5.0195,4.36237 z m 97.9333,-15.03258 -20.4954,-0.13141 c -5.4413,-0.0348 -9.8384,-4.33436 -9.8025,-9.58642 l 0.039,-5.62659 c -0.1823,0.019 -0.3669,0.0298 -0.5546,0.0286 l -24.0549,-0.15318 c -2.6661,-0.0165 -4.8081,-2.11596 -4.7949,-4.68942 l 0.5393,-104.88334 c 0,-0.41749 0.068,-0.81901 0.177,-1.20328 l 9.2953,-0.008 c 0.1164,0.40551 0.1816,0.8318 0.1793,1.27327 l -0.506,100.2255 19.2283,0.12319 c 0.1878,8.3e-4 0.3726,0.0158 0.5547,0.037 l 0.033,-4.90784 c 0.036,-5.2521 4.4924,-9.49528 9.9336,-9.46059 l 20.4954,0.12986 c 5.4413,0.0348 9.8385,4.3359 9.8025,9.58798 l -0.1352,19.78295 c -0.036,5.25205 -4.4924,9.49682 -9.9336,9.46213 z m -151.7852,-2.59827 -21.1892,-0.13547 c -5.6255,-0.0359 -10.1728,-4.33718 -10.1368,-9.58925 l 0.1351,-19.78294 c 0.036,-5.2521 4.6425,-9.49511 10.268,-9.45931 l 21.1892,0.13391 c 5.6255,0.0358 10.1728,4.3387 10.1369,9.5908 l -0.033,4.90472 c 0.1884,-0.019 0.3795,-0.0298 0.5735,-0.0286 l 19.8798,0.12728 0.7149,-98.95382 c 9e-4,-0.13445 0.012,-0.26699 0.025,-0.39845 l 9.9328,-0.009 c 0.016,0.15522 0.023,0.31263 0.022,0.47185 l -0.7466,103.61166 c -0.019,2.57344 -2.266,4.64323 -5.0224,4.62644 l -24.8689,-0.15871 c -0.1945,-8.2e-4 -0.3849,-0.0156 -0.5735,-0.037 l -0.039,5.6266 c -0.036,5.25208 -4.6425,9.49513 -10.268,9.45932 z m 151.6295,-7.14376 0.1324,-19.3517 -20.0501,-0.12713 -0.1324,19.35168 z m -151.7931,-2.59828 0.1325,-19.35169 -20.7282,-0.1312 -0.1325,19.35169 z m 179.596,-45.92851 -20.4955,-0.13142 c -5.4412,-0.0348 -9.8383,-4.33592 -9.8024,-9.58799 l 0.035,-5.02815 -34.7565,-0.22161 c -2.6654,-0.0165 -4.7919,-2.11682 -4.7949,-4.69097 l -0.056,-48.33122 9.6531,-0.009 0.088,43.74368 29.9299,0.1916 0.037,-5.43752 c 0.036,-5.25207 4.4908,-9.49684 9.9321,-9.46214 l 20.4954,0.13141 c 5.4412,0.0348 9.84,4.33593 9.804,9.58799 l -0.1367,19.78294 c -0.036,5.25207 -4.4908,9.49682 -9.9321,9.46215 z m -207.2012,-2.95117 -21.1892,-0.13547 c -5.6255,-0.0359 -10.1728,-4.33873 -10.1368,-9.59081 l 0.1351,-19.78294 c 0.036,-5.25206 4.6425,-9.49511 10.268,-9.45931 l 21.1892,0.13547 c 5.6255,0.0359 10.1728,4.33718 10.1368,9.58925 l -0.037,5.43754 30.9424,0.19692 0.3266,-41.34405 9.9797,-0.009 -0.3582,46.07534 c -0.02,2.57407 -2.2651,4.64323 -5.0208,4.62643 l -35.9331,-0.22835 -0.035,5.02816 c -0.036,5.25208 -4.6424,9.49668 -10.268,9.46088 z m 207.0439,-6.79091 0.1324,-19.35167 -20.0485,-0.12869 -0.1325,19.35169 z m -207.2074,-2.95114 0.1324,-19.35169 -20.7283,-0.13275 -0.1324,19.35169 z"
       id="path192-0-4-3-2-5"
       inkscape:connector-curvature="0"
       sodipodi:nodetypes="ccsccccccccccccccsccccccccscccscccccccsccccssccccccccccccccccccccccccccccccccscccccccccccccssccccccccccccccccccccccc" /><path
       style="font-size:43.49608994px;font-style:normal;font-weight:normal;line-height:125%;letter-spacing:0px;word-spacing:0px;fill:#1f545d;fill-opacity:1;stroke:none;font-family:sans-serif"
       d="m 1274.5906,408.61088 c -0.4076,-0.0157 -0.7941,-0.1847 -1.0824,-0.47321 0.1737,0.17368 -0.1817,-0.16114 -0.571,-0.496 -0.3892,-0.33487 -0.9539,-0.81643 -1.6924,-1.44486 -1.479,-1.25395 -3.4555,-3.02602 -5.9505,-5.33146 -2.5089,-2.31837 -5.0943,-4.83954 -7.7552,-7.56389 l -0.01,-0.007 c -3.5516,-3.68885 -6.4426,-7.06646 -9.0202,-10.29966 l 0,23.90442 c -7e-4,0.89259 -0.7242,1.61599 -1.6167,1.6167 l -7.4597,0 c -0.8929,-2.7e-4 -1.6168,-0.7238 -1.6175,-1.6167 l 0,-61.98372 c 7e-4,-0.89289 0.7246,-1.61643 1.6175,-1.6167 l 7.4597,0 c 0.8925,7.1e-4 1.616,0.72411 1.6167,1.6167 l 0,20.17908 c 0.7096,1.60197 2.0719,3.62102 3.8759,5.88123 2.9935,-3.06877 6.7605,-7.43128 11.5483,-13.55508 l 0.01,-0.008 c 5.4172,-6.85743 8.6456,-11.63861 9.5016,-13.6878 0.3741,-0.89593 1.4475,-1.2629 2.2919,-0.78351 l 6.3267,3.58689 c 0.6943,0.39389 0.9977,1.23528 0.7143,1.98158 -1.2812,3.368 -4.8267,8.42057 -10.7745,15.82416 l 0,0.005 c -5.3875,6.77019 -9.6112,11.62537 -12.9874,15.04309 2.2421,2.63396 5.178,5.86887 9.3907,10.19542 4.645,4.76969 8.8037,8.47279 12.4393,11.10028 0.8198,0.59223 0.9014,1.78306 0.1701,2.48167 l -5.241,5.00322 c -0.3162,0.30223 -0.7414,0.46354 -1.1786,0.44715 l -0.01,6.9e-4 z m 300.2484,0 c -0.4075,-0.0157 -0.7941,-0.1847 -1.0824,-0.47321 0.1794,0.17945 -0.1809,-0.16096 -0.5709,-0.496 -0.39,-0.33504 -0.9554,-0.81619 -1.6941,-1.44486 -1.4789,-1.2539 -3.4563,-3.02599 -5.9512,-5.33146 -2.509,-2.3184 -5.0936,-4.83954 -7.7545,-7.56389 l -0.01,-0.007 c -3.5514,-3.68885 -6.4434,-7.06646 -9.021,-10.29966 l 0,23.90442 c -7e-4,0.89256 -0.7242,1.61595 -1.6167,1.6167 l -7.4596,0 c -0.8932,1.6e-4 -1.6177,-0.7235 -1.6184,-1.6167 l 0,-61.98372 c 7e-4,-0.8932 0.7252,-1.61685 1.6184,-1.6167 l 7.4596,0 c 0.8925,7.5e-4 1.616,0.72414 1.6167,1.6167 l 0,20.17908 c 0.7095,1.60195 2.0729,3.621 3.8767,5.88123 2.9937,-3.06877 6.7606,-7.43128 11.5483,-13.55508 l 0.01,-0.008 c 5.4171,-6.85745 8.6447,-11.63863 9.5007,-13.68782 0.3742,-0.89638 1.4481,-1.26342 2.2927,-0.78351 l 6.3267,3.58689 c 0.6941,0.39414 0.997,1.23548 0.7135,1.98158 -1.2813,3.36802 -4.8259,8.42059 -10.7737,15.82418 l 0,0.005 c -5.3875,6.77019 -9.6119,11.62537 -12.9882,15.04309 2.2422,2.63396 5.1788,5.86887 9.3915,10.19542 4.645,4.76969 8.8035,8.47279 12.4393,11.10028 0.8197,0.59248 0.9009,1.7833 0.1694,2.48167 l -5.2386,5.00322 c -0.3163,0.30223 -0.7414,0.46354 -1.1785,0.44715 l -0.01,6.9e-4 z m -276.541,-0.32987 c -2.0531,-4.1e-4 -5.4834,-0.24073 -10.4398,-0.71428 -0.8712,-0.083 -1.5186,-0.84361 -1.4612,-1.71688 0.1544,-2.34652 0.2338,-5.06873 0.2338,-8.15683 l 0,-52.54248 c 7e-4,-0.89351 0.7256,-1.61729 1.6191,-1.6167 l 7.4573,0 c 0.8944,-5.9e-4 1.6197,0.72469 1.619,1.61915 l -0.045,24.89236 c 3.23,-0.52158 6.0822,-0.95336 8.0696,-1.17689 6.5173,-10.93515 11.2671,-18.12775 14.4307,-21.59951 0.9553,-1.16253 2.0963,-2.18072 3.4093,-3.04445 l 0.017,-0.0113 c 1.4006,-0.89787 2.9033,-1.47894 4.4665,-1.70221 0.7183,-0.10262 1.4172,0.28556 1.7096,0.94966 l 2.7846,6.32509 c 0.4036,0.91757 -0.1157,1.97758 -1.0881,2.22104 -0.2671,0.0668 -0.5414,0.16326 -0.8202,0.27528 -0.2557,0.14325 -0.5162,0.30342 -0.7819,0.496 0,0.002 -0.01,0.003 -0.01,0.005 -0.258,0.20567 -0.4861,0.38017 -0.7004,0.53673 -0.2071,0.20347 -0.4367,0.41943 -0.7274,0.6809 -0.2831,0.25497 -0.4487,0.41249 -0.4609,0.4227 -0.4643,0.55367 -1.0214,1.25365 -1.6713,2.10945 l -0.011,0.0147 c 0,0.005 -0.01,0.008 -0.01,0.0138 -0.6369,0.88022 -1.4508,2.06055 -2.4379,3.54046 l -0.01,0.0138 c -0.9914,1.51831 -1.7496,2.67803 -2.282,3.4924 l -0.024,0.035 c -2e-4,3.1e-4 3e-4,0.002 0,0.002 -0.5166,0.83888 -1.4161,2.26398 -2.7284,4.32642 -0.6083,0.95593 -0.6836,1.0688 -1.0498,1.64195 3.54,0.99063 6.4469,2.78733 8.4532,5.47969 2.4347,3.26712 3.5658,7.64293 3.5658,12.97029 0,2.12088 -0.4021,4.23893 -1.1867,6.32265 -0.7769,2.09432 -1.805,3.95316 -3.0893,5.54974 l -0.01,0.01 c -1.2224,1.49405 -2.6129,2.76657 -4.1603,3.80108 -1.4761,1.03802 -2.9902,1.85697 -4.5382,2.44257 -1.5683,0.62511 -3.3921,1.07024 -5.4894,1.36585 -2.0603,0.32138 -4.0177,0.51487 -5.8756,0.58072 -1.8017,0.0962 -4.0363,0.14488 -6.7217,0.14496 l -0.01,0 z m 108.6807,-0.0488 c -5.5825,0 -10.8349,-0.0602 -15.7607,-0.18652 -0.9014,-0.0229 -1.6103,-0.77826 -1.5759,-1.67942 l 0.2818,-7.26988 c 0.035,-0.90388 0.804,-1.60363 1.7072,-1.55317 1.9161,0.10646 5.9544,0.19794 10.7573,0.28344 l 0,-43.9312 -1.9237,0 c -2.7377,0 -5.7854,-0.0771 -9.1424,-0.23538 -0.8631,-0.0407 -1.542,-0.75255 -1.5418,-1.6167 l 0,-7.03368 c 8e-4,-0.89355 0.7257,-1.61734 1.6193,-1.61671 2.7876,0 5.8696,0.0461 9.2498,0.14091 l 0.016,0 c 3.3626,0.1257 5.4977,0.18895 6.2673,0.18895 l 3.8702,0 c 0.01,-10e-5 0.021,-10e-5 0.031,0 1.6,0.0314 2.7459,0.0464 3.4151,0.0464 3.3691,0 6.6422,-0.0949 9.8191,-0.28179 0.9286,-0.0535 1.7111,0.68494 1.7112,1.61507 l 0,7.08092 c -1e-4,0.85636 -0.6673,1.56437 -1.5223,1.61507 -2.2052,0.12785 -4.5024,0.19141 -6.8919,0.19141 -0.8262,0 -1.837,-0.0154 -3.0216,-0.0464 l -1.1696,0 0,43.93363 c 1.21,-0.0187 2.3742,-0.0335 4.1293,-0.10099 l 0.022,0 c 2.4976,-0.0632 4.7758,-0.0945 6.8383,-0.0945 0.8929,7.5e-4 1.6163,0.72462 1.6166,1.61751 l 0,7.17541 c -6e-4,0.88532 -0.7127,1.60573 -1.5979,1.61669 -7.7141,0.0944 -13.4445,0.14092 -17.2031,0.14092 l -7e-4,0 z m 65.0535,-0.14091 c -3.2153,0 -9.62,-0.014 -19.2198,-0.0456 l -16.8486,0 c -0.8929,-7e-4 -1.6165,-0.72461 -1.6168,-1.61752 l 0,-7.31875 c 7e-4,-0.89259 0.7242,-1.616 1.6168,-1.6167 l 6.4211,0 0.014,0 c 3.0438,0.0267 6.0878,0.0365 9.1309,0.0407 l 0,-52.80718 c 8e-4,-0.89325 0.7252,-1.61692 1.6185,-1.61671 l 7.5541,0 c 0.8928,3.2e-4 1.6167,0.72384 1.6174,1.61671 l 0,52.81451 9.4778,0 c 1.4439,0 3.1076,-0.17603 4.9797,-0.53836 0.8626,-0.16621 1.7002,0.38617 1.8871,1.24449 l 1.5572,7.1762 c 0.1962,0.90296 -0.4023,1.78653 -1.3137,1.93925 -2.8803,0.48005 -5.1393,0.72893 -6.8747,0.72893 l -8e-4,0 z m -123.5488,-0.0937 0,-7e-4 c -4.6726,0 -7.8826,-0.0599 -9.7459,-0.19302 -0.8458,-0.061 -1.5012,-0.76458 -1.5019,-1.61263 l 0,-61.18147 c 8e-4,-0.89287 0.7246,-1.61638 1.6176,-1.61671 l 32.1956,0 c 0.9087,0 1.7783,0.0485 2.6088,0.1523 0.8128,0.0977 1.446,0.19443 1.9588,0.31276 0.037,0.009 0.074,0.0193 0.1115,0.0309 0.395,0.12157 0.972,0.29235 1.7233,0.51148 0.764,0.22279 1.2835,0.38141 1.6152,0.49194 0.8277,0.27572 1.2878,1.15807 1.04,1.99461 l -2.0768,6.98726 c -0.2734,0.91916 -1.2817,1.4002 -2.1682,1.03436 l -0.737,-0.30542 c -0.4408,-0.15499 -1.1144,-0.34669 -1.9686,-0.55383 -0.8144,-0.16723 -1.5502,-0.24842 -2.2015,-0.24842 l -0.01,0 -23.1546,-0.0871 c 0,1.27028 0.014,3.14714 0.041,7.65674 l 0,0.01 c 0.063,5.42653 0.092,9.93361 0.093,13.59497 l 19.0615,0 c 0.8932,-1.6e-4 1.6175,0.7235 1.6184,1.6167 l 0,7.08173 c -8e-4,0.89321 -0.7252,1.61687 -1.6184,1.61671 l -19.06,0 0,12.25112 28.076,0 c 0.893,2.6e-4 1.6168,0.7238 1.6176,1.61669 l 0,7.08093 c -3e-4,0.89323 -0.7243,1.61724 -1.6176,1.61751 l -0.7541,0 c -0.8614,0 -3.2602,0.0143 -7.1485,0.0456 l -0.014,0 c -3.87,0.0628 -7.1337,0.0953 -9.7865,0.0953 l -5.1922,0 -4.627,0 z m 150.1238,0 0,-7e-4 c -4.6725,0 -7.884,-0.0599 -9.7474,-0.19302 -0.8456,-0.0613 -1.5005,-0.76486 -1.5011,-1.61263 l 0,-61.18147 c 7e-4,-0.89257 0.7241,-1.61595 1.6167,-1.61671 l 32.198,0 c 0.9085,0 1.7761,0.0485 2.6063,0.1523 0.8131,0.0977 1.4461,0.19443 1.9588,0.31276 0.037,0.009 0.074,0.0193 0.1116,0.0309 0.3951,0.12157 0.9721,0.29235 1.7234,0.51148 0.7631,0.22259 1.2831,0.38072 1.6166,0.49194 0.8279,0.27572 1.2879,1.15807 1.0402,1.99461 l -2.0785,6.98726 c -0.2735,0.91912 -1.2818,1.40015 -2.1681,1.03436 l -0.7372,-0.30542 c -0.4419,-0.15541 -1.1125,-0.34682 -1.9661,-0.55383 -0.8142,-0.16721 -1.5504,-0.24842 -2.2014,-0.24842 l -0.01,0 -23.1536,-0.0871 c 0,1.27132 0.012,3.14746 0.038,7.65674 l 0,0.01 c 0.063,5.42654 0.093,9.93362 0.094,13.59497 l 19.0601,0 c 0.8925,7.1e-4 1.616,0.72411 1.6168,1.61671 l 0,7.08173 c -8e-4,0.8926 -0.7243,1.616 -1.6168,1.61671 l -19.0576,0 0,12.25112 28.0761,0 c 0.8936,-6e-4 1.6184,0.72318 1.6191,1.61669 l 0,7.08093 c -2e-4,0.89383 -0.7252,1.6181 -1.6191,1.61751 l -0.7567,0 c -0.8614,0 -3.2602,0.0143 -7.1485,0.0456 l -0.014,0 c -3.8701,0.0629 -7.1319,0.0953 -9.785,0.0953 l -5.1938,0 -4.6254,0 z m -200.069,-10.17507 0,0 c 5.3415,0 9.4226,-0.36969 12.1232,-1.03762 l 0.015,-0.005 c 2.6842,-0.63496 4.569,-1.7221 5.8486,-3.21059 l 0.012,-0.0123 c 1.5551,-1.77355 2.2902,-3.73656 2.2902,-6.15651 0,-1.77153 -0.1998,-3.17053 -0.5302,-4.16189 -0.3214,-0.96391 -0.7968,-1.63212 -1.4799,-2.15587 -0.7982,-0.6119 -1.6662,-1.06895 -2.6258,-1.39111 -0.991,-0.30119 -2.3812,-0.5748 -4.1375,-0.78676 l -0.01,0 c -0.6885,-0.086 -1.3922,-0.13113 -2.1127,-0.13113 -1.0847,0 -2.1896,0.0745 -3.3133,0.22154 -1.162,0.18384 -2.691,0.46248 -4.5878,0.83563 -1.2963,0.2762 -1.9809,0.41524 -2.7619,0.57663 l -0.081,17.39281 c 0.4525,0.006 0.8609,0.0212 1.3488,0.0212 z"
       id="path4258-3"
       inkscape:connector-curvature="0"
       sodipodi:nodetypes="ccccccccccccccccccccccccccccccccccccccsccccccccccccccccccccccccccccccccscccccccccccccccccccccccccccccsscccccccccccccccccsccccccsccsccccscccccccccsccccccccccccccccsccccsccccccccsccccccccccscccccccccccccccsccscccccccccsccccccscccscccccccccccccccsccscccccccccscccccscccccc" /><rect
       style="fill:none;stroke:#1f545d;stroke-width:19.20000076;stroke-miterlimit:4;stroke-opacity:1;stroke-dasharray:none"
       id="rect4246"
       width="404.05118"
       height="404.05118"
       x="1209.8079"
       y="-576.91748"
       transform="scale(1,-1)"
       rx="46.339207"
       ry="42.163406" /></g></svg>