<?xml version="1.0" encoding="UTF-8" standalone="no"?>
<!-- Created with Inkscape (http://www.inkscape.org/) -->

<svg
   xmlns:dc="http://purl.org/dc/elements/1.1/"
   xmlns:cc="http://creativecommons.org/ns#"
   xmlns:rdf="http://www.w3.org/1999/02/22-rdf-syntax-ns#"
   xmlns:svg="http://www.w3.org/2000/svg"
   xmlns="http://www.w3.org/2000/svg"
   xmlns:sodipodi="http://sodipodi.sourceforge.net/DTD/sodipodi-0.dtd"
   xmlns:inkscape="http://www.inkscape.org/namespaces/inkscape"
   id="svg7302"
   version="1.1"
   inkscape:version="0.48.5 r10040"
   width="382.17535"
   height="191.16579"
   viewBox="0 0 382.17536 191.16579"
   sodipodi:docname="python_espana.svg">
  <metadata
     id="metadata7308">
    <rdf:RDF>
      <cc:Work
         rdf:about="">
        <dc:format>image/svg+xml</dc:format>
        <dc:type
           rdf:resource="http://purl.org/dc/dcmitype/StillImage" />
        <dc:title />
      </cc:Work>
    </rdf:RDF>
  </metadata>
  <defs
     id="defs7306" />
  <sodipodi:namedview
     pagecolor="#ffffff"
     bordercolor="#666666"
     borderopacity="1"
     objecttolerance="10"
     gridtolerance="10"
     guidetolerance="10"
     inkscape:pageopacity="0"
     inkscape:pageshadow="2"
     inkscape:window-width="1362"
     inkscape:window-height="728"
     id="namedview7304"
     showgrid="false"
     showguides="true"
     inkscape:guide-bbox="true"
     inkscape:zoom="0.47573668"
     inkscape:cx="-65.288723"
     inkscape:cy="111.91395"
     inkscape:window-x="0"
     inkscape:window-y="18"
     inkscape:window-maximized="0"
     inkscape:current-layer="svg7302"
     fit-margin-left="136"
     fit-margin-right="135.1"
     fit-margin-top="0"
     fit-margin-bottom="0">
    <sodipodi:guide
       position="135.56511,17.851499"
       orientation="1,0"
       id="guide4196" />
    <sodipodi:guide
       position="246.2975,10.419795"
       orientation="1,0"
       id="guide4198" />
  </sodipodi:namedview>
  <g
     id="g4200"
     transform="translate(128.87658,-28.408773)">
    <path
       sodipodi:nodetypes="csssscccccssssssccssccssscscccsccccc"
       inkscape:connector-curvature="0"
       id="path7312"
       d="m 20.617601,111.16719 c -2.633,-0.47565 -4.724585,-1.58201 -6.65756,-3.52155 -2.672479,-2.68156 -4.2295833,-6.0896 -5.4965873,-12.030419 -0.990911,-4.64625 -1.337146,-7.6103 -1.340021,-11.47168 -0.0029,-3.93089 0.400615,-7.14018 1.527474,-12.14769 1.084606,-4.81975 2.4038313,-7.46551 5.0470963,-10.12218 3.217881,-2.81431 6.258574,-4.62091 9.382592,-4.75851 l 39.499794,-0.0762 0,-3.46593 -26.804902,0 0.04985,-6.79 c 0.04755,-6.47622 0.06266,-6.8472 0.326992,-8.02811 0.739147,-3.30214 2.329232,-5.39365 5.235508,-6.8865 1.636121,-0.84041 2.544599,-1.17167 4.760139,-1.73566 7.556418,-1.92359 18.895953,-2.27162 28.400166,-0.87164 3.918822,0.57725 6.563927,1.58306 9.082441,3.45364 1.005801,0.74704 2.425519,2.16265 3.194925,3.18568 1.147816,1.71791 2.362661,3.26916 2.356661,5.20876 l 0.03764,14.44812 c 0.03926,15.06866 0.02615,15.52682 -0.492804,17.22444 -1.413353,4.6234 -4.896386,8.02854 -9.502661,9.29015 -5.417361,0.84906 -11.137595,0.3766 -16.643961,0.40262 -15.014374,0.0709 -15.471053,0.08 -16.556429,0.32873 -6.783211,1.5545 -11.870899,6.61669 -13.347392,13.28048 -0.251807,1.13648 -0.270358,1.60976 -0.32312,8.243729 l -0.05598,7.03804 -5.352548,-0.0111 c -4.042421,-0.008 -5.59114,-0.0542 -6.327323,-0.18722 z M 49.558479,46.303141 c 2.527017,-1.21287 3.607877,-4.24273 2.430762,-6.81389 -0.436092,-0.95255 -1.43063,-1.95803 -2.41706,-2.44365 -1.514851,-0.64046 -2.925483,-0.4665 -4.234242,-0.005 -3.168912,1.56005 -3.895534,5.81524 -1.411553,8.26623 1.880492,1.5615 3.765523,1.64366 5.632093,0.99613 z"
       style="fill:#d40000;fill-opacity:1" />
    <path
       style="fill:#ffcd00;fill-opacity:1"
       d="m 104.70459,57.572461 c 2.633,0.47565 4.72459,1.582 6.65756,3.52154 2.67248,2.68156 4.22958,6.0896 5.49659,12.03042 0.99091,4.64624 1.33714,7.6103 1.34002,11.47168 0.003,3.93089 -0.40062,7.14018 -1.52748,12.14769 -1.0846,4.819749 -2.40383,7.465509 -5.04709,10.122179 -3.21788,2.81431 -6.25858,4.62092 -9.38259,4.75851 l -39.499797,0.0762 0,3.46594 26.804902,0 -0.04985,6.78999 c -0.04755,6.47623 -0.06266,6.84721 -0.326992,8.02812 -0.739147,3.30213 -2.329232,5.39364 -5.235508,6.88649 -1.636121,0.84042 -2.544599,1.17168 -4.760139,1.73567 -7.556418,1.92359 -18.895953,2.27161 -28.400166,0.87163 -3.918822,-0.57724 -6.563927,-1.58306 -9.082441,-3.45364 -1.005801,-0.74704 -2.425519,-2.16265 -3.194925,-3.18567 -1.147816,-1.71792 -2.362661,-3.26916 -2.356661,-5.20877 l -0.03764,-14.44811 c -0.03926,-15.068669 -0.02615,-15.526829 0.492804,-17.224449 1.413353,-4.6234 4.896386,-8.02854 9.502661,-9.29015 5.417361,-0.84907 11.137595,-0.37661 16.643961,-0.40262 15.014374,-0.0709 15.471053,-0.08 16.556429,-0.32873 6.783211,-1.5545 11.870899,-6.61669 13.347392,-13.28048 0.251807,-1.13648 0.270358,-1.60976 0.32312,-8.24373 l 0.05598,-7.03804 5.352548,0.0111 c 4.042422,0.008 5.591142,0.0542 6.327322,0.18723 z M 75.763713,122.43651 c -2.527017,1.21287 -3.607877,4.24273 -2.430762,6.81389 0.436092,0.95255 1.43063,1.95803 2.41706,2.44364 1.514851,0.64047 2.925483,0.46651 4.234242,0.005 3.168912,-1.56005 3.895534,-5.81524 1.411553,-8.26623 -1.880492,-1.56149 -3.765523,-1.64365 -5.632093,-0.99612 z"
       id="path7316"
       inkscape:connector-curvature="0"
       sodipodi:nodetypes="csssscccccssssssccssccssscscccsccccc" />
    <g
       transform="matrix(0.33352638,0,0,0.33352638,195.36037,190.09585)"
       id="g4179">
      <path
         inkscape:connector-curvature="0"
         style="fill:#000000"
         d="m -425.43945,2.734375 c -6.84932,0.090869 -15.01846,2.4380569 -20.84961,6.2871094 l -3.76367,2.4843746 0.26367,37.138672 0.26172,37.138672 3.5,1.261719 c 1.925,0.69459 3.8375,1.298044 4.25,1.339844 0.4125,0.04184 0.75,-7.324561 0.75,-16.369141 l 0,-16.443359 5.61718,2.570312 c 4.79056,2.19319 6.5757,2.495761 12.11914,2.050781 8.63196,-0.69289 13.61771,-4.120915 17.75,-12.203125 2.77834,-5.43407 3.00878,-6.674597 2.95508,-15.960937 -0.0477,-8.25814 -0.47351,-11.011637 -2.36914,-15.310547 -2.83311,-6.42494 -8.54712,-11.7698119 -14.21094,-13.2949219 -1.85393,-0.4992125 -3.99033,-0.7197428 -6.27343,-0.6894531 z m -2.22461,5.9726562 c 2.90395,0.014268 5.60293,0.5523451 7.33789,1.6464848 5.28272,3.3315 6.66442,7.182042 7.11328,19.820312 0.3554,10.0068 0.16087,11.704944 -1.81055,15.777344 -1.26869,2.62077 -3.42113,5.191349 -5.05664,6.037109 -4.24708,2.19625 -11.77247,1.851856 -16.98633,-0.777343 l -4.46093,-2.25 0,-17.94336 0,-17.945312 3.25586,-1.900391 c 2.80149,-1.6361605 6.87376,-2.4831888 10.60742,-2.4648438 z"
         id="path4172" />
      <path
         inkscape:connector-curvature="0"
         style="fill:#000000"
         d="m -496.6184,59.654847 c -2.24991,-0.93177 -5.10584,-2.37815 -6.34649,-3.21418 -2.21432,-1.49213 -2.22169,-1.56209 -0.40172,-3.80967 l 1.85402,-2.28961 4.49247,2.0377 c 8.07659,3.66339 19.2495,2.20694 21.96284,-2.86298 1.68151,-3.14193 1.18072,-6.99559 -1.22036,-9.39084 -1.2375,-1.2345 -6.075,-3.76474 -10.75,-5.62276 -10.26703,-4.0805 -13.52699,-6.22642 -15.62646,-10.28634 -2.0076,-3.88227 -1.35174,-10.95822 1.35508,-14.6196898 5.37019,-7.26416 17.81873,-9.69121999 27.52138,-5.36577 5.11245,2.27913 5.46665,2.86768 3.41466,5.67394 -1.28342,1.7551798 -1.54043,1.7580698 -6.61003,0.0742 -9.79928,-3.2548 -18.38796,0.2675598 -18.38796,7.5412298 0,3.96262 2.39202,5.88459 11.82565,9.5018 14.218,5.45171 18.51293,9.5345 18.50394,17.58995 -0.004,3.64686 -2.89016,9.10499 -6.32478,11.96132 -5.69292,4.73439 -17.72679,6.20237 -25.26224,3.08168 z"
         id="path4168" />
      <path
         inkscape:connector-curvature="0"
         style="fill:#000000"
         d="m -369.79883,2.953125 c -4.40449,0.051512 -9.08343,1.0018962 -13.5664,2.875 -3.35461,1.40165 -3.57424,1.7332838 -2.58594,3.9023438 l 1.08008,2.3691402 5.17187,-1.787109 c 12.44417,-4.3003298 21.67188,-0.09679 21.67188,9.871094 l 0,4.277344 -8.31836,0 c -17.31027,0 -25.68164,5.867339 -25.68164,18 0,7.185639 4.15754,13.751021 10.5,16.582031 7.09957,3.16895 21.59671,0.63197 29.10351,-5.09375 l 3.39649,-2.589844 0,-17.482422 c 0,-19.60476 -0.67693,-22.543854 -6.14454,-26.7089842 -3.755,-2.8604926 -8.96403,-4.2810735 -14.62695,-4.2148438 z m 4.17188,27.507813 7.59961,0 0,10.013671 0,10.015625 -3.25,1.980469 c -2.15007,1.31092 -5.03272,1.984328 -8.51563,1.986328 -4.5484,0.0032 -5.74612,-0.437753 -8.81055,-3.246093 -6.48126,-5.93964 -5.50555,-15.585125 1.9336,-19.115235 2.24947,-1.06744 6.08142,-1.634765 11.04297,-1.634765 z"
         id="path4166" />
      <path
         inkscape:connector-curvature="0"
         style="fill:#000000"
         d="m -254.79883,2.953125 c -4.40449,0.051512 -9.08343,1.0018962 -13.5664,2.875 -3.35461,1.40165 -3.57424,1.7332838 -2.58594,3.9023438 l 1.08008,2.3691402 5.17187,-1.787109 c 12.44417,-4.3003298 21.67188,-0.09679 21.67188,9.871094 l 0,4.277344 -8.31836,0 c -17.31027,0 -25.68164,5.867339 -25.68164,18 0,7.185639 4.15754,13.751021 10.5,16.582031 7.09957,3.16895 21.59671,0.63197 29.10351,-5.09375 l 3.39649,-2.589844 0,-17.482422 c 0,-19.60476 -0.67692,-22.543854 -6.14454,-26.7089842 -3.755,-2.8604926 -8.96403,-4.2810735 -14.62695,-4.2148438 z m 4.17188,27.507813 7.59961,0 0,10.013671 0,10.015625 -3.25,1.980469 c -2.15007,1.31092 -5.03272,1.984328 -8.51563,1.986328 -4.5484,0.0032 -5.74612,-0.437753 -8.81055,-3.246093 -6.48126,-5.93964 -5.50555,-15.585125 1.9336,-19.115235 2.24947,-1.06744 6.08142,-1.634765 11.04297,-1.634765 z"
         id="path4162" />
      <path
         inkscape:connector-curvature="0"
         style="fill:#000000"
         d="m -562.02764,18.960717 0,-40.5 22,0 c 13.27581,0 22,0.37789 22,0.95295 0,0.52412 -0.52223,2.09912 -1.16052,3.5 l -1.16051,2.54705 -16.33948,0 -16.33949,0 0,13.5000002 0,13.4999998 13.45173,0 13.45172,0 -1.36478,3.25 -1.36479,3.25 -12.08694,0.28078 -12.08694,0.28078 0,16.46922 0,16.46922 17.5,0 17.5,0 0,3.5 0,3.5 -22,0 -22,0 0,-40.5 z"
         id="path4158" />
      <path
         inkscape:connector-curvature="0"
         style="fill:#000000"
         d="m -334.02764,35.438697 0,-24.02203 4.73462,-3.0026098 c 6.54467,-4.1505 11.43979,-5.43393 20.76538,-5.44438 8.87652,-0.01 13.06648,1.67942 16.89547,6.81214 1.97407,2.6462198 2.12502,4.2734098 2.43509,26.2499998 l 0.33057,23.4289 -5.08057,0 -5.08056,0 0,-21.04966 c 0,-23.70292 -0.41709,-25.49679 -6.61173,-28.4363398 -4.26845,-2.02551 -11.37027,-1.60891 -16.33451,0.9581998 l -3.05376,1.57916 0,23.47432 0,23.47432 -4.5,0 -4.5,0 0,-24.02202 z"
         id="path4156" />
      <path
         inkscape:connector-curvature="0"
         style="fill:#000000"
         d="m -313.02764,-7.5392828 c -5.65071,-2.37111 -8.43651,-2.44593 -12.03013,-0.32313 -2.35162,1.38914 -3.10735,1.45392 -4.40429,0.37755 -2.49612,-2.07159 -1.85956,-3.5209102 2.66274,-6.0625902 5.04843,-2.83737 11.80549,-3.11126 16.47202,-0.66767 4.0467,2.11903 10.17292,2.15334 13.14216,0.0736 2.12336,-1.48727 2.38804,-1.46933 3.68865,0.25 1.92335,2.54255 1.4352,3.49813 -3.10889,6.0857802 -4.79485,2.73046 -10.33591,2.82037 -16.42226,0.26646 z"
         id="path4154" />
    </g>
    <g
       transform="matrix(0.33352638,0,0,0.33352638,195.36037,202.98492)"
       id="g4188">
      <path
         inkscape:connector-curvature="0"
         style="fill:#000000"
         d="m -485.37879,-56.011983 c -1.33066,-3.46764 -0.60169,-4.18306 5.39946,-5.29909 7.08721,-1.318 12.43921,-4.3365 14.39508,-8.11874 1.6402,-3.17179 3.22188,-17.12458 1.93582,-17.07682 -0.48357,0.0179 -3.35421,0.90326 -6.37921,1.96735 -11.61608,4.08613 -23.76354,1.59346 -28.74193,-5.89788 -2.17028,-3.26579 -2.25807,-4.24128 -2.25807,-25.091717 l 0,-21.69382 3.86602,-1.15829 c 2.12631,-0.63706 4.15131,-1.15829 4.5,-1.15829 0.34869,0 0.63398,9.19571 0.63398,20.4349 0,11.2392 0.43878,21.588987 0.97507,22.999537 2.43386,6.40152 13.77765,8.60305 22.49818,4.36629 l 4.52675,-2.19926 0,-22.800737 0,-22.80073 4.5,0 4.5,0 -0.0245,31.25 c -0.0139,17.827697 -0.46781,33.174197 -1.0567,35.729947 -0.56774,2.46398 -2.1954,6.00491 -3.61701,7.86874 -4.88598,6.40585 -24.03871,12.88537 -25.65299,8.67861 z"
         id="path4152" />
      <path
         inkscape:connector-curvature="0"
         style="fill:#000000"
         d="m -428.81528,-84.529203 c -6.64129,-3.01423 -7.21236,-5.30868 -7.21236,-28.977957 l 0,-20.03212 -3.56642,0 c -3.30069,0 -3.54285,-0.2049 -3.25,-2.75 0.26366,-2.29145 0.85834,-2.80225 3.56642,-3.06336 l 3.25,-0.31336 0,-7.77835 0,-7.77835 3.86602,-1.15829 c 2.12631,-0.63706 4.15131,-1.15829 4.5,-1.15829 0.34869,0 0.63398,4.02648 0.63398,8.94774 l 0,8.94774 5.25,0.30226 c 4.89669,0.28192 5.27129,0.48733 5.56642,3.05226 0.31165,2.70854 0.2325,2.75 -5.25,2.75 l -5.56642,0 0,20.38922 c 0,22.812737 0.24772,23.710517 7,25.369217 2.49844,0.61374 3.59144,1.48672 3.81955,3.05067 0.2871,1.96839 -0.11913,2.18866 -4,2.16893 -2.37575,-0.0121 -6.24899,-0.89766 -8.60719,-1.96796 z"
         id="path4150" />
      <path
         inkscape:connector-curvature="0"
         style="fill:#000000"
         d="m -320.02148,-141.03125 c -3.77282,0.13143 -7.54228,1.16728 -11.03516,3.14063 -6.6002,3.72887 -10.45937,9.04296 -12.54883,17.2832 -1.7933,7.07224 -1.43349,13.23621 1.25781,21.509764 1.92511,5.91814 9.4936,13.980669 14.4668,15.412109 4.63202,1.33324 11.5862,1.34713 16.35352,0.03125 6.02503,-1.66304 13.86179,-9.955319 15.89257,-16.816403 3.80383,-12.85145 1.0474,-26.64376 -6.76367,-33.84375 -5.03857,-4.6444 -11.33502,-6.93585 -17.62304,-6.7168 z m 0.49414,6.91992 c 2.98734,0 5.97493,0.76769 8.12695,2.30274 5.40576,3.85596 6.87305,8.29039 6.87305,20.76953 0,9.70864 -0.2747,11.479931 -2.34375,15.089841 -1.28934,2.24954 -3.60878,4.83704 -5.1543,5.75 -3.62453,2.14106 -10.73039,2.082573 -14.29688,-0.117187 -1.53678,-0.94786 -4.00181,-4.188112 -5.47851,-7.201172 -2.33955,-4.773652 -2.68641,-6.703072 -2.69141,-15.000002 -0.007,-10.89625 1.6594,-15.59716 6.83789,-19.29101 2.15202,-1.53505 5.13961,-2.30274 8.12696,-2.30274 z"
         id="path4148" />
      <path
         inkscape:connector-curvature="0"
         style="fill:#000000"
         d="m -562.02734,-164.74805 0,40.60352 0,40.605468 4.5,0 4.5,0 0,-18.499998 0,-18.5 11.38476,0 c 10.51212,0 11.79594,-0.21448 16.7168,-2.78516 4.31469,-2.25403 5.85926,-3.79859 8.11328,-8.11328 6.05627,-11.59302 2.03561,-24.17796 -9.71484,-30.4043 -3.46686,-1.83702 -6.09925,-2.17247 -19.75,-2.51367 l -15.75,-0.39258 z m 9,7.20899 9.11328,0 c 7.4301,0 9.81072,0.39057 12.88281,2.11718 4.55905,2.56233 8.00391,8.32278 8.00391,13.38282 0,4.62801 -3.27767,10.64216 -6.99805,12.83984 -2.11845,1.2514 -5.29522,1.66016 -12.90625,1.66016 l -10.0957,0 0,-15 0,-15 z"
         id="path4144" />
      <path
         inkscape:connector-curvature="0"
         style="fill:#000000"
         d="m -402.02764,-126.44145 0,-42.90218 3.14922,-1.09782 c 6.0744,-2.11755 5.85078,-2.8034 5.85078,17.94432 l 0,19.04216 4.32558,-2.53496 c 9.35093,-5.48001 20.24099,-5.30026 26.15488,0.43172 4.87386,4.72393 5.51954,8.39534 5.51954,31.38495 l 0,20.633977 -4.5,0 -4.5,0 -0.006,-18.749997 c -0.003,-10.3125 -0.46581,-20.40858 -1.02883,-22.43572 -1.32237,-4.76113 -6.0965,-8.81428 -10.38217,-8.81428 -1.79496,0 -6.03543,1.38512 -9.42328,3.07805 l -6.15972,3.07805 0,21.92195 0,21.921947 -4.5,0 -4.5,0 0,-42.902167 z"
         id="path4140" />
      <path
         inkscape:connector-curvature="0"
         style="fill:#000000"
         d="m -281.02764,-107.5613 0,-24.02203 4.73462,-3.00261 c 6.54467,-4.1505 11.43979,-5.43393 20.76538,-5.44438 8.87652,-0.01 13.06648,1.67942 16.89547,6.81214 1.97407,2.64622 2.12502,4.27341 2.43509,26.25 l 0.33057,23.428897 -5.08057,0 -5.08056,0 0,-21.865137 c 0,-20.2253 -0.14745,-22.0526 -1.96611,-24.36464 -1.08135,-1.37473 -3.33657,-3.06716 -5.01158,-3.76098 -3.58854,-1.48642 -11.28835,-0.94918 -15.53164,1.0837 l -2.99067,1.43278 -0.2681,23.73714 -0.2681,23.737137 -4.4819,0 -4.4819,0 0,-24.022017 z"
         id="path4136" />
    </g>
  </g>
</svg>
