<?xml version="1.0" encoding="UTF-8"?>
<!DOCTYPE svg PUBLIC "-//W3C//DTD SVG 1.1//EN" "http://www.w3.org/Graphics/SVG/1.1/DTD/svg11.dtd">
<!-- Creator: CorelDRAW X8 -->
<svg xmlns="http://www.w3.org/2000/svg" xml:space="preserve" width="297mm" height="210mm" version="1.1" style="shape-rendering:geometricPrecision; text-rendering:geometricPrecision; image-rendering:optimizeQuality; fill-rule:evenodd; clip-rule:evenodd"
viewBox="0 0 29700 21000"
 xmlns:xlink="http://www.w3.org/1999/xlink">
 <defs>
  <style type="text/css">
   <![CDATA[
    .fil2 {fill:white}
    .fil0 {fill:black;fill-rule:nonzero}
    .fil1 {fill:url(#id2);fill-rule:nonzero}
   ]]>
  </style>
    <mask id="id0">
  <linearGradient id="id1" gradientUnits="userSpaceOnUse" x1="7651.66" y1="10310.2" x2="7664.88" y2="8254.22">
   <stop offset="0" style="stop-opacity:0; stop-color:white"/>
   <stop offset="1" style="stop-opacity:1; stop-color:white"/>
  </linearGradient>
     <rect style="fill:url(#id1)" x="6685" y="9234" width="1916" height="1107"/>
    </mask>
  <radialGradient id="id2" gradientUnits="userSpaceOnUse" gradientTransform="matrix(-1 -5.3708E-14 -5.3239E-14 0.995386 15292 49)" cx="7646.17" cy="10664.8" r="1443.85" fx="7646.17" fy="10664.8">
   <stop offset="0" style="stop-opacity:1; stop-color:#00006D"/>
   <stop offset="0.968627" style="stop-opacity:1; stop-color:#000057"/>
   <stop offset="1" style="stop-opacity:1; stop-color:#000041"/>
  </radialGradient>
 </defs>
 <g id="Capa_x0020_1">
  <metadata id="CorelCorpID_0Corel-Layer"/>
  <g id="_1188287782880">
   <path class="fil0" d="M12075 8898l-290 0c2,895 1,1790 0,2685 97,6 193,4 289,1 5,-287 1,-573 2,-860 -1,-609 2,-1217 -1,-1826zm6236 500c-107,0 -215,0 -323,0 -123,187 -243,376 -365,564 90,0 183,11 272,-5 132,-163 258,-332 382,-501 13,-18 24,-38 34,-58zm2099 111c-115,-24 -228,84 -218,199 -1,114 121,208 231,176 85,-23 144,-112 134,-199 -2,-83 -68,-157 -147,-176zm-4737 32c-96,-1 -192,0 -288,0 -5,200 -1,400 -2,601 -85,2 -169,-1 -254,2 -3,93 -3,186 0,279 84,4 169,1 253,2 3,386 -2,773 3,1159 96,3 192,5 288,0 0,-335 0,-670 0,-1005 -1,-52 -1,-103 2,-155 126,0 252,4 377,-1 3,-93 3,-186 0,-279 -126,-3 -252,0 -378,-2 -4,-200 0,-401 -1,-601zm7292 591c-185,-65 -396,-36 -564,64 -257,152 -403,463 -366,758 27,245 179,479 403,587 144,74 313,86 471,57 110,-21 206,-82 294,-149 0,45 1,90 2,135 98,4 195,3 293,1l0 -1455c-93,-2 -186,-5 -280,1 -4,49 -7,99 -10,148 -74,-60 -151,-118 -243,-147zm-112 271c169,34 304,179 339,347 22,124 8,259 -63,366 -92,153 -285,232 -459,193 -129,-26 -241,-117 -299,-234 -97,-189 -56,-445 111,-581 101,-84 242,-119 371,-91zm-875 -103c-131,-130 -315,-204 -499,-202 -161,-2 -320,58 -445,157 -185,144 -291,380 -286,614 1,151 49,302 134,427 110,160 285,275 476,308 128,16 262,12 382,-39 88,-34 169,-88 237,-153 -53,-80 -117,-152 -175,-227 -44,32 -84,70 -133,93 -93,43 -200,51 -299,27 -124,-31 -230,-123 -285,-238 -95,-193 -46,-453 129,-584 127,-98 310,-118 455,-48 49,23 90,60 133,93 57,-77 128,-144 176,-228zm-2392 -186c-185,-44 -393,1 -535,128 -33,27 -57,64 -95,84 0,-65 0,-131 -5,-196 -87,-3 -175,-5 -262,1 1,484 1,968 0,1452 96,7 192,4 289,1 5,-266 0,-534 2,-800 6,-104 53,-207 130,-277 83,-77 200,-117 313,-108 52,5 106,23 142,62 49,50 68,122 68,190 -1,311 1,622 -1,932 96,7 192,4 289,1 5,-323 0,-646 2,-969 2,-95 -10,-192 -54,-277 -55,-112 -162,-196 -283,-224zm-1740 -11c-145,-21 -298,-1 -429,66 -186,91 -325,265 -383,463 -58,194 -40,411 54,591 117,232 368,395 631,389 150,7 299,-42 421,-128 199,-136 318,-376 317,-615 4,-194 -64,-389 -193,-534 -107,-123 -258,-205 -418,-232zm-35 299c196,38 342,222 352,418 16,173 -71,353 -222,440 -104,61 -234,76 -348,37 -132,-45 -238,-157 -279,-290 -57,-175 -7,-384 133,-506 97,-88 236,-126 364,-99zm-793 -304c-166,-13 -329,53 -455,160 -29,26 -57,55 -87,82 -11,-70 -10,-140 -13,-210 -86,-3 -172,-4 -258,0 -5,331 -1,662 -2,993 1,154 -3,308 2,462 96,1 193,6 289,-3 -2,-254 -1,-507 -1,-761 -1,-114 59,-224 151,-289 93,-69 212,-92 326,-88 16,-115 39,-230 48,-346zm-1991 203c-139,-140 -341,-214 -538,-202 -144,7 -285,62 -400,151 -138,104 -232,261 -272,428 -44,190 -17,396 81,565 107,190 303,330 519,363 112,11 228,11 335,-28 103,-33 196,-92 274,-167 -54,-79 -117,-151 -176,-226 -38,29 -74,62 -117,85 -90,49 -197,58 -296,39 -135,-27 -251,-125 -307,-250 -81,-174 -48,-398 87,-536 118,-121 309,-162 467,-103 64,22 114,67 166,108 58,-76 128,-144 177,-227zm-1790 -137c-185,-85 -408,-84 -589,10 -149,78 -255,221 -316,375 -28,74 -51,152 -54,232 365,79 727,170 1089,260 -24,84 -84,155 -153,207 -118,81 -276,100 -409,50 -52,-18 -96,-50 -141,-79 -59,79 -118,159 -172,242 156,123 363,179 559,154 144,-18 282,-79 388,-177 170,-150 263,-381 250,-606 -14,-283 -192,-554 -452,-668zm154 631c-255,-57 -508,-126 -763,-184 47,-126 181,-210 314,-211 220,-6 425,177 449,395zm-2390 -681c-185,-35 -389,6 -536,128 -158,132 -244,332 -273,533 113,34 230,53 344,83 250,60 501,120 751,183 -27,86 -88,160 -162,211 -114,77 -263,93 -393,49 -54,-17 -101,-51 -148,-82 -61,78 -119,159 -173,242 166,131 390,186 598,148 170,-29 325,-124 432,-258 214,-259 219,-657 25,-928 -107,-158 -278,-271 -465,-309zm309 681c-255,-56 -507,-127 -763,-183 45,-124 174,-206 304,-211 223,-13 434,173 459,394zm9210 -664c-96,-6 -192,-4 -289,-1 -4,347 0,694 -2,1041 2,138 -2,276 3,413 96,3 192,6 288,-1 -1,-484 -1,-968 0,-1452zm-10506 555c-140,-7 -280,-1 -420,-3 -96,1 -193,-3 -289,3 0,101 1,201 0,302 236,1 473,3 709,0 -1,-101 -1,-201 0,-302z"/>
   <path class="fil1" d="M7969 9265c-422,-100 -887,5 -1225,277 -341,268 -554,698 -541,1133 -8,499 281,982 712,1229 198,118 425,180 654,198l156 0c112,-13 225,-27 333,-61 400,-117 742,-415 909,-796 186,-411 160,-911 -71,-1299 -197,-342 -541,-595 -927,-681zm-580 362c47,165 82,334 131,499 27,90 69,182 147,239 66,51 151,70 233,68 34,-233 68,-467 102,-700 178,22 355,50 532,83 -1,60 -13,119 -21,178 -84,593 -169,1186 -254,1779 -187,-27 -375,-53 -561,-83 30,-238 63,-475 95,-713 -61,-19 -151,-37 -193,25 -150,190 -302,378 -452,568 -115,-12 -228,-36 -343,-54 -71,-16 -145,-18 -216,-40 186,-288 376,-573 564,-860 16,-27 46,-57 27,-90 -39,-96 -109,-175 -156,-267 -55,-117 -80,-246 -97,-374 -12,-110 -27,-220 -29,-331 163,26 328,45 491,73z"/>
   <path class="fil2" style="mask:url(#id0)" d="M7643 9244c523,0 948,243 948,544 0,300 -425,543 -948,543 -524,0 -948,-243 -948,-543 0,-301 424,-544 948,-544z"/>
  </g>
 </g>
</svg>
