<?xml version="1.0" encoding="UTF-8" standalone="no"?>
<!-- Created with Inkscape (http://www.inkscape.org/) -->
<svg
   xmlns:dc="http://purl.org/dc/elements/1.1/"
   xmlns:cc="http://creativecommons.org/ns#"
   xmlns:rdf="http://www.w3.org/1999/02/22-rdf-syntax-ns#"
   xmlns:svg="http://www.w3.org/2000/svg"
   xmlns="http://www.w3.org/2000/svg"
   xmlns:sodipodi="http://sodipodi.sourceforge.net/DTD/sodipodi-0.dtd"
   xmlns:inkscape="http://www.inkscape.org/namespaces/inkscape"
   id="svg2403"
   sodipodi:version="0.32"
   inkscape:version="0.46"
   width="507.53"
   height="157.62"
   xml:space="preserve"
   sodipodi:docname="logos_vector.svg"
   inkscape:output_extension="org.inkscape.output.svg.inkscape"
   version="1.0"
   inkscape:export-filename="/home/alberto/galotecnia/logo_directorio/logo_500.png"
   inkscape:export-xdpi="97.119736"
   inkscape:export-ydpi="97.119736"><metadata
     id="metadata2408"><rdf:RDF><cc:Work
         rdf:about=""><dc:format>image/svg+xml</dc:format><dc:type
           rdf:resource="http://purl.org/dc/dcmitype/StillImage" /></cc:Work></rdf:RDF></metadata><defs
     id="defs2406"><inkscape:perspective
       sodipodi:type="inkscape:persp3d"
       inkscape:vp_x="0 : 526.18109 : 1"
       inkscape:vp_y="0 : 1000 : 0"
       inkscape:vp_z="744.09448 : 526.18109 : 1"
       inkscape:persp3d-origin="372.04724 : 350.78739 : 1"
       id="perspective2410" /></defs><sodipodi:namedview
     inkscape:window-height="700"
     inkscape:window-width="1672"
     inkscape:pageshadow="2"
     inkscape:pageopacity="0.0"
     guidetolerance="10.0"
     gridtolerance="10.0"
     objecttolerance="10.0"
     borderopacity="1.0"
     bordercolor="#666666"
     pagecolor="#ffffff"
     id="base"
     showgrid="false"
     inkscape:zoom="1.7671927"
     inkscape:cx="255.10919"
     inkscape:cy="63.014999"
     inkscape:window-x="0"
     inkscape:window-y="0"
     inkscape:current-layer="g2412"
     showborder="true" /><g
     id="g2412"
     inkscape:groupmode="layer"
     inkscape:label="lagart2_rene"
     transform="matrix(1.25,0,0,-1.25,-185.63844,871.05838)">


<g
   id="g3323"
   transform="matrix(1.1331028,0,0,1.1331028,-35.911087,-95.237885)"><path
   transform="scale(1,-1)"
   style="font-size:13.36477375px;font-style:normal;font-variant:normal;font-weight:normal;font-stretch:normal;text-align:start;line-height:125%;writing-mode:lr-tb;text-anchor:start;font-family:HandelGotDBol;-inkscape-font-specification:HandelGotDBol"
   d="M 327.11156,-624.66458 L 327.11156,-621.27771 L 325.21909,-621.27771 L 325.21909,-630.18538 L 329.56525,-630.18538 C 330.81384,-630.18537 331.68612,-630.02658 332.18208,-629.709 C 332.51706,-629.49582 332.77592,-629.21304 332.95865,-628.86065 C 333.14571,-628.5126 333.23925,-628.12758 333.23926,-627.70559 C 333.23925,-626.85724 333.0239,-626.20466 332.59321,-625.74786 C 332.32782,-625.46942 331.97543,-625.25625 331.53603,-625.10834 C 331.88407,-624.99087 332.14727,-624.86253 332.32565,-624.72332 C 332.50401,-624.5841 332.66498,-624.37962 332.80856,-624.10989 C 332.91731,-623.90107 332.99345,-623.69659 333.03696,-623.49647 C 333.08481,-623.3007 333.12396,-623.00921 333.15442,-622.62202 C 333.20662,-621.98249 333.2784,-621.53439 333.36977,-621.27771 L 331.24237,-621.27771 C 331.17711,-621.48653 331.11185,-621.90853 331.0466,-622.54371 C 330.99439,-623.06577 330.89868,-623.46384 330.75947,-623.73792 C 330.62459,-624.01635 330.41794,-624.23388 330.13952,-624.3905 C 329.79582,-624.57757 329.29551,-624.66893 328.63859,-624.66458 L 327.11156,-624.66458 M 327.11156,-626.25035 L 329.77407,-626.25035 C 330.21782,-626.25034 330.53323,-626.3156 330.72031,-626.44612 C 331.00309,-626.64624 331.14448,-626.98993 331.14449,-627.47719 C 331.14448,-628.021 330.9313,-628.36904 330.50496,-628.52131 C 330.35704,-628.57351 330.11341,-628.59961 329.77407,-628.59962 L 327.11156,-628.59962 L 327.11156,-626.25035 M 339.94741,-625.23233 L 339.94741,-623.84234 L 336.17552,-623.84234 C 336.21032,-623.41598 336.34736,-623.11362 336.58664,-622.93526 C 336.83026,-622.75688 337.22181,-622.6677 337.76128,-622.6677 L 339.94741,-622.6677 L 339.94741,-621.27771 L 337.5655,-621.27771 C 337.04779,-621.27771 336.62579,-621.32339 336.29951,-621.41475 C 335.97757,-621.50611 335.67085,-621.66273 335.37937,-621.88461 C 334.59193,-622.49368 334.19821,-623.40293 334.19821,-624.61238 C 334.19821,-625.40417 334.40703,-626.09155 334.82468,-626.67452 C 335.11181,-627.07476 335.4555,-627.35972 335.85575,-627.5294 C 336.256,-627.69906 336.78241,-627.78389 337.43499,-627.7839 L 339.94741,-627.7839 L 339.94741,-626.39391 L 337.5655,-626.39391 C 337.07824,-626.39391 336.73455,-626.31125 336.53443,-626.14593 C 336.33866,-625.98061 336.21902,-625.67607 336.17552,-625.23233 L 339.94741,-625.23233 M 345.7774,-627.7839 L 345.7774,-630.18538 L 347.56546,-630.18538 L 347.56546,-621.27771 L 344.4853,-621.27771 C 343.85882,-621.27771 343.38896,-621.32557 343.07573,-621.42128 C 342.31004,-621.66055 341.74012,-622.13258 341.36598,-622.83737 C 341.11365,-623.31592 340.98748,-623.89454 340.98748,-624.57322 C 340.98748,-625.6913 341.36163,-626.55923 342.10992,-627.177 C 342.59717,-627.5816 343.25845,-627.78389 344.09375,-627.7839 L 345.7774,-627.7839 M 345.7774,-622.6677 L 345.7774,-626.39391 L 344.4853,-626.39391 C 343.91538,-626.39391 343.4825,-626.20466 343.18667,-625.82617 C 342.93434,-625.49988 342.80817,-625.08223 342.80817,-624.57322 C 342.80817,-623.83798 343.01917,-623.31157 343.44117,-622.99399 C 343.73265,-622.77646 344.08069,-622.6677 344.4853,-622.6677 L 345.7774,-622.6677 M 354.64864,-625.23233 L 354.64864,-623.84234 L 350.87675,-623.84234 C 350.91155,-623.41598 351.04859,-623.11362 351.28787,-622.93526 C 351.5315,-622.75688 351.92304,-622.6677 352.46251,-622.6677 L 354.64864,-622.6677 L 354.64864,-621.27771 L 352.26674,-621.27771 C 351.74902,-621.27771 351.32702,-621.32339 351.00074,-621.41475 C 350.6788,-621.50611 350.37209,-621.66273 350.0806,-621.88461 C 349.29316,-622.49368 348.89944,-623.40293 348.89944,-624.61238 C 348.89944,-625.40417 349.10826,-626.09155 349.52591,-626.67452 C 349.81305,-627.07476 350.15674,-627.35972 350.55699,-627.5294 C 350.95723,-627.69906 351.48364,-627.78389 352.13622,-627.7839 L 354.64864,-627.7839 L 354.64864,-626.39391 L 352.26674,-626.39391 C 351.77948,-626.39391 351.43579,-626.31125 351.23567,-626.14593 C 351.03989,-625.98061 350.92025,-625.67607 350.87675,-625.23233 L 354.64864,-625.23233 M 361.77076,-627.7839 L 361.77076,-626.39391 L 358.59924,-626.39391 C 358.23814,-626.39391 358.00757,-626.37651 357.90751,-626.34171 C 357.70303,-626.27209 357.6008,-626.09807 357.6008,-625.81964 C 357.6008,-625.58906 357.69868,-625.41287 357.89446,-625.29106 C 357.99887,-625.22145 358.28818,-625.18664 358.76238,-625.18665 L 359.81956,-625.18665 C 360.49388,-625.18664 361.02682,-625.0409 361.41837,-624.74942 C 361.85342,-624.42748 362.07094,-623.95545 362.07095,-623.33333 C 362.07094,-622.86347 361.94043,-622.43059 361.6794,-622.0347 C 361.47927,-621.73016 361.23782,-621.52786 360.95504,-621.4278 C 360.67225,-621.32774 360.20457,-621.27771 359.552,-621.27771 L 355.85189,-621.27771 L 355.85189,-622.6677 L 359.03647,-622.6677 C 359.43236,-622.6677 359.70209,-622.67422 359.84566,-622.68728 C 360.16324,-622.72208 360.32204,-622.90045 360.32204,-623.22239 C 360.32204,-623.49212 360.21763,-623.67702 360.00881,-623.77708 C 359.89569,-623.83363 359.63466,-623.86191 359.22571,-623.86191 L 358.14244,-623.86191 C 357.72043,-623.86191 357.39415,-623.88801 357.16357,-623.94022 C 356.93734,-623.99243 356.72634,-624.08814 356.53057,-624.22736 C 356.29129,-624.40137 356.10205,-624.6363 355.96283,-624.93214 C 355.82361,-625.22797 355.754,-625.54773 355.75401,-625.89143 C 355.754,-626.544 355.99111,-627.06171 356.46531,-627.44456 C 356.7481,-627.67078 357.24188,-627.78389 357.94666,-627.7839 L 361.77076,-627.7839 M 365.01636,-623.01356 L 365.01636,-621.46696 L 363.98529,-619.45049 L 363.16956,-619.45049 L 363.98529,-621.27771 L 363.39797,-621.27771 L 363.39797,-623.01356 L 365.01636,-623.01356 M 369.93829,-621.27771 L 369.93829,-622.86347 L 374.00384,-622.86347 C 374.65641,-622.86347 375.09146,-622.92873 375.30899,-623.05924 C 375.62222,-623.24631 375.77884,-623.52692 375.77885,-623.90107 C 375.77884,-624.33177 375.59612,-624.64718 375.23068,-624.84731 C 375.02185,-624.96041 374.68904,-625.01697 374.23224,-625.01698 L 372.58122,-625.01698 C 371.5719,-625.01697 370.84537,-625.19969 370.40162,-625.56514 C 370.12318,-625.79571 369.90566,-626.08502 369.74904,-626.43307 C 369.59242,-626.78545 369.51411,-627.1596 369.51411,-627.5555 C 369.51411,-628.18197 369.69683,-628.75406 370.06228,-629.27178 C 370.41902,-629.77208 370.99111,-630.06356 371.77855,-630.14623 C 372.04393,-630.17232 372.43983,-630.18537 372.96624,-630.18538 L 377.38419,-630.18538 L 377.38419,-628.59962 L 373.39694,-628.59962 C 372.80092,-628.59526 372.40502,-628.56916 372.20925,-628.52131 C 371.809,-628.42124 371.60888,-628.11888 371.60888,-627.61423 C 371.60888,-627.18787 371.77637,-626.90074 372.11137,-626.75283 C 372.33759,-626.65276 372.71173,-626.60273 373.2338,-626.60274 L 374.66294,-626.60274 C 375.39382,-626.60273 375.93981,-626.53965 376.30091,-626.41349 C 376.93173,-626.20031 377.3646,-625.82617 377.59954,-625.29106 C 377.79095,-624.86035 377.88666,-624.3992 377.88667,-623.90759 C 377.88666,-623.36813 377.76267,-622.88305 377.5147,-622.45235 C 377.16665,-621.84328 376.64242,-621.48001 375.94199,-621.36254 C 375.60265,-621.30599 375.09364,-621.27771 374.41496,-621.27771 L 369.93829,-621.27771 M 379.2203,-627.7839 L 381.00836,-627.7839 L 381.00836,-621.27771 L 379.2203,-621.27771 L 379.2203,-627.7839 M 379.2203,-628.44953 L 379.2203,-630.18538 L 381.00836,-630.18538 L 381.00836,-628.44953 L 379.2203,-628.44953 M 388.42012,-627.7839 L 388.42012,-626.39391 L 385.24859,-626.39391 C 384.8875,-626.39391 384.65692,-626.37651 384.55686,-626.34171 C 384.35239,-626.27209 384.25015,-626.09807 384.25015,-625.81964 C 384.25015,-625.58906 384.34803,-625.41287 384.54381,-625.29106 C 384.64822,-625.22145 384.93753,-625.18664 385.41174,-625.18665 L 386.46891,-625.18665 C 387.14324,-625.18664 387.67617,-625.0409 388.06773,-624.74942 C 388.50277,-624.42748 388.7203,-623.95545 388.7203,-623.33333 C 388.7203,-622.86347 388.58978,-622.43059 388.32876,-622.0347 C 388.12863,-621.73016 387.88717,-621.52786 387.6044,-621.4278 C 387.32161,-621.32774 386.85393,-621.27771 386.20136,-621.27771 L 382.50124,-621.27771 L 382.50124,-622.6677 L 385.68582,-622.6677 C 386.08171,-622.6677 386.35144,-622.67422 386.49501,-622.68728 C 386.8126,-622.72208 386.97139,-622.90045 386.9714,-623.22239 C 386.97139,-623.49212 386.86698,-623.67702 386.65816,-623.77708 C 386.54504,-623.83363 386.28401,-623.86191 385.87507,-623.86191 L 384.79179,-623.86191 C 384.36979,-623.86191 384.0435,-623.88801 383.81292,-623.94022 C 383.5867,-623.99243 383.3757,-624.08814 383.17992,-624.22736 C 382.94065,-624.40137 382.7514,-624.6363 382.61218,-624.93214 C 382.47297,-625.22797 382.40336,-625.54773 382.40336,-625.89143 C 382.40336,-626.544 382.64046,-627.06171 383.11467,-627.44456 C 383.39745,-627.67078 383.89123,-627.78389 384.59602,-627.7839 L 388.42012,-627.7839 M 390.50232,-627.7839 L 390.50232,-630.18538 L 392.29038,-630.18538 L 392.29038,-627.7839 L 393.94793,-627.7839 L 393.94793,-626.39391 L 392.29038,-626.39391 L 392.29038,-624.03158 C 392.29038,-623.47907 392.34041,-623.13103 392.44048,-622.98746 C 392.59274,-622.77428 392.8603,-622.6677 393.24315,-622.6677 L 393.94793,-622.6677 L 393.94793,-621.27771 L 392.6493,-621.27771 C 391.87491,-621.27771 391.32239,-621.46478 390.99176,-621.83893 C 390.66547,-622.21307 390.50232,-622.83954 390.50232,-623.71835 L 390.50232,-626.39391 L 389.36684,-626.39391 L 389.36684,-627.7839 L 390.50232,-627.7839 M 400.35628,-625.23233 L 400.35628,-623.84234 L 396.58439,-623.84234 C 396.61919,-623.41598 396.75623,-623.11362 396.99551,-622.93526 C 397.23914,-622.75688 397.63068,-622.6677 398.17015,-622.6677 L 400.35628,-622.6677 L 400.35628,-621.27771 L 397.97438,-621.27771 C 397.45666,-621.27771 397.03467,-621.32339 396.70838,-621.41475 C 396.38644,-621.50611 396.07973,-621.66273 395.78825,-621.88461 C 395.0008,-622.49368 394.60708,-623.40293 394.60708,-624.61238 C 394.60708,-625.40417 394.81591,-626.09155 395.23356,-626.67452 C 395.52069,-627.07476 395.86438,-627.35972 396.26463,-627.5294 C 396.66487,-627.69906 397.19128,-627.78389 397.84386,-627.7839 L 400.35628,-627.7839 L 400.35628,-626.39391 L 397.97438,-626.39391 C 397.48712,-626.39391 397.14343,-626.31125 396.94331,-626.14593 C 396.74753,-625.98061 396.62789,-625.67607 396.58439,-625.23233 L 400.35628,-625.23233 M 401.83362,-627.7839 L 408.41159,-627.7839 C 409.01195,-627.78389 409.46658,-627.74039 409.77548,-627.65339 C 410.0887,-627.56637 410.34973,-627.40975 410.55857,-627.18353 C 410.9501,-626.75717 411.14588,-626.16986 411.14589,-625.42157 L 411.14589,-621.27771 L 409.35783,-621.27771 L 409.35783,-625.14096 C 409.35782,-625.4542 409.34259,-625.67172 409.31215,-625.79354 C 409.28603,-625.91535 409.22513,-626.02629 409.12942,-626.12636 C 408.9467,-626.30472 408.66609,-626.39391 408.2876,-626.39391 L 407.33484,-626.39391 L 407.33484,-621.27771 L 405.54678,-621.27771 L 405.54678,-626.39391 L 403.62168,-626.39391 L 403.62168,-621.27771 L 401.83362,-621.27771 L 401.83362,-627.7839 M 417.31571,-625.23233 C 417.3157,-625.68913 417.22217,-625.99584 417.0351,-626.15246 C 416.85238,-626.31342 416.49128,-626.39391 415.95182,-626.39391 L 412.92387,-626.39391 L 412.92387,-627.7839 L 415.95182,-627.7839 C 416.49128,-627.78389 416.86325,-627.77302 417.06773,-627.75127 C 417.27655,-627.73386 417.48537,-627.69253 417.6942,-627.62728 C 418.68176,-627.25313 419.15162,-626.3591 419.10377,-624.94519 L 419.10377,-621.27771 L 415.33188,-621.27771 C 414.65754,-621.27771 414.18986,-621.29729 413.92884,-621.33644 C 413.67215,-621.3756 413.44593,-621.46043 413.25016,-621.59095 C 412.71939,-621.94769 412.45401,-622.48498 412.45401,-623.20281 C 412.45401,-623.64221 412.55842,-624.03158 412.76725,-624.37092 C 412.98042,-624.71461 413.25886,-624.94736 413.60255,-625.06918 C 413.90708,-625.17794 414.41392,-625.23232 415.12305,-625.23233 L 417.31571,-625.23233 M 417.31571,-623.84234 L 415.24704,-623.84234 L 414.94686,-623.84886 C 414.74238,-623.84886 414.57923,-623.79448 414.45742,-623.68572 C 414.33996,-623.57695 414.28123,-623.43121 414.28123,-623.24849 C 414.28123,-623.03532 414.35301,-622.88522 414.49658,-622.79821 C 414.64449,-622.7112 414.89465,-622.6677 415.24704,-622.6677 L 417.31571,-622.6677 L 417.31571,-623.84234 M 426.4163,-627.7839 L 426.4163,-626.39391 L 423.24478,-626.39391 C 422.88368,-626.39391 422.65311,-626.37651 422.55305,-626.34171 C 422.34857,-626.27209 422.24633,-626.09807 422.24634,-625.81964 C 422.24633,-625.58906 422.34422,-625.41287 422.54,-625.29106 C 422.6444,-625.22145 422.93371,-625.18664 423.40792,-625.18665 L 424.4651,-625.18665 C 425.13942,-625.18664 425.67236,-625.0409 426.06391,-624.74942 C 426.49896,-624.42748 426.71648,-623.95545 426.71649,-623.33333 C 426.71648,-622.86347 426.58597,-622.43059 426.32494,-622.0347 C 426.12481,-621.73016 425.88336,-621.52786 425.60058,-621.4278 C 425.31779,-621.32774 424.85011,-621.27771 424.19754,-621.27771 L 420.49743,-621.27771 L 420.49743,-622.6677 L 423.682,-622.6677 C 424.0779,-622.6677 424.34763,-622.67422 424.4912,-622.68728 C 424.80878,-622.72208 424.96758,-622.90045 424.96758,-623.22239 C 424.96758,-623.49212 424.86316,-623.67702 424.65434,-623.77708 C 424.54123,-623.83363 424.2802,-623.86191 423.87125,-623.86191 L 422.78797,-623.86191 C 422.36597,-623.86191 422.03968,-623.88801 421.80911,-623.94022 C 421.58288,-623.99243 421.37188,-624.08814 421.17611,-624.22736 C 420.93683,-624.40137 420.74758,-624.6363 420.60837,-624.93214 C 420.46915,-625.22797 420.39954,-625.54773 420.39954,-625.89143 C 420.39954,-626.544 420.63665,-627.06171 421.11085,-627.44456 C 421.39363,-627.67078 421.88742,-627.78389 422.5922,-627.7839 L 426.4163,-627.7839 M 435.7178,-622.6677 L 435.7178,-627.7839 L 437.50586,-627.7839 L 437.50586,-621.40823 C 437.50585,-620.55988 437.2818,-619.93993 436.83371,-619.54838 C 436.38995,-619.15684 435.68299,-618.96106 434.71283,-618.96106 L 431.51521,-618.96106 L 431.51521,-620.35105 L 434.71283,-620.35105 C 435.09567,-620.3554 435.34583,-620.39891 435.4633,-620.48157 C 435.5503,-620.52942 435.60686,-620.59686 435.63297,-620.68387 C 435.66341,-620.77088 435.69169,-620.96882 435.7178,-621.27771 L 434.11899,-621.27771 C 432.28307,-621.2342 431.41514,-622.19132 431.51521,-624.14905 L 431.51521,-627.7839 L 433.30327,-627.7839 L 433.30327,-624.32524 C 433.30326,-623.65091 433.36417,-623.20498 433.48599,-622.98746 C 433.6078,-622.77428 433.86013,-622.6677 434.24298,-622.6677 L 435.7178,-622.6677 M 442.46905,-621.27771 L 442.46905,-622.86347 L 446.5346,-622.86347 C 447.18717,-622.86347 447.62222,-622.92873 447.83975,-623.05924 C 448.15299,-623.24631 448.3096,-623.52692 448.30961,-623.90107 C 448.3096,-624.33177 448.12688,-624.64718 447.76145,-624.84731 C 447.55262,-624.96041 447.2198,-625.01697 446.763,-625.01698 L 445.11198,-625.01698 C 444.10266,-625.01697 443.37613,-625.19969 442.93238,-625.56514 C 442.65394,-625.79571 442.43642,-626.08502 442.2798,-626.43307 C 442.12318,-626.78545 442.04487,-627.1596 442.04487,-627.5555 C 442.04487,-628.18197 442.22759,-628.75406 442.59304,-629.27178 C 442.94978,-629.77208 443.52187,-630.06356 444.30931,-630.14623 C 444.57469,-630.17232 444.97059,-630.18537 445.497,-630.18538 L 449.91495,-630.18538 L 449.91495,-628.59962 L 445.9277,-628.59962 C 445.33168,-628.59526 444.93578,-628.56916 444.74001,-628.52131 C 444.33977,-628.42124 444.13964,-628.11888 444.13964,-627.61423 C 444.13964,-627.18787 444.30714,-626.90074 444.64213,-626.75283 C 444.86835,-626.65276 445.2425,-626.60273 445.76456,-626.60274 L 447.1937,-626.60274 C 447.92458,-626.60273 448.47057,-626.53965 448.83167,-626.41349 C 449.46249,-626.20031 449.89536,-625.82617 450.1303,-625.29106 C 450.32171,-624.86035 450.41742,-624.3992 450.41743,-623.90759 C 450.41742,-623.36813 450.29344,-622.88305 450.04546,-622.45235 C 449.69742,-621.84328 449.17318,-621.48001 448.47275,-621.36254 C 448.13341,-621.30599 447.6244,-621.27771 446.94572,-621.27771 L 442.46905,-621.27771 M 457.06301,-625.23233 L 457.06301,-623.84234 L 453.29112,-623.84234 C 453.32592,-623.41598 453.46296,-623.11362 453.70224,-622.93526 C 453.94587,-622.75688 454.33741,-622.6677 454.87688,-622.6677 L 457.06301,-622.6677 L 457.06301,-621.27771 L 454.6811,-621.27771 C 454.16339,-621.27771 453.74139,-621.32339 453.41511,-621.41475 C 453.09317,-621.50611 452.78645,-621.66273 452.49497,-621.88461 C 451.70753,-622.49368 451.31381,-623.40293 451.31381,-624.61238 C 451.31381,-625.40417 451.52263,-626.09155 451.94028,-626.67452 C 452.22741,-627.07476 452.5711,-627.35972 452.97135,-627.5294 C 453.3716,-627.69906 453.89801,-627.78389 454.55059,-627.7839 L 457.06301,-627.7839 L 457.06301,-626.39391 L 454.6811,-626.39391 C 454.19384,-626.39391 453.85015,-626.31125 453.65003,-626.14593 C 453.45426,-625.98061 453.33462,-625.67607 453.29112,-625.23233 L 457.06301,-625.23233 M 458.54034,-627.7839 L 461.1898,-627.7839 C 461.72926,-627.78389 462.14691,-627.74692 462.44275,-627.67296 C 462.74293,-627.599 462.99309,-627.47066 463.19321,-627.28794 C 463.38898,-627.10957 463.52602,-626.88769 463.60434,-626.62231 C 463.68264,-626.35693 463.7218,-625.97626 463.7218,-625.4803 L 463.7218,-624.84731 L 462.00552,-624.84731 L 462.00552,-625.1997 C 462.00552,-625.66085 461.92286,-625.97408 461.75755,-626.13941 C 461.59657,-626.30907 461.29204,-626.39391 460.84394,-626.39391 L 460.3284,-626.39391 L 460.3284,-621.27771 L 458.54034,-621.27771 L 458.54034,-627.7839 M 467.64743,-623.30722 L 469.4616,-627.7839 L 471.35407,-627.7839 L 468.54799,-621.27771 L 466.62941,-621.27771 L 464.03216,-627.7839 L 465.98336,-627.7839 L 467.64743,-623.30722 M 472.31939,-627.7839 L 474.10745,-627.7839 L 474.10745,-621.27771 L 472.31939,-621.27771 L 472.31939,-627.7839 M 472.31939,-628.44953 L 472.31939,-630.18538 L 474.10745,-630.18538 L 474.10745,-628.44953 L 472.31939,-628.44953 M 481.30389,-627.7839 L 481.30389,-626.39391 L 479.15691,-626.39391 C 478.44342,-626.39391 477.94529,-626.23294 477.66251,-625.91101 C 477.39712,-625.60647 477.26443,-625.14531 477.26444,-624.52754 C 477.26443,-623.82711 477.48196,-623.32027 477.91701,-623.00704 C 478.09538,-622.87652 478.28898,-622.78734 478.49781,-622.73948 C 478.70663,-622.69163 478.99811,-622.6677 479.37226,-622.6677 L 481.30389,-622.6677 L 481.30389,-621.27771 L 478.85672,-621.27771 C 478.19979,-621.27771 477.67991,-621.34297 477.29707,-621.47348 C 476.91422,-621.60835 476.5727,-621.84328 476.27252,-622.17827 C 475.71565,-622.80039 475.43722,-623.59 475.43722,-624.54712 C 475.43722,-625.70435 475.77221,-626.5701 476.44219,-627.14438 C 476.70757,-627.37495 477.02733,-627.53809 477.40148,-627.63381 C 477.77562,-627.73386 478.2607,-627.78389 478.85672,-627.7839 L 481.30389,-627.7839 M 482.69049,-627.7839 L 484.47855,-627.7839 L 484.47855,-621.27771 L 482.69049,-621.27771 L 482.69049,-627.7839 M 482.69049,-628.44953 L 482.69049,-630.18538 L 484.47855,-630.18538 L 484.47855,-628.44953 L 482.69049,-628.44953 M 489.24084,-627.88179 C 490.44158,-627.88178 491.32908,-627.53374 491.90335,-626.83766 C 492.42976,-626.20248 492.69296,-625.40634 492.69297,-624.44923 C 492.69296,-623.43121 492.36232,-622.61984 491.70105,-622.01512 C 491.09633,-621.45826 490.26755,-621.17982 489.21474,-621.17982 C 488.12711,-621.17982 487.27441,-621.49088 486.65663,-622.11301 C 486.09107,-622.68292 485.80828,-623.50299 485.80828,-624.57322 C 485.80828,-625.48683 486.08019,-626.24599 486.62401,-626.85072 C 487.22873,-627.52504 488.101,-627.86873 489.24084,-627.88179 M 489.25389,-626.51138 C 488.17931,-626.51137 487.64202,-625.84357 487.64203,-624.50797 C 487.64202,-623.96415 487.72903,-623.55085 487.90306,-623.26807 C 488.19454,-622.78951 488.64917,-622.55023 489.26694,-622.55023 C 490.32846,-622.55023 490.85922,-623.21369 490.85923,-624.54059 C 490.85922,-625.84139 490.32411,-626.49832 489.25389,-626.51138 M 499.66859,-627.7839 L 499.66859,-626.39391 L 496.49707,-626.39391 C 496.13597,-626.39391 495.90539,-626.37651 495.80534,-626.34171 C 495.60086,-626.27209 495.49862,-626.09807 495.49862,-625.81964 C 495.49862,-625.58906 495.59651,-625.41287 495.79228,-625.29106 C 495.89669,-625.22145 496.186,-625.18664 496.66021,-625.18665 L 497.71739,-625.18665 C 498.39171,-625.18664 498.92465,-625.0409 499.3162,-624.74942 C 499.75124,-624.42748 499.96877,-623.95545 499.96878,-623.33333 C 499.96877,-622.86347 499.83825,-622.43059 499.57723,-622.0347 C 499.3771,-621.73016 499.13565,-621.52786 498.85287,-621.4278 C 498.57008,-621.32774 498.1024,-621.27771 497.44983,-621.27771 L 493.74972,-621.27771 L 493.74972,-622.6677 L 496.93429,-622.6677 C 497.33019,-622.6677 497.59992,-622.67422 497.74349,-622.68728 C 498.06107,-622.72208 498.21987,-622.90045 498.21987,-623.22239 C 498.21987,-623.49212 498.11545,-623.67702 497.90663,-623.77708 C 497.79352,-623.83363 497.53248,-623.86191 497.12354,-623.86191 L 496.04026,-623.86191 C 495.61826,-623.86191 495.29197,-623.88801 495.0614,-623.94022 C 494.83517,-623.99243 494.62417,-624.08814 494.4284,-624.22736 C 494.18912,-624.40137 493.99987,-624.6363 493.86066,-624.93214 C 493.72144,-625.22797 493.65183,-625.54773 493.65183,-625.89143 C 493.65183,-626.544 493.88893,-627.06171 494.36314,-627.44456 C 494.64592,-627.67078 495.13971,-627.78389 495.84449,-627.7839 L 499.66859,-627.7839"
   id="text2416" />

<g
   transform="matrix(-1,0,0,1,378.7053,-0.9570978)"
   id="g2725"><path
     id="path2460"
     style="fill:#004cff;fill-opacity:1;fill-rule:nonzero;stroke:#004cff;stroke-width:0.0779;stroke-linecap:butt;stroke-linejoin:miter;stroke-miterlimit:3.86360002;stroke-dasharray:none;stroke-opacity:1"
     d="M 163.4921,629.3338 C 173.6875,629.3154 174.6213,636.3672 187.1973,632.1208 C 191.4938,630.6701 194.3635,631.3887 194.4387,630.7954 C 194.4387,629.6641 188.8351,628.4938 185.9048,627.024 C 181.8528,625.4901 179.3173,626.4263 172.491,624.4368 C 172.8695,624.1492 173.0776,623.7721 173.1151,623.3055 C 176.9434,624.0477 179.583,624.0347 181.0336,623.2665 C 182.068,623.4172 182.8742,623.2352 183.4521,622.7204 C 182.5907,622.9952 182.0576,623.0473 181.8528,622.8764 C 182.9725,622.6217 183.6475,622.1535 183.984,621.7061 C 182.7038,622.066 181.9638,622.17 181.6577,621.7842 C 182.0874,621.6499 182.5573,621.2238 181.9308,620.8089 C 180.744,623.6152 171.8669,616.7909 166.4449,623.5006 C 164.243,622.9069 161.6218,622.3564 155.7284,622.3693 C 155.7284,622.3693 135.31995,622.30744 133.36847,622.30744 C 133.36847,624.8035 133.40539,627.74705 133.40539,630.62084 L 148.7088,630.6029 C 156.5573,630.5698 161.3665,629.3376 163.4921,629.3338 z"
     sodipodi:nodetypes="cscccccccccccccccc" /><path
     id="path2462"
     style="fill:#ffffff;fill-opacity:1;fill-rule:evenodd;stroke:#ffffff;stroke-width:0.0449;stroke-linecap:butt;stroke-linejoin:miter;stroke-miterlimit:3.86360002;stroke-dasharray:none;stroke-opacity:1"
     d="M 186.5306,629.8569 C 185.2001,630.5293 183.7856,630.8935 182.2297,630.3161 C 184.5813,630.2341 183.7768,629.693 186.5306,629.8569 z" /><path
     id="path2464"
     style="fill:#ffffff;fill-opacity:1;fill-rule:evenodd;stroke:#ffffff;stroke-width:0.0449;stroke-linecap:butt;stroke-linejoin:miter;stroke-miterlimit:3.86360002;stroke-dasharray:none;stroke-opacity:1"
     d="M 182.4082,631.3504 C 170.0998,631.045 157.8448,619.358 135.0354,628.4346 C 158.8683,620.4899 171.7168,632.1905 182.4082,631.3504 z" /><path
     id="path2466"
     style="fill:#ffffff;fill-opacity:1;fill-rule:evenodd;stroke:#ffffff;stroke-width:0.0449;stroke-linecap:butt;stroke-linejoin:miter;stroke-miterlimit:3.86360002;stroke-dasharray:none;stroke-opacity:1"
     d="M 183.1797,631.4995 C 187.5648,630.9563 187.5294,629.4381 194.4607,630.7313 C 187.2463,629.8506 186.8926,631.4808 183.1797,631.4995 z" /></g><path
   d="M 261.08737,629.7895 L 252.22941,629.7895 L 252.22941,620.93122 L 261.08737,620.93122 L 261.08737,629.7895 z"
   style="fill:#195eff;fill-opacity:1;fill-rule:nonzero;stroke:none"
   id="path2751" /><path
   d="M 275.07368,629.7895 L 266.21572,629.7895 L 266.21572,620.93122 L 275.07368,620.93122 L 275.07368,629.7895 z"
   style="fill:#4c82ff;fill-opacity:1;fill-rule:nonzero;stroke:none"
   id="path2753" /><path
   d="M 289.05997,629.7895 L 280.20191,629.7895 L 280.20191,620.93122 L 289.05997,620.93122 L 289.05997,629.7895 z"
   style="fill:#80a6ff;fill-opacity:1;fill-rule:nonzero;stroke:none"
   id="path2755" /><path
   d="M 303.04628,629.7895 L 294.18833,629.7895 L 294.18833,620.93122 L 303.04628,620.93122 L 303.04628,629.7895 z"
   style="fill:#b3caff;fill-opacity:1;fill-rule:nonzero;stroke:none"
   id="path2757" /><path
   d="M 317.0326,629.7895 L 308.17465,629.7895 L 308.17465,620.93122 L 317.0326,620.93122 L 317.0326,629.7895 z"
   style="fill:#e6eeff;fill-opacity:1;fill-rule:nonzero;stroke:none"
   id="path2759" /><path
   transform="scale(1,-1)"
   style="font-size:44.79999924px;font-style:normal;font-variant:normal;font-weight:normal;font-stretch:normal;text-align:start;line-height:100%;writing-mode:lr-tb;text-anchor:start;fill:#004cff;fill-opacity:1;stroke:none;stroke-width:0.23999999;stroke-miterlimit:4;stroke-opacity:1;font-family:HandelGotDBol;-inkscape-font-specification:HandelGotDBol"
   d="M 216.73752,-656.00594 L 231.41564,-656.00594 L 231.41564,-638.26532 L 218.07189,-638.26532 C 215.75313,-638.26532 213.91563,-638.43303 212.55939,-638.76844 C 211.21772,-639.11844 209.99272,-639.72365 208.88439,-640.58407 C 205.74897,-643.0049 204.18127,-647.16844 204.18127,-653.07469 C 204.18127,-656.95384 204.92502,-660.16946 206.41252,-662.72157 C 207.52085,-664.60279 209.02293,-665.97362 210.91877,-666.83407 C 212.82917,-667.69446 215.31563,-668.12466 218.37814,-668.12469 L 231.41564,-668.12469 L 231.41564,-662.80907 L 219.10002,-662.80907 C 216.44584,-662.80904 214.51355,-662.22571 213.30314,-661.05907 C 211.88855,-659.68821 211.18126,-657.23093 211.18127,-653.68719 C 211.18126,-651.86426 211.36355,-650.21635 211.72814,-648.74344 C 212.1073,-647.2851 212.61772,-646.19865 213.25939,-645.48407 C 213.84272,-644.82781 214.63021,-644.34656 215.62189,-644.04032 C 216.61355,-643.73406 217.84584,-643.58094 219.31877,-643.58094 L 225.07189,-643.58094 L 225.07189,-650.69032 L 216.73752,-650.69032 L 216.73752,-656.00594 M 233.97502,-638.26532 L 246.33439,-668.12469 L 253.66252,-668.12469 L 266.02189,-638.26532 L 258.56252,-638.26532 L 255.67502,-645.17782 L 244.32189,-645.17782 L 241.43439,-638.26532 L 233.97502,-638.26532 M 250.00939,-660.94969 L 245.74377,-650.49344 L 254.25314,-650.49344 L 250.00939,-660.94969 M 268.88752,-668.12469 L 275.23127,-668.12469 L 275.23127,-651.36844 C 275.31876,-649.23927 275.41355,-647.82469 275.51564,-647.12469 C 275.7198,-645.76844 276.36876,-644.8351 277.46252,-644.32469 C 278.57084,-643.82886 280.51042,-643.58094 283.28127,-643.58094 L 289.38439,-643.58094 L 289.38439,-638.26532 L 282.62502,-638.26532 C 279.43125,-638.25074 277.11251,-638.43303 275.66877,-638.81219 C 272.37293,-639.77469 270.28751,-641.8674 269.41252,-645.09032 C 269.0771,-646.32989 268.9021,-648.4226 268.88752,-651.36844 L 268.88752,-668.12469 M 305.46252,-668.32157 C 308.45208,-668.32154 311.07708,-667.81112 313.33752,-666.79032 C 316.00624,-665.57988 317.8729,-663.5455 318.93752,-660.68719 C 319.78332,-658.44134 320.20624,-655.80176 320.20627,-652.76844 C 320.20624,-649.7351 319.68853,-647.10281 318.65314,-644.87157 C 317.38436,-642.18823 315.42291,-640.32157 312.76877,-639.27157 C 310.78541,-638.48407 308.50312,-638.09032 305.92189,-638.09032 C 302.56771,-638.09032 299.64376,-638.7174 297.15002,-639.97157 C 295.06459,-641.02157 293.46772,-642.66219 292.35939,-644.89344 C 291.26564,-647.13927 290.71877,-649.85906 290.71877,-653.05282 C 290.71877,-658.7403 292.13335,-662.79446 294.96252,-665.21532 C 297.35418,-667.25696 300.85417,-668.29237 305.46252,-668.32157 M 305.50627,-663.29032 C 302.575,-663.29029 300.47501,-662.33509 299.20627,-660.42469 C 298.21459,-658.93717 297.71876,-656.54551 297.71877,-653.24969 C 297.71876,-649.74968 298.34584,-647.17573 299.60002,-645.52782 C 300.83959,-643.90906 302.81563,-643.09969 305.52814,-643.09969 C 308.15312,-643.09969 310.08541,-643.91636 311.32502,-645.54969 C 312.57916,-647.1976 313.20624,-649.74239 313.20627,-653.18407 C 313.20624,-656.30488 312.70312,-658.68926 311.69689,-660.33719 C 310.51562,-662.29134 308.45208,-663.27571 305.50627,-663.29032"
   id="text3177" />
<path
   transform="scale(1.0181902,-0.9821348)"
   style="font-size:45.60830307px;font-style:normal;font-variant:normal;font-weight:normal;font-stretch:normal;text-align:start;line-height:100%;writing-mode:lr-tb;text-anchor:start;fill:#000000;fill-opacity:1;stroke:#004cff;stroke-width:0.2443302;stroke-miterlimit:4;stroke-opacity:1;font-family:HandelGotDBol;-inkscape-font-specification:HandelGotDBol"
   d="M 326.93674,-674.4148 L 317.24943,-674.4148 L 317.24943,-679.82633 L 343.46084,-679.82633 L 343.46084,-674.4148 L 333.39495,-674.4148 L 333.39495,-649.42822 L 326.93674,-649.42822 L 326.93674,-674.4148 M 369.58318,-679.82633 L 369.58318,-674.4148 L 361.14297,-674.4148 C 358.93083,-674.41478 357.31999,-674.25889 356.31045,-673.94714 C 355.31572,-673.65019 354.48432,-673.06375 353.81624,-672.18783 C 353.37084,-671.59395 353.06649,-670.99267 352.90319,-670.38399 C 352.73987,-669.77527 352.59883,-668.73602 352.48006,-667.26624 L 369.58318,-667.26624 L 369.58318,-661.8547 L 352.48006,-661.8547 C 352.70275,-659.22687 353.46734,-657.40076 354.77384,-656.37636 C 356.08032,-655.35195 358.29986,-654.83975 361.43247,-654.83975 L 369.58318,-654.83975 L 369.58318,-649.42822 L 361.14297,-649.42822 C 358.8566,-649.42822 356.84491,-649.56926 355.10789,-649.85135 C 352.37613,-650.29674 350.20113,-651.49188 348.58287,-653.43676 C 346.28167,-656.22789 345.13107,-660.01373 345.13107,-664.7943 C 345.13107,-670.09446 346.75675,-674.21435 350.00813,-677.15397 C 351.12161,-678.14866 352.30932,-678.83902 353.57128,-679.22505 C 354.83321,-679.62588 356.52571,-679.8263 358.64876,-679.82633 L 369.58318,-679.82633 M 397.8434,-654.83975 L 397.8434,-649.42822 L 387.24303,-649.42822 C 385.2239,-649.42822 383.67987,-649.53215 382.61094,-649.74 C 378.88447,-650.46747 376.23438,-652.5534 374.66066,-655.99778 C 373.62141,-658.29897 373.10179,-661.14949 373.10179,-664.54933 C 373.10179,-668.63209 373.89607,-671.95769 375.48464,-674.52615 C 376.62781,-676.36708 378.157,-677.71069 380.0722,-678.55696 C 382.00223,-679.40318 384.49643,-679.8263 387.55481,-679.82633 L 397.8434,-679.82633 L 397.8434,-674.4148 L 388.28971,-674.4148 C 385.39464,-674.41478 383.2716,-673.64276 381.92058,-672.09876 C 380.80709,-670.82194 380.25035,-668.5059 380.25035,-665.15062 C 380.25035,-660.66698 381.11886,-657.71996 382.85591,-656.30955 C 384.0733,-655.32968 385.96622,-654.83975 388.53468,-654.83975 L 397.8434,-654.83975 M 408.62192,-671.72017 L 408.62192,-649.42822 L 402.45322,-649.42822 L 402.45322,-679.82633 L 410.73754,-679.82633 L 422.82998,-657.17807 L 422.82998,-679.82633 L 428.99868,-679.82633 L 428.99868,-649.42822 L 421.02613,-649.42822 L 408.62192,-671.72017 M 435.23419,-649.42822 L 435.23419,-679.82633 L 441.6924,-679.82633 L 441.6924,-649.42822 L 435.23419,-649.42822 M 444.94377,-649.42822 L 457.52614,-679.82633 L 464.98648,-679.82633 L 477.56885,-649.42822 L 469.97489,-649.42822 L 467.03529,-656.46544 L 455.47733,-656.46544 L 452.53773,-649.42822 L 444.94377,-649.42822 M 461.26744,-672.52188 L 456.92485,-661.87697 L 465.58776,-661.87697 L 461.26744,-672.52188"
   id="text3183" />
</g></g></svg>
