<?xml version="1.0" encoding="utf-8"?>
<!-- Generator: Adobe Illustrator 16.0.0, SVG Export Plug-In . SVG Version: 6.00 Build 0)  -->
<!DOCTYPE svg PUBLIC "-//W3C//DTD SVG 1.1//EN" "http://www.w3.org/Graphics/SVG/1.1/DTD/svg11.dtd">
<svg version="1.1" id="Capa_1" xmlns="http://www.w3.org/2000/svg" xmlns:xlink="http://www.w3.org/1999/xlink" x="0px" y="0px"
	 width="595.28px" height="841.89px" viewBox="0 0 595.28 841.89" enable-background="new 0 0 595.28 841.89" xml:space="preserve">
<rect y="508" fill="#1A3946" width="595" height="334"/>
<rect x="286" y="228" fill="#1A3946" width="309" height="280"/>
<g>
	<g>
		<path fill="#3497D3" d="M225.341,122.761c0-4.094,0.588-7.893,1.769-11.393c1.177-3.497,2.744-6.464,4.697-8.898
			c1.951-2.436,4.192-4.522,6.725-6.262c2.531-1.74,5.14-3.017,7.829-3.828c2.685-0.812,5.361-1.218,8.029-1.218
			c4.601,0,8.466,0.83,11.598,2.494c3.131,1.662,5.489,3.712,7.075,6.146V76.318c0-1.779,0.647-3.313,1.941-4.609
			c1.297-1.295,2.831-1.942,4.61-1.942c1.777,0,3.303,0.647,4.58,1.942c1.275,1.296,1.913,2.83,1.913,4.609v71.493
			c0,1.777-0.638,3.304-1.913,4.581c-1.277,1.274-2.803,1.913-4.58,1.913c-1.78,0-3.313-0.638-4.61-1.913
			c-1.294-1.276-1.941-2.803-1.941-4.581v-4.177c-0.233,2.631-2.205,5.084-5.916,7.363c-3.71,2.283-7.963,3.424-12.756,3.424
			c-2.668,0-5.344-0.397-8.029-1.189c-2.689-0.792-5.298-2.049-7.829-3.771c-2.533-1.718-4.774-3.796-6.725-6.232
			c-1.953-2.436-3.52-5.422-4.697-8.958C225.93,130.735,225.341,126.899,225.341,122.761 M238.387,122.761
			c0,3.209,0.531,6.148,1.595,8.815c1.063,2.667,2.443,4.823,4.145,6.465c1.702,1.644,3.586,2.907,5.654,3.798
			c2.067,0.889,4.165,1.334,6.292,1.334c2.241,0,4.386-0.396,6.436-1.19c2.047-0.791,3.914-1.971,5.595-3.537
			c1.682-1.563,3.024-3.7,4.029-6.408c1.005-2.705,1.507-5.796,1.507-9.277c0-3.515-0.502-6.618-1.507-9.304
			c-1.004-2.688-2.356-4.813-4.059-6.379c-1.7-1.564-3.557-2.735-5.565-3.507c-2.012-0.773-4.157-1.159-6.436-1.159
			c-2.127,0-4.226,0.442-6.292,1.331c-2.068,0.89-3.952,2.167-5.654,3.828c-1.702,1.664-3.082,3.818-4.145,6.464
			C238.918,116.685,238.387,119.593,238.387,122.761"/>
		<path fill="#3497D3" d="M297.995,122.761c0-5.063,0.899-9.662,2.695-13.799c1.798-4.134,4.127-7.46,6.988-9.972
			c2.859-2.512,5.971-4.444,9.334-5.799c3.361-1.353,6.727-2.029,10.086-2.029c4.564,0,8.411,0.83,11.541,2.494
			c3.131,1.662,5.487,3.712,7.074,6.146v-2.145c0-1.778,0.646-3.305,1.942-4.582c1.294-1.275,2.831-1.913,4.61-1.913
			c1.777,0,3.305,0.638,4.58,1.913c1.275,1.276,1.913,2.804,1.913,4.582v50.156c0,1.777-0.638,3.304-1.913,4.581
			c-1.275,1.274-2.803,1.913-4.58,1.913c-1.779,0-3.316-0.638-4.61-1.913c-1.296-1.276-1.942-2.803-1.942-4.581v-4.177
			c-0.232,2.631-2.193,5.084-5.887,7.363c-3.689,2.283-7.933,3.424-12.729,3.424c-2.664,0-5.343-0.397-8.029-1.189
			c-2.686-0.792-5.304-2.049-7.855-3.771c-2.551-1.718-4.805-3.796-6.755-6.232c-1.952-2.436-3.517-5.422-4.696-8.958
			C298.583,130.735,297.995,126.899,297.995,122.761 M311.039,122.761c0,3.209,0.531,6.148,1.596,8.815
			c1.061,2.667,2.443,4.823,4.143,6.465c1.703,1.644,3.586,2.907,5.655,3.798c2.066,0.889,4.163,1.334,6.292,1.334
			c2.242,0,4.387-0.396,6.436-1.19c2.047-0.791,3.916-1.971,5.597-3.537c1.679-1.563,3.021-3.7,4.028-6.408
			c1.004-2.705,1.508-5.796,1.508-9.277c0-3.515-0.504-6.618-1.508-9.304c-1.007-2.688-2.358-4.813-4.059-6.379
			c-1.7-1.564-3.558-2.735-5.566-3.507c-2.01-0.773-4.156-1.159-6.436-1.159c-2.129,0-4.226,0.442-6.292,1.331
			c-2.069,0.89-3.952,2.167-5.655,3.828c-1.699,1.664-3.082,3.818-4.143,6.464C311.57,116.685,311.039,119.593,311.039,122.761"/>
		<path fill="#3497D3" d="M373.023,147.812v-49.75c0-1.777,0.646-3.314,1.94-4.61c1.296-1.294,2.831-1.943,4.612-1.943
			c1.775,0,3.303,0.648,4.578,1.943c1.277,1.296,1.914,2.833,1.914,4.61v5.101c2.553-3.479,5.711-6.327,9.48-8.552
			c3.768-2.222,7.779-3.333,12.031-3.333c2.165,0,3.875,0.569,5.131,1.708c1.257,1.141,1.884,2.581,1.884,4.321
			c0,1.74-0.636,3.208-1.912,4.406c-1.274,1.199-2.86,1.797-4.755,1.797h-2.029c-4.794,0-8.891,1.199-12.292,3.595
			c-3.402,2.397-5.913,5.702-7.538,9.914v30.791c0,1.777-0.637,3.304-1.914,4.58c-1.275,1.275-2.803,1.915-4.578,1.915
			c-1.781,0-3.316-0.64-4.612-1.915C373.67,151.116,373.023,149.589,373.023,147.812"/>
		<path fill="#3497D3" d="M418.732,122.761c0-4.094,0.59-7.893,1.77-11.393c1.177-3.497,2.742-6.464,4.697-8.898
			c1.949-2.436,4.192-4.522,6.726-6.262c2.529-1.74,5.139-3.017,7.827-3.828c2.685-0.812,5.363-1.218,8.029-1.218
			c4.601,0,8.465,0.83,11.597,2.494c3.131,1.662,5.489,3.712,7.072,6.146v-2.145c0-1.778,0.647-3.305,1.942-4.582
			c1.295-1.275,2.832-1.913,4.609-1.913c1.779,0,3.306,0.638,4.579,1.913c1.277,1.276,1.915,2.804,1.915,4.582v55.953
			c0,2.938-0.442,5.654-1.334,8.148c-0.89,2.493-2.097,4.598-3.624,6.319c-1.525,1.719-3.245,3.237-5.158,4.551
			c-1.916,1.315-3.971,2.35-6.176,3.103c-2.205,0.753-4.33,1.314-6.378,1.681c-2.05,0.369-4.057,0.553-6.031,0.553
			c-5.565,0-10.88-1.122-15.943-3.362c-0.928-0.429-1.673-1.074-2.233-1.943c-0.561-0.872-0.841-1.827-0.841-2.87
			c0-1.469,0.524-2.735,1.567-3.798c1.042-1.064,2.299-1.597,3.767-1.597c0.736,0,1.297,0.08,1.685,0.241
			c3.862,1.386,7.863,2.078,11.999,2.078c4.678,0,8.456-1.211,11.337-3.631c2.878-2.423,4.318-5.572,4.318-9.445v-10.001
			c-0.23,2.631-2.202,5.084-5.91,7.363c-3.714,2.283-7.967,3.424-12.759,3.424c-2.666,0-5.345-0.397-8.029-1.189
			c-2.688-0.792-5.298-2.049-7.827-3.771c-2.533-1.718-4.776-3.796-6.726-6.232c-1.955-2.436-3.521-5.422-4.697-8.958
			C419.322,130.735,418.732,126.899,418.732,122.761 M431.777,122.761c0,3.209,0.533,6.148,1.597,8.815
			c1.062,2.667,2.441,4.823,4.145,6.465c1.699,1.644,3.585,2.907,5.653,3.798c2.067,0.889,4.165,1.334,6.29,1.334
			c2.242,0,4.389-0.396,6.438-1.19c2.046-0.791,3.914-1.971,5.595-3.537c1.681-1.563,3.021-3.7,4.028-6.408
			c1.006-2.705,1.508-5.796,1.508-9.277c0-3.515-0.502-6.618-1.508-9.304c-1.007-2.688-2.358-4.813-4.058-6.379
			c-1.701-1.564-3.557-2.735-5.565-3.507c-2.012-0.773-4.155-1.159-6.438-1.159c-2.125,0-4.223,0.442-6.29,1.331
			c-2.068,0.89-3.954,2.167-5.653,3.828c-1.703,1.664-3.083,3.818-4.145,6.464C432.311,116.685,431.777,119.593,431.777,122.761"/>
		<path fill="#3497D3" d="M489.585,122.879c0-4.097,0.659-7.924,1.975-11.479c1.313-3.559,3.034-6.546,5.159-8.959
			c2.125-2.417,4.553-4.494,7.277-6.234c2.724-1.74,5.479-3.017,8.26-3.827c2.784-0.813,5.51-1.219,8.178-1.219
			c2.667,0,5.402,0.406,8.204,1.219c2.803,0.81,5.556,2.086,8.264,3.827c2.703,1.74,5.131,3.817,7.277,6.234
			c2.146,2.414,3.874,5.401,5.188,8.959c1.313,3.555,1.971,7.382,1.971,11.479c0,4.136-0.657,7.971-1.971,11.509
			c-1.314,3.538-3.043,6.503-5.188,8.899c-2.146,2.396-4.582,4.456-7.31,6.176c-2.723,1.72-5.477,2.978-8.259,3.77
			c-2.784,0.79-5.51,1.189-8.177,1.189c-2.668,0-5.394-0.399-8.178-1.189c-2.78-0.792-5.536-2.049-8.26-3.77
			c-2.725-1.72-5.152-3.779-7.277-6.176c-2.125-2.396-3.847-5.362-5.159-8.899C490.244,130.85,489.585,127.016,489.585,122.879
			 M502.632,122.879c0,3.266,0.533,6.219,1.596,8.862c1.063,2.644,2.466,4.784,4.201,6.415c1.74,1.633,3.646,2.877,5.714,3.732
			c2.065,0.857,4.162,1.284,6.291,1.284c2.125,0,4.223-0.427,6.29-1.284c2.068-0.854,3.972-2.099,5.711-3.732
			c1.741-1.631,3.15-3.771,4.232-6.415c1.081-2.643,1.623-5.597,1.623-8.862c0-3.305-0.542-6.298-1.623-8.981
			c-1.082-2.682-2.491-4.829-4.232-6.444c-1.739-1.613-3.643-2.856-5.711-3.733c-2.067-0.874-4.165-1.311-6.29-1.311
			c-2.129,0-4.226,0.437-6.291,1.311c-2.068,0.876-3.974,2.12-5.714,3.733c-1.735,1.615-3.139,3.762-4.201,6.444
			C503.165,116.581,502.632,119.574,502.632,122.879"/>
	</g>
	<g>
		<g>
			<defs>
				<path id="SVGID_1_" d="M45.79,41.829v45.439h68.358c17.474,0,31.688,14.214,31.688,31.689c0,17.472-14.214,31.688-31.688,31.688
					H91.23v-36.271H45.79v81.711h68.358c42.529,0,77.128-34.601,77.128-77.127c0-42.53-34.599-77.128-77.128-77.128H45.79z"/>
			</defs>
			<clipPath id="SVGID_2_">
				<use xlink:href="#SVGID_1_"  overflow="visible"/>
			</clipPath>
			
				<linearGradient id="SVGID_3_" gradientUnits="userSpaceOnUse" x1="-498.9873" y1="1020.6191" x2="-497.7915" y2="1020.6191" gradientTransform="matrix(-75.2428 -97.9021 -97.9021 75.2428 62542.2813 -125464.5781)">
				<stop  offset="0" style="stop-color:#3497D3"/>
				<stop  offset="1" style="stop-color:#11ADE4"/>
			</linearGradient>
			<polygon clip-path="url(#SVGID_2_)" fill="url(#SVGID_3_)" points="99.814,266.379 -28.74,99.11 137.252,-28.464 
				265.806,138.804 			"/>
		</g>
		<g opacity="0.24">
			<g>
				<defs>
					<rect id="SVGID_4_" x="45.607" y="41.829" width="71.341" height="45.439"/>
				</defs>
				<clipPath id="SVGID_5_">
					<use xlink:href="#SVGID_4_"  overflow="visible"/>
				</clipPath>
				<g clip-path="url(#SVGID_5_)">
					<defs>
						<path id="SVGID_6_" d="M113.965,41.829H45.607l68.357,45.439l2.984-45.364C115.958,41.868,114.966,41.829,113.965,41.829"/>
					</defs>
					<clipPath id="SVGID_7_">
						<use xlink:href="#SVGID_6_"  overflow="visible"/>
					</clipPath>
					<defs>
						<filter id="Adobe_OpacityMaskFilter" filterUnits="userSpaceOnUse" x="24.372" y="8.49" width="113.811" height="112.118">
							<feColorMatrix  type="matrix" values="1 0 0 0 0  0 1 0 0 0  0 0 1 0 0  0 0 0 1 0"/>
						</filter>
					</defs>
					<mask maskUnits="userSpaceOnUse" x="24.372" y="8.49" width="113.811" height="112.118" id="SVGID_8_">
						<g filter="url(#Adobe_OpacityMaskFilter)">
							
								<linearGradient id="SVGID_9_" gradientUnits="userSpaceOnUse" x1="-506.7988" y1="1027.9805" x2="-505.603" y2="1027.9805" gradientTransform="matrix(30.0808 20.739 20.739 -30.0808 -5997.1577 41494.668)">
								<stop  offset="0" style="stop-color:#4D4D4D"/>
								<stop  offset="1" style="stop-color:#FFFFFF"/>
							</linearGradient>
							<polygon clip-path="url(#SVGID_7_)" fill="url(#SVGID_9_)" points="68.593,8.49 138.184,56.47 93.964,120.608 24.372,72.629 
															"/>
						</g>
					</mask>
					
						<linearGradient id="SVGID_10_" gradientUnits="userSpaceOnUse" x1="-506.7671" y1="1027.9746" x2="-505.5715" y2="1027.9746" gradientTransform="matrix(30.0808 20.7389 20.7389 -30.0808 -5997.9121 41493.8555)">
						<stop  offset="0" style="stop-color:#19181C"/>
						<stop  offset="1" style="stop-color:#19181C"/>
					</linearGradient>
					<polygon clip-path="url(#SVGID_7_)" mask="url(#SVGID_8_)" fill="url(#SVGID_10_)" points="68.592,8.49 138.183,56.47 
						93.964,120.608 24.372,72.629 					"/>
				</g>
			</g>
		</g>
		<g opacity="0.24">
			<g>
				<defs>
					<rect id="SVGID_11_" x="113.965" y="67.359" width="60.103" height="65.303"/>
				</defs>
				<clipPath id="SVGID_12_">
					<use xlink:href="#SVGID_11_"  overflow="visible"/>
				</clipPath>
				<g clip-path="url(#SVGID_12_)">
					<defs>
						<path id="SVGID_13_" d="M145.652,118.958c0,4.907-1.12,9.556-3.12,13.705l31.536-61.961c-0.914-1.139-1.854-2.257-2.832-3.342
							l-57.271,19.909C131.438,87.269,145.652,101.484,145.652,118.958"/>
					</defs>
					<clipPath id="SVGID_14_">
						<use xlink:href="#SVGID_13_"  overflow="visible"/>
					</clipPath>
					<defs>
						
							<filter id="Adobe_OpacityMaskFilter_1_" filterUnits="userSpaceOnUse" x="91.158" y="46.37" width="105.717" height="107.284">
							<feColorMatrix  type="matrix" values="1 0 0 0 0  0 1 0 0 0  0 0 1 0 0  0 0 0 1 0"/>
						</filter>
					</defs>
					<mask maskUnits="userSpaceOnUse" x="91.158" y="46.37" width="105.717" height="107.284" id="SVGID_15_">
						<g filter="url(#Adobe_OpacityMaskFilter_1_)">
							
								<linearGradient id="SVGID_16_" gradientUnits="userSpaceOnUse" x1="-516.7642" y1="1026.2725" x2="-515.5685" y2="1026.2725" gradientTransform="matrix(7.125 17.5 17.5 -7.125 -14140.4648 16439.2148)">
								<stop  offset="0" style="stop-color:#4D4D4D"/>
								<stop  offset="1" style="stop-color:#FFFFFF"/>
							</linearGradient>
							<polygon clip-path="url(#SVGID_14_)" fill="url(#SVGID_16_)" points="165.521,46.37 196.875,123.377 122.511,153.654 
								91.158,76.647 							"/>
						</g>
					</mask>
					
						<linearGradient id="SVGID_17_" gradientUnits="userSpaceOnUse" x1="-516.7642" y1="1026.2725" x2="-515.5685" y2="1026.2725" gradientTransform="matrix(7.125 17.5 17.5 -7.125 -14140.4648 16439.2148)">
						<stop  offset="0" style="stop-color:#19181C"/>
						<stop  offset="1" style="stop-color:#19181C"/>
					</linearGradient>
					<polygon clip-path="url(#SVGID_14_)" mask="url(#SVGID_15_)" fill="url(#SVGID_17_)" points="165.521,46.37 196.875,123.377 
						122.511,153.654 91.158,76.647 					"/>
				</g>
			</g>
		</g>
		<g opacity="0.24">
			<g>
				<defs>
					<rect id="SVGID_18_" x="142.017" y="133.676" width="47.649" height="55.048"/>
				</defs>
				<clipPath id="SVGID_19_">
					<use xlink:href="#SVGID_18_"  overflow="visible"/>
				</clipPath>
				<g clip-path="url(#SVGID_19_)">
					<defs>
						<path id="SVGID_20_" d="M146.807,188.724c21.871-10.337,38.126-30.657,42.859-55.048h-47.649L146.807,188.724z"/>
					</defs>
					<clipPath id="SVGID_21_">
						<use xlink:href="#SVGID_20_"  overflow="visible"/>
					</clipPath>
					<defs>
						
							<filter id="Adobe_OpacityMaskFilter_2_" filterUnits="userSpaceOnUse" x="118.381" y="113.216" width="94.92" height="95.966">
							<feColorMatrix  type="matrix" values="1 0 0 0 0  0 1 0 0 0  0 0 1 0 0  0 0 0 1 0"/>
						</filter>
					</defs>
					<mask maskUnits="userSpaceOnUse" x="118.381" y="113.216" width="94.92" height="95.966" id="SVGID_22_">
						<g filter="url(#Adobe_OpacityMaskFilter_2_)">
							
								<linearGradient id="SVGID_23_" gradientUnits="userSpaceOnUse" x1="-509.2993" y1="1016.6367" x2="-508.1038" y2="1016.6367" gradientTransform="matrix(-14.6667 25.8333 25.8333 14.6667 -33561.1055 -1602.9803)">
								<stop  offset="0" style="stop-color:#4D4D4D"/>
								<stop  offset="1" style="stop-color:#FFFFFF"/>
							</linearGradient>
							<polygon clip-path="url(#SVGID_21_)" fill="url(#SVGID_23_)" points="213.301,147.096 178.051,209.183 118.381,175.306 
								153.631,113.216 							"/>
						</g>
					</mask>
					
						<linearGradient id="SVGID_24_" gradientUnits="userSpaceOnUse" x1="-509.2993" y1="1016.6367" x2="-508.1038" y2="1016.6367" gradientTransform="matrix(-14.6667 25.8333 25.8333 14.6667 -33561.1133 -1602.9803)">
						<stop  offset="0" style="stop-color:#19181C"/>
						<stop  offset="1" style="stop-color:#19181C"/>
					</linearGradient>
					<polygon clip-path="url(#SVGID_21_)" mask="url(#SVGID_22_)" fill="url(#SVGID_24_)" points="213.301,147.096 178.051,209.183 
						118.381,175.306 153.631,113.216 					"/>
				</g>
			</g>
		</g>
		<g opacity="0.24">
			<g>
				<defs>
					<rect id="SVGID_25_" x="45.607" y="150.645" width="101.191" height="45.44"/>
				</defs>
				<clipPath id="SVGID_26_">
					<use xlink:href="#SVGID_25_"  overflow="visible"/>
				</clipPath>
				<g clip-path="url(#SVGID_26_)">
					<defs>
						<path id="SVGID_27_" d="M146.798,188.727l-55.752-38.082l-45.438,45.44h68.357
							C125.703,196.085,136.829,193.439,146.798,188.727"/>
					</defs>
					<clipPath id="SVGID_28_">
						<use xlink:href="#SVGID_27_"  overflow="visible"/>
					</clipPath>
					<defs>
						
							<filter id="Adobe_OpacityMaskFilter_3_" filterUnits="userSpaceOnUse" x="45.607" y="150.645" width="101.191" height="45.44">
							<feColorMatrix  type="matrix" values="1 0 0 0 0  0 1 0 0 0  0 0 1 0 0  0 0 0 1 0"/>
						</filter>
					</defs>
					<mask maskUnits="userSpaceOnUse" x="45.607" y="150.645" width="101.191" height="45.44" id="SVGID_29_">
						<g filter="url(#Adobe_OpacityMaskFilter_3_)">
							
								<linearGradient id="SVGID_30_" gradientUnits="userSpaceOnUse" x1="-501.5513" y1="1025.4736" x2="-500.3555" y2="1025.4736" gradientTransform="matrix(84.6246 0 0 -84.6246 42489.1836 86953.6406)">
								<stop  offset="0" style="stop-color:#4D4D4D"/>
								<stop  offset="1" style="stop-color:#FFFFFF"/>
							</linearGradient>
							<rect x="45.607" y="150.645" clip-path="url(#SVGID_28_)" fill="url(#SVGID_30_)" width="101.191" height="45.44"/>
						</g>
					</mask>
					
						<linearGradient id="SVGID_31_" gradientUnits="userSpaceOnUse" x1="-501.5513" y1="1025.4736" x2="-500.3555" y2="1025.4736" gradientTransform="matrix(84.6246 0 0 -84.6246 42489.1836 86953.6406)">
						<stop  offset="0" style="stop-color:#19181C"/>
						<stop  offset="1" style="stop-color:#19181C"/>
					</linearGradient>
					
						<rect x="45.607" y="150.645" clip-path="url(#SVGID_28_)" mask="url(#SVGID_29_)" fill="url(#SVGID_31_)" width="101.191" height="45.44"/>
				</g>
			</g>
		</g>
		<g opacity="0.24">
			<g>
				<defs>
					<rect id="SVGID_32_" x="45.607" y="114.374" width="45.438" height="36.271"/>
				</defs>
				<clipPath id="SVGID_33_">
					<use xlink:href="#SVGID_32_"  overflow="visible"/>
				</clipPath>
				<g clip-path="url(#SVGID_33_)">
					<defs>
						<polygon id="SVGID_34_" points="91.046,114.374 45.607,114.374 91.046,150.645 						"/>
					</defs>
					<clipPath id="SVGID_35_">
						<use xlink:href="#SVGID_34_"  overflow="visible"/>
					</clipPath>
					<defs>
						
							<filter id="Adobe_OpacityMaskFilter_4_" filterUnits="userSpaceOnUse" x="45.607" y="114.374" width="45.438" height="36.271">
							<feColorMatrix  type="matrix" values="1 0 0 0 0  0 1 0 0 0  0 0 1 0 0  0 0 0 1 0"/>
						</filter>
					</defs>
					<mask maskUnits="userSpaceOnUse" x="45.607" y="114.374" width="45.438" height="36.271" id="SVGID_36_">
						<g filter="url(#Adobe_OpacityMaskFilter_4_)">
							
								<linearGradient id="SVGID_37_" gradientUnits="userSpaceOnUse" x1="-502.2217" y1="1029.917" x2="-501.0259" y2="1029.917" gradientTransform="matrix(38 0 0 -38 19130.0313 39269.3438)">
								<stop  offset="0" style="stop-color:#4D4D4D"/>
								<stop  offset="1" style="stop-color:#FFFFFF"/>
							</linearGradient>
							<rect x="45.607" y="114.374" clip-path="url(#SVGID_35_)" fill="url(#SVGID_37_)" width="45.438" height="36.271"/>
						</g>
					</mask>
					
						<linearGradient id="SVGID_38_" gradientUnits="userSpaceOnUse" x1="-502.2217" y1="1029.917" x2="-501.0259" y2="1029.917" gradientTransform="matrix(38 0 0 -38 19130.0313 39269.3438)">
						<stop  offset="0" style="stop-color:#19181C"/>
						<stop  offset="1" style="stop-color:#19181C"/>
					</linearGradient>
					
						<rect x="45.607" y="114.374" clip-path="url(#SVGID_35_)" mask="url(#SVGID_36_)" fill="url(#SVGID_38_)" width="45.438" height="36.271"/>
				</g>
			</g>
		</g>
		<g opacity="0.06">
			<g>
				<defs>
					<rect id="SVGID_39_" x="45.607" y="114.374" width="45.438" height="36.271"/>
				</defs>
				<clipPath id="SVGID_40_">
					<use xlink:href="#SVGID_39_"  overflow="visible"/>
				</clipPath>
				<polygon clip-path="url(#SVGID_40_)" fill="#FFFFFF" points="91.046,150.645 45.791,150.645 45.607,114.374 				"/>
			</g>
		</g>
	</g>
</g>
<g>
	<g>
		<path fill="#3497D3" d="M29.962,447.58c0-2.975,0.428-5.733,1.286-8.279c0.855-2.54,1.994-4.695,3.413-6.464
			c1.418-1.771,3.046-3.287,4.887-4.551c1.839-1.264,3.735-2.192,5.688-2.781c1.952-0.591,3.896-0.888,5.834-0.888
			c3.344,0,6.152,0.607,8.428,1.813c2.274,1.21,3.988,2.696,5.141,4.466v-17.062c0-1.292,0.47-2.408,1.41-3.349
			c0.942-0.94,2.057-1.412,3.35-1.412c1.292,0,2.401,0.472,3.328,1.412c0.926,0.941,1.39,2.058,1.39,3.349v51.95
			c0,1.293-0.463,2.401-1.39,3.327c-0.927,0.928-2.037,1.391-3.328,1.391c-1.293,0-2.408-0.463-3.35-1.391
			c-0.939-0.926-1.41-2.034-1.41-3.327v-3.032c-0.17,1.908-1.602,3.694-4.299,5.349c-2.696,1.658-5.787,2.486-9.27,2.486
			c-1.938,0-3.883-0.288-5.834-0.862c-1.953-0.577-3.849-1.49-5.688-2.74c-1.84-1.249-3.468-2.759-4.887-4.529
			c-1.418-1.768-2.558-3.939-3.413-6.508C30.39,453.377,29.962,450.589,29.962,447.58 M39.442,447.58
			c0,2.334,0.386,4.47,1.159,6.406c0.772,1.938,1.775,3.506,3.012,4.699c1.237,1.193,2.606,2.112,4.109,2.76
			c1.501,0.645,3.026,0.971,4.572,0.971c1.628,0,3.187-0.291,4.675-0.868c1.489-0.575,2.845-1.431,4.066-2.567
			c1.222-1.139,2.198-2.688,2.927-4.658c0.73-1.965,1.095-4.211,1.095-6.742c0-2.553-0.365-4.808-1.095-6.759
			c-0.729-1.954-1.712-3.498-2.949-4.638c-1.235-1.135-2.584-1.987-4.044-2.546c-1.461-0.563-3.02-0.845-4.675-0.845
			c-1.546,0-3.071,0.322-4.572,0.97c-1.503,0.646-2.872,1.573-4.109,2.78c-1.236,1.209-2.24,2.774-3.012,4.697
			C39.829,443.165,39.442,445.281,39.442,447.58"/>
		<path fill="#3497D3" d="M82.755,447.58c0-3.678,0.653-7.021,1.958-10.026c1.307-3.004,2.999-5.42,5.078-7.247
			c2.079-1.823,4.339-3.229,6.783-4.213c2.444-0.982,4.888-1.477,7.329-1.477c3.316,0,6.111,0.607,8.386,1.813
			c2.275,1.21,3.988,2.696,5.139,4.466v-1.559c0-1.291,0.471-2.4,1.413-3.329c0.941-0.925,2.057-1.392,3.35-1.392
			c1.292,0,2.402,0.467,3.328,1.392c0.926,0.929,1.39,2.038,1.39,3.329v36.446c0,1.293-0.464,2.401-1.39,3.327
			c-0.926,0.928-2.037,1.391-3.328,1.391c-1.293,0-2.409-0.463-3.35-1.391c-0.942-0.926-1.413-2.034-1.413-3.327v-3.032
			c-0.167,1.908-1.593,3.694-4.276,5.349c-2.682,1.658-5.764,2.486-9.25,2.486c-1.936,0-3.883-0.288-5.834-0.862
			c-1.952-0.577-3.854-1.49-5.708-2.74c-1.854-1.249-3.491-2.759-4.909-4.529c-1.419-1.768-2.556-3.939-3.413-6.508
			C83.182,453.377,82.755,450.589,82.755,447.58 M92.235,447.58c0,2.334,0.385,4.47,1.159,6.406c0.77,1.938,1.774,3.506,3.01,4.699
			c1.237,1.193,2.605,2.112,4.109,2.76c1.501,0.645,3.025,0.971,4.572,0.971c1.629,0,3.187-0.291,4.677-0.868
			c1.487-0.575,2.845-1.431,4.066-2.567c1.22-1.139,2.197-2.688,2.927-4.658c0.73-1.965,1.095-4.211,1.095-6.742
			c0-2.553-0.365-4.808-1.095-6.759c-0.73-1.954-1.714-3.498-2.949-4.638c-1.235-1.135-2.584-1.987-4.044-2.546
			c-1.461-0.563-3.021-0.845-4.677-0.845c-1.546,0-3.07,0.322-4.572,0.97c-1.504,0.646-2.872,1.573-4.109,2.78
			c-1.236,1.209-2.24,2.774-3.01,4.697C92.62,443.165,92.235,445.281,92.235,447.58"/>
		<path fill="#3497D3" d="M137.275,465.784v-36.151c0-1.289,0.47-2.408,1.41-3.351c0.942-0.938,2.057-1.41,3.35-1.41
			c1.292,0,2.401,0.472,3.327,1.41c0.929,0.942,1.391,2.062,1.391,3.351v3.708c1.854-2.527,4.151-4.599,6.89-6.214
			c2.738-1.615,5.651-2.423,8.742-2.423c1.573,0,2.814,0.413,3.728,1.243c0.913,0.829,1.37,1.875,1.37,3.138
			c0,1.266-0.464,2.332-1.391,3.202c-0.926,0.872-2.079,1.306-3.455,1.306h-1.475c-3.484,0-6.46,0.873-8.932,2.614
			c-2.473,1.741-4.297,4.141-5.478,7.203v22.374c0,1.293-0.461,2.401-1.391,3.327c-0.926,0.928-2.036,1.393-3.327,1.393
			c-1.293,0-2.408-0.465-3.35-1.393C137.745,468.186,137.275,467.077,137.275,465.784"/>
		<path fill="#3497D3" d="M170.488,447.58c0-2.975,0.429-5.733,1.287-8.279c0.854-2.54,1.992-4.695,3.412-6.464
			c1.417-1.771,3.046-3.287,4.888-4.551c1.838-1.264,3.734-2.192,5.687-2.781c1.952-0.591,3.898-0.888,5.834-0.888
			c3.343,0,6.152,0.607,8.428,1.813c2.274,1.21,3.988,2.696,5.138,4.466v-1.559c0-1.291,0.47-2.4,1.412-3.329
			c0.94-0.925,2.057-1.392,3.349-1.392c1.293,0,2.403,0.467,3.328,1.392c0.929,0.929,1.392,2.038,1.392,3.329v40.659
			c0,2.134-0.322,4.108-0.969,5.922c-0.646,1.81-1.525,3.341-2.634,4.593c-1.108,1.247-2.359,2.351-3.749,3.303
			c-1.391,0.957-2.885,1.709-4.486,2.257c-1.604,0.546-3.147,0.954-4.635,1.221c-1.489,0.268-2.948,0.401-4.382,0.401
			c-4.043,0-7.907-0.813-11.586-2.442c-0.673-0.312-1.215-0.781-1.623-1.413c-0.407-0.633-0.61-1.327-0.61-2.086
			c0-1.067,0.38-1.985,1.138-2.76c0.757-0.773,1.67-1.159,2.738-1.159c0.535,0,0.942,0.059,1.224,0.176
			c2.807,1.006,5.714,1.51,8.719,1.51c3.399,0,6.145-0.881,8.237-2.638c2.091-1.763,3.138-4.05,3.138-6.862v-7.267
			c-0.167,1.908-1.601,3.694-4.294,5.349c-2.699,1.658-5.79,2.486-9.272,2.486c-1.937,0-3.883-0.288-5.834-0.862
			c-1.953-0.577-3.849-1.49-5.687-2.74c-1.841-1.249-3.47-2.759-4.888-4.529c-1.419-1.768-2.557-3.939-3.412-6.508
			C170.917,453.377,170.488,450.589,170.488,447.58 M179.968,447.58c0,2.334,0.386,4.47,1.158,6.406
			c0.773,1.938,1.776,3.506,3.014,4.699c1.235,1.193,2.605,2.112,4.108,2.76c1.502,0.645,3.025,0.971,4.571,0.971
			c1.628,0,3.188-0.291,4.677-0.868c1.487-0.575,2.843-1.431,4.065-2.567c1.22-1.139,2.196-2.688,2.927-4.658
			c0.73-1.965,1.095-4.211,1.095-6.742c0-2.553-0.365-4.808-1.095-6.759c-0.731-1.954-1.714-3.498-2.95-4.638
			c-1.235-1.135-2.584-1.987-4.043-2.546c-1.462-0.563-3.02-0.845-4.677-0.845c-1.545,0-3.069,0.322-4.571,0.97
			c-1.503,0.646-2.873,1.573-4.108,2.78c-1.238,1.209-2.241,2.774-3.014,4.697C180.354,443.165,179.968,445.281,179.968,447.58"/>
		<path fill="#3497D3" d="M221.974,447.669c0-2.978,0.479-5.761,1.434-8.343c0.955-2.586,2.205-4.758,3.749-6.511
			c1.544-1.756,3.307-3.266,5.288-4.529c1.979-1.264,3.981-2.192,6.003-2.781c2.022-0.591,4.003-0.888,5.941-0.888
			c1.938,0,3.925,0.297,5.961,0.888c2.037,0.589,4.038,1.518,6.004,2.781c1.965,1.264,3.729,2.773,5.287,4.529
			c1.561,1.753,2.816,3.925,3.771,6.511c0.954,2.582,1.431,5.365,1.431,8.343c0,3.005-0.478,5.791-1.431,8.36
			c-0.956,2.571-2.211,4.727-3.771,6.468c-1.559,1.741-3.329,3.238-5.31,4.487c-1.979,1.25-3.98,2.163-6.002,2.74
			c-2.023,0.574-4.004,0.862-5.941,0.862c-1.938,0-3.919-0.288-5.941-0.862c-2.022-0.577-4.024-1.49-6.003-2.74
			c-1.981-1.249-3.744-2.746-5.288-4.487c-1.544-1.741-2.794-3.896-3.749-6.468C222.453,453.46,221.974,450.674,221.974,447.669
			 M231.454,447.669c0,2.372,0.387,4.52,1.159,6.438c0.772,1.922,1.792,3.478,3.053,4.661c1.264,1.187,2.649,2.092,4.151,2.711
			c1.502,0.625,3.025,0.937,4.572,0.937c1.544,0,3.068-0.312,4.571-0.937c1.502-0.619,2.886-1.524,4.15-2.711
			c1.265-1.184,2.29-2.739,3.075-4.661c0.787-1.919,1.18-4.066,1.18-6.438c0-2.403-0.394-4.578-1.18-6.527
			c-0.785-1.948-1.81-3.51-3.075-4.683c-1.264-1.172-2.647-2.075-4.15-2.714c-1.502-0.635-3.027-0.952-4.571-0.952
			c-1.547,0-3.07,0.317-4.572,0.952c-1.501,0.639-2.887,1.542-4.151,2.714c-1.261,1.173-2.281,2.734-3.053,4.683
			C231.84,443.091,231.454,445.266,231.454,447.669"/>
	</g>
	<g>
		<g>
			<defs>
				<path id="SVGID_41_" d="M95.652,275.721v33.018h49.673c12.696,0,23.025,10.328,23.025,23.025
					c0,12.697-10.33,23.026-23.025,23.026h-16.655v-26.356H95.652v59.375h49.673c30.901,0,56.044-25.141,56.044-56.045
					c0-30.903-25.143-56.043-56.044-56.043H95.652z"/>
			</defs>
			<clipPath id="SVGID_42_">
				<use xlink:href="#SVGID_41_"  overflow="visible"/>
			</clipPath>
			
				<linearGradient id="SVGID_43_" gradientUnits="userSpaceOnUse" x1="-500.3267" y1="1021.4766" x2="-499.4579" y2="1021.4766" gradientTransform="matrix(-75.2428 -97.9021 -97.9021 75.2428 62542.2813 -125464.5781)">
				<stop  offset="0" style="stop-color:#3497D3"/>
				<stop  offset="1" style="stop-color:#11ADE4"/>
			</linearGradient>
			<polygon clip-path="url(#SVGID_42_)" fill="url(#SVGID_43_)" points="134.909,438.886 41.496,317.343 162.114,224.643 
				255.527,346.185 			"/>
		</g>
		<g opacity="0.24">
			<g>
				<defs>
					<rect id="SVGID_44_" x="95.52" y="275.721" width="51.841" height="33.018"/>
				</defs>
				<clipPath id="SVGID_45_">
					<use xlink:href="#SVGID_44_"  overflow="visible"/>
				</clipPath>
				<g clip-path="url(#SVGID_45_)">
					<defs>
						<path id="SVGID_46_" d="M145.191,275.721H95.52l49.671,33.018l2.17-32.963C146.639,275.749,145.918,275.721,145.191,275.721"
							/>
					</defs>
					<clipPath id="SVGID_47_">
						<use xlink:href="#SVGID_46_"  overflow="visible"/>
					</clipPath>
					<defs>
						<filter id="Adobe_OpacityMaskFilter_5_" filterUnits="userSpaceOnUse" x="80.09" y="251.495" width="82.7" height="81.468">
							<feColorMatrix  type="matrix" values="1 0 0 0 0  0 1 0 0 0  0 0 1 0 0  0 0 0 1 0"/>
						</filter>
					</defs>
					<mask maskUnits="userSpaceOnUse" x="80.09" y="251.495" width="82.7" height="81.468" id="SVGID_48_">
						<g filter="url(#Adobe_OpacityMaskFilter_5_)">
							
								<linearGradient id="SVGID_49_" gradientUnits="userSpaceOnUse" x1="-502.3193" y1="1023.4736" x2="-501.4506" y2="1023.4736" gradientTransform="matrix(30.0808 20.739 20.739 -30.0808 -5997.1577 41494.668)">
								<stop  offset="0" style="stop-color:#4D4D4D"/>
								<stop  offset="1" style="stop-color:#FFFFFF"/>
							</linearGradient>
							<polygon clip-path="url(#SVGID_47_)" fill="url(#SVGID_49_)" points="112.223,251.495 162.79,286.359 130.658,332.963 
								80.09,298.101 							"/>
						</g>
					</mask>
					
						<linearGradient id="SVGID_50_" gradientUnits="userSpaceOnUse" x1="-502.2881" y1="1023.4688" x2="-501.4193" y2="1023.4688" gradientTransform="matrix(30.0808 20.7389 20.7389 -30.0808 -5997.9121 41493.8555)">
						<stop  offset="0" style="stop-color:#19181C"/>
						<stop  offset="1" style="stop-color:#19181C"/>
					</linearGradient>
					<polygon clip-path="url(#SVGID_47_)" mask="url(#SVGID_48_)" fill="url(#SVGID_50_)" points="112.223,251.495 162.79,286.359 
						130.658,332.963 80.09,298.101 					"/>
				</g>
			</g>
		</g>
		<g opacity="0.24">
			<g>
				<defs>
					<rect id="SVGID_51_" x="145.191" y="294.272" width="43.673" height="47.452"/>
				</defs>
				<clipPath id="SVGID_52_">
					<use xlink:href="#SVGID_51_"  overflow="visible"/>
				</clipPath>
				<g clip-path="url(#SVGID_52_)">
					<defs>
						<path id="SVGID_53_" d="M168.217,331.764c0,3.566-0.814,6.945-2.267,9.96l22.914-45.023c-0.664-0.828-1.348-1.64-2.057-2.428
							l-41.616,14.467C157.888,308.739,168.217,319.067,168.217,331.764"/>
					</defs>
					<clipPath id="SVGID_54_">
						<use xlink:href="#SVGID_53_"  overflow="visible"/>
					</clipPath>
					<defs>
						
							<filter id="Adobe_OpacityMaskFilter_6_" filterUnits="userSpaceOnUse" x="128.618" y="279.021" width="76.819" height="77.957">
							<feColorMatrix  type="matrix" values="1 0 0 0 0  0 1 0 0 0  0 0 1 0 0  0 0 0 1 0"/>
						</filter>
					</defs>
					<mask maskUnits="userSpaceOnUse" x="128.618" y="279.021" width="76.819" height="77.957" id="SVGID_55_">
						<g filter="url(#Adobe_OpacityMaskFilter_6_)">
							
								<linearGradient id="SVGID_56_" gradientUnits="userSpaceOnUse" x1="-505.3638" y1="1023.0498" x2="-504.495" y2="1023.0498" gradientTransform="matrix(7.125 17.5 17.5 -7.125 -14140.4648 16439.2148)">
								<stop  offset="0" style="stop-color:#4D4D4D"/>
								<stop  offset="1" style="stop-color:#FFFFFF"/>
							</linearGradient>
							<polygon clip-path="url(#SVGID_54_)" fill="url(#SVGID_56_)" points="182.655,279.021 205.438,334.976 151.401,356.977 
								128.618,301.02 							"/>
						</g>
					</mask>
					
						<linearGradient id="SVGID_57_" gradientUnits="userSpaceOnUse" x1="-505.3638" y1="1023.0498" x2="-504.495" y2="1023.0498" gradientTransform="matrix(7.125 17.5 17.5 -7.125 -14140.4648 16439.2148)">
						<stop  offset="0" style="stop-color:#19181C"/>
						<stop  offset="1" style="stop-color:#19181C"/>
					</linearGradient>
					<polygon clip-path="url(#SVGID_54_)" mask="url(#SVGID_55_)" fill="url(#SVGID_57_)" points="182.655,279.021 205.438,334.976 
						151.401,356.977 128.618,301.02 					"/>
				</g>
			</g>
		</g>
		<g opacity="0.24">
			<g>
				<defs>
					<rect id="SVGID_58_" x="165.575" y="342.458" width="34.624" height="40.001"/>
				</defs>
				<clipPath id="SVGID_59_">
					<use xlink:href="#SVGID_58_"  overflow="visible"/>
				</clipPath>
				<g clip-path="url(#SVGID_59_)">
					<defs>
						<path id="SVGID_60_" d="M169.056,382.46c15.893-7.51,27.703-22.277,31.143-40.001h-34.624L169.056,382.46z"/>
					</defs>
					<clipPath id="SVGID_61_">
						<use xlink:href="#SVGID_60_"  overflow="visible"/>
					</clipPath>
					<defs>
						<filter id="Adobe_OpacityMaskFilter_7_" filterUnits="userSpaceOnUse" x="148.4" y="327.593" width="68.973" height="69.733">
							<feColorMatrix  type="matrix" values="1 0 0 0 0  0 1 0 0 0  0 0 1 0 0  0 0 0 1 0"/>
						</filter>
					</defs>
					<mask maskUnits="userSpaceOnUse" x="148.4" y="327.593" width="68.973" height="69.733" id="SVGID_62_">
						<g filter="url(#Adobe_OpacityMaskFilter_7_)">
							
								<linearGradient id="SVGID_63_" gradientUnits="userSpaceOnUse" x1="-503.5815" y1="1020.4805" x2="-502.7127" y2="1020.4805" gradientTransform="matrix(-14.6667 25.8333 25.8333 14.6667 -33561.1055 -1602.9803)">
								<stop  offset="0" style="stop-color:#4D4D4D"/>
								<stop  offset="1" style="stop-color:#FFFFFF"/>
							</linearGradient>
							<polygon clip-path="url(#SVGID_61_)" fill="url(#SVGID_63_)" points="217.374,352.21 191.759,397.326 148.4,372.709 
								174.015,327.593 							"/>
						</g>
					</mask>
					
						<linearGradient id="SVGID_64_" gradientUnits="userSpaceOnUse" x1="-503.5815" y1="1020.4805" x2="-502.7127" y2="1020.4805" gradientTransform="matrix(-14.6667 25.8333 25.8333 14.6667 -33561.1133 -1602.9803)">
						<stop  offset="0" style="stop-color:#19181C"/>
						<stop  offset="1" style="stop-color:#19181C"/>
					</linearGradient>
					<polygon clip-path="url(#SVGID_61_)" mask="url(#SVGID_62_)" fill="url(#SVGID_64_)" points="217.374,352.21 191.759,397.326 
						148.4,372.709 174.015,327.593 					"/>
				</g>
			</g>
		</g>
		<g opacity="0.24">
			<g>
				<defs>
					<rect id="SVGID_65_" x="95.52" y="354.79" width="73.529" height="33.019"/>
				</defs>
				<clipPath id="SVGID_66_">
					<use xlink:href="#SVGID_65_"  overflow="visible"/>
				</clipPath>
				<g clip-path="url(#SVGID_66_)">
					<defs>
						<path id="SVGID_67_" d="M169.049,382.462l-40.511-27.672L95.52,387.809h49.671
							C153.721,387.809,161.806,385.885,169.049,382.462"/>
					</defs>
					<clipPath id="SVGID_68_">
						<use xlink:href="#SVGID_67_"  overflow="visible"/>
					</clipPath>
					<defs>
						<filter id="Adobe_OpacityMaskFilter_8_" filterUnits="userSpaceOnUse" x="95.52" y="354.79" width="73.529" height="33.019">
							<feColorMatrix  type="matrix" values="1 0 0 0 0  0 1 0 0 0  0 0 1 0 0  0 0 0 1 0"/>
						</filter>
					</defs>
					<mask maskUnits="userSpaceOnUse" x="95.52" y="354.79" width="73.529" height="33.019" id="SVGID_69_">
						<g filter="url(#Adobe_OpacityMaskFilter_8_)">
							
								<linearGradient id="SVGID_70_" gradientUnits="userSpaceOnUse" x1="-500.9614" y1="1023.1348" x2="-500.0923" y2="1023.1348" gradientTransform="matrix(84.6246 0 0 -84.6246 42489.1836 86953.6406)">
								<stop  offset="0" style="stop-color:#4D4D4D"/>
								<stop  offset="1" style="stop-color:#FFFFFF"/>
							</linearGradient>
							<rect x="95.52" y="354.79" clip-path="url(#SVGID_68_)" fill="url(#SVGID_70_)" width="73.529" height="33.019"/>
						</g>
					</mask>
					
						<linearGradient id="SVGID_71_" gradientUnits="userSpaceOnUse" x1="-500.9614" y1="1023.1348" x2="-500.0923" y2="1023.1348" gradientTransform="matrix(84.6246 0 0 -84.6246 42489.1836 86953.6406)">
						<stop  offset="0" style="stop-color:#19181C"/>
						<stop  offset="1" style="stop-color:#19181C"/>
					</linearGradient>
					
						<rect x="95.52" y="354.79" clip-path="url(#SVGID_68_)" mask="url(#SVGID_69_)" fill="url(#SVGID_71_)" width="73.529" height="33.019"/>
				</g>
			</g>
		</g>
		<g opacity="0.24">
			<g>
				<defs>
					<rect id="SVGID_72_" x="95.52" y="328.434" width="33.019" height="26.356"/>
				</defs>
				<clipPath id="SVGID_73_">
					<use xlink:href="#SVGID_72_"  overflow="visible"/>
				</clipPath>
				<g clip-path="url(#SVGID_73_)">
					<defs>
						<polygon id="SVGID_74_" points="128.539,328.434 95.52,328.434 128.539,354.79 						"/>
					</defs>
					<clipPath id="SVGID_75_">
						<use xlink:href="#SVGID_74_"  overflow="visible"/>
					</clipPath>
					<defs>
						<filter id="Adobe_OpacityMaskFilter_9_" filterUnits="userSpaceOnUse" x="95.52" y="328.434" width="33.019" height="26.356">
							<feColorMatrix  type="matrix" values="1 0 0 0 0  0 1 0 0 0  0 0 1 0 0  0 0 0 1 0"/>
						</filter>
					</defs>
					<mask maskUnits="userSpaceOnUse" x="95.52" y="328.434" width="33.019" height="26.356" id="SVGID_76_">
						<g filter="url(#Adobe_OpacityMaskFilter_9_)">
							
								<linearGradient id="SVGID_77_" gradientUnits="userSpaceOnUse" x1="-500.9082" y1="1024.4141" x2="-500.0391" y2="1024.4141" gradientTransform="matrix(38 0 0 -38 19130.0313 39269.3438)">
								<stop  offset="0" style="stop-color:#4D4D4D"/>
								<stop  offset="1" style="stop-color:#FFFFFF"/>
							</linearGradient>
							<rect x="95.52" y="328.434" clip-path="url(#SVGID_75_)" fill="url(#SVGID_77_)" width="33.019" height="26.356"/>
						</g>
					</mask>
					
						<linearGradient id="SVGID_78_" gradientUnits="userSpaceOnUse" x1="-500.9082" y1="1024.4141" x2="-500.0391" y2="1024.4141" gradientTransform="matrix(38 0 0 -38 19130.0313 39269.3438)">
						<stop  offset="0" style="stop-color:#19181C"/>
						<stop  offset="1" style="stop-color:#19181C"/>
					</linearGradient>
					
						<rect x="95.52" y="328.434" clip-path="url(#SVGID_75_)" mask="url(#SVGID_76_)" fill="url(#SVGID_78_)" width="33.019" height="26.356"/>
				</g>
			</g>
		</g>
		<g opacity="0.06">
			<g>
				<defs>
					<rect id="SVGID_79_" x="95.52" y="328.434" width="33.019" height="26.356"/>
				</defs>
				<clipPath id="SVGID_80_">
					<use xlink:href="#SVGID_79_"  overflow="visible"/>
				</clipPath>
				<polygon clip-path="url(#SVGID_80_)" fill="#FFFFFF" points="128.539,354.79 95.654,354.79 95.52,328.434 				"/>
			</g>
		</g>
	</g>
</g>
<g>
	<g>
		<path fill="#FFFFFF" d="M224.863,703.72c0-4.095,0.588-7.894,1.768-11.394c1.177-3.497,2.745-6.463,4.697-8.898
			s4.192-4.521,6.725-6.262c2.532-1.741,5.141-3.018,7.829-3.827c2.686-0.813,5.361-1.22,8.029-1.22
			c4.601,0,8.466,0.83,11.598,2.494c3.131,1.662,5.489,3.712,7.074,6.145v-23.48c0-1.779,0.647-3.313,1.942-4.609
			c1.296-1.296,2.83-1.941,4.61-1.941c1.777,0,3.303,0.646,4.58,1.941c1.275,1.296,1.913,2.83,1.913,4.609v71.492
			c0,1.777-0.637,3.305-1.913,4.581c-1.277,1.274-2.803,1.912-4.58,1.912c-1.78,0-3.313-0.638-4.61-1.912
			c-1.295-1.276-1.942-2.804-1.942-4.581v-4.176c-0.233,2.63-2.204,5.083-5.916,7.363c-3.71,2.281-7.963,3.423-12.756,3.423
			c-2.668,0-5.343-0.397-8.029-1.189c-2.688-0.792-5.297-2.048-7.829-3.771c-2.533-1.717-4.773-3.795-6.725-6.232
			c-1.952-2.434-3.52-5.422-4.697-8.957C225.451,711.693,224.863,707.857,224.863,703.72 M237.908,703.72
			c0,3.209,0.531,6.146,1.596,8.813c1.063,2.669,2.443,4.824,4.145,6.467c1.702,1.643,3.585,2.906,5.654,3.798
			c2.066,0.889,4.165,1.333,6.292,1.333c2.241,0,4.386-0.395,6.436-1.189c2.047-0.791,3.914-1.971,5.595-3.537
			c1.682-1.563,3.024-3.699,4.029-6.408c1.005-2.703,1.506-5.796,1.506-9.276c0-3.516-0.501-6.618-1.506-9.304
			c-1.004-2.688-2.357-4.813-4.059-6.38c-1.7-1.563-3.557-2.735-5.565-3.508c-2.013-0.771-4.157-1.158-6.436-1.158
			c-2.127,0-4.226,0.442-6.292,1.332c-2.069,0.89-3.952,2.167-5.654,3.827c-1.702,1.663-3.082,3.818-4.145,6.463
			C238.439,697.643,237.908,700.552,237.908,703.72"/>
		<path fill="#FFFFFF" d="M297.516,703.72c0-5.063,0.899-9.662,2.694-13.8c1.799-4.135,4.127-7.461,6.988-9.973
			c2.86-2.511,5.969-4.443,9.334-5.799c3.363-1.353,6.725-2.029,10.086-2.029c4.563,0,8.412,0.83,11.54,2.494
			c3.132,1.662,5.488,3.712,7.075,6.145v-2.143c0-1.779,0.646-3.307,1.944-4.583c1.292-1.274,2.827-1.913,4.607-1.913
			c1.778,0,3.306,0.639,4.581,1.913c1.275,1.276,1.913,2.804,1.913,4.583v50.154c0,1.777-0.638,3.305-1.913,4.581
			c-1.275,1.274-2.803,1.912-4.581,1.912c-1.78,0-3.315-0.638-4.607-1.912c-1.298-1.276-1.944-2.804-1.944-4.581v-4.176
			c-0.233,2.63-2.194,5.083-5.888,7.363c-3.688,2.281-7.932,3.423-12.728,3.423c-2.664,0-5.343-0.397-8.028-1.189
			s-5.305-2.048-7.856-3.771c-2.551-1.717-4.804-3.795-6.755-6.232c-1.952-2.434-3.517-5.422-4.694-8.957
			C298.104,711.693,297.516,707.857,297.516,703.72 M310.562,703.72c0,3.209,0.53,6.146,1.595,8.813
			c1.061,2.669,2.443,4.824,4.143,6.467c1.703,1.643,3.586,2.906,5.652,3.798c2.069,0.889,4.166,1.333,6.293,1.333
			c2.243,0,4.388-0.395,6.438-1.189c2.045-0.791,3.912-1.971,5.595-3.537c1.68-1.563,3.021-3.699,4.028-6.408
			c1.003-2.703,1.508-5.796,1.508-9.276c0-3.516-0.505-6.618-1.508-9.304c-1.007-2.688-2.358-4.813-4.059-6.38
			c-1.699-1.563-3.557-2.735-5.564-3.508c-2.013-0.771-4.157-1.158-6.438-1.158c-2.127,0-4.224,0.442-6.293,1.332
			c-2.066,0.89-3.949,2.167-5.652,3.827c-1.699,1.663-3.082,3.818-4.143,6.463C311.092,697.643,310.562,700.552,310.562,703.72"/>
		<path fill="#FFFFFF" d="M372.544,728.77v-49.749c0-1.778,0.646-3.313,1.94-4.61c1.295-1.295,2.83-1.942,4.61-1.942
			c1.778,0,3.306,0.647,4.581,1.942c1.275,1.297,1.912,2.832,1.912,4.61v5.102c2.554-3.478,5.712-6.328,9.481-8.553
			c3.767-2.222,7.779-3.331,12.03-3.331c2.165,0,3.875,0.568,5.132,1.707c1.257,1.141,1.885,2.582,1.885,4.321
			c0,1.741-0.637,3.208-1.912,4.406c-1.275,1.199-2.86,1.798-4.758,1.798h-2.029c-4.794,0-8.89,1.197-12.29,3.594
			c-3.403,2.397-5.913,5.702-7.539,9.914v30.791c0,1.777-0.637,3.305-1.912,4.58s-2.803,1.914-4.581,1.914
			c-1.78,0-3.315-0.639-4.61-1.914C373.19,732.074,372.544,730.547,372.544,728.77"/>
		<path fill="#FFFFFF" d="M418.252,703.72c0-4.095,0.592-7.894,1.77-11.394c1.178-3.497,2.743-6.463,4.698-8.898
			c1.948-2.436,4.19-4.521,6.726-6.262c2.529-1.741,5.139-3.018,7.825-3.827c2.686-0.813,5.364-1.22,8.03-1.22
			c4.601,0,8.466,0.83,11.597,2.494c3.13,1.662,5.49,3.712,7.072,6.145v-2.143c0-1.779,0.647-3.307,1.944-4.583
			c1.292-1.274,2.83-1.913,4.608-1.913c1.78,0,3.305,0.639,4.578,1.913c1.278,1.276,1.915,2.804,1.915,4.583v55.953
			c0,2.936-0.44,5.652-1.333,8.146c-0.891,2.492-2.098,4.598-3.625,6.32c-1.524,1.717-3.246,3.236-5.157,4.55
			c-1.917,1.315-3.97,2.35-6.177,3.103c-2.204,0.754-4.329,1.314-6.376,1.68c-2.051,0.37-4.059,0.553-6.033,0.553
			c-5.563,0-10.88-1.121-15.943-3.361c-0.927-0.429-1.672-1.074-2.231-1.943c-0.563-0.871-0.842-1.828-0.842-2.869
			c0-1.471,0.523-2.736,1.567-3.799c1.042-1.064,2.298-1.596,3.767-1.596c0.735,0,1.298,0.08,1.685,0.24
			c3.861,1.386,7.863,2.078,11.998,2.078c4.677,0,8.457-1.211,11.338-3.63c2.877-2.425,4.317-5.573,4.317-9.446v-10
			c-0.23,2.63-2.202,5.083-5.91,7.363c-3.712,2.281-7.967,3.423-12.759,3.423c-2.666,0-5.345-0.397-8.03-1.189
			c-2.687-0.792-5.296-2.048-7.825-3.771c-2.535-1.717-4.777-3.795-6.726-6.232c-1.955-2.434-3.521-5.422-4.698-8.957
			C418.844,711.693,418.252,707.857,418.252,703.72 M431.298,703.72c0,3.209,0.534,6.146,1.595,8.813
			c1.063,2.669,2.443,4.824,4.146,6.467c1.699,1.643,3.584,2.906,5.654,3.798c2.065,0.889,4.163,1.333,6.288,1.333
			c2.243,0,4.39-0.395,6.438-1.189c2.046-0.791,3.914-1.971,5.594-3.537c1.681-1.563,3.022-3.699,4.029-6.408
			c1.008-2.703,1.508-5.796,1.508-9.276c0-3.516-0.5-6.618-1.508-9.304c-1.007-2.688-2.359-4.813-4.059-6.38
			c-1.7-1.563-3.557-2.735-5.564-3.508c-2.013-0.771-4.155-1.158-6.438-1.158c-2.125,0-4.223,0.442-6.288,1.332
			c-2.07,0.89-3.955,2.167-5.654,3.827c-1.703,1.663-3.084,3.818-4.146,6.463C431.832,697.643,431.298,700.552,431.298,703.72"/>
		<path fill="#FFFFFF" d="M489.105,703.838c0-4.098,0.66-7.924,1.975-11.479c1.311-3.56,3.034-6.547,5.16-8.961
			c2.123-2.416,4.55-4.492,7.276-6.232c2.723-1.741,5.479-3.018,8.259-3.827c2.785-0.813,5.511-1.22,8.177-1.22
			c2.669,0,5.403,0.407,8.205,1.22c2.803,0.81,5.557,2.086,8.263,3.827c2.705,1.74,5.131,3.816,7.279,6.232
			c2.145,2.414,3.874,5.401,5.188,8.961c1.313,3.555,1.972,7.381,1.972,11.479c0,4.137-0.658,7.971-1.972,11.51
			c-1.314,3.537-3.044,6.502-5.188,8.898c-2.148,2.396-4.582,4.455-7.311,6.176c-2.722,1.721-5.478,2.977-8.259,3.769
			c-2.783,0.79-5.509,1.189-8.178,1.189c-2.666,0-5.392-0.399-8.177-1.189c-2.78-0.792-5.536-2.048-8.259-3.769
			c-2.727-1.721-5.153-3.779-7.276-6.176c-2.126-2.396-3.85-5.361-5.16-8.898C489.766,711.809,489.105,707.975,489.105,703.838
			 M502.151,703.838c0,3.266,0.534,6.218,1.597,8.861c1.063,2.645,2.467,4.785,4.2,6.416c1.741,1.633,3.646,2.877,5.714,3.732
			c2.067,0.857,4.163,1.283,6.29,1.283c2.126,0,4.223-0.426,6.294-1.283c2.065-0.855,3.969-2.1,5.709-3.732
			c1.74-1.631,3.152-3.771,4.231-6.416c1.082-2.644,1.622-5.596,1.622-8.861c0-3.305-0.54-6.299-1.622-8.98
			c-1.079-2.682-2.491-4.829-4.231-6.444c-1.74-1.614-3.644-2.855-5.709-3.733c-2.071-0.874-4.168-1.311-6.294-1.311
			c-2.127,0-4.223,0.437-6.29,1.311c-2.068,0.878-3.973,2.119-5.714,3.733c-1.733,1.615-3.138,3.763-4.2,6.444
			S502.151,700.533,502.151,703.838"/>
	</g>
	<g>
		<g>
			<defs>
				<path id="SVGID_81_" d="M45.312,622.789v45.438h68.358c17.474,0,31.688,14.214,31.688,31.688
					c0,17.474-14.214,31.689-31.688,31.689H90.751v-36.272h-45.44v81.711h68.358c42.529,0,77.127-34.6,77.127-77.128
					s-34.599-77.126-77.127-77.126H45.312z"/>
			</defs>
			<clipPath id="SVGID_82_">
				<use xlink:href="#SVGID_81_"  overflow="visible"/>
			</clipPath>
			
				<rect x="12.574" y="595.239" transform="matrix(0.6094 0.7929 -0.7929 0.6094 601.0663 179.8026)" clip-path="url(#SVGID_82_)" fill="#FFFFFF" width="210.96" height="209.353"/>
		</g>
		<g opacity="0.24">
			<g>
				<defs>
					<rect id="SVGID_83_" x="45.129" y="622.789" width="71.342" height="45.438"/>
				</defs>
				<clipPath id="SVGID_84_">
					<use xlink:href="#SVGID_83_"  overflow="visible"/>
				</clipPath>
				<g clip-path="url(#SVGID_84_)">
					<defs>
						<path id="SVGID_85_" d="M113.486,622.789H45.129l68.357,45.438l2.985-45.363C115.479,622.826,114.487,622.789,113.486,622.789
							"/>
					</defs>
					<clipPath id="SVGID_86_">
						<use xlink:href="#SVGID_85_"  overflow="visible"/>
					</clipPath>
					<defs>
						
							<filter id="Adobe_OpacityMaskFilter_10_" filterUnits="userSpaceOnUse" x="23.894" y="589.449" width="113.81" height="112.117">
							<feColorMatrix  type="matrix" values="1 0 0 0 0  0 1 0 0 0  0 0 1 0 0  0 0 0 1 0"/>
						</filter>
					</defs>
					<mask maskUnits="userSpaceOnUse" x="23.894" y="589.449" width="113.81" height="112.117" id="SVGID_87_">
						<g filter="url(#Adobe_OpacityMaskFilter_10_)">
							
								<linearGradient id="SVGID_88_" gradientUnits="userSpaceOnUse" x1="-497.7842" y1="1014.8809" x2="-496.5886" y2="1014.8809" gradientTransform="matrix(30.0808 20.739 20.739 -30.0808 -5997.1577 41494.668)">
								<stop  offset="0" style="stop-color:#4D4D4D"/>
								<stop  offset="1" style="stop-color:#FFFFFF"/>
							</linearGradient>
							<polygon clip-path="url(#SVGID_86_)" fill="url(#SVGID_88_)" points="68.114,589.449 137.706,637.429 93.485,701.566 
								23.894,653.588 							"/>
						</g>
					</mask>
					
						<linearGradient id="SVGID_89_" gradientUnits="userSpaceOnUse" x1="-497.7524" y1="1014.877" x2="-496.5569" y2="1014.877" gradientTransform="matrix(30.0808 20.7389 20.7389 -30.0808 -5997.9121 41493.8555)">
						<stop  offset="0" style="stop-color:#19181C"/>
						<stop  offset="1" style="stop-color:#19181C"/>
					</linearGradient>
					<polygon clip-path="url(#SVGID_86_)" mask="url(#SVGID_87_)" fill="url(#SVGID_89_)" points="68.114,589.449 137.704,637.429 
						93.485,701.566 23.894,653.588 					"/>
				</g>
			</g>
		</g>
		<g opacity="0.24">
			<g>
				<defs>
					<rect id="SVGID_90_" x="113.486" y="648.318" width="60.103" height="65.303"/>
				</defs>
				<clipPath id="SVGID_91_">
					<use xlink:href="#SVGID_90_"  overflow="visible"/>
				</clipPath>
				<g clip-path="url(#SVGID_91_)">
					<defs>
						<path id="SVGID_92_" d="M145.174,699.915c0,4.907-1.121,9.558-3.121,13.706l31.536-61.961
							c-0.915-1.139-1.854-2.257-2.833-3.342l-57.271,19.908C130.959,668.227,145.174,682.441,145.174,699.915"/>
					</defs>
					<clipPath id="SVGID_93_">
						<use xlink:href="#SVGID_92_"  overflow="visible"/>
					</clipPath>
					<defs>
						
							<filter id="Adobe_OpacityMaskFilter_11_" filterUnits="userSpaceOnUse" x="90.679" y="627.329" width="105.716" height="107.284">
							<feColorMatrix  type="matrix" values="1 0 0 0 0  0 1 0 0 0  0 0 1 0 0  0 0 0 1 0"/>
						</filter>
					</defs>
					<mask maskUnits="userSpaceOnUse" x="90.679" y="627.329" width="105.716" height="107.284" id="SVGID_94_">
						<g filter="url(#Adobe_OpacityMaskFilter_11_)">
							
								<linearGradient id="SVGID_95_" gradientUnits="userSpaceOnUse" x1="-488.2964" y1="1014.6543" x2="-487.1007" y2="1014.6543" gradientTransform="matrix(7.125 17.5 17.5 -7.125 -14140.4648 16439.2148)">
								<stop  offset="0" style="stop-color:#4D4D4D"/>
								<stop  offset="1" style="stop-color:#FFFFFF"/>
							</linearGradient>
							<polygon clip-path="url(#SVGID_93_)" fill="url(#SVGID_95_)" points="165.042,627.329 196.396,704.336 122.033,734.613 
								90.679,657.606 							"/>
						</g>
					</mask>
					
						<linearGradient id="SVGID_96_" gradientUnits="userSpaceOnUse" x1="-488.2964" y1="1014.6543" x2="-487.1007" y2="1014.6543" gradientTransform="matrix(7.125 17.5 17.5 -7.125 -14140.4648 16439.2148)">
						<stop  offset="0" style="stop-color:#19181C"/>
						<stop  offset="1" style="stop-color:#19181C"/>
					</linearGradient>
					<polygon clip-path="url(#SVGID_93_)" mask="url(#SVGID_94_)" fill="url(#SVGID_96_)" points="165.042,627.329 196.396,704.336 
						122.033,734.613 90.679,657.606 					"/>
				</g>
			</g>
		</g>
		<g opacity="0.24">
			<g>
				<defs>
					<rect id="SVGID_97_" x="141.538" y="714.635" width="47.649" height="55.048"/>
				</defs>
				<clipPath id="SVGID_98_">
					<use xlink:href="#SVGID_97_"  overflow="visible"/>
				</clipPath>
				<g clip-path="url(#SVGID_98_)">
					<defs>
						<path id="SVGID_99_" d="M146.328,769.683c21.871-10.337,38.126-30.657,42.859-55.048h-47.649L146.328,769.683z"/>
					</defs>
					<clipPath id="SVGID_100_">
						<use xlink:href="#SVGID_99_"  overflow="visible"/>
					</clipPath>
					<defs>
						
							<filter id="Adobe_OpacityMaskFilter_12_" filterUnits="userSpaceOnUse" x="117.902" y="694.175" width="94.92" height="95.967">
							<feColorMatrix  type="matrix" values="1 0 0 0 0  0 1 0 0 0  0 0 1 0 0  0 0 0 1 0"/>
						</filter>
					</defs>
					<mask maskUnits="userSpaceOnUse" x="117.902" y="694.175" width="94.92" height="95.967" id="SVGID_101_">
						<g filter="url(#Adobe_OpacityMaskFilter_12_)">
							
								<linearGradient id="SVGID_102_" gradientUnits="userSpaceOnUse" x1="-492.2847" y1="1026.2793" x2="-491.0891" y2="1026.2793" gradientTransform="matrix(-14.6667 25.8333 25.8333 14.6667 -33561.1055 -1602.9803)">
								<stop  offset="0" style="stop-color:#4D4D4D"/>
								<stop  offset="1" style="stop-color:#FFFFFF"/>
							</linearGradient>
							<polygon clip-path="url(#SVGID_100_)" fill="url(#SVGID_102_)" points="212.822,728.055 177.572,790.142 117.902,756.264 
								153.152,694.175 							"/>
						</g>
					</mask>
					
						<linearGradient id="SVGID_103_" gradientUnits="userSpaceOnUse" x1="-492.2847" y1="1026.2793" x2="-491.0891" y2="1026.2793" gradientTransform="matrix(-14.6667 25.8333 25.8333 14.6667 -33561.1133 -1602.9803)">
						<stop  offset="0" style="stop-color:#19181C"/>
						<stop  offset="1" style="stop-color:#19181C"/>
					</linearGradient>
					<polygon clip-path="url(#SVGID_100_)" mask="url(#SVGID_101_)" fill="url(#SVGID_103_)" points="212.822,728.055 
						177.572,790.142 117.902,756.264 153.152,694.175 					"/>
				</g>
			</g>
		</g>
		<g opacity="0.24">
			<g>
				<defs>
					<rect id="SVGID_104_" x="45.129" y="731.604" width="101.191" height="45.438"/>
				</defs>
				<clipPath id="SVGID_105_">
					<use xlink:href="#SVGID_104_"  overflow="visible"/>
				</clipPath>
				<g clip-path="url(#SVGID_105_)">
					<defs>
						<path id="SVGID_106_" d="M146.32,769.685l-55.753-38.08l-45.438,45.438h68.357C125.224,777.043,136.35,774.397,146.32,769.685
							"/>
					</defs>
					<clipPath id="SVGID_107_">
						<use xlink:href="#SVGID_106_"  overflow="visible"/>
					</clipPath>
					<defs>
						
							<filter id="Adobe_OpacityMaskFilter_13_" filterUnits="userSpaceOnUse" x="45.129" y="731.604" width="101.191" height="45.438">
							<feColorMatrix  type="matrix" values="1 0 0 0 0  0 1 0 0 0  0 0 1 0 0  0 0 0 1 0"/>
						</filter>
					</defs>
					<mask maskUnits="userSpaceOnUse" x="45.129" y="731.604" width="101.191" height="45.438" id="SVGID_108_">
						<g filter="url(#Adobe_OpacityMaskFilter_13_)">
							
								<linearGradient id="SVGID_109_" gradientUnits="userSpaceOnUse" x1="-501.5566" y1="1018.6084" x2="-500.3608" y2="1018.6084" gradientTransform="matrix(84.6246 0 0 -84.6246 42489.1836 86953.6406)">
								<stop  offset="0" style="stop-color:#4D4D4D"/>
								<stop  offset="1" style="stop-color:#FFFFFF"/>
							</linearGradient>
							<rect x="45.129" y="731.604" clip-path="url(#SVGID_107_)" fill="url(#SVGID_109_)" width="101.191" height="45.438"/>
						</g>
					</mask>
					
						<linearGradient id="SVGID_110_" gradientUnits="userSpaceOnUse" x1="-501.5566" y1="1018.6084" x2="-500.3608" y2="1018.6084" gradientTransform="matrix(84.6246 0 0 -84.6246 42489.1836 86953.6406)">
						<stop  offset="0" style="stop-color:#19181C"/>
						<stop  offset="1" style="stop-color:#19181C"/>
					</linearGradient>
					
						<rect x="45.129" y="731.604" clip-path="url(#SVGID_107_)" mask="url(#SVGID_108_)" fill="url(#SVGID_110_)" width="101.191" height="45.438"/>
				</g>
			</g>
		</g>
		<g opacity="0.24">
			<g>
				<defs>
					<rect id="SVGID_111_" x="45.129" y="695.332" width="45.438" height="36.272"/>
				</defs>
				<clipPath id="SVGID_112_">
					<use xlink:href="#SVGID_111_"  overflow="visible"/>
				</clipPath>
				<g clip-path="url(#SVGID_112_)">
					<defs>
						<polygon id="SVGID_113_" points="90.567,695.332 45.129,695.332 90.567,731.604 						"/>
					</defs>
					<clipPath id="SVGID_114_">
						<use xlink:href="#SVGID_113_"  overflow="visible"/>
					</clipPath>
					<defs>
						
							<filter id="Adobe_OpacityMaskFilter_14_" filterUnits="userSpaceOnUse" x="45.129" y="695.332" width="45.438" height="36.272">
							<feColorMatrix  type="matrix" values="1 0 0 0 0  0 1 0 0 0  0 0 1 0 0  0 0 0 1 0"/>
						</filter>
					</defs>
					<mask maskUnits="userSpaceOnUse" x="45.129" y="695.332" width="45.438" height="36.272" id="SVGID_115_">
						<g filter="url(#Adobe_OpacityMaskFilter_14_)">
							
								<linearGradient id="SVGID_116_" gradientUnits="userSpaceOnUse" x1="-502.2344" y1="1014.6289" x2="-501.0386" y2="1014.6289" gradientTransform="matrix(38 0 0 -38 19130.0313 39269.3438)">
								<stop  offset="0" style="stop-color:#4D4D4D"/>
								<stop  offset="1" style="stop-color:#FFFFFF"/>
							</linearGradient>
							<rect x="45.129" y="695.332" clip-path="url(#SVGID_114_)" fill="url(#SVGID_116_)" width="45.438" height="36.272"/>
						</g>
					</mask>
					
						<linearGradient id="SVGID_117_" gradientUnits="userSpaceOnUse" x1="-502.2344" y1="1014.6289" x2="-501.0386" y2="1014.6289" gradientTransform="matrix(38 0 0 -38 19130.0313 39269.3438)">
						<stop  offset="0" style="stop-color:#19181C"/>
						<stop  offset="1" style="stop-color:#19181C"/>
					</linearGradient>
					
						<rect x="45.129" y="695.332" clip-path="url(#SVGID_114_)" mask="url(#SVGID_115_)" fill="url(#SVGID_117_)" width="45.438" height="36.272"/>
				</g>
			</g>
		</g>
		<g opacity="0.06">
			<g>
				<defs>
					<rect id="SVGID_118_" x="45.129" y="695.332" width="45.438" height="36.272"/>
				</defs>
				<clipPath id="SVGID_119_">
					<use xlink:href="#SVGID_118_"  overflow="visible"/>
				</clipPath>
				<polygon clip-path="url(#SVGID_119_)" fill="#FFFFFF" points="90.567,731.604 45.312,731.604 45.128,695.332 				"/>
			</g>
		</g>
	</g>
</g>
<g>
	<g>
		<path fill="#FFFFFF" d="M315.615,450.048c0-3.021,0.434-5.819,1.304-8.399c0.868-2.577,2.023-4.763,3.463-6.56
			c1.438-1.796,3.091-3.332,4.955-4.615c1.866-1.283,3.79-2.225,5.771-2.821c1.979-0.601,3.952-0.898,5.919-0.898
			c3.392,0,6.241,0.612,8.549,1.838c2.308,1.227,4.045,2.736,5.215,4.529v-17.307c0-1.311,0.477-2.444,1.43-3.397
			c0.957-0.956,2.087-1.432,3.398-1.432c1.311,0,2.436,0.476,3.377,1.432c0.939,0.954,1.41,2.087,1.41,3.397v52.697
			c0,1.311-0.471,2.438-1.41,3.376c-0.941,0.939-2.066,1.41-3.377,1.41c-1.312,0-2.441-0.471-3.398-1.41
			c-0.953-0.938-1.43-2.065-1.43-3.376v-3.077c-0.172,1.938-1.625,3.748-4.361,5.428c-2.736,1.683-5.87,2.521-9.402,2.521
			c-1.967,0-3.939-0.292-5.919-0.875c-1.981-0.585-3.905-1.511-5.771-2.78c-1.864-1.267-3.518-2.798-4.955-4.595
			c-1.439-1.792-2.595-3.995-3.463-6.602C316.049,455.925,315.615,453.098,315.615,450.048 M325.231,450.048
			c0,2.366,0.392,4.531,1.175,6.496c0.783,1.968,1.801,3.555,3.057,4.768c1.253,1.209,2.643,2.144,4.167,2.8
			c1.522,0.653,3.069,0.983,4.638,0.983c1.652,0,3.233-0.294,4.744-0.879c1.509-0.585,2.886-1.453,4.123-2.605
			c1.242-1.154,2.23-2.728,2.971-4.726c0.74-1.993,1.11-4.271,1.11-6.837c0-2.59-0.37-4.88-1.11-6.858
			c-0.74-1.98-1.737-3.548-2.992-4.704c-1.252-1.151-2.623-2.016-4.102-2.583c-1.482-0.569-3.064-0.857-4.744-0.857
			c-1.568,0-3.115,0.329-4.638,0.984c-1.524,0.653-2.914,1.596-4.167,2.819c-1.256,1.229-2.273,2.814-3.057,4.766
			C325.623,445.568,325.231,447.714,325.231,450.048"/>
		<path fill="#FFFFFF" d="M369.168,450.048c0-3.733,0.663-7.124,1.986-10.172c1.326-3.048,3.042-5.5,5.151-7.353
			c2.108-1.85,4.401-3.276,6.881-4.274c2.479-0.995,4.958-1.495,7.435-1.495c3.364,0,6.199,0.612,8.506,1.838
			c2.309,1.227,4.047,2.736,5.215,4.529v-1.58c0-1.311,0.479-2.436,1.434-3.377c0.953-0.939,2.086-1.41,3.397-1.41
			c1.31,0,2.437,0.471,3.376,1.41c0.941,0.941,1.41,2.066,1.41,3.377v36.971c0,1.311-0.469,2.438-1.41,3.376
			c-0.939,0.939-2.066,1.41-3.376,1.41c-1.312,0-2.444-0.471-3.397-1.41c-0.955-0.938-1.434-2.065-1.434-3.376v-3.077
			c-0.17,1.938-1.615,3.748-4.338,5.428c-2.72,1.683-5.848,2.521-9.383,2.521c-1.965,0-3.938-0.292-5.918-0.875
			c-1.98-0.585-3.91-1.511-5.791-2.78c-1.881-1.267-3.541-2.798-4.979-4.595c-1.439-1.792-2.592-3.995-3.463-6.602
			C369.602,455.925,369.168,453.098,369.168,450.048 M378.785,450.048c0,2.366,0.391,4.531,1.176,6.496
			c0.781,1.968,1.799,3.555,3.054,4.768c1.255,1.209,2.644,2.144,4.168,2.8c1.522,0.653,3.069,0.983,4.638,0.983
			c1.652,0,3.232-0.294,4.744-0.879c1.508-0.585,2.885-1.453,4.125-2.605c1.238-1.154,2.229-2.728,2.969-4.726
			c0.74-1.993,1.111-4.271,1.111-6.837c0-2.59-0.371-4.88-1.111-6.858c-0.74-1.98-1.737-3.548-2.991-4.704
			c-1.253-1.151-2.622-2.016-4.103-2.583c-1.482-0.569-3.063-0.857-4.744-0.857c-1.568,0-3.115,0.329-4.638,0.984
			c-1.524,0.653-2.913,1.596-4.168,2.819c-1.255,1.229-2.272,2.814-3.054,4.766C379.176,445.568,378.785,447.714,378.785,450.048"/>
		<path fill="#FFFFFF" d="M424.474,468.512v-36.671c0-1.311,0.478-2.442,1.431-3.398c0.955-0.954,2.086-1.433,3.398-1.433
			c1.31,0,2.436,0.479,3.375,1.433c0.943,0.956,1.41,2.088,1.41,3.398v3.76c1.883-2.563,4.211-4.664,6.99-6.304
			c2.777-1.638,5.732-2.458,8.866-2.458c1.597,0,2.856,0.421,3.782,1.261c0.927,0.843,1.391,1.903,1.391,3.187
			c0,1.281-0.471,2.364-1.41,3.247c-0.939,0.884-2.109,1.323-3.506,1.323h-1.496c-3.533,0-6.554,0.885-9.061,2.651
			c-2.508,1.767-4.358,4.203-5.557,7.309v22.695c0,1.311-0.467,2.438-1.41,3.376c-0.939,0.939-2.065,1.412-3.375,1.412
			c-1.313,0-2.443-0.473-3.398-1.412C424.951,470.949,424.474,469.822,424.474,468.512"/>
		<path fill="#FFFFFF" d="M458.166,450.048c0-3.021,0.436-5.819,1.305-8.399c0.867-2.577,2.021-4.763,3.462-6.56
			c1.438-1.796,3.091-3.332,4.958-4.615c1.863-1.283,3.788-2.225,5.769-2.821c1.979-0.601,3.954-0.898,5.919-0.898
			c3.392,0,6.24,0.612,8.549,1.838c2.307,1.227,4.046,2.736,5.212,4.529v-1.58c0-1.311,0.478-2.436,1.433-3.377
			c0.955-0.939,2.086-1.41,3.396-1.41c1.313,0,2.439,0.471,3.377,1.41c0.941,0.941,1.412,2.066,1.412,3.377v41.244
			c0,2.166-0.328,4.169-0.984,6.007c-0.655,1.837-1.547,3.39-2.671,4.658c-1.124,1.267-2.393,2.386-3.803,3.354
			c-1.411,0.969-2.928,1.73-4.551,2.287c-1.627,0.556-3.193,0.969-4.704,1.239c-1.509,0.271-2.988,0.407-4.444,0.407
			c-4.101,0-8.021-0.827-11.752-2.479c-0.683-0.314-1.232-0.79-1.646-1.433c-0.413-0.641-0.619-1.345-0.619-2.114
			c0-1.083,0.386-2.016,1.155-2.801c0.768-0.784,1.693-1.175,2.775-1.175c0.543,0,0.957,0.058,1.243,0.179
			c2.846,1.019,5.796,1.53,8.844,1.53c3.448,0,6.233-0.893,8.356-2.676c2.121-1.788,3.183-4.109,3.183-6.962v-7.372
			c-0.17,1.938-1.622,3.748-4.356,5.428c-2.738,1.683-5.872,2.521-9.404,2.521c-1.965,0-3.939-0.292-5.919-0.875
			c-1.98-0.585-3.905-1.511-5.769-2.78c-1.867-1.267-3.521-2.798-4.958-4.595c-1.44-1.792-2.595-3.995-3.462-6.602
			C458.602,455.925,458.166,453.098,458.166,450.048 M467.782,450.048c0,2.366,0.393,4.531,1.175,6.496
			c0.783,1.968,1.801,3.555,3.057,4.768c1.253,1.209,2.643,2.144,4.168,2.8c1.523,0.653,3.069,0.983,4.637,0.983
			c1.652,0,3.234-0.294,4.744-0.879c1.509-0.585,2.885-1.453,4.125-2.605c1.236-1.154,2.228-2.728,2.97-4.726
			c0.739-1.993,1.109-4.271,1.109-6.837c0-2.59-0.37-4.88-1.109-6.858c-0.742-1.98-1.739-3.548-2.994-4.704
			c-1.252-1.151-2.622-2.016-4.101-2.583c-1.482-0.569-3.063-0.857-4.744-0.857c-1.567,0-3.113,0.329-4.637,0.984
			c-1.525,0.653-2.915,1.596-4.168,2.819c-1.256,1.229-2.273,2.814-3.057,4.766C468.175,445.568,467.782,447.714,467.782,450.048"/>
		<path fill="#FFFFFF" d="M510.394,450.136c0-3.021,0.486-5.844,1.454-8.464c0.968-2.624,2.236-4.826,3.803-6.603
			c1.566-1.783,3.355-3.313,5.365-4.596c2.007-1.283,4.037-2.225,6.089-2.821c2.052-0.601,4.062-0.898,6.026-0.898
			c1.966,0,3.982,0.298,6.048,0.898c2.066,0.597,4.097,1.538,6.091,2.821s3.782,2.813,5.364,4.596
			c1.582,1.776,2.856,3.979,3.825,6.603c0.969,2.62,1.453,5.442,1.453,8.464c0,3.048-0.484,5.874-1.453,8.481
			c-0.969,2.608-2.243,4.794-3.825,6.561s-3.377,3.284-5.387,4.551c-2.007,1.27-4.038,2.195-6.089,2.78
			c-2.053,0.583-4.062,0.875-6.027,0.875c-1.965,0-3.975-0.292-6.026-0.875c-2.052-0.585-4.082-1.511-6.089-2.78
			c-2.01-1.267-3.799-2.784-5.365-4.551s-2.835-3.952-3.803-6.561C510.88,456.01,510.394,453.184,510.394,450.136 M520.01,450.136
			c0,2.405,0.393,4.585,1.176,6.531c0.783,1.95,1.818,3.526,3.096,4.729c1.283,1.203,2.689,2.119,4.212,2.75
			c1.524,0.633,3.068,0.948,4.638,0.948c1.566,0,3.113-0.315,4.638-0.948c1.523-0.631,2.927-1.547,4.208-2.75
			c1.284-1.203,2.323-2.779,3.121-4.729c0.797-1.946,1.195-4.126,1.195-6.531c0-2.438-0.398-4.644-1.195-6.621
			c-0.798-1.978-1.837-3.561-3.121-4.75c-1.281-1.188-2.685-2.105-4.208-2.753c-1.524-0.645-3.071-0.967-4.638-0.967
			c-1.569,0-3.113,0.322-4.638,0.967c-1.522,0.647-2.929,1.564-4.212,2.753c-1.277,1.189-2.313,2.772-3.096,4.75
			S520.01,447.698,520.01,450.136"/>
	</g>
	<g>
		<g>
			<defs>
				<path id="SVGID_120_" d="M382.251,275.71v33.495h50.39c12.879,0,23.357,10.476,23.357,23.356s-10.479,23.358-23.357,23.358
					h-16.896v-26.735h-33.494v60.229h50.39c31.348,0,56.852-25.503,56.852-56.852c0-31.348-25.504-56.851-56.852-56.851H382.251z"/>
			</defs>
			<clipPath id="SVGID_121_">
				<use xlink:href="#SVGID_120_"  overflow="visible"/>
			</clipPath>
			
				<rect x="358.121" y="255.403" transform="matrix(0.6094 0.7929 -0.7929 0.6094 433.9413 -215.6886)" clip-path="url(#SVGID_121_)" fill="#FFFFFF" width="155.502" height="154.316"/>
		</g>
		<g opacity="0.24">
			<g>
				<defs>
					<rect id="SVGID_122_" x="382.117" y="275.71" width="52.588" height="33.495"/>
				</defs>
				<clipPath id="SVGID_123_">
					<use xlink:href="#SVGID_122_"  overflow="visible"/>
				</clipPath>
				<g clip-path="url(#SVGID_123_)">
					<defs>
						<path id="SVGID_124_" d="M432.504,275.71h-50.387l50.387,33.495l2.201-33.439C433.973,275.738,433.24,275.71,432.504,275.71"
							/>
					</defs>
					<clipPath id="SVGID_125_">
						<use xlink:href="#SVGID_124_"  overflow="visible"/>
					</clipPath>
					<defs>
						
							<filter id="Adobe_OpacityMaskFilter_15_" filterUnits="userSpaceOnUse" x="366.465" y="251.135" width="83.893" height="82.643">
							<feColorMatrix  type="matrix" values="1 0 0 0 0  0 1 0 0 0  0 0 1 0 0  0 0 0 1 0"/>
						</filter>
					</defs>
					<mask maskUnits="userSpaceOnUse" x="366.465" y="251.135" width="83.893" height="82.643" id="SVGID_126_">
						<g filter="url(#Adobe_OpacityMaskFilter_15_)">
							
								<linearGradient id="SVGID_127_" gradientUnits="userSpaceOnUse" x1="-495.8511" y1="1027.9258" x2="-494.9699" y2="1027.9258" gradientTransform="matrix(30.0808 20.739 20.739 -30.0808 -5997.1577 41494.668)">
								<stop  offset="0" style="stop-color:#4D4D4D"/>
								<stop  offset="1" style="stop-color:#FFFFFF"/>
							</linearGradient>
							<polygon clip-path="url(#SVGID_125_)" fill="url(#SVGID_127_)" points="399.061,251.135 450.357,286.501 417.761,333.777 
								366.465,298.413 							"/>
						</g>
					</mask>
					
						<linearGradient id="SVGID_128_" gradientUnits="userSpaceOnUse" x1="-495.8193" y1="1027.9219" x2="-494.9382" y2="1027.9219" gradientTransform="matrix(30.0808 20.7389 20.7389 -30.0808 -5997.9121 41493.8555)">
						<stop  offset="0" style="stop-color:#19181C"/>
						<stop  offset="1" style="stop-color:#19181C"/>
					</linearGradient>
					<polygon clip-path="url(#SVGID_125_)" mask="url(#SVGID_126_)" fill="url(#SVGID_128_)" points="399.061,251.135 
						450.357,286.501 417.761,333.777 366.465,298.413 					"/>
				</g>
			</g>
		</g>
		<g opacity="0.24">
			<g>
				<defs>
					<rect id="SVGID_129_" x="432.504" y="294.529" width="44.303" height="48.135"/>
				</defs>
				<clipPath id="SVGID_130_">
					<use xlink:href="#SVGID_129_"  overflow="visible"/>
				</clipPath>
				<g clip-path="url(#SVGID_130_)">
					<defs>
						<path id="SVGID_131_" d="M455.862,332.561c0,3.617-0.827,7.044-2.3,10.104l23.244-45.672c-0.673-0.84-1.367-1.664-2.086-2.463
							l-42.217,14.676C445.383,309.205,455.862,319.682,455.862,332.561"/>
					</defs>
					<clipPath id="SVGID_132_">
						<use xlink:href="#SVGID_131_"  overflow="visible"/>
					</clipPath>
					<defs>
						
							<filter id="Adobe_OpacityMaskFilter_16_" filterUnits="userSpaceOnUse" x="415.691" y="279.058" width="77.928" height="79.08">
							<feColorMatrix  type="matrix" values="1 0 0 0 0  0 1 0 0 0  0 0 1 0 0  0 0 0 1 0"/>
						</filter>
					</defs>
					<mask maskUnits="userSpaceOnUse" x="415.691" y="279.058" width="77.928" height="79.08" id="SVGID_133_">
						<g filter="url(#Adobe_OpacityMaskFilter_16_)">
							
								<linearGradient id="SVGID_134_" gradientUnits="userSpaceOnUse" x1="-499.6045" y1="1037.1367" x2="-498.7231" y2="1037.1367" gradientTransform="matrix(7.125 17.5 17.5 -7.125 -14140.4648 16439.2148)">
								<stop  offset="0" style="stop-color:#4D4D4D"/>
								<stop  offset="1" style="stop-color:#FFFFFF"/>
							</linearGradient>
							<polygon clip-path="url(#SVGID_132_)" fill="url(#SVGID_134_)" points="470.508,279.058 493.619,335.819 438.803,358.137 
								415.691,301.374 							"/>
						</g>
					</mask>
					
						<linearGradient id="SVGID_135_" gradientUnits="userSpaceOnUse" x1="-499.6045" y1="1037.1367" x2="-498.7231" y2="1037.1367" gradientTransform="matrix(7.125 17.5 17.5 -7.125 -14140.4648 16439.2148)">
						<stop  offset="0" style="stop-color:#19181C"/>
						<stop  offset="1" style="stop-color:#19181C"/>
					</linearGradient>
					<polygon clip-path="url(#SVGID_132_)" mask="url(#SVGID_133_)" fill="url(#SVGID_135_)" points="470.508,279.058 
						493.619,335.819 438.803,358.137 415.691,301.374 					"/>
				</g>
			</g>
		</g>
		<g opacity="0.24">
			<g>
				<defs>
					<rect id="SVGID_136_" x="453.182" y="343.41" width="35.122" height="40.578"/>
				</defs>
				<clipPath id="SVGID_137_">
					<use xlink:href="#SVGID_136_"  overflow="visible"/>
				</clipPath>
				<g clip-path="url(#SVGID_137_)">
					<defs>
						<path id="SVGID_138_" d="M456.713,383.987c16.121-7.619,28.102-22.598,31.591-40.578h-35.122L456.713,383.987z"/>
					</defs>
					<clipPath id="SVGID_139_">
						<use xlink:href="#SVGID_138_"  overflow="visible"/>
					</clipPath>
					<defs>
						
							<filter id="Adobe_OpacityMaskFilter_17_" filterUnits="userSpaceOnUse" x="435.76" y="328.329" width="69.967" height="70.738">
							<feColorMatrix  type="matrix" values="1 0 0 0 0  0 1 0 0 0  0 0 1 0 0  0 0 0 1 0"/>
						</filter>
					</defs>
					<mask maskUnits="userSpaceOnUse" x="435.76" y="328.329" width="69.967" height="70.738" id="SVGID_140_">
						<g filter="url(#Adobe_OpacityMaskFilter_17_)">
							
								<linearGradient id="SVGID_141_" gradientUnits="userSpaceOnUse" x1="-508.3335" y1="1028.9277" x2="-507.4523" y2="1028.9277" gradientTransform="matrix(-14.6667 25.8333 25.8333 14.6667 -33561.1055 -1602.9803)">
								<stop  offset="0" style="stop-color:#4D4D4D"/>
								<stop  offset="1" style="stop-color:#FFFFFF"/>
							</linearGradient>
							<polygon clip-path="url(#SVGID_139_)" fill="url(#SVGID_141_)" points="505.727,353.301 479.743,399.067 435.76,374.095 
								461.744,328.329 							"/>
						</g>
					</mask>
					
						<linearGradient id="SVGID_142_" gradientUnits="userSpaceOnUse" x1="-508.3335" y1="1028.9277" x2="-507.4523" y2="1028.9277" gradientTransform="matrix(-14.6667 25.8333 25.8333 14.6667 -33561.1133 -1602.9803)">
						<stop  offset="0" style="stop-color:#19181C"/>
						<stop  offset="1" style="stop-color:#19181C"/>
					</linearGradient>
					<polygon clip-path="url(#SVGID_139_)" mask="url(#SVGID_140_)" fill="url(#SVGID_142_)" points="505.727,353.301 
						479.743,399.067 435.76,374.095 461.744,328.329 					"/>
				</g>
			</g>
		</g>
		<g opacity="0.24">
			<g>
				<defs>
					<rect id="SVGID_143_" x="382.117" y="355.918" width="74.589" height="33.494"/>
				</defs>
				<clipPath id="SVGID_144_">
					<use xlink:href="#SVGID_143_"  overflow="visible"/>
				</clipPath>
				<g clip-path="url(#SVGID_144_)">
					<defs>
						<path id="SVGID_145_" d="M456.706,383.989l-41.095-28.071l-33.494,33.494h50.387
							C441.156,389.413,449.359,387.461,456.706,383.989"/>
					</defs>
					<clipPath id="SVGID_146_">
						<use xlink:href="#SVGID_145_"  overflow="visible"/>
					</clipPath>
					<defs>
						
							<filter id="Adobe_OpacityMaskFilter_18_" filterUnits="userSpaceOnUse" x="382.117" y="355.918" width="74.589" height="33.494">
							<feColorMatrix  type="matrix" values="1 0 0 0 0  0 1 0 0 0  0 0 1 0 0  0 0 0 1 0"/>
						</filter>
					</defs>
					<mask maskUnits="userSpaceOnUse" x="382.117" y="355.918" width="74.589" height="33.494" id="SVGID_147_">
						<g filter="url(#Adobe_OpacityMaskFilter_18_)">
							
								<linearGradient id="SVGID_148_" gradientUnits="userSpaceOnUse" x1="-497.5747" y1="1023.1191" x2="-496.6934" y2="1023.1191" gradientTransform="matrix(84.6246 0 0 -84.6246 42489.1836 86953.6406)">
								<stop  offset="0" style="stop-color:#4D4D4D"/>
								<stop  offset="1" style="stop-color:#FFFFFF"/>
							</linearGradient>
							<rect x="382.117" y="355.918" clip-path="url(#SVGID_146_)" fill="url(#SVGID_148_)" width="74.589" height="33.494"/>
						</g>
					</mask>
					
						<linearGradient id="SVGID_149_" gradientUnits="userSpaceOnUse" x1="-497.5747" y1="1023.1191" x2="-496.6934" y2="1023.1191" gradientTransform="matrix(84.6246 0 0 -84.6246 42489.1836 86953.6406)">
						<stop  offset="0" style="stop-color:#19181C"/>
						<stop  offset="1" style="stop-color:#19181C"/>
					</linearGradient>
					
						<rect x="382.117" y="355.918" clip-path="url(#SVGID_146_)" mask="url(#SVGID_147_)" fill="url(#SVGID_149_)" width="74.589" height="33.494"/>
				</g>
			</g>
		</g>
		<g opacity="0.24">
			<g>
				<defs>
					<rect id="SVGID_150_" x="382.117" y="329.183" width="33.494" height="26.735"/>
				</defs>
				<clipPath id="SVGID_151_">
					<use xlink:href="#SVGID_150_"  overflow="visible"/>
				</clipPath>
				<g clip-path="url(#SVGID_151_)">
					<defs>
						<polygon id="SVGID_152_" points="415.611,329.183 382.117,329.183 415.611,355.918 						"/>
					</defs>
					<clipPath id="SVGID_153_">
						<use xlink:href="#SVGID_152_"  overflow="visible"/>
					</clipPath>
					<defs>
						
							<filter id="Adobe_OpacityMaskFilter_19_" filterUnits="userSpaceOnUse" x="382.117" y="329.183" width="33.494" height="26.735">
							<feColorMatrix  type="matrix" values="1 0 0 0 0  0 1 0 0 0  0 0 1 0 0  0 0 0 1 0"/>
						</filter>
					</defs>
					<mask maskUnits="userSpaceOnUse" x="382.117" y="329.183" width="33.494" height="26.735" id="SVGID_154_">
						<g filter="url(#Adobe_OpacityMaskFilter_19_)">
							
								<linearGradient id="SVGID_155_" gradientUnits="userSpaceOnUse" x1="-493.3662" y1="1024.3896" x2="-492.4849" y2="1024.3896" gradientTransform="matrix(38 0 0 -38 19130.0313 39269.3438)">
								<stop  offset="0" style="stop-color:#4D4D4D"/>
								<stop  offset="1" style="stop-color:#FFFFFF"/>
							</linearGradient>
							<rect x="382.117" y="329.183" clip-path="url(#SVGID_153_)" fill="url(#SVGID_155_)" width="33.494" height="26.735"/>
						</g>
					</mask>
					
						<linearGradient id="SVGID_156_" gradientUnits="userSpaceOnUse" x1="-493.3662" y1="1024.3896" x2="-492.4849" y2="1024.3896" gradientTransform="matrix(38 0 0 -38 19130.0313 39269.3438)">
						<stop  offset="0" style="stop-color:#19181C"/>
						<stop  offset="1" style="stop-color:#19181C"/>
					</linearGradient>
					
						<rect x="382.117" y="329.183" clip-path="url(#SVGID_153_)" mask="url(#SVGID_154_)" fill="url(#SVGID_156_)" width="33.494" height="26.735"/>
				</g>
			</g>
		</g>
		<g opacity="0.06">
			<g>
				<defs>
					<rect id="SVGID_157_" x="382.117" y="329.183" width="33.494" height="26.735"/>
				</defs>
				<clipPath id="SVGID_158_">
					<use xlink:href="#SVGID_157_"  overflow="visible"/>
				</clipPath>
				<polygon clip-path="url(#SVGID_158_)" fill="#FFFFFF" points="415.611,355.918 382.254,355.918 382.117,329.183 				"/>
			</g>
		</g>
	</g>
</g>
</svg>
