<?xml version="1.0" encoding="UTF-8" standalone="no"?>
<!-- Created with Inkscape (http://www.inkscape.org/) -->

<svg
   xmlns:dc="http://purl.org/dc/elements/1.1/"
   xmlns:cc="http://creativecommons.org/ns#"
   xmlns:rdf="http://www.w3.org/1999/02/22-rdf-syntax-ns#"
   xmlns:svg="http://www.w3.org/2000/svg"
   xmlns="http://www.w3.org/2000/svg"
   xmlns:xlink="http://www.w3.org/1999/xlink"
   xmlns:sodipodi="http://sodipodi.sourceforge.net/DTD/sodipodi-0.dtd"
   xmlns:inkscape="http://www.inkscape.org/namespaces/inkscape"
   width="297mm"
   height="210mm"
   viewBox="0 0 297 210"
   version="1.1"
   id="svg8"
   inkscape:version="0.92.2 5c3e80d, 2017-08-06"
   sodipodi:docname="cartel-sala-taooine.svg"
   inkscape:export-filename="/Users/macbook/workarea/pythoncanarias/docs/carteleria/pydaytf2018/sala-dagobah/cartel-sala-taooine-800x566.png"
   inkscape:export-xdpi="68.459045"
   inkscape:export-ydpi="68.459045">
  <defs
     id="defs2">
    <linearGradient
       inkscape:collect="always"
       id="linearGradient4754">
      <stop
         style="stop-color:#e6e6e6;stop-opacity:1"
         offset="0"
         id="stop4750" />
      <stop
         style="stop-color:#808080;stop-opacity:1"
         offset="1"
         id="stop4752" />
    </linearGradient>
    <linearGradient
       inkscape:collect="always"
       id="linearGradient4729">
      <stop
         style="stop-color:#ececec;stop-opacity:1"
         offset="0"
         id="stop4725" />
      <stop
         style="stop-color:#999999;stop-opacity:1"
         offset="1"
         id="stop4727" />
    </linearGradient>
    <linearGradient
       inkscape:collect="always"
       id="linearGradient4706">
      <stop
         style="stop-color:#202020;stop-opacity:1"
         offset="0"
         id="stop4702" />
      <stop
         style="stop-color:#53524e;stop-opacity:0"
         offset="1"
         id="stop4704" />
    </linearGradient>
    <linearGradient
       inkscape:collect="always"
       xlink:href="#linearGradient4706"
       id="linearGradient4708"
       x1="1055.9968"
       y1="663.90851"
       x2="912.45752"
       y2="666.29095"
       gradientUnits="userSpaceOnUse"
       gradientTransform="matrix(0.23576739,0,0,0.23576739,15.584747,10.278909)" />
    <filter
       inkscape:collect="always"
       style="color-interpolation-filters:sRGB"
       id="filter4719"
       x="-0.013007737"
       width="1.0260155"
       y="-0.15489443"
       height="1.3097888">
      <feGaussianBlur
         inkscape:collect="always"
         stdDeviation="0.37724291"
         id="feGaussianBlur4721" />
    </filter>
    <linearGradient
       inkscape:collect="always"
       xlink:href="#linearGradient4729"
       id="linearGradient4731"
       x1="110.71867"
       y1="4.0097628"
       x2="110.18851"
       y2="180.8064"
       gradientUnits="userSpaceOnUse"
       gradientTransform="matrix(1.4105063,0,0,0.48432132,0,86.742389)" />
    <linearGradient
       inkscape:collect="always"
       xlink:href="#linearGradient4754"
       id="linearGradient4756"
       x1="131.2365"
       y1="176.49661"
       x2="131.72437"
       y2="202.35361"
       gradientUnits="userSpaceOnUse"
       gradientTransform="matrix(1,0,0,1.0521806,0,-9.7432352)" />
  </defs>
  <sodipodi:namedview
     id="base"
     pagecolor="#ffffff"
     bordercolor="#666666"
     borderopacity="1.0"
     inkscape:pageopacity="0.0"
     inkscape:pageshadow="2"
     inkscape:zoom="0.5239534"
     inkscape:cx="312.02147"
     inkscape:cy="330.86906"
     inkscape:document-units="mm"
     inkscape:current-layer="layer1"
     showgrid="false"
     showguides="false"
     inkscape:window-width="1440"
     inkscape:window-height="790"
     inkscape:window-x="11"
     inkscape:window-y="0"
     inkscape:window-maximized="0"
     inkscape:snap-global="false"
     inkscape:guide-bbox="true">
    <sodipodi:guide
       position="141.07476,210.42026"
       orientation="0,1"
       id="guide4778"
       inkscape:locked="false" />
    <sodipodi:guide
       position="31.249711,67.743378"
       orientation="0,1"
       id="guide4789"
       inkscape:locked="false" />
    <sodipodi:guide
       position="0,81.742111"
       orientation="1,0"
       id="guide4857"
       inkscape:locked="false"
       inkscape:label=""
       inkscape:color="rgb(0,0,255)" />
    <sodipodi:guide
       position="297.84435,-26.114314"
       orientation="1,0"
       id="guide4859"
       inkscape:locked="false" />
    <sodipodi:guide
       position="235.02883,0"
       orientation="0,1"
       id="guide4861"
       inkscape:locked="false"
       inkscape:label=""
       inkscape:color="rgb(0,0,255)" />
  </sodipodi:namedview>
  <metadata
     id="metadata5">
    <rdf:RDF>
      <cc:Work
         rdf:about="">
        <dc:format>image/svg+xml</dc:format>
        <dc:type
           rdf:resource="http://purl.org/dc/dcmitype/StillImage" />
        <dc:title />
      </cc:Work>
    </rdf:RDF>
  </metadata>
  <g
     inkscape:groupmode="layer"
     id="layer2"
     inkscape:label="Fondo"
     transform="translate(0,-87)"
     style="display:inline">
    <rect
       style="display:inline;fill:#000000;stroke:none;stroke-width:1.40828991;stroke-miterlimit:4;stroke-dasharray:none"
       id="rect829"
       width="298.39011"
       height="90.453682"
       x="-0.16570733"
       y="207.40942" />
    <g
       style="display:inline;fill:#e6e6e6"
       id="g4840">
      <path
         inkscape:connector-curvature="0"
         id="rect874"
         d="m 14.791016,225.03635 c -6.6384753,0 -12.0488276,5.41036 -12.0488276,12.04883 v 41.71306 c 0,6.6385 5.4103523,12.04883 12.0488276,12.04883 H 282.06872 c 6.63847,0 12.04956,-5.41033 12.04956,-12.04883 v -41.71306 c 0,-6.63847 -5.41109,-12.04883 -12.04956,-12.04883 H 84.505444 v 4.2524 H 282.06872 c 4.35605,0 7.79716,3.44036 7.79716,7.79643 v 41.71306 c 0,4.35607 -3.44111,7.79642 -7.79716,7.79642 H 14.791016 c -4.356062,0 -7.7964295,-3.44035 -7.7964291,-7.79642 v -41.71306 c 0,-4.35607 3.4403671,-7.79643 7.7964291,-7.79643 h 4.713899 v -4.2524 z"
         style="color:#000000;font-style:normal;font-variant:normal;font-weight:normal;font-stretch:normal;font-size:medium;line-height:normal;font-family:sans-serif;font-variant-ligatures:normal;font-variant-position:normal;font-variant-caps:normal;font-variant-numeric:normal;font-variant-alternates:normal;font-feature-settings:normal;text-indent:0;text-align:start;text-decoration:none;text-decoration-line:none;text-decoration-style:solid;text-decoration-color:#000000;letter-spacing:normal;word-spacing:normal;text-transform:none;writing-mode:lr-tb;direction:ltr;text-orientation:mixed;dominant-baseline:auto;baseline-shift:baseline;text-anchor:start;white-space:normal;shape-padding:0;clip-rule:nonzero;display:inline;overflow:visible;visibility:visible;opacity:1;isolation:auto;mix-blend-mode:normal;color-interpolation:sRGB;color-interpolation-filters:linearRGB;solid-color:#000000;solid-opacity:1;vector-effect:none;fill:#e6e6e6;fill-opacity:1;fill-rule:nonzero;stroke:none;stroke-width:4.25265789;stroke-linecap:butt;stroke-linejoin:miter;stroke-miterlimit:4;stroke-dasharray:none;stroke-dashoffset:0;stroke-opacity:1;color-rendering:auto;image-rendering:auto;shape-rendering:auto;text-rendering:auto;enable-background:accumulate" />
      <path
         sodipodi:nodetypes="cscsccccccccccccccccccc"
         inkscape:connector-curvature="0"
         id="path4734"
         d="m 28.820769,215.32203 c -1.67849,0 -2.675827,0.85379 -2.992065,2.56212 -0.316238,1.70833 0.583735,3.58261 2.700094,5.6224 1.283195,1.05815 1.06501,1.5105 -0.656807,1.5105 h -6.771582 v 4.11138 h 11.004397 c 1.897422,-0.33147 2.864625,-1.35092 2.901117,-3.05925 0.03649,-1.70833 -0.930712,-3.46792 -2.901117,-5.27823 -1.100749,-0.95616 -0.869444,-1.40854 0.6935,-1.35754 h 7.428486 l -3.038057,9.69502 h 4.725292 l 0.83044,-2.48564 h 3.913457 l 0.829924,2.48564 h 4.980574 l -4.405934,-13.8064 z m 15.985072,3.05925 1.742529,5.46943 h -3.630787 z"
         style="font-style:normal;font-variant:normal;font-weight:normal;font-stretch:normal;font-size:medium;line-height:1.25;font-family:'Star Jedi';-inkscape-font-specification:'Star Jedi';letter-spacing:2.51518893px;word-spacing:0px;display:inline;fill:#e6e6e6;fill-opacity:1;stroke:none;stroke-width:0.47817275" />
      <path
         d="m 54.377464,229.2892 v -9.69541 h -2.736672 v -4.11147 h 7.024124 v 9.69541 h 7.133591 v 4.11147 z"
         style="font-style:normal;font-variant:normal;font-weight:normal;font-stretch:normal;font-size:medium;line-height:1.25;font-family:'Star Jedi';-inkscape-font-specification:'Star Jedi';letter-spacing:2.51518893px;word-spacing:0px;display:inline;fill:#e6e6e6;fill-opacity:1;stroke:none;stroke-width:0.47817275"
         id="path4738"
         inkscape:connector-curvature="0" />
      <path
         d="m 75.142528,218.54201 -1.888304,5.46921 h 3.630652 z m -7.799515,1.05178 v -4.11147 h 11.056154 l 4.406042,13.80688 h -4.980743 l -0.830124,-2.486 h -3.913441 l -0.830123,2.486 h -4.72532 l 3.037706,-9.69541 z"
         style="font-style:normal;font-variant:normal;font-weight:normal;font-stretch:normal;font-size:medium;line-height:1.25;font-family:'Star Jedi';-inkscape-font-specification:'Star Jedi';letter-spacing:2.51518893px;word-spacing:0px;display:inline;fill:#e6e6e6;fill-opacity:1;stroke:none;stroke-width:0.47817275"
         id="path4740"
         inkscape:connector-curvature="0" />
    </g>
  </g>
  <g
     inkscape:label="Dibujo"
     inkscape:groupmode="layer"
     id="layer1"
     transform="translate(0,-87)"
     style="display:inline">
    <rect
       style="display:inline;fill:url(#linearGradient4731);fill-opacity:1;stroke:none;stroke-width:2.47956514;stroke-miterlimit:4;stroke-dasharray:none"
       id="rect4723"
       width="298.52786"
       height="92.290634"
       x="0"
       y="86.860474" />
    <path
       sodipodi:nodetypes="csccccccccccc"
       inkscape:connector-curvature="0"
       id="path4613"
       d="m 233.9186,185.09126 c -5.06808,-0.045 5.76752,-4.10945 0.90911,-5.26172 -4.04537,-0.95944 -8.7013,2.42059 -12.69862,1.15705 -9.62631,-1.26954 -13.57685,-3.37619 -23.25428,-2.67877 -8.61849,2.16666 -22.01032,3.93241 -31.18666,2.52268 -8.00151,1.41719 -15.15658,-3.73549 -22.5962,-4.13974 -9.37254,-0.75978 -18.97386,-0.87471 -27.90726,2.47315 -13.00734,0.76769 -26.158606,0.0147 -39.157503,1.00338 -10.905955,0.15187 -21.924953,-0.40879 -32.74004,1.00319 -8.514239,3.72107 -17.966005,1.43383 -26.836016,2.66037 -5.687504,6.08756 9.321112,5.93335 13.377467,6.76118 l 116.720272,-0.24725 c 3.85438,-1.57007 87.15818,-2.73869 85.36973,-5.25352 z"
       style="fill:#e8e4db;fill-opacity:1;stroke:none;stroke-width:0.33178672px;stroke-linecap:butt;stroke-linejoin:miter;stroke-opacity:1" />
    <path
       style="fill:#cfcfce;fill-opacity:1;stroke:none;stroke-width:0.3880178px;stroke-linecap:butt;stroke-linejoin:miter;stroke-opacity:1"
       d="m 0.32509162,178.95481 c 6.93152638,-0.0449 -7.88815022,-4.10945 -1.24337064,-5.26172 5.53277072,-0.95944 11.00245202,-2.17624 16.46951402,-3.43978 13.165743,-1.26954 26.652133,-1.07777 39.887786,-0.38035 11.787354,2.16665 22.917984,6.23082 35.468315,4.82109 10.943514,1.41719 20.729374,-3.73549 30.904424,-4.13974 12.81866,-0.75978 25.95022,-0.87471 38.16828,2.47315 17.78991,0.76769 35.77667,0.0147 53.55503,1.00338 14.91589,0.15187 29.98637,-0.40879 44.77799,1.00319 11.64477,3.72107 24.5718,1.43383 36.70315,2.66037 7.7787,6.08756 -12.74833,5.93335 -18.29613,6.76118 L 117.08379,184.20833 C 111.81221,182.63826 -2.1209432,181.46964 0.32509162,178.95481 Z"
       id="path4609"
       inkscape:connector-curvature="0"
       sodipodi:nodetypes="csccccccccccc" />
    <path
       style="fill:#aaa190;fill-opacity:1;stroke:none;stroke-width:0.31958824px;stroke-linecap:butt;stroke-linejoin:miter;stroke-opacity:1"
       d="M 0.16520793,206.78787 0.62882072,178.9548 H 297.33969 l 0.46359,28.04883 z"
       id="path4607"
       inkscape:connector-curvature="0" />
    <circle
       style="fill:#ff9955;fill-opacity:1;stroke:none;stroke-width:3;stroke-miterlimit:4;stroke-dasharray:none"
       id="path4617"
       cx="-94.838203"
       cy="146.10973"
       r="12.044585"
       transform="scale(-1,1)" />
    <path
       inkscape:connector-curvature="0"
       id="path4748"
       d="M 0.16520793,207.83495 0.62882072,178.54954 H 297.33969 l 0.46359,29.51243 z"
       style="fill:url(#linearGradient4756);fill-opacity:1;stroke:none;stroke-width:0.32782036px;stroke-linecap:butt;stroke-linejoin:miter;stroke-opacity:1" />
    <rect
       style="fill:#ffffff;fill-opacity:0;stroke:none;stroke-width:3;stroke-miterlimit:4;stroke-dasharray:none"
       id="rect4762"
       width="298.57523"
       height="120.01553"
       x="0"
       y="87.216766" />
    <rect
       style="opacity:0.27900002;fill:#800000;fill-opacity:0;stroke:none;stroke-width:3;stroke-miterlimit:4;stroke-dasharray:none"
       id="rect4776"
       width="299.05249"
       height="123.08827"
       x="0"
       y="86.363037" />
    <g
       id="g3823"
       transform="matrix(1.203703,0,0,1.203703,-42.422154,-37.659656)">
      <path
         sodipodi:nodetypes="ccccczcccccccccccccccccc"
         inkscape:connector-curvature="0"
         id="path4619"
         d="M 208.29655,181.58497 V 170.595 h 1.74607 c 0.6143,-2.35204 0.69986,-4.91709 3.88223,-5.98508 l 2.3831,-0.20543 c 4.17908,-6.51859 7.78576,-12.00885 17.04988,-12.19462 9.26414,-0.18574 15.51384,4.26883 17.76884,11.70896 h 1.33523 v -13.04418 h -0.92438 v -1.54066 l 0.72215,-0.1935 v -1.44985 l 0.50186,0.13446 v 1.09806 l 0.60858,0.16307 0.44316,1.65386 -0.64936,0.174 v 12.90203 h 2.07117 c 2.91454,0.44066 2.91433,3.79607 3.49214,6.57345 h 2.15692 v 9.75746 z"
         style="fill:#d3d0ca;fill-opacity:1;stroke:none;stroke-width:0.23576741px;stroke-linecap:butt;stroke-linejoin:miter;stroke-opacity:1" />
      <path
         sodipodi:nodetypes="cczccc"
         inkscape:connector-curvature="0"
         id="path4621"
         d="m 211.78869,180.66057 v -9.55203 c -0.0278,-1.74544 1.30889,-3.4556 3.12313,-3.53007 1.81426,-0.0745 3.27398,2.10079 3.34762,3.42736 v 9.44933 z"
         style="fill:#343434;fill-opacity:1;stroke:none;stroke-width:0.23576741px;stroke-linecap:butt;stroke-linejoin:miter;stroke-opacity:1" />
      <path
         sodipodi:nodetypes="ccccccc"
         inkscape:connector-curvature="0"
         id="path4623"
         d="m 219.8211,172.21485 v -3.77446 c -0.69081,-3.10616 -2.11112,-3.53753 -3.51315,-4.0359 l 5.91784,0.0179 c 1.49577,0.30443 2.94108,0.86953 3.95709,3.65271 l 0.36528,3.04393 z"
         style="fill:#818181;fill-opacity:1;stroke:none;stroke-width:0.23576741px;stroke-linecap:butt;stroke-linejoin:miter;stroke-opacity:1" />
      <path
         inkscape:connector-curvature="0"
         id="path4625"
         d="m 219.8211,172.21485 2.28273,0.25589 6.09036,-0.85567 14.89878,0.0504 5.63737,0.25167 1.71133,-0.60401 -7.24802,-0.10066 -16.64549,-0.0934 z"
         style="fill:#a1a1a1;fill-opacity:1;stroke:none;stroke-width:0.23576741px;stroke-linecap:butt;stroke-linejoin:miter;stroke-opacity:1" />
      <path
         inkscape:connector-curvature="0"
         id="path4627"
         d="m 222.10383,172.47074 v 11.02308 l 6.04005,-3.07036 0.0504,-8.80839 z"
         style="fill:#b1afad;fill-opacity:1;stroke:none;stroke-width:0.23576741px;stroke-linecap:butt;stroke-linejoin:miter;stroke-opacity:1" />
      <path
         inkscape:connector-curvature="0"
         id="path4629"
         d="m 242.58963,171.71573 0.0504,8.8084 5.78837,1.30867 0.302,-9.91573 z"
         style="fill:#b1afad;fill-opacity:1;stroke:none;stroke-width:0.23576741px;stroke-linecap:butt;stroke-linejoin:miter;stroke-opacity:1" />
      <path
         style="fill:#908373;fill-opacity:1;stroke:none;stroke-width:0.23576741px;stroke-linecap:butt;stroke-linejoin:miter;stroke-opacity:1"
         d="m 250.86627,171.67681 v -3.77447 c 0.69081,-3.10615 2.11111,-3.53752 3.51314,-4.03589 l -7.07551,0.67226 c -1.49577,0.30444 -2.94109,0.86953 -3.95709,3.65272 l -0.36528,3.04391 z"
         id="path4631"
         inkscape:connector-curvature="0"
         sodipodi:nodetypes="ccccccc" />
      <path
         sodipodi:nodetypes="ccccccc"
         inkscape:connector-curvature="0"
         id="path4633"
         d="m 250.86627,171.67681 v -3.77447 c 0.69081,-3.10615 2.11111,-3.53752 3.51314,-4.03589 l -7.07551,0.67226 c -1.49577,0.30444 -2.94109,0.86953 -3.95709,3.65272 l -0.36528,3.04391 z"
         style="fill:#818181;fill-opacity:1;stroke:none;stroke-width:0.23576741px;stroke-linecap:butt;stroke-linejoin:miter;stroke-opacity:1" />
      <path
         sodipodi:nodetypes="cccccccccsccccccc"
         inkscape:connector-curvature="0"
         id="path4672"
         d="m 234.53854,152.69162 c -0.28361,-0.003 -0.57022,-0.002 -0.85973,0.005 -9.26414,0.18575 -12.87077,5.67591 -17.04986,12.19452 l -0.19755,0.0171 c 0.75101,1.35378 1.47145,2.90866 2.42445,4.14986 1.50036,1.03556 3.29806,1.35751 4.97598,1.92206 1.01531,0.72213 2.36154,0.78753 3.44027,1.58499 1.36885,1.14415 4.98381,-2.04657 6.39811,-0.93096 0.78506,0.85507 8.46634,-0.46419 9.38769,0.11125 3.05921,-0.0693 4.91412,0.13658 6.67666,-0.0112 0.51685,-0.0434 1.02575,-0.11713 1.55475,-0.23718 -0.0861,-1.37251 -0.42538,-1.48862 -0.12811,-2.83356 -0.0212,-1.14381 0.39478,-2.2311 0.8955,-2.92543 0.007,-0.44325 0.0171,-0.8914 -0.008,-1.33264 l -1.06236,-0.12584 c -2.18451,-7.20763 -7.65678,-11.48757 -16.44796,-11.587 z"
         style="fill:url(#linearGradient4708);fill-opacity:1;stroke:none;stroke-width:0.23576741px;stroke-linecap:butt;stroke-linejoin:miter;stroke-opacity:1" />
      <path
         transform="matrix(0.89108935,0,0,0.89108935,24.931062,17.435015)"
         sodipodi:nodetypes="ccccccccccccccccccccccccscccccccccc"
         inkscape:connector-curvature="0"
         id="path4712"
         d="m 206.6354,184.30392 c 2.39607,-0.0609 4.81921,0.13423 7.19149,-0.12326 1.85441,-0.23675 3.75533,-0.10244 5.59053,-0.40932 0.8887,0.0622 1.3661,0.48805 1.73092,1.06517 0.91725,0.85419 2.84124,0.14099 4.29776,0.26629 1.77618,-0.15591 3.38445,0.48961 5.17045,0.26629 2.17212,0.0788 4.40019,-0.21479 6.50795,0.28271 1.28325,0.0335 2.62946,-0.15249 3.86687,0.10881 1.3249,0.52625 2.12831,0.64271 3.47237,0.67365 1.23776,-0.0114 2.47724,0.0185 3.71326,0 0.85008,-0.5629 2.10174,-0.1312 3.12912,-0.26629 0.97186,-0.20964 3.19385,0.39361 3.10114,0.17518 0.67385,0.43546 2.38157,0.76426 3.62254,0.62369 1.7803,-0.12497 2.83362,-1.11315 4.66267,-1.19215 0.90913,-0.30218 2.05331,-0.0619 3.05982,-0.13931 1.57243,-0.23796 3.17273,-0.31397 4.79325,-0.26629 1.42973,-0.57242 3.22528,-0.0119 4.52697,-0.79888 2.16647,-0.38619 0.85814,-1.4807 -0.2663,-1.73091 -0.58346,-0.56328 -1.24964,-0.79447 -2.31541,-0.66572 -1.57573,-0.0607 -3.24795,0.13594 -4.74388,-0.12698 -1.03602,-0.22256 -3.15543,-1.80272 -3.0598,-0.13931 -2.02471,0.44361 -4.04173,1.06378 -6.12472,1.06517 -2.14361,0.30373 -2.48742,0.41104 -4.08137,0.74928 -1.33004,0.36115 -2.63652,1.07446 -3.71709,0.71174 -2.2768,0.0346 -4.28612,-1.37843 -6.56498,-1.384 -1.58479,-0.004 -3.49399,0.18136 -5.0759,0.18924 -1.31902,0.5227 -2.84355,0.15674 -4.26068,0.26629 -1.819,0.23089 -3.65985,0.33627 -5.52576,0.2663 -1.35224,0.001 -2.71545,-0.002 -4.06076,0 -0.64606,0.91451 -1.8931,1.31384 -2.92921,1.59775 -0.86996,-0.62883 -1.43073,-1.82243 -3.08462,-1.33146 -1.60841,-0.16696 -2.92932,0.40881 -4.52697,0.26629 -1.62682,0.0907 -3.33969,-0.23302 -4.87158,0.28127 -1.63141,0.38714 -1.73327,-1.61728 -3.22808,-0.28127 z"
         style="opacity:0.27900002;fill:#1f1f1f;fill-opacity:0.5;stroke:none;stroke-width:0.26458332px;stroke-linecap:butt;stroke-linejoin:miter;stroke-opacity:1;filter:url(#filter4719)" />
    </g>
    <circle
       style="fill:#ffe680;fill-opacity:1;stroke:none;stroke-width:3;stroke-miterlimit:4;stroke-dasharray:none"
       id="path4615"
       cx="-122.00979"
       cy="117.7692"
       r="17.805038"
       transform="scale(-1,1)" />
    <path
       style="fill:#626262;fill-opacity:1;stroke-width:0.0478935"
       d="m 194.24928,180.29135 c -0.0187,-0.0302 -0.50818,-0.0445 -1.33391,-0.0389 -0.71741,0.005 -1.3304,-0.007 -1.36221,-0.0269 -0.0339,-0.0209 -0.0581,-0.01 -0.0586,0.0269 -5.2e-4,0.0412 -0.0128,0.0451 -0.0359,0.0116 -0.0194,-0.0281 -0.29623,-0.0872 -0.61529,-0.1313 -0.31907,-0.0441 -0.82554,-0.14659 -1.1255,-0.22769 -0.29996,-0.0811 -0.59927,-0.15992 -0.66512,-0.17512 -0.1786,-0.0413 -0.52665,-0.29416 -0.57317,-0.41651 -0.0544,-0.14301 -0.0318,-0.43683 0.0403,-0.52368 0.0319,-0.0384 0.17333,-0.12627 0.31438,-0.19528 0.14104,-0.069 0.28197,-0.15622 0.31316,-0.1938 0.0312,-0.0376 0.14658,-0.11247 0.2564,-0.16638 0.10981,-0.0539 0.25354,-0.14078 0.3194,-0.19303 0.0659,-0.0522 0.21672,-0.16644 0.33526,-0.25376 0.212,-0.15617 0.21575,-0.16373 0.22996,-0.46304 0.008,-0.16735 -0.004,-0.32306 -0.0273,-0.34604 -0.051,-0.051 -0.98099,-0.23529 -1.01515,-0.20113 -0.0134,0.0134 -0.0247,0.0596 -0.025,0.10256 -5.2e-4,0.0928 -0.15697,0.14324 -0.46445,0.14978 -0.41007,0.009 -0.45166,-0.0302 -0.48361,-0.45265 -0.0154,-0.20322 -0.0509,-0.3925 -0.079,-0.4206 -0.0628,-0.0628 -0.0676,-0.37907 -0.007,-0.44144 0.0428,-0.0438 0.0636,-1.02 0.12465,-5.84062 0.0288,-2.27137 0.0407,-2.52713 0.11975,-2.55431 0.0611,-0.021 0.0599,-0.23345 -0.002,-0.2714 -0.0303,-0.0187 -0.0479,-0.57936 -0.0479,-1.5239 0,-1.49192 1.8e-4,-1.4944 0.10635,-1.56072 l 0.10636,-0.0664 -0.10868,-0.0402 c -0.10412,-0.0385 -0.10832,-0.0608 -0.10015,-0.53179 0.0112,-0.64788 0.0112,-0.64797 -0.0997,-0.68317 -0.1115,-0.0354 -0.12756,-0.15844 -0.0258,-0.19749 0.0566,-0.0217 0.0645,-0.0977 0.0415,-0.39675 -0.0188,-0.24378 -0.009,-0.40573 0.0277,-0.47501 0.0487,-0.0909 0.0389,-0.12119 -0.0722,-0.22419 l -0.12849,-0.11908 0.15049,-0.0301 c 0.14679,-0.0293 0.15058,-0.0367 0.15389,-0.2995 0.002,-0.14817 0.0132,-0.7865 0.0253,-1.41851 0.0193,-1.01516 0.013,-1.15565 -0.0548,-1.20523 -0.083,-0.0607 -0.0811,-0.33023 0.002,-0.32428 0.12094,0.009 0.16762,-0.1309 0.16762,-0.50102 0,-0.45579 0.0833,-0.58 0.38876,-0.58 0.28476,0 0.32965,0.0819 0.32965,0.60118 0,0.44075 0.003,0.45131 0.11973,0.4807 0.0916,0.023 0.11973,0.0611 0.11973,0.16268 0,0.0729 -0.0311,0.15845 -0.0692,0.19001 -0.0572,0.0475 -0.0699,0.29485 -0.0731,1.4253 -0.002,0.75234 -0.014,1.38419 -0.0263,1.40411 -0.0123,0.0199 0.0313,0.0497 0.097,0.0662 0.11331,0.0285 0.17298,0.17183 0.0715,0.17183 -0.0264,0 -0.0479,0.0292 -0.0479,0.065 0,0.11783 0.85662,0.16937 1.13598,0.0684 l 0.16096,-0.0582 -0.20546,-0.0496 -0.20545,-0.0495 -0.0144,-0.33387 c -0.0196,-0.45324 0.0372,-0.5512 0.32183,-0.55539 l 0.2194,-0.003 -0.23923,-0.0642 c -0.13158,-0.0353 -0.25138,-0.0567 -0.26623,-0.0475 -0.0149,0.009 -0.0243,-0.13571 -0.0209,-0.32197 0.007,-0.41015 0.0431,-0.44587 0.49227,-0.49238 0.54898,-0.0568 0.58573,-0.11888 0.59212,-0.99973 l 0.004,-0.49945 0.23405,-0.031 c 0.17686,-0.0235 0.23417,-0.0511 0.2345,-0.11321 0.004,-0.63022 0.0709,-1.77234 0.10743,-1.8183 0.0261,-0.0329 0.0736,-0.0599 0.10534,-0.0599 0.0318,0 0.0561,-0.0485 0.054,-0.10776 -0.004,-0.11573 -0.0964,-0.20204 -0.16843,-0.15751 -0.0264,0.0163 -0.0461,-0.39426 -0.049,-1.01823 l -0.005,-1.04549 0.12123,-0.0649 c 0.13386,-0.0716 0.16538,-0.24027 0.0449,-0.24027 -0.042,0 -0.0873,-0.042 -0.10072,-0.0933 -0.0183,-0.0701 -0.0736,-0.0969 -0.22301,-0.10776 -0.18951,-0.0138 -0.19919,-0.0222 -0.21111,-0.18211 -0.0163,-0.21875 0.0341,-0.28755 0.22012,-0.3006 0.171,-0.012 0.19772,-0.0618 0.19206,-0.35819 -0.004,-0.21121 0.0667,-0.34697 0.1809,-0.34697 0.0363,0 0.066,-0.0228 0.066,-0.0507 0,-0.0279 -0.0269,-0.0345 -0.0599,-0.0148 -0.0396,0.0238 -0.0373,0.008 0.007,-0.0462 0.0367,-0.0452 0.0582,-0.0871 0.0479,-0.093 -0.0552,-0.0318 -0.1939,-0.12112 -0.37083,-0.23891 l -0.19874,-0.13231 v -0.3601 c 0,-0.38014 0.0162,-0.40719 0.2526,-0.42191 0.0914,-0.006 0.10842,-0.0326 0.10405,-0.16406 -0.003,-0.0997 0.0115,-0.14054 0.0404,-0.11162 0.0709,0.0709 0.17766,0.006 0.1775,-0.10765 -9e-5,-0.0588 -0.0569,-0.14068 -0.13301,-0.19164 -0.13257,-0.0888 -0.1328,-0.0899 -0.0982,-0.47894 0.019,-0.21446 0.0224,-0.47001 0.007,-0.56788 -0.0242,-0.15835 -0.0133,-0.18432 0.0995,-0.23571 l 0.12675,-0.0577 -0.006,-0.58874 c -0.006,-0.59873 0.0125,-0.70089 0.28298,-1.59793 l 0.0794,-0.26342 0.2012,0.002 0.2012,0.002 0.003,-1.55846 c 0.002,-0.85715 0.0129,-2.0326 0.0255,-2.61211 0.0126,-0.57952 0.0355,-1.99111 0.0509,-3.13689 0.0207,-1.54557 0.0427,-2.09153 0.0854,-2.11539 0.0616,-0.0345 0.11141,-2.212 0.0547,-2.39077 -0.016,-0.0505 -0.0708,-0.0918 -0.12168,-0.0918 -0.0509,0 -0.0926,-0.0216 -0.0926,-0.0479 0,-0.0264 -0.10776,-0.0479 -0.23946,-0.0479 -0.21569,0 -0.23971,0.0107 -0.24191,0.10776 -0.004,0.15156 -0.0475,0.52752 -0.0699,0.59655 -0.0144,0.0444 -0.0665,0.0427 -0.22464,-0.007 -0.11322,-0.0358 -0.43989,-0.1362 -0.72592,-0.22306 -0.28604,-0.0868 -0.53146,-0.18763 -0.5454,-0.22393 -0.0412,-0.10728 0.071,-1.06308 0.13364,-1.13852 0.0757,-0.0912 1.38317,-0.10166 1.47302,-0.0118 0.0316,0.0316 0.0575,0.17025 0.0575,0.30808 0,0.19805 0.0176,0.2554 0.0838,0.27344 0.09,0.0245 0.4864,0.0435 0.68249,0.0328 0.0658,-0.004 0.25443,-0.005 0.41906,-0.003 l 0.29934,0.004 0.008,-0.15692 c 0.004,-0.0863 0.008,-0.24062 0.009,-0.3429 l 0.001,-0.18598 0.80656,0.0233 c 0.44361,0.0128 0.81765,0.0344 0.83121,0.0479 0.0251,0.0251 0.0294,0.69109 0.006,0.99487 -0.009,0.12359 -0.0372,0.17133 -0.10663,0.18264 -0.0517,0.008 -0.2664,0.0721 -0.47713,0.1415 -0.21073,0.0694 -0.4047,0.13034 -0.43104,0.13542 -0.0264,0.005 -0.18032,0.0439 -0.34217,0.0863 -0.16185,0.0424 -0.30916,0.0771 -0.32736,0.0771 -0.0182,0 -0.0246,-0.16165 -0.0141,-0.35921 l 0.0189,-0.3592 h -0.13527 c -0.0744,0 -0.1727,0.0199 -0.21844,0.0444 -0.0457,0.0244 -0.12088,0.0561 -0.16698,0.0703 -0.0738,0.0228 -0.0842,0.0987 -0.0873,0.63809 -0.002,0.33668 -0.0118,0.88497 -0.0219,1.21843 -0.0156,0.51414 -0.007,0.61061 0.0556,0.63471 0.0659,0.0253 0.0711,0.28952 0.0469,2.411 -0.0149,1.31042 -0.033,3.41651 -0.0402,4.68019 l -0.0131,2.29761 0.16271,0.0132 c 0.0895,0.007 0.19048,0.0363 0.22442,0.0644 0.0563,0.0467 0.14404,0.31391 0.12678,0.38612 -0.0186,0.0778 0.17775,0.18013 0.37221,0.19395 0.19641,0.014 0.21585,0.0266 0.22021,0.14351 0.004,0.11825 -0.0136,0.13072 -0.23213,0.16078 l -0.23692,0.0326 0.0335,0.17447 c 0.0184,0.096 0.0434,0.43289 0.0555,0.74873 0.016,0.41864 0.0414,0.59576 0.0938,0.6536 0.0647,0.0715 0.0867,0.44364 0.0681,1.15393 -10e-4,0.0475 -0.0533,0.0957 -0.12191,0.11295 -0.12857,0.0323 -0.16701,0.16334 -0.0479,0.16334 0.0395,0 0.0718,0.0216 0.0718,0.0479 0,0.0264 -0.0194,0.0479 -0.0431,0.0479 -0.0237,0 0.0193,0.0668 0.0956,0.14855 0.0763,0.0817 0.12461,0.1733 0.10732,0.20354 -0.0173,0.0302 -0.0144,0.0396 0.006,0.0208 0.0208,-0.0188 0.0764,-0.0136 0.12354,0.0116 0.0598,0.032 0.0929,0.0278 0.10966,-0.0137 0.0132,-0.0327 0.0257,0.1042 0.0278,0.30426 0.003,0.29475 -0.0129,0.37879 -0.0838,0.44302 -0.0482,0.0436 -0.11842,0.0793 -0.15611,0.0793 -0.0377,0 -0.0954,0.0431 -0.12834,0.0958 -0.0329,0.0527 -0.092,0.0958 -0.13125,0.0958 -0.0475,0 -0.0714,0.0482 -0.0714,0.14369 0,0.0936 0.0242,0.14368 0.0695,0.14368 0.0382,0 0.0867,0.0281 0.10776,0.0624 0.0211,0.0343 0.11912,0.10001 0.2179,0.14592 0.1428,0.0664 0.1796,0.11007 0.1796,0.21322 0,0.10056 -0.035,0.14498 -0.15565,0.19747 -0.20779,0.0904 -0.2259,0.12581 -0.22676,0.44323 -5.2e-4,0.24541 -0.0113,0.27356 -0.10849,0.28737 -0.13718,0.0195 -0.14504,0.1876 -0.012,0.2564 0.0912,0.0472 0.0959,0.0989 0.0976,1.08619 10e-4,0.57016 -0.01,1.03564 -0.0239,1.03438 -0.15088,-0.0134 -0.19338,0.0202 -0.19338,0.15274 0,0.0928 0.0243,0.14368 0.0686,0.14368 0.0706,0 0.15063,0.16917 0.13025,0.27539 -0.006,0.033 0.0351,0.0599 0.0923,0.0599 0.0875,0 0.0943,0.0114 0.0432,0.0729 -0.0506,0.061 -0.0477,0.068 0.0181,0.0428 0.0433,-0.0166 0.0786,-0.0509 0.0786,-0.0762 0,-0.0253 0.0659,0.001 0.14644,0.0582 0.0805,0.0574 0.13626,0.11446 0.12381,0.1269 -0.0124,0.0125 0.007,0.0941 0.0437,0.18138 0.0936,0.22394 0.0575,0.72414 -0.0702,0.97456 -0.10263,0.20116 -0.15168,0.22417 -0.4287,0.20107 -0.0709,-0.006 -0.10114,0.01 -0.081,0.0426 0.0177,0.0286 0.13785,0.052 0.26705,0.052 h 0.23489 l 0.005,0.20354 c 0.003,0.11195 0.009,0.4514 0.0137,0.75433 l 0.009,0.55077 0.43715,0.0137 c 0.53006,0.0166 0.59698,0.0656 0.59988,0.43917 0.002,0.29419 -0.0944,0.42971 -0.31408,0.44034 l -0.14823,0.007 0.1346,0.0202 c 0.074,0.0111 0.16563,-0.006 0.20355,-0.037 0.0782,-0.0649 0.0872,0.0125 0.0696,0.59718 -0.008,0.26379 -0.0291,0.34689 -0.10403,0.40751 -0.10688,0.0866 -0.0803,0.22303 0.0456,0.23428 0.16313,0.0146 1.75278,0.006 1.76832,-0.01 0.009,-0.009 -0.021,-0.046 -0.0662,-0.0827 -0.0712,-0.0578 -0.0768,-0.0571 -0.0414,0.005 0.0225,0.0396 0.0225,0.0552 -2e-5,0.0347 -0.0914,-0.0831 -0.0692,-0.21974 0.0383,-0.235 0.13259,-0.0189 0.1269,0.0383 0.1596,-1.60276 0.0179,-0.89829 0.0101,-1.30999 -0.0253,-1.33187 -0.0282,-0.0174 -0.0512,-0.10438 -0.0512,-0.19325 0,-0.11951 0.0249,-0.16948 0.0958,-0.19197 0.0854,-0.0271 0.0959,-0.073 0.0968,-0.4223 0.001,-0.47643 0.0726,-0.60071 0.36725,-0.64023 0.1571,-0.0211 0.2151,-0.006 0.29663,0.0752 0.0876,0.0876 0.10212,0.16156 0.10703,0.54436 0.003,0.24366 0.004,0.47535 0.002,0.51486 -0.003,0.0476 0.005,0.0518 0.0222,0.0124 0.0192,-0.0433 0.0515,-0.046 0.11877,-0.0101 0.071,0.038 0.085,0.0795 0.0606,0.17922 -0.0175,0.0714 -0.052,0.14305 -0.0766,0.15926 -0.0255,0.0168 -0.0534,0.65043 -0.0646,1.46889 l -0.0197,1.43942 0.14714,0.0323 c 0.144,0.0316 0.14528,0.0343 0.06,0.12859 -0.0709,0.0784 -0.0875,0.18051 -0.0893,0.54932 -0.002,0.34008 -0.0195,0.46534 -0.0718,0.50238 -0.0573,0.0406 -0.0551,0.0446 0.0126,0.0229 0.0453,-0.0145 0.0969,-0.003 0.11469,0.026 0.0228,0.0369 -0.0231,0.0414 -0.15412,0.0153 -0.22578,-0.0449 -0.54752,-0.0339 -0.61572,0.0213 -0.0274,0.0221 -0.0928,0.0508 -0.14553,0.0638 -0.10016,0.0246 0.48766,0.0503 0.80754,0.0352 0.12244,-0.006 0.17408,0.009 0.15283,0.0433 -0.0176,0.0286 -0.0901,0.0544 -0.16099,0.0575 -0.0857,0.004 -0.0999,0.0131 -0.0425,0.0279 0.0666,0.0173 0.074,0.0372 0.0326,0.0871 -0.031,0.0374 -0.0552,0.26136 -0.0571,0.52947 -0.003,0.37911 -0.0191,0.48047 -0.0888,0.55016 -0.0703,0.0703 -0.0733,0.0901 -0.0173,0.11158 0.10599,0.0407 0.10051,2.97891 -0.006,3.13074 -0.0565,0.0807 -0.0618,0.12837 -0.0224,0.20205 0.0351,0.0655 0.0473,0.70273 0.0381,1.98844 -0.007,1.04059 0.003,1.89198 0.024,1.89197 0.0207,-1e-5 0.0185,0.0377 -0.005,0.0838 -0.0632,0.1252 -0.12543,4.51396 -0.064,4.51396 0.0216,0 0.044,0.12931 0.0497,0.28736 0.006,0.15805 -0.009,0.28736 -0.0333,0.28736 -0.024,0 -0.0479,0.17725 -0.0532,0.39388 -0.005,0.21663 -0.0208,0.40522 -0.0347,0.41907 -0.0139,0.0139 -0.20551,0.0252 -0.4259,0.0252 -0.38399,0 -0.51432,-0.0417 -0.5312,-0.17002 -0.003,-0.025 -0.009,-0.07 -0.012,-0.0999 -0.006,-0.0537 -0.91777,-0.0318 -1.59844,0.0383 l -0.27539,0.0284 v 0.25333 c 0,0.26979 -0.006,0.2626 0.43926,0.52454 0.073,0.0429 0.21975,0.13975 0.81767,0.53937 0.0986,0.0659 0.26567,0.21351 0.37118,0.32798 0.23586,0.25589 0.25863,0.47625 0.0721,0.69793 -0.0659,0.0783 -0.11974,0.12982 -0.11974,0.11458 0,-0.0152 -0.0808,0.0159 -0.1796,0.0691 -0.0988,0.0532 -0.26003,0.10986 -0.35833,0.12581 -0.10498,0.017 -0.16616,0.0493 -0.14825,0.0783 0.0167,0.0271 0.009,0.0358 -0.018,0.0194 -0.0267,-0.0165 -0.12159,-0.008 -0.21095,0.0185 -0.0894,0.0267 -0.2379,0.0586 -0.3301,0.071 -0.0922,0.0124 -0.28473,0.0438 -0.42786,0.0699 -0.14313,0.026 -0.3829,0.0473 -0.53281,0.0473 -0.33534,0 -0.57905,0.0455 -0.54437,0.10162 0.0143,0.0231 0.0152,0.042 0.002,0.042 -0.0132,0 -0.0372,-0.0215 -0.0535,-0.0478 z m 0.26335,-0.30629 c 0,-0.0103 -0.0323,-0.0312 -0.0718,-0.0464 -0.0395,-0.0152 -0.0718,-0.007 -0.0718,0.0188 0,0.0255 0.0323,0.0464 0.0718,0.0464 0.0395,0 0.0718,-0.008 0.0718,-0.0188 z m 0.3418,-0.0668 c -0.0345,-0.0115 -0.0856,0.002 -0.11343,0.0297 -0.0355,0.0355 -0.0169,0.0418 0.0628,0.0209 0.0648,-0.017 0.0865,-0.0386 0.0506,-0.0506 z m 1.09825,-1.03641 c -0.0919,-0.0978 -0.24272,-0.12337 -0.24272,-0.0411 0,0.0132 0.032,0.0117 0.0711,-0.003 0.0418,-0.0161 0.0919,0.0114 0.12142,0.0667 0.0277,0.0517 0.0749,0.094 0.10487,0.094 0.03,0 0.005,-0.0523 -0.0547,-0.11627 z m -2.3335,-0.10131 c -0.0156,-0.0406 -0.0386,-0.0636 -0.0512,-0.0511 -0.0125,0.0125 -0.009,0.0458 0.009,0.0739 0.0472,0.0764 0.0748,0.0616 0.0425,-0.0228 z m 1.90515,-0.22623 c -0.0473,-0.0469 -0.0528,-0.0414 -0.0268,0.0268 0.018,0.0473 0.0448,0.0738 0.0595,0.0591 0.0147,-0.0148 3e-5,-0.0534 -0.0327,-0.0859 z m -2.17227,-0.26092 c -0.072,-0.0109 -0.20127,-0.0111 -0.28736,-5.2e-4 -0.0861,0.0106 -0.0272,0.0196 0.13086,0.0198 0.15804,3.6e-4 0.22847,-0.008 0.1565,-0.0194 z m -3.31782,-0.061 c 0.0168,-0.0271 -0.003,-0.0352 -0.045,-0.0188 -0.083,0.0319 -0.0982,0.0662 -0.0292,0.0662 0.0248,0 0.0582,-0.0213 0.0743,-0.0474 z m 4.05931,0.0156 c -0.0329,-0.0133 -0.0868,-0.0133 -0.11972,0 -0.0329,0.0133 -0.006,0.0241 0.0599,0.0241 0.0659,0 0.0928,-0.0109 0.0599,-0.0241 z m 0.0532,-1.14818 c 0.12221,-0.0168 0.2222,-0.0471 0.2222,-0.0674 0,-0.0203 -0.0377,-0.0276 -0.0838,-0.0162 -0.0461,0.0114 -0.24545,0.0389 -0.44301,0.0611 -0.28877,0.0325 -0.31591,0.0416 -0.1384,0.0467 0.12145,0.004 0.32081,-0.008 0.44302,-0.0242 z m 2.98805,-0.62052 c 0.14483,-0.0222 0.15566,-0.0368 0.15566,-0.21005 0,-0.14192 0.022,-0.19316 0.0925,-0.21555 0.0903,-0.0287 0.0929,-0.1276 0.10776,-4.21052 0.0127,-3.49281 0.0263,-4.19443 0.0822,-4.26175 0.0537,-0.0647 0.0556,-0.10531 0.01,-0.20573 -0.0407,-0.0894 -0.0549,-0.55002 -0.0495,-1.6132 0.004,-0.81842 0.0181,-1.51567 0.0311,-1.54943 0.013,-0.0337 0.0414,-0.0504 0.0631,-0.037 0.0217,0.0134 0.0517,0.005 0.0666,-0.0192 0.0149,-0.024 -0.005,-0.056 -0.0446,-0.0711 -0.0582,-0.0223 -0.0716,-0.13898 -0.0716,-0.6243 0,-0.58248 -0.003,-0.59721 -0.10776,-0.61217 -0.0689,-0.01 -0.1053,-0.0459 -0.10093,-0.10021 0.006,-0.0787 -0.0543,-0.0839 -0.83814,-0.0718 l -0.84497,0.0131 -0.0149,0.15333 c -0.0103,0.1066 -0.0458,0.16318 -0.11656,0.18563 -0.0983,0.0312 -0.0974,0.0345 0.0268,0.0996 0.12403,0.065 0.12853,0.0815 0.12853,0.47291 0,0.29213 0.0168,0.40577 0.0599,0.4063 0.0452,5.2e-4 0.0443,0.0106 -0.004,0.0409 -0.04,0.0253 0.0456,0.0501 0.23103,0.0669 0.343,0.0311 0.47892,0.12706 0.47892,0.33812 0,0.23901 -0.11505,0.31963 -0.45615,0.31963 h -0.29762 l -0.0297,0.1796 c -0.0163,0.0988 -0.0299,0.37562 -0.0302,0.6152 -5.2e-4,0.47372 -0.046,0.56871 -0.28789,0.60172 -0.0659,0.009 -0.10895,0.0379 -0.0958,0.0642 0.0132,0.0264 0.0401,0.0425 0.0599,0.0359 0.0197,-0.007 0.0359,0.14967 0.0359,0.34723 0,0.28736 -0.0144,0.3592 -0.0718,0.3592 -0.0395,0 -0.0718,0.0196 -0.0718,0.0437 0,0.0421 0.0817,0.0599 0.59711,0.12967 0.13085,0.0177 0.26069,0.056 0.28853,0.0851 0.0278,0.0291 0.0468,0.14985 0.0421,0.26839 -0.005,0.11853 -0.0118,1.2645 -0.0157,2.54659 -0.005,1.74356 -0.0216,2.34289 -0.0645,2.37793 -0.0315,0.0258 -0.32669,0.0759 -0.65596,0.11149 l -0.59867,0.0646 -0.014,0.34334 -0.014,0.34335 0.26801,0.06 c 0.33858,0.0758 0.45909,0.22371 0.46175,0.56685 0.001,0.13055 -0.0123,0.2602 -0.0295,0.2881 -0.0172,0.0279 -0.003,0.051 0.0314,0.0514 0.0391,5.3e-4 0.0443,0.014 0.0139,0.0359 -0.03,0.0217 -0.0529,0.44919 -0.0596,1.11269 -0.007,0.67531 -0.0289,1.08352 -0.0593,1.09366 -0.0267,0.009 -0.0397,0.0305 -0.0289,0.048 0.0197,0.0321 1.45276,-0.0242 1.7411,-0.0684 z m -6.84246,-0.24703 c -0.003,-0.0197 -0.002,-0.0467 0.004,-0.0599 0.005,-0.0132 0.0132,-0.59874 0.0176,-1.30125 0.008,-1.2769 0.008,-1.27734 0.12302,-1.39955 0.0632,-0.0672 0.22844,-0.15527 0.36726,-0.19563 l 0.25239,-0.0734 0.0159,-0.33684 0.0159,-0.33683 -0.16762,-0.0463 c -0.0922,-0.0255 -0.37237,-0.096 -0.62261,-0.15672 l -0.45499,-0.11039 -0.0406,-0.90159 c -0.0291,-0.6466 -0.0254,-0.93025 0.0133,-1.00292 0.0378,-0.0711 0.0409,-0.21565 0.0105,-0.48448 -0.0238,-0.21074 -0.0348,-0.51247 -0.0244,-0.67051 0.0104,-0.15805 0.0347,-0.69621 0.054,-1.19591 l 0.0351,-0.90855 0.21552,-0.018 c 0.11853,-0.01 0.29995,-0.0323 0.40315,-0.05 l 0.18762,-0.032 -0.0113,-0.34684 c -0.009,-0.27783 0.004,-0.35258 0.0638,-0.37565 0.11412,-0.0438 0.0896,-0.12307 -0.0327,-0.1057 -0.0646,0.009 -0.1479,-0.0274 -0.20795,-0.0913 -0.0943,-0.10032 -0.0989,-0.14619 -0.0779,-0.78095 l 0.0223,-0.67438 -0.55147,0.0101 -0.55147,0.0101 -0.0191,1.17793 c -0.0138,0.85233 -0.0365,1.20939 -0.082,1.29175 -0.0471,0.0852 -0.0499,0.14235 -0.0112,0.22726 0.0491,0.10776 0.0418,4.11034 -0.0132,7.2595 -0.0109,0.62422 -0.002,1.14147 0.0197,1.14944 0.0217,0.008 0.0475,0.1007 0.0574,0.20607 l 0.0179,0.19157 0.30937,0.0791 c 0.33052,0.0845 0.67222,0.11164 0.6629,0.0526 z m 2.89829,-2.20709 c 0.0136,-0.022 -0.006,-0.0399 -0.0429,-0.0399 -0.0372,0 -0.0565,0.018 -0.0429,0.0399 0.0136,0.0219 0.0329,0.0399 0.0429,0.0399 0.0101,0 0.0294,-0.0179 0.0429,-0.0399 z m 0.54274,-0.0369 c -0.0159,-0.0159 -0.0572,-0.0176 -0.0918,-0.004 -0.0382,0.0153 -0.0269,0.0266 0.0289,0.0289 0.0505,0.002 0.0788,-0.009 0.0629,-0.0251 z m 0.31322,-0.003 c -0.0324,-0.0131 -0.0971,-0.0139 -0.14369,-0.002 -0.0466,0.0121 -0.02,0.0229 0.059,0.0238 0.079,0.001 0.11715,-0.009 0.0847,-0.0221 z m 0.2136,0.003 c -0.0159,-0.0159 -0.0572,-0.0176 -0.0918,-0.004 -0.0382,0.0153 -0.0269,0.0266 0.0289,0.0289 0.0505,0.002 0.0788,-0.009 0.0629,-0.0251 z m 0.92327,-0.14322 c 0.1331,-0.0395 0.22981,-0.0916 0.21493,-0.11565 -0.0161,-0.026 -0.08,-0.0233 -0.15707,0.007 -0.0715,0.0277 -0.30243,0.0914 -0.51316,0.14162 l -0.38315,0.0913 0.29823,-0.026 c 0.16402,-0.0143 0.40712,-0.0583 0.54022,-0.0978 z m 0.43073,-6.1709 c 0,-0.0506 -0.0919,-0.0718 -0.11926,-0.0276 -0.0165,0.0268 0.004,0.0487 0.0446,0.0487 0.0411,0 0.0747,-0.01 0.0747,-0.0211 z m -2.0714,-0.25137 c -0.0461,-0.0121 -0.12153,-0.0121 -0.16763,0 -0.0461,0.0121 -0.008,0.0219 0.0838,0.0219 0.0922,0 0.12991,-0.01 0.0838,-0.0219 z m 0.31222,0.002 c -0.0324,-0.0131 -0.0971,-0.0139 -0.14368,-0.002 -0.0466,0.0121 -0.02,0.0229 0.059,0.0238 0.079,10e-4 0.11716,-0.009 0.0847,-0.0221 z m 0.59832,-0.0494 c -0.0458,-0.012 -0.132,-0.0124 -0.19158,-0.001 -0.0596,0.0114 -0.0221,0.0213 0.0833,0.0218 0.10536,5.3e-4 0.15411,-0.009 0.10832,-0.0208 z m 0.50232,-0.0488 c -0.0593,-0.0114 -0.15625,-0.0114 -0.21552,0 -0.0593,0.0114 -0.0108,0.0207 0.10776,0.0207 0.11853,0 0.16703,-0.009 0.10776,-0.0207 z m 0.64712,-0.047 c -0.0458,-0.012 -0.132,-0.0124 -0.19157,-0.001 -0.0596,0.0115 -0.0221,0.0213 0.0833,0.0218 0.10537,5.2e-4 0.15411,-0.009 0.10832,-0.0208 z m 0.23791,0.004 c -0.0159,-0.0159 -0.0572,-0.0176 -0.0918,-0.004 -0.0382,0.0153 -0.0269,0.0266 0.0289,0.0289 0.0505,0.002 0.0788,-0.009 0.0629,-0.0251 z m -2.83586,-1.68641 c -0.053,-0.053 -0.16469,-0.0471 -0.2131,0.0112 -0.0373,0.0449 -0.0146,0.0538 0.0959,0.0376 0.0796,-0.0117 0.13234,-0.0336 0.11718,-0.0488 z m -0.51513,-0.9517 c -0.0458,-0.012 -0.13199,-0.0124 -0.19157,-10e-4 -0.0596,0.0114 -0.0221,0.0213 0.0832,0.0218 0.10537,5.3e-4 0.15411,-0.009 0.10832,-0.0208 z m -2.52095,-0.73339 h 0.47295 v -0.38315 c 0,-0.31722 0.0162,-0.39936 0.0943,-0.47741 0.0833,-0.0833 0.0855,-0.0991 0.0192,-0.13629 -0.0461,-0.0258 -0.0751,-0.10735 -0.0751,-0.21119 0,-0.1644 -0.006,-0.17 -0.21741,-0.19897 -0.31005,-0.0425 -0.7792,-0.0326 -0.6601,0.0139 0.0926,0.0362 0.0924,0.0383 -0.009,0.0924 -0.0569,0.0305 -0.1319,0.0554 -0.16656,0.0555 -0.0456,4e-5 -0.0651,0.096 -0.0705,0.34723 -0.0183,0.84785 -0.024,0.88701 -0.12768,0.85991 -0.0681,-0.0178 -0.0847,-0.008 -0.0581,0.0353 0.0237,0.0384 0.0895,0.0498 0.1811,0.0315 0.0791,-0.0158 0.35669,-0.0288 0.61681,-0.0288 z m 3.42937,-0.55576 c -0.0159,-0.0159 -0.0572,-0.0176 -0.0918,-0.004 -0.0382,0.0153 -0.0269,0.0266 0.0289,0.0289 0.0505,0.002 0.0788,-0.009 0.0629,-0.0251 z m 1.00677,-0.006 c -0.12512,-0.01 -0.32987,-0.01 -0.45499,0 -0.12512,0.01 -0.0227,0.018 0.22749,0.018 0.25024,0 0.35262,-0.008 0.2275,-0.018 z m -2.53936,-0.0416 c -0.0159,-0.0159 -0.0572,-0.0176 -0.0918,-0.004 -0.0382,0.0153 -0.0269,0.0266 0.0289,0.0289 0.0505,0.002 0.0788,-0.009 0.0629,-0.0251 z m 1.063,-0.0549 c -0.0444,-0.071 -0.11932,-0.0825 -0.49132,-0.0754 -0.24143,0.005 -0.46524,0.01 -0.49734,0.012 -0.0321,0.002 -0.0459,0.0359 -0.0308,0.0754 0.0222,0.0578 0.12975,0.0718 0.54967,0.0718 0.48526,0 0.51842,-0.006 0.46978,-0.0838 z m -0.34274,-1.29142 c -0.072,-0.0109 -0.20128,-0.0111 -0.28736,-5.3e-4 -0.0861,0.0107 -0.0272,0.0196 0.13084,0.0198 0.15806,3.6e-4 0.22849,-0.008 0.15652,-0.0194 z m 2.05856,-0.52563 c -0.0461,-0.0121 -0.12153,-0.0121 -0.16763,0 -0.0461,0.012 -0.008,0.0219 0.0838,0.0219 0.0922,0 0.12991,-0.01 0.0838,-0.0219 z m -1.56851,-0.69558 c 0,-0.0207 -0.0701,-0.0374 -0.15565,-0.037 -0.11203,5.3e-4 -0.13638,0.0129 -0.0869,0.0443 0.0813,0.0514 0.24254,0.0466 0.24254,-0.007 z m 0.14368,0.0102 c 0,-0.0264 -0.0228,-0.0479 -0.0507,-0.0479 -0.0279,0 -0.0374,0.0215 -0.0211,0.0479 0.0163,0.0264 0.0391,0.0479 0.0507,0.0479 0.0116,0 0.0211,-0.0216 0.0211,-0.0479 z m 1.95958,-0.028 c 0.0154,-0.0154 -0.28988,-0.0209 -0.67841,-0.012 -0.38852,0.009 -0.70642,0.0331 -0.70643,0.054 -2e-5,0.0426 1.34111,0.002 1.38484,-0.0419 z m 0.3872,-0.0199 c 0.0566,-0.0366 0.0465,-0.0459 -0.0479,-0.0438 -0.0659,0.002 -0.16284,0.0212 -0.21553,0.0438 -0.0822,0.0353 -0.0755,0.0415 0.0479,0.0438 0.079,0.002 0.176,-0.0183 0.21552,-0.0438 z m -0.97084,-0.3163 c -0.0159,-0.0159 -0.0572,-0.0176 -0.0918,-0.004 -0.0382,0.0153 -0.0269,0.0266 0.0289,0.0289 0.0505,0.002 0.0788,-0.009 0.0629,-0.0252 z m -1.53136,-0.61387 c 0.0152,-0.0152 -0.0285,-0.0277 -0.0972,-0.0277 -0.0687,0 -0.13634,0.0185 -0.15033,0.0412 -0.0276,0.0446 0.20195,0.0321 0.24751,-0.0135 z m 0.17937,0.0202 c -0.0163,-0.0264 -0.0511,-0.0479 -0.0775,-0.0479 -0.0264,0 -0.0345,0.0216 -0.0183,0.0479 0.0163,0.0263 0.0511,0.0479 0.0775,0.0479 0.0264,0 0.0346,-0.0215 0.0183,-0.0479 z m 0.26341,0.003 c 0,-0.0247 -0.0431,-0.0417 -0.0958,-0.0377 -0.0527,0.004 -0.0958,0.0242 -0.0958,0.0449 0,0.0207 0.0431,0.0377 0.0958,0.0377 0.0527,0 0.0958,-0.0202 0.0958,-0.0449 z m 0.35921,-0.003 c -0.0527,-0.0226 -0.12812,-0.0412 -0.16764,-0.0412 -0.0452,0 -0.0364,0.0152 0.0239,0.0412 0.0527,0.0226 0.12812,0.0412 0.16763,0.0412 0.0453,0 0.0364,-0.0152 -0.0239,-0.0412 z m 0.78839,-0.002 c 0.0487,-0.0285 -0.0443,-0.0436 -0.27354,-0.0446 -0.19098,-5.2e-4 -0.34723,0.0148 -0.34723,0.0347 0,0.0524 0.53357,0.0609 0.62077,0.01 z m -0.6088,-0.27143 c -0.0593,-0.0114 -0.15625,-0.0114 -0.21552,0 -0.0593,0.0114 -0.0108,0.0207 0.10776,0.0207 0.11854,0 0.16703,-0.009 0.10776,-0.0207 z m 0.4061,-0.56986 c -0.0159,-0.0159 -0.0572,-0.0176 -0.0918,-0.004 -0.0382,0.0153 -0.0269,0.0266 0.0289,0.0289 0.0505,0.002 0.0788,-0.009 0.0629,-0.0251 z m -0.45308,-0.24195 c -0.0324,-0.0131 -0.0971,-0.0139 -0.14368,-0.002 -0.0466,0.0121 -0.02,0.0229 0.059,0.0238 0.079,0.001 0.11714,-0.009 0.0847,-0.0221 z m -1.07648,-0.32583 c 0.0142,-0.0142 -0.1986,-0.0244 -0.47299,-0.0225 -0.299,0.002 -0.46051,0.0186 -0.4031,0.0415 0.10188,0.0405 0.8324,0.0247 0.87609,-0.0189 z m -1.03175,-0.01 c -0.0329,-0.0133 -0.0868,-0.0133 -0.11973,0 -0.0329,0.0133 -0.006,0.0241 0.0599,0.0241 0.0659,0 0.0928,-0.0109 0.0599,-0.0241 z m 6.26208,-0.20775 c 0,-0.0264 -0.0485,-0.0476 -0.10776,-0.0471 -0.0871,5.3e-4 -0.094,0.01 -0.0359,0.0471 0.0929,0.06 0.14369,0.06 0.14369,0 z m -3.47504,-0.33079 c 0.0148,-0.0239 -0.0163,-0.0321 -0.069,-0.0184 -0.11183,0.0292 -0.12597,0.0618 -0.0268,0.0618 0.038,0 0.0811,-0.0195 0.0959,-0.0434 z m -0.78048,-3.22884 c -0.0383,-0.0462 -0.0377,-0.0782 0.002,-0.11816 0.0411,-0.0411 0.0349,-0.0624 -0.0248,-0.0853 -0.0438,-0.0168 -0.0705,-0.0453 -0.0594,-0.0632 0.0111,-0.018 -0.0333,-0.0372 -0.0987,-0.0426 -0.0686,-0.006 -0.10645,0.0103 -0.0895,0.0378 0.0162,0.0261 0.005,0.0476 -0.0241,0.0476 -0.0294,0 -0.0382,0.0249 -0.0194,0.0553 0.0213,0.0345 0.0131,0.0423 -0.0219,0.0206 -0.0309,-0.0191 -0.0437,-0.0547 -0.0285,-0.0792 0.0152,-0.0245 0.005,-0.0446 -0.0231,-0.0446 -0.0279,0 -0.0507,0.067 -0.0507,0.1488 0,0.0991 0.02,0.14131 0.0599,0.12636 0.0329,-0.0123 0.10298,-0.005 0.15566,0.0154 0.0527,0.0208 0.13614,0.0394 0.18546,0.0413 0.0691,0.003 0.0776,-0.0112 0.0371,-0.06 z m -1.87485,-1.75658 c 0,-0.0264 -0.0593,-0.0457 -0.13171,-0.0431 l -0.1317,0.005 0.11973,0.0383 c 0.0659,0.0211 0.12513,0.0405 0.13171,0.0431 0.007,0.003 0.012,-0.0168 0.012,-0.0431 z m 0.62262,-2.16085 c 0,-0.0264 -0.0216,-0.0346 -0.0479,-0.0183 -0.0263,0.0163 -0.0479,0.0511 -0.0479,0.0775 0,0.0264 0.0216,0.0346 0.0479,0.0183 0.0264,-0.0163 0.0479,-0.0511 0.0479,-0.0775 z m 0.43104,0.0296 c 0,-0.0395 -0.018,-0.0718 -0.0399,-0.0718 -0.0219,0 -0.0399,0.0323 -0.0399,0.0718 0,0.0395 0.0179,0.0719 0.0399,0.0719 0.022,0 0.0399,-0.0323 0.0399,-0.0719 z m 0.18272,-3.29267 c 0.0222,-0.18682 0.0383,-0.53055 0.0227,-0.48402 -0.0101,0.0301 -0.0639,0.0429 -0.11938,0.0283 -0.0696,-0.0182 -0.0902,-0.009 -0.0662,0.0298 0.0191,0.0309 0.057,0.0425 0.0841,0.0257 0.028,-0.0173 0.0244,0.0162 -0.008,0.0771 -0.0317,0.0592 -0.0392,0.12108 -0.0168,0.13748 0.0618,0.0451 0.0717,0.14956 0.0141,0.14956 -0.0279,0 -0.0374,0.0216 -0.0211,0.0479 0.0411,0.0665 0.10234,0.0599 0.11088,-0.012 z m 0.44947,-0.0934 c -0.0307,-0.0307 -0.0718,-0.04 -0.0912,-0.0205 -0.0194,0.0194 -0.004,0.0545 0.0337,0.078 0.0894,0.0553 0.12984,0.0149 0.0575,-0.0575 z m 0.0472,-0.36707 c -0.0583,-0.037 -0.29624,-0.0185 -0.29624,0.023 0,0.0101 0.0808,0.018 0.1796,0.0176 0.11448,-5.2e-4 0.15677,-0.0152 0.11664,-0.0406 z m -0.67939,-0.17413 c 0,-0.0395 -0.035,-0.0718 -0.0777,-0.0718 -0.0636,0 -0.0669,0.013 -0.0181,0.0718 0.0328,0.0395 0.0678,0.0718 0.0777,0.0718 0.01,0 0.0181,-0.0323 0.0181,-0.0718 z m 0.70244,0.008 c 0,-0.0351 -0.0284,-0.0639 -0.0631,-0.0639 -0.0471,0 -0.0497,0.0161 -0.0101,0.0639 0.0291,0.0351 0.0575,0.0639 0.0631,0.0639 0.006,0 0.0101,-0.0287 0.0101,-0.0639 z m -0.12772,-0.39114 c 0,-0.0395 -0.0209,-0.0718 -0.0464,-0.0718 -0.0255,0 -0.034,0.0323 -0.0188,0.0718 0.0152,0.0395 0.036,0.0719 0.0464,0.0719 0.0103,0 0.0188,-0.0323 0.0188,-0.0719 z m 1.67627,-11.99732 c 0.0395,-0.0255 0.0503,-0.0464 0.0239,-0.0464 -0.0263,0 -0.0802,0.0209 -0.11973,0.0464 -0.0395,0.0255 -0.0503,0.0464 -0.0239,0.0464 0.0264,0 0.0802,-0.0209 0.11973,-0.0464 z m -4.19068,-0.0479 c -0.0527,-0.0226 -0.0688,-0.0427 -0.0359,-0.0445 0.0752,-0.004 0.0785,-0.12987 0.005,-0.17557 -0.033,-0.0204 -0.0424,-0.0132 -0.0231,0.0178 0.0177,0.0286 0.0102,0.0655 -0.0165,0.0821 -0.0913,0.0564 -0.0511,0.16819 0.0591,0.16475 0.10282,-0.003 0.10337,-0.005 0.012,-0.0445 z m 4.45829,-0.13151 c -0.0163,-0.0163 -0.0563,-0.001 -0.0888,0.034 -0.0469,0.0506 -0.0467,0.0567 0.001,0.0299 0.0342,-0.0193 0.0615,-0.007 0.0636,0.0289 0.003,0.0515 0.008,0.0514 0.0289,-1.7e-4 0.0139,-0.0346 0.0118,-0.0762 -0.005,-0.0926 z m -3.11875,-0.22462 c 0.0156,-0.2306 -0.0114,-0.27072 -0.0463,-0.0688 -0.0108,0.0625 -0.0307,0.17643 -0.044,0.25317 -0.0169,0.0966 -0.009,0.1242 0.0254,0.0898 0.0274,-0.0274 0.0566,-0.15073 0.065,-0.27411 z m 2.87636,0.22169 c -0.0147,-0.0147 -0.0534,-3e-5 -0.0859,0.0327 -0.0469,0.0473 -0.0414,0.0528 0.0268,0.0268 0.0472,-0.018 0.0738,-0.0448 0.0591,-0.0595 z m -0.3605,-0.0451 c -2e-5,-0.0197 -0.0538,-0.039 -0.11942,-0.0428 -0.0657,-0.004 -0.10748,0.0124 -0.0929,0.0359 0.032,0.0518 0.2124,0.0576 0.21235,0.007 z m 0.3153,-0.12512 c 0.005,-0.0343 -0.0183,-0.0625 -0.0519,-0.0625 -0.0335,0 -0.0543,0.0341 -0.0461,0.0758 0.008,0.0417 0.0165,0.0848 0.0185,0.0958 0.007,0.0391 0.0705,-0.0478 0.0795,-0.10915 z m -3.55311,0.009 c -0.0233,-0.0377 -0.008,-0.046 0.045,-0.0255 0.0783,0.03 0.10882,-0.0171 0.0495,-0.0765 -0.0451,-0.0451 -0.21641,0.0597 -0.18379,0.11247 0.0154,0.025 0.0497,0.0455 0.076,0.0455 0.0264,0 0.0323,-0.0252 0.0133,-0.056 z m 2.8068,0.008 c 0.0395,-0.0255 0.0503,-0.0464 0.0239,-0.0464 -0.0264,0 -0.0802,0.0209 -0.11973,0.0464 -0.0395,0.0255 -0.0503,0.0464 -0.0239,0.0464 0.0263,0 0.0802,-0.0209 0.11973,-0.0464 z m -2.25099,-0.12256 c 0,-0.0411 -0.0219,-0.0611 -0.0487,-0.0446 -0.0268,0.0165 -0.0363,0.0501 -0.0211,0.0747 0.041,0.0664 0.0698,0.054 0.0698,-0.0301 z m 2.99129,-0.0657 c 0.0152,-0.0245 0.006,-0.0581 -0.0211,-0.0747 -0.0268,-0.0165 -0.0487,0.004 -0.0487,0.0446 0,0.0841 0.0287,0.0965 0.0698,0.0301 z m -3.37444,-0.12817 c 0,-0.0103 -0.0323,-0.0188 -0.0718,-0.0188 -0.0395,0 -0.0719,0.0209 -0.0719,0.0464 0,0.0255 0.0323,0.034 0.0719,0.0188 0.0395,-0.0152 0.0718,-0.036 0.0718,-0.0464 z m 3.07476,-0.0667 c 0.14494,0 0.0955,-0.11941 -0.0516,-0.12453 -0.11502,-0.004 -0.13759,0.0143 -0.13759,0.11135 0,0.0828 0.0147,0.10139 0.0515,0.0647 0.0283,-0.0283 0.0903,-0.0515 0.13769,-0.0515 z m -2.64372,-0.0535 c 0,-0.0233 -0.0539,-0.0423 -0.11974,-0.0423 -0.0691,0 -0.11973,0.0276 -0.11973,0.0652 0,0.0437 0.0394,0.0576 0.11973,0.0423 0.0659,-0.0126 0.11974,-0.0419 0.11974,-0.0652 z m 0.161,0.0296 c 0.0152,-0.0395 0.007,-0.0718 -0.0188,-0.0718 -0.0255,0 -0.0464,0.0323 -0.0464,0.0718 0,0.0395 0.008,0.0718 0.0189,0.0718 0.0103,0 0.0312,-0.0323 0.0464,-0.0718 z m 2.9081,0.0239 c 0.0242,0 0.044,-0.023 0.044,-0.0512 0,-0.0744 -0.20396,-0.0329 -0.23028,0.0469 -0.0156,0.0473 0.002,0.0581 0.06,0.0359 0.0453,-0.0174 0.10208,-0.0316 0.12626,-0.0316 z m 0.25437,-0.0279 c 0.0412,-0.10726 0.0394,-0.10955 -0.0634,-0.0827 -0.055,0.0144 -0.082,0.0514 -0.0667,0.0913 0.0342,0.0891 0.0941,0.0851 0.13011,-0.009 z m -1.04853,-0.11731 c 0,-0.0343 -0.0269,-0.0714 -0.0599,-0.0823 -0.0329,-0.011 -0.0602,0.009 -0.0606,0.0439 -5.2e-4,0.0508 -0.009,0.0501 -0.0433,-0.003 -0.0308,-0.0486 -0.0405,-0.0336 -0.0352,0.0539 0.006,0.0999 0.0241,0.1149 0.10315,0.0857 0.0527,-0.0195 0.0958,-0.0635 0.0958,-0.0978 z m -3.39531,-0.0717 c 0.006,-0.0388 -0.009,-0.0705 -0.0333,-0.0705 -0.024,0 -0.0437,0.0467 -0.0437,0.10377 0,0.11061 0.0596,0.0848 0.077,-0.0333 z m 1.12037,0.0551 c 0,-0.01 -0.0328,-0.0453 -0.0729,-0.0786 -0.061,-0.0506 -0.068,-0.0477 -0.0428,0.0181 0.0258,0.0671 0.11571,0.11419 0.11571,0.0605 z m -0.26342,16.68502 c -0.0163,-0.0264 -0.007,-0.0479 0.0211,-0.0479 0.0279,0 0.0507,0.0215 0.0507,0.0479 0,0.0263 -0.01,0.0479 -0.0211,0.0479 -0.0116,0 -0.0344,-0.0216 -0.0507,-0.0479 z m 14.97977,-3.78359 c 0,-0.11853 0.009,-0.16702 0.0207,-0.10776 0.0114,0.0593 0.0114,0.15626 0,0.21553 -0.0114,0.0593 -0.0207,0.0108 -0.0207,-0.10777 z m -0.004,-0.69445 c 0.001,-0.079 0.0117,-0.10556 0.0238,-0.059 0.0121,0.0466 0.0113,0.11126 -0.002,0.14368 -0.0131,0.0324 -0.023,-0.006 -0.0221,-0.0847 z m 0.002,-0.69446 c 0,-0.0922 0.01,-0.12991 0.0219,-0.0838 0.0121,0.0461 0.0121,0.12153 0,0.16762 -0.0121,0.0461 -0.0219,0.008 -0.0219,-0.0838 z m 0.002,-0.7184 c 0,-0.11854 0.009,-0.16703 0.0207,-0.10776 0.0114,0.0593 0.0114,0.15625 0,0.21552 -0.0114,0.0593 -0.0207,0.0108 -0.0207,-0.10776 z m -0.001,-0.74235 c 5.2e-4,-0.10537 0.0103,-0.14283 0.0218,-0.0833 0.0114,0.0596 0.011,0.14579 -0.001,0.19158 -0.012,0.0458 -0.0214,-0.003 -0.0208,-0.10832 z m -13.70963,-9.65054 c 0,-0.0264 0.0215,-0.0479 0.0479,-0.0479 0.0263,0 0.0479,0.0216 0.0479,0.0479 0,0.0264 -0.0216,0.0479 -0.0479,0.0479 -0.0264,0 -0.0479,-0.0216 -0.0479,-0.0479 z"
       id="path3838"
       inkscape:connector-curvature="0" />
  </g>
  <g
     inkscape:groupmode="layer"
     id="layer3"
     inkscape:label="Letras"
     style="display:inline"
     transform="translate(0,-87)">
    <g
       style="display:inline;fill:#fffffa;fill-opacity:1"
       id="g914"
       transform="matrix(1.5013476,0,0,1.5013476,-3.4279705,-141.8228)">
      <path
         d="m 19.467389,280.13086 v -23.58867 h -7.78836 v -4.06187 h 19.564062 v 4.06187 h -7.71383 v 23.58867 z"
         style="font-style:normal;font-variant:normal;font-weight:normal;font-stretch:normal;font-size:medium;line-height:1.25;font-family:'Modern Sans';-inkscape-font-specification:'Modern Sans';letter-spacing:-0.03439583px;word-spacing:0px;fill:#fffffa;fill-opacity:1;stroke:none;stroke-width:0.93162197"
         id="path881"
         inkscape:connector-curvature="0" />
      <path
         d="m 50.332981,280.13086 -1.60239,-3.76375 H 35.874207 l -1.60239,3.76375 h -4.099136 l 12.148351,-27.65054 12.148351,27.65054 z m -12.707324,-7.82563 h 9.353485 l -4.65811,-10.91861 z"
         style="font-style:normal;font-variant:normal;font-weight:normal;font-stretch:normal;font-size:medium;line-height:1.25;font-family:'Modern Sans';-inkscape-font-specification:'Modern Sans';letter-spacing:-0.03439583px;word-spacing:0px;fill:#fffffa;fill-opacity:1;stroke:none;stroke-width:0.93162197"
         id="path883"
         inkscape:connector-curvature="0" />
      <path
         d="m 61.714752,280.13086 v -23.58867 h -7.78836 v -4.06187 h 19.564062 v 4.06187 h -7.71383 v 23.58867 z"
         style="font-style:normal;font-variant:normal;font-weight:normal;font-stretch:normal;font-size:medium;line-height:1.25;font-family:'Modern Sans';-inkscape-font-specification:'Modern Sans';letter-spacing:-0.03439583px;word-spacing:0px;fill:#fffffa;fill-opacity:1;stroke:none;stroke-width:0.93162197"
         id="path885"
         inkscape:connector-curvature="0" />
      <path
         d="m 88.399247,252.44305 q 2.869394,0 5.366129,1.08068 2.533995,1.08069 4.397226,2.98119 1.900498,1.86325 2.981178,4.39726 1.08068,2.49675 1.08068,5.36614 0,2.8694 -1.08068,5.40341 -1.08068,2.49675 -2.981178,4.39726 -1.863231,1.86324 -4.397226,2.94392 -2.496735,1.08068 -5.366129,1.08068 -2.869392,0 -5.403404,-1.08068 -2.496747,-1.08068 -4.397256,-2.94392 -1.863244,-1.90051 -2.981191,-4.39726 -1.080681,-2.53401 -1.080681,-5.40341 0,-2.86939 1.080681,-5.36614 1.117947,-2.53401 2.981191,-4.39726 1.900509,-1.9005 4.397256,-2.98119 2.534012,-1.08068 5.403404,-1.08068 z m 0,23.10423 q 1.900504,0 3.577421,-0.70803 1.714178,-0.7453 2.981172,-1.97504 1.267004,-1.26701 1.975028,-2.94393 0.745297,-1.71418 0.745297,-3.65196 0,-1.93777 -0.745297,-3.61469 -0.708024,-1.67692 -1.975028,-2.94393 -1.266994,-1.267 -2.981172,-1.97503 -1.676917,-0.7453 -3.577421,-0.7453 -1.93777,0 -3.651955,0.7453 -1.67692,0.70803 -2.943926,1.97503 -1.267005,1.26701 -2.012303,2.94393 -0.708033,1.67692 -0.708033,3.61469 0,1.93778 0.708033,3.65196 0.745298,1.67692 2.012303,2.94393 1.267006,1.22974 2.943926,1.97504 1.714185,0.70803 3.651955,0.70803 z"
         style="font-style:normal;font-variant:normal;font-weight:normal;font-stretch:normal;font-size:medium;line-height:1.25;font-family:'Modern Sans';-inkscape-font-specification:'Modern Sans';letter-spacing:-0.03439583px;word-spacing:0px;fill:#fffffa;fill-opacity:1;stroke:none;stroke-width:0.93162197"
         id="path887"
         inkscape:connector-curvature="0" />
      <path
         d="m 118.7487,252.44305 q 2.86939,0 5.36614,1.08068 2.53401,1.08069 4.39726,2.98119 1.90051,1.86325 2.98119,4.39726 1.08068,2.49675 1.08068,5.36614 0,2.8694 -1.08068,5.40341 -1.08068,2.49675 -2.98119,4.39726 -1.86325,1.86324 -4.39726,2.94392 -2.49675,1.08068 -5.36614,1.08068 -2.8694,0 -5.40341,-1.08068 -2.49675,-1.08068 -4.39726,-2.94392 -1.86324,-1.90051 -2.98119,-4.39726 -1.08068,-2.53401 -1.08068,-5.40341 0,-2.86939 1.08068,-5.36614 1.11795,-2.53401 2.98119,-4.39726 1.90051,-1.9005 4.39726,-2.98119 2.53401,-1.08068 5.40341,-1.08068 z m 0,23.10423 q 1.90051,0 3.57743,-0.70803 1.71418,-0.7453 2.98119,-1.97504 1.267,-1.26701 1.97504,-2.94393 0.74529,-1.71418 0.74529,-3.65196 0,-1.93777 -0.74529,-3.61469 -0.70804,-1.67692 -1.97504,-2.94393 -1.26701,-1.267 -2.98119,-1.97503 -1.67692,-0.7453 -3.57743,-0.7453 -1.93778,0 -3.65196,0.7453 -1.67692,0.70803 -2.94393,1.97503 -1.267,1.26701 -2.0123,2.94393 -0.70803,1.67692 -0.70803,3.61469 0,1.93778 0.70803,3.65196 0.7453,1.67692 2.0123,2.94393 1.26701,1.22974 2.94393,1.97504 1.71418,0.70803 3.65196,0.70803 z"
         style="font-style:normal;font-variant:normal;font-weight:normal;font-stretch:normal;font-size:medium;line-height:1.25;font-family:'Modern Sans';-inkscape-font-specification:'Modern Sans';letter-spacing:-0.03439583px;word-spacing:0px;fill:#fffffa;fill-opacity:1;stroke:none;stroke-width:0.93162197"
         id="path889"
         inkscape:connector-curvature="0" />
      <path
         d="m 140.72859,252.48032 v 27.65054 h -4.06187 v -27.65054 z"
         style="font-style:normal;font-variant:normal;font-weight:normal;font-stretch:normal;font-size:medium;line-height:1.25;font-family:'Modern Sans';-inkscape-font-specification:'Modern Sans';letter-spacing:-0.03439583px;word-spacing:0px;fill:#fffffa;fill-opacity:1;stroke:none;stroke-width:0.93162197"
         id="path891"
         inkscape:connector-curvature="0" />
      <path
         d="m 144.77528,252.48032 16.43382,17.47723 v -17.47723 h 4.06187 v 27.65054 L 148.79989,263.3244 v 16.80646 h -4.02461 z"
         style="font-style:normal;font-variant:normal;font-weight:normal;font-stretch:normal;font-size:medium;line-height:1.25;font-family:'Modern Sans';-inkscape-font-specification:'Modern Sans';letter-spacing:-0.03439583px;word-spacing:0px;fill:#fffffa;fill-opacity:1;stroke:none;stroke-width:0.93162197"
         id="path893"
         inkscape:connector-curvature="0" />
      <path
         d="m 169.35026,252.48032 h 16.99279 v 3.83828 h -12.93091 v 8.34733 h 10.43416 v 3.83829 h -10.43416 v 7.75109 h 12.93091 v 3.87555 h -16.99279 z"
         style="font-style:normal;font-variant:normal;font-weight:normal;font-stretch:normal;font-size:medium;line-height:1.25;font-family:'Modern Sans';-inkscape-font-specification:'Modern Sans';letter-spacing:-0.03439583px;word-spacing:0px;fill:#fffffa;fill-opacity:1;stroke:none;stroke-width:0.93162197"
         id="path895"
         inkscape:connector-curvature="0" />
    </g>
  </g>
  <g
     inkscape:groupmode="layer"
     id="layer4"
     inkscape:label="Overlay"
     style="display:inline">
    <path
       style="display:inline;fill:#000000;fill-opacity:0.98880597;stroke:none;stroke-width:15.57544136;stroke-miterlimit:4;stroke-dasharray:none"
       d="M 0.50390625,-1.4726562 V 465.33594 H 1127.5391 V -1.4726562 Z M 49.517578,17.027344 H 1077.002 c 16.7508,0 30.2363,13.485462 30.2363,30.236328 V 416.60156 c 0,16.75087 -13.4855,30.23633 -30.2363,30.23633 H 49.517578 c -16.750866,0 -30.236328,-13.48546 -30.236328,-30.23633 V 47.263672 c 0,-16.750866 13.485462,-30.236328 30.236328,-30.236328 z"
       id="rect4764"
       transform="scale(0.26458333)"
       inkscape:connector-curvature="0"
       sodipodi:nodetypes="cccccsssssssss" />
    <path
       style="display:inline;fill:#cccccc;stroke-width:0.13184877"
       d="m 283.3731,19.047042 c -3.44126,-0.77237 -5.40788,-4.60498 -3.99819,-7.79181 0.3664,-0.82832 1.09105,-1.7916197 1.6901,-2.2467097 l 0.49502,-0.37606 -0.25876,0.39292 c -1.1196,1.7000797 -1.24538,3.1792397 -0.37778,4.4426397 0.40238,0.58594 1.32219,1.0745 1.79809,0.95506 1.37204,-0.34436 1.46276,-2.85169 0.14505,-4.00865 l -0.48579,-0.4265297 0.32963,-0.32962 0.32962,-0.32962 0.47957,0.42107 c 0.53397,0.4688297 0.64445,0.3039397 0.275,-0.41048 -0.24932,-0.48215 -0.1764,-0.74812 0.34105,-1.24386 l 0.39715,-0.38049 0.48564,0.48565 0.48566,0.48565 -0.22572,0.62975 c -0.31183,0.8699797 -0.29213,0.9025397 0.26705,0.44162 l 0.49147,-0.40512 0.33259,0.33304 0.33258,0.3330397 -0.44502,0.34865 c -0.93025,0.7288 -1.26554,2.54955 -0.64035,3.47728 1.00496,1.49125 3.10249,-0.0414 3.12324,-2.28219 0.007,-0.74399 -0.36096,-1.7766097 -0.8712,-2.4455597 l -0.369,-0.48378 0.40495,0.28834 c 2.597,1.8492397 3.03241,5.7215097 0.94202,8.3778297 -1.14405,1.45378 -3.47205,2.19719 -5.47367,1.74794 z"
       id="path844"
       inkscape:connector-curvature="0"
       inkscape:transform-center-x="80.995776"
       inkscape:transform-center-y="-186.559" />
    <rect
       style="opacity:0.20800003;fill:#ffd42a;fill-opacity:1;stroke:none;stroke-width:0.87483567;stroke-miterlimit:4;stroke-dasharray:none;stroke-opacity:1"
       id="rect3811"
       width="290.36057"
       height="114.62931"
       x="4.0398049"
       y="3.4652524"
       rx="14.922145"
       ry="14.246861" />
    <path
       style="opacity:0.97399998;fill:#000000;fill-opacity:1;stroke:#000000;stroke-width:0.12159255px;stroke-linecap:butt;stroke-linejoin:miter;stroke-opacity:1"
       d="m 30.398025,115.61304 -0.05086,1.17082 5.090534,5.19234 6.617694,-1.06901 -0.10184,-1.22173 -0.407238,-0.45815 0.407238,-0.71267 c -0.158602,-1.31177 -1.078872,-1.10019 -1.730779,-1.42535 l 0.203624,-5.44686 c -0.543219,-1.66189 -1.446093,-1.70533 -2.239833,-2.23984 l 0.458146,-7.17765 2.138016,8.14485 2.188936,0.55997 1.018099,1.78167 c 1.180678,0.0558 1.006303,0.0269 4.123327,0.20363 l 0.254534,2.74889 0.305431,0.55995 c -1.076266,1.66294 -2.08441,2.58552 -3.563375,3.30884 l -0.152716,0.81449 4.683292,4.47966 0.661759,0.10185 2.036221,-0.25454 0.254522,0.25454 2.850695,-0.20363 v -0.35634 l 2.239834,-0.40724 0.35634,-0.40723 -0.458158,-0.66177 v -0.25454 l -2.188925,-3.20702 1.781688,-0.0509 0.35634,0.55995 3.308841,-0.55995 0.05086,-0.40725 1.883494,-0.20363 0.05086,-1.22172 c -1.940827,-2.21631 -2.923527,-4.14518 -3.512455,-5.95591 l 0.458146,-3.30886 c 0.44027,-0.15361 0.584447,-0.60334 0.763577,-1.0181 l -0.763577,-4.88691 0.661771,-3.970621 0.865383,-0.763577 0.610862,-6.770397 c 0.05886,-1.278027 0.02229,-2.513695 -1.119917,-3.257937 l -3.51245,-0.254489 -0.661771,-2.494358 c -1.167671,-3.948763 -3.750003,-9.055226 -11.351884,-8.144848 -7.601869,0.91038 -8.015862,8.70704 -7.7376,10.486493 l 0.35634,1.679872 0.305431,0.101806 v 0.152715 L 36.55751,89.040543 c -0.972208,0.131991 -1.587082,0.531986 -1.476257,1.476254 l -0.967195,8.857514 0.661764,0.661769 -0.661764,6.6686 -0.559964,0.55996 -0.10184,2.18893 -0.661771,0.45815 0.814486,2.03621 -0.559964,0.50905 c -0.572046,1.36235 -1.027632,2.84116 -2.647071,3.15613 z"
       id="path4875"
       inkscape:connector-curvature="0"
       sodipodi:nodetypes="cccccccccccccccccccccccccccccccccccccccccccccczccccccccccccccc" />
    <ellipse
       style="opacity:0.27900002;fill:#666666;fill-opacity:0;stroke:none;stroke-width:1.37868714;stroke-miterlimit:4;stroke-dasharray:none"
       id="path4877"
       cx="49.971466"
       cy="79.048996"
       rx="1.2217267"
       ry="0.94174767" />
    <ellipse
       style="opacity:1;fill:#00ffff;fill-opacity:1;stroke:none;stroke-width:1.4906987;stroke-miterlimit:4;stroke-dasharray:none"
       id="path4879"
       cx="50.15675"
       cy="79.459122"
       rx="1.4276417"
       ry="1.3237234" />
    <ellipse
       ry="0.76676077"
       rx="0.8269549"
       cy="82.313553"
       cx="49.695301"
       id="ellipse4881"
       style="opacity:1;fill:#ff0000;fill-opacity:1;stroke:none;stroke-width:0.86348027;stroke-miterlimit:4;stroke-dasharray:none" />
  </g>
</svg>
