<?xml version="1.0" encoding="UTF-8" standalone="no"?>
<!-- Created with Inkscape (http://www.inkscape.org/) -->

<svg
   xmlns:dc="http://purl.org/dc/elements/1.1/"
   xmlns:cc="http://creativecommons.org/ns#"
   xmlns:rdf="http://www.w3.org/1999/02/22-rdf-syntax-ns#"
   xmlns:svg="http://www.w3.org/2000/svg"
   xmlns="http://www.w3.org/2000/svg"
   xmlns:sodipodi="http://sodipodi.sourceforge.net/DTD/sodipodi-0.dtd"
   xmlns:inkscape="http://www.inkscape.org/namespaces/inkscape"
   width="297mm"
   height="210mm"
   viewBox="0 0 1052.3622 744.09407"
   id="svg6368"
   version="1.1"
   inkscape:version="0.92.2 5c3e80d, 2017-08-06"
   sodipodi:docname="camiseta-staff-frontal.svg"
   inkscape:export-filename="/Users/macbook/workarea/pythoncanarias/docs/camisetas/pydaytf18/camiseta-staff-frontal.png"
   inkscape:export-xdpi="300.01077"
   inkscape:export-ydpi="300.01077">
  <defs
     id="defs6370" />
  <sodipodi:namedview
     id="base"
     pagecolor="#ffffff"
     bordercolor="#666666"
     borderopacity="1.0"
     inkscape:pageopacity="0.0"
     inkscape:pageshadow="2"
     inkscape:zoom="0.70710678"
     inkscape:cx="475.11622"
     inkscape:cy="377.572"
     inkscape:document-units="px"
     inkscape:current-layer="layer1"
     showgrid="false"
     units="mm"
     inkscape:window-width="1433"
     inkscape:window-height="856"
     inkscape:window-x="28"
     inkscape:window-y="26"
     inkscape:window-maximized="0"
     showguides="true"
     inkscape:guide-bbox="true"
     inkscape:snap-global="false">
    <sodipodi:guide
       position="45.078045,763.67511"
       orientation="1,0"
       id="guide848"
       inkscape:locked="false" />
    <sodipodi:guide
       position="1012.9305,714.61937"
       orientation="1,0"
       id="guide850"
       inkscape:locked="false" />
  </sodipodi:namedview>
  <metadata
     id="metadata6373">
    <rdf:RDF>
      <cc:Work
         rdf:about="">
        <dc:format>image/svg+xml</dc:format>
        <dc:type
           rdf:resource="http://purl.org/dc/dcmitype/StillImage" />
        <dc:title></dc:title>
      </cc:Work>
    </rdf:RDF>
  </metadata>
  <g
     inkscape:label="Capa 1"
     inkscape:groupmode="layer"
     id="layer1"
     transform="translate(0,-308.26799)">
    <rect
       style="color:#000000;clip-rule:nonzero;display:inline;overflow:visible;visibility:visible;opacity:1;isolation:auto;mix-blend-mode:normal;color-interpolation:sRGB;color-interpolation-filters:linearRGB;solid-color:#000000;solid-opacity:1;fill:#0a4568;fill-opacity:1;fill-rule:nonzero;stroke:none;stroke-width:1.76093602px;stroke-linecap:butt;stroke-linejoin:miter;stroke-miterlimit:4;stroke-dasharray:none;stroke-dashoffset:0;stroke-opacity:1;color-rendering:auto;image-rendering:auto;shape-rendering:auto;text-rendering:auto;enable-background:accumulate"
       id="rect6040"
       width="1057.1149"
       height="757.47955"
       x="-1.4142152"
       y="307.79489" />
    <rect
       style="color:#000000;clip-rule:nonzero;display:inline;overflow:visible;visibility:visible;opacity:1;isolation:auto;mix-blend-mode:normal;color-interpolation:sRGB;color-interpolation-filters:linearRGB;solid-color:#000000;solid-opacity:1;fill:none;fill-opacity:1;fill-rule:evenodd;stroke:none;stroke-width:8.42505264;stroke-linecap:round;stroke-linejoin:round;stroke-miterlimit:4;stroke-dasharray:none;stroke-dashoffset:0;stroke-opacity:1;color-rendering:auto;image-rendering:auto;shape-rendering:auto;text-rendering:auto;enable-background:accumulate"
       id="rect20075"
       width="997.02057"
       height="341.72073"
       x="35.797272"
       y="394.34329"
       inkscape:export-xdpi="21.661715"
       inkscape:export-ydpi="21.661715" />
    <g
       id="g4556"
       style="fill:#ffffff;fill-opacity:1"
       transform="matrix(1.3400815,0,0,1.3400815,35.797272,-674.18734)">
      <path
         d="M 284.44017,912.19021 V 951.3667 H 257.90379 V 837.05615 h 43.65156 q 20.33409,0 32.2676,10.36332 11.93352,10.36332 11.93352,27.24297 0,16.87964 -11.93352,27.24296 -11.93351,10.28481 -32.2676,10.28481 z m 0,-20.4126 h 17.11518 q 8.6361,0 13.18968,-4.7106 4.55358,-4.78911 4.55358,-12.24755 0,-7.61547 -4.55358,-12.48309 -4.47507,-4.86762 -13.18968,-4.86762 h -17.11518 z"
         style="font-style:normal;font-variant:normal;font-weight:normal;font-stretch:normal;font-size:medium;line-height:125%;font-family:Roboto;-inkscape-font-specification:Roboto;letter-spacing:-5.28294897px;word-spacing:0px;fill:#ffffff;fill-opacity:1;stroke:none;stroke-width:1px;stroke-linecap:butt;stroke-linejoin:miter;stroke-opacity:1"
         id="path4513"
         inkscape:connector-curvature="0" />
      <path
         d="m 387.89356,913.91743 0.0785,0.62808 h 0.47106 l 14.05329,-48.12662 h 28.2636 l -33.83781,97.58792 q -3.9255,9.4212 -10.12779,15.54498 -6.20229,6.12378 -19.70601,6.12378 -3.45444,0 -5.65272,-0.47106 -2.19828,-0.39255 -6.90888,-1.5702 l 3.21891,-18.92091 q 1.09914,0.23553 1.64871,0.31404 0.54957,0.15702 1.41318,0.15702 6.2808,0 9.18567,-1.88424 2.90487,-1.80573 4.31805,-5.4957 l 2.11977,-5.4957 -29.36274,-85.88993 h 28.18509 l 12.64011,47.49854 z"
         style="font-style:normal;font-variant:normal;font-weight:normal;font-stretch:normal;font-size:medium;line-height:125%;font-family:Roboto;-inkscape-font-specification:Roboto;letter-spacing:-5.28294897px;word-spacing:0px;fill:#ffffff;fill-opacity:1;stroke:none;stroke-width:1px;stroke-linecap:butt;stroke-linejoin:miter;stroke-opacity:1"
         id="path4515"
         inkscape:connector-curvature="0" />
      <path
         d="m 462.76931,845.2997 v 21.11919 h 13.42521 v 18.37133 h -13.42521 v 38.94096 q 0,4.55358 1.80573,6.59484 1.88424,1.96275 5.02464,1.96275 2.04126,0 3.21891,-0.15702 1.25616,-0.15702 3.1404,-0.62808 l 1.80573,19.6275 q -4.00401,1.02063 -7.22292,1.41318 -3.21891,0.47106 -7.61547,0.47106 -13.11116,0 -19.94153,-6.98739 -6.75186,-6.98739 -6.75186,-22.13982 v -39.09798 h -11.85501 v -18.37133 h 11.85501 V 845.2997 Z"
         style="font-style:normal;font-variant:normal;font-weight:normal;font-stretch:normal;font-size:medium;line-height:125%;font-family:Roboto;-inkscape-font-specification:Roboto;letter-spacing:-5.28294897px;word-spacing:0px;fill:#ffffff;fill-opacity:1;stroke:none;stroke-width:1px;stroke-linecap:butt;stroke-linejoin:miter;stroke-opacity:1"
         id="path4517"
         inkscape:connector-curvature="0" />
      <path
         d="m 509.617,876.93923 q 3.84699,-5.73123 9.34269,-8.87163 5.57421,-3.21891 12.24756,-3.21891 13.18968,0 20.72664,9.18567 7.53696,9.18566 7.53696,28.49912 v 48.83322 h -26.53638 v -48.99024 q 0,-9.73524 -2.51232,-13.42521 -2.51232,-3.68997 -7.61547,-3.68997 -4.47507,0 -7.77249,1.33467 -3.29742,1.25616 -5.41719,3.61146 V 951.3667 H 483.08063 V 828.89111 H 509.617 Z"
         style="font-style:normal;font-variant:normal;font-weight:normal;font-stretch:normal;font-size:medium;line-height:125%;font-family:Roboto;-inkscape-font-specification:Roboto;letter-spacing:-5.28294897px;word-spacing:0px;fill:#ffffff;fill-opacity:1;stroke:none;stroke-width:1px;stroke-linecap:butt;stroke-linejoin:miter;stroke-opacity:1"
         id="path4519"
         inkscape:connector-curvature="0" />
      <path
         d="m 565.49333,908.10769 q 0,-19.15644 10.83438,-31.16846 10.83438,-12.09054 30.22635,-12.09054 19.47047,0 30.30485,12.09054 10.83438,12.01202 10.83438,31.16846 v 1.64871 q 0,19.23495 -10.83438,31.24698 -10.83438,12.01203 -30.14783,12.01203 -19.54899,0 -30.38337,-12.01203 -10.83438,-12.01203 -10.83438,-31.24698 z m 26.53638,1.64871 q 0,10.67736 3.29742,16.80114 3.37593,6.04527 11.38395,6.04527 7.77248,0 11.14841,-6.12378 3.37593,-6.12378 3.37593,-16.72263 v -1.64871 q 0,-10.36332 -3.37593,-16.56561 -3.37593,-6.2808 -11.30543,-6.2808 -7.851,0 -11.22693,6.2808 -3.29742,6.2808 -3.29742,16.56561 z"
         style="font-style:normal;font-variant:normal;font-weight:normal;font-stretch:normal;font-size:medium;line-height:125%;font-family:Roboto;-inkscape-font-specification:Roboto;letter-spacing:-5.28294897px;word-spacing:0px;fill:#ffffff;fill-opacity:1;stroke:none;stroke-width:1px;stroke-linecap:butt;stroke-linejoin:miter;stroke-opacity:1"
         id="path4521"
         inkscape:connector-curvature="0" />
      <path
         d="m 678.60347,866.41889 1.02063,11.93351 q 4.16103,-6.3593 10.28481,-9.89225 6.12378,-3.61146 13.66074,-3.61146 12.48309,0 19.47048,8.47908 7.0659,8.47907 7.0659,26.92892 v 51.11001 h -26.53638 v -51.18852 q 0,-8.08653 -2.59083,-11.46246 -2.59083,-3.45444 -7.53696,-3.45444 -4.23954,0 -7.61547,1.49169 -3.37593,1.49169 -5.65272,4.23954 V 951.3667 H 653.7158 v -84.94781 z"
         style="font-style:normal;font-variant:normal;font-weight:normal;font-stretch:normal;font-size:medium;line-height:125%;font-family:Roboto;-inkscape-font-specification:Roboto;letter-spacing:-5.28294897px;word-spacing:0px;fill:#ffffff;fill-opacity:1;stroke:none;stroke-width:1px;stroke-linecap:butt;stroke-linejoin:miter;stroke-opacity:1"
         id="path4523"
         inkscape:connector-curvature="0" />
    </g>
    <g
       id="g4564"
       style="fill:#ffffff;fill-opacity:1"
       transform="matrix(1.3400815,0,0,1.3400815,35.797272,-674.18734)">
      <path
         d="m 420.80478,986.0786 c 0.0617,15.7528 13.27933,28.4651 29.51683,28.4015 6.94739,-0.027 13.32011,-2.395 18.23305,-6.211 0.88608,-0.6498 1.04196,-2.1045 0.23128,-2.8284 -0.56928,-0.9672 -1.86245,-1.1237 -2.82933,-0.4737 -4.18682,3.5709 -9.67251,5.5313 -15.6505,5.5547 -14.13712,0.055 -25.49013,-10.96778 -25.54294,-24.45859 -0.0541,-13.81399 11.2123,-24.9256 25.34942,-24.98094 5.97799,-0.0234 11.47949,2.05547 15.85508,5.4313 0.81036,0.64311 2.10258,0.55727 2.74505,-0.41467 0.72421,-0.72989 0.55727,-2.10257 -0.33419,-2.82615 -4.94267,-3.77754 -11.33404,-6.17606 -18.28143,-6.14887 -16.23718,0.14436 -29.35524,12.8789 -29.29232,28.95482 z"
         style="font-style:normal;font-variant:normal;font-weight:normal;font-stretch:normal;font-size:medium;line-height:125%;font-family:Quicksand;-inkscape-font-specification:Quicksand;letter-spacing:-8.37846279px;word-spacing:0px;fill:#ffffff;fill-opacity:1;stroke:none;stroke-width:1px;stroke-linecap:butt;stroke-linejoin:miter;stroke-opacity:1"
         id="path4532"
         inkscape:connector-curvature="0" />
      <path
         d="m 507.58519,974.6714 c -1.05019,0.004 -1.93565,0.81542 -1.93122,1.9464 l 0.0228,5.81641 c -3.41125,-4.67216 -8.83576,-7.72075 -14.89452,-7.69704 -10.42109,0.0408 -18.70668,9.04034 -18.66431,19.86533 0.0424,10.8249 8.39817,19.7594 18.81925,19.7186 6.05876,-0.024 11.45893,-3.1955 14.83349,-7.8942 l 0.0231,5.8973 c 0.004,1.0501 0.89622,1.9353 1.9464,1.9311 1.05019,0 1.93533,-0.8961 1.93122,-1.9463 l -0.13977,-35.70638 c -0.004,-1.13097 -0.8962,-1.93533 -1.94639,-1.93122 z m -16.66321,35.7721 c -8.07836,0.032 -14.89169,-6.97 -14.92647,-15.85618 -0.0348,-8.88619 6.72321,-16.02169 14.80157,-16.05332 8.15913,-0.0319 14.89199,7.05077 14.92677,15.93696 0.0348,8.88614 -6.64273,15.94054 -14.80187,15.97254 z"
         style="font-style:normal;font-variant:normal;font-weight:normal;font-stretch:normal;font-size:medium;line-height:125%;font-family:Quicksand;-inkscape-font-specification:Quicksand;letter-spacing:-8.37846279px;word-spacing:0px;fill:#ffffff;fill-opacity:1;stroke:none;stroke-width:1px;stroke-linecap:butt;stroke-linejoin:miter;stroke-opacity:1"
         id="path4534"
         inkscape:connector-curvature="0" />
      <path
         d="m 545.59262,1012.1684 c 0.004,1.1309 0.8962,1.9353 1.94639,1.9312 1.05019,0 1.93565,-0.8155 1.93122,-1.9464 l -0.0841,-21.48846 c -0.0345,-8.80541 -7.25266,-16.04778 -16.13885,-16.013 -4.9278,0.0193 -9.36204,2.29862 -12.25665,5.78369 l -0.0149,-3.79682 c -0.004,-1.05019 -0.81542,-1.93564 -1.86561,-1.93153 -1.13097,0.004 -1.93532,0.8962 -1.93121,1.94639 l 0.0528,13.49085 0.003,0.64627 0.0841,21.48841 0.002,0.4847 c 0,0 0.0811,0.081 0.0814,0.1612 3.1e-4,0.081 6.3e-4,0.1616 0.0817,0.2421 0.24426,0.4838 0.73054,0.8857 1.29665,1.0451 h 0.48471 c 0.56548,0 1.13001,-0.2468 1.45125,-0.7327 0.2414,-0.2433 0.32093,-0.5668 0.40044,-0.8902 l -10e-4,-0.3231 -0.0841,-21.48848 c 0.13532,-6.70566 5.52632,-12.22012 12.23134,-12.24637 6.78582,-0.0266 12.21982,5.44553 12.24607,12.15056 l 0.0841,21.48849 z"
         style="font-style:normal;font-variant:normal;font-weight:normal;font-stretch:normal;font-size:medium;line-height:125%;font-family:Quicksand;-inkscape-font-specification:Quicksand;letter-spacing:-8.37846279px;word-spacing:0px;fill:#ffffff;fill-opacity:1;stroke:none;stroke-width:1px;stroke-linecap:butt;stroke-linejoin:miter;stroke-opacity:1"
         id="path4536"
         inkscape:connector-curvature="0" />
      <path
         d="m 589.59888,974.35038 c -1.05018,0.004 -1.93564,0.81542 -1.93122,1.94639 l 0.0228,5.81642 c -3.41125,-4.67217 -8.83576,-7.72076 -14.89452,-7.69704 -10.42108,0.0408 -18.70668,9.04033 -18.66431,19.86533 0.0424,10.82492 8.39817,19.75942 18.81925,19.71862 6.05876,-0.024 11.45893,-3.1955 14.83349,-7.8942 l 0.0231,5.8972 c 0.004,1.0502 0.89621,1.9353 1.94639,1.9312 1.05019,0 1.93533,-0.8962 1.93122,-1.9463 l -0.13977,-35.70641 c -0.004,-1.13097 -0.8962,-1.93532 -1.94639,-1.93121 z m -16.66321,35.77202 c -8.07836,0.032 -14.89169,-6.9699 -14.92647,-15.8561 -0.0348,-8.88619 6.72321,-16.0217 14.80157,-16.05332 8.15914,-0.0319 14.89199,7.05076 14.92677,15.93695 0.0348,8.88617 -6.64273,15.94057 -14.80187,15.97247 z"
         style="font-style:normal;font-variant:normal;font-weight:normal;font-stretch:normal;font-size:medium;line-height:125%;font-family:Quicksand;-inkscape-font-specification:Quicksand;letter-spacing:-8.37846279px;word-spacing:0px;fill:#ffffff;fill-opacity:1;stroke:none;stroke-width:1px;stroke-linecap:butt;stroke-linejoin:miter;stroke-opacity:1"
         id="path4538"
         inkscape:connector-curvature="0" />
      <path
         d="m 600.12098,1011.9549 c 0.004,1.1309 0.8962,1.9353 2.02718,1.9309 0.9694,0 1.85486,-0.8152 1.85043,-1.946 l -0.068,-17.36855 c -6.3e-4,-0.16155 -0.001,-0.32312 0.15903,-0.64689 0.55916,-1.61788 2.07824,-5.66307 4.73018,-9.22798 2.73273,-3.56523 6.27582,-6.48734 11.44597,-6.50758 1.05018,-0.004 1.93532,-0.89621 1.93121,-1.9464 -0.004,-1.13097 -0.89621,-1.93532 -1.94639,-1.93121 -7.59365,0.0297 -12.82498,5.05885 -15.79563,9.75599 -0.24109,0.32409 -0.40139,0.64786 -0.56169,0.97162 l -0.0341,-8.72462 c -0.004,-1.13097 -0.89621,-1.93532 -1.86561,-1.93153 -1.13097,0.004 -2.01642,0.81574 -2.012,1.94671 l 0.13945,35.62554 z"
         style="font-style:normal;font-variant:normal;font-weight:normal;font-stretch:normal;font-size:medium;line-height:125%;font-family:Quicksand;-inkscape-font-specification:Quicksand;letter-spacing:-8.37846279px;word-spacing:0px;fill:#ffffff;fill-opacity:1;stroke:none;stroke-width:1px;stroke-linecap:butt;stroke-linejoin:miter;stroke-opacity:1"
         id="path4540"
         inkscape:connector-curvature="0" />
      <path
         d="m 627.32393,1011.8484 c 0.004,1.0502 0.89621,1.9354 1.9464,1.9312 1.13096,0 2.0161,-0.8965 2.01199,-1.9466 l -0.13976,-35.7064 c -0.004,-1.13097 -0.89621,-1.93533 -2.02717,-1.9309 -1.0502,0.004 -1.93565,0.81542 -1.93122,1.94639 z m -0.18308,-46.77365 c 0.004,1.13097 0.89683,2.09689 1.94703,2.09278 1.13096,-0.004 2.01579,-0.97731 2.01136,-2.10828 l -0.007,-1.85801 c -0.004,-1.05019 -0.89622,-1.93533 -2.02718,-1.9309 -1.05019,0.004 -1.93532,0.8962 -1.93121,1.94639 z"
         style="font-style:normal;font-variant:normal;font-weight:normal;font-stretch:normal;font-size:medium;line-height:125%;font-family:Quicksand;-inkscape-font-specification:Quicksand;letter-spacing:-8.37846279px;word-spacing:0px;fill:#ffffff;fill-opacity:1;stroke:none;stroke-width:1px;stroke-linecap:butt;stroke-linejoin:miter;stroke-opacity:1"
         id="path4542"
         inkscape:connector-curvature="0" />
      <path
         d="m 672.70099,974.02509 c -1.05018,0.004 -1.93564,0.81543 -1.93121,1.9464 l 0.0228,5.81641 c -3.41124,-4.67216 -8.83576,-7.72075 -14.89452,-7.69704 -10.42107,0.0408 -18.70668,9.04034 -18.6643,19.86533 0.0424,10.82491 8.39817,19.75941 18.81924,19.71861 6.05877,-0.024 11.45893,-3.1955 14.8335,-7.8942 l 0.0231,5.8972 c 0.004,1.0502 0.89621,1.9354 1.94639,1.9312 1.0502,0 1.93533,-0.8961 1.93122,-1.9463 l -0.13976,-35.70639 c -0.004,-1.13097 -0.89621,-1.93533 -1.9464,-1.93122 z m -16.66321,35.77201 c -8.07834,0.032 -14.89167,-6.9699 -14.92645,-15.85609 -0.0348,-8.88619 6.7232,-16.02169 14.80155,-16.05331 8.15914,-0.0319 14.89199,7.05076 14.92678,15.93695 0.0348,8.88615 -6.64274,15.94055 -14.80188,15.97245 z"
         style="font-style:normal;font-variant:normal;font-weight:normal;font-stretch:normal;font-size:medium;line-height:125%;font-family:Quicksand;-inkscape-font-specification:Quicksand;letter-spacing:-8.37846279px;word-spacing:0px;fill:#ffffff;fill-opacity:1;stroke:none;stroke-width:1px;stroke-linecap:butt;stroke-linejoin:miter;stroke-opacity:1"
         id="path4544"
         inkscape:connector-curvature="0" />
      <path
         d="m 680.70424,1007.9234 c 3.24146,2.5724 8.26174,5.5418 14.64396,5.5976 3.87761,-0.015 7.10452,-1.1588 9.84325,-3.1892 2.65796,-2.03 4.50554,-4.7031 4.49257,-8.0152 -0.013,-3.31218 -1.88299,-6.37466 -4.4747,-8.06099 -2.75265,-1.52414 -5.82685,-2.64309 -9.6259,-3.19371 l -0.16157,6.3e-4 c -3.63746,-0.55126 -6.30712,-1.51023 -8.08909,-2.71502 -1.53964,-1.20574 -2.27112,-2.33387 -2.27744,-3.94954 -0.006,-1.61567 0.87597,-3.23482 2.48658,-4.53367 1.69108,-1.37997 4.27267,-2.27871 7.50402,-2.29135 3.87761,-0.0152 6.79372,1.99302 9.70952,3.92044 0.89083,0.56201 2.10163,0.31492 2.66364,-0.57592 0.562,-0.89083 0.31491,-2.10163 -0.57624,-2.74443 -3.07736,-1.92678 -6.72179,-4.25528 -11.81115,-4.23536 -4.03918,0.0158 -7.34719,1.07897 -9.68359,2.70381 -2.49702,1.86782 -4.2635,4.62142 -4.25117,7.77198 0.012,3.06977 1.79937,5.64789 4.30935,7.09218 2.26827,1.60683 5.42199,2.40233 8.97899,3.03468 l 0.16188,0.0802 c 3.88014,0.6311 6.71136,1.58943 8.41287,2.87528 2.02623,1.68858 2.75834,2.97819 2.8464,4.83599 0.007,1.7772 -1.03627,3.5586 -2.97002,4.8586 -1.77154,1.4611 -4.43361,2.4409 -7.50338,2.4529 -5.00858,0.02 -9.38101,-2.5483 -12.13556,-4.5572 -0.89146,-0.7235 -2.10257,-0.5572 -2.74569,0.2531 -0.6431,0.8104 -0.55821,1.8602 0.25247,2.5842 z"
         style="font-style:normal;font-variant:normal;font-weight:normal;font-stretch:normal;font-size:medium;line-height:125%;font-family:Quicksand;-inkscape-font-specification:Quicksand;letter-spacing:-8.37846279px;word-spacing:0px;fill:#ffffff;fill-opacity:1;stroke:none;stroke-width:1px;stroke-linecap:butt;stroke-linejoin:miter;stroke-opacity:1"
         id="path4546"
         inkscape:connector-curvature="0" />
    </g>
    <g
       id="g5405"
       transform="matrix(2.2339456,0,0,2.2339456,-1791.5679,-2849.0076)"
       style="fill:#ffffff;fill-opacity:1">
      <path
         inkscape:connector-curvature="0"
         id="path5407"
         d="m 891.57935,1582.9057 c 28.03173,0 26.28125,-12.1563 26.28125,-12.1563 l -0.0312,-12.5937 h -26.75 v -3.7813 h 37.375 c 0,0 17.9375,2.0343 17.9375,-26.25 0,-28.2843 -15.65625,-27.2812 -15.65625,-27.2812 h -9.34375 v 13.125 c 0,0 0.50365,15.6562 -15.40625,15.6562 -15.9099,0 -26.53125,0 -26.53125,0 0,0 -14.90625,-0.241 -14.90625,14.4063 0,14.6472 0,24.2187 0,24.2187 0,0 -2.26318,14.6563 27.03125,14.6563 z m 14.75,-8.4688 c -2.66143,0 -4.8125,-2.1511 -4.8125,-4.8125 0,-2.6614 2.15107,-4.8125 4.8125,-4.8125 2.66143,0 4.8125,2.1511 4.8125,4.8125 0,2.6614 -2.15107,4.8125 -4.8125,4.8125 z"
         style="color:#000000;display:inline;overflow:visible;visibility:visible;opacity:1;fill:#ffffff;fill-opacity:1;fill-rule:nonzero;stroke:none;stroke-width:1;stroke-linecap:butt;stroke-linejoin:miter;stroke-miterlimit:4;stroke-dasharray:none;stroke-dashoffset:0;stroke-opacity:1;marker:none;marker-start:none;marker-mid:none;marker-end:none" />
      <path
         inkscape:connector-curvature="0"
         style="color:#000000;display:inline;overflow:visible;visibility:visible;opacity:1;fill:#ffffff;fill-opacity:1;fill-rule:nonzero;stroke:none;stroke-width:1;stroke-linecap:butt;stroke-linejoin:miter;stroke-miterlimit:4;stroke-dasharray:none;stroke-dashoffset:0;stroke-opacity:1;marker:none;marker-start:none;marker-mid:none;marker-end:none"
         d="m 890.78325,1473.0596 c -28.03174,0 -26.28125,12.1562 -26.28125,12.1562 l 0.006,2.2433 0.0256,10.3505 h 2.50898 24.24102 v 3.7812 h -37.375 c 0,0 -17.9375,-2.0343 -17.9375,26.25 -10e-6,28.2843 15.65625,27.2813 15.65625,27.2813 h 9.34375 v -13.125 c 0,0 -0.50366,-15.6563 15.40625,-15.6563 h 26.53125 c 0,0 14.90625,0.241 14.90625,-14.4062 v -24.2188 c 0,0 2.26318,-14.6562 -27.03125,-14.6562 z m -14.75,8.4687 c 2.66143,0 4.8125,2.1511 4.8125,4.8125 0,2.6614 -2.15107,4.8125 -4.8125,4.8125 -2.66143,0 -4.8125,-2.1511 -4.8125,-4.8125 -10e-6,-2.6614 2.15107,-4.8125 4.8125,-4.8125 z"
         id="path5409"
         sodipodi:nodetypes="ccccccccscccscscccsssss" />
      <path
         style="fill:#ffffff;fill-opacity:1;fill-rule:evenodd;stroke:none;stroke-width:0.39975929px;stroke-linecap:butt;stroke-linejoin:miter;stroke-opacity:1"
         d="m 850.79561,1497.7858 h 9.69163 v -8.884 c -4.24644,-0.2408 -9.69856,5.0513 -9.69163,8.884 z"
         id="path5411"
         inkscape:connector-curvature="0"
         sodipodi:nodetypes="cccc" />
      <path
         sodipodi:nodetypes="cccc"
         inkscape:connector-curvature="0"
         id="path5413"
         d="m 931.03525,1558.1413 h -9.69163 v 8.884 c 4.24644,0.2409 9.69856,-5.0513 9.69163,-8.884 z"
         style="fill:#ffffff;fill-opacity:1;fill-rule:evenodd;stroke:none;stroke-width:0.39975929px;stroke-linecap:butt;stroke-linejoin:miter;stroke-opacity:1" />
    </g>
    <g
       aria-label="PYDAY TENERIFE 2018"
       style="font-style:normal;font-weight:normal;font-size:12.48024845px;line-height:0%;font-family:sans-serif;letter-spacing:0px;word-spacing:0px;fill:#ffffff;fill-opacity:1;stroke:none;stroke-width:1.0400207px;stroke-linecap:butt;stroke-linejoin:miter;stroke-opacity:1"
       id="text3476">
      <path
         d="m 58.993563,804.59297 v 28.65642 H 48.344526 v -70.56701 h 12.065862 q 8.86658,0 13.391279,1.23401 4.570402,1.23401 8.043907,4.66181 6.078635,5.94152 6.078635,14.99092 0,9.68925 -6.489971,15.35655 -6.489971,5.6673 -17.50464,5.6673 z m 0,-9.87207 h 3.97625 q 14.670991,0 14.670991,-11.28889 0,-10.92327 -15.128031,-10.92327 h -3.51921 z"
         style="font-style:normal;font-variant:normal;font-weight:500;font-stretch:normal;font-size:93.60183716px;line-height:1.25;font-family:Futura;-inkscape-font-specification:'Futura Medium';fill:#ffffff;fill-opacity:1;stroke-width:1.0400207px"
         id="path854" />
      <path
         d="M 113.24424,802.76481 90.209411,762.68238 h 12.248679 l 16.13352,28.19938 16.17922,-28.19938 h 12.24868 l -23.12624,40.08243 v 30.48458 h -10.64903 z"
         style="font-style:normal;font-variant:normal;font-weight:500;font-stretch:normal;font-size:93.60183716px;line-height:1.25;font-family:Futura;-inkscape-font-specification:'Futura Medium';fill:#ffffff;fill-opacity:1;stroke-width:1.0400207px"
         id="path856" />
      <path
         d="m 155.10912,833.24939 v -70.56701 h 14.8081 q 10.64904,0 16.81908,2.10238 6.62709,2.05669 12.02016,6.99272 10.92326,9.96348 10.92326,26.1884 0,16.27064 -11.3803,26.32552 -5.713,5.02744 -11.97445,6.99272 -5.85012,1.96527 -16.59056,1.96527 z m 10.64904,-10.00918 h 4.79892 q 7.17553,0 11.92875,-1.50823 4.75322,-1.59964 8.59236,-5.07315 7.86109,-7.17553 7.86109,-18.69295 0,-11.60882 -7.76969,-18.83005 -6.99271,-6.44427 -20.61251,-6.44427 h -4.79892 z"
         style="font-style:normal;font-variant:normal;font-weight:500;font-stretch:normal;font-size:93.60183716px;line-height:1.25;font-family:Futura;-inkscape-font-specification:'Futura Medium';fill:#ffffff;fill-opacity:1;stroke-width:1.0400207px"
         id="path858" />
      <path
         d="m 261.09675,816.11038 h -30.21036 l -7.86109,17.13901 h -11.47171 l 34.91787,-75.0003 33.68387,75.0003 H 268.5008 Z m -4.34188,-10.00918 -10.46622,-23.99461 -10.96897,23.99461 z"
         style="font-style:normal;font-variant:normal;font-weight:500;font-stretch:normal;font-size:93.60183716px;line-height:1.25;font-family:Futura;-inkscape-font-specification:'Futura Medium';fill:#ffffff;fill-opacity:1;stroke-width:1.0400207px"
         id="path860" />
      <path
         d="m 296.97441,802.76481 -23.03483,-40.08243 h 12.24868 l 16.13352,28.19938 16.17922,-28.19938 h 12.24868 l -23.12624,40.08243 v 30.48458 h -10.64903 z"
         style="font-style:normal;font-variant:normal;font-weight:500;font-stretch:normal;font-size:93.60183716px;line-height:1.25;font-family:Futura;-inkscape-font-specification:'Futura Medium';fill:#ffffff;fill-opacity:1;stroke-width:1.0400207px"
         id="path862" />
      <path
         d="m 387.19414,772.69156 v 60.55783 H 376.5451 v -60.55783 h -16.22493 v -10.00918 h 43.05319 v 10.00918 z"
         style="font-style:normal;font-variant:normal;font-weight:500;font-stretch:normal;font-size:93.60183716px;line-height:1.25;font-family:Futura;-inkscape-font-specification:'Futura Medium';fill:#ffffff;fill-opacity:1;stroke-width:1.0400207px"
         id="path864" />
      <path
         d="m 451.81963,772.69156 h -28.29079 v 16.95619 h 27.46812 v 10.00918 h -27.46812 v 23.58328 h 28.29079 v 10.00918 H 412.8798 v -70.56701 h 38.93983 z"
         style="font-style:normal;font-variant:normal;font-weight:500;font-stretch:normal;font-size:93.60183716px;line-height:1.25;font-family:Futura;-inkscape-font-specification:'Futura Medium';fill:#ffffff;fill-opacity:1;stroke-width:1.0400207px"
         id="path866" />
      <path
         d="m 465.89647,833.24939 v -75.36593 l 51.46273,53.83934 v -49.04042 h 10.64903 v 74.86319 L 476.5455,783.84334 v 49.40605 z"
         style="font-style:normal;font-variant:normal;font-weight:500;font-stretch:normal;font-size:93.60183716px;line-height:1.25;font-family:Futura;-inkscape-font-specification:'Futura Medium';fill:#ffffff;fill-opacity:1;stroke-width:1.0400207px"
         id="path868" />
      <path
         d="m 583.81286,772.69156 h -28.29079 v 16.95619 h 27.46811 v 10.00918 h -27.46811 v 23.58328 h 28.29079 v 10.00918 h -38.93983 v -70.56701 h 38.93983 z"
         style="font-style:normal;font-variant:normal;font-weight:500;font-stretch:normal;font-size:93.60183716px;line-height:1.25;font-family:Futura;-inkscape-font-specification:'Futura Medium';fill:#ffffff;fill-opacity:1;stroke-width:1.0400207px"
         id="path870" />
      <path
         d="m 621.7929,803.17614 21.84652,30.07325 H 630.61377 L 610.4583,804.36445 h -1.91957 v 28.88494 h -10.64904 v -70.56701 h 12.4772 q 13.98543,0 20.20118,5.25596 6.8556,5.85012 6.8556,15.44796 0,7.49546 -4.29618,12.88854 -4.29617,5.39307 -11.33459,6.9013 z m -13.25417,-8.08961 h 3.3821 q 15.12803,0 15.12803,-11.56312 0,-10.83185 -14.7167,-10.83185 h -3.79343 z"
         style="font-style:normal;font-variant:normal;font-weight:500;font-stretch:normal;font-size:93.60183716px;line-height:1.25;font-family:Futura;-inkscape-font-specification:'Futura Medium';fill:#ffffff;fill-opacity:1;stroke-width:1.0400207px"
         id="path872" />
      <path
         d="m 664.8461,762.68238 v 70.56701 h -10.64903 v -70.56701 z"
         style="font-style:normal;font-variant:normal;font-weight:500;font-stretch:normal;font-size:93.60183716px;line-height:1.25;font-family:Futura;-inkscape-font-specification:'Futura Medium';fill:#ffffff;fill-opacity:1;stroke-width:1.0400207px"
         id="path874" />
      <path
         d="m 717.04009,772.69156 h -24.58876 v 16.95619 h 23.72038 v 10.00918 h -23.72038 v 33.59246 h -10.64904 v -70.56701 h 35.2378 z"
         style="font-style:normal;font-variant:normal;font-weight:500;font-stretch:normal;font-size:93.60183716px;line-height:1.25;font-family:Futura;-inkscape-font-specification:'Futura Medium';fill:#ffffff;fill-opacity:1;stroke-width:1.0400207px"
         id="path876" />
      <path
         d="m 768.27428,772.69156 h -28.29079 v 16.95619 h 27.46812 v 10.00918 h -27.46812 v 23.58328 h 28.29079 v 10.00918 h -38.93982 v -70.56701 h 38.93982 z"
         style="font-style:normal;font-variant:normal;font-weight:500;font-stretch:normal;font-size:93.60183716px;line-height:1.25;font-family:Futura;-inkscape-font-specification:'Futura Medium';fill:#ffffff;fill-opacity:1;stroke-width:1.0400207px"
         id="path878" />
      <path
         d="m 826.22699,823.24021 h 26.27981 v 10.00918 h -47.39507 l 24.49735,-29.66191 q 3.61062,-4.43329 6.03293,-7.67828 2.46802,-3.24498 3.74773,-5.43877 2.60513,-4.29618 2.60513,-7.72398 0,-4.93604 -3.4735,-8.27243 -3.47351,-3.3364 -8.59236,-3.3364 -10.69474,0 -12.24868,12.66002 H 807.077 q 2.55943,-22.30356 22.53208,-22.30356 9.64355,0 16.17923,6.12433 6.58138,6.12434 6.58138,15.17374 0,5.75871 -3.06217,11.28889 -1.55394,2.87936 -4.57041,6.85561 -2.97076,3.93054 -7.54116,9.32362 z"
         style="font-style:normal;font-variant:normal;font-weight:500;font-stretch:normal;font-size:93.60183716px;line-height:1.25;font-family:Futura;-inkscape-font-specification:'Futura Medium';fill:#ffffff;fill-opacity:1;stroke-width:1.0400207px"
         id="path880" />
      <path
         d="m 864.52697,797.50884 q 0,-16.86478 7.86109,-26.91966 7.03842,-9.0951 17.0476,-9.0951 10.00918,0 17.0476,9.0951 7.86109,10.05488 7.86109,27.3767 0,17.27612 -7.86109,27.33101 -7.03842,9.0951 -17.00189,9.0951 -9.96348,0 -17.09331,-9.0951 -7.86109,-10.05489 -7.86109,-27.78805 z m 10.46622,0.0457 q 0,11.74593 4.06766,19.51562 4.06766,7.63257 10.37481,7.63257 6.26145,0 10.37482,-7.63257 4.11336,-7.58687 4.11336,-19.14999 0,-11.56312 -4.11336,-19.19569 -4.11337,-7.58687 -10.37482,-7.58687 -6.21574,0 -10.32911,7.58687 -4.11336,7.54116 -4.11336,18.83006 z"
         style="font-style:normal;font-variant:normal;font-weight:500;font-stretch:normal;font-size:93.60183716px;line-height:1.25;font-family:Futura;-inkscape-font-specification:'Futura Medium';fill:#ffffff;fill-opacity:1;stroke-width:1.0400207px"
         id="path882" />
      <path
         d="m 936.55647,772.64586 h -12.20298 l 5.85012,-9.96348 h 17.00189 v 70.56701 h -10.64903 z"
         style="font-style:normal;font-variant:normal;font-weight:500;font-stretch:normal;font-size:93.60183716px;line-height:1.25;font-family:Futura;-inkscape-font-specification:'Futura Medium';fill:#ffffff;fill-opacity:1;stroke-width:1.0400207px"
         id="path884" />
      <path
         d="m 978.28424,796.54906 q -7.76968,-5.48448 -7.76968,-14.94522 0,-8.59235 5.89582,-14.35106 5.94152,-5.7587 14.7624,-5.7587 8.77517,0 14.62532,5.7587 5.8501,5.713 5.8501,14.39677 0,9.0951 -7.724,14.85381 4.2505,2.2852 6.6728,6.67278 2.468,4.38759 2.468,9.87207 0,9.36933 -6.1243,15.35655 -6.1244,5.98723 -15.67652,5.98723 -9.78066,0 -16.13351,-6.03293 -6.39857,-6.03293 -6.39857,-15.17374 0,-11.88304 9.55214,-16.63626 z m 2.2395,-14.99092 q 0,4.5247 3.06217,7.58687 3.10787,3.10787 7.49546,3.10787 4.34188,0 7.44975,-3.10787 3.10788,-3.10788 3.10788,-7.44976 0,-4.34188 -3.10788,-7.44975 -3.10787,-3.10788 -7.44975,-3.10788 -4.34188,0 -7.44976,3.10788 -3.10787,3.10787 -3.10787,7.31264 z m -1.32542,31.26155 q 0,4.89033 3.3821,8.40954 3.4278,3.47351 8.31813,3.47351 4.84463,0 8.27243,-3.4278 3.42782,-3.47351 3.42782,-8.31814 0,-4.89033 -3.42782,-8.31813 -3.4278,-3.4278 -8.27243,-3.4278 -4.79892,0 -8.27243,3.4278 -3.4278,3.4278 -3.4278,8.18102 z"
         style="font-style:normal;font-variant:normal;font-weight:500;font-stretch:normal;font-size:93.60183716px;line-height:1.25;font-family:Futura;-inkscape-font-specification:'Futura Medium';fill:#ffffff;fill-opacity:1;stroke-width:1.0400207px"
         id="path886" />
    </g>
  </g>
</svg>
