<?xml version="1.0" encoding="UTF-8" standalone="no"?>
<!-- Created with Inkscape (http://www.inkscape.org/) -->

<svg
   xmlns:dc="http://purl.org/dc/elements/1.1/"
   xmlns:cc="http://creativecommons.org/ns#"
   xmlns:rdf="http://www.w3.org/1999/02/22-rdf-syntax-ns#"
   xmlns:svg="http://www.w3.org/2000/svg"
   xmlns="http://www.w3.org/2000/svg"
   xmlns:sodipodi="http://sodipodi.sourceforge.net/DTD/sodipodi-0.dtd"
   xmlns:inkscape="http://www.inkscape.org/namespaces/inkscape"
   width="297mm"
   height="210mm"
   viewBox="0 0 1052.3622 744.09407"
   id="svg6368"
   version="1.1"
   inkscape:version="0.91 r13725"
   sodipodi:docname="camiseta-staff.svg"
   inkscape:export-filename="/home/jileon/Dropbox/Proyectos/pyBirrasGC/logo-python-canarias-white-on-black.png"
   inkscape:export-xdpi="62.794445"
   inkscape:export-ydpi="62.794445">
  <defs
     id="defs6370" />
  <sodipodi:namedview
     id="base"
     pagecolor="#ffffff"
     bordercolor="#666666"
     borderopacity="1.0"
     inkscape:pageopacity="0.0"
     inkscape:pageshadow="2"
     inkscape:zoom="0.70710678"
     inkscape:cx="157.49806"
     inkscape:cy="207.86637"
     inkscape:document-units="px"
     inkscape:current-layer="layer1"
     showgrid="false"
     units="mm"
     inkscape:window-width="1433"
     inkscape:window-height="1057"
     inkscape:window-x="66"
     inkscape:window-y="27"
     inkscape:window-maximized="0"
     showguides="true"
     inkscape:guide-bbox="true">
    <sodipodi:guide
       position="28.991378,63.639575"
       orientation="1,0"
       id="guide5982" />
    <sodipodi:guide
       position="216.37468,-20.999988"
       orientation="1,0"
       id="guide5984" />
  </sodipodi:namedview>
  <metadata
     id="metadata6373">
    <rdf:RDF>
      <cc:Work
         rdf:about="">
        <dc:format>image/svg+xml</dc:format>
        <dc:type
           rdf:resource="http://purl.org/dc/dcmitype/StillImage" />
        <dc:title></dc:title>
      </cc:Work>
    </rdf:RDF>
  </metadata>
  <g
     inkscape:label="Capa 1"
     inkscape:groupmode="layer"
     id="layer1"
     transform="translate(0,-308.26799)">
    <rect
       style="color:#000000;clip-rule:nonzero;display:inline;overflow:visible;visibility:visible;opacity:1;isolation:auto;mix-blend-mode:normal;color-interpolation:sRGB;color-interpolation-filters:linearRGB;solid-color:#000000;solid-opacity:1;fill:#000000;fill-opacity:1;fill-rule:nonzero;stroke:none;stroke-width:1.74078655px;stroke-linecap:butt;stroke-linejoin:miter;stroke-miterlimit:4;stroke-dasharray:none;stroke-dashoffset:0;stroke-opacity:1;color-rendering:auto;image-rendering:auto;shape-rendering:auto;text-rendering:auto;enable-background:accumulate"
       id="rect6040"
       width="1057.1149"
       height="740.24384"
       x="-1.4142152"
       y="303.81741" />
    <rect
       style="color:#000000;clip-rule:nonzero;display:inline;overflow:visible;visibility:visible;opacity:1;isolation:auto;mix-blend-mode:normal;color-interpolation:sRGB;color-interpolation-filters:linearRGB;solid-color:#000000;solid-opacity:1;fill:none;fill-opacity:1;fill-rule:evenodd;stroke:none;stroke-width:8;stroke-linecap:round;stroke-linejoin:round;stroke-miterlimit:4;stroke-dasharray:none;stroke-dashoffset:0;stroke-opacity:1;color-rendering:auto;image-rendering:auto;shape-rendering:auto;text-rendering:auto;enable-background:accumulate"
       id="rect20075"
       width="946.71979"
       height="324.48056"
       x="48.08326"
       y="398.5542"
       inkscape:export-xdpi="21.661715"
       inkscape:export-ydpi="21.661715" />
    <g
       style="font-style:normal;font-weight:normal;font-size:362.70559692px;line-height:125%;font-family:sans-serif;letter-spacing:0px;word-spacing:0px;fill:#ffffff;fill-opacity:1;stroke:none;stroke-width:1px;stroke-linecap:butt;stroke-linejoin:miter;stroke-opacity:1"
       id="text3476">
      <path
         d="M 208.21534,480.01158 174.743,499.84704 q -9.38642,-16.29341 -17.88734,-21.25228 -8.85511,-5.66727 -22.8462,-5.66727 -17.17893,0 -28.51348,9.74063 -11.334546,9.56352 -11.334546,24.08592 0,20.01256 29.753196,32.23262 l 27.27376,11.15745 q 33.29524,13.45978 48.70314,32.94104 15.40791,19.30415 15.40791,47.46342 0,37.7228 -25.14854,62.34003 -25.32563,24.79433 -62.87133,24.79433 -35.597569,0 -58.797975,-21.07518 -22.846203,-21.07518 -28.513478,-59.32929 l 41.796153,-9.20932 q 2.833638,24.08592 9.917731,33.29524 12.751369,17.71024 37.191489,17.71024 19.30416,0 32.05553,-12.92848 12.75137,-12.92847 12.75137,-32.76393 0,-7.9696 -2.30233,-14.52239 -2.12523,-6.72989 -6.907,-12.22006 -4.60466,-5.66728 -12.04296,-10.44904 -7.43829,-4.95887 -17.71023,-9.38643 l -26.38825,-10.98034 q -56.141441,-23.73171 -56.141441,-69.42412 0,-30.81581 23.554612,-51.53678 23.554611,-20.89808 58.620879,-20.89808 47.28632,0 73.85167,46.04661 z"
         style="font-style:normal;font-variant:normal;font-weight:500;font-stretch:normal;font-family:Futura;-inkscape-font-specification:'Futura Medium';fill:#ffffff;fill-opacity:1"
         id="path3481" />
      <path
         d="m 345.11546,478.06346 0,234.6606 -41.26485,0 0,-234.6606 -62.87133,0 0,-38.78542 166.83041,0 0,38.78542 -62.69423,0 z"
         style="font-style:normal;font-variant:normal;font-weight:500;font-stretch:normal;font-family:Futura;-inkscape-font-specification:'Futura Medium';fill:#ffffff;fill-opacity:1"
         id="path3483" />
      <path
         d="m 591.1106,646.31068 -117.06465,0 -30.4616,66.41338 -44.45269,0 135.30619,-290.62494 130.52443,290.62494 -45.1611,0 -28.69058,-66.41338 z m -16.82472,-38.78541 -40.55644,-92.97873 -42.50456,92.97873 83.061,0 z"
         style="font-style:normal;font-variant:normal;font-weight:500;font-stretch:normal;font-family:Futura;-inkscape-font-specification:'Futura Medium';fill:#ffffff;fill-opacity:1"
         id="path3485" />
      <path
         d="m 835.51187,478.06346 -95.28106,0 0,65.70497 91.91611,0 0,38.78541 -91.91611,0 0,130.17022 -41.26485,0 0,-273.44602 136.54591,0 0,38.78542 z"
         style="font-style:normal;font-variant:normal;font-weight:500;font-stretch:normal;font-family:Futura;-inkscape-font-specification:'Futura Medium';fill:#ffffff;fill-opacity:1"
         id="path3487" />
      <path
         d="m 1019.6983,478.06346 -95.28109,0 0,65.70497 91.91609,0 0,38.78541 -91.91609,0 0,130.17022 -41.26485,0 0,-273.44602 136.54594,0 0,38.78542 z"
         style="font-style:normal;font-variant:normal;font-weight:500;font-stretch:normal;font-family:Futura;-inkscape-font-specification:'Futura Medium';fill:#ffffff;fill-opacity:1"
         id="path3489" />
    </g>
  </g>
</svg>
