<?xml version="1.0" encoding="UTF-8" standalone="no"?>
<svg
   xmlns:serif="http://www.serif.com/"
   xmlns:dc="http://purl.org/dc/elements/1.1/"
   xmlns:cc="http://creativecommons.org/ns#"
   xmlns:rdf="http://www.w3.org/1999/02/22-rdf-syntax-ns#"
   xmlns:svg="http://www.w3.org/2000/svg"
   xmlns="http://www.w3.org/2000/svg"
   xmlns:xlink="http://www.w3.org/1999/xlink"
   xmlns:sodipodi="http://sodipodi.sourceforge.net/DTD/sodipodi-0.dtd"
   xmlns:inkscape="http://www.inkscape.org/namespaces/inkscape"
   width="210mm"
   height="297mm"
   viewBox="0 0 793.70079 1122.5197"
   version="1.1"
   xml:space="preserve"
   style="clip-rule:evenodd;fill-rule:evenodd;stroke-linecap:round;stroke-linejoin:round;stroke-miterlimit:1.5"
   id="svg158"
   sodipodi:docname="portada-brochure-pyday-gc-2019.svg"
   inkscape:version="0.92.2 5c3e80d, 2017-08-06"
   inkscape:export-filename="/Users/macbook/workarea/pythoncanarias/docs/imagen-eventos/pydaygc19/portada-brochure-pyday-gc-2019.png"
   inkscape:export-xdpi="200"
   inkscape:export-ydpi="200"><metadata
     id="metadata162"><rdf:RDF><cc:Work
         rdf:about=""><dc:format>image/svg+xml</dc:format><dc:type
           rdf:resource="http://purl.org/dc/dcmitype/StillImage" /><dc:title /></cc:Work></rdf:RDF></metadata><sodipodi:namedview
     pagecolor="#ffffff"
     bordercolor="#666666"
     borderopacity="1"
     objecttolerance="10"
     gridtolerance="10"
     guidetolerance="10"
     inkscape:pageopacity="0"
     inkscape:pageshadow="2"
     inkscape:window-width="1340"
     inkscape:window-height="763"
     id="namedview160"
     showgrid="false"
     units="mm"
     inkscape:zoom="1"
     inkscape:cx="309.94375"
     inkscape:cy="1048.6992"
     inkscape:window-x="0"
     inkscape:window-y="0"
     inkscape:window-maximized="0"
     inkscape:current-layer="layer2"
     showguides="true"
     inkscape:guide-bbox="true"
     inkscape:snap-global="false"><sodipodi:guide
       position="42.320373,0"
       orientation="0,1"
       id="guide2201"
       inkscape:locked="false"
       inkscape:label=""
       inkscape:color="rgb(0,0,255)" /><sodipodi:guide
       position="1004.1449,1122.5197"
       orientation="0,1"
       id="guide2207"
       inkscape:locked="false" /></sodipodi:namedview><defs
     id="defs156"><inkscape:path-effect
       effect="skeletal"
       id="path-effect2143"
       is_visible="true"
       pattern="M 0,5 C 0,2.24 2.24,0 5,0 7.76,0 10,2.24 10,5 10,7.76 7.76,10 5,10 2.24,10 0,7.76 0,5 Z"
       copytype="single_stretched"
       prop_scale="0.99999998"
       scale_y_rel="false"
       spacing="0"
       normal_offset="0"
       tang_offset="0"
       prop_units="false"
       vertical_pattern="false"
       fuse_tolerance="0" /><inkscape:path-effect
       effect="simplify"
       id="path-effect2141"
       is_visible="true"
       steps="1"
       threshold="0.00369128"
       smooth_angles="360"
       helper_size="0"
       simplify_individual_paths="false"
       simplify_just_coalesce="false"
       simplifyindividualpaths="false"
       simplifyJustCoalesce="false" /><linearGradient
       id="_Linear1"
       x1="0"
       y1="0"
       x2="1"
       y2="0"
       gradientUnits="userSpaceOnUse"
       gradientTransform="matrix(725.2059,1706.3583,-1706.3583,725.2059,-1107.3373,-232.88548)"><stop
         offset="0"
         style="stop-color:rgb(125,125,125);stop-opacity:1"
         id="stop147" /><stop
         offset="0.18"
         style="stop-color:rgb(153,153,153);stop-opacity:1"
         id="stop149" /><stop
         offset="0.38"
         style="stop-color:rgb(178,178,178);stop-opacity:1"
         id="stop151" /><stop
         offset="1"
         style="stop-color:rgb(188,188,188);stop-opacity:1"
         id="stop153" /></linearGradient><filter
       inkscape:collect="always"
       style="color-interpolation-filters:sRGB"
       id="filter2181"
       x="-0.075194255"
       width="1.1503885"
       y="-0.19158446"
       height="1.3831689"><feGaussianBlur
         inkscape:collect="always"
         stdDeviation="21.260409"
         id="feGaussianBlur2183" /></filter></defs><g
     inkscape:groupmode="layer"
     id="layer1"
     inkscape:label="Fondo"
     style="display:inline"><image
       sodipodi:absref="/Users/macbook/workarea/pythoncanarias/docs/imagen-eventos/pydaygc19/anchor-lee-kO1G3neRA2o-unsplash.jpg"
       xlink:href="anchor-lee-kO1G3neRA2o-unsplash.jpg"
       y="-82.231873"
       x="0"
       id="image2097"
       preserveAspectRatio="none"
       height="1204.7516"
       width="803.16772" /></g><g
     inkscape:groupmode="layer"
     id="layer2"
     inkscape:label="Dibujo"
     style="display:inline"><path
       style="opacity:0.225;fill:#ffffff;stroke:none;stroke-width:1px;stroke-linecap:butt;stroke-linejoin:miter;stroke-opacity:1;filter:url(#filter2181)"
       d="m 56.362464,497.74066 c 4.70684,-31.34713 2.885937,-87.02023 26.523512,-102.77862 59.754204,-39.83613 148.010894,-9.70954 215.503534,-23.20807 11.76934,-2.35386 24.0822,-8.39786 36.46983,-9.94632 50.86019,-6.35752 112.43701,12.50488 162.45652,0 27.8945,-6.97362 68.04092,-18.9241 99.46317,-9.94631 25.59669,7.31334 82.93578,26.57332 99.46317,43.1007 22.92181,22.92181 10.9105,42.67781 19.89264,69.62423 9.79748,29.39244 36.87594,114.17959 0,132.61756 -14.77851,7.38925 -107.04362,13.26175 -125.98669,13.26175 -72.1342,0 -145.078,-16.57719 -218.81898,-16.57719 -53.60592,0 -99.26966,9.94632 -155.82563,9.94632 -3.4116,0 -50.66649,7.56576 -106.00884,10.57303 -55.34236,3.00727 -53.132236,-1.87856 -53.132236,-116.66708 z"
       id="path2139"
       inkscape:connector-curvature="0"
       sodipodi:nodetypes="cssssssssssscc" /><g
       style="clip-rule:evenodd;fill-rule:evenodd;stroke-linecap:round;stroke-linejoin:round;stroke-miterlimit:1.5"
       id="g1844"
       transform="translate(82.818898,47.310236)"><g
         transform="matrix(0.13515209,-0.13714647,0.13714647,0.13515209,-2016.7846,421.7265)"
         id="Marquesina"><g
           style="opacity:0.38000039"
           id="g69"><g
             id="g5"
             transform="rotate(180,3118,6151.55)"><rect
               id="rect3"
               style="fill:#4884ce"
               height="590.64099"
               width="590.64099"
               y="880.55902"
               x="1216.3101" /></g><g
             id="g67"
             transform="translate(2953.2,-327.749)"><g
               id="g9"
               transform="rotate(180,2527.355,7201.4)"><rect
                 id="rect7"
                 style="fill:#f5cc00"
                 height="590.64099"
                 width="590.64099"
                 y="880.55902"
                 x="1216.3101" /></g><g
               id="g13"
               transform="rotate(180,3118,6906.05)"><rect
                 id="rect11"
                 height="590.64099"
                 width="590.64099"
                 y="880.55902"
                 x="1216.3101" /></g><g
               id="g17"
               transform="rotate(180,2822.675,6906.05)"><rect
                 id="rect15"
                 style="fill:#f5cc00"
                 height="590.64099"
                 width="590.64099"
                 y="880.55902"
                 x="1216.3101" /></g><g
               id="g21"
               transform="rotate(180,2527.355,6906.05)"><rect
                 id="rect19"
                 style="fill:#4884ce"
                 height="590.64099"
                 width="590.64099"
                 y="880.55902"
                 x="1216.3101" /></g><g
               id="g25"
               transform="rotate(180,2232.035,6906.05)"><rect
                 id="rect23"
                 height="590.64099"
                 width="590.64099"
                 y="880.55902"
                 x="1216.3101" /></g><g
               id="g29"
               transform="rotate(180,3118,6610.75)"><rect
                 id="rect27"
                 style="fill:#f5cc00"
                 height="590.64099"
                 width="590.64099"
                 y="880.55902"
                 x="1216.3101" /></g><g
               id="g33"
               transform="rotate(180,2822.675,6610.75)"><rect
                 id="rect31"
                 style="fill:#4884ce"
                 height="590.64099"
                 width="590.64099"
                 y="880.55902"
                 x="1216.3101" /></g><g
               id="g37"
               transform="rotate(180,2527.355,6610.75)"><rect
                 id="rect35"
                 height="590.64099"
                 width="590.64099"
                 y="880.55902"
                 x="1216.3101" /></g><g
               id="g41"
               transform="rotate(180,2232.035,6610.75)"><rect
                 id="rect39"
                 style="fill:#f5cc00"
                 height="590.64099"
                 width="590.64099"
                 y="880.55902"
                 x="1216.3101" /></g><g
               id="g45"
               transform="rotate(180,1936.715,6610.75)"><rect
                 id="rect43"
                 style="fill:#4884ce"
                 height="590.64099"
                 width="590.64099"
                 y="880.55902"
                 x="1216.3101" /></g><g
               id="g49"
               transform="rotate(180,3118,6315.45)"><rect
                 id="rect47"
                 style="fill:#4884ce"
                 height="590.64099"
                 width="590.64099"
                 y="880.55902"
                 x="1216.3101" /></g><g
               id="g53"
               transform="rotate(180,2822.675,6315.45)"><rect
                 id="rect51"
                 height="590.64099"
                 width="590.64099"
                 y="880.55902"
                 x="1216.3101" /></g><g
               id="g57"
               transform="rotate(180,2527.355,6315.45)"><rect
                 id="rect55"
                 style="fill:#f5cc00"
                 height="590.64099"
                 width="590.64099"
                 y="880.55902"
                 x="1216.3101" /></g><g
               id="g61"
               transform="rotate(180,2232.035,6315.45)"><rect
                 id="rect59"
                 style="fill:#4884ce"
                 height="590.64099"
                 width="590.64099"
                 y="880.55902"
                 x="1216.3101" /></g><g
               id="g65"
               transform="rotate(180,1936.715,6315.45)"><rect
                 id="rect63"
                 height="590.64099"
                 width="590.64099"
                 y="880.55902"
                 x="1216.3101" /></g></g></g></g><g
         transform="matrix(0.04247862,0,0,0.04247862,178.78884,372.57845)"
         id="Web"><text
           transform="rotate(-45)"
           id="text76"
           style="font-size:712.54101562px;font-family:Rockwell-Regular, Rockwell, serif"
           y="12951.143"
           x="-7684.2466"><tspan
             id="tspan1764"
             style="font-size:816.09680176px">pythoncanarias.es</tspan></text>
</g><g
         transform="matrix(0.03338284,0,0,0.03338284,239.7062,453.79573)"
         serif:id="Redes sociales"
         id="Redes-sociales"><g
           id="g83"
           transform="matrix(2.48582,0,0,2.48582,1384.51,17110)"><g
             id="g81"
             transform="translate(-256,-256)"><path
               inkscape:connector-curvature="0"
               id="path79"
               style="fill-rule:nonzero"
               d="m 459.37,151.716 c 0.325,4.548 0.325,9.097 0.325,13.645 0,138.72 -105.583,298.558 -298.558,298.558 -59.452,0 -114.68,-17.219 -161.137,-47.106 8.447,0.974 16.568,1.299 25.34,1.299 49.055,0 94.213,-16.568 130.274,-44.832 -46.132,-0.975 -84.792,-31.188 -98.112,-72.772 6.498,0.974 12.995,1.624 19.818,1.624 9.421,0 18.843,-1.3 27.614,-3.573 -48.081,-9.747 -84.143,-51.98 -84.143,-102.985 v -1.299 c 13.969,7.797 30.214,12.67 47.431,13.319 -28.264,-18.843 -46.781,-51.005 -46.781,-87.391 0,-19.492 5.197,-37.36 14.294,-52.954 51.655,63.675 129.3,105.258 216.365,109.807 -1.624,-7.797 -2.599,-15.918 -2.599,-24.04 0,-57.828 46.782,-104.934 104.934,-104.934 30.213,0 57.502,12.67 76.67,33.137 23.715,-4.548 46.456,-13.32 66.599,-25.34 -7.798,24.366 -24.366,44.833 -46.132,57.827 21.117,-2.273 41.584,-8.122 60.426,-16.243 -14.292,20.791 -32.161,39.308 -52.628,54.253 z" /></g></g><g
           id="g89"
           transform="matrix(2.48582,0,0,2.48582,2966.14,17110)"><g
             id="g87"
             transform="translate(-256,-256)"><path
               inkscape:connector-curvature="0"
               id="path85"
               style="fill-rule:nonzero"
               d="m 71.5,142.3 c 0.6,-5.9 -1.7,-11.8 -6.1,-15.8 L 20.3,72.1 V 64 H 160.5 L 268.9,301.7 364.2,64 h 133.7 v 8.1 l -38.6,37 c -3.3,2.5 -5,6.7 -4.3,10.8 v 272 c -0.7,4.1 1,8.3 4.3,10.8 l 37.7,37 v 8.1 H 307.3 v -8.1 l 39.1,-37.9 c 3.8,-3.8 3.8,-5 3.8,-10.8 V 171.2 L 241.5,447.1 H 226.8 L 100.4,171.2 v 184.9 c -1.1,7.8 1.5,15.6 7,21.2 l 50.8,61.6 v 8.1 h -144 v -8 L 65,377.3 c 5.4,-5.6 7.9,-13.5 6.5,-21.2 z" /></g></g><g
           id="g100"
           transform="matrix(2.48582,0,0,2.48582,4468.24,17110)"><g
             id="g98"
             transform="translate(-224,-256)"><clipPath
               id="_clip2"><rect
                 id="rect91"
                 height="512"
                 width="448"
                 y="0"
                 x="0" /></clipPath><g
               id="g96"
               clip-path="url(#_clip2)"><path
                 inkscape:connector-curvature="0"
                 id="path94"
                 style="fill-rule:nonzero"
                 d="m 224.1,141 c -63.6,0 -114.9,51.3 -114.9,114.9 0,63.6 51.3,114.9 114.9,114.9 C 287.7,370.8 339,319.5 339,255.9 339,192.3 287.7,141 224.1,141 Z m 0,189.6 c -41.1,0 -74.7,-33.5 -74.7,-74.7 0,-41.2 33.5,-74.7 74.7,-74.7 41.2,0 74.7,33.5 74.7,74.7 0,41.2 -33.6,74.7 -74.7,74.7 z M 370.5,136.3 c 0,14.9 -12,26.8 -26.8,26.8 -14.9,0 -26.8,-12 -26.8,-26.8 0,-14.8 12,-26.8 26.8,-26.8 14.8,0 26.8,12 26.8,26.8 z m 76.1,27.2 c -1.7,-35.9 -9.9,-67.7 -36.2,-93.9 -26.2,-26.2 -58,-34.4 -93.9,-36.2 -37,-2.1 -147.9,-2.1 -184.9,0 -35.8,1.7 -67.6,9.9 -93.9,36.1 -26.3,26.2 -34.4,58 -36.2,93.9 -2.1,37 -2.1,147.9 0,184.9 1.7,35.9 9.9,67.7 36.2,93.9 26.3,26.2 58,34.4 93.9,36.2 37,2.1 147.9,2.1 184.9,0 35.9,-1.7 67.7,-9.9 93.9,-36.2 26.2,-26.2 34.4,-58 36.2,-93.9 2.1,-37 2.1,-147.8 0,-184.8 z M 398.8,388 c -7.8,19.6 -22.9,34.7 -42.6,42.6 -29.5,11.7 -99.5,9 -132.1,9 -32.6,0 -102.7,2.6 -132.1,-9 -19.6,-7.8 -34.7,-22.9 -42.6,-42.6 -11.7,-29.5 -9,-99.5 -9,-132.1 0,-32.6 -2.6,-102.7 9,-132.1 7.8,-19.6 22.9,-34.7 42.6,-42.6 29.5,-11.7 99.5,-9 132.1,-9 32.6,0 102.7,-2.6 132.1,9 19.6,7.8 34.7,22.9 42.6,42.6 11.7,29.5 9,99.5 9,132.1 0,32.6 2.7,102.7 -9,132.1 z" /></g></g></g><g
           id="g106"
           transform="matrix(2.48582,0,0,2.48582,6049.87,17110)"><g
             id="g104"
             transform="translate(-288,-256)"><path
               inkscape:connector-curvature="0"
               id="path102"
               style="fill-rule:nonzero"
               d="M 549.655,124.083 C 543.374,100.433 524.868,81.807 501.371,75.486 458.781,64 288,64 288,64 288,64 117.22,64 74.629,75.486 51.132,81.808 32.626,100.433 26.345,124.083 14.933,166.95 14.933,256.388 14.933,256.388 c 0,0 0,89.438 11.412,132.305 6.281,23.65 24.787,41.5 48.284,47.821 C 117.22,448 288,448 288,448 c 0,0 170.78,0 213.371,-11.486 23.497,-6.321 42.003,-24.171 48.284,-47.821 11.412,-42.867 11.412,-132.305 11.412,-132.305 0,0 0,-89.438 -11.412,-132.305 z M 232.145,337.591 V 175.185 l 142.739,81.205 z" /></g></g><g
           id="g112"
           transform="matrix(2.48582,0,0,2.48582,7631.51,17110)"><g
             id="g110"
             transform="translate(-224,-256)"><path
               inkscape:connector-curvature="0"
               id="path108"
               style="fill-rule:nonzero"
               d="m 446.7,98.6 -67.6,318.8 c -5.1,22.5 -18.4,28.1 -37.3,17.5 l -103,-75.9 -49.7,47.8 c -5.5,5.5 -10.1,10.1 -20.7,10.1 L 175.8,312 366.7,139.5 c 8.3,-7.4 -1.8,-11.5 -12.9,-4.1 L 117.8,284 16.2,252.2 C -5.9,245.3 -6.3,230.1 20.8,219.5 L 418.2,66.4 c 18.4,-6.9 34.5,4.1 28.5,32.2 z" /></g></g><g
           id="g118"
           transform="matrix(2.48582,0,0,2.48582,9133.6,17110)"><g
             id="g116"
             transform="translate(-256,-256)"><path
               inkscape:connector-curvature="0"
               id="path114"
               style="fill-rule:nonzero"
               d="M 464,64 H 48 C 21.49,64 0,85.49 0,112 v 288 c 0,26.51 21.49,48 48,48 h 416 c 26.51,0 48,-21.49 48,-48 V 112 C 512,85.49 490.51,64 464,64 Z m 0,48 v 40.805 c -22.422,18.259 -58.168,46.651 -134.587,106.49 -16.841,13.247 -50.201,45.072 -73.413,44.701 -23.208,0.375 -56.579,-31.459 -73.413,-44.701 C 106.18,199.465 70.425,171.067 48,152.805 V 112 Z M 48,400 V 214.398 c 22.914,18.251 55.409,43.862 104.938,82.646 21.857,17.205 60.134,55.186 103.062,54.955 42.717,0.231 80.509,-37.199 103.053,-54.947 C 408.581,258.269 441.085,232.651 464,214.399 V 400 Z" /></g></g></g></g><g
       id="g2234"
       transform="translate(-20.50279)"><g
         transform="matrix(0.20806716,0,0,0.20806716,-786.6098,-169.21204)"
         serif:id="Logo circular"
         id="Logo-circular"
         style="clip-rule:evenodd;fill-rule:evenodd;stroke-linecap:round;stroke-linejoin:round;stroke-miterlimit:1.5"><g
           transform="matrix(4.16667,0,0,4.16667,5271.83,-2389.94)"
           id="circle17737"><circle
             id="circle121"
             r="112.076"
             cy="924.23499"
             cx="123.498" /></g><g
           transform="matrix(6.94593,0,0,6.94593,-409.928,-9152.03)"
           id="g5405"><path
             inkscape:connector-curvature="0"
             style="fill:#4884ce;fill-rule:nonzero"
             d="m 891.579,1582.91 c 28.032,0 26.282,-12.16 26.282,-12.16 l -0.032,-12.59 h -26.75 v -3.79 h 37.375 c 0,0 17.938,2.04 17.938,-26.25 0,-28.28 -15.656,-27.28 -15.656,-27.28 h -9.344 v 13.13 c 0,0 0.504,15.65 -15.406,15.65 h -26.532 c 0,0 -14.906,-0.24 -14.906,14.41 v 24.22 c 0,0 -2.263,14.66 27.031,14.66 z m 14.75,-8.47 c -2.661,0 -4.812,-2.15 -4.812,-4.82 0,-2.66 2.151,-4.81 4.812,-4.81 2.662,0 4.813,2.15 4.813,4.81 0,2.67 -2.151,4.82 -4.813,4.82 z"
             id="path5407" /><path
             inkscape:connector-curvature="0"
             style="fill:#f5cc00;fill-rule:nonzero"
             d="m 890.783,1473.06 c -28.031,0 -26.281,12.16 -26.281,12.16 l 0.006,2.24 0.026,10.35 h 26.75 v 3.78 h -37.375 c 0,0 -17.938,-2.03 -17.938,26.25 0,28.28 15.656,27.28 15.656,27.28 h 9.344 V 1542 c 0,0 -0.504,-15.66 15.406,-15.66 h 26.532 c 0,0 14.906,0.24 14.906,-14.41 v -24.21 c 0,0 2.263,-14.66 -27.031,-14.66 z m -14.75,8.47 c 2.662,0 4.813,2.15 4.813,4.81 0,2.66 -2.151,4.81 -4.813,4.81 -2.661,0 -4.812,-2.15 -4.812,-4.81 0,-2.66 2.151,-4.81 4.812,-4.81 z"
             id="path5409" /><path
             inkscape:connector-curvature="0"
             style="fill:#4884ce"
             d="m 850.796,1497.79 h 9.691 v -8.89 c -4.246,-0.24 -9.698,5.05 -9.691,8.89 z"
             id="path5411" /><path
             inkscape:connector-curvature="0"
             style="fill:#f5cc00"
             d="m 931.035,1558.14 h -9.691 v 8.89 c 4.246,0.24 9.698,-5.06 9.691,-8.89 z"
             id="path5413" /></g></g><g
         transform="matrix(0.14594699,0,0,0.14594699,-482.21237,-671.76524)"
         serif:id="Texto logo"
         id="Texto-logo"
         style="clip-rule:evenodd;fill-rule:evenodd;stroke-linecap:round;stroke-linejoin:round;stroke-miterlimit:1.5"><g
           transform="matrix(4.16667,0,0,4.16667,4105.29,2833.7)"
           id="g4556"><path
             inkscape:connector-curvature="0"
             style="fill:#f5cc00;fill-rule:nonzero;stroke:#000000;stroke-width:2.73000002px;stroke-linecap:butt;stroke-miterlimit:2"
             d="m 284.44,912.19 v 39.177 H 257.904 V 837.056 h 43.651 c 13.556,0 24.312,3.455 32.268,10.363 7.956,6.909 11.933,15.99 11.933,27.243 0,11.254 -3.977,20.335 -11.933,27.243 -7.956,6.857 -18.712,10.285 -32.268,10.285 z m 0,-20.412 h 17.115 c 5.758,0 10.154,-1.571 13.19,-4.711 3.036,-3.193 4.554,-7.275 4.554,-12.248 0,-5.077 -1.518,-9.238 -4.554,-12.483 -2.983,-3.245 -7.38,-4.867 -13.19,-4.867 H 284.44 Z"
             id="path4513" /><path
             inkscape:connector-curvature="0"
             style="fill:#f5cc00;fill-rule:nonzero;stroke:#000000;stroke-width:2.73000002px;stroke-linecap:butt;stroke-miterlimit:2"
             d="m 387.894,913.917 0.078,0.629 h 0.471 l 14.053,-48.127 h 28.264 l -33.838,97.588 c -2.617,6.281 -5.993,11.462 -10.128,15.545 -4.134,4.082 -10.703,6.124 -19.706,6.124 -2.303,0 -4.187,-0.157 -5.652,-0.471 -1.466,-0.262 -3.769,-0.786 -6.909,-1.571 l 3.219,-18.921 c 0.732,0.157 1.282,0.262 1.648,0.314 0.367,0.105 0.838,0.157 1.414,0.157 4.187,0 7.249,-0.628 9.185,-1.884 1.937,-1.204 3.376,-3.036 4.318,-5.495 l 2.12,-5.496 -29.363,-85.89 h 28.185 z"
             id="path4515" /><path
             inkscape:connector-curvature="0"
             style="fill:#f5cc00;fill-rule:nonzero;stroke:#000000;stroke-width:2.73000002px;stroke-linecap:butt;stroke-miterlimit:2"
             d="m 462.769,845.3 v 21.119 h 13.426 v 18.371 h -13.426 v 38.941 c 0,3.036 0.602,5.234 1.806,6.595 1.256,1.309 2.931,1.963 5.025,1.963 1.361,0 2.433,-0.053 3.219,-0.157 0.837,-0.105 1.884,-0.314 3.14,-0.628 l 1.806,19.627 c -2.67,0.681 -5.077,1.152 -7.223,1.413 -2.146,0.314 -4.685,0.471 -7.616,0.471 -8.74,0 -15.388,-2.329 -19.941,-6.987 -4.501,-4.658 -6.752,-12.038 -6.752,-22.14 V 884.79 h -11.855 v -18.371 h 11.855 V 845.3 Z"
             id="path4517" /><path
             inkscape:connector-curvature="0"
             style="fill:#f5cc00;fill-rule:nonzero;stroke:#000000;stroke-width:2.73000002px;stroke-linecap:butt;stroke-miterlimit:2"
             d="m 509.617,876.939 c 2.565,-3.821 5.679,-6.778 9.343,-8.871 3.716,-2.146 7.798,-3.219 12.247,-3.219 8.793,0 15.702,3.062 20.727,9.185 5.025,6.124 7.537,15.624 7.537,28.499 v 48.834 h -26.537 v -48.991 c 0,-6.49 -0.837,-10.965 -2.512,-13.425 -1.675,-2.46 -4.213,-3.69 -7.615,-3.69 -2.984,0 -5.575,0.445 -7.773,1.335 -2.198,0.837 -4.004,2.041 -5.417,3.611 v 61.16 H 483.081 V 828.891 h 26.536 z"
             id="path4519" /><path
             inkscape:connector-curvature="0"
             style="fill:#f5cc00;fill-rule:nonzero;stroke:#000000;stroke-width:2.73000002px;stroke-linecap:butt;stroke-miterlimit:2"
             d="m 565.493,908.108 c 0,-12.771 3.612,-23.161 10.835,-31.169 7.223,-8.06 17.298,-12.09 30.226,-12.09 12.98,0 23.082,4.03 30.305,12.09 7.223,8.008 10.834,18.398 10.834,31.169 v 1.648 c 0,12.824 -3.611,23.239 -10.834,31.247 -7.223,8.008 -17.272,12.012 -30.148,12.012 -13.033,0 -23.16,-4.004 -30.383,-12.012 -7.223,-8.008 -10.835,-18.423 -10.835,-31.247 z m 26.537,1.648 c 0,7.119 1.099,12.719 3.297,16.802 2.251,4.03 6.045,6.045 11.384,6.045 5.182,0 8.898,-2.041 11.148,-6.124 2.251,-4.082 3.376,-9.657 3.376,-16.723 v -1.648 c 0,-6.909 -1.125,-12.431 -3.376,-16.566 -2.25,-4.187 -6.019,-6.281 -11.305,-6.281 -5.234,0 -8.976,2.094 -11.227,6.281 -2.198,4.187 -3.297,9.709 -3.297,16.566 z"
             id="path4521" /><path
             inkscape:connector-curvature="0"
             style="fill:#f5cc00;fill-rule:nonzero;stroke:#000000;stroke-width:2.73000002px;stroke-linecap:butt;stroke-miterlimit:2"
             d="m 678.603,866.419 1.021,11.933 c 2.774,-4.239 6.202,-7.537 10.285,-9.892 4.082,-2.407 8.636,-3.611 13.661,-3.611 8.322,0 14.812,2.826 19.47,8.479 4.711,5.652 7.066,14.629 7.066,26.929 v 51.11 H 703.57 v -51.189 c 0,-5.391 -0.864,-9.212 -2.591,-11.462 -1.727,-2.303 -4.24,-3.455 -7.537,-3.455 -2.826,0 -5.365,0.498 -7.616,1.492 -2.25,0.994 -4.134,2.408 -5.652,4.24 v 60.374 h -26.458 v -84.948 z"
             id="path4523" /></g><g
           transform="matrix(4.16667,0,0,4.16667,4105.29,2833.7)"
           id="g4564"><path
             inkscape:connector-curvature="0"
             style="fill:#4884ce;fill-rule:nonzero"
             d="m 420.805,986.079 c 0.061,15.751 13.279,28.461 29.517,28.401 6.947,-0.03 13.32,-2.39 18.233,-6.21 0.886,-0.65 1.042,-2.1 0.231,-2.83 -0.569,-0.97 -1.863,-1.12 -2.829,-0.47 -4.187,3.57 -9.673,5.53 -15.651,5.55 -14.137,0.06 -25.49,-10.966 -25.543,-24.457 -0.054,-13.814 11.212,-24.925 25.35,-24.981 5.978,-0.023 11.479,2.056 15.855,5.431 0.81,0.644 2.102,0.558 2.745,-0.414 0.724,-0.73 0.557,-2.103 -0.334,-2.826 -4.943,-3.778 -11.335,-6.176 -18.282,-6.149 -16.237,0.144 -29.355,12.879 -29.292,28.955 z"
             id="path4532" /><path
             inkscape:connector-curvature="0"
             style="fill:#4884ce;fill-rule:nonzero"
             d="m 507.585,974.671 c -1.05,0.004 -1.935,0.816 -1.931,1.947 l 0.023,5.816 c -3.411,-4.672 -8.836,-7.721 -14.895,-7.697 -10.421,0.041 -18.706,9.041 -18.664,19.866 0.042,10.827 8.398,19.757 18.819,19.717 6.059,-0.02 11.459,-3.19 14.834,-7.89 l 0.023,5.89 c 0.004,1.05 0.896,1.94 1.946,1.93 1.05,0 1.936,-0.89 1.931,-1.94 l -0.139,-35.707 c -0.004,-1.131 -0.897,-1.936 -1.947,-1.932 z m -16.663,35.769 c -8.078,0.04 -14.892,-6.97 -14.926,-15.853 -0.035,-8.886 6.723,-16.021 14.801,-16.053 8.159,-0.032 14.892,7.051 14.927,15.937 0.035,8.889 -6.643,15.939 -14.802,15.969 z"
             id="path4534" /><path
             inkscape:connector-curvature="0"
             style="fill:#4884ce;fill-rule:nonzero"
             d="m 545.593,1012.17 c 0.004,1.13 0.896,1.93 1.946,1.93 1.05,0 1.936,-0.82 1.931,-1.95 l -0.084,-21.485 c -0.034,-8.806 -7.253,-16.048 -16.139,-16.013 -4.928,0.019 -9.362,2.298 -12.256,5.783 l -0.015,-3.796 c -0.004,-1.051 -0.816,-1.936 -1.866,-1.932 -1.131,0.004 -1.935,0.896 -1.931,1.946 l 0.053,13.491 0.003,0.647 0.084,21.489 0.002,0.48 c 0,0 0.081,0.09 0.081,0.17 10e-4,0.08 10e-4,0.16 0.082,0.24 0.244,0.48 0.73,0.88 1.297,1.04 h 0.484 c 0.566,0 1.13,-0.24 1.452,-0.73 0.241,-0.24 0.32,-0.57 0.4,-0.89 l -10e-4,-0.32 -0.084,-21.492 c 0.135,-6.706 5.526,-12.22 12.231,-12.247 6.786,-0.026 12.22,5.446 12.246,12.151 z"
             id="path4536" /><path
             inkscape:connector-curvature="0"
             style="fill:#4884ce;fill-rule:nonzero"
             d="m 589.599,974.35 c -1.05,0.004 -1.936,0.816 -1.931,1.947 l 0.022,5.816 c -3.411,-4.672 -8.835,-7.721 -14.894,-7.697 -10.421,0.041 -18.707,9.04 -18.664,19.865 0.042,10.829 8.398,19.759 18.819,19.719 6.059,-0.02 11.459,-3.19 14.833,-7.89 l 0.023,5.89 c 0.004,1.05 0.897,1.94 1.947,1.93 1.05,0 1.935,-0.89 1.931,-1.94 l -0.14,-35.708 c -0.004,-1.131 -0.896,-1.936 -1.946,-1.932 z m -16.663,35.77 c -8.079,0.03 -14.892,-6.97 -14.927,-15.854 -0.035,-8.886 6.723,-16.021 14.802,-16.053 8.159,-0.032 14.892,7.051 14.927,15.937 0.034,8.89 -6.643,15.94 -14.802,15.97 z"
             id="path4538" /><path
             inkscape:connector-curvature="0"
             style="fill:#4884ce;fill-rule:nonzero"
             d="m 600.121,1011.96 c 0.004,1.13 0.896,1.93 2.027,1.93 0.97,0 1.855,-0.82 1.851,-1.95 l -0.068,-17.369 c -0.001,-0.161 -0.001,-0.323 0.159,-0.647 0.559,-1.618 2.078,-5.663 4.73,-9.228 2.733,-3.565 6.276,-6.487 11.446,-6.507 1.05,-0.004 1.935,-0.896 1.931,-1.947 -0.004,-1.131 -0.896,-1.935 -1.946,-1.931 -7.594,0.03 -12.825,5.059 -15.796,9.756 -0.241,0.324 -0.401,0.648 -0.562,0.972 l -0.034,-8.725 c -0.004,-1.131 -0.896,-1.935 -1.865,-1.931 -1.131,0.004 -2.017,0.815 -2.012,1.946 z"
             id="path4540" /><path
             inkscape:connector-curvature="0"
             style="fill:#4884ce;fill-rule:nonzero"
             d="m 627.324,1011.85 c 0.004,1.05 0.896,1.93 1.946,1.93 1.131,0 2.016,-0.9 2.012,-1.95 l -0.139,-35.703 c -0.004,-1.131 -0.897,-1.936 -2.028,-1.931 -1.05,0.004 -1.935,0.815 -1.931,1.946 z m -0.183,-46.775 c 0.004,1.131 0.897,2.097 1.947,2.093 1.131,-0.004 2.016,-0.978 2.011,-2.109 l -0.007,-1.858 c -0.004,-1.05 -0.896,-1.935 -2.027,-1.931 -1.05,0.004 -1.935,0.897 -1.931,1.947 z"
             id="path4542" /><path
             inkscape:connector-curvature="0"
             style="fill:#4884ce;fill-rule:nonzero"
             d="m 672.701,974.025 c -1.05,0.004 -1.936,0.816 -1.931,1.946 l 0.023,5.817 c -3.412,-4.672 -8.836,-7.721 -14.895,-7.697 -10.421,0.041 -18.707,9.04 -18.664,19.865 0.042,10.824 8.398,19.764 18.819,19.724 6.059,-0.03 11.459,-3.2 14.833,-7.9 l 0.024,5.9 c 0.004,1.05 0.896,1.93 1.946,1.93 1.05,0 1.935,-0.9 1.931,-1.95 l -0.14,-35.704 c -0.004,-1.131 -0.896,-1.935 -1.946,-1.931 z m -16.663,35.775 c -8.079,0.03 -14.892,-6.97 -14.927,-15.859 -0.034,-8.886 6.724,-16.022 14.802,-16.053 8.159,-0.032 14.892,7.05 14.927,15.937 0.034,8.885 -6.643,15.935 -14.802,15.975 z"
             id="path4544" /><path
             inkscape:connector-curvature="0"
             style="fill:#4884ce;fill-rule:nonzero"
             d="m 680.704,1007.92 c 3.242,2.58 8.262,5.55 14.644,5.6 3.878,-0.01 7.105,-1.16 9.843,-3.19 2.658,-2.03 4.506,-4.7 4.493,-8.01 -0.013,-3.316 -1.883,-6.378 -4.475,-8.064 -2.752,-1.525 -5.827,-2.643 -9.626,-3.194 l -0.161,10e-4 c -3.638,-0.552 -6.307,-1.511 -8.089,-2.715 -1.54,-1.206 -2.271,-2.334 -2.278,-3.95 -0.006,-1.616 0.876,-3.235 2.487,-4.534 1.691,-1.38 4.273,-2.278 7.504,-2.291 3.878,-0.015 6.794,1.993 9.709,3.92 0.891,0.562 2.102,0.315 2.664,-0.576 0.562,-0.89 0.315,-2.101 -0.576,-2.744 -3.078,-1.927 -6.722,-4.255 -11.811,-4.235 -4.039,0.015 -7.347,1.079 -9.684,2.703 -2.497,1.868 -4.263,4.622 -4.251,7.772 0.012,3.07 1.799,5.648 4.309,7.093 2.269,1.606 5.422,2.402 8.979,3.034 l 0.162,0.081 c 3.88,0.631 6.712,1.589 8.413,2.875 2.026,1.688 2.758,2.974 2.846,4.834 0.007,1.78 -1.036,3.56 -2.97,4.86 -1.771,1.46 -4.433,2.44 -7.503,2.45 -5.009,0.02 -9.381,-2.54 -12.136,-4.55 -0.891,-0.73 -2.102,-0.56 -2.745,0.25 -0.643,0.81 -0.558,1.86 0.252,2.58 z"
             id="path4546" /></g></g></g><g
       id="g2112"
       transform="translate(-819.06133,161.71827)"
       style="fill:#000080"><text
         xml:space="preserve"
         style="font-style:normal;font-variant:normal;font-weight:500;font-stretch:normal;font-size:62.31468582px;line-height:1.25;font-family:'Argentum Sans';-inkscape-font-specification:'Argentum Sans Medium';text-align:start;text-anchor:start;clip-rule:evenodd;opacity:1;fill:#000080;fill-opacity:1;fill-rule:evenodd;stroke:none;stroke-width:4.28175497;stroke-linecap:round;stroke-linejoin:round;stroke-miterlimit:4;stroke-dasharray:none;stroke-opacity:1"
         x="931.77905"
         y="330.58258"
         id="text2102"><tspan
           sodipodi:role="line"
           id="tspan2100"
           x="931.77905"
           y="330.58258"
           style="font-style:normal;font-variant:normal;font-weight:normal;font-stretch:normal;font-size:119.64420319px;font-family:Rockwell;-inkscape-font-specification:Rockwell;fill:#000080;stroke-width:4.28175497">CALL FOR</tspan></text>
<text
         id="text2106"
         y="415.27374"
         x="929.5321"
         style="font-style:normal;font-variant:normal;font-weight:500;font-stretch:normal;font-size:54.26730347px;line-height:1.25;font-family:'Argentum Sans';-inkscape-font-specification:'Argentum Sans Medium';text-align:start;text-anchor:start;clip-rule:evenodd;opacity:1;fill:#000080;fill-opacity:1;fill-rule:evenodd;stroke:none;stroke-width:3.72880459;stroke-linecap:round;stroke-linejoin:round;stroke-miterlimit:4;stroke-dasharray:none;stroke-opacity:1"
         xml:space="preserve"><tspan
           dx="-0.050000001"
           style="font-style:normal;font-variant:normal;font-weight:bold;font-stretch:normal;font-size:104.19322205px;font-family:Rockwell;-inkscape-font-specification:'Rockwell Bold';fill:#000080;stroke-width:3.72880459"
           y="415.27374"
           x="929.5321"
           id="tspan2104"
           sodipodi:role="line">SPONSORS</tspan></text>
</g><rect
       style="opacity:0.98999999;fill:#000000;fill-opacity:1;stroke:none;stroke-width:2.29039359;stroke-miterlimit:4;stroke-dasharray:none;stroke-opacity:1"
       id="rect2199"
       width="821.01526"
       height="35.065453"
       x="-15.718996"
       y="1101.5458" /><text
       xml:space="preserve"
       style="font-style:normal;font-variant:normal;font-weight:bold;font-stretch:normal;font-size:34.66666794px;line-height:1.25;font-family:Rockwell;-inkscape-font-specification:'Rockwell Bold';text-align:start;text-anchor:start;opacity:1;fill:#ffffff;fill-opacity:1;stroke:none;stroke-width:2.29039359;stroke-miterlimit:4;stroke-dasharray:none;stroke-opacity:1"
       x="-5.8705783"
       y="1115.8596"
       id="text2195"><tspan
         sodipodi:role="line"
         id="tspan2193"
         x="-5.8705783"
         y="1115.8596">`<tspan
   style="font-size:14.66666698px;fill:#ffffff"
   id="tspan2197">Photo by Anchor Lee on Unsplash</tspan></tspan></text>
<g
       id="g2247"
       transform="translate(3.1742181)"><text
         id="text1772"
         y="696.94244"
         x="203.73639"
         style="font-style:normal;font-variant:normal;font-weight:normal;font-stretch:normal;font-size:107.62287903px;line-height:1.25;font-family:Rockwell;-inkscape-font-specification:Rockwell;text-align:start;text-anchor:start;clip-rule:evenodd;opacity:1;fill:#000080;fill-opacity:1;fill-rule:evenodd;stroke:none;stroke-width:7.11054087;stroke-linecap:round;stroke-linejoin:round;stroke-miterlimit:4;stroke-dasharray:none;stroke-opacity:1"
         xml:space="preserve"><tspan
           style="font-style:normal;font-variant:normal;font-weight:bold;font-stretch:normal;font-family:Rockwell;-inkscape-font-specification:'Rockwell Bold';fill:#000080;stroke-width:7.11054087"
           y="696.94244"
           x="203.73639"
           id="tspan1770"
           sodipodi:role="line">PYDAY</tspan></text>
<text
         id="text1776"
         y="785.63739"
         x="201.62016"
         style="font-style:normal;font-variant:normal;font-weight:bold;font-stretch:normal;font-size:47.08010101px;line-height:1.25;font-family:Rockwell;-inkscape-font-specification:'Rockwell Bold';text-align:start;text-anchor:start;clip-rule:evenodd;opacity:1;fill:#000080;fill-opacity:1;fill-rule:evenodd;stroke:none;stroke-width:3.11053729;stroke-linecap:round;stroke-linejoin:round;stroke-miterlimit:4;stroke-dasharray:none;stroke-opacity:1"
         xml:space="preserve"><tspan
           style="fill:#000080;stroke-width:3.11053729"
           id="tspan1782"
           y="785.63739"
           x="201.62016"
           sodipodi:role="line">GRAN CANARIA</tspan></text>
<text
         xml:space="preserve"
         style="font-style:normal;font-variant:normal;font-weight:bold;font-stretch:normal;font-size:47.08010101px;line-height:1.25;font-family:Rockwell;-inkscape-font-specification:'Rockwell Bold';text-align:start;text-anchor:start;clip-rule:evenodd;opacity:1;fill:#000080;fill-opacity:1;fill-rule:evenodd;stroke:none;stroke-width:3.11053729;stroke-linecap:round;stroke-linejoin:round;stroke-miterlimit:4;stroke-dasharray:none;stroke-opacity:1"
         x="203.06047"
         y="745.14655"
         id="text1850"><tspan
           sodipodi:role="line"
           x="203.06047"
           y="745.14655"
           id="tspan1848"
           style="fill:#000080;stroke-width:3.11053729">LAS PALMAS DE</tspan></text>
<rect
         y="702.9751"
         x="205.33714"
         height="4.92734"
         width="376.58954"
         id="rect1856"
         style="clip-rule:evenodd;opacity:1;fill:#000080;fill-opacity:1;fill-rule:evenodd;stroke:none;stroke-width:2.3333571;stroke-linecap:round;stroke-linejoin:round;stroke-miterlimit:4;stroke-dasharray:none;stroke-opacity:1" /><rect
         style="clip-rule:evenodd;opacity:1;fill:#000080;fill-opacity:1;fill-rule:evenodd;stroke:none;stroke-width:2.3333571;stroke-linecap:round;stroke-linejoin:round;stroke-miterlimit:4;stroke-dasharray:none;stroke-opacity:1"
         id="rect1858"
         width="376.58954"
         height="4.92734"
         x="205.33714"
         y="790.58832" /><rect
         style="clip-rule:evenodd;opacity:1;fill:#000080;fill-opacity:1;fill-rule:evenodd;stroke:none;stroke-width:2.3333571;stroke-linecap:round;stroke-linejoin:round;stroke-miterlimit:4;stroke-dasharray:none;stroke-opacity:1"
         id="rect2191"
         width="376.58954"
         height="4.92734"
         x="205.33714"
         y="612.9751" /><text
         id="text2205"
         y="815.91431"
         x="263.42813"
         style="font-style:normal;font-variant:normal;font-weight:bold;font-stretch:normal;font-size:14.66666698px;line-height:1.25;font-family:Rockwell;-inkscape-font-specification:'Rockwell Bold';text-align:start;text-anchor:start;opacity:1;fill:#ffffff;fill-opacity:1;stroke:none;stroke-width:2.29039359;stroke-miterlimit:4;stroke-dasharray:none;stroke-opacity:1"
         xml:space="preserve"><tspan
           style="font-style:normal;font-variant:normal;font-weight:normal;font-stretch:normal;font-size:24px;font-family:Rockwell;-inkscape-font-specification:Rockwell;fill:#000080"
           y="815.91431"
           x="263.42813"
           id="tspan2203"
           sodipodi:role="line">https://pycan.es/pyday</tspan></text>
</g></g></svg>