<?xml version="1.0" encoding="UTF-8" standalone="no"?>
<!-- Created with Inkscape (http://www.inkscape.org/) -->

<svg
   xmlns:dc="http://purl.org/dc/elements/1.1/"
   xmlns:cc="http://creativecommons.org/ns#"
   xmlns:rdf="http://www.w3.org/1999/02/22-rdf-syntax-ns#"
   xmlns:svg="http://www.w3.org/2000/svg"
   xmlns="http://www.w3.org/2000/svg"
   xmlns:sodipodi="http://sodipodi.sourceforge.net/DTD/sodipodi-0.dtd"
   xmlns:inkscape="http://www.inkscape.org/namespaces/inkscape"
   width="744.09448"
   height="102"
   viewBox="0 0 744.09449 102"
   id="svg6375"
   version="1.1"
   inkscape:version="0.91 r13725"
   sodipodi:docname="sala-ben.svg">
  <defs
     id="defs6377" />
  <sodipodi:namedview
     id="base"
     pagecolor="#ffffff"
     bordercolor="#666666"
     borderopacity="1.0"
     inkscape:pageopacity="0.0"
     inkscape:pageshadow="2"
     inkscape:zoom="0.98994949"
     inkscape:cx="281.46844"
     inkscape:cy="43.472954"
     inkscape:document-units="px"
     inkscape:current-layer="layer1"
     showgrid="false"
     units="px"
     inkscape:window-width="1280"
     inkscape:window-height="971"
     inkscape:window-x="0"
     inkscape:window-y="0"
     inkscape:window-maximized="1" />
  <metadata
     id="metadata6380">
    <rdf:RDF>
      <cc:Work
         rdf:about="">
        <dc:format>image/svg+xml</dc:format>
        <dc:type
           rdf:resource="http://purl.org/dc/dcmitype/StillImage" />
        <dc:title></dc:title>
      </cc:Work>
    </rdf:RDF>
  </metadata>
  <g
     inkscape:label="Capa 1"
     inkscape:groupmode="layer"
     id="layer1"
     transform="translate(0,-950.36218)">
    <path
       sodipodi:nodetypes="sccssss"
       inkscape:connector-curvature="0"
       id="path6938"
       d="m 716.74723,958.24575 -716.72110552,0 0,85.59415 716.72110552,0 c 12.15809,0 21.94602,-9.7879 21.94602,-21.946 l 0,-41.70213 c 0,-12.1581 -9.78793,-21.94602 -21.94602,-21.94602 z"
       style="color:#000000;clip-rule:nonzero;display:inline;overflow:visible;visibility:visible;opacity:1;isolation:auto;mix-blend-mode:normal;color-interpolation:sRGB;color-interpolation-filters:linearRGB;solid-color:#000000;solid-opacity:1;fill:#000000;fill-opacity:1;fill-rule:evenodd;stroke:none;stroke-width:1px;stroke-linecap:butt;stroke-linejoin:miter;stroke-miterlimit:4;stroke-dasharray:none;stroke-dashoffset:0;stroke-opacity:1;color-rendering:auto;image-rendering:auto;shape-rendering:auto;text-rendering:auto;enable-background:accumulate" />
    <path
       inkscape:connector-curvature="0"
       id="path9462"
       style="font-style:normal;font-variant:normal;font-weight:normal;font-stretch:normal;font-size:medium;line-height:125%;font-family:'Futura LT ExtraBold';-inkscape-font-specification:'Futura LT ExtraBold, ';letter-spacing:0px;word-spacing:0px;fill:#ffffff;fill-opacity:1;stroke:none;stroke-width:1px;stroke-linecap:butt;stroke-linejoin:miter;stroke-opacity:1"
       d="m 270.45912,1009.5008 1.14451,0.8993 q 3.02479,2.3708 6.54008,4.0058 3.5153,1.635 7.43934,1.635 0.81751,0 1.79853,-0.1635 1.06276,-0.1635 1.88027,-0.5722 0.89926,-0.4905 1.47152,-1.1446 0.57225,-0.7357 0.57225,-1.7985 0,-1.0627 -0.4905,-1.635 -0.49051,-0.654 -1.22627,-0.981 -0.73576,-0.327 -1.63502,-0.4905 -0.89926,-0.1635 -1.63502,-0.327 l -4.4963,-0.8175 q -3.27004,-0.5723 -6.21308,-1.7986 -2.94303,-1.308 -5.15031,-3.3517 -2.20728,-2.0438 -3.51529,-4.82335 -1.22627,-2.77953 -1.22627,-6.37658 0,-5.47732 2.28903,-9.72837 2.28903,-4.25105 6.04957,-7.11233 3.76055,-2.94304 8.50211,-4.41456 4.82331,-1.55327 9.89187,-1.55327 10.62763,0 19.53849,5.39557 l -6.04958,15.77794 q -2.86128,-1.96202 -6.13132,-3.27004 -3.18829,-1.38977 -6.86709,-1.38977 -0.73576,0 -1.63502,0.16351 -0.81751,0.1635 -1.55327,0.57225 -0.654,0.32701 -1.14451,0.98102 -0.49051,0.57225 -0.49051,1.55326 0,0.89927 0.40876,1.38977 0.49051,0.49051 1.14451,0.81751 0.73576,0.32701 1.47152,0.49051 0.81751,0.1635 1.47152,0.327 l 5.06856,1.14452 q 3.51529,0.81751 6.54008,2.20727 3.02479,1.38977 5.15031,3.5153 2.20728,2.12554 3.43355,5.06854 1.22626,2.9431 1.22626,6.8671 0,5.5591 -2.28903,9.6466 -2.28902,4.0876 -6.04957,6.8671 -3.76055,2.7795 -8.58386,4.1693 -4.8233,1.308 -9.81012,1.308 -5.88607,0 -12.18089,-1.4715 -6.29483,-1.5533 -11.5269,-4.1693 l 6.86709,-17.413 z" />
    <path
       inkscape:connector-curvature="0"
       id="path9464"
       style="font-style:normal;font-variant:normal;font-weight:normal;font-stretch:normal;font-size:medium;line-height:125%;font-family:'Futura LT ExtraBold';-inkscape-font-specification:'Futura LT ExtraBold, ';letter-spacing:0px;word-spacing:0px;fill:#ffffff;fill-opacity:1;stroke:none;stroke-width:1px;stroke-linecap:butt;stroke-linejoin:miter;stroke-opacity:1"
       d="m 353.85408,1009.2556 -2.61603,-10.8729 q -0.49051,-1.96202 -0.81751,-3.92405 -0.32701,-2.04377 -0.65401,-4.00579 l -0.81751,0 -4.08755,18.80274 8.99261,0 z m -14.79693,22.318 -23.70779,0 21.41876,-61.64025 24.77055,0 21.99102,61.64025 -23.70779,0 -2.04377,-7.6846 -16.92246,0 -1.79852,7.6846 z" />
    <path
       inkscape:connector-curvature="0"
       id="path9466"
       style="font-style:normal;font-variant:normal;font-weight:normal;font-stretch:normal;font-size:medium;line-height:125%;font-family:'Futura LT ExtraBold';-inkscape-font-specification:'Futura LT ExtraBold, ';letter-spacing:0px;word-spacing:0px;fill:#ffffff;fill-opacity:1;stroke:none;stroke-width:1px;stroke-linecap:butt;stroke-linejoin:miter;stroke-opacity:1"
       d="m 388.12946,969.93335 22.39977,0 0,41.85655 18.80273,0 0,19.7837 -41.2025,0 0,-61.64025 z" />
    <path
       inkscape:connector-curvature="0"
       id="path9468"
       style="font-style:normal;font-variant:normal;font-weight:normal;font-stretch:normal;font-size:medium;line-height:125%;font-family:'Futura LT ExtraBold';-inkscape-font-specification:'Futura LT ExtraBold, ';letter-spacing:0px;word-spacing:0px;fill:#ffffff;fill-opacity:1;stroke:none;stroke-width:1px;stroke-linecap:butt;stroke-linejoin:miter;stroke-opacity:1"
       d="m 468.33741,1009.2556 -2.61603,-10.8729 q -0.49051,-1.96202 -0.81751,-3.92405 -0.327,-2.04377 -0.65401,-4.00579 l -0.81751,0 -4.08755,18.80274 8.99261,0 z m -14.79693,22.318 -23.70779,0 21.41876,-61.64025 24.77056,0 21.99101,61.64025 -23.70779,0 -2.04377,-7.6846 -16.92246,0 -1.79852,7.6846 z" />
    <path
       inkscape:connector-curvature="0"
       id="path9470"
       style="font-style:normal;font-variant:normal;font-weight:normal;font-stretch:normal;font-size:medium;line-height:125%;font-family:'Futura LT ExtraBold';-inkscape-font-specification:'Futura LT ExtraBold, ';letter-spacing:0px;word-spacing:0px;fill:#ffffff;fill-opacity:1;stroke:none;stroke-width:1px;stroke-linecap:butt;stroke-linejoin:miter;stroke-opacity:1"
       d="m 557.22374,1016.8584 2.53428,0 q 1.38977,0 2.94304,-0.082 1.55326,-0.082 2.86128,-0.5723 1.38977,-0.4905 2.28903,-1.5532 0.89926,-1.0628 0.89926,-2.9431 0,-1.962 -0.98101,-2.943 -0.89926,-1.0628 -2.37078,-1.4715 -1.38977,-0.4905 -3.02479,-0.5723 -1.63502,-0.082 -2.94303,-0.082 l -2.20728,0 0,10.2188 z m 2.04377,-23.21726 q 1.22627,0 2.45253,-0.0817 1.22627,-0.1635 2.20728,-0.57225 1.06276,-0.49051 1.63502,-1.38977 0.65401,-0.89926 0.65401,-2.53428 0,-1.71677 -0.73576,-2.53428 -0.65401,-0.89926 -1.79852,-1.22627 -1.06277,-0.40875 -2.37078,-0.40875 -1.30802,-0.0817 -2.53428,-0.0817 l -1.55327,0 0,8.8291 2.04377,0 z m -22.80853,-23.70779 26.07857,0 q 4.49631,0 8.82911,0.65401 4.3328,0.65401 7.6846,2.53428 3.43354,1.88028 5.47731,5.23207 2.12553,3.35179 2.12553,8.6656 0,4.08755 -2.04378,7.60285 -1.96202,3.51529 -6.04957,4.82331 l 0,0.4905 q 5.06856,1.79853 8.0116,5.47733 2.94303,3.597 2.94303,9.1561 0,4.7416 -2.04377,8.0116 -1.96203,3.27 -5.23207,5.3138 -3.18828,1.962 -7.27583,2.8613 -4.0058,0.8175 -8.0116,0.8175 l -30.49313,0 0,-61.64025 z" />
    <path
       inkscape:connector-curvature="0"
       id="path9472"
       style="font-style:normal;font-variant:normal;font-weight:normal;font-stretch:normal;font-size:medium;line-height:125%;font-family:'Futura LT ExtraBold';-inkscape-font-specification:'Futura LT ExtraBold, ';letter-spacing:0px;word-spacing:0px;fill:#ffffff;fill-opacity:1;stroke:none;stroke-width:1px;stroke-linecap:butt;stroke-linejoin:miter;stroke-opacity:1"
       d="m 596.49104,969.93335 41.44776,0 0,16.84071 -18.88448,0 0,5.88607 17.24946,0 0,16.02317 -17.24946,0 0,6.0496 19.53848,0 0,16.8407 -42.10176,0 0,-61.64025 z" />
    <path
       inkscape:connector-curvature="0"
       id="path9474"
       style="font-style:normal;font-variant:normal;font-weight:normal;font-stretch:normal;font-size:medium;line-height:125%;font-family:'Futura LT ExtraBold';-inkscape-font-specification:'Futura LT ExtraBold, ';letter-spacing:0px;word-spacing:0px;fill:#ffffff;fill-opacity:1;stroke:none;stroke-width:1px;stroke-linecap:butt;stroke-linejoin:miter;stroke-opacity:1"
       d="m 647.42576,969.93335 21.50051,0 20.11075,34.17195 0.65401,0 q -0.65401,-3.9241 -1.30802,-7.84812 -0.57225,-3.92405 -0.57225,-7.8481 l 0,-18.47573 21.41876,0 0,61.64025 -21.41876,0 -19.702,-32.37339 -0.654,0 q 0.57225,3.18829 0.98101,6.21309 0.40875,3.0248 0.40875,6.1313 l 0,20.029 -21.41876,0 0,-61.64025 z" />
    <rect
       style="color:#000000;clip-rule:nonzero;display:inline;overflow:visible;visibility:visible;opacity:1;isolation:auto;mix-blend-mode:normal;color-interpolation:sRGB;color-interpolation-filters:linearRGB;solid-color:#000000;solid-opacity:1;fill:none;fill-opacity:1;fill-rule:evenodd;stroke:none;stroke-width:0.5225243px;stroke-linecap:butt;stroke-linejoin:miter;stroke-miterlimit:4;stroke-dasharray:none;stroke-dashoffset:0;stroke-opacity:1;color-rendering:auto;image-rendering:auto;shape-rendering:auto;text-rendering:auto;enable-background:accumulate"
       id="rect6951"
       width="743.47748"
       height="101.519"
       x="0.26125503"
       y="950.58191" />
  </g>
</svg>
