<?xml version="1.0" encoding="UTF-8" standalone="no"?>
<!-- Created with Inkscape (http://www.inkscape.org/) -->

<svg
   xmlns:dc="http://purl.org/dc/elements/1.1/"
   xmlns:cc="http://creativecommons.org/ns#"
   xmlns:rdf="http://www.w3.org/1999/02/22-rdf-syntax-ns#"
   xmlns:svg="http://www.w3.org/2000/svg"
   xmlns="http://www.w3.org/2000/svg"
   xmlns:sodipodi="http://sodipodi.sourceforge.net/DTD/sodipodi-0.dtd"
   xmlns:inkscape="http://www.inkscape.org/namespaces/inkscape"
   width="744.09448"
   height="102"
   viewBox="0 0 744.09449 102"
   id="svg6375"
   version="1.1"
   inkscape:version="0.91 r13725"
   sodipodi:docname="sala-luke.svg">
  <defs
     id="defs6377" />
  <sodipodi:namedview
     id="base"
     pagecolor="#ffffff"
     bordercolor="#666666"
     borderopacity="1.0"
     inkscape:pageopacity="0.0"
     inkscape:pageshadow="2"
     inkscape:zoom="1.979899"
     inkscape:cx="176.07122"
     inkscape:cy="31.090373"
     inkscape:document-units="px"
     inkscape:current-layer="layer1"
     showgrid="false"
     units="px"
     inkscape:window-width="1280"
     inkscape:window-height="971"
     inkscape:window-x="0"
     inkscape:window-y="0"
     inkscape:window-maximized="1"
     showguides="true"
     inkscape:guide-bbox="true">
    <sodipodi:guide
       position="238.57143,82.857143"
       orientation="0,1"
       id="guide7015" />
    <sodipodi:guide
       position="139.90613,20.708127"
       orientation="0,1"
       id="guide7017" />
    <sodipodi:guide
       position="19.697975,36.365492"
       orientation="1,0"
       id="guide7019" />
  </sodipodi:namedview>
  <metadata
     id="metadata6380">
    <rdf:RDF>
      <cc:Work
         rdf:about="">
        <dc:format>image/svg+xml</dc:format>
        <dc:type
           rdf:resource="http://purl.org/dc/dcmitype/StillImage" />
        <dc:title></dc:title>
      </cc:Work>
    </rdf:RDF>
  </metadata>
  <g
     inkscape:label="Capa 1"
     inkscape:groupmode="layer"
     id="layer1"
     transform="translate(0,-950.36218)">
    <path
       sodipodi:nodetypes="sccssss"
       inkscape:connector-curvature="0"
       id="path6938"
       d="m 26.686432,958.24575 716.006818,0 0,85.59415 -716.006818,0 c -12.158096,0 -21.9460218,-9.7879 -21.9460218,-21.946 l 0,-41.70213 c 0,-12.1581 9.7879258,-21.94602 21.9460218,-21.94602 z"
       style="color:#000000;clip-rule:nonzero;display:inline;overflow:visible;visibility:visible;opacity:1;isolation:auto;mix-blend-mode:normal;color-interpolation:sRGB;color-interpolation-filters:linearRGB;solid-color:#000000;solid-opacity:1;fill:#000000;fill-opacity:1;fill-rule:evenodd;stroke:none;stroke-width:1px;stroke-linecap:butt;stroke-linejoin:miter;stroke-miterlimit:4;stroke-dasharray:none;stroke-dashoffset:0;stroke-opacity:1;color-rendering:auto;image-rendering:auto;shape-rendering:auto;text-rendering:auto;enable-background:accumulate" />
    <text
       sodipodi:linespacing="125%"
       id="text6934"
       y="1031.5736"
       x="18.264999"
       style="font-style:normal;font-weight:normal;font-size:81.75099945px;line-height:125%;font-family:sans-serif;letter-spacing:0px;word-spacing:0px;fill:#ffffff;fill-opacity:1;stroke:none;stroke-width:1px;stroke-linecap:butt;stroke-linejoin:miter;stroke-opacity:1"
       xml:space="preserve"><tspan
         style="font-style:normal;font-variant:normal;font-weight:normal;font-stretch:normal;font-family:'Futura LT ExtraBold';-inkscape-font-specification:'Futura LT ExtraBold, ';fill:#ffffff"
         y="1031.5736"
         x="18.264999"
         id="tspan6936"
         sodipodi:role="line">SALA BEN</tspan></text>
    <path
       style="color:#000000;clip-rule:nonzero;display:inline;overflow:visible;visibility:visible;opacity:1;isolation:auto;mix-blend-mode:normal;color-interpolation:sRGB;color-interpolation-filters:linearRGB;solid-color:#000000;solid-opacity:1;fill:#000000;fill-opacity:1;fill-rule:evenodd;stroke:none;stroke-width:1px;stroke-linecap:butt;stroke-linejoin:miter;stroke-miterlimit:4;stroke-dasharray:none;stroke-dashoffset:0;stroke-opacity:1;color-rendering:auto;image-rendering:auto;shape-rendering:auto;text-rendering:auto;enable-background:accumulate"
       d="m 26.686432,958.24575 717.016978,0 0,85.59415 -717.016978,0 c -12.158096,0 -21.9460218,-9.7879 -21.9460218,-21.946 l 0,-41.70213 c 0,-12.1581 9.7879258,-21.94602 21.9460218,-21.94602 z"
       id="path6940"
       inkscape:connector-curvature="0"
       sodipodi:nodetypes="sccssss" />
    <rect
       style="color:#000000;clip-rule:nonzero;display:inline;overflow:visible;visibility:visible;opacity:1;isolation:auto;mix-blend-mode:normal;color-interpolation:sRGB;color-interpolation-filters:linearRGB;solid-color:#000000;solid-opacity:1;fill:none;fill-opacity:1;fill-rule:evenodd;stroke:none;stroke-width:0.5225243px;stroke-linecap:butt;stroke-linejoin:miter;stroke-miterlimit:4;stroke-dasharray:none;stroke-dashoffset:0;stroke-opacity:1;color-rendering:auto;image-rendering:auto;shape-rendering:auto;text-rendering:auto;enable-background:accumulate"
       id="rect6951"
       width="743.47748"
       height="101.519"
       x="0.26125503"
       y="950.58191" />
    <path
       inkscape:connector-curvature="0"
       id="path7022"
       style="font-style:normal;font-variant:normal;font-weight:normal;font-stretch:normal;font-size:medium;line-height:125%;font-family:'Futura LT ExtraBold';-inkscape-font-specification:'Futura LT ExtraBold, ';letter-spacing:0px;word-spacing:0px;fill:#ffffff;fill-opacity:1;stroke:none;stroke-width:1px;stroke-linecap:butt;stroke-linejoin:miter;stroke-opacity:1"
       d="m 27.024279,1008.8153 1.131524,0.8891 q 2.990455,2.3439 6.46585,3.9603 3.475394,1.6165 7.354904,1.6165 0.808231,0 1.778108,-0.1617 1.050701,-0.1616 1.858932,-0.5657 0.889054,-0.485 1.454816,-1.1316 0.565762,-0.7274 0.565762,-1.7781 0,-1.0507 -0.484939,-1.6164 -0.484939,-0.6466 -1.212347,-0.9699 -0.727408,-0.3233 -1.616462,-0.4849 -0.889054,-0.1617 -1.616462,-0.3233 l -4.445272,-0.8083 q -3.232925,-0.5657 -6.142557,-1.7781 -2.909632,-1.2931 -5.091857,-3.3137 -2.182224,-2.0206 -3.475394,-4.76858 -1.212347,-2.74799 -1.212347,-6.30421 0,-5.41515 2.263048,-9.61795 2.263047,-4.2028 5.980911,-7.03161 3.717863,-2.90963 8.405604,-4.36445 4.768564,-1.53564 9.779598,-1.53564 10.507005,0 19.316725,5.33433 l -5.980911,15.59886 q -2.828809,-1.93975 -6.061734,-3.23292 -3.152101,-1.374 -6.789142,-1.374 -0.727408,0 -1.616462,0.16165 -0.808231,0.16165 -1.535639,0.56576 -0.646585,0.32329 -1.131524,0.96988 -0.484939,0.56576 -0.484939,1.53564 0,0.88905 0.404116,1.37399 0.484939,0.48494 1.131524,0.80823 0.727408,0.3233 1.454816,0.48494 0.808231,0.16165 1.454816,0.32329 l 5.011033,1.13153 q 3.475394,0.80823 6.46585,2.18222 2.990455,1.37399 5.091856,3.4754 2.182225,2.10144 3.394572,5.01104 1.212346,2.9096 1.212346,6.7891 0,5.496 -2.263047,9.5372 -2.263047,4.0411 -5.980911,6.7891 -3.717863,2.748 -8.486428,4.122 -4.768564,1.2932 -9.698774,1.2932 -5.819265,0 -12.042645,-1.4549 -6.22338,-1.5356 -11.39606,-4.1219 l 6.789142,-17.2154 z" />
    <path
       inkscape:connector-curvature="0"
       id="path7024"
       style="font-style:normal;font-variant:normal;font-weight:normal;font-stretch:normal;font-size:medium;line-height:125%;font-family:'Futura LT ExtraBold';-inkscape-font-specification:'Futura LT ExtraBold, ';letter-spacing:0px;word-spacing:0px;fill:#ffffff;fill-opacity:1;stroke:none;stroke-width:1px;stroke-linecap:butt;stroke-linejoin:miter;stroke-opacity:1"
       d="m 109.4727,1008.5729 -2.58634,-10.74951 q -0.48494,-1.93976 -0.80823,-3.87951 -0.32329,-2.02058 -0.64659,-3.96034 l -0.80823,0 -4.04115,18.58936 8.89054,0 z m -14.628984,22.0647 -23.438705,0 21.175658,-60.94066 24.489401,0 21.74142,60.94066 -23.4387,0 -2.02058,-7.5974 -16.730385,0 -1.778109,7.5974 z" />
    <path
       inkscape:connector-curvature="0"
       id="path7026"
       style="font-style:normal;font-variant:normal;font-weight:normal;font-stretch:normal;font-size:medium;line-height:125%;font-family:'Futura LT ExtraBold';-inkscape-font-specification:'Futura LT ExtraBold, ';letter-spacing:0px;word-spacing:0px;fill:#ffffff;fill-opacity:1;stroke:none;stroke-width:1px;stroke-linecap:butt;stroke-linejoin:miter;stroke-opacity:1"
       d="m 143.35906,969.69694 22.14553,0 0,41.38146 18.58932,0 0,19.5592 -40.73485,0 0,-60.94066 z" />
    <path
       inkscape:connector-curvature="0"
       id="path7028"
       style="font-style:normal;font-variant:normal;font-weight:normal;font-stretch:normal;font-size:medium;line-height:125%;font-family:'Futura LT ExtraBold';-inkscape-font-specification:'Futura LT ExtraBold, ';letter-spacing:0px;word-spacing:0px;fill:#ffffff;fill-opacity:1;stroke:none;stroke-width:1px;stroke-linecap:butt;stroke-linejoin:miter;stroke-opacity:1"
       d="m 222.65665,1008.5729 -2.58634,-10.74951 q -0.48494,-1.93976 -0.80823,-3.87951 -0.32329,-2.02058 -0.64659,-3.96034 l -0.80823,0 -4.04115,18.58936 8.89054,0 z m -14.62899,22.0647 -23.4387,0 21.17566,-60.94066 24.4894,0 21.74142,60.94066 -23.4387,0 -2.02058,-7.5974 -16.73039,0 -1.77811,7.5974 z" />
    <path
       inkscape:connector-curvature="0"
       id="path7030"
       style="font-style:normal;font-variant:normal;font-weight:normal;font-stretch:normal;font-size:medium;line-height:125%;font-family:'Futura LT ExtraBold';-inkscape-font-specification:'Futura LT ExtraBold, ';letter-spacing:0px;word-spacing:0px;fill:#ffffff;fill-opacity:1;stroke:none;stroke-width:1px;stroke-linecap:butt;stroke-linejoin:miter;stroke-opacity:1"
       d="m 290.16669,969.69694 22.14553,0 0,41.38146 18.58932,0 0,19.5592 -40.73485,0 0,-60.94066 z" />
    <path
       inkscape:connector-curvature="0"
       id="path7032"
       style="font-style:normal;font-variant:normal;font-weight:normal;font-stretch:normal;font-size:medium;line-height:125%;font-family:'Futura LT ExtraBold';-inkscape-font-specification:'Futura LT ExtraBold, ';letter-spacing:0px;word-spacing:0px;fill:#ffffff;fill-opacity:1;stroke:none;stroke-width:1px;stroke-linecap:butt;stroke-linejoin:miter;stroke-opacity:1"
       d="m 392.98379,969.69694 0,36.04716 q 0,6.7083 -2.02057,11.5577 -2.02058,4.8493 -5.73845,8.0823 -3.63704,3.1521 -8.89054,4.6877 -5.17268,1.5357 -11.5577,1.5357 -6.38503,0 -11.63853,-1.5357 -5.17268,-1.5356 -8.89055,-4.6877 -3.63704,-3.233 -5.65762,-8.0823 -2.02057,-4.8494 -2.02057,-11.5577 l 0,-36.04716 22.14553,0 0,33.94576 q 0,1.7781 0.0808,3.3945 0.16165,1.6165 0.72741,2.9097 0.56576,1.2123 1.77811,1.9397 1.29317,0.7274 3.4754,0.7274 2.18222,0 3.39457,-0.7274 1.29317,-0.7274 1.85893,-1.9397 0.56576,-1.2932 0.64658,-2.9097 0.16165,-1.6164 0.16165,-3.3945 l 0,-33.94576 22.14553,0 z" />
    <path
       inkscape:connector-curvature="0"
       id="path7034"
       style="font-style:normal;font-variant:normal;font-weight:normal;font-stretch:normal;font-size:medium;line-height:125%;font-family:'Futura LT ExtraBold';-inkscape-font-specification:'Futura LT ExtraBold, ';letter-spacing:0px;word-spacing:0px;fill:#ffffff;fill-opacity:1;stroke:none;stroke-width:1px;stroke-linecap:butt;stroke-linejoin:miter;stroke-opacity:1"
       d="m 402.88086,969.69694 21.57977,0 -0.48494,26.42916 0.48494,0 q 0.40411,-1.85893 1.29317,-3.55622 0.88905,-1.69728 1.77811,-3.31374 l 10.66865,-19.5592 24.16611,0 -19.07425,29.66209 21.09483,31.27857 -25.70175,0 -10.50701,-18.4277 q -0.96988,-1.7781 -2.18222,-3.4754 -1.13153,-1.7781 -1.53564,-3.637 l -0.48494,0 0.48494,25.5401 -21.57977,0 0,-60.94066 z" />
    <path
       inkscape:connector-curvature="0"
       id="path7036"
       style="font-style:normal;font-variant:normal;font-weight:normal;font-stretch:normal;font-size:medium;line-height:125%;font-family:'Futura LT ExtraBold';-inkscape-font-specification:'Futura LT ExtraBold, ';letter-spacing:0px;word-spacing:0px;fill:#ffffff;fill-opacity:1;stroke:none;stroke-width:1px;stroke-linecap:butt;stroke-linejoin:miter;stroke-opacity:1"
       d="m 468.69612,969.69694 40.97732,0 0,16.64956 -18.67014,0 0,5.81927 17.05368,0 0,15.84133 -17.05368,0 0,5.9809 19.31672,0 0,16.6496 -41.6239,0 0,-60.94066 z" />
  </g>
</svg>
