<?xml version="1.0" encoding="UTF-8" standalone="no"?>
<!-- Generator: Adobe Illustrator 16.0.0, SVG Export Plug-In . SVG Version: 6.00 Build 0)  -->

<svg
   xmlns:dc="http://purl.org/dc/elements/1.1/"
   xmlns:cc="http://creativecommons.org/ns#"
   xmlns:rdf="http://www.w3.org/1999/02/22-rdf-syntax-ns#"
   xmlns:svg="http://www.w3.org/2000/svg"
   xmlns="http://www.w3.org/2000/svg"
   xmlns:xlink="http://www.w3.org/1999/xlink"
   xmlns:sodipodi="http://sodipodi.sourceforge.net/DTD/sodipodi-0.dtd"
   xmlns:inkscape="http://www.inkscape.org/namespaces/inkscape"
   version="1.1"
   id="Capa_1"
   x="0px"
   y="0px"
   width="535.73102"
   height="266.25601"
   viewBox="0 0 535.73099 266.256"
   enable-background="new 0 0 595.28 841.89"
   xml:space="preserve"
   inkscape:version="0.48.5 r10040"
   sodipodi:docname="dargo.svg"><metadata
     id="metadata973"><rdf:RDF><cc:Work
         rdf:about=""><dc:format>image/svg+xml</dc:format><dc:type
           rdf:resource="http://purl.org/dc/dcmitype/StillImage" /></cc:Work></rdf:RDF></metadata><defs
     id="defs971" /><sodipodi:namedview
     pagecolor="#ffffff"
     bordercolor="#666666"
     borderopacity="1"
     objecttolerance="10"
     gridtolerance="10"
     guidetolerance="10"
     inkscape:pageopacity="0"
     inkscape:pageshadow="2"
     inkscape:window-width="1436"
     inkscape:window-height="861"
     id="namedview969"
     showgrid="false"
     fit-margin-top="56"
     fit-margin-left="15"
     fit-margin-bottom="56"
     fit-margin-right="15"
     inkscape:zoom="0.5606433"
     inkscape:cx="327.26992"
     inkscape:cy="105.53732"
     inkscape:window-x="1366"
     inkscape:window-y="18"
     inkscape:window-maximized="0"
     inkscape:current-layer="Capa_1" /><g
     id="g7"
     transform="translate(-30.607005,14.170998)"><g
       id="g9"><path
         d="m 225.341,122.761 c 0,-4.094 0.588,-7.893 1.769,-11.393 1.177,-3.497 2.744,-6.464 4.697,-8.898 1.951,-2.436 4.192,-4.522 6.725,-6.262 2.531,-1.74 5.14,-3.017 7.829,-3.828 2.685,-0.812 5.361,-1.218 8.029,-1.218 4.601,0 8.466,0.83 11.598,2.494 3.131,1.662 5.489,3.712 7.075,6.146 V 76.318 c 0,-1.779 0.647,-3.313 1.941,-4.609 1.297,-1.295 2.831,-1.942 4.61,-1.942 1.777,0 3.303,0.647 4.58,1.942 1.275,1.296 1.913,2.83 1.913,4.609 v 71.493 c 0,1.777 -0.638,3.304 -1.913,4.581 -1.277,1.274 -2.803,1.913 -4.58,1.913 -1.78,0 -3.313,-0.638 -4.61,-1.913 -1.294,-1.276 -1.941,-2.803 -1.941,-4.581 v -4.177 c -0.233,2.631 -2.205,5.084 -5.916,7.363 -3.71,2.283 -7.963,3.424 -12.756,3.424 -2.668,0 -5.344,-0.397 -8.029,-1.189 -2.689,-0.792 -5.298,-2.049 -7.829,-3.771 -2.533,-1.718 -4.774,-3.796 -6.725,-6.232 -1.953,-2.436 -3.52,-5.422 -4.697,-8.958 -1.181,-3.536 -1.77,-7.372 -1.77,-11.51 m 13.046,0 c 0,3.209 0.531,6.148 1.595,8.815 1.063,2.667 2.443,4.823 4.145,6.465 1.702,1.644 3.586,2.907 5.654,3.798 2.067,0.889 4.165,1.334 6.292,1.334 2.241,0 4.386,-0.396 6.436,-1.19 2.047,-0.791 3.914,-1.971 5.595,-3.537 1.682,-1.563 3.024,-3.7 4.029,-6.408 1.005,-2.705 1.507,-5.796 1.507,-9.277 0,-3.515 -0.502,-6.618 -1.507,-9.304 -1.004,-2.688 -2.356,-4.813 -4.059,-6.379 -1.7,-1.564 -3.557,-2.735 -5.565,-3.507 -2.012,-0.773 -4.157,-1.159 -6.436,-1.159 -2.127,0 -4.226,0.442 -6.292,1.331 -2.068,0.89 -3.952,2.167 -5.654,3.828 -1.702,1.664 -3.082,3.818 -4.145,6.464 -1.064,2.65 -1.595,5.558 -1.595,8.726"
         id="path11"
         inkscape:connector-curvature="0"
         style="fill:#3497d3" /><path
         d="m 297.995,122.761 c 0,-5.063 0.899,-9.662 2.695,-13.799 1.798,-4.134 4.127,-7.46 6.988,-9.972 2.859,-2.512 5.971,-4.444 9.334,-5.799 3.361,-1.353 6.727,-2.029 10.086,-2.029 4.564,0 8.411,0.83 11.541,2.494 3.131,1.662 5.487,3.712 7.074,6.146 v -2.145 c 0,-1.778 0.646,-3.305 1.942,-4.582 1.294,-1.275 2.831,-1.913 4.61,-1.913 1.777,0 3.305,0.638 4.58,1.913 1.275,1.276 1.913,2.804 1.913,4.582 v 50.156 c 0,1.777 -0.638,3.304 -1.913,4.581 -1.275,1.274 -2.803,1.913 -4.58,1.913 -1.779,0 -3.316,-0.638 -4.61,-1.913 -1.296,-1.276 -1.942,-2.803 -1.942,-4.581 v -4.177 c -0.232,2.631 -2.193,5.084 -5.887,7.363 -3.689,2.283 -7.933,3.424 -12.729,3.424 -2.664,0 -5.343,-0.397 -8.029,-1.189 -2.686,-0.792 -5.304,-2.049 -7.855,-3.771 -2.551,-1.718 -4.805,-3.796 -6.755,-6.232 -1.952,-2.436 -3.517,-5.422 -4.696,-8.958 -1.179,-3.538 -1.767,-7.374 -1.767,-11.512 m 13.044,0 c 0,3.209 0.531,6.148 1.596,8.815 1.061,2.667 2.443,4.823 4.143,6.465 1.703,1.644 3.586,2.907 5.655,3.798 2.066,0.889 4.163,1.334 6.292,1.334 2.242,0 4.387,-0.396 6.436,-1.19 2.047,-0.791 3.916,-1.971 5.597,-3.537 1.679,-1.563 3.021,-3.7 4.028,-6.408 1.004,-2.705 1.508,-5.796 1.508,-9.277 0,-3.515 -0.504,-6.618 -1.508,-9.304 -1.007,-2.688 -2.358,-4.813 -4.059,-6.379 -1.7,-1.564 -3.558,-2.735 -5.566,-3.507 -2.01,-0.773 -4.156,-1.159 -6.436,-1.159 -2.129,0 -4.226,0.442 -6.292,1.331 -2.069,0.89 -3.952,2.167 -5.655,3.828 -1.699,1.664 -3.082,3.818 -4.143,6.464 -1.065,2.65 -1.596,5.558 -1.596,8.726"
         id="path13"
         inkscape:connector-curvature="0"
         style="fill:#3497d3" /><path
         d="m 373.023,147.812 v -49.75 c 0,-1.777 0.646,-3.314 1.94,-4.61 1.296,-1.294 2.831,-1.943 4.612,-1.943 1.775,0 3.303,0.648 4.578,1.943 1.277,1.296 1.914,2.833 1.914,4.61 v 5.101 c 2.553,-3.479 5.711,-6.327 9.48,-8.552 3.768,-2.222 7.779,-3.333 12.031,-3.333 2.165,0 3.875,0.569 5.131,1.708 1.257,1.141 1.884,2.581 1.884,4.321 0,1.74 -0.636,3.208 -1.912,4.406 -1.274,1.199 -2.86,1.797 -4.755,1.797 h -2.029 c -4.794,0 -8.891,1.199 -12.292,3.595 -3.402,2.397 -5.913,5.702 -7.538,9.914 v 30.791 c 0,1.777 -0.637,3.304 -1.914,4.58 -1.275,1.275 -2.803,1.915 -4.578,1.915 -1.781,0 -3.316,-0.64 -4.612,-1.915 -1.293,-1.274 -1.94,-2.801 -1.94,-4.578"
         id="path15"
         inkscape:connector-curvature="0"
         style="fill:#3497d3" /><path
         d="m 418.732,122.761 c 0,-4.094 0.59,-7.893 1.77,-11.393 1.177,-3.497 2.742,-6.464 4.697,-8.898 1.949,-2.436 4.192,-4.522 6.726,-6.262 2.529,-1.74 5.139,-3.017 7.827,-3.828 2.685,-0.812 5.363,-1.218 8.029,-1.218 4.601,0 8.465,0.83 11.597,2.494 3.131,1.662 5.489,3.712 7.072,6.146 v -2.145 c 0,-1.778 0.647,-3.305 1.942,-4.582 1.295,-1.275 2.832,-1.913 4.609,-1.913 1.779,0 3.306,0.638 4.579,1.913 1.277,1.276 1.915,2.804 1.915,4.582 v 55.953 c 0,2.938 -0.442,5.654 -1.334,8.148 -0.89,2.493 -2.097,4.598 -3.624,6.319 -1.525,1.719 -3.245,3.237 -5.158,4.551 -1.916,1.315 -3.971,2.35 -6.176,3.103 -2.205,0.753 -4.33,1.314 -6.378,1.681 -2.05,0.369 -4.057,0.553 -6.031,0.553 -5.565,0 -10.88,-1.122 -15.943,-3.362 -0.928,-0.429 -1.673,-1.074 -2.233,-1.943 -0.561,-0.872 -0.841,-1.827 -0.841,-2.87 0,-1.469 0.524,-2.735 1.567,-3.798 1.042,-1.064 2.299,-1.597 3.767,-1.597 0.736,0 1.297,0.08 1.685,0.241 3.862,1.386 7.863,2.078 11.999,2.078 4.678,0 8.456,-1.211 11.337,-3.631 2.878,-2.423 4.318,-5.572 4.318,-9.445 v -10.001 c -0.23,2.631 -2.202,5.084 -5.91,7.363 -3.714,2.283 -7.967,3.424 -12.759,3.424 -2.666,0 -5.345,-0.397 -8.029,-1.189 -2.688,-0.792 -5.298,-2.049 -7.827,-3.771 -2.533,-1.718 -4.776,-3.796 -6.726,-6.232 -1.955,-2.436 -3.521,-5.422 -4.697,-8.958 -1.18,-3.539 -1.77,-7.375 -1.77,-11.513 m 13.045,0 c 0,3.209 0.533,6.148 1.597,8.815 1.062,2.667 2.441,4.823 4.145,6.465 1.699,1.644 3.585,2.907 5.653,3.798 2.067,0.889 4.165,1.334 6.29,1.334 2.242,0 4.389,-0.396 6.438,-1.19 2.046,-0.791 3.914,-1.971 5.595,-3.537 1.681,-1.563 3.021,-3.7 4.028,-6.408 1.006,-2.705 1.508,-5.796 1.508,-9.277 0,-3.515 -0.502,-6.618 -1.508,-9.304 -1.007,-2.688 -2.358,-4.813 -4.058,-6.379 -1.701,-1.564 -3.557,-2.735 -5.565,-3.507 -2.012,-0.773 -4.155,-1.159 -6.438,-1.159 -2.125,0 -4.223,0.442 -6.29,1.331 -2.068,0.89 -3.954,2.167 -5.653,3.828 -1.703,1.664 -3.083,3.818 -4.145,6.464 -1.063,2.65 -1.597,5.558 -1.597,8.726"
         id="path17"
         inkscape:connector-curvature="0"
         style="fill:#3497d3" /><path
         d="m 489.585,122.879 c 0,-4.097 0.659,-7.924 1.975,-11.479 1.313,-3.559 3.034,-6.546 5.159,-8.959 2.125,-2.417 4.553,-4.494 7.277,-6.234 2.724,-1.74 5.479,-3.017 8.26,-3.827 2.784,-0.813 5.51,-1.219 8.178,-1.219 2.667,0 5.402,0.406 8.204,1.219 2.803,0.81 5.556,2.086 8.264,3.827 2.703,1.74 5.131,3.817 7.277,6.234 2.146,2.414 3.874,5.401 5.188,8.959 1.313,3.555 1.971,7.382 1.971,11.479 0,4.136 -0.657,7.971 -1.971,11.509 -1.314,3.538 -3.043,6.503 -5.188,8.899 -2.146,2.396 -4.582,4.456 -7.31,6.176 -2.723,1.72 -5.477,2.978 -8.259,3.77 -2.784,0.79 -5.51,1.189 -8.177,1.189 -2.668,0 -5.394,-0.399 -8.178,-1.189 -2.78,-0.792 -5.536,-2.049 -8.26,-3.77 -2.725,-1.72 -5.152,-3.779 -7.277,-6.176 -2.125,-2.396 -3.847,-5.362 -5.159,-8.899 -1.315,-3.538 -1.974,-7.372 -1.974,-11.509 m 13.047,0 c 0,3.266 0.533,6.219 1.596,8.862 1.063,2.644 2.466,4.784 4.201,6.415 1.74,1.633 3.646,2.877 5.714,3.732 2.065,0.857 4.162,1.284 6.291,1.284 2.125,0 4.223,-0.427 6.29,-1.284 2.068,-0.854 3.972,-2.099 5.711,-3.732 1.741,-1.631 3.15,-3.771 4.232,-6.415 1.081,-2.643 1.623,-5.597 1.623,-8.862 0,-3.305 -0.542,-6.298 -1.623,-8.981 -1.082,-2.682 -2.491,-4.829 -4.232,-6.444 -1.739,-1.613 -3.643,-2.856 -5.711,-3.733 -2.067,-0.874 -4.165,-1.311 -6.29,-1.311 -2.129,0 -4.226,0.437 -6.291,1.311 -2.068,0.876 -3.974,2.12 -5.714,3.733 -1.735,1.615 -3.139,3.762 -4.201,6.444 -1.063,2.683 -1.596,5.676 -1.596,8.981"
         id="path19"
         inkscape:connector-curvature="0"
         style="fill:#3497d3" /></g><g
       id="g21"><g
         id="g23"><defs
           id="defs25"><path
             id="SVGID_1_"
             d="m 45.79,41.829 v 45.439 h 68.358 c 17.474,0 31.688,14.214 31.688,31.689 0,17.472 -14.214,31.688 -31.688,31.688 H 91.23 V 114.374 H 45.79 v 81.711 h 68.358 c 42.529,0 77.128,-34.601 77.128,-77.127 0,-42.53 -34.599,-77.128 -77.128,-77.128 H 45.79 z"
             inkscape:connector-curvature="0" /></defs><clipPath
           id="SVGID_2_"><use
             xlink:href="#SVGID_1_"
             overflow="visible"
             id="use29"
             style="overflow:visible"
             x="0"
             y="0"
             width="595.28003"
             height="841.89001" /></clipPath><linearGradient
           id="SVGID_3_"
           gradientUnits="userSpaceOnUse"
           x1="-498.9873"
           y1="1020.6191"
           x2="-497.7915"
           y2="1020.6191"
           gradientTransform="matrix(-75.2428,-97.9021,-97.9021,75.2428,62542.281,-125464.58)"><stop
             offset="0"
             style="stop-color:#3497D3"
             id="stop32" /><stop
             offset="1"
             style="stop-color:#11ADE4"
             id="stop34" /></linearGradient><polygon
           clip-path="url(#SVGID_2_)"
           points="137.252,-28.464 265.806,138.804 99.814,266.379 -28.74,99.11 "
           id="polygon36"
           style="fill:url(#SVGID_3_)" /></g><g
         id="g38"
         style="opacity:0.23999999"><g
           id="g40"><defs
             id="defs42"><rect
               id="SVGID_4_"
               x="45.606998"
               y="41.828999"
               width="71.341003"
               height="45.438999" /></defs><clipPath
             id="SVGID_5_"><use
               xlink:href="#SVGID_4_"
               overflow="visible"
               id="use46"
               style="overflow:visible"
               x="0"
               y="0"
               width="595.28003"
               height="841.89001" /></clipPath><g
             clip-path="url(#SVGID_5_)"
             id="g48"><defs
               id="defs50"><path
                 id="SVGID_6_"
                 d="M 113.965,41.829 H 45.607 l 68.357,45.439 2.984,-45.364 c -0.99,-0.036 -1.982,-0.075 -2.983,-0.075"
                 inkscape:connector-curvature="0" /></defs><clipPath
               id="SVGID_7_"><use
                 xlink:href="#SVGID_6_"
                 overflow="visible"
                 id="use54"
                 style="overflow:visible"
                 x="0"
                 y="0"
                 width="595.28003"
                 height="841.89001" /></clipPath><defs
               id="defs56"><filter
                 id="Adobe_OpacityMaskFilter"
                 filterUnits="userSpaceOnUse"
                 x="24.372"
                 y="8.4899998"
                 width="113.811"
                 height="112.118"
                 color-interpolation-filters="sRGB"><feColorMatrix
                   type="matrix"
                   values="1 0 0 0 0  0 1 0 0 0  0 0 1 0 0  0 0 0 1 0"
                   id="feColorMatrix59" /></filter></defs><mask
               maskUnits="userSpaceOnUse"
               x="24.372"
               y="8.49"
               width="113.811"
               height="112.118"
               id="SVGID_8_"><g
                 id="g62"
                 style="filter:url(#Adobe_OpacityMaskFilter)"><linearGradient
                   id="SVGID_9_"
                   gradientUnits="userSpaceOnUse"
                   x1="-506.7988"
                   y1="1027.9805"
                   x2="-505.603"
                   y2="1027.9805"
                   gradientTransform="matrix(30.0808,20.739,20.739,-30.0808,-5997.1577,41494.668)"><stop
                     offset="0"
                     style="stop-color:#4D4D4D"
                     id="stop65" /><stop
                     offset="1"
                     style="stop-color:#FFFFFF"
                     id="stop67" /></linearGradient><polygon
                   clip-path="url(#SVGID_7_)"
                   points="93.964,120.608 24.372,72.629 68.593,8.49 138.184,56.47 "
                   id="polygon69"
                   style="fill:url(#SVGID_9_)" /></g></mask><linearGradient
               id="SVGID_10_"
               gradientUnits="userSpaceOnUse"
               x1="-506.76709"
               y1="1027.9746"
               x2="-505.5715"
               y2="1027.9746"
               gradientTransform="matrix(30.0808,20.7389,20.7389,-30.0808,-5997.9121,41493.855)"><stop
                 offset="0"
                 style="stop-color:#19181C"
                 id="stop72" /><stop
                 offset="1"
                 style="stop-color:#19181C"
                 id="stop74" /></linearGradient><polygon
               clip-path="url(#SVGID_7_)"
               mask="url(#SVGID_8_)"
               points="93.964,120.608 24.372,72.629 68.592,8.49 138.183,56.47 "
               id="polygon76"
               style="fill:url(#SVGID_10_)" /></g></g></g><g
         id="g78"
         style="opacity:0.23999999"><g
           id="g80"><defs
             id="defs82"><rect
               id="SVGID_11_"
               x="113.965"
               y="67.359001"
               width="60.103001"
               height="65.303001" /></defs><clipPath
             id="SVGID_12_"><use
               xlink:href="#SVGID_11_"
               overflow="visible"
               id="use86"
               style="overflow:visible"
               x="0"
               y="0"
               width="595.28003"
               height="841.89001" /></clipPath><g
             clip-path="url(#SVGID_12_)"
             id="g88"><defs
               id="defs90"><path
                 id="SVGID_13_"
                 d="m 145.652,118.958 c 0,4.907 -1.12,9.556 -3.12,13.705 l 31.536,-61.961 c -0.914,-1.139 -1.854,-2.257 -2.832,-3.342 l -57.271,19.909 c 17.473,0 31.687,14.215 31.687,31.689"
                 inkscape:connector-curvature="0" /></defs><clipPath
               id="SVGID_14_"><use
                 xlink:href="#SVGID_13_"
                 overflow="visible"
                 id="use94"
                 style="overflow:visible"
                 x="0"
                 y="0"
                 width="595.28003"
                 height="841.89001" /></clipPath><defs
               id="defs96"><filter
                 id="Adobe_OpacityMaskFilter_1_"
                 filterUnits="userSpaceOnUse"
                 x="91.157997"
                 y="46.369999"
                 width="105.717"
                 height="107.284"
                 color-interpolation-filters="sRGB"><feColorMatrix
                   type="matrix"
                   values="1 0 0 0 0  0 1 0 0 0  0 0 1 0 0  0 0 0 1 0"
                   id="feColorMatrix99" /></filter></defs><mask
               maskUnits="userSpaceOnUse"
               x="91.158"
               y="46.37"
               width="105.717"
               height="107.284"
               id="SVGID_15_"><g
                 id="g102"
                 style="filter:url(#Adobe_OpacityMaskFilter_1_)"><linearGradient
                   id="SVGID_16_"
                   gradientUnits="userSpaceOnUse"
                   x1="-516.76422"
                   y1="1026.2725"
                   x2="-515.56848"
                   y2="1026.2725"
                   gradientTransform="matrix(7.125,17.5,17.5,-7.125,-14140.465,16439.215)"><stop
                     offset="0"
                     style="stop-color:#4D4D4D"
                     id="stop105" /><stop
                     offset="1"
                     style="stop-color:#FFFFFF"
                     id="stop107" /></linearGradient><polygon
                   clip-path="url(#SVGID_14_)"
                   points="122.511,153.654 91.158,76.647 165.521,46.37 196.875,123.377 "
                   id="polygon109"
                   style="fill:url(#SVGID_16_)" /></g></mask><linearGradient
               id="SVGID_17_"
               gradientUnits="userSpaceOnUse"
               x1="-516.76422"
               y1="1026.2725"
               x2="-515.56848"
               y2="1026.2725"
               gradientTransform="matrix(7.125,17.5,17.5,-7.125,-14140.465,16439.215)"><stop
                 offset="0"
                 style="stop-color:#19181C"
                 id="stop112" /><stop
                 offset="1"
                 style="stop-color:#19181C"
                 id="stop114" /></linearGradient><polygon
               clip-path="url(#SVGID_14_)"
               mask="url(#SVGID_15_)"
               points="122.511,153.654 91.158,76.647 165.521,46.37 196.875,123.377 "
               id="polygon116"
               style="fill:url(#SVGID_17_)" /></g></g></g><g
         id="g118"
         style="opacity:0.23999999"><g
           id="g120"><defs
             id="defs122"><rect
               id="SVGID_18_"
               x="142.017"
               y="133.67599"
               width="47.648998"
               height="55.048" /></defs><clipPath
             id="SVGID_19_"><use
               xlink:href="#SVGID_18_"
               overflow="visible"
               id="use126"
               style="overflow:visible"
               x="0"
               y="0"
               width="595.28003"
               height="841.89001" /></clipPath><g
             clip-path="url(#SVGID_19_)"
             id="g128"><defs
               id="defs130"><path
                 id="SVGID_20_"
                 d="m 146.807,188.724 c 21.871,-10.337 38.126,-30.657 42.859,-55.048 h -47.649 l 4.79,55.048 z"
                 inkscape:connector-curvature="0" /></defs><clipPath
               id="SVGID_21_"><use
                 xlink:href="#SVGID_20_"
                 overflow="visible"
                 id="use134"
                 style="overflow:visible"
                 x="0"
                 y="0"
                 width="595.28003"
                 height="841.89001" /></clipPath><defs
               id="defs136"><filter
                 id="Adobe_OpacityMaskFilter_2_"
                 filterUnits="userSpaceOnUse"
                 x="118.381"
                 y="113.216"
                 width="94.919998"
                 height="95.966003"
                 color-interpolation-filters="sRGB"><feColorMatrix
                   type="matrix"
                   values="1 0 0 0 0  0 1 0 0 0  0 0 1 0 0  0 0 0 1 0"
                   id="feColorMatrix139" /></filter></defs><mask
               maskUnits="userSpaceOnUse"
               x="118.381"
               y="113.216"
               width="94.92"
               height="95.966"
               id="SVGID_22_"><g
                 id="g142"
                 style="filter:url(#Adobe_OpacityMaskFilter_2_)"><linearGradient
                   id="SVGID_23_"
                   gradientUnits="userSpaceOnUse"
                   x1="-509.29929"
                   y1="1016.6367"
                   x2="-508.10379"
                   y2="1016.6367"
                   gradientTransform="matrix(-14.6667,25.8333,25.8333,14.6667,-33561.105,-1602.9803)"><stop
                     offset="0"
                     style="stop-color:#4D4D4D"
                     id="stop145" /><stop
                     offset="1"
                     style="stop-color:#FFFFFF"
                     id="stop147" /></linearGradient><polygon
                   clip-path="url(#SVGID_21_)"
                   points="118.381,175.306 153.631,113.216 213.301,147.096 178.051,209.183 "
                   id="polygon149"
                   style="fill:url(#SVGID_23_)" /></g></mask><linearGradient
               id="SVGID_24_"
               gradientUnits="userSpaceOnUse"
               x1="-509.29929"
               y1="1016.6367"
               x2="-508.10379"
               y2="1016.6367"
               gradientTransform="matrix(-14.6667,25.8333,25.8333,14.6667,-33561.113,-1602.9803)"><stop
                 offset="0"
                 style="stop-color:#19181C"
                 id="stop152" /><stop
                 offset="1"
                 style="stop-color:#19181C"
                 id="stop154" /></linearGradient><polygon
               clip-path="url(#SVGID_21_)"
               mask="url(#SVGID_22_)"
               points="118.381,175.306 153.631,113.216 213.301,147.096 178.051,209.183 "
               id="polygon156"
               style="fill:url(#SVGID_24_)" /></g></g></g><g
         id="g158"
         style="opacity:0.23999999"><g
           id="g160"><defs
             id="defs162"><rect
               id="SVGID_25_"
               x="45.606998"
               y="150.645"
               width="101.191"
               height="45.439999" /></defs><clipPath
             id="SVGID_26_"><use
               xlink:href="#SVGID_25_"
               overflow="visible"
               id="use166"
               style="overflow:visible"
               x="0"
               y="0"
               width="595.28003"
               height="841.89001" /></clipPath><g
             clip-path="url(#SVGID_26_)"
             id="g168"><defs
               id="defs170"><path
                 id="SVGID_27_"
                 d="m 146.798,188.727 -55.752,-38.082 -45.438,45.44 h 68.357 c 11.738,0 22.864,-2.646 32.833,-7.358"
                 inkscape:connector-curvature="0" /></defs><clipPath
               id="SVGID_28_"><use
                 xlink:href="#SVGID_27_"
                 overflow="visible"
                 id="use174"
                 style="overflow:visible"
                 x="0"
                 y="0"
                 width="595.28003"
                 height="841.89001" /></clipPath><defs
               id="defs176"><filter
                 id="Adobe_OpacityMaskFilter_3_"
                 filterUnits="userSpaceOnUse"
                 x="45.606998"
                 y="150.645"
                 width="101.191"
                 height="45.439999"
                 color-interpolation-filters="sRGB"><feColorMatrix
                   type="matrix"
                   values="1 0 0 0 0  0 1 0 0 0  0 0 1 0 0  0 0 0 1 0"
                   id="feColorMatrix179" /></filter></defs><mask
               maskUnits="userSpaceOnUse"
               x="45.607"
               y="150.645"
               width="101.191"
               height="45.44"
               id="SVGID_29_"><g
                 id="g182"
                 style="filter:url(#Adobe_OpacityMaskFilter_3_)"><linearGradient
                   id="SVGID_30_"
                   gradientUnits="userSpaceOnUse"
                   x1="-501.5513"
                   y1="1025.4736"
                   x2="-500.3555"
                   y2="1025.4736"
                   gradientTransform="matrix(84.6246,0,0,-84.6246,42489.184,86953.641)"><stop
                     offset="0"
                     style="stop-color:#4D4D4D"
                     id="stop185" /><stop
                     offset="1"
                     style="stop-color:#FFFFFF"
                     id="stop187" /></linearGradient><rect
                   x="45.606998"
                   y="150.645"
                   clip-path="url(#SVGID_28_)"
                   width="101.191"
                   height="45.439999"
                   id="rect189"
                   style="fill:url(#SVGID_30_)" /></g></mask><linearGradient
               id="SVGID_31_"
               gradientUnits="userSpaceOnUse"
               x1="-501.5513"
               y1="1025.4736"
               x2="-500.3555"
               y2="1025.4736"
               gradientTransform="matrix(84.6246,0,0,-84.6246,42489.184,86953.641)"><stop
                 offset="0"
                 style="stop-color:#19181C"
                 id="stop192" /><stop
                 offset="1"
                 style="stop-color:#19181C"
                 id="stop194" /></linearGradient><rect
               x="45.606998"
               y="150.645"
               clip-path="url(#SVGID_28_)"
               mask="url(#SVGID_29_)"
               width="101.191"
               height="45.439999"
               id="rect196"
               style="fill:url(#SVGID_31_)" /></g></g></g><g
         id="g198"
         style="opacity:0.23999999"><g
           id="g200"><defs
             id="defs202"><rect
               id="SVGID_32_"
               x="45.606998"
               y="114.374"
               width="45.438"
               height="36.271" /></defs><clipPath
             id="SVGID_33_"><use
               xlink:href="#SVGID_32_"
               overflow="visible"
               id="use206"
               style="overflow:visible"
               x="0"
               y="0"
               width="595.28003"
               height="841.89001" /></clipPath><g
             clip-path="url(#SVGID_33_)"
             id="g208"><defs
               id="defs210"><polygon
                 id="SVGID_34_"
                 points="91.046,114.374 45.607,114.374 91.046,150.645 " /></defs><clipPath
               id="SVGID_35_"><use
                 xlink:href="#SVGID_34_"
                 overflow="visible"
                 id="use214"
                 style="overflow:visible"
                 x="0"
                 y="0"
                 width="595.28003"
                 height="841.89001" /></clipPath><defs
               id="defs216"><filter
                 id="Adobe_OpacityMaskFilter_4_"
                 filterUnits="userSpaceOnUse"
                 x="45.606998"
                 y="114.374"
                 width="45.438"
                 height="36.271"
                 color-interpolation-filters="sRGB"><feColorMatrix
                   type="matrix"
                   values="1 0 0 0 0  0 1 0 0 0  0 0 1 0 0  0 0 0 1 0"
                   id="feColorMatrix219" /></filter></defs><mask
               maskUnits="userSpaceOnUse"
               x="45.607"
               y="114.374"
               width="45.438"
               height="36.271"
               id="SVGID_36_"><g
                 id="g222"
                 style="filter:url(#Adobe_OpacityMaskFilter_4_)"><linearGradient
                   id="SVGID_37_"
                   gradientUnits="userSpaceOnUse"
                   x1="-502.22171"
                   y1="1029.917"
                   x2="-501.02591"
                   y2="1029.917"
                   gradientTransform="matrix(38,0,0,-38,19130.031,39269.344)"><stop
                     offset="0"
                     style="stop-color:#4D4D4D"
                     id="stop225" /><stop
                     offset="1"
                     style="stop-color:#FFFFFF"
                     id="stop227" /></linearGradient><rect
                   x="45.606998"
                   y="114.374"
                   clip-path="url(#SVGID_35_)"
                   width="45.438"
                   height="36.271"
                   id="rect229"
                   style="fill:url(#SVGID_37_)" /></g></mask><linearGradient
               id="SVGID_38_"
               gradientUnits="userSpaceOnUse"
               x1="-502.22171"
               y1="1029.917"
               x2="-501.02591"
               y2="1029.917"
               gradientTransform="matrix(38,0,0,-38,19130.031,39269.344)"><stop
                 offset="0"
                 style="stop-color:#19181C"
                 id="stop232" /><stop
                 offset="1"
                 style="stop-color:#19181C"
                 id="stop234" /></linearGradient><rect
               x="45.606998"
               y="114.374"
               clip-path="url(#SVGID_35_)"
               mask="url(#SVGID_36_)"
               width="45.438"
               height="36.271"
               id="rect236"
               style="fill:url(#SVGID_38_)" /></g></g></g><g
         id="g238"
         style="opacity:0.06000001"><g
           id="g240"><defs
             id="defs242"><rect
               id="SVGID_39_"
               x="45.606998"
               y="114.374"
               width="45.438"
               height="36.271" /></defs><clipPath
             id="SVGID_40_"><use
               xlink:href="#SVGID_39_"
               overflow="visible"
               id="use246"
               style="overflow:visible"
               x="0"
               y="0"
               width="595.28003"
               height="841.89001" /></clipPath><polygon
             clip-path="url(#SVGID_40_)"
             points="91.046,150.645 45.791,150.645 45.607,114.374 "
             id="polygon248"
             style="fill:#ffffff" /></g></g></g></g></svg>