<?xml version="1.0" encoding="UTF-8" standalone="no"?>
<!-- Created with Inkscape (http://www.inkscape.org/) -->

<svg
   xmlns:dc="http://purl.org/dc/elements/1.1/"
   xmlns:cc="http://creativecommons.org/ns#"
   xmlns:rdf="http://www.w3.org/1999/02/22-rdf-syntax-ns#"
   xmlns:svg="http://www.w3.org/2000/svg"
   xmlns="http://www.w3.org/2000/svg"
   xmlns:sodipodi="http://sodipodi.sourceforge.net/DTD/sodipodi-0.dtd"
   xmlns:inkscape="http://www.inkscape.org/namespaces/inkscape"
   width="544"
   height="316"
   viewBox="0 0 544.00001 316.00001"
   id="svg4501"
   version="1.1"
   inkscape:version="0.91 r13725"
   sodipodi:docname="open-canarias.svg">
  <defs
     id="defs4503" />
  <sodipodi:namedview
     id="base"
     pagecolor="#ffffff"
     bordercolor="#666666"
     borderopacity="1.0"
     inkscape:pageopacity="0.0"
     inkscape:pageshadow="2"
     inkscape:zoom="0.49497475"
     inkscape:cx="388.23143"
     inkscape:cy="320.08112"
     inkscape:document-units="px"
     inkscape:current-layer="layer1"
     showgrid="false"
     units="px"
     inkscape:window-width="1280"
     inkscape:window-height="971"
     inkscape:window-x="0"
     inkscape:window-y="0"
     inkscape:window-maximized="1" />
  <metadata
     id="metadata4506">
    <rdf:RDF>
      <cc:Work
         rdf:about="">
        <dc:format>image/svg+xml</dc:format>
        <dc:type
           rdf:resource="http://purl.org/dc/dcmitype/StillImage" />
        <dc:title></dc:title>
      </cc:Work>
    </rdf:RDF>
  </metadata>
  <g
     inkscape:label="Capa 1"
     inkscape:groupmode="layer"
     id="layer1"
     transform="translate(0,-736.3621)">
    <g
       id="g5125"
       transform="matrix(0.99965159,0,0,0.99965159,37.796329,576.42853)">
      <g
         id="g4421"
         transform="matrix(1.25,0,0,-1.25,-137.76397,660.97136)">
        <g
           id="g20"
           transform="translate(290.0723,346.1533)">
          <path
             d="m 0,0 c -0.4,0 -0.809,0.104 -1.18,0.318 l -38.496,22.244 c -1.131,0.653 -1.517,2.1 -0.865,3.231 0.654,1.131 2.102,1.517 3.232,0.864 L 1.186,4.414 C 2.316,3.761 2.703,2.314 2.051,1.184 1.611,0.425 0.818,0 0,0"
             style="fill:#f68712;fill-opacity:1;fill-rule:nonzero;stroke:none"
             id="path22"
             inkscape:connector-curvature="0" />
        </g>
        <g
           id="g24"
           transform="translate(251.5781,368.3975)">
          <path
             d="m 0,0 c -1.033,0 -1.98,0.682 -2.275,1.725 -0.354,1.257 0.379,2.564 1.636,2.918 L 50.09,18.914 c 1.258,0.353 2.564,-0.379 2.918,-1.637 0.353,-1.257 -0.379,-2.563 -1.637,-2.917 L 0.643,0.088 C 0.428,0.028 0.213,0 0,0"
             style="fill:#f68712;fill-opacity:1;fill-rule:nonzero;stroke:none"
             id="path26"
             inkscape:connector-curvature="0" />
        </g>
        <g
           id="g28"
           transform="translate(355.582,357.7783)">
          <path
             d="m 0,0 c -0.4,0 -0.805,0.102 -1.176,0.314 l -45.947,26.4 c -1.133,0.65 -1.522,2.097 -0.871,3.229 0.65,1.132 2.096,1.523 3.228,0.871 L 1.182,4.416 C 2.313,3.766 2.703,2.319 2.053,1.187 1.615,0.426 0.82,0 0,0"
             style="fill:#f68712;fill-opacity:1;fill-rule:nonzero;stroke:none"
             id="path30"
             inkscape:connector-curvature="0" />
        </g>
        <g
           id="g32"
           transform="translate(297.5352,341.8418)">
          <path
             d="m 0,0 c -1.037,0 -1.99,0.688 -2.279,1.739 -0.346,1.26 0.396,2.561 1.654,2.907 l 58.049,15.937 c 1.258,0.346 2.558,-0.396 2.906,-1.656 0.346,-1.259 -0.394,-2.561 -1.654,-2.906 L 0.629,0.085 C 0.418,0.027 0.207,0 0,0"
             style="fill:#f68712;fill-opacity:1;fill-rule:nonzero;stroke:none"
             id="path34"
             inkscape:connector-curvature="0" />
        </g>
        <g
           id="g36"
           transform="translate(292.4023,279.624)">
          <path
             d="m 0,0 c -0.402,0 -0.809,0.102 -1.182,0.316 l -40.824,23.59 c -1.131,0.653 -1.517,2.1 -0.865,3.231 0.654,1.132 2.101,1.517 3.232,0.865 L 1.186,4.412 C 2.316,3.76 2.703,2.313 2.049,1.182 1.611,0.424 0.816,0 0,0"
             style="fill:#f68712;fill-opacity:1;fill-rule:nonzero;stroke:none"
             id="path38"
             inkscape:connector-curvature="0" />
        </g>
        <g
           id="g40"
           transform="translate(301.5371,277.7969)">
          <path
             d="m 0,0 c -1.039,0 -1.992,0.69 -2.279,1.741 -0.346,1.26 0.396,2.561 1.656,2.906 l 54.045,14.795 c 1.26,0.346 2.562,-0.396 2.906,-1.656 0.346,-1.26 -0.396,-2.56 -1.656,-2.905 L 0.627,0.085 C 0.418,0.028 0.207,0 0,0"
             style="fill:#f68712;fill-opacity:1;fill-rule:nonzero;stroke:none"
             id="path42"
             inkscape:connector-curvature="0" />
        </g>
        <g
           id="g44"
           transform="translate(297.5371,341.8418)">
          <path
             d="m 0,0 c -0.273,0 -0.553,0.048 -0.824,0.148 -1.223,0.455 -1.848,1.816 -1.393,3.04 l 12.1,32.598 c 0.455,1.224 1.814,1.848 3.041,1.395 1.224,-0.455 1.847,-1.817 1.394,-3.041 L 2.217,1.542 C 1.863,0.589 0.961,0 0,0"
             style="fill:#f68712;fill-opacity:1;fill-rule:nonzero;stroke:none"
             id="path46"
             inkscape:connector-curvature="0" />
        </g>
        <g
           id="g48"
           transform="translate(251.5801,303.2129)">
          <path
             d="m 0,0 c -0.674,0 -1.344,0.286 -1.811,0.843 -0.839,1 -0.71,2.492 0.29,3.332 l 39.656,33.334 c 0.998,0.84 2.49,0.711 3.332,-0.289 0.84,-1 0.711,-2.492 -0.289,-3.332 L 1.521,0.555 C 1.078,0.183 0.539,0 0,0"
             style="fill:#f68712;fill-opacity:1;fill-rule:nonzero;stroke:none"
             id="path50"
             inkscape:connector-curvature="0" />
        </g>
        <g
           id="g52"
           transform="translate(297.5371,286.3857)">
          <path
             d="m 0,0 -0.008,0 c -1.306,0.004 -2.361,1.066 -2.357,2.373 l 0.148,44.801 c 0.004,1.303 1.063,2.357 2.363,2.357 l 0.008,0 C 1.461,49.526 2.516,48.465 2.512,47.158 L 2.365,2.357 C 2.361,1.055 1.303,0 0,0"
             style="fill:#f68712;fill-opacity:1;fill-rule:nonzero;stroke:none"
             id="path54"
             inkscape:connector-curvature="0" />
        </g>
        <g
           id="g56"
           transform="translate(355.584,293.252)">
          <path
             d="m 0,0 c -1.307,0 -2.365,1.059 -2.365,2.364 l 0,56.032 c 0,1.306 1.058,2.365 2.365,2.365 1.307,0 2.365,-1.059 2.365,-2.365 l 0,-56.032 C 2.365,1.059 1.307,0 0,0"
             style="fill:#f68712;fill-opacity:1;fill-rule:nonzero;stroke:none"
             id="path58"
             inkscape:connector-curvature="0" />
        </g>
        <g
           id="g60"
           transform="translate(251.5801,303.2129)">
          <path
             d="m 0,0 c -1.307,0 -2.365,1.059 -2.365,2.364 l 0,54.93 c 0,1.306 1.058,2.364 2.365,2.364 1.307,0 2.365,-1.058 2.365,-2.364 l 0,-54.93 C 2.365,1.059 1.307,0 0,0"
             style="fill:#f68712;fill-opacity:1;fill-rule:nonzero;stroke:none"
             id="path62"
             inkscape:connector-curvature="0" />
        </g>
        <g
           id="g64"
           transform="translate(355.582,293.252)">
          <path
             d="m 0,0 c -0.527,0 -1.059,0.176 -1.5,0.538 l -51.996,42.725 c -1.01,0.83 -1.154,2.32 -0.326,3.329 0.83,1.009 2.32,1.155 3.33,0.325 L 1.504,4.192 C 2.514,3.363 2.658,1.872 1.83,0.864 1.361,0.294 0.684,0 0,0"
             style="fill:#f68712;fill-opacity:1;fill-rule:nonzero;stroke:none"
             id="path66"
             inkscape:connector-curvature="0" />
        </g>
        <g
           id="g68"
           transform="translate(311.8379,168.5869)">
          <path
             d="M 0,0 C -1.277,-0.059 -2.322,-0.496 -3.139,-1.311 -3.99,-2.162 -4.42,-3.189 -4.434,-4.396 l 0,-3.42 c 0,-0.344 0.09,-0.604 0.268,-0.782 0.176,-0.177 0.391,-0.265 0.639,-0.265 0.246,0 0.459,0.088 0.636,0.265 0.178,0.178 0.266,0.432 0.266,0.762 l 0,3.422 c 0,0.055 -0.002,0.107 -0.008,0.16 0.035,0.65 0.289,1.209 0.762,1.676 0.514,0.514 1.135,0.771 1.863,0.771 l 0.008,0 c 0.248,0 0.461,0.088 0.639,0.266 0.175,0.178 0.265,0.389 0.265,0.637 0,0.248 -0.09,0.461 -0.265,0.638 C 0.461,-0.088 0.248,0 0,0 M 9.617,0.037 C 9.367,0.037 9.156,-0.053 8.979,-0.23 8.801,-0.408 8.713,-0.619 8.713,-0.867 l 0,-7.092 c 0,-0.248 0.088,-0.461 0.266,-0.639 0.177,-0.177 0.388,-0.265 0.638,-0.265 0.248,0 0.461,0.088 0.637,0.265 0.178,0.178 0.267,0.391 0.267,0.639 l 0,7.092 c 0,0.248 -0.089,0.459 -0.267,0.637 -0.176,0.177 -0.389,0.267 -0.637,0.267 m 15.733,-4.451 0,-0.336 c -0.065,-0.592 -0.317,-1.105 -0.754,-1.543 -0.514,-0.514 -1.133,-0.771 -1.86,-0.771 -0.728,0 -1.345,0.257 -1.859,0.771 -0.51,0.514 -0.766,1.135 -0.766,1.861 0,0.727 0.256,1.346 0.766,1.858 0.514,0.511 1.131,0.767 1.859,0.767 0.727,0 1.346,-0.257 1.86,-0.771 0.472,-0.467 0.728,-1.026 0.763,-1.676 -0.005,-0.053 -0.009,-0.105 -0.009,-0.16 m -2.614,4.396 c -1.224,0 -2.267,-0.431 -3.131,-1.293 -0.861,-0.863 -1.293,-1.906 -1.293,-3.128 0,-1.225 0.432,-2.268 1.293,-3.129 0.864,-0.864 1.907,-1.295 3.131,-1.295 0.987,0 1.858,0.283 2.614,0.851 0,-0.332 0.089,-0.554 0.265,-0.674 0.178,-0.119 0.391,-0.177 0.639,-0.177 0.248,0 0.461,0.058 0.639,0.177 0.177,0.12 0.265,0.35 0.265,0.692 l 0,3.598 c -0.012,1.207 -0.443,2.234 -1.293,3.085 -0.863,0.862 -1.906,1.293 -3.129,1.293 m 17.573,-3.548 c -0.608,0.605 -1.338,0.908 -2.194,0.908 -0.125,0 -0.23,0.043 -0.316,0.129 -0.084,0.086 -0.127,0.189 -0.127,0.314 0,0.125 0.043,0.229 0.127,0.315 0.086,0.086 0.191,0.129 0.316,0.129 0.094,0 0.182,0.017 0.266,0.042 0.133,0.024 0.256,0.079 0.367,0.165 l 0.885,0.849 c 0.197,0.151 0.314,0.35 0.347,0.598 0.034,0.25 -0.025,0.472 -0.173,0.67 -0.153,0.197 -0.35,0.312 -0.6,0.347 -0.248,0.034 -0.471,-0.025 -0.668,-0.173 l -0.787,-0.758 c -0.459,-0.071 -0.863,-0.272 -1.205,-0.614 -0.434,-0.433 -0.649,-0.955 -0.649,-1.57 0,-0.609 0.215,-1.131 0.649,-1.564 0.43,-0.436 0.953,-0.653 1.568,-0.653 0.365,0 0.68,-0.129 0.938,-0.39 0.261,-0.258 0.39,-0.573 0.39,-0.938 0,-0.367 -0.129,-0.679 -0.39,-0.939 -0.258,-0.26 -0.573,-0.391 -0.938,-0.391 -0.367,0 -0.679,0.131 -0.941,0.391 -0.26,0.26 -0.391,0.572 -0.391,0.939 0,0.248 -0.084,0.457 -0.254,0.629 -0.174,0.172 -0.381,0.256 -0.631,0.256 -0.242,0 -0.451,-0.084 -0.625,-0.256 -0.173,-0.172 -0.261,-0.381 -0.261,-0.629 0,-0.857 0.302,-1.59 0.908,-2.195 0.605,-0.604 1.338,-0.908 2.195,-0.908 0.856,0 1.586,0.304 2.194,0.908 0.605,0.605 0.908,1.338 0.908,2.195 0,0.856 -0.303,1.588 -0.908,2.194 m -54.403,-0.848 0,-0.336 c -0.064,-0.592 -0.316,-1.105 -0.754,-1.543 -0.513,-0.514 -1.132,-0.771 -1.861,-0.771 -0.727,0 -1.346,0.257 -1.855,0.771 -0.512,0.514 -0.768,1.135 -0.768,1.861 0,0.727 0.256,1.346 0.768,1.858 0.509,0.511 1.128,0.767 1.855,0.767 0.729,0 1.348,-0.257 1.861,-0.771 0.473,-0.467 0.727,-1.026 0.762,-1.676 -0.006,-0.053 -0.008,-0.105 -0.008,-0.16 m -2.615,4.396 c -1.223,0 -2.266,-0.431 -3.129,-1.293 -0.863,-0.863 -1.293,-1.906 -1.293,-3.128 0,-1.225 0.43,-2.268 1.293,-3.129 0.863,-0.864 1.906,-1.295 3.129,-1.295 0.986,0 1.857,0.283 2.615,0.851 0,-0.332 0.088,-0.554 0.266,-0.674 0.176,-0.119 0.39,-0.177 0.639,-0.177 0.246,0 0.46,0.058 0.638,0.177 0.178,0.12 0.266,0.35 0.266,0.692 l 0,3.598 c -0.014,1.207 -0.444,2.234 -1.295,3.085 -0.861,0.862 -1.906,1.293 -3.129,1.293 M 9.617,2.678 C 9.367,2.678 9.156,2.59 8.979,2.412 8.801,2.234 8.713,2.021 8.713,1.773 8.713,1.525 8.801,1.312 8.979,1.135 9.156,0.959 9.367,0.869 9.617,0.869 c 0.248,0 0.461,0.09 0.637,0.266 0.178,0.177 0.267,0.39 0.267,0.638 0,0.248 -0.089,0.461 -0.267,0.639 C 10.078,2.59 9.865,2.678 9.617,2.678 m -57.109,-7.092 0,-0.336 c -0.067,-0.592 -0.317,-1.105 -0.754,-1.543 -0.514,-0.514 -1.135,-0.771 -1.861,-0.771 -0.727,0 -1.346,0.257 -1.858,0.771 -0.512,0.514 -0.767,1.135 -0.767,1.861 0,0.727 0.255,1.346 0.767,1.858 0.512,0.511 1.131,0.767 1.858,0.767 0.726,0 1.347,-0.257 1.861,-0.771 0.473,-0.467 0.726,-1.026 0.762,-1.676 -0.006,-0.053 -0.008,-0.105 -0.008,-0.16 m -2.615,4.396 c -1.225,0 -2.268,-0.431 -3.129,-1.293 -0.864,-0.863 -1.295,-1.906 -1.295,-3.128 0,-1.225 0.431,-2.268 1.295,-3.129 0.861,-0.864 1.904,-1.295 3.129,-1.295 0.986,0 1.857,0.283 2.615,0.851 0,-0.332 0.088,-0.554 0.263,-0.674 0.178,-0.119 0.391,-0.177 0.639,-0.177 0.248,0 0.461,0.058 0.639,0.177 0.178,0.12 0.265,0.35 0.265,0.692 l 0,3.598 c -0.011,1.207 -0.443,2.234 -1.293,3.085 -0.863,0.862 -1.906,1.293 -3.128,1.293 m -12.579,-6.007 c -0.248,0 -0.459,-0.088 -0.628,-0.258 -0.006,-0.006 -0.012,-0.012 -0.02,-0.018 -0.514,-0.51 -1.131,-0.763 -1.852,-0.763 -0.726,0 -1.347,0.257 -1.861,0.771 -0.514,0.514 -0.771,1.135 -0.771,1.861 0,0.727 0.257,1.346 0.771,1.858 0.514,0.511 1.135,0.767 1.861,0.767 0.727,0 1.344,-0.254 1.852,-0.763 l 0.01,0 c 0.172,-0.178 0.381,-0.266 0.629,-0.266 0.242,0 0.451,0.088 0.625,0.262 0.174,0.174 0.261,0.383 0.261,0.625 0,0.248 -0.086,0.459 -0.255,0.629 -0.006,0 -0.01,0.004 -0.01,0.009 l 0.01,0.008 c -0.858,0.858 -1.899,1.285 -3.122,1.285 -1.224,0 -2.265,-0.431 -3.128,-1.293 -0.864,-0.863 -1.295,-1.906 -1.295,-3.128 0,-1.225 0.431,-2.268 1.295,-3.129 0.863,-0.864 1.904,-1.295 3.128,-1.295 1.223,0 2.264,0.427 3.122,1.285 l 0.017,0.017 c 0.176,0.178 0.266,0.391 0.266,0.639 0,0.248 -0.09,0.459 -0.266,0.635 -0.178,0.174 -0.391,0.262 -0.639,0.262 M -33.318,0 -33.461,0 c -1.248,-0.07 -2.271,-0.506 -3.076,-1.311 -0.85,-0.851 -1.281,-1.878 -1.295,-3.085 l 0,-3.42 c 0,-0.344 0.09,-0.604 0.268,-0.782 0.177,-0.177 0.388,-0.265 0.638,-0.265 0.246,0 0.461,0.088 0.637,0.265 0.178,0.178 0.266,0.432 0.266,0.762 l 0,3.422 c 0,0.055 -0.002,0.107 -0.008,0.16 0.035,0.65 0.289,1.209 0.761,1.676 0.514,0.514 1.135,0.771 1.862,0.771 l 0.035,0 c 0.727,0 1.348,-0.257 1.861,-0.771 0.475,-0.467 0.727,-1.026 0.764,-1.676 -0.008,-0.053 -0.01,-0.105 -0.01,-0.16 l 0,-3.422 c 0,-0.33 0.09,-0.584 0.266,-0.762 0.178,-0.177 0.39,-0.265 0.638,-0.265 0.249,0 0.461,0.088 0.639,0.265 0.176,0.178 0.266,0.438 0.266,0.782 l 0,3.42 c -0.012,1.207 -0.444,2.234 -1.295,3.085 -0.805,0.805 -1.828,1.241 -3.074,1.311"
             style="fill:#231f20;fill-opacity:1;fill-rule:nonzero;stroke:none"
             id="path70"
             inkscape:connector-curvature="0" />
        </g>
        <g
           id="g72"
           transform="translate(269.9766,223.46)">
          <path
             d="m 0,0 c -3.58,-3.604 -7.918,-5.402 -13.014,-5.402 -5.088,0 -9.435,1.798 -13.037,5.402 -3.064,3.061 -4.824,6.664 -5.279,10.803 l 0,2.363 c 0,0.373 -0.022,0.744 -0.063,1.115 0.248,4.555 2.028,8.489 5.342,11.801 3.602,3.561 7.949,5.338 13.037,5.338 C -7.918,31.42 -3.58,29.631 0,26.051 3.582,22.471 5.371,18.133 5.371,13.039 5.371,7.947 3.582,3.602 0,0 m -13.014,43.965 c -8.568,0 -15.875,-3.022 -21.92,-9.065 C -40.895,28.937 -43.916,21.736 -44,13.289 l 0,-49.805 c 0,-1.74 0.625,-3.228 1.865,-4.47 1.24,-1.244 2.733,-1.864 4.473,-1.864 1.736,0 3.228,0.62 4.471,1.864 1.238,1.242 1.861,2.73 1.861,4.47 l 0,24.467 c 5.297,-3.974 11.406,-5.961 18.316,-5.961 8.571,0 15.879,3.02 21.926,9.065 6.043,6.045 9.065,13.355 9.065,21.924 0,8.57 -3.022,15.875 -9.065,21.921 -6.047,6.043 -13.355,9.065 -21.926,9.065"
             style="fill:#231f20;fill-opacity:1;fill-rule:nonzero;stroke:none"
             id="path74"
             inkscape:connector-curvature="0" />
        </g>
        <g
           id="g76"
           transform="translate(488.666,258.3604)">
          <path
             d="m 0,0 c -5.633,5.629 -12.813,8.691 -21.549,9.191 l -0.996,0 C -31.279,8.691 -38.461,5.629 -44.094,0 c -5.961,-5.963 -8.982,-13.164 -9.064,-21.611 l 0,-23.971 c 0,-2.404 0.621,-4.223 1.863,-5.465 1.24,-1.244 2.732,-1.863 4.471,-1.863 1.74,0 3.23,0.619 4.47,1.863 1.245,1.242 1.864,3.02 1.864,5.342 l 0,23.971 c 0,0.373 -0.022,0.744 -0.063,1.115 0.25,4.555 2.028,8.469 5.342,11.736 3.6,3.602 7.947,5.403 13.041,5.403 l 0.248,0 c 5.096,0 9.438,-1.801 13.041,-5.403 3.313,-3.267 5.092,-7.181 5.342,-11.736 -0.041,-0.371 -0.065,-0.742 -0.065,-1.115 l 0,-23.971 c 0,-2.322 0.62,-4.1 1.864,-5.342 1.242,-1.244 2.732,-1.863 4.47,-1.863 1.739,0 3.231,0.619 4.475,1.863 1.238,1.242 1.861,3.061 1.861,5.465 l 0,23.971 C 8.98,-13.164 5.961,-5.963 0,0"
             style="fill:#231f20;fill-opacity:1;fill-rule:nonzero;stroke:none"
             id="path78"
             inkscape:connector-curvature="0" />
        </g>
        <g
           id="g80"
           transform="translate(152.4473,293.6377)">
          <path
             d="m 0,0 c -3.623,0.875 -7.273,-1.387 -8.133,-5.018 -0.861,-3.63 1.387,-7.274 5.02,-8.132 8.078,-1.916 14.927,-6.862 19.287,-13.926 4.361,-7.067 5.707,-15.408 3.791,-23.49 -1.912,-8.08 -6.858,-14.93 -13.922,-19.288 -7.068,-4.361 -15.406,-5.709 -23.49,-3.794 -8.078,1.914 -14.928,6.857 -19.288,13.925 -4.36,7.069 -5.707,15.41 -3.794,23.489 2.55,10.763 10.728,19.431 21.343,22.622 3.575,1.075 5.6,4.842 4.528,8.419 -1.074,3.572 -4.836,5.593 -8.42,4.527 -15.217,-4.575 -26.945,-17.01 -30.604,-32.455 -2.746,-11.592 -0.813,-23.559 5.444,-33.699 6.255,-10.139 16.086,-17.237 27.676,-19.979 3.443,-0.816 6.917,-1.221 10.367,-1.221 8.172,0 16.205,2.264 23.332,6.661 10.14,6.255 17.236,16.086 19.98,27.675 2.748,11.596 0.817,23.565 -5.439,33.704 C 21.424,-9.842 11.594,-2.745 0,0"
             style="fill:#231f20;fill-opacity:1;fill-rule:nonzero;stroke:none"
             id="path82"
             inkscape:connector-curvature="0" />
        </g>
        <g
           id="g84"
           transform="translate(376.6914,263.7354)">
          <path
             d="m 0,0 c -15.271,8.721 -34.797,3.396 -43.523,-11.879 -8.723,-15.277 -3.393,-34.799 11.878,-43.519 4.956,-2.831 10.43,-4.209 15.864,-4.209 7.558,0 15.033,2.671 20.904,7.839 l 3.199,2.649 c 2.574,2.129 2.934,5.941 0.805,8.514 -2.129,2.572 -5.941,2.931 -8.514,0.804 l -3.34,-2.767 c -6.355,-5.59 -15.568,-6.528 -22.918,-2.328 -9.484,5.414 -12.791,17.537 -7.376,27.019 5.416,9.482 17.542,12.793 27.023,7.373 4.348,-2.482 7.537,-6.508 9.033,-11.16 l -26.834,-0.398 c -3.34,-0.061 -6,-2.815 -5.937,-6.155 0.058,-3.301 2.754,-5.939 6.043,-5.939 0.037,0 0.074,0 0.111,0.002 l 33.723,0.523 c 3.308,0.057 5.955,2.766 5.939,6.074 C 16.023,-16.193 9.863,-5.633 0,0"
             style="fill:#231f20;fill-opacity:1;fill-rule:nonzero;stroke:none"
             id="path86"
             inkscape:connector-curvature="0" />
        </g>
      </g>
      <rect
         y="160.05344"
         x="-37.809502"
         height="316.04611"
         width="544.19043"
         id="rect4419"
         style="color:#000000;clip-rule:nonzero;display:inline;overflow:visible;visibility:visible;opacity:1;isolation:auto;mix-blend-mode:normal;color-interpolation:sRGB;color-interpolation-filters:linearRGB;solid-color:#000000;solid-opacity:1;fill:none;fill-opacity:1;fill-rule:evenodd;stroke:none;stroke-width:4.64766741;stroke-linecap:round;stroke-linejoin:round;stroke-miterlimit:4;stroke-dasharray:none;stroke-dashoffset:0;stroke-opacity:1;color-rendering:auto;image-rendering:auto;shape-rendering:auto;text-rendering:auto;enable-background:accumulate" />
    </g>
  </g>
</svg>
