<?xml version="1.0" encoding="UTF-8" standalone="no"?>
<!-- Created with Inkscape (http://www.inkscape.org/) -->

<svg
   xmlns:dc="http://purl.org/dc/elements/1.1/"
   xmlns:cc="http://creativecommons.org/ns#"
   xmlns:rdf="http://www.w3.org/1999/02/22-rdf-syntax-ns#"
   xmlns:svg="http://www.w3.org/2000/svg"
   xmlns="http://www.w3.org/2000/svg"
   xmlns:sodipodi="http://sodipodi.sourceforge.net/DTD/sodipodi-0.dtd"
   xmlns:inkscape="http://www.inkscape.org/namespaces/inkscape"
   width="216.60851"
   height="109.88393"
   id="svg19978"
   sodipodi:version="0.32"
   inkscape:version="0.48.5 r10040"
   version="1.0"
   sodipodi:docname="osl.svg"
   inkscape:output_extension="org.inkscape.output.svg.inkscape"
   inkscape:export-filename="/home/quique/Desktop/OSL64-horizontal.png"
   inkscape:export-xdpi="144.41905"
   inkscape:export-ydpi="144.41905">
  <defs
     id="defs19980">
    <inkscape:perspective
       sodipodi:type="inkscape:persp3d"
       inkscape:vp_x="0 : 19.941967 : 1"
       inkscape:vp_y="0 : 1000 : 0"
       inkscape:vp_z="216.60851 : 19.941967 : 1"
       inkscape:persp3d-origin="108.30425 : 13.294645 : 1"
       id="perspective17" />
  </defs>
  <sodipodi:namedview
     id="base"
     pagecolor="#ffffff"
     bordercolor="#666666"
     borderopacity="1.0"
     gridtolerance="10000"
     guidetolerance="10"
     objecttolerance="10"
     inkscape:pageopacity="0.0"
     inkscape:pageshadow="2"
     inkscape:zoom="1.979899"
     inkscape:cx="17.980224"
     inkscape:cy="50.770955"
     inkscape:document-units="px"
     inkscape:current-layer="layer1"
     inkscape:window-width="1362"
     inkscape:window-height="728"
     inkscape:window-x="0"
     inkscape:window-y="18"
     height="41.339321px"
     width="62.19px"
     showgrid="false"
     inkscape:window-maximized="0"
     fit-margin-top="35"
     fit-margin-left="0"
     fit-margin-right="0"
     fit-margin-bottom="35" />
  <metadata
     id="metadata19983">
    <rdf:RDF>
      <cc:Work
         rdf:about="">
        <dc:format>image/svg+xml</dc:format>
        <dc:type
           rdf:resource="http://purl.org/dc/dcmitype/StillImage" />
      </cc:Work>
    </rdf:RDF>
  </metadata>
  <g
     inkscape:label="Layer 1"
     inkscape:groupmode="layer"
     id="layer1"
     transform="translate(-366.38036,-287.85577)">
    <g
       id="g2966">
      <g
         transform="matrix(0.9647941,0,0,0.9647941,19.214792,13.867005)"
         id="g2190">
        <rect
           style="fill:#9f257b;fill-opacity:1;fill-rule:nonzero;stroke:#9f257b;stroke-width:8.4010973;stroke-linejoin:round;stroke-miterlimit:4;stroke-opacity:1;stroke-dasharray:none"
           id="rect2253"
           width="26.978987"
           height="16.598904"
           x="364.03439"
           y="332.63416" />
        <circle
           d="m 126.9086,113.661 c 0,14.98675 -12.14916,27.1359 -27.135903,27.1359 -14.986744,0 -27.1359,-12.14915 -27.1359,-27.1359 0,-14.986741 12.149156,-27.135897 27.1359,-27.135897 14.986743,0 27.135903,12.149156 27.135903,27.135897 z"
           style="fill:#ffffff;fill-rule:evenodd;stroke:#9f257b;stroke-width:2.82220006"
           sodipodi:ry="27.1359"
           sodipodi:rx="27.1359"
           sodipodi:cy="113.661"
           sodipodi:cx="99.772697"
           id="circle1529"
           r="27.1359"
           cy="113.661"
           cx="99.772697"
           class="fil1 str0"
           transform="matrix(0.7240572,0,0,0.7240572,329.11248,258.63654)" />
        <g
           id="_20827880"
           style="font-size:22.33600616px;font-style:italic;font-weight:bold;fill:#44515b;fill-opacity:1;fill-rule:evenodd;font-family:Humnst777 BT">
          <path
             id="path2912"
             style="font-size:22.33600616px;font-style:italic;font-weight:bold;fill:#44515b;fill-opacity:1;fill-rule:evenodd;font-family:Humnst777 BT"
             d="m 401.6699,333.29377 -0.67619,3.44637 c -0.82162,-0.40715 -1.63231,-0.70889 -2.43209,-0.90522 -0.79981,-0.20357 -1.58142,-0.30536 -2.34485,-0.30537 -1.04701,1e-5 -1.86497,0.16361 -2.4539,0.49078 -0.58168,0.3272 -0.87251,0.78163 -0.8725,1.36328 -1e-5,0.37083 0.12723,0.66166 0.38171,0.8725 0.26175,0.2036 0.79615,0.40354 1.60322,0.59985 l 1.72319,0.42534 c 1.43962,0.36355 2.49389,0.89069 3.16281,1.58141 0.67618,0.68346 1.01427,1.5705 1.01429,2.66112 -2e-5,1.76682 -0.67257,3.18463 -2.01766,4.25344 -1.33784,1.06881 -3.13737,1.60322 -5.3986,1.60322 -1.05427,0 -2.10491,-0.0982 -3.1519,-0.29447 -1.03973,-0.19631 -2.05765,-0.48714 -3.05375,-0.8725 l 0.66528,-3.54453 c 0.96702,0.55986 1.90495,0.97793 2.81381,1.25422 0.91612,0.27629 1.8177,0.41444 2.70475,0.41444 0.95974,0 1.73772,-0.19631 2.33394,-0.58894 0.60347,-0.39262 0.90521,-0.89431 0.90522,-1.50506 -1e-5,-0.3999 -0.13452,-0.70891 -0.40353,-0.92704 -0.26903,-0.22539 -0.85797,-0.45442 -1.76682,-0.68709 l -1.71228,-0.42534 c -1.26513,-0.31264 -2.2067,-0.80706 -2.82472,-1.48325 -0.61802,-0.67618 -0.92703,-1.55232 -0.92703,-2.62841 0,-1.69409 0.6471,-3.0501 1.94131,-4.06803 1.30148,-1.02518 3.05011,-1.53777 5.24591,-1.53779 0.87976,2e-5 1.78135,0.0691 2.70475,0.20722 0.93066,0.13089 1.87586,0.33084 2.83563,0.59985"
             inkscape:connector-curvature="0" />
          <path
             id="path2914"
             style="font-size:22.33600616px;font-style:italic;font-weight:bold;fill:#44515b;fill-opacity:1;fill-rule:evenodd;font-family:Humnst777 BT"
             d="m 406.5559,332.78117 4.19891,0 -2.55207,13.10932 7.35082,0 -0.59984,3.17372 -11.57154,0 3.17372,-16.28304"
             inkscape:connector-curvature="0" />
        </g>
        <g
           id="text10977"
           style="font-size:22.33600616px;font-style:italic;font-weight:bold;fill:#ffffff;fill-opacity:1;fill-rule:evenodd;font-family:Humnst777 BT">
          <path
             id="path2917"
             style="font-style:normal;fill:#ffffff"
             d="m 371.21281,335.4849 c -1.27968,2e-5 -2.27215,0.47262 -2.97741,1.41781 -0.70528,0.94522 -1.05791,2.27579 -1.05791,3.99169 0,1.70866 0.35263,3.03558 1.05791,3.98079 0.70526,0.94521 1.69773,1.41781 2.97741,1.41781 1.28692,0 2.28303,-0.4726 2.98831,-1.41781 0.70526,-0.94521 1.05789,-2.27213 1.05791,-3.98079 -2e-5,-1.7159 -0.35265,-3.04647 -1.05791,-3.99169 -0.70528,-0.94519 -1.70139,-1.41779 -2.98831,-1.41781 m 0,-3.04284 c 2.61748,10e-6 4.66786,0.74891 6.15112,2.24669 1.48324,1.4978 2.22486,3.56635 2.22488,6.20565 -2e-5,2.63205 -0.74164,4.69697 -2.22488,6.19475 -1.48326,1.4978 -3.53364,2.24669 -6.15112,2.24669 -2.61024,0 -4.66061,-0.74889 -6.15113,-2.24669 -1.48325,-1.49778 -2.22488,-3.5627 -2.22488,-6.19475 0,-2.6393 0.74163,-4.70785 2.22488,-6.20565 1.49052,-1.49778 3.54089,-2.24668 6.15113,-2.24669"
             inkscape:connector-curvature="0" />
        </g>
      </g>
      <g
         id="g2919">
        <g
           style="font-size:8.33545303px;font-style:normal;font-weight:normal;text-align:center;text-anchor:middle;fill:#000000;fill-opacity:1;stroke:none;font-family:Bitstream Vera Sans"
           id="text2163">
          <path
             d="m 448.02942,335.3898 c -0.59694,1e-5 -1.07178,0.2225 -1.42451,0.66749 -0.35003,0.44499 -0.52504,1.05143 -0.52504,1.81931 0,0.76517 0.17501,1.37025 0.52504,1.81524 0.35273,0.44499 0.82757,0.66749 1.42451,0.66749 0.59694,0 1.06907,-0.2225 1.41638,-0.66749 0.35002,-0.44499 0.52503,-1.05007 0.52504,-1.81524 -1e-5,-0.76788 -0.17502,-1.37432 -0.52504,-1.81931 -0.34731,-0.44499 -0.81944,-0.66748 -1.41638,-0.66749 m 0,-0.66749 c 0.852,1e-5 1.53305,0.28627 2.04317,0.85878 0.5101,0.56981 0.76516,1.33498 0.76517,2.29551 -10e-6,0.95782 -0.25507,1.72299 -0.76517,2.2955 -0.51012,0.56981 -1.19117,0.85471 -2.04317,0.85471 -0.85471,0 -1.53847,-0.2849 -2.0513,-0.85471 -0.51011,-0.5698 -0.76517,-1.33497 -0.76517,-2.2955 0,-0.96053 0.25506,-1.7257 0.76517,-2.29551 0.51283,-0.57251 1.19659,-0.85877 2.0513,-0.85878"
             id="path2824"
             inkscape:connector-curvature="0" />
          <path
             d="m 452.12389,334.83221 3.4921,0 0,0.6919 -2.66995,0 0,1.79082 2.40947,0 0,0.69191 -2.40947,0 0,2.90194 -0.82215,0 0,-6.07657"
             id="path2826"
             inkscape:connector-curvature="0" />
          <path
             d="m 456.92654,334.83221 0.82215,0 0,6.07657 -0.82215,0 0,-6.07657"
             id="path2828"
             inkscape:connector-curvature="0" />
          <path
             d="m 463.93516,335.30026 0,0.86692 c -0.27677,-0.25776 -0.57252,-0.45041 -0.88727,-0.57795 -0.31204,-0.12752 -0.64442,-0.19128 -0.99716,-0.19129 -0.69462,10e-6 -1.22644,0.21301 -1.59546,0.639 -0.36902,0.42329 -0.55352,1.03651 -0.55352,1.83966 0,0.80044 0.1845,1.41366 0.55352,1.83966 0.36902,0.42329 0.90084,0.63493 1.59546,0.63493 0.35274,0 0.68512,-0.0638 0.99716,-0.1913 0.31475,-0.12752 0.6105,-0.32017 0.88727,-0.57794 l 0,0.85878 c -0.28762,0.19536 -0.59287,0.34188 -0.91576,0.43956 -0.32018,0.0977 -0.65935,0.14652 -1.01751,0.14652 -0.91983,0 -1.6443,-0.28083 -2.1734,-0.8425 -0.52911,-0.56437 -0.79366,-1.33361 -0.79366,-2.30771 0,-0.97681 0.26455,-1.74605 0.79366,-2.30772 0.5291,-0.56437 1.25357,-0.84656 2.1734,-0.84657 0.36359,1e-5 0.70547,0.0489 1.02565,0.14653 0.32289,0.095 0.62543,0.23878 0.90762,0.43142"
             id="path2830"
             inkscape:connector-curvature="0" />
          <path
             d="m 465.21316,334.83221 0.82215,0 0,6.07657 -0.82215,0 0,-6.07657"
             id="path2832"
             inkscape:connector-curvature="0" />
          <path
             d="m 467.67146,334.83221 1.10706,0 2.69437,5.08348 0,-5.08348 0.79772,0 0,6.07657 -1.10705,0 -2.69437,-5.08348 0,5.08348 -0.79773,0 0,-6.07657"
             id="path2834"
             inkscape:connector-curvature="0" />
          <path
             d="m 475.93773,335.64214 -1.1152,3.02405 2.23446,0 -1.11926,-3.02405 m -0.46399,-0.80993 0.93204,0 2.31586,6.07657 -0.85471,0 -0.55353,-1.55882 -2.73914,0 -0.55353,1.55882 -0.86692,0 2.31993,-6.07657"
             id="path2836"
             inkscape:connector-curvature="0" />
          <path
             d="m 483.08066,335.50783 0,4.72533 0.99309,0 c 0.83842,0 1.45164,-0.18994 1.83966,-0.56981 0.39072,-0.37987 0.58608,-0.97952 0.58608,-1.79896 0,-0.81401 -0.19536,-1.40959 -0.58608,-1.78675 -0.38802,-0.37987 -1.00124,-0.5698 -1.83966,-0.56981 l -0.99309,0 m -0.82215,-0.67562 1.68907,0 c 1.17759,0 2.0418,0.24556 2.59261,0.73667 0.55081,0.48841 0.82622,1.25358 0.82622,2.29551 0,1.04736 -0.27676,1.8166 -0.83029,2.30771 -0.55353,0.49112 -1.41637,0.73668 -2.58854,0.73668 l -1.68907,0 0,-6.07657"
             id="path2838"
             inkscape:connector-curvature="0" />
          <path
             d="m 488.6729,334.83221 3.84212,0 0,0.6919 -3.01997,0 0,1.79896 2.8938,0 0,0.69191 -2.8938,0 0,2.2019 3.09323,0 0,0.6919 -3.91538,0 0,-6.07657"
             id="path2840"
             inkscape:connector-curvature="0" />
          <path
             d="m 500.24404,335.03164 0,0.8018 c -0.31204,-0.14923 -0.60644,-0.26048 -0.8832,-0.33375 -0.27677,-0.0732 -0.54404,-0.10988 -0.8018,-0.10989 -0.44771,1e-5 -0.79366,0.0868 -1.03786,0.26048 -0.2415,0.17366 -0.36224,0.42058 -0.36224,0.74075 0,0.26863 0.08,0.47213 0.24013,0.61051 0.1628,0.13567 0.46941,0.24556 0.91983,0.32967 l 0.49655,0.10175 c 0.61322,0.11668 1.06499,0.3229 1.35533,0.61865 0.29303,0.29305 0.43956,0.68648 0.43956,1.18031 0,0.58881 -0.19808,1.03515 -0.59423,1.33905 -0.39344,0.3039 -0.97138,0.45584 -1.73384,0.45584 -0.28761,0 -0.59422,-0.0326 -0.91983,-0.0977 -0.32289,-0.0651 -0.65799,-0.16144 -1.0053,-0.28897 l 0,-0.84657 c 0.33375,0.18722 0.66071,0.32832 0.98088,0.42329 0.32018,0.095 0.63493,0.14245 0.94425,0.14245 0.46941,0 0.83165,-0.0923 1.08671,-0.27677 0.25505,-0.1845 0.38258,-0.4477 0.38258,-0.78959 0,-0.29846 -0.0923,-0.53181 -0.27676,-0.70004 -0.1818,-0.16823 -0.48163,-0.2944 -0.89948,-0.37852 l -0.50062,-0.0977 c -0.61322,-0.1221 -1.05685,-0.31339 -1.3309,-0.57387 -0.27405,-0.26048 -0.41108,-0.62272 -0.41108,-1.08671 0,-0.53724 0.18858,-0.96052 0.56574,-1.26985 0.37987,-0.30932 0.90219,-0.46398 1.56697,-0.46399 0.2849,1e-5 0.57523,0.0258 0.87099,0.0773 0.29575,0.0516 0.59829,0.1289 0.90762,0.232"
             id="path2842"
             inkscape:connector-curvature="0" />
          <path
             d="m 504.35885,335.3898 c -0.59694,1e-5 -1.07178,0.2225 -1.42451,0.66749 -0.35003,0.44499 -0.52504,1.05143 -0.52504,1.81931 0,0.76517 0.17501,1.37025 0.52504,1.81524 0.35273,0.44499 0.82757,0.66749 1.42451,0.66749 0.59694,0 1.06907,-0.2225 1.41638,-0.66749 0.35002,-0.44499 0.52503,-1.05007 0.52504,-1.81524 -1e-5,-0.76788 -0.17502,-1.37432 -0.52504,-1.81931 -0.34731,-0.44499 -0.81944,-0.66748 -1.41638,-0.66749 m 0,-0.66749 c 0.852,1e-5 1.53305,0.28627 2.04317,0.85878 0.5101,0.56981 0.76516,1.33498 0.76517,2.29551 -1e-5,0.95782 -0.25507,1.72299 -0.76517,2.2955 -0.51012,0.56981 -1.19117,0.85471 -2.04317,0.85471 -0.85471,0 -1.53847,-0.2849 -2.0513,-0.85471 -0.51011,-0.5698 -0.76517,-1.33497 -0.76517,-2.2955 0,-0.96053 0.25506,-1.7257 0.76517,-2.29551 0.51283,-0.57251 1.19659,-0.85877 2.0513,-0.85878"
             id="path2844"
             inkscape:connector-curvature="0" />
          <path
             d="m 508.45332,334.83221 3.4921,0 0,0.6919 -2.66995,0 0,1.79082 2.40947,0 0,0.69191 -2.40947,0 0,2.90194 -0.82215,0 0,-6.07657"
             id="path2846"
             inkscape:connector-curvature="0" />
          <path
             d="m 512.26695,334.83221 5.14047,0 0,0.6919 -2.15713,0 0,5.38467 -0.82622,0 0,-5.38467 -2.15712,0 0,-0.6919"
             id="path2848"
             inkscape:connector-curvature="0" />
          <path
             d="m 517.66383,334.83221 0.83029,0 1.278,5.13639 1.27392,-5.13639 0.9239,0 1.278,5.13639 1.27392,-5.13639 0.83436,0 -1.52627,6.07657 -1.03379,0 -1.28206,-5.27478 -1.29428,5.27478 -1.03379,0 -1.5222,-6.07657"
             id="path2850"
             inkscape:connector-curvature="0" />
          <path
             d="m 528.01803,335.64214 -1.1152,3.02405 2.23446,0 -1.11926,-3.02405 m -0.46399,-0.80993 0.93204,0 2.31586,6.07657 -0.85471,0 -0.55353,-1.55882 -2.73914,0 -0.55353,1.55882 -0.86692,0 2.31993,-6.07657"
             id="path2852"
             inkscape:connector-curvature="0" />
          <path
             d="m 534.56673,338.05975 c 0.17637,0.0597 0.34731,0.18723 0.51283,0.38259 0.16822,0.19536 0.33645,0.46398 0.50468,0.80586 l 0.83436,1.66058 -0.8832,0 -0.77738,-1.55882 c -0.20079,-0.40701 -0.39615,-0.67699 -0.58608,-0.80994 -0.18723,-0.13296 -0.44364,-0.19943 -0.76924,-0.19944 l -0.89541,0 0,2.5682 -0.82215,0 0,-6.07657 1.85594,0 c 0.69462,0 1.21287,0.14517 1.55476,0.43549 0.34188,0.29034 0.51282,0.72854 0.51282,1.31462 0,0.38259 -0.0895,0.70006 -0.26862,0.9524 -0.17637,0.25234 -0.43414,0.42735 -0.77331,0.52503 m -2.05944,-2.55192 0,2.15713 1.03379,0 c 0.39615,0 0.69462,-0.0909 0.89541,-0.2727 0.2035,-0.1845 0.30525,-0.45448 0.30525,-0.80994 0,-0.35544 -0.10175,-0.62271 -0.30525,-0.80179 -0.20079,-0.18179 -0.49926,-0.27269 -0.89541,-0.2727 l -1.03379,0"
             id="path2854"
             inkscape:connector-curvature="0" />
          <path
             d="m 537.48088,334.83221 3.84213,0 0,0.6919 -3.01998,0 0,1.79896 2.89381,0 0,0.69191 -2.89381,0 0,2.2019 3.09324,0 0,0.6919 -3.91539,0 0,-6.07657"
             id="path2856"
             inkscape:connector-curvature="0" />
          <path
             d="m 545.40933,334.83221 0.82215,0 0,5.38467 2.95892,0 0,0.6919 -3.78107,0 0,-6.07657"
             id="path2858"
             inkscape:connector-curvature="0" />
          <path
             d="m 550.04918,334.83221 0.82215,0 0,6.07657 -0.82215,0 0,-6.07657"
             id="path2860"
             inkscape:connector-curvature="0" />
          <path
             d="m 553.32964,338.00684 0,2.22632 1.31869,0 c 0.44228,0 0.76924,-0.0909 0.98088,-0.2727 0.21436,-0.18451 0.32153,-0.46534 0.32154,-0.8425 -10e-6,-0.37987 -0.10718,-0.65934 -0.32154,-0.83843 -0.21164,-0.18179 -0.5386,-0.27269 -0.98088,-0.27269 l -1.31869,0 m 0,-2.49901 0,1.83152 1.21694,0 c 0.40158,10e-6 0.70005,-0.0746 0.89541,-0.22385 0.19807,-0.15194 0.29711,-0.38258 0.29711,-0.69191 0,-0.3066 -0.099,-0.53588 -0.29711,-0.68783 -0.19536,-0.15195 -0.49383,-0.22792 -0.89541,-0.22793 l -1.21694,0 m -0.82215,-0.67562 2.10014,0 c 0.62679,0 1.10976,0.13024 1.44894,0.39072 0.33916,0.26049 0.50875,0.63086 0.50875,1.11112 0,0.37174 -0.0868,0.66749 -0.26048,0.88727 -0.17366,0.21979 -0.42871,0.35681 -0.76517,0.41108 0.40429,0.0868 0.71768,0.26862 0.94018,0.54538 0.22521,0.27405 0.33781,0.61729 0.33782,1.02972 -10e-6,0.54268 -0.18452,0.96189 -0.55353,1.25765 -0.36902,0.29575 -0.89406,0.44363 -1.57511,0.44363 l -2.18154,0 0,-6.07657"
             id="path2862"
             inkscape:connector-curvature="0" />
          <path
             d="m 561.10343,338.05975 c 0.17636,0.0597 0.34731,0.18723 0.51282,0.38259 0.16823,0.19536 0.33646,0.46398 0.50469,0.80586 l 0.83436,1.66058 -0.8832,0 -0.77738,-1.55882 c -0.20079,-0.40701 -0.39615,-0.67699 -0.58609,-0.80994 -0.18722,-0.13296 -0.44363,-0.19943 -0.76923,-0.19944 l -0.89541,0 0,2.5682 -0.82215,0 0,-6.07657 1.85594,0 c 0.69461,0 1.21287,0.14517 1.55475,0.43549 0.34188,0.29034 0.51283,0.72854 0.51283,1.31462 0,0.38259 -0.0896,0.70006 -0.26862,0.9524 -0.17638,0.25234 -0.43414,0.42735 -0.77331,0.52503 m -2.05944,-2.55192 0,2.15713 1.03379,0 c 0.39615,0 0.69461,-0.0909 0.89541,-0.2727 0.2035,-0.1845 0.30525,-0.45448 0.30525,-0.80994 0,-0.35544 -0.10175,-0.62271 -0.30525,-0.80179 -0.2008,-0.18179 -0.49926,-0.27269 -0.89541,-0.2727 l -1.03379,0"
             id="path2864"
             inkscape:connector-curvature="0" />
          <path
             d="m 564.01758,334.83221 3.84213,0 0,0.6919 -3.01998,0 0,1.79896 2.8938,0 0,0.69191 -2.8938,0 0,2.2019 3.09324,0 0,0.6919 -3.91539,0 0,-6.07657"
             id="path2866"
             inkscape:connector-curvature="0" />
        </g>
        <g
           style="font-size:9.3748951px;font-style:normal;font-weight:bold;text-align:center;text-anchor:middle;fill:#000000;fill-opacity:1;stroke:none;font-family:Bitstream Vera Sans"
           id="text2167">
          <path
             d="m 430.15701,343.90605 1.76237,0 0,4.09694 c 0,0.56457 0.0915,0.96892 0.27465,1.21306 0.18616,0.24109 0.48828,0.36163 0.90637,0.36163 0.42113,0 0.72325,-0.12054 0.90636,-0.36163 0.18615,-0.24414 0.27923,-0.64849 0.27923,-1.21306 l 0,-4.09694 1.76237,0 0,4.09694 c -10e-6,0.9674 -0.24262,1.68761 -0.72783,2.16062 -0.48523,0.47302 -1.22528,0.70953 -2.22013,0.70953 -0.99182,0 -1.73033,-0.23651 -2.21555,-0.70953 -0.48523,-0.47301 -0.72784,-1.19322 -0.72784,-2.16062 l 0,-4.09694"
             id="path2869"
             inkscape:connector-curvature="0" />
          <path
             d="m 437.77411,343.90605 1.96836,0 2.48563,4.68745 0,-4.68745 1.67082,0 0,6.83434 -1.96836,0 -2.48563,-4.68745 0,4.68745 -1.67082,0 0,-6.83434"
             id="path2871"
             inkscape:connector-curvature="0" />
          <path
             d="m 445.62925,343.90605 1.76237,0 0,6.83434 -1.76237,0 0,-6.83434"
             id="path2873"
             inkscape:connector-curvature="0" />
          <path
             d="m 448.31171,343.90605 1.77153,0 1.81272,5.0445 1.80815,-5.0445 1.77152,0 -2.5314,6.83434 -2.10111,0 -2.53141,-6.83434"
             id="path2875"
             inkscape:connector-curvature="0" />
          <path
             d="m 456.37742,343.90605 4.75611,0 0,1.33208 -2.99374,0 0,1.27257 2.81521,0 0,1.33208 -2.81521,0 0,1.56553 3.09445,0 0,1.33208 -4.85682,0 0,-6.83434"
             id="path2877"
             inkscape:connector-curvature="0" />
          <path
             d="m 465.28998,346.93641 c 0.36925,10e-6 0.63323,-0.0687 0.79192,-0.20599 0.16174,-0.13732 0.24261,-0.36315 0.24261,-0.67748 0,-0.31127 -0.0809,-0.53405 -0.24261,-0.66833 -0.15869,-0.13427 -0.42267,-0.20141 -0.79192,-0.20141 l -0.74157,0 0,1.75321 0.74157,0 m -0.74157,1.21764 0,2.58634 -1.76237,0 0,-6.83434 2.69162,0 c 0.90025,1e-5 1.55942,0.15107 1.97751,0.45318 0.42114,0.30213 0.63171,0.77972 0.63171,1.43279 0,0.45166 -0.10987,0.82244 -0.32958,1.11235 -0.21668,0.28992 -0.54474,0.50354 -0.98419,0.64086 0.24109,0.0549 0.45623,0.18006 0.64544,0.37536 0.19226,0.19227 0.38604,0.48523 0.58136,0.8789 l 0.95671,1.9409 -1.87681,0 -0.83312,-1.69829 c -0.16785,-0.34179 -0.33874,-0.57524 -0.51269,-0.70037 -0.1709,-0.12512 -0.39978,-0.18768 -0.68664,-0.18768 l -0.49895,0"
             id="path2879"
             inkscape:connector-curvature="0" />
          <path
             d="m 474.75642,344.1212 0,1.44652 c -0.37536,-0.16784 -0.74157,-0.29449 -1.09862,-0.37994 -0.35705,-0.0854 -0.69427,-0.12817 -1.01164,-0.12818 -0.42114,1e-5 -0.73242,0.058 -0.93383,0.17395 -0.20142,0.11597 -0.30212,0.29602 -0.30212,0.54016 0,0.1831 0.0671,0.32654 0.20141,0.43029 0.13733,0.10071 0.38452,0.18769 0.74157,0.26092 l 0.75073,0.15106 c 0.75987,0.15259 1.30002,0.38452 1.62046,0.6958 0.32043,0.31127 0.48064,0.75377 0.48065,1.3275 -1e-5,0.75377 -0.22431,1.31529 -0.67291,1.68455 -0.44555,0.3662 -1.12761,0.54931 -2.04618,0.54931 -0.43335,0 -0.86822,-0.0412 -1.30461,-0.1236 -0.4364,-0.0824 -0.87279,-0.20446 -1.30919,-0.3662 l 0,-1.48772 c 0.4364,0.23193 0.85753,0.40741 1.26341,0.52642 0.40893,0.11597 0.8026,0.17395 1.18102,0.17395 0.38451,0 0.67901,-0.0641 0.88347,-0.19226 0.20447,-0.12817 0.3067,-0.31127 0.3067,-0.54931 0,-0.21362 -0.0702,-0.37841 -0.21057,-0.49438 -0.13733,-0.11596 -0.41351,-0.21972 -0.82854,-0.31127 l -0.68206,-0.15106 c -0.68359,-0.14648 -1.18407,-0.37994 -1.50145,-0.70037 -0.31433,-0.32043 -0.47149,-0.75225 -0.47149,-1.29546 0,-0.68053 0.21972,-1.2039 0.65917,-1.57011 0.43945,-0.3662 1.07116,-0.54931 1.89512,-0.54931 0.37536,0 0.76141,0.029 1.15813,0.087 0.39672,0.0549 0.80718,0.13886 1.23137,0.25177"
             id="path2881"
             inkscape:connector-curvature="0" />
          <path
             d="m 476.75683,343.90605 1.76237,0 0,6.83434 -1.76237,0 0,-6.83434"
             id="path2883"
             inkscape:connector-curvature="0" />
          <path
             d="m 482.01647,345.23813 0,4.17018 0.63171,0 c 0.7202,0 1.26951,-0.17852 1.64793,-0.53558 0.38146,-0.35705 0.5722,-0.87584 0.5722,-1.55638 0,-0.67748 -0.18921,-1.19322 -0.56762,-1.54722 -0.37842,-0.354 -0.92925,-0.531 -1.65251,-0.531 l -0.63171,0 m -1.76237,-1.33208 1.8585,0 c 1.03759,1e-5 1.80967,0.0748 2.31626,0.2243 0.50963,0.14649 0.94603,0.39673 1.30919,0.75073 0.32043,0.30823 0.55846,0.66375 0.71411,1.06657 0.15563,0.40284 0.23344,0.85907 0.23345,1.3687 -10e-6,0.51575 -0.0778,0.97656 -0.23345,1.38243 -0.15565,0.40283 -0.39368,0.75836 -0.71411,1.06658 -0.36621,0.354 -0.80566,0.60577 -1.31834,0.7553 -0.5127,0.14649 -1.28173,0.21973 -2.30711,0.21973 l -1.8585,0 0,-6.83434"
             id="path2885"
             inkscape:connector-curvature="0" />
          <path
             d="m 492.18329,349.49528 -2.7557,0 -0.43488,1.24511 -1.77152,0 2.5314,-6.83434 2.10112,0 2.5314,6.83434 -1.77153,0 -0.43029,-1.24511 m -2.31626,-1.26799 1.87224,0 -0.93383,-2.71908 -0.93841,2.71908"
             id="path2887"
             inkscape:connector-curvature="0" />
          <path
             d="m 497.04926,345.23813 0,4.17018 0.63171,0 c 0.7202,0 1.26951,-0.17852 1.64793,-0.53558 0.38146,-0.35705 0.57219,-0.87584 0.5722,-1.55638 -10e-6,-0.67748 -0.18921,-1.19322 -0.56762,-1.54722 -0.37842,-0.354 -0.92926,-0.531 -1.65251,-0.531 l -0.63171,0 m -1.76237,-1.33208 1.8585,0 c 1.03758,1e-5 1.80967,0.0748 2.31626,0.2243 0.50963,0.14649 0.94603,0.39673 1.30919,0.75073 0.32042,0.30823 0.55846,0.66375 0.7141,1.06657 0.15563,0.40284 0.23345,0.85907 0.23346,1.3687 -10e-6,0.51575 -0.0778,0.97656 -0.23346,1.38243 -0.15564,0.40283 -0.39368,0.75836 -0.7141,1.06658 -0.36621,0.354 -0.80566,0.60577 -1.31835,0.7553 -0.51269,0.14649 -1.28172,0.21973 -2.3071,0.21973 l -1.8585,0 0,-6.83434"
             id="path2889"
             inkscape:connector-curvature="0" />
          <path
             d="m 508.0904,345.23813 0,4.17018 0.63171,0 c 0.7202,0 1.26951,-0.17852 1.64793,-0.53558 0.38146,-0.35705 0.57219,-0.87584 0.5722,-1.55638 -1e-5,-0.67748 -0.18922,-1.19322 -0.56762,-1.54722 -0.37842,-0.354 -0.92926,-0.531 -1.65251,-0.531 l -0.63171,0 m -1.76237,-1.33208 1.8585,0 c 1.03758,1e-5 1.80967,0.0748 2.31626,0.2243 0.50963,0.14649 0.94603,0.39673 1.30919,0.75073 0.32042,0.30823 0.55846,0.66375 0.7141,1.06657 0.15563,0.40284 0.23345,0.85907 0.23346,1.3687 -10e-6,0.51575 -0.0778,0.97656 -0.23346,1.38243 -0.15564,0.40283 -0.39368,0.75836 -0.7141,1.06658 -0.36622,0.354 -0.80566,0.60577 -1.31835,0.7553 -0.51269,0.14649 -1.28173,0.21973 -2.3071,0.21973 l -1.8585,0 0,-6.83434"
             id="path2891"
             inkscape:connector-curvature="0" />
          <path
             d="m 514.10993,343.90605 4.75611,0 0,1.33208 -2.99374,0 0,1.27257 2.81521,0 0,1.33208 -2.81521,0 0,1.56553 3.09445,0 0,1.33208 -4.85682,0 0,-6.83434"
             id="path2893"
             inkscape:connector-curvature="0" />
          <path
             d="m 523.77779,343.90605 1.76237,0 0,5.50226 3.09445,0 0,1.33208 -4.85682,0 0,-6.83434"
             id="path2895"
             inkscape:connector-curvature="0" />
          <path
             d="m 533.89425,349.49528 -2.7557,0 -0.43488,1.24511 -1.77152,0 2.5314,-6.83434 2.10112,0 2.5314,6.83434 -1.77152,0 -0.4303,-1.24511 m -2.31626,-1.26799 1.87224,0 -0.93383,-2.71908 -0.93841,2.71908"
             id="path2897"
             inkscape:connector-curvature="0" />
          <path
             d="m 540.2571,343.90605 1.76237,0 0,5.50226 3.09445,0 0,1.33208 -4.85682,0 0,-6.83434"
             id="path2899"
             inkscape:connector-curvature="0" />
          <path
             d="m 550.37356,349.49528 -2.75571,0 -0.43487,1.24511 -1.77152,0 2.5314,-6.83434 2.10111,0 2.53141,6.83434 -1.77153,0 -0.43029,-1.24511 m -2.31626,-1.26799 1.87224,0 -0.93383,-2.71908 -0.93841,2.71908"
             id="path2901"
             inkscape:connector-curvature="0" />
          <path
             d="m 559.62028,350.23227 c -0.43945,0.21363 -0.89569,0.37384 -1.3687,0.48065 -0.47302,0.10681 -0.96129,0.16022 -1.46482,0.16022 -1.1383,0 -2.04008,-0.31738 -2.70536,-0.95214 -0.66527,-0.63781 -0.99791,-1.50145 -0.99791,-2.59091 0,-1.10167 0.33874,-1.96836 1.01622,-2.60007 0.67748,-0.6317 1.60521,-0.94756 2.78317,-0.94756 0.45471,0 0.88958,0.0427 1.30462,0.12817 0.41808,0.0854 0.81175,0.2121 1.18101,0.37994 l 0,1.41447 c -0.38147,-0.21666 -0.76141,-0.37841 -1.13982,-0.48522 -0.37536,-0.10681 -0.75225,-0.16021 -1.13066,-0.16022 -0.7019,1e-5 -1.24358,0.19685 -1.62504,0.59051 -0.37842,0.39063 -0.56762,0.95062 -0.56762,1.67998 0,0.72326 0.1831,1.28172 0.54931,1.67539 0.3662,0.39368 0.88652,0.59051 1.56095,0.59051 0.1831,0 0.35247,-0.0107 0.50812,-0.032 0.15868,-0.0244 0.30059,-0.061 0.42571,-0.10986 l 0,-1.3275 -1.07573,0 0,-1.18102 2.74655,0 0,3.2867"
             id="path2903"
             inkscape:connector-curvature="0" />
          <path
             d="m 561.16751,343.90605 1.76237,0 0,4.09694 c -10e-6,0.56457 0.0915,0.96892 0.27465,1.21306 0.18615,0.24109 0.48827,0.36163 0.90636,0.36163 0.42114,0 0.72326,-0.12054 0.90637,-0.36163 0.18615,-0.24414 0.27922,-0.64849 0.27923,-1.21306 l 0,-4.09694 1.76237,0 0,4.09694 c -10e-6,0.9674 -0.24262,1.68761 -0.72784,2.16062 -0.48523,0.47302 -1.22527,0.70953 -2.22013,0.70953 -0.99181,0 -1.73032,-0.23651 -2.21555,-0.70953 -0.48522,-0.47301 -0.72783,-1.19322 -0.72783,-2.16062 l 0,-4.09694"
             id="path2905"
             inkscape:connector-curvature="0" />
          <path
             d="m 568.7846,343.90605 1.96836,0 2.48563,4.68745 0,-4.68745 1.67082,0 0,6.83434 -1.96836,0 -2.48563,-4.68745 0,4.68745 -1.67082,0 0,-6.83434"
             id="path2907"
             inkscape:connector-curvature="0" />
          <path
             d="m 580.78704,349.49528 -2.7557,0 -0.43487,1.24511 -1.77153,0 2.53141,-6.83434 2.10111,0 2.5314,6.83434 -1.77152,0 -0.4303,-1.24511 m -2.31625,-1.26799 1.87223,0 -0.93383,-2.71908 -0.9384,2.71908"
             id="path2909"
             inkscape:connector-curvature="0" />
        </g>
      </g>
    </g>
  </g>
</svg>
