<?xml version="1.0" encoding="UTF-8" standalone="no"?>
<!-- Created with Inkscape (http://www.inkscape.org/) -->

<svg
   xmlns:dc="http://purl.org/dc/elements/1.1/"
   xmlns:cc="http://creativecommons.org/ns#"
   xmlns:rdf="http://www.w3.org/1999/02/22-rdf-syntax-ns#"
   xmlns:svg="http://www.w3.org/2000/svg"
   xmlns="http://www.w3.org/2000/svg"
   xmlns:xlink="http://www.w3.org/1999/xlink"
   xmlns:sodipodi="http://sodipodi.sourceforge.net/DTD/sodipodi-0.dtd"
   xmlns:inkscape="http://www.inkscape.org/namespaces/inkscape"
   version="1.0"
   width="659.45483"
   height="329.51834"
   id="svg2031"
   inkscape:version="0.48.5 r10040"
   sodipodi:docname="pythoncanarias.svg">
  <metadata
     id="metadata28">
    <rdf:RDF>
      <cc:Work
         rdf:about="">
        <dc:format>image/svg+xml</dc:format>
        <dc:type
           rdf:resource="http://purl.org/dc/dcmitype/StillImage" />
        <dc:title />
      </cc:Work>
    </rdf:RDF>
  </metadata>
  <sodipodi:namedview
     pagecolor="#ffffff"
     bordercolor="#666666"
     borderopacity="1"
     objecttolerance="10"
     gridtolerance="10"
     guidetolerance="10"
     inkscape:pageopacity="0"
     inkscape:pageshadow="2"
     inkscape:window-width="1436"
     inkscape:window-height="861"
     id="namedview26"
     showgrid="false"
     inkscape:zoom="0.78615385"
     inkscape:cx="-22.620935"
     inkscape:cy="137.47182"
     inkscape:window-x="1366"
     inkscape:window-y="18"
     inkscape:window-maximized="0"
     inkscape:current-layer="g2574"
     fit-margin-top="43"
     fit-margin-left="15"
     fit-margin-right="15"
     fit-margin-bottom="43" />
  <defs
     id="defs2033">
    <linearGradient
       id="linearGradient4671">
      <stop
         style="stop-color:#ffc836;stop-opacity:1"
         offset="0"
         id="stop4673" />
      <stop
         style="stop-color:#ffe873;stop-opacity:1"
         offset="1"
         id="stop4675" />
    </linearGradient>
    <linearGradient
       x1="224.23996"
       y1="144.75717"
       x2="-65.308502"
       y2="144.75717"
       id="linearGradient1874"
       xlink:href="#linearGradient4671"
       gradientUnits="userSpaceOnUse" />
    <linearGradient
       id="linearGradient4689">
      <stop
         style="stop-color:#366a96;stop-opacity:1"
         offset="0"
         id="stop4691" />
      <stop
         style="stop-color:#3679b0;stop-opacity:1"
         offset="1"
         id="stop4693" />
    </linearGradient>
    <linearGradient
       x1="172.94208"
       y1="77.475983"
       x2="26.670298"
       y2="76.313133"
       id="linearGradient1872"
       xlink:href="#linearGradient4689"
       gradientUnits="userSpaceOnUse" />
  </defs>
  <g
     id="layer1"
     transform="translate(4.7274047,32.946762)">
    <g
       transform="matrix(1.200851,0,0,1.200851,-25.00003,33.18467)"
       id="g1858">
      <g
         transform="translate(2.702726,-34.93942)"
         id="g2574">
        <path
           d="m 289.25185,74.344622 c 0,-14.562153 -4.15226,-22.038171 -12.45678,-22.447549 -3.30427,-0.155953 -6.53055,0.37039 -9.66912,1.588776 -2.505,0.896732 -4.19124,1.783717 -5.07823,2.68045 l 0,34.758123 c 5.31216,3.333504 10.02976,4.883292 14.14303,4.639615 8.70415,-0.575079 13.0611,-7.641719 13.0611,-21.219415 z m 10.24419,0.604319 c 0,7.398041 -1.73498,13.538708 -5.22444,18.422 -3.88909,5.5266 -9.27923,8.372749 -16.17042,8.528709 -5.1952,0.1657 -10.54635,-1.46207 -16.05346,-4.87355 l 0,31.59032 -8.90884,-3.17755 0,-70.120568 c 1.46206,-1.793465 3.34325,-3.333505 5.62407,-4.639615 5.30242,-3.089827 11.74524,-4.678603 19.32848,-4.75658 l 0.12671,0.126712 c 6.93018,-0.08772 12.27159,2.758427 16.02422,8.528704 3.4992,5.29267 5.25368,12.076645 5.25368,20.371418 z"
           style="fill:#646464;fill-opacity:1"
           id="path46"
           inkscape:connector-curvature="0" />
        <path
           d="m 353.94328,95.681002 c 0,9.922538 -0.9942,16.794238 -2.9826,20.615098 -1.99816,3.82086 -5.79952,6.8717 -11.41385,9.14277 -4.55189,1.79346 -9.47417,2.76817 -14.75709,2.93387 l -1.47181,-5.61432 c 5.37064,-0.73103 9.15252,-1.46207 11.34561,-2.1931 4.31796,-1.46206 7.28108,-3.70389 8.90884,-6.706 1.30611,-2.44652 1.94942,-7.11537 1.94942,-14.026058 l 0,-2.319807 c -6.09193,2.768175 -12.47628,4.142515 -19.15303,4.142515 -4.38619,0 -8.25579,-1.37434 -11.58929,-4.142515 -3.74289,-3.011851 -5.61433,-6.832711 -5.61433,-11.462578 l 0,-37.077931 8.90884,-3.050839 0,37.321608 c 0,3.98656 1.28662,7.056893 3.85985,9.211 2.57323,2.154107 5.90674,3.187298 9.99077,3.109322 4.08403,-0.08772 8.46047,-1.666753 13.10983,-4.75658 l 0,-43.540251 8.90884,0 0,48.413796 z"
           style="fill:#646464;fill-opacity:1"
           id="path48"
           inkscape:connector-curvature="0" />
        <path
           d="m 388.7209,101.41229 c -1.06243,0.0877 -2.03714,0.12671 -2.93387,0.12671 -5.03925,0 -8.96732,-1.19889 -11.77449,-3.606421 -2.79741,-2.407531 -4.20099,-5.731289 -4.20099,-9.971273 l 0,-35.089524 -6.10168,0 0,-5.604576 6.10168,0 0,-14.883807 8.89909,-3.167804 0,18.051611 10.01026,0 0,5.604576 -10.01026,0 0,34.845847 c 0,3.343252 0.89673,5.711795 2.6902,7.095882 1.54004,1.140409 3.98656,1.793464 7.32006,1.959165 l 0,4.639614 z"
           style="fill:#646464;fill-opacity:1"
           id="path50"
           inkscape:connector-curvature="0" />
        <path
           d="m 442.6613,100.68126 -8.90884,0 0,-34.387735 c 0,-3.499205 -0.81876,-6.511056 -2.44652,-9.025805 -1.88119,-2.84615 -4.49341,-4.269226 -7.84641,-4.269226 -4.08403,0 -9.19151,2.154107 -15.32242,6.462321 l 0,41.220445 -8.90885,0 0,-82.197211 8.90885,-2.807162 0,37.438573 c 5.6923,-4.142514 11.91094,-6.218644 18.66567,-6.218644 4.71759,0 8.53845,1.588776 11.46258,4.75658 2.93387,3.167804 4.39594,7.115376 4.39594,11.832967 l 0,37.194897 0,0 z"
           style="fill:#646464;fill-opacity:1"
           id="path52"
           inkscape:connector-curvature="0" />
        <path
           d="m 490.01266,72.941041 c 0,-5.59483 -1.06243,-10.214951 -3.17755,-13.870109 -2.51475,-4.454421 -6.42333,-6.803469 -11.70626,-7.047147 -9.76658,0.565332 -14.64012,7.563742 -14.64012,20.975738 0,6.150414 1.01369,11.28713 3.06058,15.410149 2.61222,5.253682 6.53055,7.846408 11.75499,7.758684 9.80557,-0.07798 14.70836,-7.817166 14.70836,-23.227315 z m 9.75684,0.05848 c 0,7.963373 -2.03714,14.591394 -6.10168,19.884064 -4.47391,5.92623 -10.65357,8.899095 -18.53897,8.899095 -7.81716,0 -13.90909,-2.972865 -18.30503,-8.899095 -3.98656,-5.29267 -5.97497,-11.920691 -5.97497,-19.884064 0,-7.485765 2.15411,-13.782385 6.46232,-18.909354 4.5519,-5.438877 10.53661,-8.168062 17.93465,-8.168062 7.39804,0 13.42174,2.729185 18.06136,8.168062 4.30821,5.126969 6.46232,11.423589 6.46232,18.909354 z"
           style="fill:#646464;fill-opacity:1"
           id="path54"
           inkscape:connector-curvature="0" />
        <path
           d="m 550.84425,100.68126 -8.90884,0 0,-36.337153 c 0,-3.98656 -1.19889,-7.095881 -3.59668,-9.337712 -2.39778,-2.232084 -5.59483,-3.314011 -9.58139,-3.226287 -4.23023,0.07798 -8.25578,1.462064 -12.07664,4.142513 l 0,44.758639 -8.90884,0 0,-45.86006 c 5.12697,-3.733135 9.84456,-6.169908 14.15277,-7.310317 4.06454,-1.062433 7.65147,-1.588776 10.7413,-1.588776 2.11512,0 4.10352,0.204689 5.97496,0.614067 3.49921,0.809008 6.34536,2.31006 8.53845,4.512902 2.44652,2.436773 3.66491,5.3609 3.66491,8.782129 l 0,40.850055 z"
           style="fill:#646464;fill-opacity:1"
           id="path56"
           inkscape:connector-curvature="0" />
        <path
           d="m 77.670359,47.068159 c 0,-13.622851 3.652759,-21.034247 23.822341,-24.563483 13.69344,-2.39988 31.25139,-2.699865 47.62704,0 12.93465,2.135188 23.82234,11.770002 23.82234,24.563483 l 0,44.94482 c 0,13.181701 -10.57006,23.981161 -23.82234,23.981161 l -47.62704,0 c -16.163899,0 -29.78675,13.78166 -29.78675,29.36324 l 0,21.56363 -16.375655,0 c -13.852252,0 -21.916556,-9.98773 -25.304622,-23.96351 -4.570361,-18.77553 -4.376253,-29.96321 0,-47.94467 3.793928,-15.687454 15.916854,-23.963513 29.769105,-23.963513 l 17.875581,0 47.644681,0 0,-5.999701 -47.644681,0 0,-17.981457 0,0 z"
           style="fill:url(#linearGradient1872);fill-opacity:1"
           id="path1948"
           inkscape:connector-curvature="0" />
        <path
           d="m 172.94208,190.90217 c 0,13.62285 -11.82294,20.52251 -23.82234,23.96351 -18.05204,5.18798 -32.53955,4.3939 -47.62704,0 -12.599371,-3.6704 -23.822341,-11.17003 -23.822341,-23.96351 l 0,-44.94482 c 0,-12.93465 10.781815,-23.98116 23.822341,-23.98116 l 47.62704,0 c 15.86392,0 29.78675,-13.71108 29.78675,-29.963211 l 0,-20.963662 17.85794,0 c 13.86989,0 20.39898,10.305369 23.82234,23.963513 4.76447,18.96964 4.97622,33.15717 0,47.94467 -4.81741,14.36399 -9.97009,23.96351 -23.82234,23.96351 l -23.82235,0 -47.62704,0 0,5.9997 47.62704,0 0,17.98146 z"
           style="fill:url(#linearGradient1874);fill-opacity:1"
           id="path1950"
           inkscape:connector-curvature="0" />
        <g
           style="font-size:14.98460674px;font-style:normal;font-variant:normal;font-weight:600;font-stretch:normal;text-align:start;line-height:100%;letter-spacing:0px;word-spacing:0px;writing-mode:lr-tb;text-anchor:start;fill:#2e597d;fill-opacity:1;stroke:none;font-family:LMSansDemiCond10;-inkscape-font-specification:LMSansDemiCond10 Semi-Bold"
           id="text3007"
           transform="translate(23.303761,239.39318)">
          <path
             d="m 257.61072,-78.463092 0,6.04067 c -1.82628,-1.006746 -3.66424,-1.755975 -5.51387,-2.247691 -1.82627,-0.515061 -3.67594,-0.772609 -5.54899,-0.772644 -4.19102,3.5e-5 -7.44549,1.3346 -9.7634,4.0037 -2.31795,2.645748 -3.47691,6.368483 -3.4769,11.168215 -1e-5,4.799772 1.15895,8.534214 3.4769,11.203336 2.31791,2.645726 5.57238,3.968584 9.7634,3.96858 1.87305,4e-6 3.72272,-0.245837 5.54899,-0.737524 1.84963,-0.51509 3.68759,-1.276027 5.51387,-2.282811 l 0,5.970429 c -1.80287,0.842885 -3.67594,1.475048 -5.61923,1.89649 -1.91993,0.421441 -3.9686,0.632162 -6.14603,0.632163 -5.92362,-10e-7 -10.62972,-1.861369 -14.11831,-5.584108 -3.48861,-3.72273 -5.23291,-8.74491 -5.23291,-15.066555 0,-6.415259 1.75601,-11.460852 5.26803,-15.136795 3.53542,-3.675873 8.37029,-5.513827 14.50463,-5.513867 1.99012,4e-5 3.93343,0.210761 5.82995,0.632163 1.89646,0.398068 3.73441,1.006817 5.51387,1.826249"
             style="font-size:71.92611694px;font-weight:normal;fill:#2e597d;font-family:Bitstream Vera Sans;-inkscape-font-specification:Bitstream Vera Sans"
             id="path3022"
             inkscape:connector-curvature="0" />
          <path
             d="m 286.79558,-60.411322 c -5.22122,1.9e-5 -8.83859,0.597062 -10.85213,1.791129 -2.01357,1.194102 -3.02035,3.23107 -3.02034,6.11091 -1e-5,2.294527 0.74922,4.120775 2.24769,5.478747 1.52186,1.334572 3.58225,2.001854 6.18116,2.00185 3.58223,4e-6 6.45038,-1.264321 8.60444,-3.792979 2.17742,-2.552055 3.26614,-5.935295 3.26617,-10.14973 l 0,-1.439927 -6.42699,0 m 12.88911,-2.669134 0,22.441792 -6.46212,0 0,-5.97043 c -1.47507,2.388176 -3.31303,4.155889 -5.51386,5.303146 -2.20089,1.123846 -4.89343,1.685768 -8.07764,1.685769 -4.02713,-10e-7 -7.23477,-1.123846 -9.62293,-3.371537 -2.36476,-2.2711 -3.54714,-5.303139 -3.54714,-9.096125 0,-4.425126 1.47504,-7.761539 4.42514,-10.00925 2.9735,-2.247667 7.39864,-3.371512 13.27543,-3.371536 l 9.061,0 0,-0.632164 c -3e-5,-2.973479 -0.98339,-5.267995 -2.95009,-6.883554 -1.94334,-1.638907 -4.68271,-2.458377 -8.21812,-2.458412 -2.24771,3.5e-5 -4.43687,0.269289 -6.56747,0.807764 -2.13064,0.538543 -4.17931,1.346306 -6.14603,2.423292 l 0,-5.97043 c 2.36474,-0.913086 4.65926,-1.592075 6.88355,-2.03697 2.22426,-0.468229 4.39,-0.702363 6.49723,-0.702403 5.68944,4e-5 9.93898,1.475086 12.74863,4.425142 2.80957,2.950127 4.21438,7.422092 4.21442,13.415906"
             style="font-size:71.92611694px;font-weight:normal;fill:#2e597d;font-family:Bitstream Vera Sans;-inkscape-font-specification:Bitstream Vera Sans"
             id="path3024"
             inkscape:connector-curvature="0" />
          <path
             d="m 345.72724,-64.379902 0,23.741238 -6.46212,0 0,-23.530517 c -3e-5,-3.722711 -0.72585,-6.508909 -2.17745,-8.358601 -1.45166,-1.849629 -3.62911,-2.77446 -6.53235,-2.774494 -3.48863,3.4e-5 -6.2397,1.112172 -8.25324,3.336416 -2.01357,2.224307 -3.02035,5.256346 -3.02034,9.096125 l 0,22.231071 -6.49723,0 0,-39.334595 6.49723,0 0,6.11091 c 1.54528,-2.364723 3.35982,-4.132437 5.44363,-5.303146 2.10719,-1.170633 4.53048,-1.755969 7.26988,-1.756009 4.51876,4e-5 7.93712,1.404846 10.25509,4.214421 2.31789,2.786234 3.47686,6.89529 3.4769,12.327181"
             style="font-size:71.92611694px;font-weight:normal;fill:#2e597d;font-family:Bitstream Vera Sans;-inkscape-font-specification:Bitstream Vera Sans"
             id="path3026"
             inkscape:connector-curvature="0" />
          <path
             d="m 376.56275,-60.411322 c -5.22122,1.9e-5 -8.83859,0.597062 -10.85214,1.791129 -2.01356,1.194102 -3.02034,3.23107 -3.02033,6.11091 -10e-6,2.294527 0.74922,4.120775 2.24769,5.478747 1.52186,1.334572 3.58224,2.001854 6.18115,2.00185 3.58224,4e-6 6.45038,-1.264321 8.60444,-3.792979 2.17743,-2.552055 3.26615,-5.935295 3.26618,-10.14973 l 0,-1.439927 -6.42699,0 m 12.8891,-2.669134 0,22.441792 -6.46211,0 0,-5.97043 c -1.47508,2.388176 -3.31303,4.155889 -5.51387,5.303146 -2.20088,1.123846 -4.89343,1.685768 -8.07764,1.685769 -4.02712,-10e-7 -7.23476,-1.123846 -9.62292,-3.371537 -2.36477,-2.2711 -3.54715,-5.303139 -3.54714,-9.096125 -10e-6,-4.425126 1.47504,-7.761539 4.42514,-10.00925 2.9735,-2.247667 7.39863,-3.371512 13.27543,-3.371536 l 9.061,0 0,-0.632164 c -3e-5,-2.973479 -0.98339,-5.267995 -2.95009,-6.883554 -1.94335,-1.638907 -4.68272,-2.458377 -8.21812,-2.458412 -2.24771,3.5e-5 -4.43687,0.269289 -6.56748,0.807764 -2.13063,0.538543 -4.17931,1.346306 -6.14603,2.423292 l 0,-5.97043 c 2.36475,-0.913086 4.65927,-1.592075 6.88356,-2.03697 2.22426,-0.468229 4.39,-0.702363 6.49723,-0.702403 5.68944,4e-5 9.93898,1.475086 12.74862,4.425142 2.80958,2.950127 4.21439,7.422092 4.21442,13.415906"
             style="font-size:71.92611694px;font-weight:normal;fill:#2e597d;font-family:Bitstream Vera Sans;-inkscape-font-specification:Bitstream Vera Sans"
             id="path3028"
             inkscape:connector-curvature="0" />
          <path
             d="m 425.5905,-73.932589 c -0.72584,-0.421409 -1.5219,-0.725783 -2.38817,-0.913125 -0.84291,-0.210687 -1.77945,-0.316047 -2.80961,-0.316082 -3.65252,3.5e-5 -6.46213,1.19412 -8.42884,3.582258 -1.94333,2.364787 -2.91499,5.771441 -2.91498,10.219971 l 0,20.720903 -6.49723,0 0,-39.334595 6.49723,0 0,6.11091 c 1.35797,-2.388136 3.12568,-4.15585 5.30315,-5.303146 2.17743,-1.170633 4.82315,-1.755969 7.93716,-1.756009 0.44483,4e-5 0.93651,0.03516 1.47505,0.10536 0.53848,0.04687 1.13552,0.128814 1.79112,0.245842 l 0.0351,6.637713"
             style="font-size:71.92611694px;font-weight:normal;fill:#2e597d;font-family:Bitstream Vera Sans;-inkscape-font-specification:Bitstream Vera Sans"
             id="path3030"
             inkscape:connector-curvature="0" />
          <path
             d="m 432.43894,-79.973259 6.46212,0 0,39.334595 -6.46212,0 0,-39.334595 m 0,-15.312396 6.46212,0 0,8.183 -6.46212,0 0,-8.183"
             style="font-size:71.92611694px;font-weight:normal;fill:#2e597d;font-family:Bitstream Vera Sans;-inkscape-font-specification:Bitstream Vera Sans"
             id="path3032"
             inkscape:connector-curvature="0" />
          <path
             d="m 470.26337,-60.411322 c -5.22122,1.9e-5 -8.83859,0.597062 -10.85213,1.791129 -2.01357,1.194102 -3.02035,3.23107 -3.02034,6.11091 -10e-6,2.294527 0.74922,4.120775 2.24769,5.478747 1.52186,1.334572 3.58224,2.001854 6.18115,2.00185 3.58224,4e-6 6.45038,-1.264321 8.60445,-3.792979 2.17742,-2.552055 3.26614,-5.935295 3.26617,-10.14973 l 0,-1.439927 -6.42699,0 m 12.88911,-2.669134 0,22.441792 -6.46212,0 0,-5.97043 c -1.47507,2.388176 -3.31303,4.155889 -5.51386,5.303146 -2.20089,1.123846 -4.89344,1.685768 -8.07764,1.685769 -4.02713,-10e-7 -7.23477,-1.123846 -9.62293,-3.371537 -2.36477,-2.2711 -3.54714,-5.303139 -3.54714,-9.096125 0,-4.425126 1.47504,-7.761539 4.42514,-10.00925 2.9735,-2.247667 7.39864,-3.371512 13.27543,-3.371536 l 9.061,0 0,-0.632164 c -3e-5,-2.973479 -0.98339,-5.267995 -2.95009,-6.883554 -1.94334,-1.638907 -4.68271,-2.458377 -8.21812,-2.458412 -2.24771,3.5e-5 -4.43687,0.269289 -6.56747,0.807764 -2.13064,0.538543 -4.17931,1.346306 -6.14604,2.423292 l 0,-5.97043 c 2.36475,-0.913086 4.65927,-1.592075 6.88356,-2.03697 2.22426,-0.468229 4.39,-0.702363 6.49723,-0.702403 5.68944,4e-5 9.93898,1.475086 12.74862,4.425142 2.80958,2.950127 4.21439,7.422092 4.21443,13.415906"
             style="font-size:71.92611694px;font-weight:normal;fill:#2e597d;font-family:Bitstream Vera Sans;-inkscape-font-specification:Bitstream Vera Sans"
             id="path3034"
             inkscape:connector-curvature="0" />
          <path
             d="m 521.57394,-78.814294 0,6.110911 c -1.82628,-0.936505 -3.72277,-1.638908 -5.68947,-2.107211 -1.96675,-0.468234 -4.00372,-0.702368 -6.11091,-0.702403 -3.20766,3.5e-5 -5.61924,0.491717 -7.23476,1.475047 -1.59212,0.983397 -2.38818,2.458443 -2.38817,4.425142 -10e-6,1.498488 0.57362,2.680866 1.72089,3.547138 1.14725,0.842908 3.45347,1.650672 6.91867,2.423292 l 2.21258,0.491682 c 4.58901,0.983386 7.84347,2.376485 9.7634,4.179301 1.94329,1.779438 2.91494,4.272968 2.91498,7.480597 -4e-5,3.652505 -1.45167,6.544063 -4.3549,8.674683 -2.87988,2.130624 -6.84846,3.195935 -11.90574,3.195936 -2.10723,-10e-7 -4.30809,-0.210722 -6.60259,-0.632163 -2.27112,-0.398029 -4.67099,-1.006778 -7.19964,-1.826249 l 0,-6.672834 c 2.38817,1.24092 4.74121,2.177457 7.05915,2.809614 2.31792,0.608755 4.61244,0.913129 6.88356,0.913125 3.04373,4e-6 5.38507,-0.515091 7.02403,-1.545288 1.63892,-1.053598 2.45839,-2.528644 2.45842,-4.425142 -3e-5,-1.755996 -0.59707,-3.102268 -1.79113,-4.03882 -1.1707,-0.936522 -3.75788,-1.837939 -7.76156,-2.704253 l -2.24769,-0.526803 c -4.00371,-0.842865 -6.89527,-2.130604 -8.67469,-3.863219 -1.77942,-1.755985 -2.66913,-4.155862 -2.66913,-7.199636 0,-3.699292 1.31115,-6.55573 3.93346,-8.569322 2.6223,-2.013518 6.34503,-3.020295 11.16822,-3.020335 2.38815,4e-5 4.63583,0.175641 6.74307,0.526802 2.10718,0.351242 4.0505,0.878044 5.82995,1.580408"
             style="font-size:71.92611694px;font-weight:normal;fill:#2e597d;font-family:Bitstream Vera Sans;-inkscape-font-specification:Bitstream Vera Sans"
             id="path3036"
             inkscape:connector-curvature="0" />
        </g>
        <flowRoot
           xml:space="preserve"
           id="flowRoot3011"
           style="font-size:144px;font-style:normal;font-variant:normal;font-weight:normal;font-stretch:normal;text-align:start;line-height:100%;letter-spacing:0px;word-spacing:0px;writing-mode:lr-tb;text-anchor:start;fill:#000000;fill-opacity:1;stroke:none;font-family:Bitstream Vera Sans;-inkscape-font-specification:Bitstream Vera Sans"
           transform="matrix(0.83274278,0,0,0.83274278,18.115868,7.3051257)"><flowRegion
             id="flowRegion3013"><rect
               id="rect3015"
               width="36.888454"
               height="68.688843"
               x="920.93933"
               y="156.65363"
               style="font-size:144px;font-style:normal;font-variant:normal;font-weight:normal;font-stretch:normal;text-align:start;line-height:100%;writing-mode:lr-tb;text-anchor:start;font-family:Bitstream Vera Sans;-inkscape-font-specification:Bitstream Vera Sans" /></flowRegion><flowPara
             id="flowPara3019">powered</flowPara></flowRoot>      </g>
    </g>
  </g>
</svg>
