<svg xmlns="http://www.w3.org/2000/svg" xmlns:xlink="http://www.w3.org/1999/xlink" width="190.705" height="37.174" viewBox="0 0 50.457383 9.8355748"><defs><linearGradient id="a"><stop offset="0" stop-color="#003d99"/><stop offset=".127" stop-color="#2b6bc7"/><stop offset=".501" stop-color="#00a5a0"/><stop offset=".886" stop-color="#02982c"/><stop offset="1" stop-color="#18c648"/></linearGradient><linearGradient xlink:href="#a" id="b" x1="65.064" y1="909.289" x2="221.686" y2="909.289" gradientUnits="userSpaceOnUse"/><linearGradient xlink:href="#a" id="d" gradientUnits="userSpaceOnUse" x1="65.064" y1="909.289" x2="221.686" y2="909.289"/><linearGradient xlink:href="#a" id="c" gradientUnits="userSpaceOnUse" x1="65.064" y1="909.289" x2="221.686" y2="909.289"/><linearGradient xlink:href="#a" id="e" x1="47.3" y1="912.982" x2="216.153" y2="912.982" gradientUnits="userSpaceOnUse"/><linearGradient xlink:href="#a" id="f" gradientUnits="userSpaceOnUse" x1="47.3" y1="912.982" x2="216.153" y2="912.982"/></defs><g transform="matrix(.29213 0 0 .29213 -19.005 -273.07)" fill="url(#d)" font-family="sans-serif" letter-spacing="0" word-spacing="0"><path style="-inkscape-font-specification:'Fira Sans Light'" d="M11.457 52.516c-1.625 0-3.07.304-4.336.91-1.239.578-2.218 1.402-2.933 2.476-.689 1.047-1.032 2.231-1.032 3.553 0 1.983.619 3.553 1.858 4.71C6.253 65.32 8.32 66.34 11.21 67.22c1.735.55 3.07 1.101 4.006 1.652.964.523 1.651 1.157 2.064 1.9.44.744.662 1.694.662 2.85 0 1.845-.647 3.305-1.941 4.379-1.267 1.074-2.92 1.61-4.957 1.61-1.57 0-2.947-.263-4.13-.786-1.185-.523-2.314-1.28-3.388-2.271l-1.486 1.611c2.506 2.368 5.52 3.553 9.045 3.553 1.872 0 3.512-.345 4.916-1.033 1.432-.689 2.534-1.652 3.305-2.891.77-1.24 1.156-2.657 1.156-4.254 0-1.597-.318-2.92-.951-3.967-.634-1.046-1.527-1.9-2.684-2.56-1.156-.661-2.672-1.28-4.545-1.858-1.735-.523-3.07-1.033-4.006-1.529-.936-.523-1.61-1.101-2.023-1.734-.386-.661-.578-1.488-.578-2.479 0-1.46.537-2.615 1.611-3.469 1.074-.88 2.492-1.322 4.254-1.322 1.294 0 2.45.206 3.469.62 1.019.412 2.051 1.086 3.097 2.023l1.489-1.61c-1.184-1.074-2.411-1.86-3.678-2.355-1.24-.523-2.726-.785-4.461-.785zm147.346.826c-1.487 0-2.836.262-4.047.785-1.212.496-2.37 1.266-3.47 2.312l1.28 1.489c.992-.909 1.968-1.556 2.932-1.942.964-.413 2.025-.62 3.182-.62 1.597 0 2.876.454 3.84 1.363.963.88 1.447 2.079 1.447 3.593 0 1.763-.551 3.126-1.653 4.09-1.101.936-2.438 1.404-4.007 1.404h-1.32l-.333 1.942h1.819c4.13 0 6.195 1.928 6.195 5.783 0 1.845-.564 3.332-1.693 4.461-1.13 1.129-2.686 1.693-4.668 1.693-1.24 0-2.368-.221-3.387-.662-.991-.468-1.954-1.211-2.89-2.23l-1.53 1.363c2.065 2.368 4.696 3.553 7.89 3.553 1.735 0 3.263-.345 4.585-1.033 1.349-.716 2.381-1.693 3.097-2.932.716-1.24 1.074-2.659 1.074-4.256 0-2.093-.59-3.73-1.775-4.914-1.156-1.212-2.643-1.859-4.46-1.941 1.624-.276 2.932-.965 3.923-2.067 1.019-1.129 1.527-2.587 1.527-4.377 0-1.294-.302-2.452-.908-3.47-.606-1.047-1.488-1.873-2.644-2.479-1.13-.606-2.464-.908-4.006-.908zm11.082.043v1.545h3.736V66.52h1.813V54.93h3.64l.192-1.545zm11.478 0l-1.086 13.136h1.717l.438-5.796c.165-2.085.248-3.921.248-5.51l2.994 9.82h1.697l2.84-9.8c.025 1.245.133 3.03.324 5.357l.457 5.93h1.754l-1.086-13.137h-2.459l-2.633 9.553-2.763-9.553zm-48.52.412v2.023h12.846l-10.574 25.032 2.23.742 10.823-25.938v-1.86zm-65.618.412l-2.397.289v5.164h-3.635v1.942h3.635v14.414c0 1.845.468 3.264 1.404 4.255.937.964 2.231 1.446 3.883 1.446a8.076 8.076 0 0 0 4.543-1.364l-.949-1.693c-1.074.661-2.176.99-3.305.99-1.074 0-1.871-.302-2.394-.908-.523-.633-.785-1.583-.785-2.85v-14.29h5.287l.289-1.942h-5.576zm-16.309 4.998c-1.35 0-2.574.249-3.676.744-1.074.468-1.929 1.129-2.562 1.983a4.728 4.728 0 0 0-.95 2.89c0 1.515.496 2.742 1.487 3.678 1.019.909 2.671 1.666 4.957 2.271 1.542.441 2.713.853 3.512 1.239.798.385 1.363.853 1.693 1.404.33.55.494 1.28.494 2.19 0 1.266-.495 2.272-1.486 3.015-.964.716-2.245 1.074-3.842 1.074-1.267 0-2.409-.192-3.428-.578-.991-.385-1.954-.965-2.89-1.736l-1.364 1.57a11.898 11.898 0 0 0 3.387 2.065c1.24.468 2.686.703 4.338.703 2.23 0 4.09-.565 5.576-1.694 1.487-1.129 2.229-2.658 2.229-4.586 0-1.79-.55-3.165-1.65-4.128-1.075-.964-2.837-1.764-5.288-2.397-1.982-.523-3.36-1.074-4.13-1.652-.744-.579-1.116-1.391-1.116-2.438 0-1.101.441-1.981 1.322-2.642.881-.661 2.037-.993 3.469-.993 1.074 0 2.037.166 2.89.497.882.302 1.804.813 2.768 1.529l1.157-1.611c-1.047-.799-2.12-1.392-3.221-1.778-1.102-.413-2.327-.619-3.676-.619zm34.525 0c-1.734 0-3.264.482-4.586 1.445-1.294.937-2.297 2.273-3.013 4.008-.689 1.707-1.033 3.703-1.033 5.988 0 3.47.812 6.182 2.437 8.137 1.625 1.955 3.869 2.934 6.733 2.934 1.376 0 2.628-.222 3.757-.662 1.13-.44 2.231-1.102 3.305-1.983l-1.115-1.527c-1.02.743-1.969 1.294-2.85 1.652-.853.33-1.845.496-2.974.496-1.956 0-3.539-.676-4.75-2.025-1.185-1.377-1.845-3.469-1.983-6.277h14.416c.055-.551.082-1.129.082-1.735 0-3.25-.716-5.797-2.148-7.642-1.432-1.873-3.524-2.809-6.278-2.809zm24.21 0c-1.35 0-2.59.372-3.72 1.115-1.1.716-2.077 1.708-2.931 2.975l-.207-3.635h-2.064v21.602h2.394V65.609c.881-1.432 1.804-2.533 2.768-3.304a5.144 5.144 0 0 1 3.304-1.157c1.157 0 2.053.415 2.686 1.24.66.8.99 2.051.99 3.758v15.118h2.397V65.609c.908-1.432 1.844-2.533 2.808-3.304.964-.771 2.052-1.157 3.264-1.157 1.156 0 2.05.415 2.683 1.24.661.8.993 2.051.993 3.758v15.118h2.394V65.816c0-2.037-.508-3.648-1.527-4.832-.991-1.184-2.355-1.777-4.09-1.777-2.644 0-4.914 1.433-6.814 4.297-.33-1.377-.965-2.438-1.9-3.182-.91-.743-2.052-1.115-3.429-1.115zm-87.143.455l7.517 21.602h.827c-.496 1.404-.991 2.492-1.487 3.263a5.806 5.806 0 0 1-1.941 1.983c-.799.523-1.914.964-3.346 1.322l.248 1.857c1.735-.33 3.153-.852 4.254-1.568a8.494 8.494 0 0 0 2.686-2.644c.688-1.074 1.32-2.45 1.898-4.13l7.395-21.685h-2.52l-6.402 19.826-6.526-19.826zm63.015 1.527c1.983 0 3.47.69 4.461 2.067 1.02 1.35 1.528 3.235 1.528 5.658v.62H79.328c.138-2.81.758-4.901 1.86-6.278 1.128-1.377 2.573-2.067 4.335-2.067z" transform="matrix(.9057 0 0 .9057 63.207 887.193)" font-weight="300" font-family="Fira Sans" fill="url(#f)" font-size="36.572"/></g></svg>