<?xml version="1.0" encoding="UTF-8" standalone="no"?>
<!-- Created with Inkscape (http://www.inkscape.org/) -->

<svg
   xmlns:dc="http://purl.org/dc/elements/1.1/"
   xmlns:cc="http://creativecommons.org/ns#"
   xmlns:rdf="http://www.w3.org/1999/02/22-rdf-syntax-ns#"
   xmlns:svg="http://www.w3.org/2000/svg"
   xmlns="http://www.w3.org/2000/svg"
   xmlns:sodipodi="http://sodipodi.sourceforge.net/DTD/sodipodi-0.dtd"
   xmlns:inkscape="http://www.inkscape.org/namespaces/inkscape"
   id="svg2"
   version="1.1"
   inkscape:version="0.48.5 r10040"
   width="1954.3337"
   height="976.66693"
   xml:space="preserve"
   sodipodi:docname="ull.svg"><metadata
     id="metadata8"><rdf:RDF><cc:Work
         rdf:about=""><dc:format>image/svg+xml</dc:format><dc:type
           rdf:resource="http://purl.org/dc/dcmitype/StillImage" /><dc:title /></cc:Work></rdf:RDF></metadata><defs
     id="defs6" /><sodipodi:namedview
     pagecolor="#ffffff"
     bordercolor="#666666"
     borderopacity="1"
     objecttolerance="10"
     gridtolerance="10"
     guidetolerance="10"
     inkscape:pageopacity="0"
     inkscape:pageshadow="2"
     inkscape:window-width="1436"
     inkscape:window-height="861"
     id="namedview4"
     showgrid="false"
     inkscape:zoom="0.2571246"
     inkscape:cx="-92.21267"
     inkscape:cy="488.49271"
     inkscape:window-x="1366"
     inkscape:window-y="18"
     inkscape:window-maximized="0"
     inkscape:current-layer="g10"
     fit-margin-top="306"
     fit-margin-bottom="306"
     fit-margin-left="0"
     fit-margin-right="0" /><g
     id="g10"
     inkscape:groupmode="layer"
     inkscape:label="ink_ext_XXXXXX"
     transform="matrix(1.25,0,0,-1.25,-0.81729015,670.67421)"><g
       id="g12"
       transform="scale(0.10668,0.10668)"><path
         d="m 8312.41,2430.17 139.81,0 0,-416 c 0,-68.87 11.59,-119.51 34.78,-151.56 23.02,-32.22 59.33,-48.25 108.6,-48.25 49.61,0 87.12,17.22 112.35,51.66 25.41,34.44 38.02,85.59 38.02,153.1 l 0,411.05 131.79,0 0,-412.08 c 0,-103.82 -23.7,-181.91 -71.1,-233.91 -47.56,-52.16 -118.48,-78.25 -213.11,-78.25 -92.91,0 -162.98,25.75 -210.21,77.4 -47.23,51.66 -70.93,127.87 -70.93,228.8 l 0,418.04"
         style="fill:#6b737a;fill-opacity:1;fill-rule:nonzero;stroke:none"
         id="path14"
         inkscape:connector-curvature="0" /><path
         d="m 9527.66,2029.18 0,-308.76 -134.34,0 0,280.28 c 0,47.91 -8.18,83.21 -24.72,106.05 -16.54,22.84 -42.28,34.27 -77.24,34.27 -37.33,0 -67,-14.5 -88.99,-43.64 -21.99,-29.16 -32.91,-68.88 -32.91,-119.18 l 0,-257.78 -132.81,0 0,518.46 121.39,0 0,-93.94 c 19.61,35.29 45.01,62.06 76.04,80.13 31.2,18.24 67.35,27.28 108.26,27.28 60.87,0 107.07,-18.93 138.44,-56.6 31.2,-37.86 46.88,-93.43 46.88,-166.57"
         style="fill:#6b737a;fill-opacity:1;fill-rule:nonzero;stroke:none"
         id="path16"
         inkscape:connector-curvature="0" /><path
         d="m 9670.88,2238.88 132.81,0 0,-518.46 -132.81,0 0,518.46 z m 0,232.21 132.81,0 0,-128.89 -132.81,0 0,128.89"
         style="fill:#6b737a;fill-opacity:1;fill-rule:nonzero;stroke:none"
         id="path18"
         inkscape:connector-curvature="0" /><path
         d="m 9891.66,2238.88 142.84,0 124,-398.61 126.8,398.61 132.8,0 -188.4,-518.46 -153.2,0 -184.84,518.46"
         style="fill:#6b737a;fill-opacity:1;fill-rule:nonzero;stroke:none"
         id="path20"
         inkscape:connector-curvature="0" /><path
         d="m 10956,1985.19 0,-41.94 -365,0 c 3.6,-43.64 20.6,-77.91 50.6,-103.14 30.2,-25.07 69.9,-37.68 119.2,-37.68 27,0 53.2,3.23 78.6,9.54 25.4,6.31 50,15.69 73.7,28.3 l 0,-102.29 c -25.3,-10.4 -52.6,-18.07 -81.9,-23.36 -29.3,-5.11 -60.7,-7.67 -93.9,-7.67 -86.6,0 -154.3,24.89 -203.1,74.67 -48.7,49.79 -73.1,118.84 -73.1,206.98 0,78.6 23.7,142.19 71.1,190.78 47.6,48.58 109.3,72.97 185.6,72.97 75.2,0 133.7,-23.36 175.5,-70.24 41.8,-46.72 62.7,-112.36 62.7,-196.92 z m -120.3,40.92 c -3.6,43.98 -16.1,78.08 -37,102.63 -21,24.38 -48.3,36.66 -81.9,36.66 -34.2,0 -62.5,-12.28 -84.9,-36.66 -22.3,-24.55 -36,-58.65 -40.9,-102.63 l 244.7,0"
         style="fill:#6b737a;fill-opacity:1;fill-rule:nonzero;stroke:none"
         id="path22"
         inkscape:connector-curvature="0" /><path
         d="m 11379.2,2246.38 -5,-119.86 c -7,2.39 -14.3,4.1 -22,5.29 -7.6,1.2 -15.6,1.71 -24,1.71 -44,0 -77.4,-14.5 -100.4,-43.65 -23,-29.15 -34.5,-71.6 -34.5,-127.18 l 0,-242.27 -132.8,0 0,518.46 119.4,0 0,-103.32 c 16.7,38.53 37.7,67.52 63.2,86.78 25.4,19.27 55.4,28.98 90,28.98 6.2,0 12.8,-0.34 20.2,-1.19 7.3,-0.85 15.8,-2.05 25.9,-3.75"
         style="fill:#6b737a;fill-opacity:1;fill-rule:nonzero;stroke:none"
         id="path24"
         inkscape:connector-curvature="0" /><path
         d="m 11793.6,2222.85 -10,-98.37 c -22.9,11.93 -45.5,20.97 -67.9,26.94 -22.3,5.97 -44.5,9.03 -66.5,9.03 -23.8,0 -42.2,-4.09 -55,-12.27 -12.8,-8.19 -19.3,-19.78 -19.3,-35.12 0,-23.02 27.1,-46.55 81.3,-70.42 6,-2.72 10.6,-4.77 13.5,-5.96 55.7,-24.72 93.9,-48.93 114.9,-72.8 21,-23.7 31.5,-53.19 31.5,-88.15 0,-49.27 -19.6,-88.31 -58.9,-117.12 -39.3,-28.81 -92.8,-43.13 -160.8,-43.13 -28.7,0 -56.5,2.21 -83.7,6.82 -27.1,4.43 -52.9,10.91 -77.1,19.6 l 7.5,102.47 c 24.6,-12.28 49.8,-21.66 75.5,-27.79 26,-6.14 51.5,-9.21 76.8,-9.21 26.2,0 46.7,4.43 61.2,13.3 14.5,8.69 21.6,20.97 21.6,36.65 0,25.58 -34.3,55.59 -102.8,89.85 l -2.5,1.54 c -51.2,25.4 -85.8,48.75 -103.9,70.41 -17.9,21.65 -26.9,47.91 -26.9,78.93 0,45.52 19.3,82.69 57.6,111.34 38.5,28.64 89,42.96 151.6,42.96 16.7,0 35.1,-2.05 55.4,-5.97 20.4,-4.09 49.3,-11.76 86.9,-23.53"
         style="fill:#6b737a;fill-opacity:1;fill-rule:nonzero;stroke:none"
         id="path26"
         inkscape:connector-curvature="0" /><path
         d="m 11929,2238.88 132.8,0 0,-518.46 -132.8,0 0,518.46 z m 0,232.21 132.8,0 0,-128.89 -132.8,0 0,128.89"
         style="fill:#6b737a;fill-opacity:1;fill-rule:nonzero;stroke:none"
         id="path28"
         inkscape:connector-curvature="0" /><path
         d="m 12444.1,2151.93 c -36,0 -65.2,-15.52 -87.7,-46.72 -22.5,-31.02 -33.7,-72.11 -33.7,-123.09 0,-51.66 11,-92.4 33.4,-122.58 22.3,-30.18 52.8,-45.18 91.4,-45.18 39,0 70.2,15.18 93.7,45.52 23.4,30.18 35.2,70.92 35.2,122.24 0,52.68 -11.8,94.11 -35.5,124.29 -23.5,30.34 -55.9,45.52 -96.8,45.52 z m 133.3,333.65 132.8,0 0,-765.16 -119.9,0 0,104.51 c -20.9,-37.68 -47,-65.81 -78.4,-84.56 -31.4,-18.58 -67.5,-27.96 -108.9,-27.96 -63.6,0 -116,25.74 -157.1,77.23 -41,51.32 -61.7,117.81 -61.7,198.96 0,78.94 20,142.7 59.7,191.12 39.9,48.42 91.9,72.63 156.2,72.63 39.2,0 73.5,-7.51 102.6,-22.51 29.2,-15 54,-37.84 74.7,-68.36 l 0,324.1"
         style="fill:#6b737a;fill-opacity:1;fill-rule:nonzero;stroke:none"
         id="path30"
         inkscape:connector-curvature="0" /><path
         d="m 13120.6,1968.31 c -54.4,0 -95.2,-7.5 -122.6,-22.67 -27.5,-15.18 -41.3,-37.85 -41.3,-67.86 0,-22.5 7.9,-40.92 23.5,-55.07 15.6,-14.15 36.2,-21.31 61.4,-21.31 36.7,0 66.7,12.96 90.4,38.71 23.7,25.91 35.4,59.32 35.4,100.24 l 0,27.96 -46.8,0 z m 174.7,47.91 0,-295.8 -117.8,0 -2,84.05 c -21.7,-32.05 -47.3,-56.26 -76.9,-72.79 -29.7,-16.54 -62.8,-24.73 -98.9,-24.73 -52,0 -94,15.17 -126,45.69 -31.9,30.52 -47.9,69.9 -47.9,118.15 0,57.63 22.8,100.93 68.3,129.75 45.7,28.81 113.9,43.13 205,43.13 l 68.3,0 0,7.5 c 0,35.29 -11,62.57 -33.4,82.18 -22.3,19.43 -53.9,29.15 -94.4,29.15 -23,0 -46.9,-3.41 -71.8,-10.4 -24.7,-6.99 -50.3,-17.56 -76.6,-31.54 l -2,94.79 c 31,12.79 61.4,21.99 91.4,27.96 30,5.97 60.2,9.04 90.3,9.04 78.1,0 134.9,-18.93 170.7,-56.6 35.8,-37.86 53.7,-97.7 53.7,-179.53"
         style="fill:#6b737a;fill-opacity:1;fill-rule:nonzero;stroke:none"
         id="path32"
         inkscape:connector-curvature="0" /><path
         d="m 13669.4,2151.93 c -36,0 -65.2,-15.52 -87.7,-46.72 -22.5,-31.02 -33.7,-72.11 -33.7,-123.09 0,-51.66 11.1,-92.4 33.4,-122.58 22.3,-30.18 52.8,-45.18 91.4,-45.18 39,0 70.2,15.18 93.7,45.52 23.4,30.18 35.2,70.92 35.2,122.24 0,52.68 -11.8,94.11 -35.5,124.29 -23.5,30.34 -55.9,45.52 -96.8,45.52 z m 133.3,333.65 132.8,0 0,-765.16 -119.9,0 0,104.51 c -20.9,-37.68 -47,-65.81 -78.4,-84.56 -31.4,-18.58 -67.5,-27.96 -108.9,-27.96 -63.6,0 -116,25.74 -157,77.23 -41.1,51.32 -61.8,117.81 -61.8,198.96 0,78.94 20,142.7 59.7,191.12 39.9,48.42 91.9,72.63 156.2,72.63 39.2,0 73.5,-7.51 102.6,-22.51 29.2,-15 54.1,-37.84 74.7,-68.36 l 0,324.1"
         style="fill:#6b737a;fill-opacity:1;fill-rule:nonzero;stroke:none"
         id="path34"
         inkscape:connector-curvature="0" /><path
         d="m 8544.29,908.039 c -35.98,0 -65.14,-15.516 -87.64,-46.715 -22.5,-31.027 -33.76,-72.117 -33.76,-123.09 0,-51.66 11.09,-92.406 33.42,-122.582 22.33,-30.179 52.85,-45.179 91.38,-45.179 39.04,0 70.24,15.172 93.77,45.519 23.36,30.176 35.12,70.922 35.12,122.242 0,52.68 -11.76,94.106 -35.46,124.286 -23.53,30.343 -55.92,45.519 -96.83,45.519 z m 133.32,333.651 132.81,0 0,-765.159 -119.86,0 0,104.512 c -20.97,-37.68 -47.05,-65.813 -78.42,-84.566 -31.37,-18.582 -67.52,-27.961 -108.95,-27.961 -63.59,0 -115.93,25.746 -157.01,77.234 -41.09,51.316 -61.72,117.805 -61.72,198.961 0,78.934 19.95,142.699 59.67,191.117 39.89,48.418 91.89,72.632 156.17,72.632 39.21,0 73.48,-7.51 102.63,-22.507 29.15,-15.004 54.05,-37.848 74.68,-68.367 l 0,324.104"
         style="fill:#6b737a;fill-opacity:1;fill-rule:nonzero;stroke:none"
         id="path36"
         inkscape:connector-curvature="0" /><path
         d="m 9423.84,741.301 0,-41.938 -365.02,0 c 3.58,-43.648 20.63,-77.918 50.63,-103.148 30.18,-25.063 69.91,-37.68 119.18,-37.68 26.94,0 53.19,3.238 78.59,9.547 25.4,6.309 49.96,15.688 73.66,28.301 l 0,-102.289 c -25.24,-10.403 -52.52,-18.074 -81.84,-23.36 -29.33,-5.113 -60.7,-7.672 -93.94,-7.672 -86.61,0 -154.3,24.891 -203.05,74.672 -48.76,49.786 -73.14,118.832 -73.14,206.977 0,78.594 23.7,142.187 71.09,190.777 47.57,48.59 109.29,72.972 185.66,72.972 75.19,0 133.67,-23.358 175.44,-70.241 41.77,-46.719 62.74,-112.356 62.74,-196.918 z m -120.37,40.918 c -3.58,43.988 -16.02,78.082 -36.99,102.636 -20.98,24.379 -48.25,36.653 -81.84,36.653 -34.27,0 -62.57,-12.274 -84.9,-36.653 -22.34,-24.554 -35.97,-58.648 -40.92,-102.636 l 244.65,0"
         style="fill:#6b737a;fill-opacity:1;fill-rule:nonzero;stroke:none"
         id="path38"
         inkscape:connector-curvature="0" /><path
         d="m 9831.99,1186.28 139.8,0 0,-601.319 284.71,0 0,-108.43 -424.51,0 0,709.749"
         style="fill:#6b737a;fill-opacity:1;fill-rule:nonzero;stroke:none"
         id="path40"
         inkscape:connector-curvature="0" /><path
         d="m 10602.3,724.422 c -54.4,0 -95.2,-7.504 -122.6,-22.676 -27.5,-15.172 -41.3,-37.848 -41.3,-67.855 0,-22.5 7.9,-40.914 23.5,-55.067 15.6,-14.152 36.2,-21.312 61.4,-21.312 36.7,0 66.7,12.961 90.4,38.703 23.7,25.914 35.4,59.332 35.4,100.246 l 0,27.961 -46.8,0 z m 174.7,47.906 0,-295.797 -117.8,0 -2,84.051 c -21.7,-32.051 -47.3,-56.262 -76.9,-72.797 -29.7,-16.539 -62.8,-24.723 -98.9,-24.723 -52,0 -94,15.176 -126,45.692 -31.9,30.516 -47.9,69.898 -47.9,118.148 0,57.625 22.8,100.93 68.4,129.743 45.6,28.812 113.8,43.132 204.9,43.132 l 68.3,0 0,7.504 c 0,35.289 -11,62.567 -33.4,82.176 -22.3,19.438 -53.8,29.152 -94.4,29.152 -23,0 -46.9,-3.41 -71.8,-10.398 -24.7,-6.992 -50.3,-17.563 -76.5,-31.543 l -2.1,94.793 c 31,12.785 61.4,21.992 91.4,27.961 30,5.968 60.2,9.038 90.3,9.038 78.1,0 134.9,-18.929 170.7,-56.605 35.8,-37.851 53.7,-97.691 53.7,-179.527"
         style="fill:#6b737a;fill-opacity:1;fill-rule:nonzero;stroke:none"
         id="path42"
         inkscape:connector-curvature="0" /><path
         d="m 11225.9,1186.28 139.8,0 0,-601.319 284.7,0 0,-108.43 -424.5,0 0,709.749"
         style="fill:#6b737a;fill-opacity:1;fill-rule:nonzero;stroke:none"
         id="path44"
         inkscape:connector-curvature="0" /><path
         d="m 11996.2,724.422 c -54.4,0 -95.1,-7.504 -122.6,-22.676 -27.5,-15.172 -41.3,-37.848 -41.3,-67.855 0,-22.5 7.9,-40.914 23.6,-55.067 15.5,-14.152 36.1,-21.312 61.3,-21.312 36.7,0 66.7,12.961 90.4,38.703 23.7,25.914 35.5,59.332 35.5,100.246 l 0,27.961 -46.9,0 z m 174.7,47.906 0,-295.797 -117.8,0 -2,84.051 c -21.7,-32.051 -47.2,-56.262 -76.9,-72.797 -29.7,-16.539 -62.8,-24.723 -98.9,-24.723 -52,0 -93.9,15.176 -126,45.692 -31.9,30.516 -47.9,69.898 -47.9,118.148 0,57.625 22.8,100.93 68.4,129.743 45.7,28.812 113.9,43.132 204.9,43.132 l 68.4,0 0,7.504 c 0,35.289 -11.1,62.567 -33.5,82.176 -22.3,19.438 -53.8,29.152 -94.4,29.152 -23,0 -46.9,-3.41 -71.8,-10.398 -24.7,-6.992 -50.3,-17.563 -76.5,-31.543 l -2.1,94.793 c 31.1,12.785 61.4,21.992 91.4,27.961 30,5.968 60.2,9.038 90.4,9.038 78.1,0 134.8,-18.929 170.6,-56.605 35.8,-37.851 53.7,-97.691 53.7,-179.527"
         style="fill:#6b737a;fill-opacity:1;fill-rule:nonzero;stroke:none"
         id="path46"
         inkscape:connector-curvature="0" /><path
         d="m 12547,907.016 c -36.6,0 -66.1,-14.661 -88.6,-43.985 -22.5,-29.324 -33.8,-68.027 -33.8,-116.273 0,-50.297 11.3,-90.36 33.8,-120.196 22.5,-29.835 52.5,-44.667 90.2,-44.667 36.5,0 66.8,14.66 90.5,44.156 23.9,29.496 35.8,67.511 35.8,114.226 0,51.489 -11.6,92.235 -34.4,122.071 -23.1,29.836 -54.3,44.668 -93.5,44.668 z m 139.3,-1.024 0,88.996 124,0 0,-455.035 c 0,-96.156 -23.9,-167.933 -71.6,-215.328 -47.9,-47.227 -120.2,-70.926 -217.1,-70.926 -31,0 -61.7,2.731 -92.2,8.184 -30.5,5.629 -60.4,13.64 -89.7,24.211 l 8,107.41 c 27.6,-13.641 55.1,-24.039 82.4,-31.199 27.3,-7.164 53.8,-10.743 79.4,-10.743 53.7,0 95.5,14.665 125.7,44.157 30.1,29.496 45.2,70.41 45.2,122.754 l 0,56.429 c -23.4,-32.906 -49.1,-57.285 -77.4,-72.8 -28.4,-15.684 -60.2,-23.524 -95.5,-23.524 -67.2,0 -121.4,24.039 -162.5,71.945 -41.1,47.907 -61.7,111.161 -61.7,189.754 0,79.621 20.6,144.235 61.9,193.848 41.2,49.613 95.1,74.335 161.4,74.335 38.9,0 73.2,-8.35 102.8,-25.237 29.7,-16.879 55.3,-42.621 76.9,-77.231"
         style="fill:#6b737a;fill-opacity:1;fill-rule:nonzero;stroke:none"
         id="path48"
         inkscape:connector-curvature="0" /><path
         d="m 12947.2,994.988 133.8,0 0,-275.34 c 0,-47.906 8.4,-83.199 25.1,-105.875 16.5,-22.675 42.4,-33.925 77.4,-33.925 39.5,0 69.9,15.687 90.7,47.226 20.8,31.539 31.2,77.059 31.2,136.563 l 0,231.351 133.8,0 0,-518.457 -121.9,0 0,99.395 c -19.3,-35.293 -44.5,-62.059 -75.7,-80.129 -31,-18.242 -67.2,-27.281 -108.1,-27.281 -61,0 -107.2,18.925 -138.9,56.605 -31.6,37.848 -47.4,93.258 -47.4,166.055 l 0,303.812"
         style="fill:#6b737a;fill-opacity:1;fill-rule:nonzero;stroke:none"
         id="path50"
         inkscape:connector-curvature="0" /><path
         d="m 14085.9,785.289 0,-308.758 -134.4,0 0,280.281 c 0,47.911 -8.2,83.204 -24.7,106.047 -16.5,22.844 -42.3,34.27 -77.2,34.27 -37.4,0 -67,-14.492 -89,-43.645 -22,-29.156 -32.9,-68.879 -32.9,-119.172 l 0,-257.781 -132.8,0 0,518.457 121.3,0 0,-93.937 c 19.7,35.289 45.1,62.054 76.1,80.129 31.2,18.242 67.3,27.28 108.2,27.28 60.9,0 107.1,-18.929 138.5,-56.605 31.2,-37.851 46.9,-93.429 46.9,-166.566"
         style="fill:#6b737a;fill-opacity:1;fill-rule:nonzero;stroke:none"
         id="path52"
         inkscape:connector-curvature="0" /><path
         d="m 14487,724.422 c -54.4,0 -95.1,-7.504 -122.6,-22.676 -27.4,-15.172 -41.2,-37.848 -41.2,-67.855 0,-22.5 7.8,-40.914 23.5,-55.067 15.5,-14.152 36.2,-21.312 61.4,-21.312 36.6,0 66.7,12.961 90.3,38.703 23.7,25.914 35.5,59.332 35.5,100.246 l 0,27.961 -46.9,0 z m 174.8,47.906 0,-295.797 -117.8,0 -2.1,84.051 c -21.6,-32.051 -47.2,-56.262 -76.9,-72.797 -29.6,-16.539 -62.7,-24.723 -98.8,-24.723 -52,0 -94,15.176 -126,45.692 -31.9,30.516 -48,69.898 -48,118.148 0,57.625 22.9,100.93 68.4,129.743 45.7,28.812 113.9,43.132 204.9,43.132 l 68.4,0 0,7.504 c 0,35.289 -11.1,62.567 -33.4,82.176 -22.3,19.438 -53.9,29.152 -94.5,29.152 -23,0 -46.8,-3.41 -71.7,-10.398 -24.8,-6.992 -50.3,-17.563 -76.6,-31.543 l -2,94.793 c 31,12.785 61.4,21.992 91.4,27.961 30,5.968 60.1,9.038 90.3,9.038 78.1,0 134.9,-18.929 170.7,-56.605 35.8,-37.851 53.7,-97.691 53.7,-179.527"
         style="fill:#6b737a;fill-opacity:1;fill-rule:nonzero;stroke:none"
         id="path54"
         inkscape:connector-curvature="0" /><path
         d="m 7094.46,0.0546875 113.594,0 0,2734.6600125 -113.594,0 0,-2734.6600125 z"
         style="fill:#39434b;fill-opacity:1;fill-rule:evenodd;stroke:none"
         id="path56"
         inkscape:connector-curvature="0" /><path
         d="M 1678.52,84.4102 C 1713.45,384.355 1634.82,213.359 1350.39,95.0664 1219.75,41.6094 1085.86,14.5312 948.875,14.5312 668.23,14.5312 441.586,95.0664 267.402,255.266 93.2188,415.637 6.12891,625.102 6.12891,884.004 c 0,99.402 5.65629,202.116 16.96879,308.866 10.457,106.92 27.4335,214.53 49.207,321.27 l 248.2463,1218.69 366.82,0 C 582.273,2216.45 442.383,1728.76 371.469,1152.69 c -45,-365.526 161.07,-788.737 585.492,-796.792 263.609,-5 691.319,143.86 838.039,822.152 214.04,989.53 108.59,495.07 322.09,1555.12 l 379.2,-0.34 -500.77,-2648.4198 -317,0"
         style="fill:#881c8b;fill-opacity:1;fill-rule:evenodd;stroke:none"
         id="path58"
         inkscape:connector-curvature="0" /><path
         d="m 3220.54,2715.04 0,-2708.05953 1158.53,383.77353 -86.33,437.937 C 4077.4,749.293 3668.81,537.812 3643.71,598.918 c -25.1,61.102 9.93,1407.522 9.93,2129.352 l -433.1,-13.23"
         style="fill:#881c8b;fill-opacity:1;fill-rule:evenodd;stroke:none"
         id="path60"
         inkscape:connector-curvature="0" /><path
         d="m 4916.73,2715.1 0,-2694.307 1152.64,381.824 -85.89,435.719 C 5769.23,759.34 5362.71,548.93 5337.75,609.727 c -24.98,60.793 9.87,1400.383 9.87,2118.543 l -430.89,-13.17"
         style="fill:#881c8b;fill-opacity:1;fill-rule:evenodd;stroke:none"
         id="path62"
         inkscape:connector-curvature="0" /></g></g></svg>