<?xml version="1.0" encoding="UTF-8" standalone="no"?>
<!-- Created with Inkscape (http://www.inkscape.org/) -->

<svg
   xmlns:dc="http://purl.org/dc/elements/1.1/"
   xmlns:cc="http://creativecommons.org/ns#"
   xmlns:rdf="http://www.w3.org/1999/02/22-rdf-syntax-ns#"
   xmlns:svg="http://www.w3.org/2000/svg"
   xmlns="http://www.w3.org/2000/svg"
   xmlns:sodipodi="http://sodipodi.sourceforge.net/DTD/sodipodi-0.dtd"
   xmlns:inkscape="http://www.inkscape.org/namespaces/inkscape"
   width="300"
   height="300"
   viewBox="0 0 300.00001 300.00001"
   id="svg4352"
   version="1.1"
   inkscape:version="0.91 r13725"
   sodipodi:docname="hex_python.svg"
   inkscape:export-filename="/home/jileon/workarea/docs/logos/hex_python.png"
   inkscape:export-xdpi="153.60001"
   inkscape:export-ydpi="153.60001">
  <defs
     id="defs4354">
    <filter
       inkscape:collect="always"
       style="color-interpolation-filters:sRGB"
       id="filter5385"
       x="-0.094092444"
       width="1.1881849"
       y="-0.097986497"
       height="1.195973">
      <feGaussianBlur
         inkscape:collect="always"
         stdDeviation="4.2053521"
         id="feGaussianBlur5387" />
    </filter>
    <filter
       inkscape:collect="always"
       style="color-interpolation-filters:sRGB"
       id="filter7198"
       x="-0.06457679"
       width="1.1291536"
       y="-0.056029022"
       height="1.112058">
      <feGaussianBlur
         inkscape:collect="always"
         stdDeviation="2.6678908"
         id="feGaussianBlur7200" />
    </filter>
  </defs>
  <sodipodi:namedview
     id="base"
     pagecolor="#ffffff"
     bordercolor="#666666"
     borderopacity="1.0"
     inkscape:pageopacity="0.0"
     inkscape:pageshadow="2"
     inkscape:zoom="0.35"
     inkscape:cx="375"
     inkscape:cy="520"
     inkscape:document-units="px"
     inkscape:current-layer="layer1"
     showgrid="false"
     units="px"
     inkscape:window-width="812"
     inkscape:window-height="761"
     inkscape:window-x="339"
     inkscape:window-y="146"
     inkscape:window-maximized="0" />
  <metadata
     id="metadata4357">
    <rdf:RDF>
      <cc:Work
         rdf:about="">
        <dc:format>image/svg+xml</dc:format>
        <dc:type
           rdf:resource="http://purl.org/dc/dcmitype/StillImage" />
        <dc:title />
      </cc:Work>
    </rdf:RDF>
  </metadata>
  <g
     inkscape:label="Capa 1"
     inkscape:groupmode="layer"
     id="layer1"
     transform="translate(0,-752.36208)">
    <g
       id="g4954"
       transform="translate(5.8793875,-1.4285844)">
      <g
         transform="matrix(2.4720129,0,0,2.4720129,366.38821,-449.62843)"
         id="g7212"
         style="display:inline;opacity:1">
        <path
           transform="matrix(0.99999138,0.00415094,-0.00415094,0.99999138,-160.68251,78.203617)"
           d="m 122.40996,497.19987 -49.272651,28.93371 -49.693657,-28.2045 -0.421008,-57.13823 49.272649,-28.93371 49.693657,28.20451 z"
           inkscape:randomized="0"
           inkscape:rounded="0"
           inkscape:flatsided="true"
           sodipodi:arg2="1.0398294"
           sodipodi:arg1="0.51623067"
           sodipodi:r2="28.569887"
           sodipodi:r1="57.139774"
           sodipodi:cy="468.99536"
           sodipodi:cx="72.716301"
           sodipodi:sides="6"
           id="path7214"
           style="color:#000000;clip-rule:nonzero;display:inline;overflow:visible;visibility:visible;opacity:1;isolation:auto;mix-blend-mode:normal;color-interpolation:sRGB;color-interpolation-filters:linearRGB;solid-color:#000000;solid-opacity:1;fill:#d45500;fill-opacity:1;fill-rule:evenodd;stroke:#ffffff;stroke-width:4;stroke-linecap:round;stroke-linejoin:round;stroke-miterlimit:4;stroke-dasharray:none;stroke-dashoffset:0;stroke-opacity:1;color-rendering:auto;image-rendering:auto;shape-rendering:auto;text-rendering:auto;enable-background:accumulate"
           sodipodi:type="star" />
        <path
           sodipodi:type="star"
           style="color:#000000;clip-rule:nonzero;display:inline;overflow:visible;visibility:visible;opacity:1;isolation:auto;mix-blend-mode:normal;color-interpolation:sRGB;color-interpolation-filters:linearRGB;solid-color:#000000;solid-opacity:1;fill:#aa4400;fill-opacity:1;fill-rule:evenodd;stroke:none;stroke-width:4;stroke-linecap:round;stroke-linejoin:round;stroke-miterlimit:4;stroke-dasharray:none;stroke-dashoffset:0;stroke-opacity:1;filter:url(#filter7198);color-rendering:auto;image-rendering:auto;shape-rendering:auto;text-rendering:auto;enable-background:accumulate"
           id="path7216"
           sodipodi:sides="6"
           sodipodi:cx="72.716301"
           sodipodi:cy="468.99536"
           sodipodi:r1="57.139774"
           sodipodi:r2="28.569887"
           sodipodi:arg1="0.51623067"
           sodipodi:arg2="1.0398294"
           inkscape:flatsided="true"
           inkscape:rounded="0"
           inkscape:randomized="0"
           d="m 122.40996,497.19987 -49.272651,28.93371 -49.693657,-28.2045 -0.421008,-57.13823 49.272649,-28.93371 49.693657,28.20451 z"
           transform="matrix(0.88338342,0.0036669,-0.0036669,0.88338342,-152.43022,132.92741)" />
      </g>
      <g
         id="g7218"
         transform="matrix(1.8830617,0,0,1.8830617,457.3695,-861.46613)"
         style="display:inline;opacity:1">
        <g
           transform="translate(8.7037556,70.890748)"
           id="g7220">
          <path
             inkscape:connector-curvature="0"
             id="path7222"
             d="m -173.83927,913.0241 c 22.64609,0 21.23192,-9.82071 21.23192,-9.82071 l -0.0252,-13.35382 -21.61061,0 0,0.1249 30.19426,0 c 0,0 16.49122,1.64343 16.49122,-21.20668 1e-5,-22.85011 -11.85334,-21.9073 -11.85334,-21.9073 l -8.07852,-0.13249 -0.26497,10.60333 c 0,0 -1.5931,14.64827 -14.44629,14.64827 l -21.43389,0 c 0,0 -12.04236,-0.19467 -12.04236,11.63843 l 0,17.56568 c 0,0 -1.82836,11.84039 21.83782,11.84039 z"
             style="color:#000000;display:inline;overflow:visible;visibility:visible;opacity:1;fill:none;fill-opacity:1;fill-rule:nonzero;stroke:#ffffff;stroke-width:6;stroke-linecap:round;stroke-linejoin:round;stroke-miterlimit:4;stroke-dasharray:none;stroke-dashoffset:0;stroke-opacity:1;marker:none;marker-start:none;marker-mid:none;marker-end:none"
             sodipodi:nodetypes="ccccccscccscsccc" />
          <path
             inkscape:connector-curvature="0"
             style="color:#000000;display:inline;overflow:visible;visibility:visible;opacity:1;fill:none;fill-opacity:1;fill-rule:nonzero;stroke:#ffffff;stroke-width:6;stroke-linecap:round;stroke-linejoin:round;stroke-miterlimit:4;stroke-dasharray:none;stroke-dashoffset:0;stroke-opacity:1;marker:none;marker-start:none;marker-mid:none;marker-end:none"
             d="m -180.50692,819.96749 c -22.64608,0 -21.23191,9.82071 -21.23191,9.82071 l 0.0252,13.08885 21.61061,0 0,0.14007 -30.19426,0 c 0,0 -14.49123,-1.64344 -14.49123,21.20667 0,22.85011 10.64827,22.03979 10.64827,22.03979 l 7.54856,0 0,-10.60333 c 0.10257,-7.53891 3.46641,-14.64827 16.4463,-14.64827 l 19.43389,0 c 0,0 12.04236,0.19467 12.04236,-11.63842 l 0,-17.56568 c 0,0 1.82836,-11.84039 -21.83783,-11.84039 z"
             id="path7224"
             sodipodi:nodetypes="ccccccscccscsccc" />
          <circle
             style="color:#000000;clip-rule:nonzero;display:inline;overflow:visible;visibility:visible;opacity:1;isolation:auto;mix-blend-mode:normal;color-interpolation:sRGB;color-interpolation-filters:linearRGB;solid-color:#000000;solid-opacity:1;fill:#aaeeff;fill-opacity:1;fill-rule:evenodd;stroke:none;stroke-width:4;stroke-linecap:round;stroke-linejoin:round;stroke-miterlimit:4;stroke-dasharray:none;stroke-dashoffset:0;stroke-opacity:1;color-rendering:auto;image-rendering:auto;shape-rendering:auto;text-rendering:auto;enable-background:accumulate"
             id="circle7226"
             cx="-189.05792"
             cy="832.24939"
             r="5.6969104" />
          <circle
             r="5.6969104"
             cy="900.87726"
             cx="-164.41548"
             id="circle7228"
             style="color:#000000;clip-rule:nonzero;display:inline;overflow:visible;visibility:visible;opacity:1;isolation:auto;mix-blend-mode:normal;color-interpolation:sRGB;color-interpolation-filters:linearRGB;solid-color:#000000;solid-opacity:1;fill:#ffdd55;fill-opacity:1;fill-rule:evenodd;stroke:none;stroke-width:4;stroke-linecap:round;stroke-linejoin:round;stroke-miterlimit:4;stroke-dasharray:none;stroke-dashoffset:0;stroke-opacity:1;color-rendering:auto;image-rendering:auto;shape-rendering:auto;text-rendering:auto;enable-background:accumulate"
             inkscape:transform-center-x="7.9491767"
             inkscape:transform-center-y="-27.027201" />
        </g>
        <path
           inkscape:connector-curvature="0"
           id="path7230"
           d="m -171.28949,886.03734 c -0.73199,-0.002 -1.46383,0.007 -2.19531,0.0234 -9.20501,0.10971 -22.20378,2.4994 -24.01368,13.40429 -0.91461,3.62439 2.56826,11.34512 -3.61132,9.61719 -12.17259,-0.6644 -19.43017,12.02666 -19.38477,22.85156 -0.43228,10.65364 0.4846,25.11249 11.91406,29.78711 4.74653,0.70223 10.7625,2.10169 14.83203,-0.98242 4.28032,-6.48927 -2.3707,-17.00406 5.06836,-22.10351 11.99597,-4.76324 26.53801,2.52285 37.80468,-4.92188 9.59199,-6.99167 5.59732,-20.31167 6.39453,-30.27539 0.72461,-10.86618 -10.88871,-16.64638 -20.23241,-17.06641 -2.18391,-0.23376 -4.38021,-0.32919 -6.57617,-0.33398 z m -0.0176,9.99414 c 5.63102,0.37548 14.45035,-0.0972 16.87304,6.17383 -0.98387,7.4582 1.76063,15.88729 -1.41016,22.79687 -6.56966,4.38389 -15.29417,1.01297 -22.67968,2.07422 -10.11983,-1.15049 -22.2228,4.11304 -23.49218,15.3125 -1.53261,3.38896 2.1642,11.22396 -3.38672,9.85156 -6.22057,-5.1309 -5.23978,-14.90398 -4.89844,-22.11328 0.0967,-5.93953 4.62,-12.46607 11.19141,-11.04492 10.11172,-0.52085 20.55635,0.95539 30.50586,-0.56836 5.11081,-2.38718 2.18342,-10.76276 -3.31055,-9.57226 -0.72596,-0.23141 -1.61255,-0.30163 -2.57422,-0.29688 2.82043,-3.10566 3.47888,-8.38183 -0.49805,-11.27734 -0.53747,-0.44535 -1.13966,-0.80934 -1.77734,-1.08985 1.81425,-0.17014 3.64143,-0.23449 5.45703,-0.24609 z m -14.66016,2.59375 c -2.09775,3.09176 -1.98269,7.81981 0.7793,10.41992 -1.439,-0.37854 -2.38005,-1.25661 -2.35351,-3.10351 -0.79531,-2.83806 -0.36514,-5.70355 1.57421,-7.31641 z m 52.48242,14.15039 c -1.62671,-0.0193 -3.25343,0.0207 -4.83203,0.0195 -6.93819,0.42488 -4.83179,9.34276 -5.20899,13.86914 0.11703,6.13159 -4.80635,12.80847 -11.51758,11.38086 -10.73637,1.10976 -24.4057,-3.49613 -32.65038,5.80469 -6.71063,8.37359 -2.76265,19.99754 -3.74805,29.75781 0.98993,11.60258 14.40863,15.39803 24.19141,15.41016 9.91547,0.15753 23.42248,-0.26978 28.16015,-10.75 1.352,-3.92458 0.36161,-8.17341 0.65625,-12.22852 9.914,1.44718 20.40833,-4.21714 23.20703,-14.13476 3.12907,-11.28668 3.0457,-25.30842 -4.98047,-34.60352 -3.52349,-3.87176 -8.39721,-4.46737 -13.27734,-4.52539 z m 0.0586,10.09766 c 1.04101,0.0169 2.08203,0.0338 3.12304,0.0508 5.96384,1.23467 6.4143,9.19808 6.86719,14.125 0.67349,7.22335 -0.74252,18.31702 -10.07226,19 -11.16383,0.21814 -22.52199,-0.8487 -33.58789,0.30273 -5.40517,2.14408 -2.61342,10.9149 3.04101,9.6875 0.95094,0.30312 2.16486,0.34352 3.48633,0.27539 -3.26149,3.41557 -3.0308,10.11644 1.56055,12.42578 -7.37281,1.00476 -15.18791,0.62197 -21.3418,-3.49804 -3.06632,-4.15895 -0.10904,-10.19409 -1.13867,-14.99414 -0.58922,-4.71615 -0.47133,-11.87502 5.82422,-12.0918 10.54752,-1.39018 22.25095,2.53742 32.06055,-2.65039 7.64465,-4.56316 10.80428,-14.09772 10.17773,-22.63281 z m -16.77344,43.23828 c 0.79588,0.32779 1.36984,0.8785 1.62305,1.75 -0.40782,-0.63974 -0.94473,-1.22992 -1.62305,-1.75 z"
           style="color:#000000;font-style:normal;font-variant:normal;font-weight:normal;font-stretch:normal;font-size:medium;line-height:normal;font-family:sans-serif;text-indent:0;text-align:start;text-decoration:none;text-decoration-line:none;text-decoration-style:solid;text-decoration-color:#000000;letter-spacing:normal;word-spacing:normal;text-transform:none;direction:ltr;block-progression:tb;writing-mode:lr-tb;baseline-shift:baseline;text-anchor:start;white-space:normal;clip-rule:nonzero;display:inline;overflow:visible;visibility:visible;opacity:0.45800003;isolation:auto;mix-blend-mode:normal;color-interpolation:sRGB;color-interpolation-filters:linearRGB;solid-color:#000000;solid-opacity:1;fill:#ffffff;fill-opacity:1;fill-rule:nonzero;stroke:none;stroke-width:6;stroke-linecap:round;stroke-linejoin:round;stroke-miterlimit:4;stroke-dasharray:none;stroke-dashoffset:0;stroke-opacity:1;marker:none;filter:url(#filter5385);color-rendering:auto;image-rendering:auto;shape-rendering:auto;text-rendering:auto;enable-background:accumulate" />
      </g>
    </g>
  </g>
</svg>
