<?xml version="1.0" encoding="UTF-8" standalone="no"?>
<!-- Created with Inkscape (http://www.inkscape.org/) -->

<svg
   xmlns:dc="http://purl.org/dc/elements/1.1/"
   xmlns:cc="http://creativecommons.org/ns#"
   xmlns:rdf="http://www.w3.org/1999/02/22-rdf-syntax-ns#"
   xmlns:svg="http://www.w3.org/2000/svg"
   xmlns="http://www.w3.org/2000/svg"
   xmlns:sodipodi="http://sodipodi.sourceforge.net/DTD/sodipodi-0.dtd"
   xmlns:inkscape="http://www.inkscape.org/namespaces/inkscape"
   width="300"
   height="300"
   viewBox="0 0 300.00001 300.00001"
   id="svg4352"
   version="1.1"
   inkscape:version="0.91 r13725"
   sodipodi:docname="hex_micropython.svg">
  <defs
     id="defs4354">
    <filter
       inkscape:collect="always"
       style="color-interpolation-filters:sRGB"
       id="filter7198"
       x="-0.06457679"
       width="1.1291536"
       y="-0.056029022"
       height="1.112058">
      <feGaussianBlur
         inkscape:collect="always"
         stdDeviation="2.6678908"
         id="feGaussianBlur7200" />
    </filter>
    <filter
       inkscape:collect="always"
       style="color-interpolation-filters:sRGB"
       id="filter6451"
       x="-0.10317134"
       width="1.2063427"
       y="-0.08976081"
       height="1.1795216">
      <feGaussianBlur
         inkscape:collect="always"
         stdDeviation="5.1205903"
         id="feGaussianBlur6453" />
    </filter>
  </defs>
  <sodipodi:namedview
     id="base"
     pagecolor="#ffffff"
     bordercolor="#666666"
     borderopacity="1.0"
     inkscape:pageopacity="0.0"
     inkscape:pageshadow="2"
     inkscape:zoom="0.98994949"
     inkscape:cx="288.23435"
     inkscape:cy="201.00294"
     inkscape:document-units="px"
     inkscape:current-layer="layer1"
     showgrid="false"
     units="px"
     inkscape:window-width="812"
     inkscape:window-height="761"
     inkscape:window-x="590"
     inkscape:window-y="105"
     inkscape:window-maximized="0"
     showguides="true"
     inkscape:guide-bbox="true">
    <sodipodi:guide
       position="348.57144,285.7143"
       orientation="0,1"
       id="guide5036" />
    <sodipodi:guide
       position="425.7143,14.285715"
       orientation="0,1"
       id="guide5038" />
    <sodipodi:guide
       position="31.428572,-140"
       orientation="1,0"
       id="guide5040" />
    <sodipodi:guide
       position="265.71429,-148.57143"
       orientation="1,0"
       id="guide5042" />
  </sodipodi:namedview>
  <metadata
     id="metadata4357">
    <rdf:RDF>
      <cc:Work
         rdf:about="">
        <dc:format>image/svg+xml</dc:format>
        <dc:type
           rdf:resource="http://purl.org/dc/dcmitype/StillImage" />
        <dc:title></dc:title>
      </cc:Work>
    </rdf:RDF>
  </metadata>
  <g
     inkscape:label="Capa 1"
     inkscape:groupmode="layer"
     id="layer1"
     transform="translate(0,-752.36208)">
    <g
       style="display:inline;opacity:1"
       id="g7594"
       transform="matrix(2.4452208,0,0,2.4452208,-132.82432,-2067.0124)"
       inkscape:export-xdpi="72"
       inkscape:export-ydpi="72">
      <g
         transform="translate(205.57773,666.86164)"
         id="g7558">
        <path
           transform="matrix(0.99999138,0.00415094,-0.00415094,0.99999138,-160.68251,78.203617)"
           d="m 122.40996,497.19987 -49.272651,28.93371 -49.693657,-28.2045 -0.421008,-57.13823 49.272649,-28.93371 49.693657,28.20451 z"
           inkscape:randomized="0"
           inkscape:rounded="0"
           inkscape:flatsided="true"
           sodipodi:arg2="1.0398294"
           sodipodi:arg1="0.51623067"
           sodipodi:r2="28.569887"
           sodipodi:r1="57.139774"
           sodipodi:cy="468.99536"
           sodipodi:cx="72.716301"
           sodipodi:sides="6"
           id="path7560"
           style="color:#000000;clip-rule:nonzero;display:inline;overflow:visible;visibility:visible;opacity:1;isolation:auto;mix-blend-mode:normal;color-interpolation:sRGB;color-interpolation-filters:linearRGB;solid-color:#000000;solid-opacity:1;fill:#d45500;fill-opacity:1;fill-rule:evenodd;stroke:#ffffff;stroke-width:4;stroke-linecap:round;stroke-linejoin:round;stroke-miterlimit:4;stroke-dasharray:none;stroke-dashoffset:0;stroke-opacity:1;color-rendering:auto;image-rendering:auto;shape-rendering:auto;text-rendering:auto;enable-background:accumulate"
           sodipodi:type="star" />
        <path
           sodipodi:type="star"
           style="color:#000000;clip-rule:nonzero;display:inline;overflow:visible;visibility:visible;opacity:1;isolation:auto;mix-blend-mode:normal;color-interpolation:sRGB;color-interpolation-filters:linearRGB;solid-color:#000000;solid-opacity:1;fill:#aa4400;fill-opacity:1;fill-rule:evenodd;stroke:none;stroke-width:4;stroke-linecap:round;stroke-linejoin:round;stroke-miterlimit:4;stroke-dasharray:none;stroke-dashoffset:0;stroke-opacity:1;filter:url(#filter7198);color-rendering:auto;image-rendering:auto;shape-rendering:auto;text-rendering:auto;enable-background:accumulate"
           id="path7562"
           sodipodi:sides="6"
           sodipodi:cx="72.716301"
           sodipodi:cy="468.99536"
           sodipodi:r1="57.139774"
           sodipodi:r2="28.569887"
           sodipodi:arg1="0.51623067"
           sodipodi:arg2="1.0398294"
           inkscape:flatsided="true"
           inkscape:rounded="0"
           inkscape:randomized="0"
           d="m 122.40996,497.19987 -49.272651,28.93371 -49.693657,-28.2045 -0.421008,-57.13823 49.272649,-28.93371 49.693657,28.20451 z"
           transform="matrix(0.88338342,0.0036669,-0.0036669,0.88338342,-152.43022,132.92741)" />
      </g>
      <path
         id="path7564"
         d="m 135.26868,1215.9902 a 3.5135884,3.5135884 0 0 0 -3.2703,2.2389 l -15.40703,0 -5.6734,10.882 -11.978949,0.092 a 3.5135884,3.5135884 0 0 0 -3.303572,-2.3291 3.5135884,3.5135884 0 0 0 -3.513945,3.514 3.5135884,3.5135884 0 0 0 3.513945,3.5139 3.5135884,3.5135884 0 0 0 3.141506,-1.9501 l 13.813195,-0.1063 5.66696,-10.8692 13.82608,0 a 3.5135884,3.5135884 0 0 0 3.18551,2.0414 3.5135884,3.5135884 0 0 0 3.51394,-3.5139 3.5135884,3.5135884 0 0 0 -3.51394,-3.514 z"
         style="color:#000000;clip-rule:nonzero;display:inline;overflow:visible;visibility:visible;opacity:1;isolation:auto;mix-blend-mode:normal;color-interpolation:sRGB;color-interpolation-filters:linearRGB;solid-color:#000000;solid-opacity:1;fill:#ffffff;fill-opacity:1;fill-rule:evenodd;stroke:none;stroke-width:5;stroke-linecap:round;stroke-linejoin:round;stroke-miterlimit:4;stroke-dasharray:none;stroke-dashoffset:0;stroke-opacity:1;color-rendering:auto;image-rendering:auto;shape-rendering:auto;text-rendering:auto;enable-background:accumulate"
         inkscape:connector-curvature="0" />
      <g
         id="g7566">
        <g
           id="g7568"
           transform="matrix(0.54952274,0,0,0.54952274,357.22339,455.8866)"
           style="opacity:0.50700001;filter:url(#filter6451)">
          <path
             inkscape:connector-curvature="0"
             id="path7570"
             d="m -403.72266,1381.2422 c -4.50312,-0.2517 -5.79254,5.8171 -10.43945,4.039 -8.0581,0.4442 -16.50304,-0.8971 -24.31445,0.6856 -3.43926,6.3189 -6.67279,12.7609 -10.03321,19.127 -6.43105,-0.1438 -13.29696,0.4775 -19.47265,-0.1153 -4.12679,-7.6055 -16.91569,-3.137 -15.46094,5.3633 0.41391,7.4138 11.24812,10.2146 15.18164,3.9043 8.45257,-0.5486 17.33573,0.8177 25.5293,-0.8828 3.42522,-6.3075 6.6568,-12.7304 10.00781,-19.0821 7.61349,0.249 15.74441,-0.4918 23.04297,0.3594 4.8074,7.2554 17.21876,1.5577 14.90625,-6.8027 -0.79028,-4.0537 -4.84236,-7.0356 -8.94727,-6.5957 z"
             style="color:#000000;clip-rule:nonzero;display:inline;overflow:visible;visibility:visible;opacity:1;isolation:auto;mix-blend-mode:normal;color-interpolation:sRGB;color-interpolation-filters:linearRGB;solid-color:#000000;solid-opacity:1;fill:#ffffff;fill-opacity:1;fill-rule:evenodd;stroke:none;stroke-width:5;stroke-linecap:round;stroke-linejoin:round;stroke-miterlimit:4;stroke-dasharray:none;stroke-dashoffset:0;stroke-opacity:1;color-rendering:auto;image-rendering:auto;shape-rendering:auto;text-rendering:auto;enable-background:accumulate" />
          <path
             inkscape:connector-curvature="0"
             id="path7572"
             d="m -404.36914,1399.543 c -4.45531,0.2132 -6.30554,5.4663 -11.1582,3.6074 -5.52619,0.9616 -14.45218,-3.0092 -16.23792,4.623 -3.19014,4.7085 -4.81696,11.9777 -8.91832,15.1935 -9.05265,-0.137 -18.53937,0.4864 -27.33009,-0.1095 -4.16861,-7.5451 -16.87821,-3.0522 -15.42969,5.416 0.41449,7.4419 11.31204,10.2192 15.21484,3.8555 11.39057,-0.5201 23.18291,0.7648 34.32032,-0.8926 3.42577,-6.3089 6.65811,-12.7329 10.00976,-19.0859 4.39783,1.1247 10.992,-2.1779 14.125,1.459 5.52,6.6988 17.26556,-0.2118 14.13477,-8.2852 -1.12073,-3.6581 -4.92411,-6.1793 -8.73047,-5.7812 z"
             style="color:#000000;clip-rule:nonzero;display:inline;overflow:visible;visibility:visible;opacity:1;isolation:auto;mix-blend-mode:normal;color-interpolation:sRGB;color-interpolation-filters:linearRGB;solid-color:#000000;solid-opacity:1;fill:#ffffff;fill-opacity:1;fill-rule:evenodd;stroke:none;stroke-width:5;stroke-linecap:round;stroke-linejoin:round;stroke-miterlimit:4;stroke-dasharray:none;stroke-dashoffset:0;stroke-opacity:1;color-rendering:auto;image-rendering:auto;shape-rendering:auto;text-rendering:auto;enable-background:accumulate" />
          <path
             sodipodi:nodetypes="cccccccccccccccccc"
             inkscape:connector-curvature="0"
             id="path7574"
             d="m -475.83984,1380.8105 c -4.62417,0.1256 -6.29555,5.8519 -11.33204,3.8438 -5.50322,-0.29 -14.25841,-1.4202 -11.64257,7 0.55925,14.6349 -1.08294,29.4816 0.74023,44 2.33561,9.7142 12.92053,14.641 22.27539,13.1152 27.22142,-0.2093 54.48921,0.4074 81.6836,-0.2871 10.70015,-1.3112 14.87915,-13.2308 13.66992,-22.664 -1.90053,-5.5402 -10.67461,-1.4018 -15.41016,-2.6797 -4.10898,-7.6104 -16.92182,-3.158 -15.46484,5.3496 0.41981,7.5683 11.58564,10.2286 15.36523,3.6504 4.87397,-1.1225 6.85166,0.6012 4.49414,5.0117 -4.4184,5.0067 -12.44575,1.5782 -18.23047,2.6191 -24.68491,-0.2945 -49.4759,0.5707 -74.09961,-0.3984 -8.86533,-2.9509 -5.34994,-14.2609 -6.02343,-21.1328 l 0,-24.584 c 4.30347,-0.3634 7.98958,-0.488 10.8164,2.9453 7.27127,4.3738 16.04028,-5.591 10.76563,-12.248 -1.67077,-2.425 -4.67643,-3.8233 -7.60742,-3.5411 z"
             style="color:#000000;clip-rule:nonzero;display:inline;overflow:visible;visibility:visible;opacity:1;isolation:auto;mix-blend-mode:normal;color-interpolation:sRGB;color-interpolation-filters:linearRGB;solid-color:#000000;solid-opacity:1;fill:#ffffff;fill-opacity:1;fill-rule:evenodd;stroke:none;stroke-width:5;stroke-linecap:round;stroke-linejoin:round;stroke-miterlimit:4;stroke-dasharray:none;stroke-dashoffset:0;stroke-opacity:1;color-rendering:auto;image-rendering:auto;shape-rendering:auto;text-rendering:auto;enable-background:accumulate" />
          <path
             inkscape:connector-curvature="0"
             id="path7576"
             d="m -475.20117,1328.0312 c -8.51145,-0.3934 -11.46975,12.594 -3.61719,15.918 4.16551,2.541 8.54244,-0.7052 11.58002,-2.7298 19.06472,-0.039 38.58669,-0.8271 57.35943,-0.01 4.55645,7.4987 17.27571,2.1475 15.14258,-6.3399 -0.96738,-7.2254 -11.67675,-9.3182 -15.28906,-2.9824 -19.27347,-0.2611 -38.96207,0.4602 -57.97852,0.07 -1.5131,-2.4409 -4.32438,-3.9792 -7.19726,-3.9258 z"
             style="color:#000000;clip-rule:nonzero;display:inline;overflow:visible;visibility:visible;opacity:1;isolation:auto;mix-blend-mode:normal;color-interpolation:sRGB;color-interpolation-filters:linearRGB;solid-color:#000000;solid-opacity:1;fill:#ffffff;fill-opacity:1;fill-rule:evenodd;stroke:none;stroke-width:5;stroke-linecap:round;stroke-linejoin:round;stroke-miterlimit:4;stroke-dasharray:none;stroke-dashoffset:0;stroke-opacity:1;color-rendering:auto;image-rendering:auto;shape-rendering:auto;text-rendering:auto;enable-background:accumulate" />
          <path
             inkscape:connector-curvature="0"
             id="path7578"
             d="m -474.93359,1346.1953 c -8.07123,-0.3727 -11.44433,11.6266 -4.34961,15.5059 3.77674,2.5115 9.41219,1.1619 11.63086,-2.795 6.43685,0.05 12.87369,0.1003 19.31054,0.1504 3.4422,5.7914 6.8881,11.5805 10.32813,17.3731 9.40549,0.2622 19.34609,-0.5177 28.42773,0.375 4.64467,6.728 16.32917,1.9279 14.94532,-6.1074 -0.42368,-7.7785 -12.07955,-10.2357 -15.58399,-3.2676 -7.55664,0 -15.11328,0 -22.66992,0 -3.43498,-5.778 -6.86935,-11.5563 -10.30469,-17.334 -8.24435,-0.3224 -17.02574,0.376 -24.94336,-0.5625 -1.56555,-2.11 -4.16507,-3.3846 -6.79101,-3.3379 z"
             style="color:#000000;font-style:normal;font-variant:normal;font-weight:normal;font-stretch:normal;font-size:medium;line-height:normal;font-family:sans-serif;text-indent:0;text-align:start;text-decoration:none;text-decoration-line:none;text-decoration-style:solid;text-decoration-color:#000000;letter-spacing:normal;word-spacing:normal;text-transform:none;direction:ltr;block-progression:tb;writing-mode:lr-tb;baseline-shift:baseline;text-anchor:start;white-space:normal;clip-rule:nonzero;display:inline;overflow:visible;visibility:visible;opacity:1;isolation:auto;mix-blend-mode:normal;color-interpolation:sRGB;color-interpolation-filters:linearRGB;solid-color:#000000;solid-opacity:1;fill:#ffffff;fill-opacity:1;fill-rule:evenodd;stroke:none;stroke-width:5;stroke-linecap:butt;stroke-linejoin:miter;stroke-miterlimit:4;stroke-dasharray:none;stroke-dashoffset:0;stroke-opacity:1;color-rendering:auto;image-rendering:auto;shape-rendering:auto;text-rendering:auto;enable-background:accumulate" />
          <path
             inkscape:connector-curvature="0"
             id="path7580"
             d="m -475.93945,1312.3789 c -11.38099,0.6874 -21.62117,9.4122 -22.73047,21.0156 -0.85654,13.4804 -0.0909,27.0897 -0.35156,40.6172 3.40003,4.383 11.23066,0.8747 16.38476,2 3.40287,7.896 16.48927,4.7096 15.88867,-3.8633 0.33585,-7.5851 -10.54217,-11.3341 -14.9414,-5.1367 -8.49483,2.3842 -9.4595,-2.7618 -8.33203,-10 1.1487,-10.5473 -3.43633,-23.9472 5.38671,-32.1523 9.56029,-6.4247 21.79642,-2.3547 32.52539,-3.5 16.75927,0.2492 33.69593,-0.4956 50.34571,0.3672 6.96827,1.4175 13.20787,7.033 12.42773,14.7207 -1.22991,5.0428 3.57842,16.124 -5,13.8183 -2.96845,-0.367 -4.86908,-4.8787 -8.74804,-4.0703 -8.50481,-0.3843 -11.4588,12.5895 -3.61329,15.9141 4.21329,2.5679 8.6613,-0.7511 11.67188,-2.8438 4.56515,-1.2554 14.92852,3.2756 14.68945,-4 -0.6306,-12.1694 3.10818,-27.163 -7.23633,-36.4121 -7.46304,-6.3498 -17.53164,-7.2605 -26.91992,-6.4941 -20.48218,0.013 -40.96622,-0.026 -61.44726,0.019 z"
             style="color:#000000;clip-rule:nonzero;display:inline;overflow:visible;visibility:visible;opacity:1;isolation:auto;mix-blend-mode:normal;color-interpolation:sRGB;color-interpolation-filters:linearRGB;solid-color:#000000;solid-opacity:1;fill:#ffffff;fill-opacity:1;fill-rule:evenodd;stroke:none;stroke-width:5;stroke-linecap:round;stroke-linejoin:round;stroke-miterlimit:4;stroke-dasharray:none;stroke-dashoffset:0;stroke-opacity:1;color-rendering:auto;image-rendering:auto;shape-rendering:auto;text-rendering:auto;enable-background:accumulate" />
        </g>
        <g
           id="g7582">
          <path
             id="path7584"
             d="m 134.91342,1226.047 a 3.5135884,3.5135884 0 0 0 -3.16619,2.0016 l -10.3057,0 -5.6734,10.8821 -16.837713,0.1009 a 3.5135884,3.5135884 0 0 0 -3.294988,-2.3033 3.5135884,3.5135884 0 0 0 -3.513945,3.5139 3.5135884,3.5135884 0 0 0 3.513945,3.5139 3.5135884,3.5135884 0 0 0 3.154387,-1.9769 l 18.650504,-0.1138 5.66695,-10.8692 8.51868,0 a 3.5135884,3.5135884 0 0 0 3.28747,2.2776 3.5135884,3.5135884 0 0 0 3.51394,-3.514 3.5135884,3.5135884 0 0 0 -3.51394,-3.5128 z"
             style="color:#000000;clip-rule:nonzero;display:inline;overflow:visible;visibility:visible;opacity:1;isolation:auto;mix-blend-mode:normal;color-interpolation:sRGB;color-interpolation-filters:linearRGB;solid-color:#000000;solid-opacity:1;fill:#ffffff;fill-opacity:1;fill-rule:evenodd;stroke:none;stroke-width:5;stroke-linecap:round;stroke-linejoin:round;stroke-miterlimit:4;stroke-dasharray:none;stroke-dashoffset:0;stroke-opacity:1;color-rendering:auto;image-rendering:auto;shape-rendering:auto;text-rendering:auto;enable-background:accumulate"
             inkscape:connector-curvature="0" />
          <path
             id="path7586"
             d="m 95.635429,1215.7541 a 3.5135884,3.5135884 0 0 0 -3.228446,2.1305 l -8.702209,0 0,23.9707 c 0,4.9625 3.649364,9.064 8.800947,9.064 l 45.650099,0 c 2.43348,0.026 4.61091,-0.7937 6.11451,-2.3838 1.50361,-1.59 2.28289,-4.2809 2.28289,-6.9313 l 0,-2.5716 -8.03462,0 a 3.5135884,3.5135884 0 0 0 -3.24992,-2.1852 3.5135884,3.5135884 0 0 0 -3.51394,3.5129 3.5135884,3.5135884 0 0 0 3.51394,3.5139 3.5135884,3.5135884 0 0 0 3.21127,-2.094 l 5.13676,0 c 0.11092,-0.5611 0.18889,-0.8469 0.18889,-0.176 l 0,0.176 -0.18889,0 c -0.24008,1.2146 -0.70258,4.1905 -1.34269,4.8674 -0.93586,0.9897 -2.26226,1.5441 -4.08814,1.5241 l -0.008,0 -45.67264,0 c -3.775298,0 -6.053333,-2.606 -6.053333,-6.3164 l 0,-21.2231 5.949226,0 a 3.5135884,3.5135884 0 0 0 3.233815,2.1487 3.5135884,3.5135884 0 0 0 3.51394,-3.5139 3.5135884,3.5135884 0 0 0 -3.51394,-3.5129 z"
             style="color:#000000;clip-rule:nonzero;display:inline;overflow:visible;visibility:visible;opacity:1;isolation:auto;mix-blend-mode:normal;color-interpolation:sRGB;color-interpolation-filters:linearRGB;solid-color:#000000;solid-opacity:1;fill:#ffffff;fill-opacity:1;fill-rule:evenodd;stroke:none;stroke-width:5;stroke-linecap:round;stroke-linejoin:round;stroke-miterlimit:4;stroke-dasharray:none;stroke-dashoffset:0;stroke-opacity:1;color-rendering:auto;image-rendering:auto;shape-rendering:auto;text-rendering:auto;enable-background:accumulate"
             inkscape:connector-curvature="0" />
          <path
             id="path7588"
             d="m 95.635429,1186.7679 a 3.5135884,3.5135884 0 0 0 -3.513945,3.5139 3.5135884,3.5135884 0 0 0 3.513945,3.5139 3.5135884,3.5135884 0 0 0 3.149018,-1.9652 l 7.778113,-0.086 10.8681,-0.1095 14.59562,0 a 3.5135884,3.5135884 0 0 0 3.2424,2.1691 3.5135884,3.5135884 0 0 0 3.51394,-3.5139 3.5135884,3.5135884 0 0 0 -3.51394,-3.5139 3.5135884,3.5135884 0 0 0 -3.21986,2.1111 l -14.63212,0 -10.88205,0.1095 -7.601013,0.084 a 3.5135884,3.5135884 0 0 0 -3.298208,-2.3129 z"
             style="color:#000000;clip-rule:nonzero;display:inline;overflow:visible;visibility:visible;opacity:1;isolation:auto;mix-blend-mode:normal;color-interpolation:sRGB;color-interpolation-filters:linearRGB;solid-color:#000000;solid-opacity:1;fill:#ffffff;fill-opacity:1;fill-rule:evenodd;stroke:none;stroke-width:5;stroke-linecap:round;stroke-linejoin:round;stroke-miterlimit:4;stroke-dasharray:none;stroke-dashoffset:0;stroke-opacity:1;color-rendering:auto;image-rendering:auto;shape-rendering:auto;text-rendering:auto;enable-background:accumulate"
             inkscape:connector-curvature="0" />
          <path
             id="path7590"
             d="m 95.782465,1196.7494 a 3.5135884,3.5135884 0 0 0 -3.512863,3.5139 3.5135884,3.5135884 0 0 0 3.512863,3.5129 3.5135884,3.5135884 0 0 0 3.273529,-2.2442 l 11.913476,0.092 5.67339,9.5426 15.46821,0 a 3.5135884,3.5135884 0 0 0 3.15761,1.9791 3.5135884,3.5135884 0 0 0 3.51394,-3.5139 3.5135884,3.5135884 0 0 0 -3.51394,-3.5129 3.5135884,3.5135884 0 0 0 -3.29284,2.3001 l -13.77027,0 -5.66588,-9.5308 -13.573856,-0.1052 a 3.5135884,3.5135884 0 0 0 -3.183369,-2.0339 z"
             style="color:#000000;font-style:normal;font-variant:normal;font-weight:normal;font-stretch:normal;font-size:medium;line-height:normal;font-family:sans-serif;text-indent:0;text-align:start;text-decoration:none;text-decoration-line:none;text-decoration-style:solid;text-decoration-color:#000000;letter-spacing:normal;word-spacing:normal;text-transform:none;direction:ltr;block-progression:tb;writing-mode:lr-tb;baseline-shift:baseline;text-anchor:start;white-space:normal;clip-rule:nonzero;display:inline;overflow:visible;visibility:visible;opacity:1;isolation:auto;mix-blend-mode:normal;color-interpolation:sRGB;color-interpolation-filters:linearRGB;solid-color:#000000;solid-opacity:1;fill:#3782be;fill-opacity:1;fill-rule:evenodd;stroke:none;stroke-width:5;stroke-linecap:butt;stroke-linejoin:miter;stroke-miterlimit:4;stroke-dasharray:none;stroke-dashoffset:0;stroke-opacity:1;color-rendering:auto;image-rendering:auto;shape-rendering:auto;text-rendering:auto;enable-background:accumulate"
             inkscape:connector-curvature="0" />
          <path
             id="path7592"
             d="m 95.329537,1178.1569 -0.09123,0.013 c -4.136939,0.56 -6.960233,2.0763 -8.748358,4.2201 -1.78813,2.1438 -2.49663,4.7719 -2.883923,7.3981 l -0.015,0.099 0,21.0504 8.648543,0 a 3.5135884,3.5135884 0 0 0 3.375487,2.5437 3.5135884,3.5135884 0 0 0 3.51394,-3.514 3.5135884,3.5135884 0 0 0 -3.51394,-3.5128 3.5135884,3.5135884 0 0 0 -3.025595,1.7355 l -6.250821,0 0,-18.0602 c 0.355876,-2.3759 0.969001,-4.4299 2.261412,-5.9793 1.296275,-1.5541 3.321898,-2.7439 6.948457,-3.2456 l 40.037891,0 c 1.93576,0.7331 3.73671,1.2201 5.1067,2.2056 1.4198,1.0213 2.57045,2.5589 3.17263,5.9793 l 0,9.8978 -5.3235,0 a 3.5135884,3.5135884 0 0 0 -3.27353,-2.2378 3.5135884,3.5135884 0 0 0 -3.51287,3.5139 3.5135884,3.5135884 0 0 0 3.51287,3.5129 3.5135884,3.5135884 0 0 0 3.18552,-2.0414 l 8.15912,0 0,-12.9095 -0.0193,-0.1148 c -0.68204,-3.9833 -2.30501,-6.3976 -4.29744,-7.8307 -1.99243,-1.4332 -4.1673,-1.9282 -5.96962,-2.6295 l -0.24042,-0.094 -40.756985,0 z"
             style="color:#000000;clip-rule:nonzero;display:inline;overflow:visible;visibility:visible;opacity:1;isolation:auto;mix-blend-mode:normal;color-interpolation:sRGB;color-interpolation-filters:linearRGB;solid-color:#000000;solid-opacity:1;fill:#ffffff;fill-opacity:1;fill-rule:evenodd;stroke:none;stroke-width:5;stroke-linecap:round;stroke-linejoin:round;stroke-miterlimit:4;stroke-dasharray:none;stroke-dashoffset:0;stroke-opacity:1;color-rendering:auto;image-rendering:auto;shape-rendering:auto;text-rendering:auto;enable-background:accumulate"
             inkscape:connector-curvature="0" />
        </g>
      </g>
    </g>
  </g>
</svg>
