<?xml version="1.0" encoding="UTF-8" standalone="no"?>
<!DOCTYPE svg PUBLIC "-//W3C//DTD SVG 1.1//EN" "http://www.w3.org/Graphics/SVG/1.1/DTD/svg11.dtd">
<svg width="100%" height="100%" viewBox="0 0 10040 23623" version="1.1" xmlns="http://www.w3.org/2000/svg" xmlns:xlink="http://www.w3.org/1999/xlink" xml:space="preserve" xmlns:serif="http://www.serif.com/" style="fill-rule:evenodd;clip-rule:evenodd;stroke-linecap:round;stroke-linejoin:round;stroke-miterlimit:1.5;">
    <rect id="Fondo" x="0" y="0" width="10039.4" height="23622" style="fill:url(#_Linear1);stroke:black;stroke-width:16.67px;"/>
    <g id="Marquesina" transform="matrix(3.18165,-3.2286,3.2286,3.18165,-52233.9,4496.23)">
        <g opacity="0.38">
            <g transform="matrix(-1,0,0,-1,6236,12303.1)">
                <rect x="1216.31" y="880.559" width="590.641" height="590.641" style="fill:rgb(72,132,206);"/>
            </g>
            <g transform="matrix(1,0,0,1,2953.2,-327.749)">
                <g transform="matrix(-1,0,0,-1,5054.71,14402.8)">
                    <rect x="1216.31" y="880.559" width="590.641" height="590.641" style="fill:rgb(245,204,0);"/>
                </g>
                <g transform="matrix(-1,0,0,-1,6236,13812.1)">
                    <rect x="1216.31" y="880.559" width="590.641" height="590.641"/>
                </g>
                <g transform="matrix(-1,0,0,-1,5645.35,13812.1)">
                    <rect x="1216.31" y="880.559" width="590.641" height="590.641" style="fill:rgb(245,204,0);"/>
                </g>
                <g transform="matrix(-1,0,0,-1,5054.71,13812.1)">
                    <rect x="1216.31" y="880.559" width="590.641" height="590.641" style="fill:rgb(72,132,206);"/>
                </g>
                <g transform="matrix(-1,0,0,-1,4464.07,13812.1)">
                    <rect x="1216.31" y="880.559" width="590.641" height="590.641"/>
                </g>
                <g transform="matrix(-1,0,0,-1,6236,13221.5)">
                    <rect x="1216.31" y="880.559" width="590.641" height="590.641" style="fill:rgb(245,204,0);"/>
                </g>
                <g transform="matrix(-1,0,0,-1,5645.35,13221.5)">
                    <rect x="1216.31" y="880.559" width="590.641" height="590.641" style="fill:rgb(72,132,206);"/>
                </g>
                <g transform="matrix(-1,0,0,-1,5054.71,13221.5)">
                    <rect x="1216.31" y="880.559" width="590.641" height="590.641"/>
                </g>
                <g transform="matrix(-1,0,0,-1,4464.07,13221.5)">
                    <rect x="1216.31" y="880.559" width="590.641" height="590.641" style="fill:rgb(245,204,0);"/>
                </g>
                <g transform="matrix(-1,0,0,-1,3873.43,13221.5)">
                    <rect x="1216.31" y="880.559" width="590.641" height="590.641" style="fill:rgb(72,132,206);"/>
                </g>
                <g transform="matrix(-1,0,0,-1,6236,12630.9)">
                    <rect x="1216.31" y="880.559" width="590.641" height="590.641" style="fill:rgb(72,132,206);"/>
                </g>
                <g transform="matrix(-1,0,0,-1,5645.35,12630.9)">
                    <rect x="1216.31" y="880.559" width="590.641" height="590.641"/>
                </g>
                <g transform="matrix(-1,0,0,-1,5054.71,12630.9)">
                    <rect x="1216.31" y="880.559" width="590.641" height="590.641" style="fill:rgb(245,204,0);"/>
                </g>
                <g transform="matrix(-1,0,0,-1,4464.07,12630.9)">
                    <rect x="1216.31" y="880.559" width="590.641" height="590.641" style="fill:rgb(72,132,206);"/>
                </g>
                <g transform="matrix(-1,0,0,-1,3873.43,12630.9)">
                    <rect x="1216.31" y="880.559" width="590.641" height="590.641"/>
                </g>
            </g>
        </g>
    </g>
    <g id="Web" transform="matrix(0.707107,-0.707107,0.707107,0.707107,-7275.79,11109.4)">
        <text x="2917.5px" y="12138.9px" style="font-family:'Rockwell-Regular', 'Rockwell', serif;font-size:712.541px;">p<tspan x="3384.06px " y="12138.9px ">y</tspan>thoncan<tspan x="6652.43px " y="12138.9px ">a</tspan>rias.es</text>
    </g>
    <g id="Redes-sociales" serif:id="Redes sociales" transform="matrix(0.785874,0,0,0.785874,886.73,5251.18)">
        <g transform="matrix(2.48582,0,0,2.48582,1384.51,17110)">
            <g transform="matrix(1,0,0,1,-256,-256)">
                <path d="M459.37,151.716C459.695,156.264 459.695,160.813 459.695,165.361C459.695,304.081 354.112,463.919 161.137,463.919C101.685,463.919 46.457,446.7 0,416.813C8.447,417.787 16.568,418.112 25.34,418.112C74.395,418.112 119.553,401.544 155.614,373.28C109.482,372.305 70.822,342.092 57.502,300.508C64,301.482 70.497,302.132 77.32,302.132C86.741,302.132 96.163,300.832 104.934,298.559C56.853,288.812 20.791,246.579 20.791,195.574L20.791,194.275C34.76,202.072 51.005,206.945 68.222,207.594C39.958,188.751 21.441,156.589 21.441,120.203C21.441,100.711 26.638,82.843 35.735,67.249C87.39,130.924 165.035,172.507 252.1,177.056C250.476,169.259 249.501,161.138 249.501,153.016C249.501,95.188 296.283,48.082 354.435,48.082C384.648,48.082 411.937,60.752 431.105,81.219C454.82,76.671 477.561,67.899 497.704,55.879C489.906,80.245 473.338,100.712 451.572,113.706C472.689,111.433 493.156,105.584 511.998,97.463C497.706,118.254 479.837,136.771 459.37,151.716Z" style="fill-rule:nonzero;"/>
            </g>
        </g>
        <g transform="matrix(2.48582,0,0,2.48582,2966.14,17110)">
            <g transform="matrix(1,0,0,1,-256,-256)">
                <path d="M71.5,142.3C72.1,136.4 69.8,130.5 65.4,126.5L20.3,72.1L20.3,64L160.5,64L268.9,301.7L364.2,64L497.9,64L497.9,72.1L459.3,109.1C456,111.6 454.3,115.8 455,119.9L455,391.9C454.3,396 456,400.2 459.3,402.7L497,439.7L497,447.8L307.3,447.8L307.3,439.7L346.4,401.8C350.2,398 350.2,396.8 350.2,391L350.2,171.2L241.5,447.1L226.8,447.1L100.4,171.2L100.4,356.1C99.3,363.9 101.9,371.7 107.4,377.3L158.2,438.9L158.2,447L14.2,447L14.2,439L65,377.3C70.4,371.7 72.9,363.8 71.5,356.1L71.5,142.3Z" style="fill-rule:nonzero;"/>
            </g>
        </g>
        <g transform="matrix(2.48582,0,0,2.48582,4468.24,17110)">
            <g transform="matrix(1,0,0,1,-224,-256)">
                <clipPath id="_clip2">
                    <rect x="0" y="0" width="448" height="512"/>
                </clipPath>
                <g clip-path="url(#_clip2)">
                    <path d="M224.1,141C160.5,141 109.2,192.3 109.2,255.9C109.2,319.5 160.5,370.8 224.1,370.8C287.7,370.8 339,319.5 339,255.9C339,192.3 287.7,141 224.1,141ZM224.1,330.6C183,330.6 149.4,297.1 149.4,255.9C149.4,214.7 182.9,181.2 224.1,181.2C265.3,181.2 298.8,214.7 298.8,255.9C298.8,297.1 265.2,330.6 224.1,330.6ZM370.5,136.3C370.5,151.2 358.5,163.1 343.7,163.1C328.8,163.1 316.9,151.1 316.9,136.3C316.9,121.5 328.9,109.5 343.7,109.5C358.5,109.5 370.5,121.5 370.5,136.3ZM446.6,163.5C444.9,127.6 436.7,95.8 410.4,69.6C384.2,43.4 352.4,35.2 316.5,33.4C279.5,31.3 168.6,31.3 131.6,33.4C95.8,35.1 64,43.3 37.7,69.5C11.4,95.7 3.3,127.5 1.5,163.4C-0.6,200.4 -0.6,311.3 1.5,348.3C3.2,384.2 11.4,416 37.7,442.2C64,468.4 95.7,476.6 131.6,478.4C168.6,480.5 279.5,480.5 316.5,478.4C352.4,476.7 384.2,468.5 410.4,442.2C436.6,416 444.8,384.2 446.6,348.3C448.7,311.3 448.7,200.5 446.6,163.5ZM398.8,388C391,407.6 375.9,422.7 356.2,430.6C326.7,442.3 256.7,439.6 224.1,439.6C191.5,439.6 121.4,442.2 92,430.6C72.4,422.8 57.3,407.7 49.4,388C37.7,358.5 40.4,288.5 40.4,255.9C40.4,223.3 37.8,153.2 49.4,123.8C57.2,104.2 72.3,89.1 92,81.2C121.5,69.5 191.5,72.2 224.1,72.2C256.7,72.2 326.8,69.6 356.2,81.2C375.8,89 390.9,104.1 398.8,123.8C410.5,153.3 407.8,223.3 407.8,255.9C407.8,288.5 410.5,358.6 398.8,388Z" style="fill-rule:nonzero;"/>
                </g>
            </g>
        </g>
        <g transform="matrix(2.48582,0,0,2.48582,6049.87,17110)">
            <g transform="matrix(1,0,0,1,-288,-256)">
                <path d="M549.655,124.083C543.374,100.433 524.868,81.807 501.371,75.486C458.781,64 288,64 288,64C288,64 117.22,64 74.629,75.486C51.132,81.808 32.626,100.433 26.345,124.083C14.933,166.95 14.933,256.388 14.933,256.388C14.933,256.388 14.933,345.826 26.345,388.693C32.626,412.343 51.132,430.193 74.629,436.514C117.22,448 288,448 288,448C288,448 458.78,448 501.371,436.514C524.868,430.193 543.374,412.343 549.655,388.693C561.067,345.826 561.067,256.388 561.067,256.388C561.067,256.388 561.067,166.95 549.655,124.083ZM232.145,337.591L232.145,175.185L374.884,256.39L232.145,337.591Z" style="fill-rule:nonzero;"/>
            </g>
        </g>
        <g transform="matrix(2.48582,0,0,2.48582,7631.51,17110)">
            <g transform="matrix(1,0,0,1,-224,-256)">
                <path d="M446.7,98.6L379.1,417.4C374,439.9 360.7,445.5 341.8,434.9L238.8,359L189.1,406.8C183.6,412.3 179,416.9 168.4,416.9L175.8,312L366.7,139.5C375,132.1 364.9,128 353.8,135.4L117.8,284L16.2,252.2C-5.9,245.3 -6.3,230.1 20.8,219.5L418.2,66.4C436.6,59.5 452.7,70.5 446.7,98.6Z" style="fill-rule:nonzero;"/>
            </g>
        </g>
        <g transform="matrix(2.48582,0,0,2.48582,9133.6,17110)">
            <g transform="matrix(1,0,0,1,-256,-256)">
                <path d="M464,64L48,64C21.49,64 0,85.49 0,112L0,400C0,426.51 21.49,448 48,448L464,448C490.51,448 512,426.51 512,400L512,112C512,85.49 490.51,64 464,64ZM464,112L464,152.805C441.578,171.064 405.832,199.456 329.413,259.295C312.572,272.542 279.212,304.367 256,303.996C232.792,304.371 199.421,272.537 182.587,259.295C106.18,199.465 70.425,171.067 48,152.805L48,112L464,112ZM48,400L48,214.398C70.914,232.649 103.409,258.26 152.938,297.044C174.795,314.249 213.072,352.23 256,351.999C298.717,352.23 336.509,314.8 359.053,297.052C408.581,258.269 441.085,232.651 464,214.399L464,400L48,400Z" style="fill-rule:nonzero;"/>
            </g>
        </g>
    </g>
    <g id="Logo-circular" serif:id="Logo circular" transform="matrix(4.96228,0,0,4.96228,-23694.1,-3042.83)">
        <g id="circle17737" transform="matrix(4.16667,0,0,4.16667,5271.83,-2389.94)">
            <circle cx="123.498" cy="924.235" r="112.076"/>
        </g>
        <g id="g5405" transform="matrix(6.94593,0,0,6.94593,-409.928,-9152.03)">
            <path id="path5407" d="M891.579,1582.91C919.611,1582.91 917.861,1570.75 917.861,1570.75L917.829,1558.16L891.079,1558.16L891.079,1554.37L928.454,1554.37C928.454,1554.37 946.392,1556.41 946.392,1528.12C946.392,1499.84 930.736,1500.84 930.736,1500.84L921.392,1500.84L921.392,1513.97C921.392,1513.97 921.896,1529.62 905.986,1529.62L879.454,1529.62C879.454,1529.62 864.548,1529.38 864.548,1544.03L864.548,1568.25C864.548,1568.25 862.285,1582.91 891.579,1582.91L891.579,1582.91ZM906.329,1574.44C903.668,1574.44 901.517,1572.29 901.517,1569.62C901.517,1566.96 903.668,1564.81 906.329,1564.81C908.991,1564.81 911.142,1566.96 911.142,1569.62C911.142,1572.29 908.991,1574.44 906.329,1574.44Z" style="fill:rgb(72,132,206);fill-rule:nonzero;"/>
            <path id="path5409" d="M890.783,1473.06C862.752,1473.06 864.502,1485.22 864.502,1485.22L864.508,1487.46L864.534,1497.81L891.284,1497.81L891.284,1501.59L853.909,1501.59C853.909,1501.59 835.971,1499.56 835.971,1527.84C835.971,1556.12 851.627,1555.12 851.627,1555.12L860.971,1555.12L860.971,1542C860.971,1542 860.467,1526.34 876.377,1526.34L902.909,1526.34C902.909,1526.34 917.815,1526.58 917.815,1511.93L917.815,1487.72C917.815,1487.72 920.078,1473.06 890.784,1473.06L890.783,1473.06ZM876.033,1481.53C878.695,1481.53 880.846,1483.68 880.846,1486.34C880.846,1489 878.695,1491.15 876.033,1491.15C873.372,1491.15 871.221,1489 871.221,1486.34C871.221,1483.68 873.372,1481.53 876.033,1481.53Z" style="fill:rgb(245,204,0);fill-rule:nonzero;"/>
            <path id="path5411" d="M850.796,1497.79L860.487,1497.79L860.487,1488.9C856.241,1488.66 850.789,1493.95 850.796,1497.79Z" style="fill:rgb(72,132,206);"/>
            <path id="path5413" d="M931.035,1558.14L921.344,1558.14L921.344,1567.03C925.59,1567.27 931.042,1561.97 931.035,1558.14Z" style="fill:rgb(245,204,0);"/>
        </g>
    </g>
    <g id="Texto-logo" serif:id="Texto logo" transform="matrix(3.48075,0,0,3.48075,-16434.4,-14742.9)">
        <g id="g4556" transform="matrix(4.16667,0,0,4.16667,4105.29,2833.7)">
            <path id="path4513" d="M284.44,912.19L284.44,951.367L257.904,951.367L257.904,837.056L301.555,837.056C315.111,837.056 325.867,840.511 333.823,847.419C341.779,854.328 345.756,863.409 345.756,874.662C345.756,885.916 341.779,894.997 333.823,901.905C325.867,908.762 315.111,912.19 301.555,912.19L284.44,912.19ZM284.44,891.778L301.555,891.778C307.313,891.778 311.709,890.207 314.745,887.067C317.781,883.874 319.299,879.792 319.299,874.819C319.299,869.742 317.781,865.581 314.745,862.336C311.762,859.091 307.365,857.469 301.555,857.469L284.44,857.469L284.44,891.778Z" style="fill:rgb(245,204,0);fill-rule:nonzero;stroke:black;stroke-width:2.73px;stroke-linecap:butt;stroke-miterlimit:2;"/>
            <path id="path4515" d="M387.894,913.917L387.972,914.546L388.443,914.546L402.496,866.419L430.76,866.419L396.922,964.007C394.305,970.288 390.929,975.469 386.794,979.552C382.66,983.634 376.091,985.676 367.088,985.676C364.785,985.676 362.901,985.519 361.436,985.205C359.97,984.943 357.667,984.419 354.527,983.634L357.746,964.713C358.478,964.87 359.028,964.975 359.394,965.027C359.761,965.132 360.232,965.184 360.808,965.184C364.995,965.184 368.057,964.556 369.993,963.3C371.93,962.096 373.369,960.264 374.311,957.805L376.431,952.309L347.068,866.419L375.253,866.419L387.894,913.917L387.894,913.917Z" style="fill:rgb(245,204,0);fill-rule:nonzero;stroke:black;stroke-width:2.73px;stroke-linecap:butt;stroke-miterlimit:2;"/>
            <path id="path4517" d="M462.769,845.3L462.769,866.419L476.195,866.419L476.195,884.79L462.769,884.79L462.769,923.731C462.769,926.767 463.371,928.965 464.575,930.326C465.831,931.635 467.506,932.289 469.6,932.289C470.961,932.289 472.033,932.236 472.819,932.132C473.656,932.027 474.703,931.818 475.959,931.504L477.765,951.131C475.095,951.812 472.688,952.283 470.542,952.544C468.396,952.858 465.857,953.015 462.926,953.015C454.186,953.015 447.538,950.686 442.985,946.028C438.484,941.37 436.233,933.99 436.233,923.888L436.233,884.79L424.378,884.79L424.378,866.419L436.233,866.419L436.233,845.3L462.769,845.3Z" style="fill:rgb(245,204,0);fill-rule:nonzero;stroke:black;stroke-width:2.73px;stroke-linecap:butt;stroke-miterlimit:2;"/>
            <path id="path4519" d="M509.617,876.939C512.182,873.118 515.296,870.161 518.96,868.068C522.676,865.922 526.758,864.849 531.207,864.849C540,864.849 546.909,867.911 551.934,874.034C556.959,880.158 559.471,889.658 559.471,902.533L559.471,951.367L532.934,951.367L532.934,902.376C532.934,895.886 532.097,891.411 530.422,888.951C528.747,886.491 526.209,885.261 522.807,885.261C519.823,885.261 517.232,885.706 515.034,886.596C512.836,887.433 511.03,888.637 509.617,890.207L509.617,951.367L483.081,951.367L483.081,828.891L509.617,828.891L509.617,876.939Z" style="fill:rgb(245,204,0);fill-rule:nonzero;stroke:black;stroke-width:2.73px;stroke-linecap:butt;stroke-miterlimit:2;"/>
            <path id="path4521" d="M565.493,908.108C565.493,895.337 569.105,884.947 576.328,876.939C583.551,868.879 593.626,864.849 606.554,864.849C619.534,864.849 629.636,868.879 636.859,876.939C644.082,884.947 647.693,895.337 647.693,908.108L647.693,909.756C647.693,922.58 644.082,932.995 636.859,941.003C629.636,949.011 619.587,953.015 606.711,953.015C593.678,953.015 583.551,949.011 576.328,941.003C569.105,932.995 565.493,922.58 565.493,909.756L565.493,908.108ZM592.03,909.756C592.03,916.875 593.129,922.475 595.327,926.558C597.578,930.588 601.372,932.603 606.711,932.603C611.893,932.603 615.609,930.562 617.859,926.479C620.11,922.397 621.235,916.822 621.235,909.756L621.235,908.108C621.235,901.199 620.11,895.677 617.859,891.542C615.609,887.355 611.84,885.261 606.554,885.261C601.32,885.261 597.578,887.355 595.327,891.542C593.129,895.729 592.03,901.251 592.03,908.108L592.03,909.756Z" style="fill:rgb(245,204,0);fill-rule:nonzero;stroke:black;stroke-width:2.73px;stroke-linecap:butt;stroke-miterlimit:2;"/>
            <path id="path4523" d="M678.603,866.419L679.624,878.352C682.398,874.113 685.826,870.815 689.909,868.46C693.991,866.053 698.545,864.849 703.57,864.849C711.892,864.849 718.382,867.675 723.04,873.328C727.751,878.98 730.106,887.957 730.106,900.257L730.106,951.367L703.57,951.367L703.57,900.178C703.57,894.787 702.706,890.966 700.979,888.716C699.252,886.413 696.739,885.261 693.442,885.261C690.616,885.261 688.077,885.759 685.826,886.753C683.576,887.747 681.692,889.161 680.174,890.993L680.174,951.367L653.716,951.367L653.716,866.419L678.603,866.419Z" style="fill:rgb(245,204,0);fill-rule:nonzero;stroke:black;stroke-width:2.73px;stroke-linecap:butt;stroke-miterlimit:2;"/>
        </g>
        <g id="g4564" transform="matrix(4.16667,0,0,4.16667,4105.29,2833.7)">
            <path id="path4532" d="M420.805,986.079C420.866,1001.83 434.084,1014.54 450.322,1014.48C457.269,1014.45 463.642,1012.09 468.555,1008.27C469.441,1007.62 469.597,1006.17 468.786,1005.44C468.217,1004.47 466.923,1004.32 465.957,1004.97C461.77,1008.54 456.284,1010.5 450.306,1010.52C436.169,1010.58 424.816,999.554 424.763,986.063C424.709,972.249 435.975,961.138 450.113,961.082C456.091,961.059 461.592,963.138 465.968,966.513C466.778,967.157 468.07,967.071 468.713,966.099C469.437,965.369 469.27,963.996 468.379,963.273C463.436,959.495 457.044,957.097 450.097,957.124C433.86,957.268 420.742,970.003 420.805,986.079Z" style="fill:rgb(72,132,206);fill-rule:nonzero;"/>
            <path id="path4534" d="M507.585,974.671C506.535,974.675 505.65,975.487 505.654,976.618L505.677,982.434C502.266,977.762 496.841,974.713 490.782,974.737C480.361,974.778 472.076,983.778 472.118,994.603C472.16,1005.43 480.516,1014.36 490.937,1014.32C496.996,1014.3 502.396,1011.13 505.771,1006.43L505.794,1012.32C505.798,1013.37 506.69,1014.26 507.74,1014.25C508.79,1014.25 509.676,1013.36 509.671,1012.31L509.532,976.603C509.528,975.472 508.635,974.667 507.585,974.671L507.585,974.671ZM490.922,1010.44C482.844,1010.48 476.03,1003.47 475.996,994.587C475.961,985.701 482.719,978.566 490.797,978.534C498.956,978.502 505.689,985.585 505.724,994.471C505.759,1003.36 499.081,1010.41 490.922,1010.44Z" style="fill:rgb(72,132,206);fill-rule:nonzero;"/>
            <path id="path4536" d="M545.593,1012.17C545.597,1013.3 546.489,1014.1 547.539,1014.1C548.589,1014.1 549.475,1013.28 549.47,1012.15L549.386,990.665C549.352,981.859 542.133,974.617 533.247,974.652C528.319,974.671 523.885,976.95 520.991,980.435L520.976,976.639C520.972,975.588 520.16,974.703 519.11,974.707C517.979,974.711 517.175,975.603 517.179,976.653L517.232,990.144L517.235,990.791L517.319,1012.28L517.321,1012.76C517.321,1012.76 517.402,1012.85 517.402,1012.93C517.403,1013.01 517.403,1013.09 517.484,1013.17C517.728,1013.65 518.214,1014.05 518.781,1014.21L519.265,1014.21C519.831,1014.21 520.395,1013.97 520.717,1013.48C520.958,1013.24 521.037,1012.91 521.117,1012.59L521.116,1012.27L521.032,990.778C521.167,984.072 526.558,978.558 533.263,978.531C540.049,978.505 545.483,983.977 545.509,990.682L545.593,1012.17L545.593,1012.17Z" style="fill:rgb(72,132,206);fill-rule:nonzero;"/>
            <path id="path4538" d="M589.599,974.35C588.549,974.354 587.663,975.166 587.668,976.297L587.69,982.113C584.279,977.441 578.855,974.392 572.796,974.416C562.375,974.457 554.089,983.456 554.132,994.281C554.174,1005.11 562.53,1014.04 572.951,1014C579.01,1013.98 584.41,1010.81 587.784,1006.11L587.807,1012C587.811,1013.05 588.704,1013.94 589.754,1013.93C590.804,1013.93 591.689,1013.04 591.685,1011.99L591.545,976.282C591.541,975.151 590.649,974.346 589.599,974.35L589.599,974.35ZM572.936,1010.12C564.857,1010.15 558.044,1003.15 558.009,994.266C557.974,985.38 564.732,978.245 572.811,978.213C580.97,978.181 587.703,985.264 587.738,994.15C587.772,1003.04 581.095,1010.09 572.936,1010.12Z" style="fill:rgb(72,132,206);fill-rule:nonzero;"/>
            <path id="path4540" d="M600.121,1011.96C600.125,1013.09 601.017,1013.89 602.148,1013.89C603.118,1013.89 604.003,1013.07 603.999,1011.94L603.931,994.571C603.93,994.41 603.93,994.248 604.09,993.924C604.649,992.306 606.168,988.261 608.82,984.696C611.553,981.131 615.096,978.209 620.266,978.189C621.316,978.185 622.201,977.293 622.197,976.242C622.193,975.111 621.301,974.307 620.251,974.311C612.657,974.341 607.426,979.37 604.455,984.067C604.214,984.391 604.054,984.715 603.893,985.039L603.859,976.314C603.855,975.183 602.963,974.379 601.994,974.383C600.863,974.387 599.977,975.198 599.982,976.329L600.121,1011.96L600.121,1011.96Z" style="fill:rgb(72,132,206);fill-rule:nonzero;"/>
            <path id="path4542" d="M627.324,1011.85C627.328,1012.9 628.22,1013.78 629.27,1013.78C630.401,1013.78 631.286,1012.88 631.282,1011.83L631.143,976.127C631.139,974.996 630.246,974.191 629.115,974.196C628.065,974.2 627.18,975.011 627.184,976.142L627.324,1011.85ZM627.141,965.075C627.145,966.206 628.038,967.172 629.088,967.168C630.219,967.164 631.104,966.19 631.099,965.059L631.092,963.201C631.088,962.151 630.196,961.266 629.065,961.27C628.015,961.274 627.13,962.167 627.134,963.217L627.141,965.075Z" style="fill:rgb(72,132,206);fill-rule:nonzero;"/>
            <path id="path4544" d="M672.701,974.025C671.651,974.029 670.765,974.841 670.77,975.971L670.793,981.788C667.381,977.116 661.957,974.067 655.898,974.091C645.477,974.132 637.191,983.131 637.234,993.956C637.276,1004.78 645.632,1013.72 656.053,1013.68C662.112,1013.65 667.512,1010.48 670.886,1005.78L670.91,1011.68C670.914,1012.73 671.806,1013.61 672.856,1013.61C673.906,1013.61 674.791,1012.71 674.787,1011.66L674.647,975.956C674.643,974.825 673.751,974.021 672.701,974.025L672.701,974.025ZM656.038,1009.8C647.959,1009.83 641.146,1002.83 641.111,993.941C641.077,985.055 647.835,977.919 655.913,977.888C664.072,977.856 670.805,984.938 670.84,993.825C670.874,1002.71 664.197,1009.76 656.038,1009.8Z" style="fill:rgb(72,132,206);fill-rule:nonzero;"/>
            <path id="path4546" d="M680.704,1007.92C683.946,1010.5 688.966,1013.47 695.348,1013.52C699.226,1013.51 702.453,1012.36 705.191,1010.33C707.849,1008.3 709.697,1005.63 709.684,1002.32C709.671,999.004 707.801,995.942 705.209,994.256C702.457,992.731 699.382,991.613 695.583,991.062L695.422,991.063C691.784,990.511 689.115,989.552 687.333,988.348C685.793,987.142 685.062,986.014 685.055,984.398C685.049,982.782 685.931,981.163 687.542,979.864C689.233,978.484 691.815,977.586 695.046,977.573C698.924,977.558 701.84,979.566 704.755,981.493C705.646,982.055 706.857,981.808 707.419,980.917C707.981,980.027 707.734,978.816 706.843,978.173C703.765,976.246 700.121,973.918 695.032,973.938C690.993,973.953 687.685,975.017 685.348,976.641C682.851,978.509 681.085,981.263 681.097,984.413C681.109,987.483 682.896,990.061 685.406,991.506C687.675,993.112 690.828,993.908 694.385,994.54L694.547,994.621C698.427,995.252 701.259,996.21 702.96,997.496C704.986,999.184 705.718,1000.47 705.806,1002.33C705.813,1004.11 704.77,1005.89 702.836,1007.19C701.065,1008.65 698.403,1009.63 695.333,1009.64C690.324,1009.66 685.952,1007.1 683.197,1005.09C682.306,1004.36 681.095,1004.53 680.452,1005.34C679.809,1006.15 679.894,1007.2 680.704,1007.92Z" style="fill:rgb(72,132,206);fill-rule:nonzero;"/>
        </g>
    </g>
    <defs>
        <linearGradient id="_Linear1" x1="0" y1="0" x2="1" y2="0" gradientUnits="userSpaceOnUse" gradientTransform="matrix(10039.4,23622,-23622,10039.4,0,0)"><stop offset="0" style="stop-color:rgb(125,125,125);stop-opacity:1"/><stop offset="0.18" style="stop-color:rgb(153,153,153);stop-opacity:1"/><stop offset="0.38" style="stop-color:rgb(178,178,178);stop-opacity:1"/><stop offset="1" style="stop-color:rgb(188,188,188);stop-opacity:1"/></linearGradient>
    </defs>
</svg>
