<?xml version="1.0" encoding="UTF-8" standalone="no"?>
<!-- Created with Inkscape (http://www.inkscape.org/) -->

<svg
   xmlns:dc="http://purl.org/dc/elements/1.1/"
   xmlns:cc="http://creativecommons.org/ns#"
   xmlns:rdf="http://www.w3.org/1999/02/22-rdf-syntax-ns#"
   xmlns:svg="http://www.w3.org/2000/svg"
   xmlns="http://www.w3.org/2000/svg"
   xmlns:sodipodi="http://sodipodi.sourceforge.net/DTD/sodipodi-0.dtd"
   xmlns:inkscape="http://www.inkscape.org/namespaces/inkscape"
   width="220"
   height="288"
   viewBox="0 0 219.99999 288"
   id="svg2"
   version="1.1"
   inkscape:version="0.91 r13725"
   sodipodi:docname="track-a.svg">
  <defs
     id="defs4" />
  <sodipodi:namedview
     id="base"
     pagecolor="#ffffff"
     bordercolor="#666666"
     borderopacity="1.0"
     inkscape:pageopacity="0.0"
     inkscape:pageshadow="2"
     inkscape:zoom="0.7"
     inkscape:cx="214.9448"
     inkscape:cy="457.02043"
     inkscape:document-units="px"
     inkscape:current-layer="layer1"
     showgrid="false"
     showguides="false"
     units="px"
     inkscape:window-width="1280"
     inkscape:window-height="971"
     inkscape:window-x="0"
     inkscape:window-y="0"
     inkscape:window-maximized="1" />
  <metadata
     id="metadata7">
    <rdf:RDF>
      <cc:Work
         rdf:about="">
        <dc:format>image/svg+xml</dc:format>
        <dc:type
           rdf:resource="http://purl.org/dc/dcmitype/StillImage" />
        <dc:title></dc:title>
      </cc:Work>
    </rdf:RDF>
  </metadata>
  <g
     inkscape:label="Capa 1"
     inkscape:groupmode="layer"
     id="layer1"
     transform="translate(0,-764.36216)">
    <g
       id="g4289"
       transform="matrix(5.2796742,0,0,5.2796742,-1854.2864,-1474.4672)">
      <path
         inkscape:connector-curvature="0"
         id="rect4221"
         d="m 351.21228,424.04688 0,54.54882 41.66993,0 0,-54.54882 -41.66993,0 z m 1.11329,1.17187 39.375,0 0,39.10742 -39.375,0 0,-39.10742 z"
         style="color:#000000;clip-rule:nonzero;display:inline;overflow:visible;visibility:visible;opacity:1;isolation:auto;mix-blend-mode:normal;color-interpolation:sRGB;color-interpolation-filters:linearRGB;solid-color:#000000;solid-opacity:1;fill:#000000;fill-opacity:1;fill-rule:evenodd;stroke:none;stroke-width:1px;stroke-linecap:butt;stroke-linejoin:miter;stroke-miterlimit:4;stroke-dasharray:none;stroke-dashoffset:0;stroke-opacity:1;color-rendering:auto;image-rendering:auto;shape-rendering:auto;text-rendering:auto;enable-background:accumulate" />
      <text
         sodipodi:linespacing="125%"
         id="text4212"
         y="459.40265"
         x="355.60724"
         style="font-style:normal;font-weight:normal;font-size:40px;line-height:125%;font-family:sans-serif;letter-spacing:0px;word-spacing:0px;fill:#000000;fill-opacity:1;stroke:none;stroke-width:1px;stroke-linecap:butt;stroke-linejoin:miter;stroke-opacity:1"
         xml:space="preserve"><tspan
           style="font-style:normal;font-variant:normal;font-weight:normal;font-stretch:normal;font-family:'Futura LT ExtraBold';-inkscape-font-specification:'Futura LT ExtraBold, '"
           y="459.40265"
           x="355.60724"
           id="tspan4214"
           sodipodi:role="line">A</tspan></text>
      <g
         transform="translate(108.5236,0)"
         id="g4277">
        <path
           d="m 248.83297,476.25719 -1.13734,0 0,-8.61561 -2.16579,0 0,-1.10919 5.46894,0 0,1.10919 -2.16581,0 0,8.61561 z"
           style="font-style:normal;font-variant:normal;font-weight:normal;font-stretch:normal;font-size:12.49213886px;line-height:125%;font-family:'Futura LT Medium';-inkscape-font-specification:'Futura LT Medium, ';letter-spacing:0px;word-spacing:0px;fill:#f9f9f9;fill-opacity:1;stroke:none;stroke-width:1px;stroke-linecap:butt;stroke-linejoin:miter;stroke-opacity:1"
           id="path4279"
           inkscape:connector-curvature="0" />
        <path
           inkscape:connector-curvature="0"
           id="path4281"
           d="m 251.88281,466.5332 0,9.72461 1.13672,0 0,-4.11523 0.47266,0 2.68554,4.11523 1.37891,0 -2.87891,-4.23047 c 0.33072,-0.043 0.6303,-0.1421 0.89649,-0.29687 0.27425,-0.16337 0.50393,-0.36667 0.68945,-0.60742 0.19359,-0.24076 0.3424,-0.51468 0.44727,-0.82422 0.10486,-0.30955 0.15625,-0.64162 0.15625,-0.99414 0,-0.46432 -0.10473,-0.9068 -0.31446,-1.32813 -0.20165,-0.42131 -0.49563,-0.75142 -0.88281,-0.99218 -0.36298,-0.21495 -0.75438,-0.34372 -1.17383,-0.38672 -0.41944,-0.043 -0.83106,-0.0645 -1.23437,-0.0645 l -1.37891,0 z m 1.13672,1.08203 0.30274,0 c 0.28232,0 0.56899,0.0215 0.85937,0.0645 0.29845,0.0344 0.5649,0.11711 0.79883,0.24609 0.24199,0.12038 0.44049,0.29715 0.59375,0.5293 0.15325,0.22356 0.22851,0.52402 0.22851,0.90234 0,0.38693 -0.0716,0.69558 -0.21679,0.92774 -0.1452,0.23216 -0.33444,0.41399 -0.56836,0.54296 -0.22586,0.12897 -0.48501,0.21482 -0.77539,0.25782 -0.28233,0.0344 -0.56899,0.0508 -0.85938,0.0508 l -0.36328,0 0,-3.52149 z"
           style="font-style:normal;font-variant:normal;font-weight:normal;font-stretch:normal;font-size:12.49213886px;line-height:125%;font-family:'Futura LT Medium';-inkscape-font-specification:'Futura LT Medium, ';letter-spacing:0px;word-spacing:0px;fill:#f9f9f9;fill-opacity:1;stroke:none;stroke-width:1px;stroke-linecap:butt;stroke-linejoin:miter;stroke-opacity:1" />
        <path
           inkscape:connector-curvature="0"
           id="path4283"
           d="m 261.83984,466.11914 -4.35546,10.13867 1.22265,0 1.04102,-2.4375 4.18554,0 1.04102,2.4375 1.2207,0 -4.35547,-10.13867 z m 0,2.6582 1.6211,3.9336 -3.24219,0 1.62109,-3.9336 z"
           style="font-style:normal;font-variant:normal;font-weight:normal;font-stretch:normal;font-size:12.49213886px;line-height:125%;font-family:'Futura LT Medium';-inkscape-font-specification:'Futura LT Medium, ';letter-spacing:0px;word-spacing:0px;fill:#f9f9f9;fill-opacity:1;stroke:none;stroke-width:1px;stroke-linecap:butt;stroke-linejoin:miter;stroke-opacity:1" />
        <path
           d="m 273.60256,468.38964 q -0.49608,-0.46431 -1.12525,-0.70936 -0.62917,-0.24507 -1.28254,-0.24507 -0.76226,0 -1.42773,0.32245 -0.65336,0.30954 -1.13734,0.85124 -0.48398,0.5417 -0.76226,1.26397 -0.27829,0.72226 -0.27829,1.53481 0,0.79966 0.26618,1.52192 0.27829,0.70936 0.76227,1.25106 0.48397,0.5417 1.13734,0.86415 0.65337,0.30954 1.41563,0.30954 0.67757,0 1.29464,-0.25795 0.62917,-0.25796 1.13735,-0.74806 l 0,1.43163 q -0.53238,0.33534 -1.16155,0.50301 -0.62917,0.18056 -1.23413,0.18056 -0.98006,0 -1.85122,-0.38692 -0.85905,-0.38693 -1.51243,-1.05761 -0.64126,-0.68357 -1.01635,-1.5993 -0.37508,-0.91573 -0.37508,-1.97334 0,-1.0834 0.37508,-2.01202 0.38719,-0.94153 1.04056,-1.6251 0.66546,-0.69647 1.54872,-1.0834 0.88326,-0.39983 1.8875,-0.39983 0.60498,0 1.18575,0.16767 0.59287,0.15477 1.11315,0.49011 l 0,1.40584 z"
           style="font-style:normal;font-variant:normal;font-weight:normal;font-stretch:normal;font-size:12.49213886px;line-height:125%;font-family:'Futura LT Medium';-inkscape-font-specification:'Futura LT Medium, ';letter-spacing:0px;word-spacing:0px;fill:#f9f9f9;fill-opacity:1;stroke:none;stroke-width:1px;stroke-linecap:butt;stroke-linejoin:miter;stroke-opacity:1"
           id="path4285"
           inkscape:connector-curvature="0" />
        <path
           d="m 279.95663,466.53239 1.48824,0 -4.10171,4.37228 4.1743,5.35252 -1.53662,0 -3.43624,-4.52707 -0.45977,0.46431 0,4.06276 -1.13735,0 0,-9.7248 1.13735,0 0,4.21751 3.8718,-4.21751 z"
           style="font-style:normal;font-variant:normal;font-weight:normal;font-stretch:normal;font-size:12.49213886px;line-height:125%;font-family:'Futura LT Medium';-inkscape-font-specification:'Futura LT Medium, ';letter-spacing:0px;word-spacing:0px;fill:#f9f9f9;fill-opacity:1;stroke:none;stroke-width:1px;stroke-linecap:butt;stroke-linejoin:miter;stroke-opacity:1"
           id="path4287"
           inkscape:connector-curvature="0" />
      </g>
    </g>
  </g>
</svg>
