<?xml version="1.0" encoding="UTF-8" standalone="no"?>
<!-- Created with Inkscape (http://www.inkscape.org/) -->

<svg
   xmlns:dc="http://purl.org/dc/elements/1.1/"
   xmlns:cc="http://creativecommons.org/ns#"
   xmlns:rdf="http://www.w3.org/1999/02/22-rdf-syntax-ns#"
   xmlns:svg="http://www.w3.org/2000/svg"
   xmlns="http://www.w3.org/2000/svg"
   xmlns:sodipodi="http://sodipodi.sourceforge.net/DTD/sodipodi-0.dtd"
   xmlns:inkscape="http://www.inkscape.org/namespaces/inkscape"
   width="220"
   height="288"
   viewBox="0 0 219.99999 288"
   id="svg2"
   version="1.1"
   inkscape:version="0.91 r13725"
   sodipodi:docname="track-b.svg">
  <defs
     id="defs4" />
  <sodipodi:namedview
     id="base"
     pagecolor="#ffffff"
     bordercolor="#666666"
     borderopacity="1.0"
     inkscape:pageopacity="0.0"
     inkscape:pageshadow="2"
     inkscape:zoom="0.7"
     inkscape:cx="214.9448"
     inkscape:cy="457.02043"
     inkscape:document-units="px"
     inkscape:current-layer="layer1"
     showgrid="false"
     showguides="false"
     units="px"
     inkscape:window-width="1280"
     inkscape:window-height="971"
     inkscape:window-x="0"
     inkscape:window-y="0"
     inkscape:window-maximized="1" />
  <metadata
     id="metadata7">
    <rdf:RDF>
      <cc:Work
         rdf:about="">
        <dc:format>image/svg+xml</dc:format>
        <dc:type
           rdf:resource="http://purl.org/dc/dcmitype/StillImage" />
        <dc:title></dc:title>
      </cc:Work>
    </rdf:RDF>
  </metadata>
  <g
     inkscape:label="Capa 1"
     inkscape:groupmode="layer"
     id="layer1"
     transform="translate(0,-764.36216)">
    <g
       transform="matrix(5.2795865,0,0,5.2795865,-1281.2959,-1474.4252)"
       id="g4300">
      <path
         inkscape:connector-curvature="0"
         style="color:#000000;clip-rule:nonzero;display:inline;overflow:visible;visibility:visible;opacity:1;isolation:auto;mix-blend-mode:normal;color-interpolation:sRGB;color-interpolation-filters:linearRGB;solid-color:#000000;solid-opacity:1;fill:#000000;fill-opacity:1;fill-rule:evenodd;stroke:none;stroke-width:1px;stroke-linecap:butt;stroke-linejoin:miter;stroke-miterlimit:4;stroke-dasharray:none;stroke-dashoffset:0;stroke-opacity:1;color-rendering:auto;image-rendering:auto;shape-rendering:auto;text-rendering:auto;enable-background:accumulate"
         d="m 242.68869,424.04688 0,54.54882 41.66993,0 0,-54.54882 -41.66993,0 z m 1.11329,1.17187 39.375,0 0,39.10742 -39.375,0 0,-39.10742 z"
         id="path4226" />
      <g
         id="g4270">
        <path
           inkscape:connector-curvature="0"
           id="path4245"
           style="font-style:normal;font-variant:normal;font-weight:normal;font-stretch:normal;font-size:12.49213886px;line-height:125%;font-family:'Futura LT Medium';-inkscape-font-specification:'Futura LT Medium, ';letter-spacing:0px;word-spacing:0px;fill:#f9f9f9;fill-opacity:1;stroke:none;stroke-width:1px;stroke-linecap:butt;stroke-linejoin:miter;stroke-opacity:1"
           d="m 248.83297,476.25719 -1.13734,0 0,-8.61561 -2.16579,0 0,-1.10919 5.46894,0 0,1.10919 -2.16581,0 0,8.61561 z" />
        <path
           inkscape:connector-curvature="0"
           style="font-style:normal;font-variant:normal;font-weight:normal;font-stretch:normal;font-size:12.49213886px;line-height:125%;font-family:'Futura LT Medium';-inkscape-font-specification:'Futura LT Medium, ';letter-spacing:0px;word-spacing:0px;fill:#f9f9f9;fill-opacity:1;stroke:none;stroke-width:1px;stroke-linecap:butt;stroke-linejoin:miter;stroke-opacity:1"
           d="m 251.88281,466.5332 0,9.72461 1.13672,0 0,-4.11523 0.47266,0 2.68554,4.11523 1.37891,0 -2.87891,-4.23047 c 0.33072,-0.043 0.6303,-0.1421 0.89649,-0.29687 0.27425,-0.16337 0.50393,-0.36667 0.68945,-0.60742 0.19359,-0.24076 0.3424,-0.51468 0.44727,-0.82422 0.10486,-0.30955 0.15625,-0.64162 0.15625,-0.99414 0,-0.46432 -0.10473,-0.9068 -0.31446,-1.32813 -0.20165,-0.42131 -0.49563,-0.75142 -0.88281,-0.99218 -0.36298,-0.21495 -0.75438,-0.34372 -1.17383,-0.38672 -0.41944,-0.043 -0.83106,-0.0645 -1.23437,-0.0645 l -1.37891,0 z m 1.13672,1.08203 0.30274,0 c 0.28232,0 0.56899,0.0215 0.85937,0.0645 0.29845,0.0344 0.5649,0.11711 0.79883,0.24609 0.24199,0.12038 0.44049,0.29715 0.59375,0.5293 0.15325,0.22356 0.22851,0.52402 0.22851,0.90234 0,0.38693 -0.0716,0.69558 -0.21679,0.92774 -0.1452,0.23216 -0.33444,0.41399 -0.56836,0.54296 -0.22586,0.12897 -0.48501,0.21482 -0.77539,0.25782 -0.28233,0.0344 -0.56899,0.0508 -0.85938,0.0508 l -0.36328,0 0,-3.52149 z"
           id="path4247" />
        <path
           inkscape:connector-curvature="0"
           style="font-style:normal;font-variant:normal;font-weight:normal;font-stretch:normal;font-size:12.49213886px;line-height:125%;font-family:'Futura LT Medium';-inkscape-font-specification:'Futura LT Medium, ';letter-spacing:0px;word-spacing:0px;fill:#f9f9f9;fill-opacity:1;stroke:none;stroke-width:1px;stroke-linecap:butt;stroke-linejoin:miter;stroke-opacity:1"
           d="m 261.83984,466.11914 -4.35546,10.13867 1.22265,0 1.04102,-2.4375 4.18554,0 1.04102,2.4375 1.2207,0 -4.35547,-10.13867 z m 0,2.6582 1.6211,3.9336 -3.24219,0 1.62109,-3.9336 z"
           id="path4249" />
        <path
           inkscape:connector-curvature="0"
           id="path4251"
           style="font-style:normal;font-variant:normal;font-weight:normal;font-stretch:normal;font-size:12.49213886px;line-height:125%;font-family:'Futura LT Medium';-inkscape-font-specification:'Futura LT Medium, ';letter-spacing:0px;word-spacing:0px;fill:#f9f9f9;fill-opacity:1;stroke:none;stroke-width:1px;stroke-linecap:butt;stroke-linejoin:miter;stroke-opacity:1"
           d="m 273.60256,468.38964 q -0.49608,-0.46431 -1.12525,-0.70936 -0.62917,-0.24507 -1.28254,-0.24507 -0.76226,0 -1.42773,0.32245 -0.65336,0.30954 -1.13734,0.85124 -0.48398,0.5417 -0.76226,1.26397 -0.27829,0.72226 -0.27829,1.53481 0,0.79966 0.26618,1.52192 0.27829,0.70936 0.76227,1.25106 0.48397,0.5417 1.13734,0.86415 0.65337,0.30954 1.41563,0.30954 0.67757,0 1.29464,-0.25795 0.62917,-0.25796 1.13735,-0.74806 l 0,1.43163 q -0.53238,0.33534 -1.16155,0.50301 -0.62917,0.18056 -1.23413,0.18056 -0.98006,0 -1.85122,-0.38692 -0.85905,-0.38693 -1.51243,-1.05761 -0.64126,-0.68357 -1.01635,-1.5993 -0.37508,-0.91573 -0.37508,-1.97334 0,-1.0834 0.37508,-2.01202 0.38719,-0.94153 1.04056,-1.6251 0.66546,-0.69647 1.54872,-1.0834 0.88326,-0.39983 1.8875,-0.39983 0.60498,0 1.18575,0.16767 0.59287,0.15477 1.11315,0.49011 l 0,1.40584 z" />
        <path
           inkscape:connector-curvature="0"
           id="path4253"
           style="font-style:normal;font-variant:normal;font-weight:normal;font-stretch:normal;font-size:12.49213886px;line-height:125%;font-family:'Futura LT Medium';-inkscape-font-specification:'Futura LT Medium, ';letter-spacing:0px;word-spacing:0px;fill:#f9f9f9;fill-opacity:1;stroke:none;stroke-width:1px;stroke-linecap:butt;stroke-linejoin:miter;stroke-opacity:1"
           d="m 279.95663,466.53239 1.48824,0 -4.10171,4.37228 4.1743,5.35252 -1.53662,0 -3.43624,-4.52707 -0.45977,0.46431 0,4.06276 -1.13735,0 0,-9.7248 1.13735,0 0,4.21751 3.8718,-4.21751 z" />
      </g>
      <path
         inkscape:connector-curvature="0"
         id="path4233"
         d="m 250.54297,429.24219 0,30.16015 14.91992,0 c 1.30667,0 2.61326,-0.13372 3.91992,-0.40039 1.33334,-0.29333 2.52055,-0.75843 3.56055,-1.39843 1.06667,-0.66667 1.92055,-1.5349 2.56055,-2.60157 0.66666,-1.06666 1,-2.37325 1,-3.91992 0,-1.81333 -0.47946,-3.30518 -1.43946,-4.47851 -0.96,-1.2 -2.26659,-2.09499 -3.91992,-2.68164 l 0,-0.23829 c 1.33333,-0.42666 2.31899,-1.21466 2.95899,-2.36132 0.66666,-1.14667 1,-2.38542 1,-3.71875 0,-1.73334 -0.34573,-3.14691 -1.03907,-4.24024 -0.66666,-1.09333 -1.56164,-1.94721 -2.68164,-2.56055 -1.09333,-0.61333 -2.34643,-1.0269 -3.75976,-1.24023 -1.41334,-0.21333 -2.85365,-0.32031 -4.32032,-0.32031 l -12.75976,0 z m 10.16015,7.28125 0.75977,0 c 0.4,0 0.81358,0.0124 1.24023,0.0391 0.42668,0 0.81349,0.0659 1.16016,0.19922 0.37333,0.10667 0.66753,0.30823 0.88086,0.60156 0.24,0.26667 0.35938,0.68024 0.35938,1.24024 0,0.53333 -0.10698,0.94494 -0.32032,1.23828 -0.18666,0.29333 -0.45216,0.52164 -0.79882,0.68164 -0.32,0.13333 -0.68008,0.22596 -1.08008,0.27929 -0.4,0.0267 -0.80117,0.0391 -1.20118,0.0391 l -1,0 0,-4.31836 z m 0,10.67968 1.08008,0 c 0.42667,0 0.90808,0.0124 1.44141,0.0391 0.53333,0.0267 1.02518,0.12125 1.47851,0.28125 0.48,0.13333 0.86683,0.37208 1.16016,0.71875 0.32,0.32 0.48047,0.8014 0.48047,1.4414 0,0.61334 -0.14612,1.09279 -0.43945,1.43946 -0.29334,0.34666 -0.66776,0.59976 -1.1211,0.75976 -0.42666,0.16 -0.89372,0.25263 -1.40039,0.2793 -0.50666,0.0267 -0.98612,0.041 -1.43945,0.041 l -1.24024,0 0,-5 z"
         style="font-style:normal;font-variant:normal;font-weight:normal;font-stretch:normal;font-size:medium;line-height:125%;font-family:'Futura LT ExtraBold';-inkscape-font-specification:'Futura LT ExtraBold, ';letter-spacing:0px;word-spacing:0px;fill:#000000;fill-opacity:1;stroke:none;stroke-width:1px;stroke-linecap:butt;stroke-linejoin:miter;stroke-opacity:1" />
    </g>
  </g>
</svg>
