<?xml version="1.0" encoding="utf-8"?>
<!-- Generator: Adobe Illustrator 21.1.0, SVG Export Plug-In . SVG Version: 6.00 Build 0)  -->
<svg version="1.1" id="Capa_6" xmlns="http://www.w3.org/2000/svg" xmlns:xlink="http://www.w3.org/1999/xlink" x="0px" y="0px"
	 viewBox="0 0 841.9 595.3" style="enable-background:new 0 0 841.9 595.3;" xml:space="preserve">
<style type="text/css">
	.st0{fill:#AA2E5E;}
	.st1{fill:#EDE239;}
	.st2{fill:#53A7B2;}
	.st3{fill:#5C1D53;}
	.st4{fill:#FFFFFF;}
</style>
<g>
	<g>
		<g>
			<path d="M122.9,481.2h-15.8l-3.5,20.3H93l16.8-84.4h11.9l17,84.4h-12.4L122.9,481.2z M108,472.2h13.9l-6.8-36.9L108,472.2z"/>
		</g>
		<g>
			<path d="M173.2,417c6.1,0,10.9,0.9,14.5,2.7c3.5,1.8,6.2,4.4,7.9,7.9c1.8,3.5,2.9,7.9,3.3,13.2c0.5,5.3,0.7,11.4,0.7,18.5
				c0,7.7-0.2,14.2-0.6,19.6c-0.4,5.4-1.5,9.7-3.2,13c-1.7,3.3-4.3,5.7-7.7,7.3c-3.4,1.5-8.1,2.3-14.1,2.3h-19.7V417H173.2z
				 M165.4,425.6v66.5h8.8c3.2,0,5.7-0.6,7.5-1.8c1.9-1.2,3.2-3.1,4.2-5.8c0.9-2.6,1.5-6,1.8-10.2c0.3-4.2,0.4-9.2,0.4-15.1
				c0-6.2-0.1-11.4-0.3-15.7s-0.8-7.7-1.8-10.4c-0.9-2.6-2.4-4.6-4.4-5.8c-2-1.2-4.7-1.8-8.2-1.8H165.4z"/>
		</g>
		<g>
			<path d="M240.7,481.2h-15.8l-3.5,20.3h-10.7l16.8-84.4h11.9l17,84.4h-12.4L240.7,481.2z M225.7,472.2h13.9l-6.8-36.9L225.7,472.2
				z"/>
		</g>
	</g>
	<g>
		<g>
			<g>
				<polygon class="st0" points="327.5,102.8 391.7,115.5 339.5,199.4 				"/>
			</g>
		</g>
		<g>
			<g>
				<polygon class="st1" points="269.3,162.9 322.4,107.1 339.5,199.4 				"/>
			</g>
		</g>
		<g>
			<g>
				<polygon class="st2" points="391.7,115.5 421.1,147.2 339.5,199.4 				"/>
			</g>
		</g>
		<g>
			<g>
				<polygon class="st3" points="339.5,203.2 421.1,147.2 421.1,239.3 				"/>
			</g>
		</g>
		<g>
			<g>
				<polygon class="st2" points="285.4,232.5 269.8,165.4 339.5,199.4 				"/>
			</g>
		</g>
		<g>
			<g>
				<polygon class="st0" points="380.9,275.4 290.2,231 339.5,199.4 				"/>
			</g>
		</g>
		<g>
			<g>
				<polygon class="st1" points="418.8,245.6 381.6,278.7 340.6,199.5 				"/>
			</g>
		</g>
		<g>
			<g>
				<path class="st3" d="M294.9,233.3l86,42.1l37.9,68.9c0,0-100.2-82.2-128.5-109.8C289,233.4,293.3,232.5,294.9,233.3z"/>
			</g>
		</g>
		<g>
			<g>
				<polygon class="st2" points="380.9,275.4 418.8,245.6 421.1,342.5 				"/>
			</g>
		</g>
		<g>
			<g>
				<polygon class="st0" points="514.8,102.8 448.7,112.5 502.8,199.4 				"/>
			</g>
		</g>
		<g>
			<g>
				<polygon class="st1" points="573,162.9 518.2,105.3 502.8,199.4 				"/>
			</g>
		</g>
		<g>
			<g>
				<polygon class="st2" points="450.5,115.5 421.1,147.2 502.8,199.4 				"/>
			</g>
		</g>
		<g>
			<g>
				<polygon class="st0" points="502.8,203.2 421.1,147.2 421.1,239.3 				"/>
			</g>
		</g>
		<g>
			<g>
				<polygon class="st2" points="556.9,232.5 572.4,165.4 502.8,199.4 				"/>
			</g>
		</g>
		<g>
			<g>
				<polygon class="st0" points="461.4,275.4 552,231 502.8,199.4 				"/>
			</g>
		</g>
		<g>
			<g>
				<polygon class="st1" points="423.5,245.6 460.7,278.7 501.7,199.5 				"/>
			</g>
		</g>
		<g>
			<g>
				<path class="st3" d="M547.4,233.3l-86,42.1l-37.9,68.9c0,0,100.2-82.2,128.5-109.8C553.3,233.4,549,232.5,547.4,233.3z"/>
			</g>
		</g>
		<g>
			<g>
				<polygon class="st2" points="461.4,275.4 423.5,245.6 421.1,342.5 				"/>
			</g>
		</g>
		<g>
			<g>
				<g>
					<g>
						<path class="st4" d="M421.1,351.3c-0.4,0-0.8-0.1-1.1-0.2c-1-0.4-1.6-1.4-1.6-2.5V147.2c0-0.6,0.2-1.2,0.6-1.7l27.5-34.7
							c0.4-0.5,1-0.9,1.7-1l68-11.2c0.8-0.1,1.8,0.2,2.4,0.8l56.4,61.7c0.6,0.7,0.8,1.6,0.6,2.4l-16.1,69.5
							c-0.1,0.6-0.4,1.1-0.9,1.4L422.9,350.7C422.4,351.1,421.8,351.3,421.1,351.3z M423.8,148.1v194.6L554.5,231l15.6-67.3
							l-54.4-59.6L450.1,115L423.8,148.1z"/>
					</g>
				</g>
				<g>
					<g>
						<path class="st4" d="M421.1,351.3c-0.6,0-1.3-0.2-1.8-0.6L283.6,234.5c-0.4-0.4-0.7-0.9-0.9-1.4l-16.1-69.5
							c-0.2-0.9,0-1.8,0.6-2.4l56.4-61.7c0.6-0.7,1.6-1,2.4-0.8l68,11.2c0.7,0.1,1.3,0.5,1.7,1l27.5,34.7c0.4,0.5,0.6,1.1,0.6,1.7
							v201.4c0,1.1-0.6,2-1.6,2.5C421.9,351.2,421.5,351.3,421.1,351.3z M287.8,231l130.6,111.8V148.1L392.2,115l-65.5-10.8
							l-54.4,59.6L287.8,231z"/>
					</g>
				</g>
				<g>
					<g>
						<polygon class="st4" points="425.9,345.7 421.1,343.1 500.2,199.3 514,100.9 519.3,101.6 505.2,201.5 						"/>
					</g>
				</g>
				<g>
					<g>
						<polygon class="st4" points="555.5,234.8 500.5,201.6 446.4,113.9 451,111.1 504.7,198.2 558.3,230.1 						"/>
					</g>
				</g>
				<g>
					<g>
						
							<rect x="458.7" y="125.6" transform="matrix(0.5539 -0.8326 0.8326 0.5539 60.9677 461.7674)" class="st4" width="5.4" height="96.7"/>
					</g>
				</g>
				<g>
					<g>
						
							<rect x="411.1" y="200.5" transform="matrix(0.8832 -0.469 0.469 0.8832 -37.2522 256.8462)" class="st4" width="171.9" height="5.4"/>
					</g>
				</g>
				<g>
					<g>
						<polygon class="st4" points="416.4,345.7 336.8,200.6 323,101.6 328.3,100.9 342.1,199.3 421.2,343.1 						"/>
					</g>
				</g>
				<g>
					<g>
						<polygon class="st4" points="286.8,234.8 284,230.1 337.5,198.2 391.3,111.1 395.9,113.9 340.9,202.5 						"/>
					</g>
				</g>
				<g>
					<g>
						
							<rect x="332.5" y="171.3" transform="matrix(0.8321 -0.5547 0.5547 0.8321 -32.544 240.4907)" class="st4" width="96.7" height="5.4"/>
					</g>
				</g>
				<g>
					<g>
						
							<rect x="342.5" y="117.3" transform="matrix(0.4687 -0.8834 0.8834 0.4687 3.8854 412.8997)" class="st4" width="5.4" height="171.9"/>
					</g>
				</g>
			</g>
			<g>
				<g>
					<polygon class="st4" points="381.2,278.6 289,232 291.5,227.1 380.5,272.2 419.4,239.5 422.9,243.6 					"/>
				</g>
			</g>
			<g>
				<g>
					<polygon class="st4" points="461,278.6 419.4,243.6 422.9,239.5 461.8,272.2 550.8,227.1 553.3,232 					"/>
				</g>
			</g>
			<g>
				<g>
					<circle class="st4" cx="339.5" cy="199.4" r="12"/>
				</g>
			</g>
			<g>
				<g>
					<circle class="st4" cx="421.1" cy="241.6" r="12"/>
				</g>
			</g>
			<g>
				<g>
					<circle class="st4" cx="502.8" cy="199.4" r="12"/>
				</g>
			</g>
			<g>
				<g>
					<circle class="st4" cx="421.1" cy="145.4" r="12"/>
				</g>
			</g>
			<g>
				<g>
					<circle class="st4" cx="421.1" cy="337.8" r="12"/>
				</g>
			</g>
			<g>
				<g>
					<circle class="st4" cx="516.7" cy="107.1" r="12"/>
				</g>
			</g>
			<g>
				<g>
					<circle class="st4" cx="573" cy="162.9" r="12"/>
				</g>
			</g>
			<g>
				<g>
					<circle class="st4" cx="556.9" cy="232.5" r="12"/>
				</g>
			</g>
			<g>
				<g>
					<circle class="st4" cx="449.4" cy="112.5" r="12"/>
				</g>
			</g>
			<g>
				<g>
					<circle class="st4" cx="393.6" cy="112.5" r="12"/>
				</g>
			</g>
			<g>
				<g>
					<circle class="st4" cx="325.6" cy="103.5" r="12"/>
				</g>
			</g>
			<g>
				<g>
					<circle class="st4" cx="269.3" cy="162.9" r="12"/>
				</g>
			</g>
			<g>
				<g>
					<circle class="st4" cx="285.4" cy="232.5" r="12"/>
				</g>
			</g>
			<g>
				<g>
					<circle class="st4" cx="380.9" cy="275.4" r="12"/>
				</g>
			</g>
			<g>
				<g>
					
						<ellipse transform="matrix(0.1136 -0.9935 0.9935 0.1136 136.9201 704.3098)" class="st4" cx="463.2" cy="275.4" rx="12" ry="12"/>
				</g>
			</g>
		</g>
	</g>
	<g>
		<g>
			<path class="st2" d="M534.7,423.1v-5.3h5.2c1.4,0,2.9,0.2,4.4,0.6c1.4,0.4,2.8,1,3.9,2c1.2,0.9,2.1,2.2,2.8,3.7
				c0.7,1.6,1.1,3.5,1.1,5.8v15.3c0,3.7,0.3,6.4,1,8.2c0.7,1.8,2.1,2.7,4.3,2.7h3.3v6.3h-3.3c-1.9,0-3.3,0.9-4.1,2.6
				c-0.8,1.7-1.2,4.7-1.2,8.9v15.1c0,2.7-0.4,5-1.1,6.7c-0.8,1.7-1.7,3.1-2.9,4.2c-1.2,1-2.5,1.8-4,2.2c-1.4,0.4-2.9,0.6-4.4,0.6h-5
				v-5.5h4.3c1.1,0,2.1-0.1,2.9-0.3c0.8-0.2,1.5-0.8,2.1-1.6c0.6-0.8,1-2,1.3-3.7c0.3-1.7,0.4-3.9,0.4-6.7v-13.1
				c0-3.3,0.6-5.9,1.9-7.9c1.2-2,3.2-3.5,5.7-4.5c-2.4-0.9-4.3-2.3-5.6-4.3c-1.3-2-2-4.7-2-8v-12.1c0-2.7-0.1-4.8-0.4-6.4
				c-0.3-1.6-0.7-2.8-1.3-3.6c-0.6-0.8-1.2-1.4-2.1-1.6c-0.8-0.3-1.8-0.4-2.9-0.4H534.7z"/>
			<path class="st2" d="M539.7,503.8h-6.1v-7.6h5.3c1,0,1.9-0.1,2.6-0.3c0.6-0.2,1.1-0.5,1.5-1.2c0.5-0.7,0.9-1.8,1.1-3.3
				c0.3-1.6,0.4-3.8,0.4-6.5v-13.1c0-3.5,0.7-6.4,2-8.5c1-1.6,2.4-2.9,4.1-3.9c-1.6-0.9-3-2.2-4-3.8c-1.4-2.2-2.1-5-2.1-8.6v-12.1
				c0-2.6-0.1-4.6-0.4-6.2c-0.3-1.4-0.6-2.5-1.1-3.2c-0.4-0.6-0.9-1-1.5-1.2c-0.7-0.2-1.6-0.4-2.6-0.4h-5.4v-7.5h6.3
				c1.5,0,3.1,0.2,4.6,0.6c1.6,0.4,3,1.1,4.3,2.2c1.3,1,2.3,2.4,3.1,4.1c0.8,1.7,1.2,3.8,1.2,6.3v15.3c0,3.5,0.3,6.1,1,7.9
				c0.5,1.4,1.6,2,3.3,2h4.4v8.4h-4.4c-1.5,0-2.5,0.6-3.1,2c-0.7,1.6-1.1,4.4-1.1,8.4v15.1c0,2.9-0.4,5.3-1.2,7.1
				c-0.8,1.9-1.9,3.4-3.2,4.6c-1.3,1.1-2.8,2-4.4,2.4C542.8,503.6,541.3,503.8,539.7,503.8z M535.8,501.7h4c1.3,0,2.7-0.2,4.1-0.6
				c1.3-0.4,2.5-1,3.5-2c1.1-0.9,2-2.2,2.6-3.8c0.7-1.6,1-3.7,1-6.3V474c0-4.4,0.4-7.4,1.3-9.3c1-2.1,2.7-3.2,5.1-3.2h2.2v-4.1h-2.2
				c-2.6,0-4.4-1.2-5.3-3.4c-0.8-2-1.1-4.8-1.1-8.6v-15.3c0-2.2-0.3-4-1-5.4c-0.7-1.4-1.5-2.5-2.5-3.4c-1-0.8-2.2-1.4-3.5-1.8
				c-1.4-0.4-2.7-0.5-4.1-0.5h-4.1v3.2h3.3c1.2,0,2.3,0.1,3.2,0.5c1,0.3,1.9,1,2.6,2c0.6,0.9,1.1,2.2,1.4,4c0.3,1.6,0.5,3.8,0.5,6.6
				v12.1c0,3.1,0.6,5.6,1.8,7.4c1.2,1.8,2.8,3.1,5.1,3.9l2.7,0.9l-2.6,1.1c-2.3,0.9-4.1,2.3-5.2,4.1c-1.1,1.8-1.7,4.2-1.7,7.3V485
				c0,2.8-0.2,5.1-0.5,6.9c-0.3,1.8-0.8,3.2-1.5,4.1c-0.7,1-1.6,1.7-2.7,2c-0.9,0.3-2,0.4-3.2,0.4h-3.2V501.7z"/>
		</g>
	</g>
	<g>
		<g>
			<path class="st2" d="M299.7,423.1c-1,0-2,0.1-2.8,0.4c-0.8,0.3-1.5,0.9-2.1,1.7c-0.6,0.8-1,2.1-1.3,3.6c-0.3,1.6-0.4,3.6-0.4,6.2
				v12.7c0,3.3-0.6,5.8-1.9,7.5c-1.2,1.8-3.1,3.1-5.7,4c2.8,1.2,4.7,2.8,5.9,4.7s1.7,4.6,1.7,7.9V485c0,2.8,0.1,5,0.4,6.7
				c0.3,1.7,0.7,2.9,1.3,3.7c0.6,0.8,1.3,1.3,2.1,1.6c0.8,0.2,1.8,0.3,2.8,0.3h4.4v5.5h-4.9c-1.5,0-3-0.2-4.5-0.6
				c-1.5-0.4-2.8-1.1-4-2.2c-1.2-1.1-2.2-2.4-2.9-4.2s-1.1-4-1.1-6.7v-14.6c0-4.4-0.4-7.4-1.2-9.2s-2.2-2.7-4.2-2.7h-3.2v-6.3h3.2
				c2.2,0,3.7-0.9,4.4-2.8c0.7-1.8,1-4.6,1-8.4v-15.2c0-2.3,0.4-4.3,1.1-5.8c0.7-1.6,1.7-2.8,2.8-3.7c1.2-0.9,2.5-1.6,3.9-2
				c1.5-0.4,2.9-0.6,4.4-0.6h5.2v5.3H299.7z"/>
			<path class="st2" d="M305.3,503.8h-6c-1.6,0-3.2-0.2-4.8-0.6c-1.6-0.5-3.1-1.3-4.4-2.4c-1.3-1.2-2.4-2.7-3.2-4.6
				c-0.8-1.9-1.2-4.3-1.2-7.1v-14.6c0-4.2-0.4-7.1-1.1-8.8c-0.6-1.4-1.6-2.1-3.2-2.1h-4.3v-8.4h4.3c1.7,0,2.8-0.7,3.3-2.1
				c0.6-1.7,1-4.4,1-8v-15.2c0-2.5,0.4-4.6,1.2-6.3c0.8-1.7,1.8-3.1,3.1-4.1c1.3-1,2.7-1.7,4.3-2.2c1.5-0.4,3.1-0.6,4.6-0.6h6.3v7.5
				h-5.5c-0.9,0-1.7,0.1-2.5,0.4c-0.6,0.2-1.1,0.6-1.5,1.3c-0.5,0.7-0.8,1.8-1.1,3.2c-0.3,1.5-0.4,3.5-0.4,6v12.7
				c0,3.5-0.7,6.2-2.1,8.2c-1,1.4-2.3,2.5-4,3.4c1.9,1.1,3.3,2.5,4.3,4.1c1.2,2.1,1.9,4.9,1.9,8.5V485c0,2.7,0.1,4.9,0.4,6.5
				c0.3,1.5,0.6,2.6,1.1,3.3c0.4,0.6,0.9,1,1.5,1.1c0.7,0.2,1.6,0.3,2.5,0.3h5.4V503.8z M279.2,461.4h2.1c2.5,0,4.3,1.1,5.2,3.3
				c0.8,2,1.3,5.1,1.3,9.7v14.6c0,2.6,0.3,4.7,1,6.3c0.7,1.6,1.6,2.9,2.6,3.8c1,0.9,2.2,1.6,3.6,1.9c1.4,0.4,2.8,0.6,4.2,0.6h3.8
				v-3.3h-3.3c-1.1,0-2.2-0.1-3.1-0.4c-1.1-0.3-2-1-2.7-2c-0.7-1-1.2-2.3-1.5-4.2c-0.3-1.7-0.4-4-0.4-6.9v-13.1
				c0-3.2-0.5-5.6-1.5-7.4c-1-1.7-2.8-3.1-5.4-4.3l-2.5-1.1l2.6-0.9c2.4-0.8,4-2,5.2-3.6c1.1-1.6,1.7-3.9,1.7-6.9v-12.7
				c0-2.6,0.2-4.8,0.5-6.4c0.3-1.7,0.8-3,1.4-4c0.7-1,1.6-1.7,2.6-2.1c1-0.3,2-0.5,3.2-0.5h3.4v-3.2H299c-1.4,0-2.7,0.2-4.1,0.5
				c-1.3,0.3-2.5,0.9-3.5,1.8c-1,0.8-1.9,2-2.5,3.4c-0.7,1.4-1,3.2-1,5.4v15.2c0,3.9-0.4,6.8-1.1,8.8c-0.6,1.6-2,3.4-5.4,3.4h-2.1
				V461.4z"/>
		</g>
	</g>
	<g>
		<g>
			<path class="st2" d="M332.7,416.8v75.8h17.3v8.6h-28.7v-84.4H332.7z"/>
		</g>
		<g>
			<path class="st2" d="M386.5,415.3c5.6,0,9.9,0.9,13,2.7c3.1,1.8,5.3,4.5,6.8,8.2c1.5,3.6,2.4,8.2,2.7,13.7
				c0.3,5.5,0.5,11.9,0.5,19.2c0,7.4-0.2,13.8-0.5,19.3c-0.3,5.4-1.2,10-2.7,13.6c-1.5,3.6-3.7,6.3-6.8,8.1c-3.1,1.8-7.4,2.7-13,2.7
				s-10-0.9-13.1-2.8c-3.1-1.8-5.5-4.6-7-8.2c-1.5-3.6-2.5-8.2-2.9-13.6c-0.4-5.4-0.6-11.8-0.6-19c0-7.2,0.2-13.5,0.6-18.9
				c0.4-5.4,1.3-10,2.9-13.7c1.5-3.7,3.9-6.5,7-8.3C376.5,416.3,380.9,415.3,386.5,415.3z M386.5,424.2c-2.7,0-4.9,0.7-6.4,2
				c-1.5,1.3-2.7,3.4-3.5,6.2c-0.8,2.8-1.3,6.4-1.5,10.8c-0.2,4.4-0.3,9.7-0.3,15.9c0,6.3,0.1,11.6,0.3,16c0.2,4.4,0.7,8,1.5,10.8
				c0.8,2.8,2,4.8,3.5,6.1c1.5,1.2,3.7,1.9,6.4,1.9c2.6,0,4.7-0.6,6.2-1.9c1.5-1.2,2.6-3.3,3.3-6.1c0.7-2.8,1.1-6.4,1.3-10.8
				c0.1-4.4,0.2-9.7,0.2-16c0-6.2-0.1-11.5-0.2-15.9c-0.2-4.4-0.6-8.1-1.3-10.9c-0.7-2.8-1.8-4.9-3.3-6.2
				C391.2,424.8,389.1,424.2,386.5,424.2z"/>
		</g>
		<g>
			<path class="st2" d="M444.6,481.9l11.6-65.1h10.7l-17,84.4H438l-16.9-84.4h12.1L444.6,481.9z"/>
		</g>
		<g>
			<path class="st2" d="M514.9,416.8v8.8h-21.2v26.6h17.8l-0.8,9h-17v31.4h21.8v8.6h-33v-84.4H514.9z"/>
		</g>
	</g>
	<g>
		<g>
			<path d="M603,416.8c6.1,0,10.9,0.9,14.5,2.7c3.5,1.8,6.2,4.4,7.9,7.9c1.8,3.5,2.9,7.9,3.3,13.2c0.5,5.3,0.7,11.4,0.7,18.5
				c0,7.7-0.2,14.2-0.6,19.6c-0.4,5.4-1.5,9.7-3.2,13c-1.7,3.3-4.3,5.7-7.7,7.3c-3.4,1.5-8.1,2.3-14.1,2.3h-19.7v-84.4H603z
				 M595.2,425.4v66.5h8.8c3.2,0,5.7-0.6,7.5-1.8c1.9-1.2,3.2-3.1,4.2-5.8c0.9-2.6,1.5-6,1.8-10.2c0.3-4.2,0.4-9.2,0.4-15.1
				c0-6.2-0.1-11.4-0.3-15.7s-0.8-7.7-1.8-10.4c-0.9-2.6-2.4-4.6-4.4-5.8c-2-1.2-4.7-1.8-8.2-1.8H595.2z"/>
		</g>
		<g>
			<path d="M679.8,416.8v8.8h-21.2v26.6h17.8l-0.8,9h-17v31.4h21.8v8.6h-33v-84.4H679.8z"/>
		</g>
		<g>
			<path d="M717.5,481.9l11.6-65.1h10.7l-17,84.4h-11.8L694,416.8h12.1L717.5,481.9z"/>
		</g>
	</g>
</g>
</svg>
