<?xml version="1.0" encoding="UTF-8" standalone="no"?>
<!-- Created with Inkscape (http://www.inkscape.org/) -->

<svg
   xmlns:dc="http://purl.org/dc/elements/1.1/"
   xmlns:cc="http://creativecommons.org/ns#"
   xmlns:rdf="http://www.w3.org/1999/02/22-rdf-syntax-ns#"
   xmlns:svg="http://www.w3.org/2000/svg"
   xmlns="http://www.w3.org/2000/svg"
   xmlns:sodipodi="http://sodipodi.sourceforge.net/DTD/sodipodi-0.dtd"
   xmlns:inkscape="http://www.inkscape.org/namespaces/inkscape"
   width="300"
   height="300"
   viewBox="0 0 300.00001 300.00001"
   id="svg4352"
   version="1.1"
   inkscape:version="0.91 r13725"
   sodipodi:docname="hex_telegram.svg"
   inkscape:export-filename="/home/jileon/workarea/docs/logos/hex_telegram.png"
   inkscape:export-xdpi="153.60001"
   inkscape:export-ydpi="153.60001">
  <defs
     id="defs4354">
    <filter
       inkscape:collect="always"
       style="color-interpolation-filters:sRGB"
       id="filter7198-3"
       x="-0.06457679"
       width="1.1291536"
       y="-0.056029022"
       height="1.112058">
      <feGaussianBlur
         inkscape:collect="always"
         stdDeviation="2.6678908"
         id="feGaussianBlur7200-6" />
    </filter>
    <filter
       inkscape:collect="always"
       style="color-interpolation-filters:sRGB"
       id="filter5824"
       x="-0.088762127"
       width="1.1775243"
       y="-0.10452305"
       height="1.2090461">
      <feGaussianBlur
         inkscape:collect="always"
         stdDeviation="2.5600796"
         id="feGaussianBlur5826" />
    </filter>
    <filter
       inkscape:collect="always"
       style="color-interpolation-filters:sRGB"
       id="filter6703"
       x="-0.012552255"
       width="1.0251045"
       y="-0.011494292"
       height="1.0229886">
      <feGaussianBlur
         inkscape:collect="always"
         stdDeviation="0.45232142"
         id="feGaussianBlur6705" />
    </filter>
  </defs>
  <sodipodi:namedview
     id="base"
     pagecolor="#ffffff"
     bordercolor="#666666"
     borderopacity="1.0"
     inkscape:pageopacity="0.0"
     inkscape:pageshadow="2"
     inkscape:zoom="0.98994949"
     inkscape:cx="186.11138"
     inkscape:cy="158.65889"
     inkscape:document-units="px"
     inkscape:current-layer="layer1"
     showgrid="false"
     units="px"
     inkscape:window-width="812"
     inkscape:window-height="761"
     inkscape:window-x="339"
     inkscape:window-y="146"
     inkscape:window-maximized="0"
     showguides="true"
     inkscape:guide-bbox="true">
    <sodipodi:guide
       position="348.57144,285.7143"
       orientation="0,1"
       id="guide5036" />
    <sodipodi:guide
       position="425.7143,14.285715"
       orientation="0,1"
       id="guide5038" />
    <sodipodi:guide
       position="31.428572,-140"
       orientation="1,0"
       id="guide5040" />
    <sodipodi:guide
       position="265.71429,-148.57143"
       orientation="1,0"
       id="guide5042" />
  </sodipodi:namedview>
  <metadata
     id="metadata4357">
    <rdf:RDF>
      <cc:Work
         rdf:about="">
        <dc:format>image/svg+xml</dc:format>
        <dc:type
           rdf:resource="http://purl.org/dc/dcmitype/StillImage" />
        <dc:title />
      </cc:Work>
    </rdf:RDF>
  </metadata>
  <g
     inkscape:label="Capa 1"
     inkscape:groupmode="layer"
     id="layer1"
     transform="translate(0,-752.36208)">
    <g
       id="g6717">
      <g
         transform="matrix(2.4922852,0,0,2.4922852,374.09032,-462.15599)"
         id="g7532">
        <path
           transform="matrix(0.99999138,0.00415094,-0.00415094,0.99999138,-160.68251,78.203617)"
           d="m 122.40996,497.19987 -49.272651,28.93371 -49.693657,-28.2045 -0.421008,-57.13823 49.272649,-28.93371 49.693657,28.20451 z"
           inkscape:randomized="0"
           inkscape:rounded="0"
           inkscape:flatsided="true"
           sodipodi:arg2="1.0398294"
           sodipodi:arg1="0.51623067"
           sodipodi:r2="28.569887"
           sodipodi:r1="57.139774"
           sodipodi:cy="468.99536"
           sodipodi:cx="72.716301"
           sodipodi:sides="6"
           id="path7534"
           style="color:#000000;clip-rule:nonzero;display:inline;overflow:visible;visibility:visible;opacity:1;isolation:auto;mix-blend-mode:normal;color-interpolation:sRGB;color-interpolation-filters:linearRGB;solid-color:#000000;solid-opacity:1;fill:#d45500;fill-opacity:1;fill-rule:evenodd;stroke:#ffffff;stroke-width:4;stroke-linecap:round;stroke-linejoin:round;stroke-miterlimit:4;stroke-dasharray:none;stroke-dashoffset:0;stroke-opacity:1;color-rendering:auto;image-rendering:auto;shape-rendering:auto;text-rendering:auto;enable-background:accumulate"
           sodipodi:type="star" />
        <path
           sodipodi:type="star"
           style="color:#000000;clip-rule:nonzero;display:inline;overflow:visible;visibility:visible;opacity:1;isolation:auto;mix-blend-mode:normal;color-interpolation:sRGB;color-interpolation-filters:linearRGB;solid-color:#000000;solid-opacity:1;fill:#aa4400;fill-opacity:1;fill-rule:evenodd;stroke:none;stroke-width:4;stroke-linecap:round;stroke-linejoin:round;stroke-miterlimit:4;stroke-dasharray:none;stroke-dashoffset:0;stroke-opacity:1;filter:url(#filter7198-3);color-rendering:auto;image-rendering:auto;shape-rendering:auto;text-rendering:auto;enable-background:accumulate"
           id="path7536"
           sodipodi:sides="6"
           sodipodi:cx="72.716301"
           sodipodi:cy="468.99536"
           sodipodi:r1="57.139774"
           sodipodi:r2="28.569887"
           sodipodi:arg1="0.51623067"
           sodipodi:arg2="1.0398294"
           inkscape:flatsided="true"
           inkscape:rounded="0"
           inkscape:randomized="0"
           d="m 122.40996,497.19987 -49.272651,28.93371 -49.693657,-28.2045 -0.421008,-57.13823 49.272649,-28.93371 49.693657,28.20451 z"
           transform="matrix(0.88338342,0.0036669,-0.0036669,0.88338342,-152.43022,132.92741)" />
      </g>
      <g
         id="g6711">
        <path
           style="color:#000000;font-style:normal;font-variant:normal;font-weight:normal;font-stretch:normal;font-size:medium;line-height:normal;font-family:sans-serif;text-indent:0;text-align:start;text-decoration:none;text-decoration-line:none;text-decoration-style:solid;text-decoration-color:#000000;letter-spacing:normal;word-spacing:normal;text-transform:none;direction:ltr;block-progression:tb;writing-mode:lr-tb;baseline-shift:baseline;text-anchor:start;white-space:normal;clip-rule:nonzero;display:inline;overflow:visible;visibility:visible;opacity:0.5;isolation:auto;mix-blend-mode:normal;color-interpolation:sRGB;color-interpolation-filters:linearRGB;solid-color:#000000;solid-opacity:1;fill:#ffffff;fill-opacity:1;fill-rule:evenodd;stroke:none;stroke-width:2.48561192;stroke-linecap:round;stroke-linejoin:round;stroke-miterlimit:4;stroke-dasharray:none;stroke-dashoffset:0;stroke-opacity:1;filter:url(#filter5824);color-rendering:auto;image-rendering:auto;shape-rendering:auto;text-rendering:auto;enable-background:accumulate"
           d="m 969.05604,1088.272 c -20.1051,6.7474 -39.8485,14.8876 -59.71094,22.4023 -4.79157,1.4421 -5.10088,8.2365 -0.33789,9.9239 4.17798,2.5184 10.4298,2.1934 13.67764,5.4114 3.13243,5.6967 2.55861,13.7922 7.83603,18.1081 3.9096,2.5203 6.50168,-3.0593 5.53145,-6.3171 -1.31401,-10.1281 6.93264,0.7403 11.02072,2.4759 4.30042,3.1362 11.19298,10.0769 16.53768,4.8314 4.04658,-7.2931 3.48796,-16.4224 5.96506,-24.3245 1.37343,-9.5265 4.97498,-18.9182 5.23416,-28.5192 -0.48074,-2.6336 -3.15174,-4.3453 -5.75391,-3.9922 z m -10.05859,51.7226 c -4.00862,-0.7152 -8.79935,-6.1379 -13.04675,-8.5202 -6.21276,-3.6024 -11.51175,-7.2506 -2.75834,-11.6028 6.14503,-6.317 14.33987,-11.0507 19.4379,-18.1934 1.89513,-3.4578 -6.07312,-3.1283 -1.50545,-3.8472 8.92327,-5.8746 6.64586,1.4057 4.89093,8.0725 -2.33943,11.3637 -4.67886,22.7274 -7.01829,34.0911 z m -0.43555,-41.1835 c -10.93605,6.7563 -21.76797,13.9915 -32.70898,20.5527 -1.64593,-1.5443 -15.30476,-2.7342 -9.58937,-4.4896 14.04068,-5.33 28.54822,-10.8542 42.29835,-16.0631 z m -28.10156,37.4121 c -1.40338,0.7965 -0.0818,-0.4242 0,0 z"
           id="path7540"
           inkscape:connector-curvature="0"
           transform="matrix(2.4922852,0,0,2.4922852,-2198.696,-1874.8836)" />
        <g
           id="g6707">
          <path
             sodipodi:nodetypes="ccccccc"
             inkscape:connector-curvature="0"
             id="path7544"
             d="m 109.25131,919.14199 82.77686,-52.86037 c 3.48482,-2.0853 5.77261,0.27739 0.96781,4.83877 l -64.53027,56.78797 c -1.46684,1.24664 -2.06436,1.82834 -2.33395,3.61705 l -3.21625,28.43548 z"
             style="fill:#2ea5dd;fill-opacity:1;fill-rule:evenodd;stroke:none;stroke-width:1px;stroke-linecap:butt;stroke-linejoin:miter;stroke-opacity:1;filter:url(#filter6703)" />
          <path
             sodipodi:nodetypes="ccccccccccc"
             inkscape:connector-curvature="0"
             id="path7546"
             d="m 73.955715,910.31681 c -10.008444,-4.28224 -12.31493,-8.94955 3.387315,-14.51706 l 135.00911,-51.29397 c 6.81229,-2.25453 11.53766,-1.72691 10.64587,6.29077 l -23.71128,115.169 c -2.03764,9.53324 -7.71923,8.13482 -13.54928,6.29078 l -57.10065,-41.13168 -3.38731,36.77666 c -2.09694,-1.052 -4.67775,-2.70189 -6.77468,-12.58156 l -12.09758,-34.8409 z"
             style="fill:none;fill-rule:evenodd;stroke:#ffffff;stroke-width:6.19485378;stroke-linecap:round;stroke-linejoin:round;stroke-miterlimit:4;stroke-dasharray:none;stroke-opacity:1" />
        </g>
      </g>
    </g>
  </g>
</svg>
